<svg xmlns="http://www.w3.org/2000/svg" xmlns:xlink="http://www.w3.org/1999/xlink" width="500" height="500" viewBox="0 0 500 500"><defs><clipPath id="a"><rect x="-2.13" y="-35.54" width="510.41" height="539.06" style="fill:none"/></clipPath><pattern id="b" width="72" height="72" patternTransform="translate(108.98 56.73) scale(0.83)" patternUnits="userSpaceOnUse" viewBox="0 0 72 72"><rect width="72" height="72" style="fill:none"/><line x1="54" y1="71.75" x2="54" y2="144.25" style="fill:none;stroke:#1d1d1b;stroke-width:6px"/><line x1="18" y1="71.75" x2="18" y2="144.25" style="fill:none;stroke:#1d1d1b;stroke-width:6px"/><line x1="62" y1="71.75" x2="62" y2="144.25" style="fill:none;stroke:#1d1d1b;stroke-width:2px"/><line x1="26" y1="71.75" x2="26" y2="144.25" style="fill:none;stroke:#1d1d1b;stroke-width:2px"/><line x1="71.75" y1="18" x2="144.25" y2="18" style="fill:none;stroke:#1d1d1b;stroke-width:6px"/><line x1="71.75" y1="54" x2="144.25" y2="54" style="fill:none;stroke:#1d1d1b;stroke-width:6px"/><line x1="-0.25" y1="18" x2="72.25" y2="18" style="fill:none;stroke:#1d1d1b;stroke-width:6px"/><line x1="54" y1="-0.25" x2="54" y2="72.25" style="fill:none;stroke:#1d1d1b;stroke-width:6px"/><line x1="-0.25" y1="54" x2="72.25" y2="54" style="fill:none;stroke:#1d1d1b;stroke-width:6px"/><line x1="18" y1="-0.25" x2="18" y2="72.25" style="fill:none;stroke:#1d1d1b;stroke-width:6px"/><line x1="62" y1="-0.25" x2="62" y2="72.25" style="fill:none;stroke:#1d1d1b;stroke-width:2px"/><line x1="26" y1="-0.25" x2="26" y2="72.25" style="fill:none;stroke:#1d1d1b;stroke-width:2px"/><line x1="73.25" y1="26" x2="0.75" y2="26" style="fill:none;stroke:#1d1d1b;stroke-width:2px"/><line x1="73.25" y1="62" x2="0.75" y2="62" style="fill:none;stroke:#1d1d1b;stroke-width:2px"/><line x1="-72.25" y1="18" x2="0.25" y2="18" style="fill:none;stroke:#1d1d1b;stroke-width:6px"/><line x1="-72.25" y1="54" x2="0.25" y2="54" style="fill:none;stroke:#1d1d1b;stroke-width:6px"/><line x1="1.25" y1="26" x2="-71.25" y2="26" style="fill:none;stroke:#1d1d1b;stroke-width:2px"/><line x1="1.25" y1="62" x2="-71.25" y2="62" style="fill:none;stroke:#1d1d1b;stroke-width:2px"/><line x1="54" y1="-72.25" x2="54" y2="0.25" style="fill:none;stroke:#1d1d1b;stroke-width:6px"/><line x1="18" y1="-72.25" x2="18" y2="0.25" style="fill:none;stroke:#1d1d1b;stroke-width:6px"/><line x1="62" y1="-72.25" x2="62" y2="0.25" style="fill:none;stroke:#1d1d1b;stroke-width:2px"/><line x1="26" y1="-72.25" x2="26" y2="0.25" style="fill:none;stroke:#1d1d1b;stroke-width:2px"/></pattern><pattern id="c" width="74.06" height="72" patternTransform="translate(275.88 259.68) scale(0.65)" patternUnits="userSpaceOnUse" viewBox="0 0 74.06 72"><rect width="74.06" height="72" style="fill:none"/><line x1="24.98" y1="72" x2="24.98" style="fill:none;stroke:#1d1d1b;stroke-width:4px"/><line x1="6.49" y1="72" x2="6.49" style="fill:none;stroke:#1d1d1b;stroke-width:4px"/><line x1="43.47" y1="72" x2="43.47" style="fill:none;stroke:#1d1d1b;stroke-width:4px"/><line x1="61.96" y1="72" x2="61.96" style="fill:none;stroke:#1d1d1b;stroke-width:4px"/><line x1="12.09" y1="72" x2="12.09" style="fill:none;stroke:#1d1d1b"/><line x1="30.58" y1="72" x2="30.58" style="fill:none;stroke:#1d1d1b"/><line x1="49.07" y1="72" x2="49.07" style="fill:none;stroke:#1d1d1b"/><line x1="67.56" y1="72" x2="67.56" style="fill:none;stroke:#1d1d1b"/></pattern><clipPath id="d"><rect x="-522.5" width="504" height="498" style="fill:none"/></clipPath><clipPath id="e"><polygon points="74.32 190.66 166.61 189.85 253.13 173.7 332.08 192.66 437.33 188.34 434.25 493.56 346.68 492.77 263.92 467.35 185.26 483.78 74.95 481.91 74.32 190.66" style="fill:none"/></clipPath></defs><title>s4s5c10</title><g style="isolation:isolate"><g style="clip-path:url(#a)"><path d="M204.76,566.44l-22.71,3.41-73-533.13a4.29,4.29,0,0,1,3.61-4.82h0a4.29,4.29,0,0,1,4.87,3.55Z" style="fill:#0b0915"/><polygon points="125.76 81.9 114.95 83.53 80.85 64.34 152.71 53.52 125.76 81.9" style="fill:#0b0915"/><path d="M236.4,526l-22,6.51L68.73,14.45a4.29,4.29,0,0,1,2.91-5.27h0A4.29,4.29,0,0,1,77,12Z" style="fill:#0b0915"/><polygon points="91.45 56.91 80.97 60.01 44.55 45.7 114.23 25.09 91.45 56.91" style="fill:#0b0915"/><path d="M337.78,181.81s83.86,0,103.51,231.92c0,18.35-10.48,191.3-14.41,212.27s-37.34,13.1-37.34,13.1V577.52s-97.62,34.06-247,15.72c-7.86-1.31,11.79,47.3,11.79,47.3s-40.62,13-43.24,16.9-21-19.65-28.82-76S33.8,225.05,185.79,181.81C198.89,171.33,337.78,181.81,337.78,181.81Z" style="fill:#ef1e32"/><path d="M338.61,182.42s83.85,0,103.51,231.91c0,18.35-10.49,191.3-14.42,212.27s-37.34,13.1-37.34,13.1V578.12s-97.61,34.07-247,15.72c-7.87-1.31,11.79,47.3,11.79,47.3s-40.62,13-43.24,16.9-21-19.65-28.83-76S34.62,225.66,186.61,182.42C199.72,171.93,338.61,182.42,338.61,182.42Z" style="opacity:0.5;fill:url(#b)"/><polygon points="330.87 115.22 326.68 191.51 313.09 217.72 218.08 224.27 180.17 201.8 178.04 165.3 173.37 90.2 280.44 77.31 330.87 115.22" style="fill:#fdccaa"/><path d="M197.47,112.46a7.25,7.25,0,0,1,2.67-.75c1,.05,2-.09,3-.09a57.31,57.31,0,0,0,8-.2,16.11,16.11,0,0,1,2.9-.29,11.26,11.26,0,0,0,2.3-.18c1.8-.28,3.49.25,5.28-.07,1.11-.21,2.08.05,3.21-.14,1.33-.22,2.57-.13,3.9-.25a7.39,7.39,0,0,1,5,1.55c.91.59,1.29.65,1.5,1.75.14.7.22,1.42.34,2.12.19,1.16.37,2.32.56,3.47a10.79,10.79,0,0,1,.27,2.11,5.09,5.09,0,0,1-1.41,3c-2.4,3.16-6.28,4.08-10.08,4.1-3.38,0-6.72,0-10.1-.15a20.76,20.76,0,0,1-3.44-.07,24.27,24.27,0,0,0-4.06-.92c-2-.06-3.59-.74-5.54-.9-1.77-.14-3.56-.54-5.33-.79a14.41,14.41,0,0,1-5.42-1.65,9.52,9.52,0,0,1-3.09-4.93c-.55-2.4-.42-4.28,1.61-5.83s5.09-1,7.26-.39" style="fill:#0b0915"/><path d="M203.72,145.24c4.33-5.58,11.6-4,16.69-.49.76.53,1.47-.71.72-1.22-5.57-3.85-13.68-5.39-18.41.7-.56.72.44,1.73,1,1Z"/><path d="M212.53,137.71c.67.59-.64,1.34-1,1.54-1.05.52-1-1.07-1.1-1.77,0-.3-.19-1,0-1.17s.76-.18,1-.21c.45-.06,1-.15,1.35.22a3.29,3.29,0,0,1,.4,1.24c.06.23.3,1.51-.21,1.42a1.63,1.63,0,0,1-.42-1c.1-.28.58-.31.83-.29.41,0,.4,0,.37.54a1.28,1.28,0,0,1-1.83,1,1.56,1.56,0,0,1-.59-.58,3.07,3.07,0,0,0-.2-.36.7.7,0,0,1-.08-.2c-.07-.31-.21-.14-.41.5,1.27-.43.72-2.47-.56-2-1.79.6-1.1,2.57-.2,3.66a3.37,3.37,0,0,0,4.81.4c1.23-1,1.72-3.34.43-4.52a3.05,3.05,0,0,0-4.55,1.1c-.53,1.56.8,3.92,2.58,3.77,2.4-.2,2.42-2.94,1.9-4.68a3.17,3.17,0,0,0-1.52-2.12,4.82,4.82,0,0,0-3-.15,2.8,2.8,0,0,0-1.92,1,4.05,4.05,0,0,0-.21,2.91,4.38,4.38,0,0,0,1.18,3,2.62,2.62,0,0,0,2.89.12,4.09,4.09,0,0,0,2.23-2.17,2.8,2.8,0,0,0-.64-2.75c-1-.91-2.49.58-1.49,1.49Z"/><path d="M311.63,112.46a7.25,7.25,0,0,0-2.67-.75c-1,.05-2-.09-3-.09a57.27,57.27,0,0,1-8-.2,16.11,16.11,0,0,0-2.9-.29,11.26,11.26,0,0,1-2.3-.18c-1.8-.28-3.49.25-5.28-.07-1.11-.21-2.08.05-3.21-.14-1.33-.22-2.57-.13-3.9-.25a7.39,7.39,0,0,0-5,1.55c-.91.59-1.29.65-1.51,1.75-.13.7-.21,1.42-.33,2.12-.19,1.16-.37,2.32-.56,3.47a10.79,10.79,0,0,0-.27,2.11,5.09,5.09,0,0,0,1.41,3c2.4,3.16,6.28,4.08,10.08,4.1,3.38,0,6.72,0,10.1-.15a20.76,20.76,0,0,0,3.44-.07,24.27,24.27,0,0,1,4.06-.92c2-.06,3.59-.74,5.54-.9,1.77-.14,3.56-.54,5.33-.79a14.41,14.41,0,0,0,5.42-1.65,9.52,9.52,0,0,0,3.09-4.93c.55-2.4.42-4.28-1.61-5.83s-5.09-1-7.26-.39" style="fill:#0b0915"/><path d="M298.5,144.23c-4.73-6.09-12.85-4.55-18.42-.7-.75.51,0,1.75.72,1.22,5.09-3.51,12.36-5.09,16.69.49.56.72,1.56-.29,1-1Z"/><path d="M287.19,136.22a2.6,2.6,0,0,0-.71,2.26,3,3,0,0,0,1.63,2.24c1.7,1.14,3.83,1.06,4.48-1.18.44-1.52,1-4.16-.71-5.07-1.48-.79-4.13-.87-5.13.66s-1.42,4.24.19,5.47,3.53-.32,3.85-2.07c.36-2-1.76-3.23-3.55-2.85s-2.18,2.46-1.5,4a3.42,3.42,0,0,0,5.41.95c1.06-1,2-3.3.05-3.95-1.29-.44-1.84,1.6-.56,2l-.39-.59a1,1,0,0,1-.08.24,2.71,2.71,0,0,0-.23.41,1.49,1.49,0,0,1-.43.47,1.27,1.27,0,0,1-2-.83c-.06-.4,0-.57.24-.65s.83,0,1,.29a1.35,1.35,0,0,1-.39.88c-.51.16-.32-1-.25-1.34a3.69,3.69,0,0,1,.35-1.14c.32-.46.89-.38,1.41-.32a2.21,2.21,0,0,1,.89.18c.17.12.1,0,.17.28a2.23,2.23,0,0,1-.06.77c-.1.65-.05,2.3-1,2-.45-.15-1.84-1-1.17-1.61,1-.91-.49-2.4-1.49-1.49Z"/><path d="M180.52,110s0,.41,0,1.17C181,124.9,184.45,183,194.38,193c7.46,7.56,16.91,9.08,27.11,8.12a523.36,523.36,0,0,1,57-2.65q8,.12,16.09.53c9,.45,19.44.67,25.56-6,3.46-3.79,4.75-9.06,5.44-14.15,1.27-9.22,1-60.76-.72-69.9,3.24,2,6.69,4.24,8,7.82,1.52,4.23-.21,51.42-.33,55.76a73.61,73.61,0,0,0,2,17.74c2.56,11.59,7,22.65,10.4,34a179.9,179.9,0,0,1,7.2,41.57c.3,5.71.32,11.53-1.28,17-2.22,7.66-11,22.73-20.82,20.55-8.51-1.89-7.56-9.46-7.56-9.46s2.36,19.39-9.93,21.28-10.4-10.4-13.24-11.35-4.73,15.13-13.24,19.86-15.12,2.83-16.07-7.57-1.89-6.62-3.78-3.78S269.87,337,250,331.32c-12.29-3.78-12.29-18.91-12.29-18.91s-.88,6.65-2.84,10.4c-2.82,5.41-15,3.19-20.8-10.4-1.56-3.69-4.73-11.35-4.73-11.35s-1.89,13.24-4.72,14.19-15.13-10.4-16.08-12.3-5.61-14-5.67-14.18c1.35,3.52-.47,11.88-4.93,11.71-6.08-.24-10.58-15.65-12.19-20.26a91.05,91.05,0,0,1-1.82-54.51c2.94-10.34,7.71-20.11,10.22-30.56,1.82-7.58-1.81-64.64-2.85-72.36C170.1,113.72,175.11,117.09,180.52,110Z" style="fill:#3a3f49"/><path d="M254.73,191.86s21.22-27.74,55.49,9.79c8.16,3.26,13,13,21.21,9.79S336.33,231,285.74,231c-9.29,2.29-25.87-14.34-31-24.48-1.65-3.25-26.11,40.8-75.06,19.59-6.53,0-9.8-11.43-9.8-11.43s13.06,1.63,19.59-3.26S220.46,162.48,254.73,191.86Z" style="fill:#3a3f49"/><path d="M240.63,192a13.58,13.58,0,0,1-2-9.84c1-5.9,5.9-14.75,5.9-21.64s3.93-17.7,6.89-18.69,8.85,3.94,8.85,8.86,2,15.74,2.95,18.69S268.18,189,266.21,192s-8.85,0-8.85,0-2,4.92-3.94,4.92-5.9-3.94-5.9-3.94S244.57,194.94,240.63,192Z" style="fill:#b98f6e"/><path d="M142.14,596.54a1097.49,1097.49,0,0,1-9.36-141.24,483.8,483.8,0,0,1,2.75-54.76c.19-1.59-2.3-1.57-2.48,0-3.78,32.9-3.21,66.29-1.64,99.31,1.29,27.07,3.49,54.11,6.42,81,.57,5.22,1.16,10.44,1.83,15.64.2,1.56,2.68,1.59,2.48,0Z"/><path d="M384.86,596.54a1099.29,1099.29,0,0,0,9.36-141.24,483.81,483.81,0,0,0-2.76-54.76c-.18-1.57-2.66-1.59-2.48,0,3.78,32.9,3.22,66.29,1.65,99.31-1.29,27.07-3.49,54.11-6.43,81-.57,5.22-1.15,10.44-1.82,15.64-.21,1.58,2.28,1.57,2.48,0Z"/><path d="M263.44,322.62c2.27,3.13,2.3,9.64,2.94,13.32.81,4.59,1.39,9.27,2.42,13.82.82,3.63,2.05,7.19,2.84,10.81,1,4.66.47,9.34,1.65,14.05,2.41,9.61,2.33,20.2,3,30.1,1.33,19.82-6.58,38.72-6.68,58.41,0,5.21-.28,10.43-.19,15.65.1,5.57,1,11.08,1.42,16.63.89,11.12.49,22.33,1.08,33.47.63,12,1.34,24.06,2.33,36.06.49,5.9,1.8,11.7,2.05,17.6s.71,12,.75,18a1.24,1.24,0,0,0,2.48,0c-.08-10.83-1.35-21.32-2.48-32-1.15-10.91-1.59-21.95-2.26-32.9-.69-11.23-.74-22.43-1.09-33.66s-1.87-22.17-1.65-33.45c.1-5.25-.11-10.42.87-15.61.85-4.52,1.72-9.09,2.41-13.64,1.56-10.33,3.63-20.42,3.55-30.91-.06-9.25-.89-18.86-1.83-28-.51-5-2.53-9.57-2.52-14.68,0-4.71-1.46-8.88-2.55-13.43-1.29-5.43-2.15-10.91-3.12-16.41-.71-4.1-.75-10.94-3.28-14.44-.93-1.28-3.08,0-2.14,1.26Z"/><path d="M322.23,127.25c-14-6.72-25.36-7.07-36.47-6.61-6.54.27-13.65,1.44-19,5.51a16.43,16.43,0,0,0-6.31,11.13c-7.94-7.1-15.89-.33-15.89-.33s0,1-.06,2.2a28.49,28.49,0,0,0-.27-2.84,16.41,16.41,0,0,0-6.3-11.12c-5.34-4.07-12.45-5.24-19-5.52-11.1-.46-22.43-.11-36.47,6.62-4.79,2.29-4.94,7.12-4,12,.57,2.88,6.61,6.05,6.62,6.05.4.21.65,5.53.76,6.1a38.46,38.46,0,0,0,4.76,12.83c7.34,12,23.24,13.83,35.6,9.48a25.25,25.25,0,0,0,12-9.56c3.57-5.14,5.73-12.48,6.19-19.38,0,.13,0,0,.09-.38,6.62-7.29,14-1.63,15.58-.27.2,7.34,2.41,15.45,6.26,21a25.22,25.22,0,0,0,12,9.55c12.37,4.36,28.26,2.5,35.6-9.47a38.54,38.54,0,0,0,4.76-12.83c.12-.58.37-5.9.76-6.1,0,0,6.05-3.17,6.63-6.05C327.17,134.38,327,129.55,322.23,127.25ZM200.45,167.6c-5-3.13-8.45-8.42-10.23-14.07-2-6.46-4.26-17.55.68-23.28,3.29-3.81,8.85-5.2,13.61-6,8-1.32,15.83-.53,23.84-.08,13.26.74,13,15.26,13.25,19.3C243.11,164.54,217.74,178.4,200.45,167.6ZM314.5,154.49c-1.78,5.65-5.2,10.94-10.23,14.08-17.29,10.8-42.66-3.07-41.15-24.13.29-4,0-18.56,13.25-19.3,8-.44,15.83-1.23,23.84.09,4.76.78,10.32,2.18,13.61,6C318.77,137,316.54,148,314.5,154.49Z" style="fill:#005d6d"/><path d="M168.78,98.28s0-71.19,67.88-71.19c18.21-3.31,94.37-5,94.37,59.6C329.38,101.59,168.78,98.28,168.78,98.28Z" style="fill:#3e292f"/><path d="M170.44,124.77s71.19-49.67,160.59,0c13.25,6.62,1.66-36.43,0-38.08S235,35.36,170.44,98.28C165.47,101.59,170.44,124.77,170.44,124.77Z" style="fill:#3e292f"/><path d="M169.79,123.6s71.19-49.67,160.59,0c13.25,6.62,1.66-36.43,0-38.08s-96-51.33-160.59,11.59C164.82,100.42,169.79,123.6,169.79,123.6Z" style="fill:url(#c)"/><path d="M236.87,226.29a26.09,26.09,0,0,0,31.48,0c3.22-2.4.07-7.89-3.19-5.45-7.69,5.74-17.41,5.89-25.1,0-3.22-2.47-6.37,3-3.19,5.45Z" style="fill:#e3dad2"/><path d="M259.46,368.43a2.65,2.65,0,0,0-.7,2.27,3,3,0,0,0,1.63,2.24c1.7,1.13,3.82,1.05,4.48-1.19.44-1.52,1-4.16-.72-5.07-1.47-.78-4.13-.87-5.12.67s-1.42,4.23.19,5.46,3.53-.31,3.84-2.06c.37-2-1.75-3.23-3.55-2.85s-2.17,2.46-1.5,4a3.43,3.43,0,0,0,5.42.94c1.06-1,2-3.3,0-3.95-1.28-.43-1.84,1.6-.56,2l-.38-.58a1.55,1.55,0,0,1-.08.23,2.38,2.38,0,0,0-.23.41,1.55,1.55,0,0,1-.44.48,1.27,1.27,0,0,1-2-.84c-.06-.4-.06-.56.23-.65s.84,0,1,.29a1.25,1.25,0,0,1-.38.88c-.51.16-.32-1-.25-1.34a3.3,3.3,0,0,1,.34-1.13c.32-.47.9-.39,1.41-.33a2.23,2.23,0,0,1,.9.18c.17.12.09,0,.17.28a2.21,2.21,0,0,1-.06.77c-.1.66-.06,2.31-1,2-.45-.15-1.83-1-1.17-1.62,1-.91-.48-2.39-1.49-1.49Z"/><path d="M261,413.21a2.6,2.6,0,0,0-.71,2.26,3,3,0,0,0,1.63,2.24c1.7,1.13,3.83,1.06,4.48-1.19.44-1.51,1-4.15-.71-5.06-1.48-.79-4.13-.88-5.13.66s-1.42,4.24.19,5.46,3.53-.31,3.84-2.06c.37-2-1.75-3.23-3.55-2.85s-2.17,2.46-1.49,4a3.42,3.42,0,0,0,5.41.95c1.06-1,2-3.3.05-3.95-1.29-.44-1.84,1.59-.56,2l-.39-.59a1.13,1.13,0,0,1-.08.24c-.09.08-.16.31-.23.4a1.45,1.45,0,0,1-.44.48,1.26,1.26,0,0,1-2-.84c-.06-.4-.06-.56.23-.64s.84,0,1,.29a1.35,1.35,0,0,1-.39.88c-.51.15-.32-1-.25-1.34a3.59,3.59,0,0,1,.34-1.14c.33-.46.9-.38,1.41-.32a2.22,2.22,0,0,1,.9.17c.17.13.09,0,.17.29a2.23,2.23,0,0,1-.06.77c-.1.65-.06,2.3-1,2-.45-.15-1.83-1-1.16-1.62,1-.9-.49-2.39-1.49-1.48Z"/><path d="M258.28,447.67a2.63,2.63,0,0,0-.71,2.27,3,3,0,0,0,1.63,2.24c1.7,1.13,3.82,1.05,4.48-1.19.44-1.52,1-4.16-.71-5.07-1.48-.78-4.13-.87-5.13.67s-1.42,4.24.19,5.46,3.53-.31,3.84-2.06c.37-2-1.75-3.23-3.55-2.85s-2.17,2.46-1.49,4a3.42,3.42,0,0,0,5.41.94c1.06-1,2-3.3,0-3.95-1.28-.43-1.83,1.6-.56,2l-.38-.59a.9.9,0,0,1-.08.23,2.38,2.38,0,0,0-.23.41,1.55,1.55,0,0,1-.44.48,1.27,1.27,0,0,1-2-.84c-.06-.4-.06-.56.23-.65s.84,0,1,.29a1.25,1.25,0,0,1-.38.88c-.51.16-.32-1-.25-1.33a3.29,3.29,0,0,1,.34-1.14c.33-.47.9-.39,1.41-.33a2.23,2.23,0,0,1,.9.18c.17.13.09,0,.17.28a2.2,2.2,0,0,1-.06.77c-.1.66-.06,2.31-1,2-.45-.15-1.83-1-1.16-1.62,1-.91-.49-2.39-1.49-1.49Z"/><path d="M256.71,494.24a2.62,2.62,0,0,0-.7,2.26,3,3,0,0,0,1.63,2.24c1.7,1.14,3.82,1.06,4.47-1.18.45-1.52,1-4.16-.71-5.07-1.48-.79-4.13-.87-5.13.66s-1.42,4.24.2,5.47,3.53-.32,3.84-2.07c.37-2-1.75-3.23-3.55-2.84s-2.18,2.45-1.5,4a3.43,3.43,0,0,0,5.42.95c1.06-1,1.95-3.3,0-3.95-1.28-.44-1.84,1.6-.56,2l-.39-.59a1,1,0,0,1-.07.24,2.06,2.06,0,0,0-.23.41,1.55,1.55,0,0,1-.44.48,1.27,1.27,0,0,1-2-.84c-.06-.4-.06-.57.23-.65s.84,0,1,.29a1.29,1.29,0,0,1-.38.88c-.51.16-.32-1-.25-1.34a3.42,3.42,0,0,1,.34-1.14c.32-.46.9-.38,1.41-.32a2.23,2.23,0,0,1,.9.18c.17.12.09,0,.17.28a2,2,0,0,1-.07.77c-.09.65-.05,2.3-1,2-.45-.15-1.83-1-1.17-1.61,1-.91-.48-2.4-1.49-1.49Z"/><path d="M256.71,340.1a2.64,2.64,0,0,0-.7,2.27,3,3,0,0,0,1.63,2.24c1.7,1.13,3.82,1.05,4.47-1.19.45-1.52,1-4.16-.71-5.07-1.48-.78-4.13-.87-5.13.67s-1.42,4.23.2,5.46,3.53-.31,3.84-2.07c.37-2-1.75-3.22-3.55-2.84s-2.18,2.46-1.5,4a3.42,3.42,0,0,0,5.42,1c1.06-1,1.95-3.3,0-4-1.28-.43-1.84,1.6-.56,2l-.39-.58a.88.88,0,0,1-.07.23,2.38,2.38,0,0,0-.23.41,1.55,1.55,0,0,1-.44.48,1.27,1.27,0,0,1-2-.84c-.06-.4-.06-.56.23-.65s.84,0,1,.29a1.25,1.25,0,0,1-.38.88c-.51.16-.32-1-.25-1.34a3.42,3.42,0,0,1,.34-1.14c.32-.46.9-.38,1.41-.32a2.23,2.23,0,0,1,.9.18c.17.12.09,0,.17.28a2,2,0,0,1-.07.77c-.09.66-.05,2.31-1,2-.45-.15-1.83-1-1.17-1.62,1-.91-.48-2.39-1.49-1.49Z"/><path d="M387.89,210.27s-16.52-17.7-34.56-24.26,8.87,217.77,36.75,283.37C399.92,487.42,387.89,210.27,387.89,210.27Z" style="fill:#004652"/><path d="M124.41,225.39s11.48-21.32,29.52-27.88,8.2,208.28-19.68,273.88C124.41,489.43,124.41,225.39,124.41,225.39Z" style="fill:#004652"/></g><g style="clip-path:url(#d)"><path d="M54.57,407.49S14.4,393.55,8.66,391.91-2,387-7.74,384.53s-4.1-4.92-9.83-9.84-11.48-5.73-15.58-9,1.64.82-17.22-9-36.89-14.76-44.27-25.42-28.69-21.31-35.25-31.15-11.48-15.58-16.4-18-7.38-10.65-9.84-10.65-6.14-2.87-8.6-3.69a24.22,24.22,0,0,1-4.92-2.46s-13.94-7.38-15.58-10.66-3.28-7.38-5.74-10.66-12.3-9-17.22-15.57-5.73-4.1-9-9-4.92-4.1-11.48-12.3-9.84-12.3-11.48-11.48-4.92,4.92-7.38,4.92-1.64-4.92-4.1-4.1l-2.46.82-1.64.82s-3.27-2.46-4.91-2.46a15.2,15.2,0,0,1-5.74-1.64c-1.64-.82,0-2.46-4.1-1.64s-8.2,2.46-9.84,4.1L-282,198s-.82-1.64-4.92-1.64-4.92,0-6.56.82-.82.82-3.28,1.64,0,.82-3.28,1.64-5.74-.82-9-1.64-1.64-.82-4.92-.82h-6.56c-1.64,0-3.28-.82-5.74-2.46a8.84,8.84,0,0,0-5.74-1.64c-1.64,0-5.74,2.46-6.56,4.1s-4.92,3.28-7.38,5.74a36.34,36.34,0,0,0-4.1,4.92s-29.51,22.95-42.63,27c-1.56.49-5.74,1.64-9,.82s-4.09,0-4.91,0h-4.92s-5.74,9-14.76,13.94c-3.22,1.76-12.3,4.92-15.58,7.38s-3.28,7.38-8.2,9.84-12.29,8.2-12.29,8.2-22.14-11.48-23.78-13.12-2.46-1.64-5.74-3.28-.82-4.1-7.38-2.46-9,4.1-12.29,4.92a21.84,21.84,0,0,0-6.56,3.28s-8.2,0-12.3,4.1c0,0-5.74-2.46-9,2.46a126.2,126.2,0,0,1-23,17.21c-4.12,2.43-10.66,5.74-14.76,12.3-1.84,2.95-32,32-66.41,51.65-1.42.81-2.46-2.46-5.73-.82s-5.74,3.28-12.3,2.46-.82-3.28-8.2-.82-7.38,4.92-13.94,8.2-6.56,4.1-12.29,5.74-6.56,0-10.66.82-3.28,4.1-6.56,5.73-15.58,1.64-21.32,6.56c-1.39,1.2-9.83,4.1-17.21,4.92s-5.74,6.56-11.48,5.74-7.38-2.46-10.66-.82-5.74,6.56-8.2,7.38-3.28.82-7.38,1.64-5.73-.82-6.55.82,1.64,2.46-1.64,3.28-4.1.82-4.92,3.28,1.64,2.46-2.46,3.28-7.38.82-11.48,1.64-13.94,3.28-18.86,3.28-4.91-1.64-9,0-14.76,3.28-15.58,4.1-2.46,1.64-4.92,3.27-8.2,9.84-9.84,10.66-10.66-1.64-13.93,0-25.42,7.38-25.42,7.38L-991.12,453l-26.24,38.53L-614,496.44l669,7.38Z" style="fill:#abc4ab"/><path d="M-149.16,472.66a35.22,35.22,0,0,1,13.94-3.27c7.38,0,13.94,2.45,17.22,0s3.28-1.64,7.37-4.92-1.64-5.74,10.66-5.74,20.5-.82,23-2.46,7.38-.82,8.2-5.74,5.73-3.28,1.64-9-1.64-7.38-5.74-8.2-3.28-7.38-11.48-11.47-5.74-4.1-11.48-7.38-4.1-4.1-9-8.2-28.69-21.32-41-32.79-18-14.76-26.23-23.78-9.84-1.64-13.94-16.4-4.92-13.93-12.3-27.87-13.93-12.3-14.75-20.5-4.1-9.83.82-8.19,8.19,9,10.65,10.65,4.1,6.56,7.38,6.56-1.64,6.56,9.84,10.66,4.92,5.74,9,11.48,12.3,10.65,15.57,13.93,17.22,11.48,19.68,12.3,20.5,13.12,27.87,19.68,23,13.93,29.52,16.39,18,8.2,32,13.12,0-2.46-9-7.38-3.28-7.38-10.65-9-26.24-13.93-31.16-18.85-9-11.48-15.57-17.22-5.74-4.92-9.84-12.3-5.74-12.29-.82-10.65,4.92,12.29,9.84,14.75S-98.33,344-94.23,344.77s6.56,1.64,10.66,6.56,12.3,10.66,21.31,14.76,18.86,13.11,28.7,15.57S-27,383.3-18.8,387.4s21.31,7.38,25.41,9.84,15.58,3.28,17.22,7.38,39.35,13.12,39.35,13.12l1.64,68.86S33.66,438.23,23,437.41,9.89,434.13-4,430s-25.41-9.83-30.33-11.47-12.3-.82-20.5-9-36.89-22.14-39.35-23.78,18.86,12.3,23.78,18,16.39,12.3,21.31,13.94S-31.92,430-22.9,431.67s9.83,0,19.67,8.2S16.45,450.53,23,456.27s13.93,13.94,12.29,15.57S-1.59,453-13.07,448.89s-9-3.28-20.49-7.38-22.14-14.76-29.52-17.22,7.38,8.2,13.94,16.4,10.66,6.56,11.48,13.94-4.92,7.38-2.46,15.58,5.33,17.62-2.87,19.26-53.7-2.05-66-1.23-31.15,5.74-39.35.82S-149.16,472.66-149.16,472.66Z" style="fill:#86ac98"/><path d="M372.32,483s-285-2-353-4-123-6-147-2-145-2-179,2-12-5-115-5-178,6-215,4-100,8-131,8-157,2-186,2h-39l-14,375,1394-14Z" style="fill:#698b87"/></g><g style="clip-path:url(#e)"><rect x="59.81" y="140.13" width="381.72" height="343.34" style="fill:#fff"/><path d="M434.08,394.11s-19.17-6.65-21.91-7.44-5.08-2.34-7.82-3.52-2-2.35-4.69-4.69-5.48-2.74-7.44-4.31.78.39-8.21-4.3-17.61-7-21.13-12.13-13.69-10.17-16.82-14.87-5.48-7.43-7.83-8.6-3.52-5.09-4.69-5.09-2.94-1.37-4.11-1.76a11.43,11.43,0,0,1-2.35-1.17s-6.65-3.52-7.43-5.09a33.25,33.25,0,0,0-2.74-5.08c-1.17-1.57-5.87-4.31-8.22-7.44s-2.74-1.95-4.3-4.3-2.35-2-5.48-5.87-4.69-5.87-5.48-5.48-2.34,2.35-3.52,2.35-.78-2.35-2-2l-1.18.39-.78.4a6.31,6.31,0,0,0-2.35-1.18,7.23,7.23,0,0,1-2.73-.78c-.79-.39,0-1.17-2-.78a10.63,10.63,0,0,0-4.7,1.95l-.78.79s-.39-.79-2.35-.79-2.34,0-3.13.39a5.42,5.42,0,0,1-1.56.79c-1.17.39,0,.39-1.57.78s-2.73-.39-4.3-.78-.78-.39-2.35-.39h-3.13a5.27,5.27,0,0,1-2.74-1.18,4.21,4.21,0,0,0-2.73-.78,5.32,5.32,0,0,0-3.13,2c-.39.78-2.35,1.56-3.52,2.73a17.35,17.35,0,0,0-2,2.35s-14.09,11-20.35,12.91a8.71,8.71,0,0,1-4.3.39,4.17,4.17,0,0,0-2.35,0h-2.34a22,22,0,0,1-7,6.66c-1.53.83-5.86,2.34-7.43,3.52s-1.56,3.52-3.91,4.69a46.6,46.6,0,0,0-5.87,3.91s-10.56-5.47-11.35-6.26-1.17-.78-2.73-1.56-.4-2-3.53-1.17-4.3,1.95-5.86,2.34a10.27,10.27,0,0,0-3.13,1.57s-3.92,0-5.87,1.95c0,0-2.74-1.17-4.31,1.18a60,60,0,0,1-10.95,8.21c-2,1.16-5.09,2.74-7,5.87-.88,1.41-15.26,15.26-31.69,24.65-.68.39-1.18-1.17-2.74-.39a8.29,8.29,0,0,1-5.87,1.17c-3.13-.39-.39-1.56-3.91-.39s-3.52,2.35-6.65,3.91-3.13,2-5.87,2.74-3.13,0-5.09.39-1.56,2-3.13,2.74-7.43.78-10.17,3.13c-.66.57-4.7,2-8.22,2.35s-2.73,3.13-5.47,2.74-3.52-1.18-5.09-.39-2.74,3.13-3.91,3.52a25.41,25.41,0,0,1-3.52.78c-2,.39-2.74-.39-3.13.39s.78,1.17-.79,1.57-1.95.39-2.34,1.56.78,1.17-1.18,1.57-3.52.39-5.47.78-6.65,1.56-9,1.56-2.35-.78-4.31,0-7,1.57-7.43,2a22.42,22.42,0,0,1-2.35,1.56c-1.17.79-3.91,4.7-4.69,5.09s-5.09-.78-6.65,0S-28.16,410-28.16,410l-36.78,5.87-12.52,18.39L115,436.56l319.25,3.52Z" style="fill:#abc4ab"/><path d="M146.81,409.26a8.37,8.37,0,0,0,0-3.13c-.39-1.17-1.18-1.56-1.18-2.73s.79-.79,0-1.57-1.56-2.74-2.34-3.13-1.18-2.35-2-2.35-2-1.17-2-1.17,0-2.35-1.56-2.35-3.13-.78-4.7.39a51.26,51.26,0,0,1-4.3,3.13c-.78.39,0,0-2.74.79s-12.52.78-13.69.78-4.7.78-4.7,0,.79-2,2-1.57,4.3-.78,5.87-1.56,2.35-.78,2.74-1.57,0-1.56,0-2-.79-1.57-1.57-.79-2.35,2.35-3.13,2.35-1.56.78-2.35.39,0-2,0-2l1.57-1.57,1.17-1.56a17.77,17.77,0,0,0-4.3,1.17,12.63,12.63,0,0,1-4.69.78c-.4,0-2.74-1.95-3.53-2.34s-2.73-2.35-3.52-2.35-1.56-1.18-1.56-1.18l-1.18-.78s.79,2-.78,2-1.56-.78-2.35-.78a2.34,2.34,0,0,0-1.56.39c-.78.39-1.17.39-2,.78s-1.17.39-1.17.78,0,1.57.39,2-2,.39-2,.39a9.92,9.92,0,0,0-2.73.78c-.4.39-.4,1.18-1.57,1.18s-4.3.39-4.3.39-.39-.79-2,0,1.17,1.56,0,1.56-3.52,0-4.3.39-2,.39-1.18.79,2.35,0,2,.78-.39,2.35-.78,2.35-1.18,0-.39.39a1.56,1.56,0,0,1,.78,1.56c0,.39-.39.78-1.57,1.18a14.44,14.44,0,0,1-3.52.78c-.78,0-2.74,1.17-4.69,1.56s-2,.79-3.52.79-.39-1.18,0-1.18a19.19,19.19,0,0,0,2.74-1.17l1.95-1.18,2-.78,1.17-1.95,2,.39.78-.39-.39-2s.39-1.17,0-1.17a8.83,8.83,0,0,1-1.57-.4.38.38,0,0,0-.39-.39,31.05,31.05,0,0,0-3.52,1.57H59.56a17.86,17.86,0,0,1-3.13.78c-.78,0-3.13.78-4.3.78H49l-1.57.79a1.88,1.88,0,0,1,0,1.56,4.83,4.83,0,0,1-.78,1.17l-.78.79H44.3l-3.52-1.57-4.69,1.18-1.18,1.56a5.72,5.72,0,0,1-1.56.78,10.07,10.07,0,0,0-2,.79H29.83c-.39,0-1.18.78-1.18.78a16.52,16.52,0,0,1,.4,1.95c0,.4-1.57,0-1.57,0s-2.74,1.18-3.52,1.57a22.23,22.23,0,0,0-.39,2.74c0,.78.39,1.17,0,1.56s-.39,1.18-.78,2.35.39,3.52.39,4.3.78,1.18,0,1.18-4.31-.39-5.09.39-3.91.78-5.48.78-1.17,2.35-1.17,2.35l3.13,1.95,129.5,5.48a11.3,11.3,0,0,0,1.17-6.26,60.88,60.88,0,0,0-1.17-6.26c0-.39.39-3.52.78-3.91A19.61,19.61,0,0,0,146.81,409.26ZM98.69,424.13c-.4.78-3.92,0-4.31-.39A8.83,8.83,0,0,0,90.47,421c-2.35-.78-5.48-3.91-7-4.3a28.09,28.09,0,0,0-2.74-.79c-2-.39-4.7-.39-2.74-1.17,0,0,2-1.95,3.52-1.56A3.37,3.37,0,0,0,84.6,412a5.31,5.31,0,0,1,1.57-1.17c.78-.39,1.56-1.17,2.34-1.17s-.78,1.17-1.17,1.95A6.78,6.78,0,0,1,85,414c-.78.39-.78.78-.78,1.17s.78,2,1.56,2,0-1.57,2-1.57a14.79,14.79,0,0,1,3.13.39c.39,0,1.17,0,1.17.79s.79,1.17,0,1.56a1.4,1.4,0,0,0-.78,1.18s1.18.78,2,1.17.78,1.17,1.56,1.56.79,0,1.18.4S99.08,423.35,98.69,424.13Zm7.43-.78c-1.17-.39-.39-.78-2-1.18s-1.17-.78-2.74-1.17-1.17,0-2.34-.78-2.74-3.91-3.52-3.91-.79-.79-1.18-.79.78,3.52,2,3.92,3.91,3.13,4.69,3.91,1.57,1.17,1.18,1.56-4.7-2-5.09-2.74-1.56-1.56-2.35-2.34-.78-2.35-1.56-3.13a2.17,2.17,0,0,1-.78-2c0-.78,1.17-1.56,1.56-3.13s3.13-4.3,4.7-4.3a6.68,6.68,0,0,1-.79,3.13c-.78,1.17-1.17,1.17-1.17,2.35s-.39,2.34.39,3.12,2,1.18,2.74,2,2,2,2.74,2a4,4,0,0,1,3.13,1.17c1.17,1.17,2.74,2,3.52,3.13S107.29,423.74,106.12,423.35Z" style="fill:#86ac98"/><path d="M152.48,384a2.67,2.67,0,0,0-.78,2.35,3.23,3.23,0,0,1-.39,2.74c-.39.78-2,2.34-1.57,3.13s-1.56,1.56-1.17,2.34-3.91-1.56-5.48-1.95a12.34,12.34,0,0,1-2.35-.79s.79,1.18-.78,1.18-1.17-1.18-2.74-1.57-3.13-1.17-3.91-.78-.39,1.57-2,1.57-1.56,0-3.91-1.57-3.13-2.74-5.08-3.13-3.53-1.17-3.53-2.35-.78,0,.79-1.56,3.13,0,4.69-1.57-.39-2.74,2-3.13a21,21,0,0,1,7,0c1.17.39,2.54,2.55,5.28,3.33s3.52,0,4.7.39a15.9,15.9,0,0,1,2.73.78,6.19,6.19,0,0,0,3.53.39C150.33,383.83,152.48,384,152.48,384Z" style="fill:#86ac98"/><path d="M157.87,390.19a30.39,30.39,0,0,0,2,3.92c1.17,1.95,3.91,2.74,5.87,4.3s4.69,6.26,6.65,7.83,0,1.17-.39,3.12,0,1.57.39,2.35,7,7,8.6,7.83.79.78,5.87,3.91a16.2,16.2,0,0,1,6.65,7.82l27.19.2L265.27,428s2.73-1.18,3.13-2.35-1.57-3.52-1.57-3.52l2-6.26s-2.74-2.35-3.92-3.13.4-3.91.4-6.26-2.35-2.35-3.92-3.13-1.17-2.74.39-5.87a7.54,7.54,0,0,0,0-6.26s-1.95,2.74-2.34,3.52-3.52,2.35-8.61,4.7-3.52,2.74-4.69,3.52,1.17,10.95-1.57,2.74-1.17-3.91-2.35-5.87.39-2,.39-4.7a21.37,21.37,0,0,0-1.56-7.82c-.78-1.56,1.17-4.3,1.56-5.48s1.18-6.65,2.74-9,4.31-5.86,7-6.65,1.57-2.74,2.35-4.69a32.16,32.16,0,0,1,3.52-5.87c.39-.39.39-3.91.39-5.48s2.35-5.08,3.92-7,.39-1.56,1.17-3.13,3.91-3.91,3.91-3.91,4.7,1.56,6.65,3.91.79.78,1.57,1.17.39,2.35,1.17,4.31a9.08,9.08,0,0,1,.79,4.3V356c0,2,.78,5.09.78,6.26a34.27,34.27,0,0,0,1.56,8.22c1.18,3.91,2,3.91,2,5.47s2.35,3.53,2.74,8.61,2.74,7,2.74,7,1.17,2.74,1.95,2.74,2.74,2.74,3.13,4.31,1.57,2.34,3.91,5.86,0,0,1.18,1.57a17.74,17.74,0,0,1,2.35,3.52c1.56,2.74-.79,2.74-.79,2.74l4.31,9.78-.79,6.26s3.53.78,5.09,0,2.35,0,2.35,0a16.2,16.2,0,0,0,3.52.78,1.82,1.82,0,0,0,2-1.17c.39-.78,0-2.35.39-5.09a8.06,8.06,0,0,0-1.18-5.08,35.87,35.87,0,0,1,3.52,1.17c.79.39,4.7,2,4.7,2a48.74,48.74,0,0,1,0,7.82c-.39,2.74,2.74.39,3.13,0s1.56-.39,2.35-1.56,0-2,0-3.13,2.34-.79,2.73-1.18A6.05,6.05,0,0,0,333,419c0-2,2-3.91,3.13-4.69s2.74-2,2.74-2l1.17-3.13a10,10,0,0,1,1.18-2.74c.78-1.17,2.34-2.35,2.34-3.91a30.22,30.22,0,0,0-.39-3.52c0-.39-3.52-1.18-4.3-1.18s-2.74-.39-3.52-.39-2.74-.39-3.52-.39a50.65,50.65,0,0,0-5.87,2,40.81,40.81,0,0,0-3.13,4.3c-1.18,2-.39,2.74.39,5.87s-.39,2.35-2,3.52a3.92,3.92,0,0,1-3.52.39s-5.48-1.56-6.26-2.74,0-5.08,0-6.26-5.87.79-5.87.79-1.56-3.53-1.17-5.48-1.17-3.52-1.57-4.7-3.52-2.74-4.3-5.08-3.52-2-4.3-4.31,1.17-3.52,1.95-4.69,1.57-4.7,2-7,2.35-4.7,2.74-7.05-.78-5.86-1.57-8.21-3.13-3.91-3.13-2.74.39,1.17.79,3.91a20.78,20.78,0,0,1,.39,4.7c0,2.34-2,5.08-1.57,7.82s-5.08,8.22-5.08,8.22-3.13-.39-4.31-1.57,0-3.13-1.17-3.91-3.52-10.56-3.91-18-.79-2.34-.79-2.34S279,347,278.57,342.27s0-3.13,1.17-8.22-.39-3.13-.39-5.08.78-5.09.78-7.05-2.34-3.13-5.08-1.95a25.21,25.21,0,0,1-6.26,1.95c-.79,0-2,2-2,3.52s2.74,3.53.78,5.09-4.69-.39-7,.39-1.56,3.91-2,6.26,0,1.57,0,3.91a8.81,8.81,0,0,1-1.95,4.7l-2,1.56a2.91,2.91,0,0,1-1.17,1.18c-.78.39-1.18,3.91-1.18,3.91s-.78,5.09-1.95,7-2-.39-3.52,0-.39,1.18-2.35,3.52-2.74,3.92-3.91,5.09-2,3.13-4.31,5.48-.39,1.17-.78,4.69-.78,1.57-2.35,5.48,0,0,0,3.52-1.17,8.61-1.56,10.56,0,1.18,1.17,2.74,1.18,4.7,1.18,4.7a11.55,11.55,0,0,1-3.52,3.52,4.68,4.68,0,0,0-1.93,2.39,4.92,4.92,0,0,0-.42-1.22,32.53,32.53,0,0,1-1.57-4.3s-.39-4.31,0-5.48-.39-1.17-1.17-2.74-.39-4.69-2.35-4.3,0,1.17-.39,2.74-.39,4.3-.78,6.26.78,2.74.78,4.3a40.28,40.28,0,0,1-.39,6.65c-.39,2-5.87,7.83-5.87,7.83a17.09,17.09,0,0,1-.78-2c-.39-1.17,0-2.35,0-3.52s-2.35-2.35-4.3-3.52-1.57-2.35-1.57-2.35a20.08,20.08,0,0,0-.39-3.91c-.39-1.57,1.56-4.7,2-5.48s-2-2-4.31-1.17-1.56,5.47-2.74,6.65a11.36,11.36,0,0,1-3.91,2l-2-1.56a10.1,10.1,0,0,1,.4-2.74,1.43,1.43,0,0,0-.79-2c-.39,0-1.17-1.95-1.17-1.95l-2-2.35-4.3,3.91-5.48-.39-1.95-4.3L180,393.13l5.08-6.65,4.7-4.31,1.17-1.95,3.91-2,2.35-1.17,5.48-2.74,3.52-1.57,1.56-1.56.79-2.35s2-1.56,2.74-2.35,2.73-.78,2.73-.78l3.92-3.52s4.69-5.09,6.65-5.48.78.79,1.56,1.18,0,4.69,0,4.69l1.57-1.95c1.56-2,0-3.13,0-3.13s-.79-4.31-1.18-5.48,0-6.65,1.18-8.22,2.34-.78,3.52-2.34,2.74-4.7,4.69-5.48,2-1.18,3.52,1.17,0,.78-.78,4.31-2.74,3.13-3.13,5.47,0,2.74-.78,5.48-.78,5.09-.78,9.78.78,8.22,2.74,7.83,1.95-2.35,1.95-4.31,1.18-2.74,1.57-5.08,1.56-7.05,2.34-7.83.4-3.52.79-4.69a77.86,77.86,0,0,1,3.13-7.44c1.17-2.34,2.34-1.17,3.52-1.95s.39-1.18.39-2,2.35-2.74,3.52-4.3.78-2,.78-3.13,1.57-2.74,2.35-3.13.78-3.13.78-3.13a8,8,0,0,1,2-5.09c1.95-1.95,3.52-9.78,3.52-9.78s.39-2.35,0-2.74.78-3.13,1.56-2.74.4.79,1.18,2.35a5.64,5.64,0,0,1,.39,5.09c-.78,2.34.78,2.74.78,4.3s2,2,2,2l1.95,2.74s2-.4,2-2,1.57-5.48,1.57-7.83.78-1.17,1.17-2.34a9.41,9.41,0,0,0,.78-3.52c0-1.57,0-.79-.78-2s.39-2.74,0-3.52-1.17,0-2.35-.78-1.56-1.18-2.35-1.18H268.4c-.47,0-.79-1.09-1-2a3.52,3.52,0,0,1-1,.43c-.94.31-.38.37-.92.59l.14,1.36h-3.52c-1.57,0-1.57.79-2.74,1.57s-1.18-.39,0-1.57a4.18,4.18,0,0,0,1-2,4.4,4.4,0,0,0-2.16-.34h-3.13a3,3,0,0,1-1.29-.33c-.53,1.17-.27,2.19-.27,3.46,0,1.56-1.18,2.34-2,2s-.39-1.56-.39-2.74-.78-1.95-.78-2.34a19.61,19.61,0,0,0-.64-2h-.14a5.32,5.32,0,0,0-3.13,2c-.39.78-2.35,1.56-3.52,2.73a17.35,17.35,0,0,0-2,2.35s-14.09,11-20.35,12.91a8.71,8.71,0,0,1-4.3.39,4.17,4.17,0,0,0-2.35,0h-2.34a22,22,0,0,1-7,6.66c-1.53.83-5.86,2.34-7.43,3.52s-1.56,3.52-3.91,4.69a43.79,43.79,0,0,0-5.46,3.6,45.83,45.83,0,0,1,3.11,3.44,42.63,42.63,0,0,0,2.74,3.52c1.56,2,1.17.79,3.13,1.57s3.13.39,2.74,2-3.91,6.26-3.91,6.26,2.54-.59,3.71,1.36,0,1.57,1.18,3.13-1.18,2-2,3.92-1.17,4.3-2.74,5.87-3.52,3.52-8.21,9-2.35.4-5.87,3.52a70.36,70.36,0,0,1-7.05,5.48C171.56,382.37,157.87,390.19,157.87,390.19Z" style="fill:#86ac98"/><path d="M121.29,364.57c2.35,0,2.74-1.57,4.3-1.57s1.57.79,4.31,1.18,6.26-2,9-2,3.52.78,5.47.39,1.57-5.48,5.09-6.26,5.87-.39,7,.39,2.74-.78,3.52-2.34.79-13.31,2-15.65-.39-5.48,0-7.44-.78-4.69,1.56-5.08,3.13,0,3.53.78l.39.78s1.17-2,1.56-2.74c.25-.5.19-1.79.92-2.77l-.14,0c-3.13.78-4.3,1.95-5.86,2.34a10.27,10.27,0,0,0-3.13,1.57s-3.92,0-5.87,1.95c0,0-2.74-1.17-4.31,1.18a60,60,0,0,1-10.95,8.21c-2,1.16-5.09,2.74-7,5.87-.88,1.41-15.26,15.26-31.69,24.65,0,0,3.52,3.13,6.65,3.91s.39,1.57,4.3,1.18.39-2.35,2.74-4.7S118.94,364.57,121.29,364.57Z" style="fill:#91b19b"/><path d="M307.71,323.29c-.78-2.34-.78-1.56-.78-2.74s.78-1.95-.78-2.73-.78-.79-2.35-1.57-.39-1.17-1.56-.78.39,1.56-1.18,1.17-1.56-.39-1.56-.78.39-.39.39-1.57.78-.39,0-2a13.17,13.17,0,0,1-1.17-2.35c-.39-1.17-2-3.13-2.35-5.87s.78-.78-.39-3.13-.78-3.13-1.18-3.52-1.17.78-1.17-1.17c0-1.28-.66-1.89-1-2.7-.81.71-1.85,1.72-2.7,1.72-1.17,0-.78-2.35-2-2l-1.18.39-.78.4a6.31,6.31,0,0,0-2.35-1.18,7.23,7.23,0,0,1-2.73-.78c-.79-.39,0-1.17-2-.78a10.9,10.9,0,0,0-4.6,1.87,4.37,4.37,0,0,1,.88,1.84c0,1.18,1.57.79,3.13,3.53a35.36,35.36,0,0,0,2.38,4c-.77-.16-1.44-.24-1.6-.09-.39.39.4,1.95,0,2.74a10.9,10.9,0,0,0-.39,3.91v2.35c0,1.56-1.17,1.17,0,2.34a10.39,10.39,0,0,0,2.35,2c1.17.78-1.17-4.3-.39-4.7a1.57,1.57,0,0,1,2.35.79c.39,1.17.78,3.52,1.56,4.69s.39,1.57,1.18,1.57,1.95-.79,1.95.78,2,2.74,2,2.74a1.72,1.72,0,0,1-.39-1.18c0-.78.39-3.13-.39-3.91s0-1.17-.4-2.74-.78-1.17-.78-2.34c0-.78-.07-2-.12-2.71.8.92,1.44,1.68,1.69,1.92.78.79,1.56.79,2.74,2.74s1.95,1.18,2.34,2.35-.78,2,.39,4.3,1.18,3.13,2.35,3.52,1.18,0,1.57.79a23.27,23.27,0,0,0,3.13,3.13,6,6,0,0,1-1.18-2.74c0-1.18.78-.78,0-2s-1.95-1.95-1.95-2.74.39-1.17.78-2,.78-1.18,1.17-.39a5,5,0,0,0,2,2.73c1.56,1.18,2.35,1.18,2.74,2.35a9.16,9.16,0,0,0,2.34,3.52c1.18,1.18,2.35,2,2.74,2.35S308.5,325.64,307.71,323.29Z" style="fill:#86ac98"/><path d="M336.86,425.21a16.81,16.81,0,0,1,6.65-1.56c3.52,0,6.65,1.17,8.22,0s1.56-.79,3.52-2.35-.78-2.74,5.09-2.74,9.78-.39,11-1.17,3.52-.4,3.91-2.74,2.74-1.57.79-4.31-.79-3.52-2.74-3.91-1.57-3.52-5.48-5.48-2.74-1.95-5.48-3.52-2-1.95-4.3-3.91-13.69-10.17-19.56-15.65-8.61-7-12.52-11.35-4.7-.78-6.65-7.82-2.35-6.65-5.87-13.3-6.65-5.87-7-9.78-2-4.7.39-3.92,3.91,4.31,5.08,5.09,2,3.13,3.52,3.13-.78,3.13,4.7,5.09,2.35,2.74,4.3,5.47,5.87,5.09,7.44,6.65,8.21,5.48,9.39,5.87,9.78,6.26,13.3,9.39,10.95,6.65,14.08,7.83,8.61,3.91,15.26,6.26,0-1.18-4.3-3.52-1.57-3.52-5.09-4.31-12.52-6.65-14.87-9-4.3-5.47-7.43-8.21-2.74-2.35-4.69-5.87-2.74-5.87-.4-5.09,2.35,5.87,4.7,7,9.39,6.26,11.34,6.65,3.13.78,5.09,3.13,5.87,5.08,10.17,7,9,6.26,13.7,7.43,3.13.79,7,2.74,10.17,3.52,12.13,4.7,7.43,1.56,8.21,3.52S438.19,399,438.19,399l.78,32.86s-14.86-23.08-20-23.47-6.26-1.57-12.91-3.52-12.13-4.7-14.48-5.48-5.86-.39-9.78-4.31-17.6-10.56-18.78-11.34,9,5.87,11.35,8.61,7.83,5.86,10.17,6.65,8.22,5.87,12.52,6.65,4.7,0,9.39,3.91,9.39,5.09,12.52,7.83,6.65,6.65,5.87,7.43-17.61-9-23.08-11-4.31-1.56-9.78-3.52-10.57-7-14.09-8.21,3.52,3.91,6.65,7.82,5.09,3.13,5.48,6.65-2.35,3.52-1.17,7.44,2.54,8.41-1.37,9.19-25.63-1-31.5-.59-14.86,2.74-18.78.39S336.86,425.21,336.86,425.21Z" style="fill:#86ac98"/><path d="M280.54,428.09s-7.37-25.48-12-39.36-.77-24.66,1.54-40.07S267,292.39,267,292.39" style="fill:none;stroke:#283c3f;stroke-miterlimit:10;stroke-width:3.082951545715332px"/><path d="M267,293.16s18.5.77,23.12,7.71,1.54,23.12,10,31.6,19.07,24.22,35.74,27.91,37.57,12.45,46,23.87,8.43,21.44,21.53,27.61a47,47,0,0,1,19.26,16.66" style="fill:none;stroke:#b97053;stroke-miterlimit:10;stroke-width:3.082951545715332px"/><path d="M199.18,341.72s3.85,9.25,8.47,15.41,9.25,6.94,7.71,19.27S210,388,212.28,398s7.71,22.35,12.33,24.67,2.31,11.56,2.31,11.56" style="fill:none;stroke:#165488;stroke-miterlimit:10;stroke-width:3.082951545715332px"/><path d="M267.77,293.93a50.26,50.26,0,0,0-16.18,8.48c-7.71,6.17-27,20-33.15,26.21s-18.49,7.7-19.26,13.1-7.71,10-10,14.64-3.86,9.25-10,14.65-22.35,9.25-24.67,15.41,3.09,6.17,6.94,13.1,3.08,10,6.94,13.88S182,426.06,182,426.06" style="fill:none;stroke:#ef1e32;stroke-miterlimit:10;stroke-width:3.082951545715332px"/><line x1="74.82" y1="428.74" x2="77.98" y2="426.54" style="fill:none;stroke:#165488;stroke-miterlimit:10;stroke-width:2.312213659286499px"/><line x1="84.44" y1="422.04" x2="262.15" y2="298.38" style="fill:none;stroke:#165488;stroke-miterlimit:10;stroke-width:2.312213659286499px;stroke-dasharray:7.872584342956543,7.872584342956543"/><line x1="265.38" y1="296.13" x2="268.54" y2="293.93" style="fill:none;stroke:#165488;stroke-miterlimit:10;stroke-width:2.312213659286499px"/><rect x="266.23" y="259.84" width="2.12" height="36.41" rx="0.94" style="fill:#165488"/><path d="M297.06,276c-5.53-6.28-8.48-4.44-14.4,0s-8.9,6.25-14.41,0v-16c5.51,6.25,8.51,4.41,14.41,0s8.87-6.28,14.4,0Z" style="fill:#ef1e32"/><path d="M584.18,423.21s-136-1-168.46-1.91-58.7-2.87-70.15-1-69.2-.95-85.42,1-5.73-2.39-54.88-2.39-85,2.86-102.6,1.91S55,424.64,40.15,424.64s-74.92.95-88.76.95H-67.22l-6.68,179,665.23-6.68Z" style="fill:#698b87"/></g><polygon points="253.13 173.7 263.92 467.35 185.3 483.54 166.81 189.88 253.13 173.7" style="opacity:0.05;mix-blend-mode:multiply"/><polygon points="346.39 492.78 331.74 192.97 437.33 188.34 434.25 493.56 346.39 492.78" style="opacity:0.05;mix-blend-mode:multiply"/><rect x="166.03" y="383.26" width="13.87" height="13.87" rx="2.13" style="fill:#ef1e32"/><path d="M170,389.75c.09-.15.19-.3.27-.45a4.57,4.57,0,0,1,1.17-1.34,2.34,2.34,0,0,1,2-.48,1,1,0,0,1,.33.18,3,3,0,0,1,.42.45,4.94,4.94,0,0,0,1.44,1.33.61.61,0,0,1,.28.42.49.49,0,0,1-.21.42.59.59,0,0,1-.52,0c-.49-.31-1-.68-1.43-1a11,11,0,0,1-.26,1.11.87.87,0,0,0,.34,1.09,2.72,2.72,0,0,1,1,1.75c.09.47.22.93.33,1.4a.59.59,0,1,1-1.14.27c-.12-.48-.25-1-.35-1.44a1.81,1.81,0,0,0-.63-1.1,4.11,4.11,0,0,1-.42-.5l-.09.07a1.29,1.29,0,0,1,0,.19,11.7,11.7,0,0,1-.36,1.19c-.23.55-.51,1.09-.77,1.64-.18.39-.49.54-.82.39s-.42-.49-.23-.9.34-.76.53-1.13a4.61,4.61,0,0,0,.55-1.74c.1-.84.23-1.67.35-2.51l-.07,0c-.16.2-.33.4-.49.62s-.16.28-.24.42c-.29.51-.67.53-1,.06Z" style="fill:#fff"/><path d="M173.36,385a1.12,1.12,0,0,1,.87,1.08,1,1,0,0,1-.92,1.06,1.07,1.07,0,0,1-.62-2l.24-.12Z" style="fill:#fff"/><rect x="253.9" y="326.22" width="13.87" height="13.87" rx="2.13" style="fill:#354644"/><path d="M257.86,332.72c.1-.16.19-.3.28-.46a4.51,4.51,0,0,1,1.16-1.34,2.33,2.33,0,0,1,2-.47.7.7,0,0,1,.33.17,3.06,3.06,0,0,1,.42.46,4.93,4.93,0,0,0,1.45,1.32.7.7,0,0,1,.28.42.52.52,0,0,1-.22.42.63.63,0,0,1-.52,0c-.49-.32-.94-.68-1.43-1a10.23,10.23,0,0,1-.25,1.11.86.86,0,0,0,.33,1.09,2.73,2.73,0,0,1,1,1.76c.09.47.23.93.33,1.39a.58.58,0,0,1-.41.74.56.56,0,0,1-.72-.46c-.13-.48-.26-1-.35-1.45a1.88,1.88,0,0,0-.64-1.1,3.8,3.8,0,0,1-.41-.49l-.09.06a1.77,1.77,0,0,0,0,.2,11.55,11.55,0,0,1-.37,1.18c-.23.56-.5,1.1-.76,1.64s-.49.54-.83.39-.42-.49-.23-.9.35-.75.54-1.12a5.06,5.06,0,0,0,.55-1.74c.09-.84.23-1.68.34-2.52l-.06,0c-.17.21-.34.41-.5.62s-.16.28-.24.42c-.28.52-.66.54-1,.06Z" style="fill:#fff"/><path d="M261.22,328a1.11,1.11,0,0,1,.87,1.07,1.06,1.06,0,0,1-.92,1.07,1.08,1.08,0,0,1-.62-2l.24-.11Z" style="fill:#fff"/><rect x="216.9" y="385.57" width="13.87" height="13.87" rx="2.13" style="fill:#165488"/><path d="M220.87,392.06c.09-.15.19-.3.27-.45a4.55,4.55,0,0,1,1.17-1.34,2.33,2.33,0,0,1,2-.48.85.85,0,0,1,.32.18,3,3,0,0,1,.43.45,4.94,4.94,0,0,0,1.44,1.33.61.61,0,0,1,.28.42.49.49,0,0,1-.21.42.63.63,0,0,1-.52,0c-.49-.32-1-.68-1.43-1a10.35,10.35,0,0,1-.26,1.11.87.87,0,0,0,.33,1.09,2.69,2.69,0,0,1,1,1.76c.08.47.22.93.33,1.39a.59.59,0,1,1-1.14.27c-.12-.48-.25-1-.35-1.44a1.89,1.89,0,0,0-.63-1.1,4.93,4.93,0,0,1-.42-.49l-.09.06a1.77,1.77,0,0,1,0,.2c-.12.39-.21.8-.36,1.18-.23.56-.51,1.1-.77,1.64s-.49.54-.82.39-.42-.49-.23-.9.34-.76.53-1.13a4.74,4.74,0,0,0,.55-1.73c.1-.85.23-1.68.35-2.52l-.07,0c-.16.21-.34.41-.49.62a2.52,2.52,0,0,0-.24.42c-.29.51-.67.54-1,.06Z" style="fill:#fff"/><path d="M224.23,387.35a1.1,1.1,0,0,1,.87,1.07,1.05,1.05,0,0,1-.92,1.06,1.07,1.07,0,0,1-.62-2l.23-.11Z" style="fill:#fff"/><rect x="351.01" y="374.78" width="13.87" height="13.87" rx="2.13" style="fill:#b97053"/><path d="M355,381.27c.09-.15.19-.3.27-.45a4.55,4.55,0,0,1,1.17-1.34,2.32,2.32,0,0,1,2-.48.82.82,0,0,1,.33.18,3.64,3.64,0,0,1,.43.45,4.94,4.94,0,0,0,1.44,1.33.64.64,0,0,1,.28.42.54.54,0,0,1-.21.42.59.59,0,0,1-.52,0c-.49-.31-.95-.67-1.44-1a8.31,8.31,0,0,1-.25,1.11.87.87,0,0,0,.33,1.09,2.68,2.68,0,0,1,1,1.76c.09.47.23.92.34,1.39a.59.59,0,1,1-1.14.27c-.12-.48-.25-1-.35-1.44a1.85,1.85,0,0,0-.64-1.1,4.83,4.83,0,0,1-.41-.49l-.09.06a1.77,1.77,0,0,1,0,.2c-.12.39-.21.8-.36,1.18-.23.56-.51,1.1-.77,1.64s-.49.54-.82.39-.42-.49-.23-.9.34-.76.53-1.13a4.94,4.94,0,0,0,.55-1.73c.09-.85.23-1.68.34-2.52l-.06,0c-.17.21-.34.41-.49.62a3.58,3.58,0,0,0-.25.42c-.28.51-.66.53-1,.06Z" style="fill:#fff"/><path d="M358.34,376.56a1.09,1.09,0,0,1,.86,1.07,1,1,0,0,1-.91,1.06,1.07,1.07,0,0,1-.63-2l.24-.11Z" style="fill:#fff"/><rect x="146.77" y="357.82" width="13.87" height="13.87" rx="2.13" style="fill:#b97053"/><path d="M150.73,364.32c.09-.16.19-.3.28-.46a4.51,4.51,0,0,1,1.16-1.34,2.33,2.33,0,0,1,2-.47.7.7,0,0,1,.33.17,3.06,3.06,0,0,1,.42.46A4.86,4.86,0,0,0,156.4,364a.61.61,0,0,1,.27.41.49.49,0,0,1-.21.42.63.63,0,0,1-.52,0c-.49-.32-.95-.68-1.43-1-.08.34-.13.74-.25,1.11a.85.85,0,0,0,.33,1.09,2.73,2.73,0,0,1,1,1.76c.09.47.22.93.33,1.39a.59.59,0,1,1-1.14.28c-.12-.48-.25-1-.34-1.45a1.94,1.94,0,0,0-.64-1.1,4,4,0,0,1-.42-.49l-.08.06c0,.07,0,.14,0,.2a9.46,9.46,0,0,1-.36,1.18c-.23.56-.51,1.1-.76,1.64s-.5.54-.83.39-.42-.49-.23-.9.34-.75.53-1.12a4.87,4.87,0,0,0,.56-1.74c.09-.84.22-1.68.34-2.52l-.07,0-.49.62c-.09.13-.16.28-.24.42-.29.52-.67.54-1,.06Z" style="fill:#fff"/><path d="M154.09,359.6a1.11,1.11,0,0,1,.87,1.07,1.06,1.06,0,0,1-.92,1.07,1.07,1.07,0,0,1-.62-2l.24-.11Z" style="fill:#fff"/><rect x="121.02" y="400.08" width="13.87" height="13.87" rx="2.13" style="fill:#165488"/><path d="M134.42,402.17l-5.61,1.71a1.43,1.43,0,0,0-.57.76c.06.89.13,1.79.2,2.71h.95c1.81-.1,2.2.31,2.11,2.12a10.65,10.65,0,0,0,0,1.13,1.35,1.35,0,0,1-.93,1.53h-5.32a1.38,1.38,0,0,1-.93-1.53c0-.65,0-1.3,0-2a1.2,1.2,0,0,1,1.3-1.29h1.75c.07-.88.14-1.72.2-2.57,0-.43-.07-.5-.48-.37l-5.7,1.74v-.53l5.55-1.7a.5.5,0,0,0,.38-.31.64.64,0,0,1,.92-.29.73.73,0,0,0,.48,0c1.44-.42,2.88-.86,4.31-1.31.42-.13.83-.28,1.25-.42,0,0,.12.05.13.07S134.42,402,134.42,402.17Zm-9.27,6.39v1.82h1.28v-1.82Zm2.1,1.82h1.3v-1.81h-1.3Zm2.15-1.83v1.83h1.28v-1.83Z" style="fill:#fff"/><path d="M456.78,282.91s-24.91-10.65-35.25-10,12.91,14.75,12.91,14.75l13.29,5.76s-20.47-9.43-28.34-3.13,25.83,12.89,25.83,12.89-19.53-5-27.4,1.28c0,0-4.24,12.44,22.21,6.76,5.35,3.46-17.63,3.79-15.74,12.6s23.94,4.08,27.4-1.28S468.84,297.06,456.78,282.91Z" style="fill:#fdccaa"/><path d="M61.32,315.82s25-10.46,35.32-9.67-13,14.65-13,14.65l-13.34,5.65s20.55-9.27,28.37-2.9-25.93,12.68-25.93,12.68,19.56-4.86,27.38,1.5c0,0,4.14,12.48-22.26,6.58-5.38,3.42,17.6,3.93,15.63,12.73s-24,3.89-27.38-1.5S49.15,329.87,61.32,315.82Z" style="fill:#fdccaa"/></g></svg>