<svg xmlns="http://www.w3.org/2000/svg" width="250" height="250" viewBox="0 0 250 250"><title>s3s4c40</title><rect x="-4052.66" width="4304.16" height="254" style="fill:#355151"/><path d="M185.72,141.21c-2.8,10.49-9.29,19.19-14.07,28.71-3.26,6.51-6.9,12.83-10.56,19.58-.61-1-1-1.67-1.42-2.36-6.73-12.43-13.58-24.79-20.16-37.3-4.84-9.21-4.46-18.43,1.9-26.78s15.27-11.62,25.51-9,16.41,9.42,18.34,19.92a4.71,4.71,0,0,0,.46,1Zm-37.66-3.69a13,13,0,1,0,13-12.82A13,13,0,0,0,148.06,137.52Z" style="fill:#abc4ab"/><path d="M85.25,61.3c5.82,1.35,11.15,3.64,15.1,8.34,6.75,8,8.49,17.23,3.91,26.54C97.39,110.11,89.63,123.6,82,137.65c-.62-1.07-1.1-1.85-1.54-2.65C73.76,122.58,67,110.2,60.35,97.72,59,95.1,58.29,92.1,57.28,89.27V82.42a7.71,7.71,0,0,0,.52-1.27A23.86,23.86,0,0,1,71.47,63.74,61.39,61.39,0,0,1,79,61.3ZM94.93,86a13,13,0,0,0-26-.56,13,13,0,1,0,26,.56Z" style="fill:#abc4ab"/><path d="M114.83,109.71l-2.72-2.46,2.42-3.11,3.23,3Z" style="fill:#abc4ab"/><path d="M118.61,116.11l-1.36-3.27,3.36-2,1.69,4.26Z" style="fill:#abc4ab"/><path d="M114.69,155.7l-2.56-3.44,3.25-1.88,2.3,2.69Z" style="fill:#abc4ab"/><path d="M107,99.7l3.65,1.93L108.8,105l-3.43-1.84Z" style="fill:#abc4ab"/><path d="M122.68,120.11l-1,4.34-3.52-1.15.53-3.44Z" style="fill:#abc4ab"/><path d="M118.76,158.73l1.9-3.32,3.42,1.5-1.34,3.62Z" style="fill:#abc4ab"/><path d="M117.52,132.15l-3.43-1.94,2.09-3.46,3.4,1.92Z" style="fill:#abc4ab"/><path d="M110.73,138.49l1.47-4.11,3.42,1.35-.92,3.54Z" style="fill:#abc4ab"/><path d="M110.42,147.68v-4.6l3.4.28.56,3.38Z" style="fill:#abc4ab"/><path d="M136.07,162.22v-3.84l3.72-.34.33,3.7Z" style="fill:#abc4ab"/><path d="M127.53,161.66a13.14,13.14,0,0,1,0-1.79,21.37,21.37,0,0,1,.56-2.07l3.52.57-.18,3.64Z" style="fill:#abc4ab"/><path d="M160.92,146.46a8.85,8.85,0,0,1-8.81-8.89,9.08,9.08,0,0,1,9-8.8,8.93,8.93,0,0,1,8.71,9A8.59,8.59,0,0,1,160.92,146.46Z" style="fill:#abc4ab"/><path d="M82,94.55a8.56,8.56,0,0,1-8.79-8.79A8.86,8.86,0,0,1,82,76.85a9,9,0,0,1,8.89,8.91A8.83,8.83,0,0,1,82,94.55Z" style="fill:#abc4ab"/></svg>