<svg xmlns="http://www.w3.org/2000/svg" xmlns:xlink="http://www.w3.org/1999/xlink" width="399.6" height="200" viewBox="0 0 399.6 200"><defs><clipPath id="a"><rect x="261.03" y="417.87" width="412.44" height="392.73" rx="27.73" transform="translate(6.8 -5.12) rotate(0.63)" style="fill:none"/></clipPath><clipPath id="b"><rect x="252.43" y="394.47" width="431.04" height="426.71" transform="translate(6.73 -5.12) rotate(0.63)" style="fill:none"/></clipPath><clipPath id="c"><rect x="-796.35" y="405.05" width="412.44" height="392.73" rx="27.73" transform="translate(78.57 88.78) rotate(8.07)" style="fill:none"/></clipPath><clipPath id="d"><rect x="-804.12" y="381.8" width="431.04" height="426.71" transform="translate(77.7 88.5) rotate(8.07)" style="fill:none"/></clipPath><clipPath id="e"><rect x="-269.08" y="404.22" width="412.44" height="392.73" rx="27.73" transform="translate(83.67 14.77) rotate(8.07)" style="fill:none"/></clipPath><clipPath id="f"><rect x="-276.86" y="380.97" width="431.04" height="426.71" transform="translate(82.81 14.49) rotate(8.07)" style="fill:none"/></clipPath><clipPath id="g"><rect x="-2.02" y="-2.23" width="400" height="201" style="fill:none"/></clipPath><pattern id="h" width="72" height="72" patternTransform="translate(315.77 221.73) scale(0.31)" patternUnits="userSpaceOnUse" viewBox="0 0 72 72"><rect width="72" height="72" style="fill:none"/><line x1="54" y1="71.75" x2="54" y2="144.25" style="fill:none;stroke:#1d1d1b;stroke-width:6px"/><line x1="18" y1="71.75" x2="18" y2="144.25" style="fill:none;stroke:#1d1d1b;stroke-width:6px"/><line x1="62" y1="71.75" x2="62" y2="144.25" style="fill:none;stroke:#1d1d1b;stroke-width:2px"/><line x1="26" y1="71.75" x2="26" y2="144.25" style="fill:none;stroke:#1d1d1b;stroke-width:2px"/><line x1="71.75" y1="18" x2="144.25" y2="18" style="fill:none;stroke:#1d1d1b;stroke-width:6px"/><line x1="71.75" y1="54" x2="144.25" y2="54" style="fill:none;stroke:#1d1d1b;stroke-width:6px"/><line x1="-0.25" y1="18" x2="72.25" y2="18" style="fill:none;stroke:#1d1d1b;stroke-width:6px"/><line x1="54" y1="-0.25" x2="54" y2="72.25" style="fill:none;stroke:#1d1d1b;stroke-width:6px"/><line x1="-0.25" y1="54" x2="72.25" y2="54" style="fill:none;stroke:#1d1d1b;stroke-width:6px"/><line x1="18" y1="-0.25" x2="18" y2="72.25" style="fill:none;stroke:#1d1d1b;stroke-width:6px"/><line x1="62" y1="-0.25" x2="62" y2="72.25" style="fill:none;stroke:#1d1d1b;stroke-width:2px"/><line x1="26" y1="-0.25" x2="26" y2="72.25" style="fill:none;stroke:#1d1d1b;stroke-width:2px"/><line x1="73.25" y1="26" x2="0.75" y2="26" style="fill:none;stroke:#1d1d1b;stroke-width:2px"/><line x1="73.25" y1="62" x2="0.75" y2="62" style="fill:none;stroke:#1d1d1b;stroke-width:2px"/><line x1="-72.25" y1="18" x2="0.25" y2="18" style="fill:none;stroke:#1d1d1b;stroke-width:6px"/><line x1="-72.25" y1="54" x2="0.25" y2="54" style="fill:none;stroke:#1d1d1b;stroke-width:6px"/><line x1="1.25" y1="26" x2="-71.25" y2="26" style="fill:none;stroke:#1d1d1b;stroke-width:2px"/><line x1="1.25" y1="62" x2="-71.25" y2="62" style="fill:none;stroke:#1d1d1b;stroke-width:2px"/><line x1="54" y1="-72.25" x2="54" y2="0.25" style="fill:none;stroke:#1d1d1b;stroke-width:6px"/><line x1="18" y1="-72.25" x2="18" y2="0.25" style="fill:none;stroke:#1d1d1b;stroke-width:6px"/><line x1="62" y1="-72.25" x2="62" y2="0.25" style="fill:none;stroke:#1d1d1b;stroke-width:2px"/><line x1="26" y1="-72.25" x2="26" y2="0.25" style="fill:none;stroke:#1d1d1b;stroke-width:2px"/></pattern><pattern id="i" width="65.25" height="65.25" patternTransform="translate(551.61 214.93) scale(0.85)" patternUnits="userSpaceOnUse" viewBox="0 0 65.25 65.25"><rect width="65.25" height="65.25" style="fill:none"/><line x1="67.55" y1="61.59" x2="62.02" y2="65.89" style="fill:none;stroke:#fff;stroke-linecap:square"/><line x1="70" y1="64.75" x2="64.47" y2="69.05" style="fill:none;stroke:#fff;stroke-linecap:square"/><line x1="47.19" y1="62.53" x2="43.5" y2="68" style="fill:none;stroke:#fff;stroke-linecap:square"/><line x1="49.93" y1="65.44" x2="44.83" y2="70.23" style="fill:none;stroke:#fff;stroke-linecap:square"/><line x1="53.13" y1="64.47" x2="55.5" y2="70.25" style="fill:none;stroke:#fff;stroke-linecap:square"/><line x1="56.25" y1="63.25" x2="59" y2="70" style="fill:none;stroke:#fff;stroke-linecap:square"/><line x1="28" y1="63.75" x2="22.31" y2="68.13" style="fill:none;stroke:#fff;stroke-linecap:square"/><line x1="32" y1="64.75" x2="25.3" y2="70.79" style="fill:none;stroke:#fff;stroke-linecap:square"/><line x1="9.25" y1="64.5" x2="9" y2="66" style="fill:none;stroke:#fff;stroke-linecap:square"/><line x1="14.22" y1="62.67" x2="18.5" y2="68.5" style="fill:none;stroke:#fff;stroke-linecap:square"/><line x1="17.05" y1="59.84" x2="21.33" y2="65.67" style="fill:none;stroke:#fff;stroke-linecap:square"/><line x1="38.75" y1="62.75" x2="39.25" y2="69.25" style="fill:none;stroke:#fff;stroke-linecap:square"/><line x1="36" y1="62" x2="34.5" y2="68.75" style="fill:none;stroke:#fff;stroke-linecap:square"/><line x1="2.3" y1="61.59" x2="-3.23" y2="65.89" style="fill:none;stroke:#fff;stroke-linecap:square"/><line x1="4.75" y1="64.75" x2="-0.78" y2="69.05" style="fill:none;stroke:#fff;stroke-linecap:square"/><line x1="65.82" y1="6.97" x2="72" y2="10.25" style="fill:none;stroke:#fff;stroke-linecap:square"/><line x1="22.49" y1="23.04" x2="19.25" y2="29.25" style="fill:none;stroke:#fff;stroke-linecap:square"/><line x1="36.42" y1="43.45" x2="44" y2="45.5" style="fill:none;stroke:#fff;stroke-linecap:square"/><line x1="37.5" y1="40.5" x2="45.25" y2="41.75" style="fill:none;stroke:#fff;stroke-linecap:square"/><line x1="30" y1="60.75" x2="32.75" y2="55.5" style="fill:none;stroke:#fff;stroke-linecap:square"/><line x1="26.5" y1="60.25" x2="29.52" y2="54.46" style="fill:none;stroke:#fff;stroke-linecap:square"/><line x1="46" y1="55.5" x2="41.25" y2="59" style="fill:none;stroke:#fff;stroke-linecap:square"/><line x1="47.25" y1="58" x2="43.5" y2="62" style="fill:none;stroke:#fff;stroke-linecap:square"/><line x1="49.88" y1="46.3" x2="50.78" y2="53.25" style="fill:none;stroke:#fff;stroke-linecap:square"/><line x1="45.98" y1="47.21" x2="47.53" y2="53.75" style="fill:none;stroke:#fff;stroke-linecap:square"/><line x1="14.22" y1="62.67" x2="18.5" y2="68.5" style="fill:none;stroke:#fff;stroke-linecap:square"/><line x1="17.05" y1="59.84" x2="21.33" y2="65.67" style="fill:none;stroke:#fff;stroke-linecap:square"/><line x1="20.53" y1="48.64" x2="23.96" y2="54.74" style="fill:none;stroke:#fff;stroke-linecap:square"/><line x1="24.23" y1="47.13" x2="26.88" y2="53.61" style="fill:none;stroke:#fff;stroke-linecap:square"/><line x1="33" y1="44.5" x2="27.75" y2="47.5" style="fill:none;stroke:#fff;stroke-linecap:square"/><line x1="35.5" y1="47.75" x2="29.75" y2="49.75" style="fill:none;stroke:#fff;stroke-linecap:square"/><line x1="47.19" y1="62.53" x2="43.5" y2="68" style="fill:none;stroke:#fff;stroke-linecap:square"/><line x1="49.93" y1="65.44" x2="44.83" y2="70.23" style="fill:none;stroke:#fff;stroke-linecap:square"/><line x1="53.13" y1="64.47" x2="55.5" y2="70.25" style="fill:none;stroke:#fff;stroke-linecap:square"/><line x1="28" y1="63.75" x2="22.31" y2="68.13" style="fill:none;stroke:#fff;stroke-linecap:square"/><line x1="32" y1="64.75" x2="25.3" y2="70.79" style="fill:none;stroke:#fff;stroke-linecap:square"/><line x1="21.5" y1="58.25" x2="22" y2="59.5" style="fill:none;stroke:#fff;stroke-linecap:square"/><line x1="37.75" y1="60.25" x2="38.75" y2="61.25" style="fill:none;stroke:#fff;stroke-linecap:square"/><line x1="38.75" y1="62.75" x2="39.25" y2="69.25" style="fill:none;stroke:#fff;stroke-linecap:square"/><line x1="36" y1="62" x2="34.5" y2="68.75" style="fill:none;stroke:#fff;stroke-linecap:square"/><line x1="53.28" y1="50" x2="54.53" y2="49.5" style="fill:none;stroke:#fff;stroke-linecap:square"/><line x1="32.5" y1="50.5" x2="32.75" y2="52" style="fill:none;stroke:#fff;stroke-linecap:square"/><line x1="50.5" y1="62" x2="51.75" y2="62" style="fill:none;stroke:#fff;stroke-linecap:square"/><line x1="33.75" y1="60" x2="32.75" y2="61.75" style="fill:none;stroke:#fff;stroke-linecap:square"/><line x1="38" y1="47.25" x2="39.25" y2="46.75" style="fill:none;stroke:#fff;stroke-linecap:square"/><line x1="40.24" y1="55.47" x2="35.81" y2="52.75" style="fill:none;stroke:#fff;stroke-linecap:square"/><line x1="42.97" y1="53.07" x2="36.62" y2="50.14" style="fill:none;stroke:#fff;stroke-linecap:square"/><line x1="35.5" y1="55.75" x2="36.75" y2="56" style="fill:none;stroke:#fff;stroke-linecap:square"/><line x1="42.28" y1="49" x2="43.53" y2="49.25" style="fill:none;stroke:#fff;stroke-linecap:square"/><line x1="18.63" y1="54.25" x2="20.25" y2="53.75" style="fill:none;stroke:#fff;stroke-linecap:square"/><line x1="26.99" y1="8.45" x2="27.13" y2="15.45" style="fill:none;stroke:#fff;stroke-linecap:square"/><line x1="30.99" y1="8.38" x2="30.25" y2="15" style="fill:none;stroke:#fff;stroke-linecap:square"/><line x1="43.64" y1="27.73" x2="50.13" y2="30.38" style="fill:none;stroke:#fff;stroke-linecap:square"/><line x1="45.15" y1="24.03" x2="51.63" y2="26.67" style="fill:none;stroke:#fff;stroke-linecap:square"/><line x1="27.12" y1="23.58" x2="31.89" y2="19.94" style="fill:none;stroke:#fff;stroke-linecap:square"/><line x1="24.09" y1="21.57" x2="30" y2="17.82" style="fill:none;stroke:#fff;stroke-linecap:square"/><line x1="18.5" y1="41.38" x2="11.72" y2="43.13" style="fill:none;stroke:#fff;stroke-linecap:square"/><line x1="19.25" y1="45" x2="12.47" y2="46.76" style="fill:none;stroke:#fff;stroke-linecap:square"/><line x1="19.69" y1="21.19" x2="16.45" y2="27.4" style="fill:none;stroke:#fff;stroke-linecap:square"/><line x1="8.74" y1="9.89" x2="10.07" y2="16.76" style="fill:none;stroke:#fff;stroke-linecap:square"/><line x1="12.66" y1="9.13" x2="14" y2="16" style="fill:none;stroke:#fff;stroke-linecap:square"/><line x1="0.57" y1="6.97" x2="6.75" y2="10.25" style="fill:none;stroke:#fff;stroke-linecap:square"/><line x1="3.5" y1="16.5" x2="2.32" y2="22.49" style="fill:none;stroke:#fff;stroke-linecap:square"/><line x1="7.57" y1="16.38" x2="6.25" y2="23.25" style="fill:none;stroke:#fff;stroke-linecap:square"/><line x1="56.37" y1="44.2" x2="58.78" y2="51.75" style="fill:none;stroke:#fff;stroke-linecap:square"/><line x1="60.53" y1="44.25" x2="61.28" y2="50.75" style="fill:none;stroke:#fff;stroke-linecap:square"/><line x1="53.03" y1="36.46" x2="49.02" y2="42.2" style="fill:none;stroke:#fff;stroke-linecap:square"/><line x1="55.77" y1="37.79" x2="54.03" y2="43.25" style="fill:none;stroke:#fff;stroke-linecap:square"/><line x1="26.95" y1="27.8" x2="27.75" y2="34.75" style="fill:none;stroke:#fff;stroke-linecap:square"/><line x1="29.93" y1="26.99" x2="31.63" y2="33.78" style="fill:none;stroke:#fff;stroke-linecap:square"/><line x1="52.81" y1="4.88" x2="46.46" y2="7.84" style="fill:none;stroke:#fff;stroke-linecap:square"/><line x1="54.25" y1="7.75" x2="48.16" y2="11.46" style="fill:none;stroke:#fff;stroke-linecap:square"/><line x1="17.65" y1="12.48" x2="19.25" y2="19" style="fill:none;stroke:#fff;stroke-linecap:square"/><line x1="19.73" y1="10.2" x2="22.83" y2="16.48" style="fill:none;stroke:#fff;stroke-linecap:square"/><line x1="37.5" y1="14.25" x2="34" y2="20.5" style="fill:none;stroke:#fff;stroke-linecap:square"/><line x1="40.13" y1="15.42" x2="36.19" y2="21.2" style="fill:none;stroke:#fff;stroke-linecap:square"/><line x1="50" y1="15.75" x2="43.75" y2="18.25" style="fill:none;stroke:#fff;stroke-linecap:square"/><line x1="50.5" y1="20.25" x2="44.25" y2="20.5" style="fill:none;stroke:#fff;stroke-linecap:square"/><line x1="56.22" y1="17.42" x2="54.53" y2="23.75" style="fill:none;stroke:#fff;stroke-linecap:square"/><line x1="58.95" y1="19.91" x2="55.47" y2="25.98" style="fill:none;stroke:#fff;stroke-linecap:square"/><line x1="57.14" y1="53.16" x2="50.8" y2="56.13" style="fill:none;stroke:#fff;stroke-linecap:square"/><line x1="58.84" y1="56.78" x2="52.5" y2="59.75" style="fill:none;stroke:#fff;stroke-linecap:square"/><line x1="47.25" y1="37" x2="43" y2="32.25" style="fill:none;stroke:#fff;stroke-linecap:square"/><line x1="44.5" y1="37.75" x2="39.68" y2="33.34" style="fill:none;stroke:#fff;stroke-linecap:square"/><line x1="30.53" y1="39.25" x2="34.5" y2="34.25" style="fill:none;stroke:#fff;stroke-linecap:square"/><line x1="32.93" y1="42.45" x2="37.25" y2="36.5" style="fill:none;stroke:#fff;stroke-linecap:square"/><line x1="22.43" y1="31.52" x2="15.47" y2="30.78" style="fill:none;stroke:#fff;stroke-linecap:square"/><line x1="21.5" y1="34.75" x2="14.66" y2="33.28" style="fill:none;stroke:#fff;stroke-linecap:square"/><line x1="6.75" y1="36.75" x2="12.35" y2="40.95" style="fill:none;stroke:#fff;stroke-linecap:square"/><line x1="9.15" y1="33.55" x2="14.75" y2="37.75" style="fill:none;stroke:#fff;stroke-linecap:square"/><line x1="13.99" y1="49.49" x2="13.42" y2="56.47" style="fill:none;stroke:#fff;stroke-linecap:square"/><line x1="17.75" y1="50" x2="16.81" y2="57.42" style="fill:none;stroke:#fff;stroke-linecap:square"/><line x1="20.17" y1="40.33" x2="25.12" y2="45.28" style="fill:none;stroke:#fff;stroke-linecap:square"/><line x1="23" y1="37.5" x2="27.95" y2="42.45" style="fill:none;stroke:#fff;stroke-linecap:square"/><line x1="8.5" y1="46.25" x2="3.93" y2="50.46" style="fill:none;stroke:#fff;stroke-linecap:square"/><line x1="10.78" y1="48.7" x2="5.25" y2="53" style="fill:none;stroke:#fff;stroke-linecap:square"/><line x1="56.12" y1="14.59" x2="63.1" y2="13.99" style="fill:none;stroke:#fff;stroke-linecap:square"/><line x1="56.25" y1="11.25" x2="62.75" y2="10" style="fill:none;stroke:#fff;stroke-linecap:square"/><line x1="36.25" y1="23.25" x2="37" y2="30.25" style="fill:none;stroke:#fff;stroke-linecap:square"/><line x1="40.25" y1="23.25" x2="39.75" y2="28.75" style="fill:none;stroke:#fff;stroke-linecap:square"/><line x1="11.96" y1="1.11" x2="9.1" y2="6.08" style="fill:none;stroke:#fff;stroke-linecap:square"/><line x1="6.46" y1="32.23" x2="12.21" y2="28.24" style="fill:none;stroke:#fff;stroke-linecap:square"/><line x1="4.18" y1="28.94" x2="9.94" y2="24.95" style="fill:none;stroke:#fff;stroke-linecap:square"/><line x1="4.14" y1="58.23" x2="8.5" y2="62.5" style="fill:none;stroke:#fff;stroke-linecap:square"/><line x1="6.57" y1="56.56" x2="10.5" y2="60" style="fill:none;stroke:#fff;stroke-linecap:square"/><line x1="60.75" y1="22.25" x2="65.07" y2="27.76" style="fill:none;stroke:#fff;stroke-linecap:square"/><line x1="63.4" y1="20.03" x2="67.72" y2="25.54" style="fill:none;stroke:#fff;stroke-linecap:square"/><line x1="58.5" y1="28.63" x2="51.72" y2="30.38" style="fill:none;stroke:#fff;stroke-linecap:square"/><line x1="59.5" y1="32.5" x2="52.72" y2="34.26" style="fill:none;stroke:#fff;stroke-linecap:square"/><line x1="15.75" y1="19.5" x2="8.84" y2="19.07" style="fill:none;stroke:#fff;stroke-linecap:square"/><line x1="16.25" y1="22.25" x2="9.3" y2="23.04" style="fill:none;stroke:#fff;stroke-linecap:square"/><line x1="60.26" y1="55.7" x2="64.19" y2="61.5" style="fill:none;stroke:#fff;stroke-linecap:square"/><line x1="63.57" y1="53.46" x2="67.5" y2="59.25" style="fill:none;stroke:#fff;stroke-linecap:square"/><line x1="63.75" y1="30.75" x2="60.04" y2="35.09" style="fill:none;stroke:#fff;stroke-linecap:square"/><line x1="67.13" y1="31.26" x2="63.44" y2="37.2" style="fill:none;stroke:#fff;stroke-linecap:square"/><line x1="67.55" y1="61.59" x2="62.02" y2="65.89" style="fill:none;stroke:#fff;stroke-linecap:square"/><line x1="56.25" y1="63.25" x2="59" y2="70" style="fill:none;stroke:#fff;stroke-linecap:square"/><line x1="63.94" y1="10.5" x2="70.13" y2="13.78" style="fill:none;stroke:#fff;stroke-linecap:square"/><line x1="16.58" y1="9.47" x2="21" y2="6.75" style="fill:none;stroke:#fff;stroke-linecap:square"/><line x1="13.84" y1="7.07" x2="20.2" y2="4.14" style="fill:none;stroke:#fff;stroke-linecap:square"/><line x1="36.13" y1="8.13" x2="40.88" y2="12.88" style="fill:none;stroke:#fff;stroke-linecap:square"/><line x1="39.27" y1="5.66" x2="43.59" y2="11.17" style="fill:none;stroke:#fff;stroke-linecap:square"/><line x1="67.73" y1="39.48" x2="62.5" y2="42" style="fill:none;stroke:#fff;stroke-linecap:square"/><line x1="70.56" y1="42.08" x2="64.45" y2="45.49" style="fill:none;stroke:#fff;stroke-linecap:square"/><line x1="30" y1="3.75" x2="31.25" y2="4" style="fill:none;stroke:#fff;stroke-linecap:square"/><line x1="29.25" y1="6.75" x2="29" y2="6" style="fill:none;stroke:#fff;stroke-linecap:square"/><line x1="34" y1="12.25" x2="34.75" y2="11.75" style="fill:none;stroke:#fff;stroke-linecap:square"/><line x1="45" y1="10" x2="46.25" y2="10" style="fill:none;stroke:#fff;stroke-linecap:square"/><line x1="51.75" y1="14.5" x2="52.5" y2="15.25" style="fill:none;stroke:#fff;stroke-linecap:square"/><line x1="60.75" y1="18" x2="61.5" y2="17.25" style="fill:none;stroke:#fff;stroke-linecap:square"/><line x1="62.25" y1="5.75" x2="61.75" y2="6.75" style="fill:none;stroke:#fff;stroke-linecap:square"/><line x1="6" y1="13.5" x2="6.75" y2="14" style="fill:none;stroke:#fff;stroke-linecap:square"/><line x1="12.25" y1="30.75" x2="12.25" y2="31.5" style="fill:none;stroke:#fff;stroke-linecap:square"/><line x1="5.5" y1="34.75" x2="4" y2="34.75" style="fill:none;stroke:#fff;stroke-linecap:square"/><line x1="9.75" y1="54.5" x2="10.25" y2="53.25" style="fill:none;stroke:#fff;stroke-linecap:square"/><line x1="18.25" y1="37.75" x2="17.5" y2="36.75" style="fill:none;stroke:#fff;stroke-linecap:square"/><line x1="49.25" y1="34.25" x2="50" y2="33.5" style="fill:none;stroke:#fff;stroke-linecap:square"/><line x1="39.28" y1="37" x2="39.78" y2="38" style="fill:none;stroke:#fff;stroke-linecap:square"/><line x1="25.5" y1="18.75" x2="26.25" y2="18" style="fill:none;stroke:#fff;stroke-linecap:square"/><line x1="23.25" y1="27.75" x2="24.5" y2="28.5" style="fill:none;stroke:#fff;stroke-linecap:square"/><line x1="9.25" y1="64.5" x2="9" y2="66" style="fill:none;stroke:#fff;stroke-linecap:square"/><line x1="38.25" y1="33.75" x2="37.75" y2="32.5" style="fill:none;stroke:#fff;stroke-linecap:square"/><line x1="67.55" y1="-3.66" x2="62.02" y2="0.64" style="fill:none;stroke:#fff;stroke-linecap:square"/><line x1="70" y1="-0.5" x2="64.47" y2="3.8" style="fill:none;stroke:#fff;stroke-linecap:square"/><line x1="47.19" y1="-2.72" x2="43.5" y2="2.75" style="fill:none;stroke:#fff;stroke-linecap:square"/><line x1="49.93" y1="0.19" x2="44.83" y2="4.98" style="fill:none;stroke:#fff;stroke-linecap:square"/><line x1="53.13" y1="-0.78" x2="55.5" y2="5" style="fill:none;stroke:#fff;stroke-linecap:square"/><line x1="56.25" y1="-2" x2="59" y2="4.75" style="fill:none;stroke:#fff;stroke-linecap:square"/><line x1="28" y1="-1.5" x2="22.31" y2="2.88" style="fill:none;stroke:#fff;stroke-linecap:square"/><line x1="32" y1="-0.5" x2="25.3" y2="5.54" style="fill:none;stroke:#fff;stroke-linecap:square"/><line x1="9.25" y1="-0.75" x2="9" y2="0.75" style="fill:none;stroke:#fff;stroke-linecap:square"/><line x1="14.22" y1="-2.58" x2="18.5" y2="3.25" style="fill:none;stroke:#fff;stroke-linecap:square"/><line x1="17.05" y1="-5.41" x2="21.33" y2="0.42" style="fill:none;stroke:#fff;stroke-linecap:square"/><line x1="58.53" y1="59.5" x2="59.03" y2="60.75" style="fill:none;stroke:#fff;stroke-linecap:square"/><line x1="38.75" y1="-2.5" x2="39.25" y2="4" style="fill:none;stroke:#fff;stroke-linecap:square"/><line x1="36" y1="-3.25" x2="34.5" y2="3.5" style="fill:none;stroke:#fff;stroke-linecap:square"/><line x1="45.75" y1="13.75" x2="46.5" y2="14.5" style="fill:none;stroke:#fff;stroke-linecap:square"/><line x1="32.75" y1="25.5" x2="34" y2="25.75" style="fill:none;stroke:#fff;stroke-linecap:square"/><line x1="63.5" y1="51" x2="64.25" y2="50.25" style="fill:none;stroke:#fff;stroke-linecap:square"/><line x1="8.25" y1="1.75" x2="4.85" y2="6.08" style="fill:none;stroke:#fff;stroke-linecap:square"/><line x1="61.5" y1="38.25" x2="62.75" y2="38.5" style="fill:none;stroke:#fff;stroke-linecap:square"/><line x1="23.25" y1="10" x2="24.25" y2="10.75" style="fill:none;stroke:#fff;stroke-linecap:square"/><line x1="36.25" y1="4.5" x2="36.5" y2="5.75" style="fill:none;stroke:#fff;stroke-linecap:square"/><line x1="11" y1="8.5" x2="11.5" y2="7" style="fill:none;stroke:#fff;stroke-linecap:square"/><line x1="3.25" y1="3.75" x2="3.25" y2="3.75" style="fill:none;stroke:#fff;stroke-linecap:round"/><line x1="6.25" y1="7" x2="6.25" y2="7" style="fill:none;stroke:#fff;stroke-linecap:round"/><line x1="13" y1="1.5" x2="13" y2="1.5" style="fill:none;stroke:#fff;stroke-linecap:round"/><line x1="23.25" y1="8.5" x2="23.25" y2="8.5" style="fill:none;stroke:#fff;stroke-linecap:round"/><line x1="17" y1="15.25" x2="17" y2="15.25" style="fill:none;stroke:#fff;stroke-linecap:round"/><line x1="14.5" y1="25" x2="14.5" y2="25" style="fill:none;stroke:#fff;stroke-linecap:round"/><line x1="3.75" y1="24" x2="3.75" y2="24" style="fill:none;stroke:#fff;stroke-linecap:round"/><line x1="20.5" y1="36" x2="20.5" y2="36" style="fill:none;stroke:#fff;stroke-linecap:round"/><line x1="25.75" y1="31.75" x2="25.75" y2="31.75" style="fill:none;stroke:#fff;stroke-linecap:round"/><line x1="33.5" y1="23.25" x2="33.5" y2="23.25" style="fill:none;stroke:#fff;stroke-linecap:round"/><line x1="28" y1="40.25" x2="28" y2="40.25" style="fill:none;stroke:#fff;stroke-linecap:round"/><line x1="32.75" y1="43" x2="32.75" y2="43" style="fill:none;stroke:#fff;stroke-linecap:round"/><line x1="18.75" y1="47.25" x2="18.75" y2="47.25" style="fill:none;stroke:#fff;stroke-linecap:round"/><line x1="42" y1="24.75" x2="42" y2="24.75" style="fill:none;stroke:#fff;stroke-linecap:round"/><line x1="41.75" y1="16.25" x2="41.75" y2="16.25" style="fill:none;stroke:#fff;stroke-linecap:round"/><line x1="58.25" y1="7.5" x2="58.25" y2="7.5" style="fill:none;stroke:#fff;stroke-linecap:round"/><line x1="50.25" y1="4" x2="50.25" y2="4" style="fill:none;stroke:#fff;stroke-linecap:round"/><line x1="61" y1="27.25" x2="61" y2="27.25" style="fill:none;stroke:#fff;stroke-linecap:round"/><line x1="59.5" y1="38.25" x2="59.5" y2="38.25" style="fill:none;stroke:#fff;stroke-linecap:round"/><line x1="54" y1="45" x2="54" y2="45" style="fill:none;stroke:#fff;stroke-linecap:round"/><line x1="57.5" y1="55" x2="57.5" y2="55" style="fill:none;stroke:#fff;stroke-linecap:round"/><line x1="50" y1="59.75" x2="50" y2="59.75" style="fill:none;stroke:#fff;stroke-linecap:round"/><line x1="28.5" y1="61" x2="28.5" y2="61" style="fill:none;stroke:#fff;stroke-linecap:round"/><line x1="39.5" y1="63.5" x2="39.5" y2="63.5" style="fill:none;stroke:#fff;stroke-linecap:round"/><line x1="25.25" y1="15.75" x2="25.25" y2="15.75" style="fill:none;stroke:#fff;stroke-linecap:round"/><line x1="10.75" y1="62.75" x2="10.75" y2="62.75" style="fill:none;stroke:#fff;stroke-linecap:round"/><line x1="0.75" y1="51.5" x2="0.75" y2="51.5" style="fill:none;stroke:#fff;stroke-linecap:round"/><line x1="3.75" y1="44.25" x2="3.75" y2="44.25" style="fill:none;stroke:#fff;stroke-linecap:round"/><line x1="9" y1="40.5" x2="9" y2="40.5" style="fill:none;stroke:#fff;stroke-linecap:round"/><line x1="9.75" y1="44.25" x2="9.75" y2="44.25" style="fill:none;stroke:#fff;stroke-linecap:round"/><line x1="50.75" y1="22.5" x2="50.75" y2="22.5" style="fill:none;stroke:#fff;stroke-linecap:round"/><line x1="48" y1="32.25" x2="48" y2="32.25" style="fill:none;stroke:#fff;stroke-linecap:round"/><line x1="46.25" y1="40.5" x2="46.25" y2="40.5" style="fill:none;stroke:#fff;stroke-linecap:round"/><line x1="27.75" y1="24.75" x2="27.75" y2="24.75" style="fill:none;stroke:#fff;stroke-linecap:round"/><line x1="24.25" y1="55.5" x2="24.25" y2="55.5" style="fill:none;stroke:#fff;stroke-linecap:round"/><line x1="24.25" y1="63.5" x2="24.25" y2="63.5" style="fill:none;stroke:#fff;stroke-linecap:round"/><line x1="18.88" y1="59.5" x2="18.88" y2="59.5" style="fill:none;stroke:#fff;stroke-linecap:round"/><line x1="26.63" y1="37" x2="26.63" y2="37" style="fill:none;stroke:#fff;stroke-linecap:round"/><line x1="61" y1="62" x2="61" y2="62" style="fill:none;stroke:#fff;stroke-linecap:round"/><line x1="4.5" y1="56" x2="4.5" y2="56" style="fill:none;stroke:#fff;stroke-linecap:round"/><line x1="33.75" y1="29.75" x2="33.75" y2="29.75" style="fill:none;stroke:#fff;stroke-linecap:round"/><line x1="33.25" y1="14.75" x2="33.25" y2="14.75" style="fill:none;stroke:#fff;stroke-linecap:round"/><line x1="34.5" y1="8" x2="34.5" y2="8" style="fill:none;stroke:#fff;stroke-linecap:round"/><line x1="49.75" y1="55.75" x2="49.75" y2="55.75" style="fill:none;stroke:#fff;stroke-linecap:round"/><line x1="49" y1="44.75" x2="49" y2="44.75" style="fill:none;stroke:#fff;stroke-linecap:round"/><line x1="62.75" y1="47.25" x2="62.75" y2="47.25" style="fill:none;stroke:#fff;stroke-linecap:round"/><line x1="52.25" y1="17.5" x2="52.25" y2="17.5" style="fill:none;stroke:#fff;stroke-linecap:round"/><line x1="53" y1="19.25" x2="53" y2="19.25" style="fill:none;stroke:#fff;stroke-linecap:round"/><line x1="53.25" y1="10.5" x2="53.25" y2="10.5" style="fill:none;stroke:#fff;stroke-linecap:round"/><line x1="40" y1="19.75" x2="40" y2="19.75" style="fill:none;stroke:#fff;stroke-linecap:round"/><line x1="49" y1="27.25" x2="49" y2="27.25" style="fill:none;stroke:#fff;stroke-linecap:round"/><line x1="59.5" y1="24" x2="59.5" y2="24" style="fill:none;stroke:#fff;stroke-linecap:round"/><line x1="61" y1="31.25" x2="61" y2="31.25" style="fill:none;stroke:#fff;stroke-linecap:round"/><line x1="1" y1="16.25" x2="1" y2="16.25" style="fill:none;stroke:#fff;stroke-linecap:round"/><line x1="-4.5" y1="22.25" x2="-0.18" y2="27.76" style="fill:none;stroke:#fff;stroke-linecap:square"/><line x1="-1.85" y1="20.03" x2="2.47" y2="25.54" style="fill:none;stroke:#fff;stroke-linecap:square"/><line x1="-1.68" y1="53.46" x2="2.25" y2="59.25" style="fill:none;stroke:#fff;stroke-linecap:square"/><line x1="1.88" y1="31.26" x2="-1.81" y2="37.2" style="fill:none;stroke:#fff;stroke-linecap:square"/><line x1="2.3" y1="61.59" x2="-3.23" y2="65.89" style="fill:none;stroke:#fff;stroke-linecap:square"/><line x1="-1.31" y1="10.5" x2="4.88" y2="13.78" style="fill:none;stroke:#fff;stroke-linecap:square"/><line x1="2.48" y1="39.48" x2="-2.75" y2="42" style="fill:none;stroke:#fff;stroke-linecap:square"/><line x1="5.31" y1="42.08" x2="-0.8" y2="45.49" style="fill:none;stroke:#fff;stroke-linecap:square"/><line x1="2.3" y1="-3.66" x2="-3.23" y2="0.64" style="fill:none;stroke:#fff;stroke-linecap:square"/><line x1="4.75" y1="-0.5" x2="-0.78" y2="3.8" style="fill:none;stroke:#fff;stroke-linecap:square"/><line x1="14.22" y1="-2.58" x2="18.5" y2="3.25" style="fill:none;stroke:#fff;stroke-linecap:square"/><line x1="17.05" y1="-5.41" x2="21.33" y2="0.42" style="fill:none;stroke:#fff;stroke-linecap:square"/><line x1="47.19" y1="-2.72" x2="43.5" y2="2.75" style="fill:none;stroke:#fff;stroke-linecap:square"/><line x1="49.93" y1="0.19" x2="44.83" y2="4.98" style="fill:none;stroke:#fff;stroke-linecap:square"/><line x1="53.13" y1="-0.78" x2="55.5" y2="5" style="fill:none;stroke:#fff;stroke-linecap:square"/><line x1="28" y1="-1.5" x2="22.31" y2="2.88" style="fill:none;stroke:#fff;stroke-linecap:square"/><line x1="32" y1="-0.5" x2="25.3" y2="5.54" style="fill:none;stroke:#fff;stroke-linecap:square"/><line x1="38.75" y1="-2.5" x2="39.25" y2="4" style="fill:none;stroke:#fff;stroke-linecap:square"/><line x1="36" y1="-3.25" x2="34.5" y2="3.5" style="fill:none;stroke:#fff;stroke-linecap:square"/><line x1="67.55" y1="-3.66" x2="62.02" y2="0.64" style="fill:none;stroke:#fff;stroke-linecap:square"/><line x1="56.25" y1="-2" x2="59" y2="4.75" style="fill:none;stroke:#fff;stroke-linecap:square"/><line x1="9.25" y1="-0.75" x2="9" y2="0.75" style="fill:none;stroke:#fff;stroke-linecap:square"/><line x1="2.3" y1="-3.66" x2="-3.23" y2="0.64" style="fill:none;stroke:#fff;stroke-linecap:square"/></pattern><pattern id="j" width="74.06" height="72" patternTransform="translate(295.51 196.45) scale(0.25)" patternUnits="userSpaceOnUse" viewBox="0 0 74.06 72"><rect width="74.06" height="72" style="fill:none"/><line x1="24.98" y1="72" x2="24.98" style="fill:none;stroke:#1d1d1b;stroke-width:4px"/><line x1="6.49" y1="72" x2="6.49" style="fill:none;stroke:#1d1d1b;stroke-width:4px"/><line x1="43.47" y1="72" x2="43.47" style="fill:none;stroke:#1d1d1b;stroke-width:4px"/><line x1="61.96" y1="72" x2="61.96" style="fill:none;stroke:#1d1d1b;stroke-width:4px"/><line x1="12.09" y1="72" x2="12.09" style="fill:none;stroke:#1d1d1b"/><line x1="30.58" y1="72" x2="30.58" style="fill:none;stroke:#1d1d1b"/><line x1="49.07" y1="72" x2="49.07" style="fill:none;stroke:#1d1d1b"/><line x1="67.56" y1="72" x2="67.56" style="fill:none;stroke:#1d1d1b"/></pattern></defs><title>s9s10</title><g style="clip-path:url(#a)"><g style="clip-path:url(#b)"><path d="M1025.6,531.36S960.71,508,951.44,505.28,934.24,497.11,925,493s-6.56-8-15.77-16.12-18.51-9.51-25.1-14.91,2.65,1.36-27.75-14.93-59.56-24.58-71.33-42-46.14-35.07-56.6-51.14-18.33-25.46-26.27-29.54S690.39,307,686.4,306.93s-9.92-4.77-13.89-6.14a39.05,39.05,0,0,1-7.93-4.08s-22.47-12.21-25.07-17.56-5.18-12-9.11-17.38-19.78-14.84-27.64-25.56-9.23-6.75-14.46-14.79-7.9-6.73-18.39-20.14-15.73-20.12-18.4-18.82-8.07,7.89-12.06,7.85-2.57-8-6.57-6.72l-4,1.28-2.68,1.3s-5.27-4-7.93-4.07-6.63-1.41-9.27-2.76,0-4-6.62-2.74-13.34,3.84-16,6.47l-2.68,2.63s-1.3-2.67-7.95-2.74-8-.09-10.65,1.21-1.34,1.31-5.35,2.6,0,1.33-5.34,2.6-9.29-1.43-14.59-2.82-2.65-1.36-8-1.42L421.19,185c-2.66,0-5.3-1.38-9.26-4.09a14.36,14.36,0,0,0-9.28-2.76c-2.66,0-9.35,3.89-10.71,6.53s-8,5.23-12.06,9.17a59.62,59.62,0,0,0-6.74,7.91s-48.26,36.69-69.6,43.1c-2.55.77-9.34,2.56-14.64,1.17s-6.65-.07-8-.09l-8-.09s-9.47,14.52-24.18,22.34c-5.25,2.79-20,7.75-25.39,11.68s-5.45,11.91-13.47,15.81-20.08,13.07-20.08,13.07-35.69-19-38.32-21.69-4-2.71-9.24-5.42S141,275,130.35,277.53s-14.7,6.48-20,7.75-10.69,5.2-10.69,5.2-13.3-.14-20,6.43c0,0-9.26-4.09-14.66,3.83a204.17,204.17,0,0,1-37.53,27.5C20.69,332.1,10,337.36,3.27,347.92c-3,4.75-52.41,51.27-108.6,82.56-2.32,1.29-3.94-4-9.29-1.44s-9.36,5.22-20,3.77-1.27-5.33-13.28-1.47-12.05,7.84-22.74,13-10.71,6.53-20,9.09-10.63-.12-17.29,1.13-5.39,6.59-10.74,9.19S-244,466.17-253.38,474c-2.28,1.91-16,6.48-28,7.67s-9.42,10.53-18.71,9.1-11.92-4.12-17.27-1.52-9.42,10.53-13.43,11.82-5.33,1.27-12,2.53-9.29-1.44-10.65,1.21,2.62,4-2.71,5.29-6.67,1.25-8,5.23,2.62,4-4.05,5.27-12,1.2-18.64,2.45-22.65,5.07-30.63,5-7.94-2.74-14.62-.16-24,5.05-25.33,6.37-4,2.61-8,5.23-13.47,15.8-16.15,17.1-17.25-2.85-22.59-.25-41.35,11.51-41.35,11.51l-125.17,18.56-43.23,62L-60,663.63l1084.58,23.93Z" style="fill:#abc4ab"/><path d="M87.26,507.71a104.19,104.19,0,0,0,6.5,13.37c3.91,6.69,13.19,9.45,19.78,14.84s15.71,21.45,22.3,26.84,0,4-1.44,10.62-.06,5.32,1.24,8,23.66,24.19,29,26.91,2.63,2.69,19.79,13.51a55.24,55.24,0,0,1,22.31,26.84l92.38,1.68L450.74,640s9.35-3.89,10.72-7.86-5.19-12-5.19-12l6.89-21.2s-9.22-8.08-13.18-10.78,1.48-13.28,1.56-21.25-7.88-8.07-13.17-10.79-3.89-9.34,1.55-19.92.23-21.27.23-21.27-6.75,9.23-8.11,11.88-12.05,7.84-29.42,15.63-12.06,9.17-16.08,11.78,3.58,37.27-5.42,9.25-3.84-13.34-7.76-20,1.41-6.63,1.51-15.93-2.42-21.3-5-26.65,4.14-14.58,5.52-18.55,4.24-22.56,9.64-30.47,14.84-19.78,24.18-22.34,5.42-9.24,8.15-15.86,10.84-18.49,12.18-19.81,1.48-13.28,1.54-18.59,8.16-17.2,13.55-23.78,1.39-5.31,4.11-10.6,13.44-13.14,13.44-13.14,15.89,5.49,22.45,13.54,2.63,2.69,5.27,4.05,1.24,8,3.83,14.66,2.56,9.34,2.5,14.66L496,395.89c-.07,6.65,2.47,17.31,2.43,21.3s1.16,14.64,5,28,6.5,13.36,6.44,18.68,7.84,12,9,29.35,9,24,9,24,3.89,9.35,6.55,9.38,9.2,9.4,10.47,14.74,5.23,8,13.07,20.08,0,0,3.93,5.36,2.63,2.69,7.84,12.05-2.76,9.28-2.76,9.28l14.26,33.39-2.89,21.24s11.93,2.79,17.28.19,8,.09,8,.09,7.95,2.75,11.94,2.79,5.33-1.27,6.69-3.91.09-8,1.52-17.27-3.8-17.32-3.8-17.32,9.28,2.76,11.92,4.12,15.88,6.82,15.88,6.82,1.14,17.29-.29,26.59,9.29,1.43,10.63.11,5.33-1.27,8-5.23.08-6.64.12-10.63,8-2.57,9.35-3.89A20.78,20.78,0,0,0,681,612c.08-6.65,6.8-13.22,10.81-15.84s9.38-6.54,9.38-6.54L705.34,579a34.69,34.69,0,0,1,4.09-9.26c2.7-4,8.06-7.89,8.12-13.21s-1.21-10.64-1.2-12-11.92-4.12-14.57-4.15S692.49,539,689.83,539s-9.29-1.44-12-1.47-20,6.43-20,6.43a142.63,142.63,0,0,0-10.79,14.51c-4.06,6.6-1.43,9.29,1.11,20s-1.42,8-6.78,11.89-12,1.2-12,1.2-18.55-5.52-21.16-9.54.19-17.28.23-21.27-20,2.44-20,2.44-5.18-12-3.78-18.66-3.86-12-5.14-16S567.74,519,565.17,511s-11.9-6.78-14.47-14.78,4.12-11.92,6.83-15.88,5.49-15.89,6.91-23.85,8.15-15.87,9.57-23.83-2.44-20-5-28-10.49-13.41-10.54-9.43,1.29,4,2.52,13.33,1.24,8,1.15,16-6.84,17.21-5.61,26.53-17.59,27.72-17.59,27.72-10.62-1.44-14.56-5.47.11-10.64-3.84-13.34-11.57-36-12.62-61.3-2.57-8-2.57-8-5-25.32-6.2-41.28.12-10.64,4.3-27.87-1.21-10.65-1.14-17.3,2.85-17.25,2.92-23.9-7.85-10.72-17.2-6.83-18.69,6.44-21.35,6.41-6.72,6.57-6.77,11.89,9.17,12.06,2.46,17.31-15.93-1.51-23.94,1.06-5.46,13.24-6.88,21.2-.06,5.32-.15,13.29-6.82,15.88-6.82,15.88l-6.7,5.24a9.92,9.92,0,0,1-4,4C411.16,371,409.7,383,409.7,383s-2.85,17.25-6.91,23.85-6.63-1.4-12-.13-1.38,4-8.11,11.88-9.45,13.19-13.49,17.13-6.76,10.56-14.82,18.45-1.38,4-2.84,15.92-2.71,5.29-8.18,18.52,0,0-.13,12-4.31,29.2-5.71,35.83-.05,4,3.88,9.35,3.81,16,3.81,16-2.71,5.29-12.09,11.84c-4.09,2.85-5.9,5.73-6.65,8.07a15.79,15.79,0,0,0-1.37-4.17c-2.6-5.35-5.16-14.68-5.16-14.68s-1.17-14.64.21-18.62-1.29-4-3.89-9.34-1.15-16-7.81-14.71-.05,4-1.43,9.29-1.49,14.6-2.9,21.24,2.56,9.33,2.5,14.65-.18,16-1.58,22.58-20.23,26.37-20.23,26.37a56.84,56.84,0,0,1-2.59-6.68c-1.28-4,.09-8,.14-12s-7.89-8.07-14.5-12.13-5.22-8-5.22-8,.08-8-1.19-13.31,5.5-15.89,6.85-18.54-6.57-6.72-14.57-4.15S248.23,558,244.2,562s-13.36,6.5-13.36,6.5l-6.59-5.39a35.17,35.17,0,0,1,1.43-9.29c1.37-4-1.26-6.66-2.59-6.68s-3.91-6.69-3.91-6.69l-6.56-8-14.77,13.13L179.26,544l-6.49-14.7-10.52-10.75,17.53-22.4,16.12-14.45,4.06-6.6,13.36-6.5,8-3.9,18.72-9.1,12-5.19,5.38-5.26,2.74-7.94s6.71-5.25,9.4-7.88,9.33-2.55,9.33-2.55l13.42-11.82s16.15-17.11,22.81-18.36,2.63,2.69,5.27,4.05-.17,15.95-.17,15.95l5.39-6.59c5.39-6.59.11-10.64.11-10.64s-2.49-14.65-3.78-18.65.25-22.6,4.3-27.87,8-2.57,12.05-7.84,9.48-15.85,16.16-18.44,6.69-3.91,11.91,4.12,0,2.66-2.81,14.59-9.43,10.54-10.84,18.5-.11,9.3-2.87,18.58-2.85,17.25-3,33.2,2.35,28,9,26.69,6.73-7.9,6.81-14.55,4.09-9.26,5.5-17.22,5.58-23.87,8.27-26.5S377.91,372,379.29,368a269.69,269.69,0,0,1,10.91-25.14c4.08-7.93,8-3.9,12-6.52s1.37-4,1.4-6.63,8.08-9.22,12.13-14.49,2.73-6.62,2.77-10.6,5.42-9.25,8.09-10.55,2.78-10.6,2.78-10.6.12-10.64,6.84-17.21,12.33-33.1,12.33-33.1,1.41-8,.1-9.31,2.78-10.6,5.42-9.24,1.3,2.67,3.9,8,3.88,9.35,1.14,17.3,2.55,9.33,2.5,14.65,6.57,6.72,6.57,6.72l6.54,9.38s6.66-1.26,6.72-6.57,5.53-18.55,5.61-26.53,2.71-4,4.08-7.93,2.73-6.62,2.79-11.94,0-2.66-2.59-6.67,1.44-9.29.14-12-4,0-7.95-2.74-5.27-4.05-7.93-4.08l-9.31-.1c-1.57,0-2.63-3.75-3.24-6.8a11.54,11.54,0,0,1-3.35,1.41c-3.2,1-1.29,1.26-3.14,2l.41,4.65-12-.14c-5.32-.05-5.35,2.6-9.36,5.22s-4-1.38.05-5.32a14.14,14.14,0,0,0,3.42-6.77c-4.42-1.21-2.23-1.19-7.32-1.25L421.19,185a10.21,10.21,0,0,1-4.38-1.16c-1.85,4-1,7.42-1.05,11.74-.06,5.32-4.08,7.93-6.72,6.57s-1.28-5.33-1.23-9.32-2.59-6.67-2.57-8c0-1-1.35-4-2.09-6.67h-.5c-2.66,0-9.35,3.89-10.71,6.53s-8,5.23-12.06,9.17a59.62,59.62,0,0,0-6.74,7.91s-48.26,36.69-69.6,43.1c-2.55.77-9.34,2.56-14.64,1.17s-6.65-.07-8-.09l-8-.09s-9.47,14.52-24.18,22.34c-5.25,2.79-20,7.75-25.39,11.68s-5.45,11.91-13.47,15.81c-6.38,3.1-15.3,9.53-18.69,12,4.71,5,9.29,10,10.45,11.81,2.62,4,3.93,5.36,9.18,12.06s4,2.71,10.57,5.44,10.62,1.45,9.23,6.75-13.52,21.12-13.52,21.12,8.66-1.9,12.57,4.79,0,5.32,3.87,10.68-4.06,6.6-6.79,13.22-4.15,14.58-9.52,19.84-12.1,11.83-28.26,30.26-8,1.24-20.07,11.75-13.41,10.48-24.13,18.34S87.26,507.71,87.26,507.71Z" style="fill:#86ac98"/></g></g><g style="clip-path:url(#e)"><g style="clip-path:url(#f)"><path d="M501.52,590.67s-61.32-31.51-70.16-35.45-16-10.33-24.64-15.58-5.47-8.83-13.56-18-17.12-11.83-23-18,2.45,1.69-25.58-18.39-55.88-32.09-65.3-50.88-41.21-40.75-49.5-58-14.89-27.62-22.22-32.69-9.42-18.79-13.37-19.35-9.22-6-13-7.88a39.19,39.19,0,0,1-7.34-5.07s-20.7-15-22.58-20.66-3.59-12.59-6.79-18.41-17.69-17.28-24.1-28.93-8.28-7.89-12.42-16.53-7-7.7-15.63-22.36-13-22-15.82-21-9,6.78-13,6.22-1.52-8.27-5.65-7.51l-4.14.75-2.82.95s-4.7-4.7-7.33-5.07-6.4-2.25-8.84-3.94.56-3.95-6.21-3.56-13.72,2.08-16.73,4.34l-3,2.26S7.94,175,1.36,174s-7.9-1.12-10.72-.18-1.5,1.13-5.63,1.88-.19,1.32-5.64,1.89-9-2.62-14.11-4.68-2.44-1.69-7.71-2.44L-53,169c-2.63-.38-5.08-2.06-8.65-5.26a14.4,14.4,0,0,0-8.84-3.94c-2.63-.37-9.78,2.65-11.46,5.09s-8.65,4.15-13.16,7.54a59.83,59.83,0,0,0-7.7,7s-52.61,30.14-74.6,33.74c-2.62.42-9.58,1.32-14.66-.74s-6.58-.93-7.9-1.12l-7.9-1.12s-11.26,13.17-26.86,19c-5.57,2.08-20.86,5.1-26.69,8.3s-6.94,11.1-15.4,13.93-21.61,10.36-21.61,10.36-32.93-23.46-35.18-26.47-3.58-3.19-8.47-6.57-.39-6.77-11.29-5.63-15.41,4.53-20.86,5.1S-385.49,232-385.49,232s-13.16-1.86-20.67,3.79c0,0-8.66-5.26-15,1.89A203.86,203.86,0,0,1-462,260.08c-7.17,2.95-18.42,6.79-26.5,16.38-3.63,4.32-58.6,44.06-118.36,67.81-2.47,1-3.39-4.51-9-2.62s-10,4-20.3,1.15-.57-5.45-13-3.18-13,6.22-24.24,10-11.46,5.09-21,6.41-10.53-1.49-17.3-1.11-6.2,5.84-11.83,7.72-25.39-.91-35.72,5.68c-2.5,1.6-16.73,4.35-28.76,4s-10.71,9.23-19.73,6.6-11.29-5.62-16.93-3.74-10.7,9.23-14.84,10-5.45.57-12.22,1-9-2.63-10.71-.18,2.07,4.32-3.38,4.89-6.77.38-8.65,4.15,2.08,4.32-4.69,4.7-12-.36-18.8,0-23.12,2.1-31,1-7.52-3.76-14.48-2.06-24.44,1.91-25.94,3-4.32,2.07-8.64,4.14-15.41,13.93-18.22,14.88-16.74-5.06-22.38-3.17-42.48,6.06-42.48,6.06l-126.53,2.2-50.88,55.89,646.46,99.7L480.26,745.42Z" style="fill:#abc4ab"/><path d="M-425.86,445.79a104,104,0,0,0,4.71,14.09c3,7.14,11.86,11.08,17.69,17.28s12.81,23.3,18.65,29.49-.56,4-2.81,10.35-.75,5.26.19,8.08,20.34,27,25.23,30.43,2.26,3,17.88,16A55.23,55.23,0,0,1-325.68,601l91.39,13.62L-82.57,624s9.78-2.64,11.65-6.41S-74.5,605-74.5,605l9.56-20.13s-8.09-9.2-11.67-12.39,3.19-13,4.31-20.87-6.78-9-11.67-12.4-2.65-9.77,4.11-19.56,3-21.06,3-21.06-7.89,8.28-9.58,10.73-13,6.22-31.2,11.69-13.15,7.53-17.47,9.61-1.28,37.41-6.57,8.46-2.08-13.72-5.1-20.86,2.25-6.39,3.56-15.61.35-21.43-1.54-27.07,6-13.92,7.88-17.68,7.12-21.81,13.5-29,17.28-17.69,26.87-19,6.57-8.47,10.13-14.68,13.15-16.93,14.65-18.06,3.18-13,3.93-18.24,10.32-16,16.52-21.83,2.06-5.08,5.44-10,15-11.3,15-11.3,15.05,7.51,20.51,16.34,2.26,3,4.7,4.69.2,8.09,1.9,15,1.33,9.59.58,14.85l-3,21.06c-.93,6.58.21,17.49-.35,21.44s-.73,14.66,1.35,28.38,4.71,14.1,4,19.36S5.07,470,4,487.25s5.85,25,5.85,25,2.64,9.78,5.28,10.15,7.9,10.52,8.47,16S27.71,547,33.93,560s0,0,3.2,5.83,2.26,3,6.22,13-3.94,8.84-3.94,8.84l9.81,35-5.61,20.69s11.47,4.31,17.11,2.42,7.89,1.12,7.89,1.12,7.53,3.75,11.48,4.31,5.45-.57,7.14-3,1.12-7.9,3.74-16.93-1.52-17.67-1.52-17.67,8.84,3.94,11.28,5.63,14.86,8.82,14.86,8.82-1.11,17.3-3.73,26.32,9,2.63,10.53,1.5,5.45-.57,8.65-4.15.93-6.58,1.49-10.53,8.27-1.51,9.77-2.64A20.83,20.83,0,0,0,149.43,626c.94-6.58,8.45-12.23,12.77-14.3s10.15-5.27,10.15-5.27l5.44-10a34.63,34.63,0,0,1,5.25-8.66c3.2-3.57,9-6.78,9.77-12s.17-10.72.36-12-11.29-5.63-13.92-6-9-2.63-11.66-3-9-2.62-11.66-3-20.67,3.79-20.67,3.79a143.72,143.72,0,0,0-12.59,13c-4.88,6-2.62,9-1.48,19.93s-2.43,7.71-8.26,10.92-12-.37-12-.37-17.68-7.87-19.76-12.2,2.43-17.11,3-21.06S64,565.58,64,565.58s-3.58-12.59-1.33-19-2.27-12.4-3-16.54-10.54-10.89-12-19.16-10.91-8.26-12.43-16.53S40.8,483.07,44,479.49s7.51-15,9.94-22.75,10.14-14.68,12.57-22.39.17-20.12-1.34-28.39-8.67-14.65-9.23-10.7.76,4.13.77,13.53.2,8.09-.92,16-9,16.18-9,25.58-21,25.22-21,25.22S15.41,472.76,12,468.25s1.49-10.53-2.08-13.72-6.81-37.22-4.58-62.42-1.52-8.27-1.52-8.27-1.72-25.75-.79-41.73S4.54,331.58,10.91,315s.18-10.72,1.11-17.3,5.06-16.74,6-23.32-6.4-11.65-16.17-9-19.36,4-22,3.6-7.51,5.65-8.26,10.91,7.54,13.16.21,17.49-15.61-3.56-23.88-2-7.13,12.41-9.57,20.12-.74,5.27-1.86,13.16-8.82,14.87-8.82,14.87l-7.33,4.33a10,10,0,0,1-4.51,3.39c-2.82.94-5.81,12.6-5.81,12.6s-5.06,16.74-9.94,22.76-6.4-2.25-11.85-1.68-1.87,3.76-9.57,10.73-11.08,11.85-15.59,15.24-8.08,9.6-17.09,16.38-1.88,3.76-4.87,15.42-3.38,4.89-10.51,17.31,0,0-1.68,11.84-8.06,28.4-10.3,34.79-.56,3.95,2.64,9.78,1.71,16.35,1.71,16.35-3.38,4.89-13.53,10.17c-4.42,2.3-6.59,4.92-7.63,7.14a16.11,16.11,0,0,0-.82-4.31c-1.89-5.64-3.22-15.23-3.22-15.23s.74-14.66,2.62-18.43-.76-4.13-2.65-9.77.93-16-5.84-15.6-.56,3.95-2.62,9-3.37,14.29-5.62,20.69,1.32,9.58.58,14.85-2.24,15.79-4.49,22.19S-243.74,577-243.74,577a56.72,56.72,0,0,1-1.7-7c-.75-4.14,1.12-7.9,1.68-11.85s-6.77-9-12.8-13.9-4.14-8.64-4.14-8.64,1.12-7.9.55-13.35,7.5-15,9.19-17.49-5.65-7.52-13.92-6-7.87,17.68-12.38,21.07-14.1,4.71-14.1,4.71l-5.83-6.2a34.81,34.81,0,0,1,2.62-9c1.88-3.76-.38-6.77-1.7-7s-3-7.14-3-7.14l-5.47-8.83-16.34,11.11-18.24-3.93-4.53-15.41-9-12,20.29-19.95L-314.77,434l4.88-6,14.1-4.72,8.46-2.83,19.73-6.6,12.59-3.58,6-4.52,3.76-7.53s7.32-4.33,10.33-6.59,9.58-1.32,9.58-1.32l14.85-10s18.22-14.88,25-15.26,2.26,3,4.71,4.7S-183,385.55-183,385.55l6.2-5.83c6.2-5.84,1.49-10.53,1.49-10.53s-.58-14.86-1.34-19,3.18-22.38,7.87-27.08,8.27-1.52,13-6.22,11.45-14.49,18.4-16.19,7.14-3,11.29,5.63-.37,2.63-4.69,14.1-10.7,9.23-13.14,16.94-1.3,9.21-5.24,18.05-5.06,16.74-7.3,32.54-1.28,28,5.48,27.63,7.7-7,8.64-13.55,5.25-8.65,7.69-16.36,8.62-22.95,11.63-25.21,3-11.66,4.87-15.42a271.26,271.26,0,0,1,14.07-23.52c5.07-7.33,8.46-2.83,12.78-4.9s1.88-3.76,2.25-6.39,9.2-8.1,13.9-12.8,3.56-6.21,4.12-10.16,6.58-8.47,9.39-9.41,4.13-10.16,4.13-10.16,1.49-10.53,9-16.17S-32,220.32-32,220.32s2.43-7.71,1.3-9.21,4.13-10.16,6.57-8.47.95,2.82,2.83,8.46,2.65,9.77-1.11,17.29,1.33,9.59.58,14.86,5.65,7.51,5.65,7.51l5.28,10.15s6.76-.39,7.51-5.65,7.88-17.68,9-25.58,3.19-3.58,5.07-7.34,3.56-6.21,4.31-11.47.37-2.63-1.7-7,2.62-9,1.68-11.84-3.95-.56-7.53-3.75-4.7-4.7-7.34-5.07l-9.21-1.31c-1.56-.22-2.13-4.06-2.34-7.16a11.23,11.23,0,0,1-3.49,1c-3.32.61-1.45,1.09-3.38,1.55l-.19,4.66-11.84-1.68c-5.27-.74-5.64,1.89-10,4s-3.77-1.87.74-5.26a14.13,14.13,0,0,0,4.27-6.28c-4.23-1.77-2.07-1.47-7.1-2.18L-53,169a10.45,10.45,0,0,1-4.19-1.72c-2.34,3.7-2,7.23-2.57,11.5-.74,5.27-5.06,7.34-7.51,5.65s-.57-5.45,0-9.4-1.7-7-1.51-8.27c.13-1-.82-4.18-1.21-6.88l-.49-.08c-2.63-.37-9.78,2.65-11.46,5.09s-8.65,4.15-13.16,7.54a59.83,59.83,0,0,0-7.7,7s-52.61,30.14-74.6,33.74c-2.62.42-9.58,1.32-14.66-.74s-6.58-.93-7.9-1.12l-7.9-1.12s-11.26,13.17-26.86,19c-5.57,2.08-20.86,5.1-26.69,8.3s-6.94,11.1-15.4,13.93c-6.73,2.25-16.41,7.47-20.1,9.51,4,5.57,7.92,11.13,8.84,13.06,2.08,4.32,3.21,5.82,7.54,13.15s3.57,3.19,9.78,6.76,10.34,2.81,8.28,7.89S-278.61,321-278.61,321s8.84-.76,11.86,6.38-.75,5.26,2.45,11.09-4.88,6-8.44,12.23-6,13.92-12,18.44-13.52,10.16-31.93,26.35-8.08.2-21.42,9-14.66,8.66-26.31,15.07S-425.86,445.79-425.86,445.79Z" style="fill:#86ac98"/><path d="M110.15,292.17c-1.51-8.27-1.88-5.64-1.32-9.59s3.56-6.2-1.33-9.58-2.26-3-7.15-6.39-.76-4.13-4.89-3.38.57,5.46-4.51,3.39-5.08-2.06-4.89-3.37,1.5-1.13,2.06-5.08,2.82-.95.93-6.58-2.07-4.33-2.82-8.46-5.09-11.46-5.1-20.86,3-2.26.17-10.72-1.14-10.9-2.27-12.41-4.32,2.08-3.39-4.5c.61-4.3-1.33-6.67-2.13-9.57-3.07,2-7.07,4.9-9.9,4.5-4-.56-1.52-8.27-5.65-7.51l-4.14.75-2.82.95s-4.7-4.7-7.33-5.07-6.4-2.25-8.84-3.94.56-3.95-6.21-3.56c-6.51.36-13.19,1.95-16.36,4.09,1.34,2.78,2.28,5.27,2.08,6.64-.56,4,4.89,3.38,8.85,13.34,2.45,6.16,4,11.18,6.1,14.59-2.52-.9-4.75-1.49-5.33-1.06-1.5,1.13.38,6.77-1.31,9.21s-2.43,7.72-3.18,13l-1.12,7.9c-.74,5.26-4.51,3.39-1.12,7.9s3.39,4.5,7,7.7-1.9-15,.92-16,6.77-.38,7.52,3.76,1,12.22,3,16.54.57,5.45,3.2,5.82,7-1.7,6.21,3.57,5.27,10.14,5.27,10.14a5.79,5.79,0,0,1-.75-4.13c.37-2.63,2.81-10.34.55-13.35s.56-3.95,0-9.4-2.08-4.32-1.52-8.27c.38-2.63.71-6.72.89-9.17,2.26,3.5,4,6.34,4.75,7.28,2.26,3,4.89,3.38,7.91,10.52s6,4.88,6.78,9-3.57,6.21-.74,14.66,2.46,11.09,6.22,13,3.95.56,4.89,3.38,9,12,9,12-3.2-5.82-2.64-9.77,3-2.26.93-6.58S81,280,81.37,277.35s1.88-3.76,3.57-6.21,3.19-3.57,4.13-.75.57,5.45,5.28,10.14,7.34,5.07,8.09,9.21,2.83,8.45,6.22,13,7,7.7,8.1,9.2S111.67,300.44,110.15,292.17Z" style="fill:#86ac98"/></g></g><g style="clip-path:url(#g)"><circle cx="156.34" cy="55.32" r="45.94" style="fill:#f7956f"/><path d="M237,28.59c-4-4.49-6.08-3.17-10.32,0s-6.38,4.48-10.32,0V17.15c3.94,4.48,6.09,3.16,10.32,0s6.36-4.49,10.32,0Z" style="fill:#ef1e32"/><rect x="215.14" y="16.66" width="1.24" height="27.36" rx="0.62" style="fill:#165488"/><path d="M321.74,105.41s-12.18-4.23-13.92-4.72a44.61,44.61,0,0,1-5-2.24c-1.74-.75-1.24-1.49-3-3s-3.48-1.74-4.73-2.73.5.25-5.22-2.74-11.19-4.47-13.43-7.71-8.71-6.46-10.7-9.45-3.48-4.72-5-5.47-2.24-3.23-3-3.23S256,63.26,255.22,63a7.38,7.38,0,0,1-1.5-.75S249.49,60,249,59a20.8,20.8,0,0,0-1.74-3.23c-.75-1-3.73-2.74-5.23-4.73s-1.74-1.24-2.73-2.74-1.49-1.24-3.48-3.73-3-3.73-3.49-3.48-1.49,1.49-2.23,1.49-.5-1.49-1.25-1.24l-.74.25-.5.25a4.09,4.09,0,0,0-1.49-.75,4.54,4.54,0,0,1-1.74-.5c-.5-.24,0-.74-1.25-.49a6.72,6.72,0,0,0-3,1.24l-.5.5s-.25-.5-1.49-.5-1.49,0-2,.25a3.66,3.66,0,0,1-1,.5c-.74.25,0,.25-1,.49s-1.74-.24-2.74-.49-.49-.25-1.49-.25h-2a3.3,3.3,0,0,1-1.74-.75,2.67,2.67,0,0,0-1.74-.5,3.41,3.41,0,0,0-2,1.25c-.25.5-1.49,1-2.24,1.74A11.77,11.77,0,0,0,199,45.1s-9,7-12.93,8.21a5.67,5.67,0,0,1-2.74.25,2.61,2.61,0,0,0-1.49,0h-1.49a14.17,14.17,0,0,1-4.48,4.23A50.27,50.27,0,0,0,171.15,60c-1,.75-1,2.24-2.48,3a28.52,28.52,0,0,0-3.73,2.49s-6.72-3.49-7.22-4-.74-.5-1.74-1-.25-1.24-2.24-.75S151,61,150,61.27a6.78,6.78,0,0,0-2,1s-2.48,0-3.73,1.25a2.25,2.25,0,0,0-2.73.74,38,38,0,0,1-7,5.22,11.85,11.85,0,0,0-4.47,3.73c-.56.9-9.7,9.7-20.15,15.67-.43.25-.74-.74-1.74-.25a5.22,5.22,0,0,1-3.73.75c-2-.25-.25-1-2.49-.25s-2.23,1.49-4.22,2.49-2,1.24-3.73,1.74-2,0-3.24.25-1,1.24-2,1.74-4.72.5-6.46,2a15.6,15.6,0,0,1-5.23,1.49c-2.23.25-1.74,2-3.48,1.74s-2.24-.74-3.23-.25-1.74,2-2.49,2.24a15.41,15.41,0,0,1-2.24.5c-1.24.25-1.74-.25-2,.25s.5.74-.49,1-1.25.25-1.5,1,.5.74-.74,1-2.24.25-3.48.5a39.13,39.13,0,0,1-5.72,1c-1.5,0-1.5-.49-2.74,0s-4.48,1-4.73,1.25a12.26,12.26,0,0,1-1.49,1c-.74.5-2.48,3-3,3.24s-3.24-.5-4.23,0-7.71,2.23-7.71,2.23L4.52,119.22l-8,11.68,122.37,1.5,202.94,2.23Z" style="fill:#abc4ab"/><path d="M138.82,117.47a5.28,5.28,0,0,0,0-2c-.25-.74-.74-1-.74-1.74s.49-.49,0-1-1-1.74-1.5-2-.74-1.49-1.24-1.49-1.24-.75-1.24-.75,0-1.49-1-1.49-2-.5-3,.25-2.24,1.74-2.74,2,0,0-1.74.49-8,.5-8.7.5-3,.5-3,0a1,1,0,0,1,1.25-1c.74.25,2.73-.5,3.73-1s1.49-.5,1.74-1,0-1,0-1.25-.5-1-1-.49-1.49,1.49-2,1.49-1,.5-1.49.25,0-1.25,0-1.25l1-1,.75-1a11.19,11.19,0,0,0-2.73.75,8,8,0,0,1-3,.5c-.25,0-1.74-1.25-2.24-1.49s-1.74-1.5-2.24-1.5-1-.74-1-.74l-.75-.5s.5,1.24-.49,1.24-1-.49-1.5-.49a1.54,1.54,0,0,0-1,.24c-.5.25-.75.25-1.24.5s-.75.25-.75.5,0,1,.25,1.24-1.25.25-1.25.25a6.31,6.31,0,0,0-1.74.5c-.25.25-.25.75-1,.75s-2.74.24-2.74.24-.25-.49-1.24,0,.75,1,0,1a9.3,9.3,0,0,0-2.74.25c-.49.25-1.24.25-.74.49s1.49,0,1.24.5-.25,1.49-.5,1.49-.74,0-.25.25a1,1,0,0,1,.5,1c0,.25-.25.5-1,.74a9.21,9.21,0,0,1-2.24.5c-.5,0-1.74.75-3,1s-1.24.49-2.23.49-.25-.74,0-.74a12,12,0,0,0,1.74-.75l1.24-.74,1.24-.5.75-1.25,1.24.25.5-.25-.25-1.24s.25-.75,0-.75a5.7,5.7,0,0,1-1-.24.24.24,0,0,0-.25-.25,19.7,19.7,0,0,0-2.24,1h-2a11.18,11.18,0,0,1-2,.5c-.5,0-2,.5-2.73.5h-2l-1,.49a1.21,1.21,0,0,1,0,1,3.09,3.09,0,0,1-.5.75l-.49.49h-1l-2.24-1-3,.74-.75,1a3.58,3.58,0,0,1-1,.5,6.49,6.49,0,0,0-1.25.49h-1c-.25,0-.75.5-.75.5a11,11,0,0,1,.25,1.24c0,.25-1,0-1,0s-1.74.75-2.24,1a13.85,13.85,0,0,0-.25,1.74c0,.5.25.75,0,1s-.25.74-.5,1.49.25,2.24.25,2.73.5.75,0,.75-2.73-.25-3.23.25-2.49.5-3.48.5-.75,1.49-.75,1.49l2,1.24,82.32,3.48a7.13,7.13,0,0,0,.75-4,39.07,39.07,0,0,0-.75-4,8.82,8.82,0,0,1,.5-2.48A12.47,12.47,0,0,0,138.82,117.47Zm-30.59,9.45c-.25.5-2.49,0-2.73-.24a5.62,5.62,0,0,0-2.49-1.74c-1.49-.5-3.48-2.49-4.48-2.74a15.68,15.68,0,0,0-1.74-.5c-1.24-.25-3-.25-1.74-.74,0,0,1.24-1.25,2.24-1a2.17,2.17,0,0,0,2-.74,3.53,3.53,0,0,1,1-.75c.5-.25,1-.75,1.5-.75s-.5.75-.75,1.25a4.42,4.42,0,0,1-1.49,1.49c-.5.25-.5.5-.5.74s.5,1.25,1,1.25,0-1,1.25-1a9.43,9.43,0,0,1,2,.25c.25,0,.74,0,.74.5s.5.75,0,1a.89.89,0,0,0-.49.75,14.32,14.32,0,0,0,1.24.75c.5.25.5.74,1,1s.5,0,.75.25S108.48,126.43,108.23,126.92Zm4.73-.49c-.75-.25-.25-.5-1.25-.75s-.74-.5-1.74-.74-.74,0-1.49-.5-1.74-2.49-2.24-2.49-.5-.5-.74-.5.49,2.24,1.24,2.49a14.09,14.09,0,0,1,3,2.49c.5.49,1,.74.75,1s-3-1.24-3.23-1.74-1-1-1.5-1.49-.49-1.49-1-2a1.37,1.37,0,0,1-.5-1.24c0-.5.75-1,1-2s2-2.74,3-2.74a4.27,4.27,0,0,1-.5,2c-.49.75-.74.75-.74,1.49s-.25,1.49.25,2,1.24.75,1.74,1.25,1.24,1.24,1.74,1.24a2.5,2.5,0,0,1,2,.75,18.74,18.74,0,0,1,2.24,2C115.44,127.67,113.7,126.68,113,126.43Z" style="fill:#86ac98"/><path d="M1.18,124.13l.36,3.54s29.59-1.49,33.08-1,4-1,4-1,.25-1.74.75-2,.5,0,1,.25,0-.5.49-.25,1.25-.25,1-.74-1-.5-1-1.25v-1s-.74,1-.74-.25a5.51,5.51,0,0,1,.74-2.24c0-.25,1.5-.5.75-1s-1.49-.25-1.74-.5-.25.25-.5-.5-.5-.75-.25-1.24.25-1.5.75-1a7,7,0,0,1,1,1.49,10.23,10.23,0,0,0,1.74-1.74,2.63,2.63,0,0,1,2.24-1.24c1,0,.75-.25,1.25,0s.24,1-.25,1.24-.75.25-1,.5a1.3,1.3,0,0,0-.5,1c0,.49,0,.24.5.49s.5.5.25.75-1,0-1,.5-.25.74.24.74.25.25,1-.25a6.43,6.43,0,0,1,1.74-1c.75-.25,1.49-.25,1.74-.75s0-.49.5-1.24.25-.75,1.49-1.49.25-1,1-2,.49-1.25,1.24-1.49,1.24.74,2,0a3,3,0,0,1,2-1c.5,0,1.24,0,1.49-.25s1.49-2,2.24-1.49A13.44,13.44,0,0,0,63.46,108a6.36,6.36,0,0,0,4.73-1c2-1.24,1.49-2.24,4-2.24s0,.5,2.49.25a9.54,9.54,0,0,0,4.22-1.24c1.75-.75,1.75-1,3.24-1s.74-1.24,2-1.49,2.73,1.24,5.22,0,3-2.49,3.73-2.74a3.72,3.72,0,0,1,2.49-.49c1.24.24,1.24.74,3.23.49s-.25-.25,1.74-.49,1.25.74,2.24-.75,1.49-1.24,1.49-2-.25-.25-1-1-.25-.74-.75-1.49-1,.5-.74-.74c.13-.7,1.58-1.85,2.24-2.83-1.19-.29,0-.83-2-.16-2.23.75-2.23,1.49-4.22,2.49s-2,1.24-3.73,1.74-2,0-3.24.25-1,1.24-2,1.74-4.72.5-6.46,2a15.6,15.6,0,0,1-5.23,1.49c-2.23.25-1.74,2-3.48,1.74s-2.24-.74-3.23-.25-1.74,2-2.49,2.24a15.41,15.41,0,0,1-2.24.5c-1.24.25-1.74-.25-2,.25s.5.74-.49,1-1.25.25-1.5,1,.5.74-.74,1-2.24.25-3.48.5a39.13,39.13,0,0,1-5.72,1c-1.5,0-1.5-.49-2.74,0s-4.48,1-4.73,1.25a12.26,12.26,0,0,1-1.49,1c-.74.5-2.48,3-3,3.24s-3.24-.5-4.23,0-7.71,2.23-7.71,2.23L4.52,119.22Z" style="fill:#86ac98"/><path d="M142.43,101.43s-.75.75-.5,1.49a2.05,2.05,0,0,1-.25,1.75c-.25.49-1.24,1.49-1,2s-1,1-.75,1.49-2.49-1-3.48-1.25a7.41,7.41,0,0,1-1.49-.49s.49.74-.5.74-.75-.74-1.74-1-2-.75-2.49-.5-.25,1-1.24,1-1,0-2.49-1-2-1.74-3.23-2-2.24-.75-2.24-1.49-.5,0,.5-1,2,0,3-1-.25-1.74,1.25-2a13.21,13.21,0,0,1,4.47,0c.75.25,1.62,1.62,3.36,2.11s2.24,0,3,.25a9.91,9.91,0,0,1,1.74.5,3.89,3.89,0,0,0,2.24.25C141.06,101.31,142.43,101.43,142.43,101.43Z" style="fill:#86ac98"/><path d="M111.34,98.45a11.77,11.77,0,0,0,1.24,1.49,2.66,2.66,0,0,1,1,1.49c.25.75.5,1.49,1.24,1.49a3.54,3.54,0,0,0,1.74-.49c.5-.25.25-1,1-1.25s.74-.74,1.49-1.24,2.24-.25,1-.75-2.48,0-2.73-.74a2.71,2.71,0,0,0-1-1.25c-.24-.24-2.48.75-3,1S112.34,97.7,111.34,98.45Z" style="fill:#86ac98"/><path d="M146.16,102.92a20,20,0,0,0,1.24,2.49c.75,1.25,2.49,1.74,3.73,2.74s3,4,4.23,5,0,.75-.25,2,0,1,.25,1.49a36.6,36.6,0,0,0,5.47,5c1,.5.5.5,3.73,2.48a10.29,10.29,0,0,1,4.23,5l17.29.12,28.35-2.24s1.74-.74,2-1.49-1-2.24-1-2.24l1.25-4s-1.74-1.5-2.49-2,.25-2.49.25-4-1.49-1.5-2.49-2-.75-1.74.25-3.73a4.83,4.83,0,0,0,0-4s-1.24,1.74-1.49,2.24-2.24,1.49-5.47,3-2.24,1.74-3,2.24.75,7-1,1.74-.75-2.49-1.5-3.73.25-1.25.25-3a13.44,13.44,0,0,0-1-5c-.5-1,.74-2.74,1-3.48s.75-4.23,1.74-5.72,2.74-3.73,4.48-4.23,1-1.74,1.49-3A20.61,20.61,0,0,1,210,80.91c.25-.24.25-2.48.25-3.48s1.49-3.23,2.49-4.47.25-1,.74-2a11.17,11.17,0,0,1,2.49-2.49s3,1,4.23,2.49.5.49,1,.74.25,1.49.75,2.74a5.78,5.78,0,0,1,.5,2.73v4c0,1.25.49,3.24.49,4a21.58,21.58,0,0,0,1,5.23c.74,2.48,1.24,2.48,1.24,3.48s1.49,2.24,1.74,5.47,1.74,4.48,1.74,4.48.75,1.74,1.25,1.74,1.74,1.74,2,2.73,1,1.49,2.48,3.73,0,0,.75,1a10.46,10.46,0,0,1,1.49,2.24c1,1.74-.5,1.74-.5,1.74l2.74,6.21-.5,4s2.24.5,3.24,0,1.49,0,1.49,0a10.17,10.17,0,0,0,2.24.5,1.15,1.15,0,0,0,1.24-.75c.25-.49,0-1.49.25-3.23a5.12,5.12,0,0,0-.75-3.23s1.74.5,2.24.74,3,1.25,3,1.25a32,32,0,0,1,0,5c-.25,1.74,1.74.25,2,0s1-.25,1.49-1,0-1.25,0-2,1.49-.5,1.74-.75a3.88,3.88,0,0,0,1-2.49c0-1.24,1.25-2.48,2-3s1.74-1.24,1.74-1.24l.75-2a6.37,6.37,0,0,1,.75-1.74c.49-.75,1.49-1.5,1.49-2.49a19.12,19.12,0,0,0-.25-2.24c0-.25-2.24-.75-2.74-.75s-1.74-.24-2.23-.24-1.75-.25-2.24-.25a32.41,32.41,0,0,0-3.73,1.24,25.29,25.29,0,0,0-2,2.74c-.75,1.24-.25,1.74.25,3.73s-.25,1.49-1.25,2.24a2.5,2.5,0,0,1-2.24.24s-3.48-1-4-1.74,0-3.23,0-4-3.73.5-3.73.5-1-2.24-.74-3.48-.75-2.24-1-3-2.24-1.75-2.73-3.24-2.24-1.24-2.74-2.73.75-2.24,1.25-3a16.51,16.51,0,0,0,1.24-4.47c.25-1.5,1.49-3,1.74-4.48s-.5-3.73-1-5.22-2-2.49-2-1.75.24.75.49,2.49a13.08,13.08,0,0,1,.25,3c0,1.49-1.24,3.23-1,5s-3.24,5.22-3.24,5.22a6.05,6.05,0,0,1-2.73-1c-.75-.75,0-2-.75-2.49s-2.24-6.71-2.49-11.44-.49-1.49-.49-1.49-1-4.73-1.25-7.71,0-2,.75-5.22-.25-2-.25-3.24.5-3.23.5-4.47-1.49-2-3.23-1.25a16.11,16.11,0,0,1-4,1.25c-.5,0-1.25,1.24-1.25,2.23s1.74,2.24.5,3.24-3-.25-4.48.25-1,2.48-1.24,4,0,1,0,2.48a5.63,5.63,0,0,1-1.24,3l-1.25,1a1.88,1.88,0,0,1-.74.75c-.5.25-.75,2.49-.75,2.49A17.92,17.92,0,0,1,205,83.4c-.75,1.25-1.25-.25-2.24,0s-.25.75-1.49,2.24-1.74,2.49-2.49,3.23-1.24,2-2.74,3.49-.25.74-.49,3-.5,1-1.5,3.48,0,0,0,2.24a38.63,38.63,0,0,1-1,6.71c-.25,1.25,0,.75.75,1.75a6.15,6.15,0,0,1,.74,3,7.34,7.34,0,0,1-2.24,2.24,2.94,2.94,0,0,0-1.22,1.52,3.46,3.46,0,0,0-.27-.78,19.52,19.52,0,0,1-1-2.73,15.79,15.79,0,0,1,0-3.48c.24-.75-.25-.75-.75-1.74s-.25-3-1.49-2.74,0,.75-.25,1.74-.25,2.74-.5,4,.5,1.74.5,2.74a25.36,25.36,0,0,1-.25,4.22c-.25,1.25-3.73,5-3.73,5a10.51,10.51,0,0,1-.5-1.25,6.68,6.68,0,0,1,0-2.23c0-.75-1.49-1.5-2.73-2.24s-1-1.49-1-1.49a12.69,12.69,0,0,0-.25-2.49c-.25-1,1-3,1.25-3.48s-1.25-1.25-2.74-.75-1,3.48-1.74,4.23a7.36,7.36,0,0,1-2.49,1.24l-1.24-1a6.5,6.5,0,0,1,.25-1.74.91.91,0,0,0-.5-1.25c-.25,0-.75-1.24-.75-1.24l-1.24-1.49-2.73,2.48-3.49-.24-1.24-2.74-2-2,3.23-4.23,3-2.73.74-1.25,2.49-1.24,1.49-.75,3.49-1.74,2.23-1,1-1,.5-1.49s1.24-1,1.74-1.49a3,3,0,0,1,1.74-.5l2.48-2.24s3-3.23,4.23-3.48.5.5,1,.75,0,3,0,3l1-1.24c1-1.25,0-2,0-2s-.5-2.74-.74-3.48,0-4.23.74-5.23S192,73,192.79,72s1.74-3,3-3.48,1.25-.75,2.24.75,0,.49-.49,2.73-1.75,2-2,3.48a19.51,19.51,0,0,1-.5,3.49,21.31,21.31,0,0,0-.5,6.21c0,3,.5,5.23,1.74,5s1.25-1.5,1.25-2.74.74-1.74,1-3.23,1-4.48,1.49-5,.25-2.23.5-3a50.79,50.79,0,0,1,2-4.73c.75-1.49,1.49-.74,2.24-1.24s.25-.75.25-1.24,1.49-1.74,2.24-2.74.49-1.24.49-2,1-1.74,1.49-2,.5-2,.5-2A5.06,5.06,0,0,1,211,57c1.24-1.24,2.23-6.22,2.23-6.22s.25-1.49,0-1.74.5-2,1-1.74.25.5.75,1.49a3.6,3.6,0,0,1,.24,3.24c-.49,1.49.5,1.74.5,2.73S216.91,56,216.91,56l1.25,1.75s1.24-.25,1.24-1.25,1-3.48,1-5,.49-.75.74-1.49a6,6,0,0,0,.5-2.24c0-1,0-.5-.5-1.25s.25-1.74,0-2.23-.74,0-1.49-.5-1-.75-1.49-.75h-1.74c-.3,0-.5-.69-.62-1.26a2.24,2.24,0,0,1-.63.27c-.59.2-.24.24-.58.37l.09.87h-2.24c-1,0-1,.5-1.74,1s-.75-.25,0-1a2.66,2.66,0,0,0,.62-1.27,2.76,2.76,0,0,0-1.37-.22h-2a1.92,1.92,0,0,1-.82-.21,4.79,4.79,0,0,0-.17,2.2c0,1-.75,1.49-1.25,1.24s-.25-1-.25-1.74-.49-1.24-.49-1.49a12.13,12.13,0,0,0-.41-1.24h-.09a3.41,3.41,0,0,0-2,1.25c-.25.5-1.49,1-2.24,1.74A11.77,11.77,0,0,0,199,45.1s-9,7-12.93,8.21a5.67,5.67,0,0,1-2.74.25,2.61,2.61,0,0,0-1.49,0h-1.49a14.17,14.17,0,0,1-4.48,4.23A50.27,50.27,0,0,0,171.15,60c-1,.75-1,2.24-2.48,3a26.59,26.59,0,0,0-3.48,2.29,25.71,25.71,0,0,1,2,2.18,28.21,28.21,0,0,0,1.75,2.24c1,1.25.74.5,2,1s2,.25,1.75,1.24a22.57,22.57,0,0,1-2.49,4,2.27,2.27,0,0,1,2.36.87c.75,1.24,0,1,.75,2S172.52,80,172,81.29,171.28,84,170.28,85s-2.24,2.24-5.22,5.72-1.49.25-3.73,2.24a44.27,44.27,0,0,1-4.48,3.48C154.86,98,146.16,102.92,146.16,102.92Z" style="fill:#86ac98"/><path d="M122.9,86.63c1.5,0,1.75-1,2.74-1s1,.5,2.74.75,4-1.25,5.72-1.25,2.23.5,3.48.25,1-3.48,3.23-4,3.73-.25,4.48.25,1.74-.5,2.24-1.49.49-8.46,1.24-10-.25-3.48,0-4.72-.5-3,1-3.24,2,0,2.24.5l.25.5s.75-1.25,1-1.74c.16-.32.11-1.15.58-1.77l-.09,0c-2,.5-2.73,1.25-3.73,1.5a6.78,6.78,0,0,0-2,1s-2.48,0-3.73,1.25a2.25,2.25,0,0,0-2.73.74,38,38,0,0,1-7,5.22,11.85,11.85,0,0,0-4.47,3.73c-.56.9-9.7,9.7-20.15,15.67a12.75,12.75,0,0,0,4.23,2.49c2,.5.25,1,2.74.75s.24-1.5,1.74-3S121.41,86.63,122.9,86.63Z" style="fill:#91b19b"/><path d="M241.41,60.4c-.5-1.5-.5-1-.5-1.74s.5-1.25-.49-1.75-.5-.49-1.5-1-.24-.75-1-.5.25,1-.75.75-1-.25-1-.5.25-.25.25-1,.5-.25,0-1.25a7.89,7.89,0,0,1-.75-1.49,14.28,14.28,0,0,1-1.49-3.73c-.25-1.74.5-.5-.25-2s-.5-2-.75-2.24-.74.5-.74-.74a3.59,3.59,0,0,0-.65-1.72c-.51.45-1.18,1.09-1.71,1.09-.75,0-.5-1.49-1.25-1.24l-.74.25-.5.25a4.09,4.09,0,0,0-1.49-.75,4.54,4.54,0,0,1-1.74-.5c-.5-.24,0-.74-1.25-.49a7.16,7.16,0,0,0-2.92,1.18,2.91,2.91,0,0,1,.56,1.18c0,.75,1,.5,2,2.24a22.64,22.64,0,0,0,1.51,2.54c-.49-.1-.92-.15-1-.05-.25.24.25,1.24,0,1.74a6.85,6.85,0,0,0-.25,2.48v1.5c0,1-.75.74,0,1.49a6.58,6.58,0,0,0,1.49,1.24c.75.5-.75-2.73-.25-3a1,1,0,0,1,1.49.49,14,14,0,0,0,1,3c.5.74.25,1,.74,1s1.25-.49,1.25.5S230,59.4,230,59.4a1.08,1.08,0,0,1-.25-.74c0-.5.25-2-.25-2.49s0-.75-.24-1.74-.5-.75-.5-1.49c0-.5,0-1.27-.08-1.73.51.59.92,1.07,1.07,1.23.5.5,1,.5,1.74,1.74s1.25.75,1.5,1.49-.5,1.24.24,2.74.75,2,1.5,2.24.74,0,1,.49a14.67,14.67,0,0,0,2,2,3.82,3.82,0,0,1-.74-1.74c0-.74.49-.5,0-1.24s-1.25-1.25-1.25-1.74.25-.75.5-1.25.5-.74.75-.25a3.16,3.16,0,0,0,1.24,1.75c1,.74,1.49.74,1.74,1.49a6,6,0,0,0,1.49,2.24c.75.74,1.49,1.24,1.74,1.49S241.91,61.89,241.41,60.4Z" style="fill:#86ac98"/><path d="M259.94,125.18a10.7,10.7,0,0,1,4.23-1c2.24,0,4.23.75,5.22,0s1-.5,2.24-1.49-.5-1.74,3.23-1.74,6.22-.25,7-.75,2.23-.25,2.48-1.74,1.74-1,.5-2.74-.5-2.24-1.74-2.48-1-2.24-3.48-3.49-1.74-1.24-3.48-2.23-1.25-1.25-2.74-2.49-8.7-6.47-12.43-10-5.48-4.48-8-7.21-3-.5-4.23-5-1.49-4.22-3.73-8.45-4.23-3.73-4.48-6.22-1.24-3,.25-2.49S243.28,68.48,244,69s1.25,2,2.24,2-.5,2,3,3.23,1.49,1.74,2.73,3.48,3.73,3.23,4.73,4.23a33,33,0,0,0,6,3.73,62.66,62.66,0,0,1,8.45,6c2.24,2,7,4.23,9,5s5.47,2.49,9.69,4,0-.74-2.73-2.24-1-2.23-3.23-2.73-8-4.23-9.45-5.72-2.74-3.48-4.73-5.22a8.71,8.71,0,0,1-3-3.74c-1.25-2.23-1.75-3.73-.25-3.23s1.49,3.73,3,4.48,6,4,7.21,4.23a4.62,4.62,0,0,1,3.24,2,19.52,19.52,0,0,0,6.46,4.47c2.74,1.25,5.72,4,8.71,4.73s2,.5,4.47,1.74,6.47,2.24,7.71,3,4.73,1,5.23,2.24,11.93,4,11.93,4l.5,20.89s-9.45-14.67-12.68-14.92-4-1-8.21-2.24-7.71-3-9.2-3.48-3.73-.25-6.22-2.74-11.19-6.71-11.94-7.21,5.72,3.73,7.22,5.47a19.27,19.27,0,0,0,6.46,4.23c1.49.5,5.22,3.73,8,4.23s3,0,6,2.49,6,3.23,8,5,4.23,4.23,3.73,4.73-11.19-5.72-14.67-7-2.74-1-6.22-2.24-6.72-4.47-9-5.22,2.24,2.49,4.23,5,3.24,2,3.48,4.23-1.49,2.24-.74,4.73,1.61,5.34-.87,5.84-16.29-.62-20-.37-9.45,1.74-11.94.25S259.94,125.18,259.94,125.18Z" style="fill:#86ac98"/><path d="M403.56,128.29s-86.51-.49-107.15-1-37.33-1.49-44.62-.5-44-.5-54.33.5-3.64-1.25-34.91-1.25-54,1.5-65.26,1-30.35,2-39.76,2-47.66.5-56.46.5H-10.77L-15,222.8l423.13-3.48Z" style="fill:#698b87"/><polygon points="362.58 172.72 335.84 13.72 326.44 67.2 332.95 62.15 326.44 74.43 306.93 174.17 362.58 172.72" style="fill:#283c3f"/><polygon points="79.83 227.33 53.09 68.33 43.69 121.81 50.2 116.75 43.69 129.03 24.18 228.77 79.83 227.33" style="fill:#283c3f"/><path d="M59.43,203.15s7.78-7.77,9.13-9,2.8-4.27,1.88-4.64-10.3,7.28-10.3,7.28l2.75-13.47,6.78-6.88-5.49,1.56.59-4.4s8.68-11.83,9.39-13.06.42-1.56.42-1.56l-7,5.91,3-12.51s5.2-7,4.58-7.33-3.63,2.31-3.63,2.31l3.75-18.06L80.16,107l6.33,42.44s-2.85-2.85-3.48-2.53,4.12,7.6,4.12,7.6l2.22,12.67-6.66-6.33s-.31.31.32,1.58,8.55,13.62,8.55,13.62l.32,4.43-5.39-1.9,6.34,7.29,1.9,13.62s-8.87-8.24-9.82-7.92.32,3.49,1.58,4.75,8.56,9.51,8.56,9.51L97,229l-39.6-1.27Z" style="fill:#355151"/><path d="M335.42,150.23s7.79-7.76,9.13-8.95,2.81-4.26,1.88-4.64-10.3,7.29-10.3,7.29l2.75-13.48,6.78-6.87-5.49,1.56.59-4.41s8.68-11.83,9.39-13,.42-1.57.42-1.57l-7,5.91,3-12.51s5.2-7,4.59-7.33-3.64,2.32-3.64,2.32l3.75-18.07,4.91-22.33,6.34,42.45S359.64,93.7,359,94s4.12,7.61,4.12,7.61l2.22,12.67L358.69,108s-.32.32.31,1.58,8.56,13.63,8.56,13.63l.31,4.43-5.38-1.9,6.33,7.28,1.9,13.63s-8.87-8.24-9.82-7.92.32,3.48,1.59,4.75,8.55,9.5,8.55,9.5l1.9,23.12-39.59-1.26Z" style="fill:#355151"/><path d="M241.54,127.17s2.52,86.71,73.47,90.09c12.39.57-46-9.57-46-9.57s-67,6.19-85,.56,6.1-79.13,13.47-80.95S241.54,127.17,241.54,127.17Z" style="fill:#3a3f49"/><path d="M217,151l-9,.56c.73-10,1.5-15.08,1.94-25.21l9,.39C218.51,136.5,217.74,141.37,217,151Z" style="fill:#fff"/><path d="M218.82,184.21,210,186.08c-2.53-9.78-2.74-14.73-2.51-24.71l9-.93C216.19,170,216.36,174.8,218.82,184.21Z" style="fill:#fff"/><path d="M232.08,216.28l-8.45,3.13c-4.55-9.37-7.06-14.14-10.62-23.82l8.73-2.23C225.2,202.67,227.66,207.27,232.08,216.28Z" style="fill:#fff"/><path d="M92.76,237.16l-8.64,1.3L56.36,35.58a1.64,1.64,0,0,1,1.37-1.84h0a1.64,1.64,0,0,1,1.86,1.35Z" style="fill:#0b0915"/><polygon points="62.7 52.77 58.59 53.39 45.61 46.09 72.95 41.97 62.7 52.77" style="fill:#0b0915"/><path d="M104.8,221.76l-8.38,2.47L41,27.1a1.62,1.62,0,0,1,1.1-2h0a1.63,1.63,0,0,1,2,1.08Z" style="fill:#0b0915"/><polygon points="49.64 43.26 45.65 44.44 31.79 38.99 58.31 31.15 49.64 43.26" style="fill:#0b0915"/><path d="M163.91,143.57s4.56,67.47-.22,99.06c0,0-37.14,13-94,6-3-.5,4.48,18,4.48,18S58.74,271.55,57.74,273s-8-7.48-11-28.92S28.32,108.5,86.16,92c5-4,57.84,0,57.84,0s28.64,1,53,33c1.84,2.41,3.56,4.9,6,6.69L252.64,78l10,8c-.19.08-33.52,50.76-46.19,70.9a10.85,10.85,0,0,1-13.65,4.12Z" style="fill:#ef1e32"/><path d="M163.91,143.57s4.56,67.47-.22,99.06c0,0-37.14,13-94,6-3-.5,4.48,18,4.48,18S58.74,271.55,57.74,273s-8-7.48-11-28.92S28.32,108.5,86.16,92c5-4,57.84,0,57.84,0s28.64,1,53,33c1.84,2.41,3.56,4.9,6,6.69L252.64,78l10,8c-.19.08-33.52,50.76-46.19,70.9a10.85,10.85,0,0,1-13.65,4.12Z" style="opacity:0.5;fill:url(#h)"/><polygon points="141.37 66.7 139.77 95.73 134.6 105.7 98.45 108.2 84.02 99.65 83.21 85.76 81.43 57.18 122.18 52.27 141.37 66.7" style="fill:#fdccaa"/><path d="M90.61,65.65a2.73,2.73,0,0,1,1-.29c.39,0,.75,0,1.15,0a23.54,23.54,0,0,0,3-.07,6.17,6.17,0,0,1,1.11-.12,3.69,3.69,0,0,0,.87-.07c.68-.1,1.33.1,2,0,.42-.08.79,0,1.22,0s1,0,1.49-.1a2.81,2.81,0,0,1,1.89.59c.35.23.49.25.57.67.06.26.09.54.13.8.07.44.14.88.22,1.32a4.38,4.38,0,0,1,.1.81,2,2,0,0,1-.54,1.14A4.59,4.59,0,0,1,101,71.79c-1.29,0-2.56,0-3.85-.05a9.55,9.55,0,0,1-1.31,0,9.26,9.26,0,0,0-1.54-.35c-.75,0-1.37-.28-2.11-.34s-1.36-.21-2-.31a5.35,5.35,0,0,1-2.06-.62A3.63,3.63,0,0,1,87,68.21,1.9,1.9,0,0,1,87.58,66a3.28,3.28,0,0,1,2.76-.14" style="fill:#0b0915"/><path d="M93,78.12c1.65-2.12,4.42-1.52,6.36-.18.28.2.55-.27.27-.47-2.12-1.46-5.21-2-7,.27-.21.27.17.66.38.38Z"/><path d="M96.34,75.26c.24.24-.27.56-.44.6-.35.09-.34-.44-.38-.68-.06-.4-.09-.46.3-.52s.58,0,.69.35a1.65,1.65,0,0,1,.1.44c0,.4-.2.29-.25.08a.21.21,0,1,1,.42,0,.5.5,0,0,1-.82.31.83.83,0,0,1-.13-.18l-.06-.12c0-.15-.09-.11-.18.14.48-.18.27-1-.21-.78-.64.25-.44.91-.12,1.34a1.29,1.29,0,0,0,1.85.23,1.22,1.22,0,0,0,.19-1.74,1.18,1.18,0,0,0-1.7.34,1.14,1.14,0,0,0,.86,1.52c1,0,1-1.1.82-1.75-.23-.82-.81-1-1.63-.91s-1,.64-.91,1.44a1.75,1.75,0,0,0,.46,1.2,1,1,0,0,0,1.19,0,1.5,1.5,0,0,0,.74-.73,1.07,1.07,0,0,0-.23-1.09.4.4,0,0,0-.56.57Z"/><path d="M134.05,65.65a2.78,2.78,0,0,0-1-.29c-.39,0-.75,0-1.15,0a23.54,23.54,0,0,1-3-.07,6,6,0,0,0-1.11-.12,3.69,3.69,0,0,1-.87-.07c-.68-.1-1.33.1-2,0-.42-.08-.79,0-1.22,0s-1,0-1.48-.1a2.82,2.82,0,0,0-1.9.59c-.35.23-.49.25-.57.67,0,.26-.08.54-.13.8l-.21,1.32a4.39,4.39,0,0,0-.11.81,2,2,0,0,0,.54,1.14,4.61,4.61,0,0,0,3.84,1.56c1.28,0,2.55,0,3.84-.05a9.55,9.55,0,0,0,1.31,0,9.37,9.37,0,0,1,1.55-.35c.74,0,1.36-.28,2.1-.34s1.36-.21,2-.31a5.3,5.3,0,0,0,2.06-.62,3.63,3.63,0,0,0,1.18-1.88,1.91,1.91,0,0,0-.61-2.22,3.31,3.31,0,0,0-2.77-.14" style="fill:#0b0915"/><path d="M129.05,77.74c-1.8-2.32-4.89-1.73-7-.27-.28.2,0,.67.28.47,1.93-1.34,4.7-1.94,6.35.18.21.28.59-.11.38-.38Z"/><path d="M124.75,74.69c-1.21,1.2,1.54,3,2.06,1.25.17-.61.37-1.62-.34-1.94a1.58,1.58,0,0,0-1.88.27,1.64,1.64,0,0,0,0,2.08c.65.5,1.41-.13,1.48-.84a1,1,0,1,0-1.91.52,1.3,1.3,0,0,0,2.08.29c.4-.41.67-1.21,0-1.47-.48-.18-.69.6-.21.78-.09-.25-.15-.29-.18-.14l0,.08a1.43,1.43,0,0,1-.14.2.48.48,0,0,1-.81-.23c-.08-.42.48-.32.4,0s-.22.37-.25-.08a1.57,1.57,0,0,1,.1-.44c.11-.37.34-.41.69-.35s.35.09.31.45c0,.2,0,.76-.29.79s-.77-.41-.54-.64a.4.4,0,0,0-.56-.57Z"/><path d="M84.15,64.72s0,.16,0,.45c.19,5.21,1.49,27.31,5.27,31.14,2.84,2.88,6.44,3.46,10.31,3.09a198.65,198.65,0,0,1,21.68-1q3.06,0,6.12.2c3.45.18,7.4.26,9.73-2.28a9.75,9.75,0,0,0,2.07-5.39c.49-3.51.39-23.12-.27-26.6a6.53,6.53,0,0,1,3,3c.58,1.61-.08,19.56-.12,21.22a27.45,27.45,0,0,0,.74,6.75c1,4.41,2.67,8.62,4,12.94A67.93,67.93,0,0,1,149.41,124a19.29,19.29,0,0,1-.48,6.48c-.85,2.92-4.18,8.65-7.93,7.82a3.34,3.34,0,0,1-2.87-3.6s.9,7.38-3.78,8.1-4-4-5-4.32-1.8,5.76-5,7.56-5.75,1.08-6.11-2.88-.72-2.52-1.44-1.44,1.44,9.36-6.12,7.2c-4.68-1.44-4.68-7.2-4.68-7.2a14.9,14.9,0,0,1-1.08,4c-1.07,2.06-5.73,1.21-7.91-4-.6-1.41-1.8-4.32-1.8-4.32s-.72,5-1.8,5.4-5.76-4-6.12-4.68-2.13-5.33-2.16-5.39c.52,1.33-.18,4.52-1.87,4.45-2.32-.09-4-5.95-4.64-7.71a34.63,34.63,0,0,1-.7-20.74c1.12-3.94,2.94-7.66,3.89-11.63.69-2.89-.68-24.6-1.08-27.54C80.19,66.13,82.09,67.41,84.15,64.72Z" style="fill:#3a3f49"/><path d="M84.43,64.78s0,.16,0,.45c.19,5.26,1.5,27.54,5.31,31.41,2.86,2.9,6.49,3.48,10.4,3.11a199.44,199.44,0,0,1,21.86-1q3.09,0,6.18.2c3.47.17,7.46.26,9.81-2.31a9.87,9.87,0,0,0,2.09-5.43c.48-3.53.39-23.32-.28-26.82,1.24.76,2.57,1.62,3.06,3,.58,1.62-.08,19.73-.13,21.4a28.3,28.3,0,0,0,.75,6.8c1,4.45,2.7,8.7,4,13.06a68,68,0,0,1,2.76,16,19.61,19.61,0,0,1-.48,6.53c-.86,2.94-4.22,8.73-8,7.89a3.37,3.37,0,0,1-2.9-3.63s.91,7.44-3.81,8.16-4-4-5.08-4.35-1.81,5.8-5.08,7.62-5.81,1.09-6.17-2.9-.72-2.54-1.45-1.46,1.45,9.44-6.17,7.26c-4.72-1.45-4.72-7.26-4.72-7.26a14.9,14.9,0,0,1-1.09,4c-1.08,2.07-5.77,1.22-8-4-.6-1.41-1.81-4.35-1.81-4.35s-.73,5.08-1.82,5.44-5.8-4-6.17-4.72-2.15-5.37-2.17-5.44c.51,1.35-.19,4.56-1.9,4.49-2.33-.09-4.06-6-4.68-7.77a35,35,0,0,1-.69-20.92c1.12-4,3-7.72,3.92-11.73.7-2.91-.69-24.81-1.09-27.77C80.43,66.2,82.35,67.49,84.43,64.78Z" style="opacity:0.1;fill:url(#i)"/><path d="M112.4,95.86s8.07-10.55,21.11,3.73c3.1,1.24,5,5,8.07,3.73s1.87,7.45-17.39,7.45c-3.53.87-9.84-5.46-11.79-9.32-.63-1.24-9.94,15.53-28.57,7.46-2.48,0-3.73-4.35-3.73-4.35s5,.62,7.46-1.24S99.35,84.69,112.4,95.86Z" style="fill:#3a3f49"/><path d="M107,95.91a5.18,5.18,0,0,1-.75-3.74c.38-2.24,2.25-5.61,2.25-8.23s1.5-6.74,2.62-7.12,3.37,1.5,3.37,3.37a35.83,35.83,0,0,0,1.12,7.12c.37,1.12,1.87,7.48,1.12,8.6s-3.37,0-3.37,0-.74,1.88-1.49,1.88-2.25-1.5-2.25-1.5A2.28,2.28,0,0,1,107,95.91Z" style="fill:#b98f6e"/><path d="M69.55,249.87c-3.15-24.46-5.26-50-2.52-74.59.07-.61-.87-.6-.94,0-2.74,24.56-.63,50.13,2.51,74.59.08.59,1,.6,1,0Z"/><path d="M161.91,249.87c3.15-24.46,5.26-50,2.52-74.59-.07-.6-1-.61-1,0,2.75,24.56.63,50.13-2.51,74.59-.08.6.87.59.94,0Z"/><path d="M115.71,145.62c1.17,2.19,1.19,5.49,1.6,7.9.51,2.95,1.34,5.8,1.68,8.77.53,4.53,1.28,9,1.52,13.57.27,5.42-.75,10.47-1.6,15.78-1.45,9.14-.4,18.08-.18,27.27.25,10.87,1.93,21.64,2.16,32.48a.47.47,0,0,0,.94,0c-.45-21.66-4.84-43.16-1.15-64.73,1.49-8.67.65-17.6-.81-26.23-.49-2.85-1.38-5.65-1.88-8.52-.36-2.11-.44-4.84-1.47-6.76-.28-.54-1.1-.06-.81.47Z"/><path d="M138.08,71.28a27,27,0,0,0-13.88-2.52c-2.48.11-5.19.55-7.22,2.1a6.28,6.28,0,0,0-2.4,4.23,4.6,4.6,0,0,0-6-.12s0,.37,0,.83c0-.36-.05-.73-.1-1.07a6.3,6.3,0,0,0-2.4-4.24c-2-1.55-4.74-2-7.23-2.09A26.86,26.86,0,0,0,84.9,70.91c-1.82.88-1.88,2.71-1.5,4.57.21,1.1,2.51,2.3,2.52,2.3a15.62,15.62,0,0,1,.29,2.32A14.51,14.51,0,0,0,88,85c2.79,4.55,8.84,5.26,13.55,3.6A9.6,9.6,0,0,0,106.14,85a15.31,15.31,0,0,0,2.36-7.38s0,0,0-.14c2.52-2.78,5.33-.62,5.93-.11a15.52,15.52,0,0,0,2.38,8A9.64,9.64,0,0,0,121.42,89c4.71,1.66,10.76,1,13.55-3.61a14.59,14.59,0,0,0,1.81-4.88,14.4,14.4,0,0,1,.29-2.32s2.3-1.21,2.52-2.3C140,74,139.91,72.15,138.08,71.28ZM91.74,86.63a9.6,9.6,0,0,1-3.89-5.35c-.78-2.46-1.63-6.68.26-8.86,1.25-1.45,3.36-2,5.17-2.28a41.14,41.14,0,0,1,9.08,0c5,.28,4.93,5.81,5,7.34C108,85.47,98.32,90.74,91.74,86.63Zm43.4-5A9.65,9.65,0,0,1,131.25,87c-6.58,4.11-16.24-1.16-15.66-9.18.11-1.53,0-7.06,5-7.34a41.05,41.05,0,0,1,9.07,0c1.81.3,3.93.83,5.18,2.28C136.76,75,135.92,79.19,135.14,81.65Z" style="fill:#005d6d"/><path d="M79.69,60.25s0-27.09,25.83-27.09c6.93-1.26,35.91-1.89,35.91,22.68C140.8,61.51,79.69,60.25,79.69,60.25Z" style="fill:#3e292f"/><path d="M80.32,70.33s27.09-18.9,61.11,0c5,2.52.63-13.86,0-14.49s-36.54-19.53-61.11,4.41C78.43,61.51,80.32,70.33,80.32,70.33Z" style="fill:#3e292f"/><path d="M80.07,69.89s27.09-18.9,61.11,0c5,2.52.63-13.86,0-14.49s-36.54-19.53-61.11,4.41C78.18,61.07,80.07,69.89,80.07,69.89Z" style="fill:url(#j)"/><path d="M114.2,163.06c-1.21,1.2,1.54,3,2.06,1.25.17-.61.37-1.62-.34-1.94a1.58,1.58,0,0,0-1.88.27c-.39.57-.55,1.61,0,2.07s1.41-.13,1.48-.83a1,1,0,1,0-1.91.52,1.3,1.3,0,0,0,2.08.29c.4-.41.67-1.21,0-1.47-.48-.18-.69.6-.21.78-.09-.25-.15-.3-.18-.14l0,.08a1.43,1.43,0,0,1-.14.2.48.48,0,0,1-.81-.23c-.08-.42.48-.32.4,0s-.22.37-.25-.08a1.57,1.57,0,0,1,.1-.44c.11-.37.34-.41.69-.36s.35.1.31.45,0,.77-.3.8-.76-.42-.53-.64c.37-.37-.2-.94-.56-.57Z"/><path d="M114.79,180.1c-1.2,1.2,1.55,3,2.06,1.24.17-.6.37-1.61-.33-1.93a1.58,1.58,0,0,0-1.89.27,1.63,1.63,0,0,0,.06,2.07c.64.5,1.4-.13,1.48-.83a1,1,0,1,0-1.92.52,1.31,1.31,0,0,0,2.08.29c.4-.41.68-1.21,0-1.47-.49-.18-.7.59-.22.77-.08-.24-.14-.29-.17-.13l-.05.08a2.26,2.26,0,0,1-.13.2.49.49,0,0,1-.82-.23c-.07-.42.49-.32.41,0s-.23.37-.25-.08a1.71,1.71,0,0,1,.09-.45c.11-.36.34-.4.7-.35s.35.1.31.45,0,.77-.3.8-.76-.42-.53-.65a.4.4,0,0,0-.57-.56Z"/><path d="M113.74,193.21c-1.2,1.21,1.55,3,2.06,1.25.18-.61.38-1.61-.33-1.94a1.59,1.59,0,0,0-1.89.28,1.64,1.64,0,0,0,.06,2.07c.65.5,1.41-.13,1.48-.84a1,1,0,0,0-1.35-1,1,1,0,0,0-.56,1.54,1.3,1.3,0,0,0,2.07.3c.4-.42.68-1.21,0-1.47-.48-.18-.69.59-.21.77-.09-.24-.15-.29-.18-.14l0,.09c-.06.06-.08.14-.14.2a.48.48,0,0,1-.81-.23c-.08-.43.48-.33.4,0s-.23.37-.25-.09a1.4,1.4,0,0,1,.1-.44c.11-.36.34-.41.69-.35s.35.1.31.45,0,.76-.3.8-.76-.42-.53-.65-.2-.93-.57-.57Z"/><path d="M113.15,152.28c-1.21,1.2,1.54,3,2.06,1.24.17-.6.37-1.61-.34-1.93a1.58,1.58,0,0,0-1.88.27,1.63,1.63,0,0,0,.06,2.07c.64.51,1.4-.13,1.48-.83a1,1,0,0,0-1.35-1,1,1,0,0,0-.57,1.54,1.3,1.3,0,0,0,2.08.29c.4-.41.68-1.21,0-1.47-.48-.18-.69.6-.21.78-.09-.25-.14-.3-.17-.14l-.05.08c0,.06-.07.15-.13.2a.49.49,0,0,1-.82-.23c-.07-.42.48-.32.41,0s-.23.37-.25-.08a1.39,1.39,0,0,1,.09-.45c.11-.36.34-.4.7-.35s.34.1.3.45,0,.77-.29.8-.76-.42-.53-.64c.36-.37-.2-.94-.57-.57Z"/><ellipse cx="111.69" cy="109.14" rx="0.94" ry="1.77" style="fill:#e3dad2"/><path d="M62.18,107.38s4.37-8.12,11.24-10.61S76.54,176,65.93,201C62.18,207.85,62.18,107.38,62.18,107.38Z" style="fill:#004652"/><path d="M163.08,98.64a84.36,84.36,0,0,0-13.8-6.87c-6.86-2.49,4,80.51,14.63,105.47C167.65,204.11,163.08,98.64,163.08,98.64Z" style="fill:#004652"/><path d="M264.46,78.36s31,41.11,8.44,60.25c-18,17.46-30.4,6.76-31-12.39s12.95-49,12.95-49-6.19-18.58-5.63-22.52,5.63-.56,10.14,0S265,57,267.84,57,264.46,78.36,264.46,78.36Z" style="fill:#3e292f"/><path d="M266.06,68.51s-7.76.62-10.3,2.19,5.26,2,5.26,2l4.15-.31s-6.47.34-7.62,3,8.29-.18,8.29-.18-5.64,1.33-6.79,4c0,0,.58,3.73,6.55-1.26,1.82.17-4,3.33-2.32,5.32s6.64-2.17,6.8-4S271,70.49,266.06,68.51Z" style="fill:#fdccaa"/></g></svg>