<svg xmlns="http://www.w3.org/2000/svg" width="250" height="250" viewBox="0 0 250 250"><title>s3s2c40</title><rect x="-1892.66" width="2148.16" height="254" style="fill:#355151"/><path d="M127.45,103.21c.54-2.36.88-4,1.28-5.56a34.75,34.75,0,0,1,38.81-25.51c17.74,2.82,30.66,19.29,29.17,37-1.07,12.69-6.75,23.45-14,33.46-14.7,20.23-33.52,36.14-53.76,50.48a3.13,3.13,0,0,1-2.9.08c-21-15.05-40.66-31.59-55.53-53.05-6.18-8.91-10.88-18.48-12.24-29.47C56.05,93,68,76.32,85.84,72.48c17.08-3.67,34.84,6.89,39.87,23.74C126.32,98.25,126.74,100.33,127.45,103.21Z" style="fill:#abc4ab"/></svg>