<svg xmlns="http://www.w3.org/2000/svg" xmlns:xlink="http://www.w3.org/1999/xlink" width="399.6" height="200" viewBox="0 0 399.6 200"><defs><clipPath id="a"><rect x="-997.76" y="417.87" width="412.44" height="392.73" rx="27.73" transform="translate(6.73 8.77) rotate(0.63)" style="fill:none"/></clipPath><clipPath id="b"><rect x="-1006.36" y="394.47" width="431.04" height="426.71" transform="translate(6.66 8.76) rotate(0.63)" style="fill:none"/></clipPath><clipPath id="c"><rect x="-418.61" y="-1.82" width="400" height="201" style="fill:none"/></clipPath><clipPath id="d"><rect x="-0.15" y="-1.82" width="400" height="201" style="fill:none"/></clipPath><pattern id="e" width="72" height="72" patternTransform="translate(260.86 151.94) scale(0.31)" patternUnits="userSpaceOnUse" viewBox="0 0 72 72"><rect width="72" height="72" style="fill:none"/><line x1="54" y1="71.75" x2="54" y2="144.25" style="fill:none;stroke:#1d1d1b;stroke-width:6px"/><line x1="18" y1="71.75" x2="18" y2="144.25" style="fill:none;stroke:#1d1d1b;stroke-width:6px"/><line x1="62" y1="71.75" x2="62" y2="144.25" style="fill:none;stroke:#1d1d1b;stroke-width:2px"/><line x1="26" y1="71.75" x2="26" y2="144.25" style="fill:none;stroke:#1d1d1b;stroke-width:2px"/><line x1="71.75" y1="18" x2="144.25" y2="18" style="fill:none;stroke:#1d1d1b;stroke-width:6px"/><line x1="71.75" y1="54" x2="144.25" y2="54" style="fill:none;stroke:#1d1d1b;stroke-width:6px"/><line x1="-0.25" y1="18" x2="72.25" y2="18" style="fill:none;stroke:#1d1d1b;stroke-width:6px"/><line x1="54" y1="-0.25" x2="54" y2="72.25" style="fill:none;stroke:#1d1d1b;stroke-width:6px"/><line x1="-0.25" y1="54" x2="72.25" y2="54" style="fill:none;stroke:#1d1d1b;stroke-width:6px"/><line x1="18" y1="-0.25" x2="18" y2="72.25" style="fill:none;stroke:#1d1d1b;stroke-width:6px"/><line x1="62" y1="-0.25" x2="62" y2="72.25" style="fill:none;stroke:#1d1d1b;stroke-width:2px"/><line x1="26" y1="-0.25" x2="26" y2="72.25" style="fill:none;stroke:#1d1d1b;stroke-width:2px"/><line x1="73.25" y1="26" x2="0.75" y2="26" style="fill:none;stroke:#1d1d1b;stroke-width:2px"/><line x1="73.25" y1="62" x2="0.75" y2="62" style="fill:none;stroke:#1d1d1b;stroke-width:2px"/><line x1="-72.25" y1="18" x2="0.25" y2="18" style="fill:none;stroke:#1d1d1b;stroke-width:6px"/><line x1="-72.25" y1="54" x2="0.25" y2="54" style="fill:none;stroke:#1d1d1b;stroke-width:6px"/><line x1="1.25" y1="26" x2="-71.25" y2="26" style="fill:none;stroke:#1d1d1b;stroke-width:2px"/><line x1="1.25" y1="62" x2="-71.25" y2="62" style="fill:none;stroke:#1d1d1b;stroke-width:2px"/><line x1="54" y1="-72.25" x2="54" y2="0.25" style="fill:none;stroke:#1d1d1b;stroke-width:6px"/><line x1="18" y1="-72.25" x2="18" y2="0.25" style="fill:none;stroke:#1d1d1b;stroke-width:6px"/><line x1="62" y1="-72.25" x2="62" y2="0.25" style="fill:none;stroke:#1d1d1b;stroke-width:2px"/><line x1="26" y1="-72.25" x2="26" y2="0.25" style="fill:none;stroke:#1d1d1b;stroke-width:2px"/></pattern><pattern id="f" width="65.25" height="65.25" patternTransform="translate(479.92 102.22) scale(0.85)" patternUnits="userSpaceOnUse" viewBox="0 0 65.25 65.25"><rect width="65.25" height="65.25" style="fill:none"/><line x1="67.55" y1="61.59" x2="62.02" y2="65.89" style="fill:none;stroke:#fff;stroke-linecap:square"/><line x1="70" y1="64.75" x2="64.47" y2="69.05" style="fill:none;stroke:#fff;stroke-linecap:square"/><line x1="47.19" y1="62.53" x2="43.5" y2="68" style="fill:none;stroke:#fff;stroke-linecap:square"/><line x1="49.93" y1="65.44" x2="44.83" y2="70.23" style="fill:none;stroke:#fff;stroke-linecap:square"/><line x1="53.13" y1="64.47" x2="55.5" y2="70.25" style="fill:none;stroke:#fff;stroke-linecap:square"/><line x1="56.25" y1="63.25" x2="59" y2="70" style="fill:none;stroke:#fff;stroke-linecap:square"/><line x1="28" y1="63.75" x2="22.31" y2="68.13" style="fill:none;stroke:#fff;stroke-linecap:square"/><line x1="32" y1="64.75" x2="25.3" y2="70.79" style="fill:none;stroke:#fff;stroke-linecap:square"/><line x1="9.25" y1="64.5" x2="9" y2="66" style="fill:none;stroke:#fff;stroke-linecap:square"/><line x1="14.22" y1="62.67" x2="18.5" y2="68.5" style="fill:none;stroke:#fff;stroke-linecap:square"/><line x1="17.05" y1="59.84" x2="21.33" y2="65.67" style="fill:none;stroke:#fff;stroke-linecap:square"/><line x1="38.75" y1="62.75" x2="39.25" y2="69.25" style="fill:none;stroke:#fff;stroke-linecap:square"/><line x1="36" y1="62" x2="34.5" y2="68.75" style="fill:none;stroke:#fff;stroke-linecap:square"/><line x1="2.3" y1="61.59" x2="-3.23" y2="65.89" style="fill:none;stroke:#fff;stroke-linecap:square"/><line x1="4.75" y1="64.75" x2="-0.78" y2="69.05" style="fill:none;stroke:#fff;stroke-linecap:square"/><line x1="65.82" y1="6.97" x2="72" y2="10.25" style="fill:none;stroke:#fff;stroke-linecap:square"/><line x1="22.49" y1="23.04" x2="19.25" y2="29.25" style="fill:none;stroke:#fff;stroke-linecap:square"/><line x1="36.42" y1="43.45" x2="44" y2="45.5" style="fill:none;stroke:#fff;stroke-linecap:square"/><line x1="37.5" y1="40.5" x2="45.25" y2="41.75" style="fill:none;stroke:#fff;stroke-linecap:square"/><line x1="30" y1="60.75" x2="32.75" y2="55.5" style="fill:none;stroke:#fff;stroke-linecap:square"/><line x1="26.5" y1="60.25" x2="29.52" y2="54.46" style="fill:none;stroke:#fff;stroke-linecap:square"/><line x1="46" y1="55.5" x2="41.25" y2="59" style="fill:none;stroke:#fff;stroke-linecap:square"/><line x1="47.25" y1="58" x2="43.5" y2="62" style="fill:none;stroke:#fff;stroke-linecap:square"/><line x1="49.88" y1="46.3" x2="50.78" y2="53.25" style="fill:none;stroke:#fff;stroke-linecap:square"/><line x1="45.98" y1="47.21" x2="47.53" y2="53.75" style="fill:none;stroke:#fff;stroke-linecap:square"/><line x1="14.22" y1="62.67" x2="18.5" y2="68.5" style="fill:none;stroke:#fff;stroke-linecap:square"/><line x1="17.05" y1="59.84" x2="21.33" y2="65.67" style="fill:none;stroke:#fff;stroke-linecap:square"/><line x1="20.53" y1="48.64" x2="23.96" y2="54.74" style="fill:none;stroke:#fff;stroke-linecap:square"/><line x1="24.23" y1="47.13" x2="26.88" y2="53.61" style="fill:none;stroke:#fff;stroke-linecap:square"/><line x1="33" y1="44.5" x2="27.75" y2="47.5" style="fill:none;stroke:#fff;stroke-linecap:square"/><line x1="35.5" y1="47.75" x2="29.75" y2="49.75" style="fill:none;stroke:#fff;stroke-linecap:square"/><line x1="47.19" y1="62.53" x2="43.5" y2="68" style="fill:none;stroke:#fff;stroke-linecap:square"/><line x1="49.93" y1="65.44" x2="44.83" y2="70.23" style="fill:none;stroke:#fff;stroke-linecap:square"/><line x1="53.13" y1="64.47" x2="55.5" y2="70.25" style="fill:none;stroke:#fff;stroke-linecap:square"/><line x1="28" y1="63.75" x2="22.31" y2="68.13" style="fill:none;stroke:#fff;stroke-linecap:square"/><line x1="32" y1="64.75" x2="25.3" y2="70.79" style="fill:none;stroke:#fff;stroke-linecap:square"/><line x1="21.5" y1="58.25" x2="22" y2="59.5" style="fill:none;stroke:#fff;stroke-linecap:square"/><line x1="37.75" y1="60.25" x2="38.75" y2="61.25" style="fill:none;stroke:#fff;stroke-linecap:square"/><line x1="38.75" y1="62.75" x2="39.25" y2="69.25" style="fill:none;stroke:#fff;stroke-linecap:square"/><line x1="36" y1="62" x2="34.5" y2="68.75" style="fill:none;stroke:#fff;stroke-linecap:square"/><line x1="53.28" y1="50" x2="54.53" y2="49.5" style="fill:none;stroke:#fff;stroke-linecap:square"/><line x1="32.5" y1="50.5" x2="32.75" y2="52" style="fill:none;stroke:#fff;stroke-linecap:square"/><line x1="50.5" y1="62" x2="51.75" y2="62" style="fill:none;stroke:#fff;stroke-linecap:square"/><line x1="33.75" y1="60" x2="32.75" y2="61.75" style="fill:none;stroke:#fff;stroke-linecap:square"/><line x1="38" y1="47.25" x2="39.25" y2="46.75" style="fill:none;stroke:#fff;stroke-linecap:square"/><line x1="40.24" y1="55.47" x2="35.81" y2="52.75" style="fill:none;stroke:#fff;stroke-linecap:square"/><line x1="42.97" y1="53.07" x2="36.62" y2="50.14" style="fill:none;stroke:#fff;stroke-linecap:square"/><line x1="35.5" y1="55.75" x2="36.75" y2="56" style="fill:none;stroke:#fff;stroke-linecap:square"/><line x1="42.28" y1="49" x2="43.53" y2="49.25" style="fill:none;stroke:#fff;stroke-linecap:square"/><line x1="18.63" y1="54.25" x2="20.25" y2="53.75" style="fill:none;stroke:#fff;stroke-linecap:square"/><line x1="26.99" y1="8.45" x2="27.13" y2="15.45" style="fill:none;stroke:#fff;stroke-linecap:square"/><line x1="30.99" y1="8.38" x2="30.25" y2="15" style="fill:none;stroke:#fff;stroke-linecap:square"/><line x1="43.64" y1="27.73" x2="50.13" y2="30.38" style="fill:none;stroke:#fff;stroke-linecap:square"/><line x1="45.15" y1="24.03" x2="51.63" y2="26.67" style="fill:none;stroke:#fff;stroke-linecap:square"/><line x1="27.12" y1="23.58" x2="31.89" y2="19.94" style="fill:none;stroke:#fff;stroke-linecap:square"/><line x1="24.09" y1="21.57" x2="30" y2="17.82" style="fill:none;stroke:#fff;stroke-linecap:square"/><line x1="18.5" y1="41.38" x2="11.72" y2="43.13" style="fill:none;stroke:#fff;stroke-linecap:square"/><line x1="19.25" y1="45" x2="12.47" y2="46.76" style="fill:none;stroke:#fff;stroke-linecap:square"/><line x1="19.69" y1="21.19" x2="16.45" y2="27.4" style="fill:none;stroke:#fff;stroke-linecap:square"/><line x1="8.74" y1="9.89" x2="10.07" y2="16.76" style="fill:none;stroke:#fff;stroke-linecap:square"/><line x1="12.66" y1="9.13" x2="14" y2="16" style="fill:none;stroke:#fff;stroke-linecap:square"/><line x1="0.57" y1="6.97" x2="6.75" y2="10.25" style="fill:none;stroke:#fff;stroke-linecap:square"/><line x1="3.5" y1="16.5" x2="2.32" y2="22.49" style="fill:none;stroke:#fff;stroke-linecap:square"/><line x1="7.57" y1="16.38" x2="6.25" y2="23.25" style="fill:none;stroke:#fff;stroke-linecap:square"/><line x1="56.37" y1="44.2" x2="58.78" y2="51.75" style="fill:none;stroke:#fff;stroke-linecap:square"/><line x1="60.53" y1="44.25" x2="61.28" y2="50.75" style="fill:none;stroke:#fff;stroke-linecap:square"/><line x1="53.03" y1="36.46" x2="49.02" y2="42.2" style="fill:none;stroke:#fff;stroke-linecap:square"/><line x1="55.77" y1="37.79" x2="54.03" y2="43.25" style="fill:none;stroke:#fff;stroke-linecap:square"/><line x1="26.95" y1="27.8" x2="27.75" y2="34.75" style="fill:none;stroke:#fff;stroke-linecap:square"/><line x1="29.93" y1="26.99" x2="31.63" y2="33.78" style="fill:none;stroke:#fff;stroke-linecap:square"/><line x1="52.81" y1="4.88" x2="46.46" y2="7.84" style="fill:none;stroke:#fff;stroke-linecap:square"/><line x1="54.25" y1="7.75" x2="48.16" y2="11.46" style="fill:none;stroke:#fff;stroke-linecap:square"/><line x1="17.65" y1="12.48" x2="19.25" y2="19" style="fill:none;stroke:#fff;stroke-linecap:square"/><line x1="19.73" y1="10.2" x2="22.83" y2="16.48" style="fill:none;stroke:#fff;stroke-linecap:square"/><line x1="37.5" y1="14.25" x2="34" y2="20.5" style="fill:none;stroke:#fff;stroke-linecap:square"/><line x1="40.13" y1="15.42" x2="36.19" y2="21.2" style="fill:none;stroke:#fff;stroke-linecap:square"/><line x1="50" y1="15.75" x2="43.75" y2="18.25" style="fill:none;stroke:#fff;stroke-linecap:square"/><line x1="50.5" y1="20.25" x2="44.25" y2="20.5" style="fill:none;stroke:#fff;stroke-linecap:square"/><line x1="56.22" y1="17.42" x2="54.53" y2="23.75" style="fill:none;stroke:#fff;stroke-linecap:square"/><line x1="58.95" y1="19.91" x2="55.47" y2="25.98" style="fill:none;stroke:#fff;stroke-linecap:square"/><line x1="57.14" y1="53.16" x2="50.8" y2="56.13" style="fill:none;stroke:#fff;stroke-linecap:square"/><line x1="58.84" y1="56.78" x2="52.5" y2="59.75" style="fill:none;stroke:#fff;stroke-linecap:square"/><line x1="47.25" y1="37" x2="43" y2="32.25" style="fill:none;stroke:#fff;stroke-linecap:square"/><line x1="44.5" y1="37.75" x2="39.68" y2="33.34" style="fill:none;stroke:#fff;stroke-linecap:square"/><line x1="30.53" y1="39.25" x2="34.5" y2="34.25" style="fill:none;stroke:#fff;stroke-linecap:square"/><line x1="32.93" y1="42.45" x2="37.25" y2="36.5" style="fill:none;stroke:#fff;stroke-linecap:square"/><line x1="22.43" y1="31.52" x2="15.47" y2="30.78" style="fill:none;stroke:#fff;stroke-linecap:square"/><line x1="21.5" y1="34.75" x2="14.66" y2="33.28" style="fill:none;stroke:#fff;stroke-linecap:square"/><line x1="6.75" y1="36.75" x2="12.35" y2="40.95" style="fill:none;stroke:#fff;stroke-linecap:square"/><line x1="9.15" y1="33.55" x2="14.75" y2="37.75" style="fill:none;stroke:#fff;stroke-linecap:square"/><line x1="13.99" y1="49.49" x2="13.42" y2="56.47" style="fill:none;stroke:#fff;stroke-linecap:square"/><line x1="17.75" y1="50" x2="16.81" y2="57.42" style="fill:none;stroke:#fff;stroke-linecap:square"/><line x1="20.17" y1="40.33" x2="25.12" y2="45.28" style="fill:none;stroke:#fff;stroke-linecap:square"/><line x1="23" y1="37.5" x2="27.95" y2="42.45" style="fill:none;stroke:#fff;stroke-linecap:square"/><line x1="8.5" y1="46.25" x2="3.93" y2="50.46" style="fill:none;stroke:#fff;stroke-linecap:square"/><line x1="10.78" y1="48.7" x2="5.25" y2="53" style="fill:none;stroke:#fff;stroke-linecap:square"/><line x1="56.12" y1="14.59" x2="63.1" y2="13.99" style="fill:none;stroke:#fff;stroke-linecap:square"/><line x1="56.25" y1="11.25" x2="62.75" y2="10" style="fill:none;stroke:#fff;stroke-linecap:square"/><line x1="36.25" y1="23.25" x2="37" y2="30.25" style="fill:none;stroke:#fff;stroke-linecap:square"/><line x1="40.25" y1="23.25" x2="39.75" y2="28.75" style="fill:none;stroke:#fff;stroke-linecap:square"/><line x1="11.96" y1="1.11" x2="9.1" y2="6.08" style="fill:none;stroke:#fff;stroke-linecap:square"/><line x1="6.46" y1="32.23" x2="12.21" y2="28.24" style="fill:none;stroke:#fff;stroke-linecap:square"/><line x1="4.18" y1="28.94" x2="9.94" y2="24.95" style="fill:none;stroke:#fff;stroke-linecap:square"/><line x1="4.14" y1="58.23" x2="8.5" y2="62.5" style="fill:none;stroke:#fff;stroke-linecap:square"/><line x1="6.57" y1="56.56" x2="10.5" y2="60" style="fill:none;stroke:#fff;stroke-linecap:square"/><line x1="60.75" y1="22.25" x2="65.07" y2="27.76" style="fill:none;stroke:#fff;stroke-linecap:square"/><line x1="63.4" y1="20.03" x2="67.72" y2="25.54" style="fill:none;stroke:#fff;stroke-linecap:square"/><line x1="58.5" y1="28.63" x2="51.72" y2="30.38" style="fill:none;stroke:#fff;stroke-linecap:square"/><line x1="59.5" y1="32.5" x2="52.72" y2="34.26" style="fill:none;stroke:#fff;stroke-linecap:square"/><line x1="15.75" y1="19.5" x2="8.84" y2="19.07" style="fill:none;stroke:#fff;stroke-linecap:square"/><line x1="16.25" y1="22.25" x2="9.3" y2="23.04" style="fill:none;stroke:#fff;stroke-linecap:square"/><line x1="60.26" y1="55.7" x2="64.19" y2="61.5" style="fill:none;stroke:#fff;stroke-linecap:square"/><line x1="63.57" y1="53.46" x2="67.5" y2="59.25" style="fill:none;stroke:#fff;stroke-linecap:square"/><line x1="63.75" y1="30.75" x2="60.04" y2="35.09" style="fill:none;stroke:#fff;stroke-linecap:square"/><line x1="67.13" y1="31.26" x2="63.44" y2="37.2" style="fill:none;stroke:#fff;stroke-linecap:square"/><line x1="67.55" y1="61.59" x2="62.02" y2="65.89" style="fill:none;stroke:#fff;stroke-linecap:square"/><line x1="56.25" y1="63.25" x2="59" y2="70" style="fill:none;stroke:#fff;stroke-linecap:square"/><line x1="63.94" y1="10.5" x2="70.13" y2="13.78" style="fill:none;stroke:#fff;stroke-linecap:square"/><line x1="16.58" y1="9.47" x2="21" y2="6.75" style="fill:none;stroke:#fff;stroke-linecap:square"/><line x1="13.84" y1="7.07" x2="20.2" y2="4.14" style="fill:none;stroke:#fff;stroke-linecap:square"/><line x1="36.13" y1="8.13" x2="40.88" y2="12.88" style="fill:none;stroke:#fff;stroke-linecap:square"/><line x1="39.27" y1="5.66" x2="43.59" y2="11.17" style="fill:none;stroke:#fff;stroke-linecap:square"/><line x1="67.73" y1="39.48" x2="62.5" y2="42" style="fill:none;stroke:#fff;stroke-linecap:square"/><line x1="70.56" y1="42.08" x2="64.45" y2="45.49" style="fill:none;stroke:#fff;stroke-linecap:square"/><line x1="30" y1="3.75" x2="31.25" y2="4" style="fill:none;stroke:#fff;stroke-linecap:square"/><line x1="29.25" y1="6.75" x2="29" y2="6" style="fill:none;stroke:#fff;stroke-linecap:square"/><line x1="34" y1="12.25" x2="34.75" y2="11.75" style="fill:none;stroke:#fff;stroke-linecap:square"/><line x1="45" y1="10" x2="46.25" y2="10" style="fill:none;stroke:#fff;stroke-linecap:square"/><line x1="51.75" y1="14.5" x2="52.5" y2="15.25" style="fill:none;stroke:#fff;stroke-linecap:square"/><line x1="60.75" y1="18" x2="61.5" y2="17.25" style="fill:none;stroke:#fff;stroke-linecap:square"/><line x1="62.25" y1="5.75" x2="61.75" y2="6.75" style="fill:none;stroke:#fff;stroke-linecap:square"/><line x1="6" y1="13.5" x2="6.75" y2="14" style="fill:none;stroke:#fff;stroke-linecap:square"/><line x1="12.25" y1="30.75" x2="12.25" y2="31.5" style="fill:none;stroke:#fff;stroke-linecap:square"/><line x1="5.5" y1="34.75" x2="4" y2="34.75" style="fill:none;stroke:#fff;stroke-linecap:square"/><line x1="9.75" y1="54.5" x2="10.25" y2="53.25" style="fill:none;stroke:#fff;stroke-linecap:square"/><line x1="18.25" y1="37.75" x2="17.5" y2="36.75" style="fill:none;stroke:#fff;stroke-linecap:square"/><line x1="49.25" y1="34.25" x2="50" y2="33.5" style="fill:none;stroke:#fff;stroke-linecap:square"/><line x1="39.28" y1="37" x2="39.78" y2="38" style="fill:none;stroke:#fff;stroke-linecap:square"/><line x1="25.5" y1="18.75" x2="26.25" y2="18" style="fill:none;stroke:#fff;stroke-linecap:square"/><line x1="23.25" y1="27.75" x2="24.5" y2="28.5" style="fill:none;stroke:#fff;stroke-linecap:square"/><line x1="9.25" y1="64.5" x2="9" y2="66" style="fill:none;stroke:#fff;stroke-linecap:square"/><line x1="38.25" y1="33.75" x2="37.75" y2="32.5" style="fill:none;stroke:#fff;stroke-linecap:square"/><line x1="67.55" y1="-3.66" x2="62.02" y2="0.64" style="fill:none;stroke:#fff;stroke-linecap:square"/><line x1="70" y1="-0.5" x2="64.47" y2="3.8" style="fill:none;stroke:#fff;stroke-linecap:square"/><line x1="47.19" y1="-2.72" x2="43.5" y2="2.75" style="fill:none;stroke:#fff;stroke-linecap:square"/><line x1="49.93" y1="0.19" x2="44.83" y2="4.98" style="fill:none;stroke:#fff;stroke-linecap:square"/><line x1="53.13" y1="-0.78" x2="55.5" y2="5" style="fill:none;stroke:#fff;stroke-linecap:square"/><line x1="56.25" y1="-2" x2="59" y2="4.75" style="fill:none;stroke:#fff;stroke-linecap:square"/><line x1="28" y1="-1.5" x2="22.31" y2="2.88" style="fill:none;stroke:#fff;stroke-linecap:square"/><line x1="32" y1="-0.5" x2="25.3" y2="5.54" style="fill:none;stroke:#fff;stroke-linecap:square"/><line x1="9.25" y1="-0.75" x2="9" y2="0.75" style="fill:none;stroke:#fff;stroke-linecap:square"/><line x1="14.22" y1="-2.58" x2="18.5" y2="3.25" style="fill:none;stroke:#fff;stroke-linecap:square"/><line x1="17.05" y1="-5.41" x2="21.33" y2="0.42" style="fill:none;stroke:#fff;stroke-linecap:square"/><line x1="58.53" y1="59.5" x2="59.03" y2="60.75" style="fill:none;stroke:#fff;stroke-linecap:square"/><line x1="38.75" y1="-2.5" x2="39.25" y2="4" style="fill:none;stroke:#fff;stroke-linecap:square"/><line x1="36" y1="-3.25" x2="34.5" y2="3.5" style="fill:none;stroke:#fff;stroke-linecap:square"/><line x1="45.75" y1="13.75" x2="46.5" y2="14.5" style="fill:none;stroke:#fff;stroke-linecap:square"/><line x1="32.75" y1="25.5" x2="34" y2="25.75" style="fill:none;stroke:#fff;stroke-linecap:square"/><line x1="63.5" y1="51" x2="64.25" y2="50.25" style="fill:none;stroke:#fff;stroke-linecap:square"/><line x1="8.25" y1="1.75" x2="4.85" y2="6.08" style="fill:none;stroke:#fff;stroke-linecap:square"/><line x1="61.5" y1="38.25" x2="62.75" y2="38.5" style="fill:none;stroke:#fff;stroke-linecap:square"/><line x1="23.25" y1="10" x2="24.25" y2="10.75" style="fill:none;stroke:#fff;stroke-linecap:square"/><line x1="36.25" y1="4.5" x2="36.5" y2="5.75" style="fill:none;stroke:#fff;stroke-linecap:square"/><line x1="11" y1="8.5" x2="11.5" y2="7" style="fill:none;stroke:#fff;stroke-linecap:square"/><line x1="3.25" y1="3.75" x2="3.25" y2="3.75" style="fill:none;stroke:#fff;stroke-linecap:round"/><line x1="6.25" y1="7" x2="6.25" y2="7" style="fill:none;stroke:#fff;stroke-linecap:round"/><line x1="13" y1="1.5" x2="13" y2="1.5" style="fill:none;stroke:#fff;stroke-linecap:round"/><line x1="23.25" y1="8.5" x2="23.25" y2="8.5" style="fill:none;stroke:#fff;stroke-linecap:round"/><line x1="17" y1="15.25" x2="17" y2="15.25" style="fill:none;stroke:#fff;stroke-linecap:round"/><line x1="14.5" y1="25" x2="14.5" y2="25" style="fill:none;stroke:#fff;stroke-linecap:round"/><line x1="3.75" y1="24" x2="3.75" y2="24" style="fill:none;stroke:#fff;stroke-linecap:round"/><line x1="20.5" y1="36" x2="20.5" y2="36" style="fill:none;stroke:#fff;stroke-linecap:round"/><line x1="25.75" y1="31.75" x2="25.75" y2="31.75" style="fill:none;stroke:#fff;stroke-linecap:round"/><line x1="33.5" y1="23.25" x2="33.5" y2="23.25" style="fill:none;stroke:#fff;stroke-linecap:round"/><line x1="28" y1="40.25" x2="28" y2="40.25" style="fill:none;stroke:#fff;stroke-linecap:round"/><line x1="32.75" y1="43" x2="32.75" y2="43" style="fill:none;stroke:#fff;stroke-linecap:round"/><line x1="18.75" y1="47.25" x2="18.75" y2="47.25" style="fill:none;stroke:#fff;stroke-linecap:round"/><line x1="42" y1="24.75" x2="42" y2="24.75" style="fill:none;stroke:#fff;stroke-linecap:round"/><line x1="41.75" y1="16.25" x2="41.75" y2="16.25" style="fill:none;stroke:#fff;stroke-linecap:round"/><line x1="58.25" y1="7.5" x2="58.25" y2="7.5" style="fill:none;stroke:#fff;stroke-linecap:round"/><line x1="50.25" y1="4" x2="50.25" y2="4" style="fill:none;stroke:#fff;stroke-linecap:round"/><line x1="61" y1="27.25" x2="61" y2="27.25" style="fill:none;stroke:#fff;stroke-linecap:round"/><line x1="59.5" y1="38.25" x2="59.5" y2="38.25" style="fill:none;stroke:#fff;stroke-linecap:round"/><line x1="54" y1="45" x2="54" y2="45" style="fill:none;stroke:#fff;stroke-linecap:round"/><line x1="57.5" y1="55" x2="57.5" y2="55" style="fill:none;stroke:#fff;stroke-linecap:round"/><line x1="50" y1="59.75" x2="50" y2="59.75" style="fill:none;stroke:#fff;stroke-linecap:round"/><line x1="28.5" y1="61" x2="28.5" y2="61" style="fill:none;stroke:#fff;stroke-linecap:round"/><line x1="39.5" y1="63.5" x2="39.5" y2="63.5" style="fill:none;stroke:#fff;stroke-linecap:round"/><line x1="25.25" y1="15.75" x2="25.25" y2="15.75" style="fill:none;stroke:#fff;stroke-linecap:round"/><line x1="10.75" y1="62.75" x2="10.75" y2="62.75" style="fill:none;stroke:#fff;stroke-linecap:round"/><line x1="0.75" y1="51.5" x2="0.75" y2="51.5" style="fill:none;stroke:#fff;stroke-linecap:round"/><line x1="3.75" y1="44.25" x2="3.75" y2="44.25" style="fill:none;stroke:#fff;stroke-linecap:round"/><line x1="9" y1="40.5" x2="9" y2="40.5" style="fill:none;stroke:#fff;stroke-linecap:round"/><line x1="9.75" y1="44.25" x2="9.75" y2="44.25" style="fill:none;stroke:#fff;stroke-linecap:round"/><line x1="50.75" y1="22.5" x2="50.75" y2="22.5" style="fill:none;stroke:#fff;stroke-linecap:round"/><line x1="48" y1="32.25" x2="48" y2="32.25" style="fill:none;stroke:#fff;stroke-linecap:round"/><line x1="46.25" y1="40.5" x2="46.25" y2="40.5" style="fill:none;stroke:#fff;stroke-linecap:round"/><line x1="27.75" y1="24.75" x2="27.75" y2="24.75" style="fill:none;stroke:#fff;stroke-linecap:round"/><line x1="24.25" y1="55.5" x2="24.25" y2="55.5" style="fill:none;stroke:#fff;stroke-linecap:round"/><line x1="24.25" y1="63.5" x2="24.25" y2="63.5" style="fill:none;stroke:#fff;stroke-linecap:round"/><line x1="18.88" y1="59.5" x2="18.88" y2="59.5" style="fill:none;stroke:#fff;stroke-linecap:round"/><line x1="26.63" y1="37" x2="26.63" y2="37" style="fill:none;stroke:#fff;stroke-linecap:round"/><line x1="61" y1="62" x2="61" y2="62" style="fill:none;stroke:#fff;stroke-linecap:round"/><line x1="4.5" y1="56" x2="4.5" y2="56" style="fill:none;stroke:#fff;stroke-linecap:round"/><line x1="33.75" y1="29.75" x2="33.75" y2="29.75" style="fill:none;stroke:#fff;stroke-linecap:round"/><line x1="33.25" y1="14.75" x2="33.25" y2="14.75" style="fill:none;stroke:#fff;stroke-linecap:round"/><line x1="34.5" y1="8" x2="34.5" y2="8" style="fill:none;stroke:#fff;stroke-linecap:round"/><line x1="49.75" y1="55.75" x2="49.75" y2="55.75" style="fill:none;stroke:#fff;stroke-linecap:round"/><line x1="49" y1="44.75" x2="49" y2="44.75" style="fill:none;stroke:#fff;stroke-linecap:round"/><line x1="62.75" y1="47.25" x2="62.75" y2="47.25" style="fill:none;stroke:#fff;stroke-linecap:round"/><line x1="52.25" y1="17.5" x2="52.25" y2="17.5" style="fill:none;stroke:#fff;stroke-linecap:round"/><line x1="53" y1="19.25" x2="53" y2="19.25" style="fill:none;stroke:#fff;stroke-linecap:round"/><line x1="53.25" y1="10.5" x2="53.25" y2="10.5" style="fill:none;stroke:#fff;stroke-linecap:round"/><line x1="40" y1="19.75" x2="40" y2="19.75" style="fill:none;stroke:#fff;stroke-linecap:round"/><line x1="49" y1="27.25" x2="49" y2="27.25" style="fill:none;stroke:#fff;stroke-linecap:round"/><line x1="59.5" y1="24" x2="59.5" y2="24" style="fill:none;stroke:#fff;stroke-linecap:round"/><line x1="61" y1="31.25" x2="61" y2="31.25" style="fill:none;stroke:#fff;stroke-linecap:round"/><line x1="1" y1="16.25" x2="1" y2="16.25" style="fill:none;stroke:#fff;stroke-linecap:round"/><line x1="-4.5" y1="22.25" x2="-0.18" y2="27.76" style="fill:none;stroke:#fff;stroke-linecap:square"/><line x1="-1.85" y1="20.03" x2="2.47" y2="25.54" style="fill:none;stroke:#fff;stroke-linecap:square"/><line x1="-1.68" y1="53.46" x2="2.25" y2="59.25" style="fill:none;stroke:#fff;stroke-linecap:square"/><line x1="1.88" y1="31.26" x2="-1.81" y2="37.2" style="fill:none;stroke:#fff;stroke-linecap:square"/><line x1="2.3" y1="61.59" x2="-3.23" y2="65.89" style="fill:none;stroke:#fff;stroke-linecap:square"/><line x1="-1.31" y1="10.5" x2="4.88" y2="13.78" style="fill:none;stroke:#fff;stroke-linecap:square"/><line x1="2.48" y1="39.48" x2="-2.75" y2="42" style="fill:none;stroke:#fff;stroke-linecap:square"/><line x1="5.31" y1="42.08" x2="-0.8" y2="45.49" style="fill:none;stroke:#fff;stroke-linecap:square"/><line x1="2.3" y1="-3.66" x2="-3.23" y2="0.64" style="fill:none;stroke:#fff;stroke-linecap:square"/><line x1="4.75" y1="-0.5" x2="-0.78" y2="3.8" style="fill:none;stroke:#fff;stroke-linecap:square"/><line x1="14.22" y1="-2.58" x2="18.5" y2="3.25" style="fill:none;stroke:#fff;stroke-linecap:square"/><line x1="17.05" y1="-5.41" x2="21.33" y2="0.42" style="fill:none;stroke:#fff;stroke-linecap:square"/><line x1="47.19" y1="-2.72" x2="43.5" y2="2.75" style="fill:none;stroke:#fff;stroke-linecap:square"/><line x1="49.93" y1="0.19" x2="44.83" y2="4.98" style="fill:none;stroke:#fff;stroke-linecap:square"/><line x1="53.13" y1="-0.78" x2="55.5" y2="5" style="fill:none;stroke:#fff;stroke-linecap:square"/><line x1="28" y1="-1.5" x2="22.31" y2="2.88" style="fill:none;stroke:#fff;stroke-linecap:square"/><line x1="32" y1="-0.5" x2="25.3" y2="5.54" style="fill:none;stroke:#fff;stroke-linecap:square"/><line x1="38.75" y1="-2.5" x2="39.25" y2="4" style="fill:none;stroke:#fff;stroke-linecap:square"/><line x1="36" y1="-3.25" x2="34.5" y2="3.5" style="fill:none;stroke:#fff;stroke-linecap:square"/><line x1="67.55" y1="-3.66" x2="62.02" y2="0.64" style="fill:none;stroke:#fff;stroke-linecap:square"/><line x1="56.25" y1="-2" x2="59" y2="4.75" style="fill:none;stroke:#fff;stroke-linecap:square"/><line x1="9.25" y1="-0.75" x2="9" y2="0.75" style="fill:none;stroke:#fff;stroke-linecap:square"/><line x1="2.3" y1="-3.66" x2="-3.23" y2="0.64" style="fill:none;stroke:#fff;stroke-linecap:square"/></pattern><pattern id="g" width="74.06" height="72" patternTransform="translate(208.26 123.88) scale(0.25)" patternUnits="userSpaceOnUse" viewBox="0 0 74.06 72"><rect width="74.06" height="72" style="fill:none"/><line x1="24.98" y1="72" x2="24.98" style="fill:none;stroke:#1d1d1b;stroke-width:4px"/><line x1="6.49" y1="72" x2="6.49" style="fill:none;stroke:#1d1d1b;stroke-width:4px"/><line x1="43.47" y1="72" x2="43.47" style="fill:none;stroke:#1d1d1b;stroke-width:4px"/><line x1="61.96" y1="72" x2="61.96" style="fill:none;stroke:#1d1d1b;stroke-width:4px"/><line x1="12.09" y1="72" x2="12.09" style="fill:none;stroke:#1d1d1b"/><line x1="30.58" y1="72" x2="30.58" style="fill:none;stroke:#1d1d1b"/><line x1="49.07" y1="72" x2="49.07" style="fill:none;stroke:#1d1d1b"/><line x1="67.56" y1="72" x2="67.56" style="fill:none;stroke:#1d1d1b"/></pattern></defs><title>s11s30</title><g style="clip-path:url(#c)"><path d="M94,208.25s-26.16-9.08-29.9-10.14-6.94-3.21-10.67-4.81-2.67-3.2-6.41-6.4-7.48-3.74-10.14-5.88,1.06.54-11.22-5.87-24-9.61-28.83-16.55-18.68-13.88-22.95-20.29-7.48-10.14-10.68-11.74-4.8-6.94-6.41-6.94-4-1.87-5.6-2.4a15.91,15.91,0,0,1-3.2-1.61s-9.08-4.8-10.15-6.94a44.08,44.08,0,0,0-3.74-6.94c-1.6-2.13-8-5.87-11.21-10.14s-3.73-2.67-5.87-5.87-3.2-2.67-7.47-8-6.41-8-7.48-7.48-3.2,3.21-4.8,3.21-1.07-3.21-2.67-2.67l-1.6.53-1.07.54s-2.14-1.61-3.2-1.61A10,10,0,0,1-115,69.18c-1.07-.54,0-1.61-2.67-1.07s-5.34,1.6-6.41,2.67l-1.07,1.07s-.53-1.07-3.2-1.07-3.2,0-4.27.53a7.5,7.5,0,0,1-2.14,1.07c-1.6.53,0,.53-2.13,1.07s-3.74-.54-5.87-1.07-1.07-.53-3.21-.53h-4.27c-1.07,0-2.13-.54-3.73-1.61a5.8,5.8,0,0,0-3.74-1.06A7.31,7.31,0,0,0-162,71.85c-.54,1.06-3.21,2.13-4.81,3.73a23.54,23.54,0,0,0-2.67,3.21S-188.7,93.73-197.24,96.4a12.19,12.19,0,0,1-5.87.54,5.56,5.56,0,0,0-3.2,0h-3.21a29.89,29.89,0,0,1-9.61,9.07c-2.09,1.15-8,3.21-10.14,4.81s-2.14,4.8-5.34,6.41a64.75,64.75,0,0,0-8,5.33S-257,115.09-258.1,114s-1.6-1.07-3.74-2.13-.53-2.67-4.8-1.61-5.87,2.67-8,3.21a14.09,14.09,0,0,0-4.27,2.13s-5.34,0-8,2.67c0,0-3.74-1.6-5.87,1.6a81.65,81.65,0,0,1-14.95,11.22c-2.68,1.57-6.94,3.73-9.61,8-1.2,1.92-20.82,20.83-43.24,33.64-.93.53-1.61-1.6-3.74-.54s-3.74,2.14-8,1.61-.53-2.14-5.34-.54-4.8,3.21-9.07,5.34-4.28,2.67-8,3.74-4.27,0-6.94.53-2.14,2.67-4.27,3.74-10.15,1.07-13.88,4.27c-.91.78-6.41,2.67-11.22,3.2s-3.73,4.27-7.47,3.74-4.8-1.6-6.94-.53-3.74,4.27-5.34,4.8a32.44,32.44,0,0,1-4.8,1.07c-2.67.53-3.74-.53-4.27.53s1.06,1.6-1.07,2.14-2.67.53-3.21,2.13,1.07,1.61-1.6,2.14-4.8.53-7.47,1.07-9.08,2.13-12.28,2.13-3.2-1.07-5.87,0-9.61,2.14-10.15,2.67a30.35,30.35,0,0,1-3.2,2.14c-1.6,1.07-5.34,6.4-6.41,6.94s-6.94-1.07-9.07,0-16.55,4.8-16.55,4.8l-50.19,8L-604,263l262.67,3.21L94.26,271Z" style="fill:#abc4ab"/><path d="M-38.68,250.69a22.92,22.92,0,0,1,9.08-2.13c4.8,0,9.07,1.6,11.21,0s2.13-1.07,4.8-3.2-1.06-3.74,6.94-3.74,13.35-.54,15-1.6,4.81-.54,5.34-3.74,3.74-2.14,1.07-5.87-1.07-4.81-3.74-5.34-2.13-4.81-7.47-7.48-3.74-2.67-7.48-4.8-2.67-2.67-5.87-5.34-18.68-13.88-26.69-21.36-11.75-9.6-17.09-15.48-6.4-1.07-9.07-10.67-3.21-9.08-8-18.16-9.08-8-9.61-13.34-2.67-6.41.53-5.34,5.34,5.87,6.94,6.94,2.67,4.27,4.81,4.27-1.07,4.27,6.41,6.94,3.2,3.74,5.87,7.47,8,6.94,10.14,9.08,11.21,7.47,12.81,8,13.35,8.54,18.16,12.81S.29,187.7,4.57,189.3s11.74,5.34,20.82,8.54,0-1.6-5.88-4.8-2.13-4.81-6.94-5.88-17.08-9.07-20.28-12.28-5.88-7.47-10.15-11.21-3.73-3.2-6.4-8-3.74-8-.54-6.94,3.21,8,6.41,9.61,12.81,8.55,15.48,9.08,4.27,1.07,6.94,4.27,8,6.94,13.88,9.61,12.28,8.54,18.69,10.14,4.27,1.07,9.61,3.74,13.88,4.81,16.55,6.41,10.14,2.13,11.21,4.8,25.63,8.54,25.63,8.54l1.06,44.85s-20.28-31.5-27.22-32-8.55-2.14-17.62-4.81-16.55-6.4-19.76-7.47-8-.54-13.34-5.87-24-14.42-25.63-15.49,12.28,8,15.48,11.75,10.68,8,13.88,9.07,11.22,8,17.09,9.08,6.41,0,12.81,5.34S69.16,236.28,73.44,240s9.07,9.07,8,10.14-24-12.28-31.49-14.95-5.88-2.13-13.35-4.8S22.18,220.8,17.38,219.2s4.8,5.33,9.07,10.67,7,4.27,7.48,9.08-3.2,4.8-1.6,10.14,3.47,11.48-1.87,12.55-35-1.34-43-.8-20.29,3.73-25.62.53S-38.68,250.69-38.68,250.69Z" style="fill:#86ac98"/><polygon points="219.72 287.46 162.32 -53.85 142.15 60.96 156.12 50.1 142.15 76.47 100.27 290.57 219.72 287.46" style="fill:#283c3f"/><path d="M175.93,235.56s16.72-16.66,19.61-19.21,6-9.16,4-10S177.46,222,177.46,222l5.91-28.93,14.55-14.75-11.79,3.35,1.28-9.46s18.62-25.4,20.15-28,.89-3.35.89-3.35l-15.1,12.67,6.46-26.84s11.16-15,9.84-15.74-7.8,5-7.8,5l8.05-38.77L220.44,29.2,234,120.32s-6.12-6.12-7.48-5.44,8.84,16.32,8.84,16.32l4.76,27.2-14.28-13.6s-.68.68.68,3.4,18.36,29.24,18.36,29.24l.68,9.52L234,182.88l13.6,15.64,4.08,29.23s-19-17.68-21.08-17,.68,7.48,3.4,10.2,18.36,20.4,18.36,20.4L256.48,291l-85-2.72Z" style="fill:#355151"/><path d="M260.6,191.53s-97.7-28.29-215.69,35.24C36.08,231.53-31.43,277-56,285s-58.73,13.88-73.14,12.82-25.1-.54-43.25,5.33-80.61,23-123.86,33.1-87,13.35-102.5,19.76-38.44,15.48-57.12,19.22-35.77-4.27-80.09,20.82-48,21.89-61.39,31.5S-616,457.4-616,457.4l879.29.54Z" style="fill:#577977"/></g><g style="clip-path:url(#d)"><path d="M330.6,43.35c-8.5-9.65-13-6.81-22.15,0s-13.69,9.62-22.16,0V18.79c8.47,9.62,13.08,6.79,22.16,0s13.65-9.65,22.15,0Z" style="fill:#ef1e32"/><rect x="283.62" y="17.72" width="2.67" height="58.73" rx="1.33" style="fill:#165488"/><path d="M512.45,208.25s-26.16-9.08-29.89-10.14-6.94-3.21-10.68-4.81-2.67-3.2-6.41-6.4S458,183.16,455.33,181s1.07.54-11.21-5.87-24-9.61-28.83-16.55-18.69-13.88-23-20.29-7.47-10.14-10.68-11.74-4.8-6.94-6.4-6.94-4-1.87-5.61-2.4a15.91,15.91,0,0,1-3.2-1.61s-9.08-4.8-10.14-6.94a44.92,44.92,0,0,0-3.74-6.94c-1.6-2.13-8-5.87-11.21-10.14s-3.74-2.67-5.88-5.87-3.2-2.67-7.47-8-6.41-8-7.47-7.48-3.21,3.21-4.81,3.21-1.07-3.21-2.67-2.67l-1.6.53-1.07.54s-2.13-1.61-3.2-1.61a10,10,0,0,1-3.74-1.06c-1.07-.54,0-1.61-2.67-1.07s-5.34,1.6-6.4,2.67l-1.07,1.07s-.54-1.07-3.21-1.07-3.2,0-4.27.53a7.41,7.41,0,0,1-2.13,1.07c-1.6.53,0,.53-2.14,1.07s-3.73-.54-5.87-1.07-1.07-.53-3.2-.53h-4.27c-1.07,0-2.14-.54-3.74-1.61a5.79,5.79,0,0,0-3.74-1.06,7.31,7.31,0,0,0-4.27,2.67c-.53,1.06-3.2,2.13-4.8,3.73A22.67,22.67,0,0,0,249,78.79S229.77,93.73,221.22,96.4a12.16,12.16,0,0,1-5.87.54,5.57,5.57,0,0,0-3.2,0H209a30,30,0,0,1-9.61,9.07c-2.1,1.15-8,3.21-10.15,4.81s-2.13,4.8-5.34,6.41a64.33,64.33,0,0,0-8,5.33s-14.42-7.47-15.49-8.54-1.6-1.07-3.73-2.13-.54-2.67-4.81-1.61-5.87,2.67-8,3.21a14.23,14.23,0,0,0-4.27,2.13s-5.34,0-8,2.67c0,0-3.73-1.6-5.87,1.6a81.65,81.65,0,0,1-15,11.22c-2.68,1.57-6.94,3.73-9.61,8-1.2,1.92-20.82,20.83-43.24,33.64-.93.53-1.6-1.6-3.74-.54s-3.73,2.14-8,1.61-.53-2.14-5.33-.54-4.81,3.21-9.08,5.34-4.27,2.67-8,3.74-4.27,0-6.94.53-2.13,2.67-4.27,3.74S2.34,187.7-1.4,190.9c-.91.78-6.41,2.67-11.21,3.2s-3.74,4.27-7.48,3.74-4.8-1.6-6.94-.53-3.73,4.27-5.34,4.8a32.44,32.44,0,0,1-4.8,1.07c-2.67.53-3.74-.53-4.27.53s1.07,1.6-1.07,2.14-2.67.53-3.2,2.13,1.07,1.61-1.6,2.14-4.81.53-7.48,1.07-9.07,2.13-12.28,2.13-3.2-1.07-5.87,0-9.61,2.14-10.14,2.67a32,32,0,0,1-3.21,2.14c-1.6,1.07-5.34,6.4-6.4,6.94s-6.94-1.07-9.08,0-16.55,4.8-16.55,4.8l-50.18,8L-185.59,263l262.67,3.21L512.72,271Z" style="fill:#abc4ab"/><path d="M119.79,234.14c0-1.06.53-2.67,0-4.27s-1.6-2.13-1.6-3.73,1.06-1.07,0-2.14-2.14-3.74-3.21-4.27-1.6-3.2-2.67-3.2-2.66-1.61-2.66-1.61,0-3.2-2.14-3.2-4.27-1.07-6.41.53a71.6,71.6,0,0,1-5.87,4.28c-1.07.53,0,0-3.74,1.06s-17.08,1.07-18.68,1.07-6.41,1.07-6.41,0,1.07-2.67,2.67-2.13,5.87-1.07,8-2.14,3.2-1.07,3.74-2.14,0-2.13,0-2.66-1.07-2.14-2.14-1.07-3.2,3.2-4.27,3.2-2.14,1.07-3.2.53,0-2.66,0-2.66l2.13-2.14,1.6-2.14a24.4,24.4,0,0,0-5.87,1.61C66.94,208,63.2,208,62.66,208s-3.73-2.67-4.8-3.2-3.74-3.2-4.81-3.2-2.13-1.6-2.13-1.6l-1.6-1.07s1.07,2.67-1.07,2.67-2.14-1.07-3.2-1.07a3.24,3.24,0,0,0-2.14.53c-1.07.54-1.6.54-2.67,1.07s-1.6.54-1.6,1.07,0,2.13.53,2.67-2.67.53-2.67.53-3.2.54-3.73,1.07-.54,1.6-2.14,1.6-5.87.54-5.87.54-.53-1.07-2.67,0,1.6,2.13,0,2.13-4.81,0-5.87.53-2.67.54-1.6,1.07,3.2,0,2.66,1.07-.53,3.2-1.06,3.2-1.6,0-.54.54a2.12,2.12,0,0,1,1.07,2.13c0,.54-.53,1.07-2.13,1.6a19.64,19.64,0,0,1-4.81,1.07c-1.07,0-3.74,1.6-6.41,2.14s-2.67,1.07-4.8,1.07-.53-1.61,0-1.61a26.29,26.29,0,0,0,3.74-1.6L5,221.33l2.67-1.07,1.6-2.67,2.67.54,1.06-.54-.53-2.67s.53-1.6,0-1.6a12.35,12.35,0,0,1-2.14-.53.53.53,0,0,0-.53-.54A42.5,42.5,0,0,0,5,214.39H.73a24.11,24.11,0,0,1-4.27,1.07c-1.06,0-4.27,1.07-5.87,1.07h-4.27l-2.14,1.06a2.56,2.56,0,0,1,0,2.14,6.51,6.51,0,0,1-1.06,1.6l-1.07,1.07h-2.14l-4.8-2.14-6.41,1.6L-32.9,224A7.83,7.83,0,0,1-35,225.07a13.53,13.53,0,0,0-2.67,1.07h-2.14c-.53,0-1.6,1.06-1.6,1.06a23.46,23.46,0,0,1,.53,2.67c0,.54-2.13,0-2.13,0s-3.74,1.6-4.81,2.14a30.31,30.31,0,0,0-.53,3.74c0,1.06.53,1.6,0,2.13s-.54,1.6-1.07,3.2.53,4.81.53,5.88,1.07,1.6,0,1.6-5.87-.54-6.94.53-5.33,1.07-7.47,1.07-1.6,3.2-1.6,3.2l4.27,2.67,176.71,7.48a15.34,15.34,0,0,0,1.6-8.55,82.49,82.49,0,0,0-1.6-8.54c0-.53.54-4.8,1.07-5.34A26.87,26.87,0,0,0,119.79,234.14ZM54.12,254.43c-.53,1.07-5.34,0-5.87-.53a12.09,12.09,0,0,0-5.34-3.74c-3.2-1.07-7.47-5.34-9.61-5.87a31.61,31.61,0,0,0-3.74-1.07c-2.67-.53-6.4-.53-3.73-1.6,0,0,2.67-2.67,4.8-2.14s3.74-1.07,4.27-1.6a7.45,7.45,0,0,1,2.14-1.6c1.07-.53,2.13-1.6,3.2-1.6s-1.07,1.6-1.6,2.67a9.25,9.25,0,0,1-3.2,3.2c-1.07.53-1.07,1.07-1.07,1.6s1.07,2.67,2.13,2.67,0-2.13,2.67-2.13a20.27,20.27,0,0,1,4.27.53c.54,0,1.61,0,1.61,1.07s1.06,1.6,0,2.13A1.9,1.9,0,0,0,44,248s1.6,1.07,2.67,1.61,1.07,1.6,2.13,2.13,1.07,0,1.61.54S54.66,253.36,54.12,254.43Zm10.15-1.07c-1.61-.53-.54-1.06-2.67-1.6s-1.61-1.07-3.74-1.6-1.6,0-3.2-1.07-3.74-5.34-4.81-5.34-1.07-1.06-1.6-1.06,1.07,4.8,2.67,5.33,5.34,4.28,6.41,5.34,2.13,1.6,1.6,2.14-6.41-2.67-6.94-3.74-2.14-2.13-3.21-3.2-1.06-3.2-2.13-4.27a2.94,2.94,0,0,1-1.07-2.67c0-1.07,1.6-2.14,2.14-4.27s4.27-5.88,6.4-5.88a9.2,9.2,0,0,1-1.07,4.28c-1.06,1.6-1.6,1.6-1.6,3.2s-.53,3.2.54,4.27,2.67,1.6,3.73,2.67,2.67,2.67,3.74,2.67a5.38,5.38,0,0,1,4.27,1.6c1.6,1.6,3.74,2.67,4.81,4.27S65.87,253.9,64.27,253.36Z" style="fill:#86ac98"/><path d="M-175.69,248.43l.78,7.6s63.53-3.2,71-2.13,8.54-2.14,8.54-2.14.53-3.74,1.6-4.27,1.07,0,2.13.53,0-1.06,1.07-.53,2.67-.53,2.14-1.6-2.14-1.07-2.14-2.67v-2.14s-1.6,2.14-1.6-.53,1.6-4.27,1.6-4.8,3.21-1.07,1.6-2.14-3.2-.53-3.73-1.07-.54.54-1.07-1.07-1.07-1.6-.53-2.67.53-3.2,1.6-2.13a15.66,15.66,0,0,1,2.13,3.2,23,23,0,0,0,3.74-3.73,5.59,5.59,0,0,1,4.8-2.67c2.14,0,1.61-.54,2.67,0s.54,2.13-.53,2.67-1.6.53-2.14,1.06a2.8,2.8,0,0,0-1.06,2.14c0,1.07,0,.53,1.06,1.07s1.07,1.06.54,1.6-2.14,0-2.14,1.07-.53,1.6.54,1.6.53.53,2.13-.54A13.47,13.47,0,0,1-77.21,232c1.6-.54,3.2-.54,3.74-1.6s0-1.07,1.06-2.67.54-1.6,3.21-3.21.53-2.13,2.13-4.27,1.07-2.67,2.67-3.2,2.67,1.6,4.27,0a6.41,6.41,0,0,1,4.27-2.14c1.07,0,2.67,0,3.21-.53s3.2-4.27,4.8-3.2A29.36,29.36,0,0,0-42,213.86c1.61.53,5.88.53,10.15-2.14s3.2-4.8,8.54-4.8,0,1.06,5.34.53,5.34-1.07,9.07-2.67,3.74-2.13,7-2.13,1.6-2.67,4.27-3.21,5.87,2.67,11.21,0,6.4-5.34,8-5.87,2.67-1.6,5.33-1.07,2.67,1.6,6.94,1.07-.53-.53,3.74-1.07,2.67,1.6,4.81-1.6,3.2-2.67,3.2-4.27-.53-.54-2.14-2.14-.53-1.6-1.6-3.2-2.13,1.07-1.6-1.6c.3-1.49,3.41-4,4.82-6.06-2.55-.64,0-1.79-4.28-.35-4.81,1.6-4.81,3.21-9.08,5.34s-4.27,2.67-8,3.74-4.27,0-6.94.53-2.13,2.67-4.27,3.74S2.34,187.7-1.4,190.9c-.91.78-6.41,2.67-11.21,3.2s-3.74,4.27-7.48,3.74-4.8-1.6-6.94-.53-3.73,4.27-5.34,4.8a32.44,32.44,0,0,1-4.8,1.07c-2.67.53-3.74-.53-4.27.53s1.07,1.6-1.07,2.14-2.67.53-3.2,2.13,1.07,1.61-1.6,2.14-4.81.53-7.48,1.07-9.07,2.13-12.28,2.13-3.2-1.07-5.87,0-9.61,2.14-10.14,2.67a32,32,0,0,1-3.21,2.14c-1.6,1.07-5.34,6.4-6.4,6.94s-6.94-1.07-9.08,0-16.55,4.8-16.55,4.8l-50.18,8Z" style="fill:#86ac98"/><path d="M127.53,199.71s-1.6,1.6-1.07,3.2a4.39,4.39,0,0,1-.53,3.74c-.54,1.07-2.67,3.2-2.14,4.27s-2.13,2.14-1.6,3.2-5.34-2.13-7.47-2.67a17.36,17.36,0,0,1-3.21-1.06s1.07,1.6-1.06,1.6-1.61-1.6-3.74-2.14-4.27-1.6-5.34-1.07-.53,2.14-2.67,2.14-2.13,0-5.34-2.14-4.27-3.73-6.94-4.27-4.8-1.6-4.8-3.2-1.07,0,1.06-2.14,4.28,0,6.41-2.13-.53-3.74,2.67-4.27,8-.54,9.61,0,3.47,3.47,7.21,4.54,4.8,0,6.4.53,1.07,0,3.74,1.07a8.36,8.36,0,0,0,4.81.53C124.59,199.44,127.53,199.71,127.53,199.71Z" style="fill:#86ac98"/><path d="M60.8,193.3a23.67,23.67,0,0,0,2.66,3.21c1.61,1.6,1.61,1.6,2.14,3.2s1.07,3.2,2.67,3.2A7.67,7.67,0,0,0,72,201.84c1.06-.53.53-2.13,2.13-2.67s1.6-1.6,3.21-2.66,4.8-.54,2.13-1.61-5.34,0-5.87-1.6a5.83,5.83,0,0,0-2.14-2.67c-.53-.53-5.34,1.6-6.4,2.14S62.93,191.7,60.8,193.3Z" style="fill:#86ac98"/><path d="M135.54,202.91a42.57,42.57,0,0,0,2.67,5.34c1.6,2.67,5.34,3.74,8,5.87s6.4,8.55,9.07,10.68,0,1.6-.53,4.27,0,2.14.53,3.21S164.9,241.88,167,243s1.06,1.07,8,5.34A22.11,22.11,0,0,1,184.12,259l37.1.27,60.87-4.81s3.73-1.6,4.27-3.2-2.14-4.81-2.14-4.81l2.67-8.54s-3.74-3.2-5.34-4.27.54-5.34.54-8.54-3.21-3.21-5.34-4.27-1.6-3.74.53-8a10.29,10.29,0,0,0,0-8.54s-2.67,3.73-3.2,4.8-4.81,3.2-11.75,6.41-4.8,3.74-6.4,4.8,1.6,15-2.14,3.74-1.6-5.34-3.2-8,.53-2.67.53-6.4A29.19,29.19,0,0,0,249,198.91c-1.07-2.14,1.6-5.87,2.13-7.48s1.6-9.07,3.74-12.28,5.87-8,9.61-9.07,2.13-3.74,3.2-6.41a44.15,44.15,0,0,1,4.81-8c.53-.53.53-5.33.53-7.47s3.2-6.94,5.34-9.61.53-2.14,1.6-4.27,5.34-5.34,5.34-5.34,6.41,2.14,9.08,5.34,1.06,1.07,2.13,1.6.54,3.2,1.6,5.87a12.51,12.51,0,0,1,1.07,5.88v8.54c0,2.67,1.07,6.94,1.07,8.54A46.47,46.47,0,0,0,302.37,176c1.61,5.34,2.67,5.34,2.67,7.48s3.21,4.8,3.74,11.74,3.74,9.61,3.74,9.61,1.6,3.74,2.67,3.74,3.73,3.73,4.27,5.87,2.13,3.2,5.34,8,0,0,1.6,2.13a24,24,0,0,1,3.2,4.81c2.14,3.74-1.07,3.74-1.07,3.74l5.88,13.34L333.34,255s4.8,1.07,6.94,0,3.2,0,3.2,0a22.05,22.05,0,0,0,4.81,1.07,2.47,2.47,0,0,0,2.67-1.6c.53-1.07,0-3.2.53-6.94a11.08,11.08,0,0,0-1.6-6.94,49.41,49.41,0,0,1,4.8,1.6c1.07.54,6.41,2.67,6.41,2.67a66.9,66.9,0,0,1,0,10.68c-.53,3.74,3.74.53,4.27,0s2.14-.54,3.2-2.14,0-2.67,0-4.27,3.21-1.07,3.74-1.6a8.31,8.31,0,0,0,2.14-5.34c0-2.67,2.67-5.34,4.27-6.4s3.74-2.67,3.74-2.67l1.6-4.28a13.75,13.75,0,0,1,1.6-3.73c1.07-1.6,3.2-3.21,3.2-5.34a41.87,41.87,0,0,0-.53-4.81c0-.53-4.81-1.6-5.87-1.6s-3.74-.53-4.81-.53-3.74-.54-4.8-.54-8,2.67-8,2.67a57.68,57.68,0,0,0-4.27,5.88c-1.61,2.67-.54,3.73.53,8s-.53,3.21-2.67,4.81a5.33,5.33,0,0,1-4.8.53s-7.48-2.13-8.55-3.73,0-6.94,0-8.55-8,1.07-8,1.07-2.14-4.8-1.61-7.47-1.6-4.81-2.13-6.41-4.81-3.74-5.87-6.94-4.81-2.67-5.88-5.87,1.6-4.81,2.67-6.41,2.14-6.4,2.67-9.61,3.21-6.4,3.74-9.61-1.07-8-2.14-11.21-4.27-5.34-4.27-3.74.54,1.61,1.07,5.34a28.47,28.47,0,0,1,.53,6.41c0,3.2-2.67,6.94-2.13,10.68s-6.94,11.21-6.94,11.21-4.27-.54-5.87-2.14,0-4.27-1.61-5.34-4.8-14.41-5.33-24.55-1.07-3.21-1.07-3.21-2.14-10.14-2.67-16.55,0-4.27,1.6-11.21-.53-4.27-.53-6.94,1.06-6.94,1.06-9.61-3.2-4.27-6.94-2.67-7.47,2.67-8.54,2.67-2.67,2.67-2.67,4.81,3.74,4.8,1.07,6.94-6.41-.54-9.61.53-2.14,5.34-2.67,8.54,0,2.14,0,5.34-2.67,6.41-2.67,6.41l-2.67,2.13a3.94,3.94,0,0,1-1.6,1.6c-1.07.54-1.6,5.34-1.6,5.34s-1.07,6.94-2.67,9.61-2.67-.53-4.81,0-.53,1.6-3.2,4.81-3.74,5.34-5.34,6.94-2.67,4.27-5.87,7.47-.53,1.6-1.07,6.41-1.07,2.13-3.2,7.47,0,0,0,4.81-1.6,11.74-2.14,14.41,0,1.6,1.61,3.74,1.6,6.41,1.6,6.41-1.07,2.13-4.81,4.8a6.49,6.49,0,0,0-2.63,3.27,6.75,6.75,0,0,0-.57-1.67,43.44,43.44,0,0,1-2.14-5.87s-.53-5.87,0-7.47-.53-1.61-1.6-3.74-.53-6.41-3.2-5.87,0,1.6-.54,3.73-.53,5.88-1.06,8.55,1.06,3.73,1.06,5.87a55.27,55.27,0,0,1-.53,9.07c-.53,2.67-8,10.68-8,10.68a23.71,23.71,0,0,1-1.07-2.67c-.53-1.6,0-3.2,0-4.8s-3.2-3.21-5.87-4.81-2.13-3.2-2.13-3.2a27.12,27.12,0,0,0-.54-5.34c-.53-2.14,2.14-6.41,2.67-7.47s-2.67-2.67-5.87-1.61-2.14,7.48-3.74,9.08-5.34,2.67-5.34,2.67l-2.67-2.14a13.89,13.89,0,0,1,.54-3.73c.53-1.6-.54-2.67-1.07-2.67s-1.6-2.67-1.6-2.67L186,212.25l-5.87,5.34-7.48-.53L170,211.19l-4.27-4.27,6.94-9.08,6.41-5.87,1.6-2.67,5.34-2.67,3.2-1.6,7.48-3.74,4.8-2.14,2.14-2.13,1.06-3.2s2.67-2.14,3.74-3.21,3.74-1.07,3.74-1.07l5.34-4.8s6.4-6.94,9.07-7.47,1.07,1.06,2.14,1.6,0,6.4,0,6.4l2.13-2.67c2.14-2.66,0-4.27,0-4.27s-1.06-5.87-1.6-7.47,0-9.08,1.6-11.21,3.21-1.07,4.81-3.21,3.74-6.4,6.41-7.47,2.67-1.6,4.8,1.6,0,1.07-1.07,5.87-3.73,4.28-4.27,7.48,0,3.74-1.07,7.47-1.06,6.94-1.06,13.35,1.06,11.21,3.73,10.68,2.67-3.21,2.67-5.88,1.6-3.73,2.14-6.94,2.13-9.61,3.2-10.67.54-4.81,1.07-6.41a108.73,108.73,0,0,1,4.27-10.14c1.6-3.21,3.2-1.6,4.81-2.67s.53-1.6.53-2.67,3.2-3.74,4.8-5.87,1.07-2.67,1.07-4.28,2.14-3.73,3.21-4.27,1.06-4.27,1.06-4.27,0-4.27,2.67-6.94,4.81-13.34,4.81-13.34.53-3.21,0-3.74,1.06-4.27,2.13-3.74.54,1.07,1.6,3.2a7.65,7.65,0,0,1,.54,6.94c-1.07,3.21,1.07,3.74,1.07,5.88s2.67,2.67,2.67,2.67l2.66,3.73s2.67-.53,2.67-2.67,2.14-7.47,2.14-10.67,1.07-1.6,1.6-3.21a12.62,12.62,0,0,0,1.07-4.8c0-2.14,0-1.07-1.07-2.67s.54-3.74,0-4.81-1.6,0-3.2-1.06-2.14-1.6-3.21-1.6h-3.73c-.63,0-1.08-1.5-1.34-2.72a4.61,4.61,0,0,1-1.33.58c-1.28.43-.52.51-1.26.8l.19,1.87h-4.8c-2.14,0-2.14,1.07-3.74,2.13s-1.6-.53,0-2.13a5.74,5.74,0,0,0,1.34-2.74,6,6,0,0,0-2.94-.46h-4.27a4.25,4.25,0,0,1-1.77-.45c-.72,1.6-.37,3-.37,4.72,0,2.13-1.6,3.2-2.67,2.67s-.53-2.14-.53-3.74-1.07-2.67-1.07-3.2a28,28,0,0,0-.87-2.67h-.2a7.31,7.31,0,0,0-4.27,2.67c-.53,1.06-3.2,2.13-4.8,3.73A22.67,22.67,0,0,0,249,78.79S229.77,93.73,221.22,96.4a12.16,12.16,0,0,1-5.87.54,5.57,5.57,0,0,0-3.2,0H209a30,30,0,0,1-9.61,9.07c-2.1,1.15-8,3.21-10.15,4.81s-2.13,4.8-5.34,6.41a58.31,58.31,0,0,0-7.45,4.91c1.91,2,3.77,4,4.25,4.69,1.07,1.61,1.6,2.14,3.74,4.81s1.6,1.07,4.27,2.14,4.27.53,3.74,2.66-5.34,8.55-5.34,8.55,3.47-.8,5.07,1.87,0,2.13,1.6,4.27-1.6,2.67-2.67,5.33-1.6,5.88-3.74,8-4.8,4.81-11.21,12.28-3.2.54-8,4.81-5.33,4.27-9.61,7.47S135.54,202.91,135.54,202.91Z" style="fill:#86ac98"/><path d="M85.62,167.94c3.2,0,3.74-2.13,5.87-2.13s2.14,1.07,5.88,1.6,8.54-2.67,12.28-2.67,4.8,1.07,7.47.53,2.13-7.47,6.94-8.54,8-.53,9.61.54,3.74-1.07,4.8-3.21,1.07-18.15,2.67-21.35-.53-7.48,0-10.15-1.06-6.4,2.14-6.94,4.27,0,4.8,1.07l.54,1.07s1.6-2.67,2.13-3.74c.34-.68.26-2.45,1.26-3.78l-.19,0c-4.27,1.07-5.87,2.67-8,3.21a14.23,14.23,0,0,0-4.27,2.13s-5.34,0-8,2.67c0,0-3.73-1.6-5.87,1.6a81.65,81.65,0,0,1-15,11.22c-2.68,1.57-6.94,3.73-9.61,8-1.2,1.92-20.82,20.83-43.24,33.64,0,0,4.8,4.27,9.08,5.34s.53,2.13,5.87,1.6.53-3.2,3.73-6.41S82.42,167.94,85.62,167.94Z" style="fill:#91b19b"/><path d="M340,111.62c-1.07-3.2-1.07-2.14-1.07-3.74s1.07-2.67-1.06-3.73-1.07-1.07-3.21-2.14-.53-1.6-2.13-1.07.53,2.14-1.6,1.6-2.14-.53-2.14-1.06.53-.54.53-2.14,1.07-.53,0-2.67-1.06-1.6-1.6-3.2-2.67-4.27-3.2-8,1.07-1.07-.53-4.27-1.07-4.27-1.61-4.81-1.6,1.07-1.6-1.6c0-1.74-.9-2.57-1.39-3.68-1.1,1-2.53,2.35-3.68,2.35-1.6,0-1.07-3.21-2.67-2.67l-1.6.53-1.07.54s-2.13-1.61-3.2-1.61a10,10,0,0,1-3.74-1.06c-1.07-.54,0-1.61-2.67-1.07a14.93,14.93,0,0,0-6.27,2.55,6.08,6.08,0,0,1,1.2,2.52c0,1.6,2.14,1.07,4.27,4.81a48.07,48.07,0,0,0,3.25,5.46c-1.05-.22-2-.33-2.18-.13-.53.54.53,2.67,0,3.74s-.53,3.2-.53,5.34v3.2c0,2.14-1.61,1.6,0,3.21a14.25,14.25,0,0,0,3.2,2.67c1.6,1.06-1.6-5.88-.54-6.41s2.67-.53,3.21,1.07,1.07,4.8,2.13,6.4.54,2.14,1.61,2.14,2.66-1.07,2.66,1.07,2.67,3.73,2.67,3.73a2.33,2.33,0,0,1-.53-1.6c0-1.07.53-4.27-.53-5.34s0-1.6-.54-3.73-1.07-1.61-1.07-3.21c0-1.06-.09-2.71-.16-3.69,1.1,1.26,2,2.29,2.3,2.63,1.07,1.06,2.14,1.06,3.74,3.73s2.67,1.6,3.2,3.21-1.07,2.67.53,5.87,1.61,4.27,3.21,4.8,1.6,0,2.13,1.07,4.27,4.27,4.27,4.27-1.6-2.13-1.6-3.74,1.07-1.06,0-2.66-2.67-2.67-2.67-3.74.54-1.6,1.07-2.67,1.07-1.6,1.6-.53.54,2.13,2.67,3.73,3.2,1.6,3.74,3.21a12.56,12.56,0,0,0,3.2,4.8c1.6,1.6,3.21,2.67,3.74,3.2S341.08,114.82,340,111.62Z" style="fill:#86ac98"/><path d="M379.79,250.69a22.91,22.91,0,0,1,9.07-2.13c4.81,0,9.08,1.6,11.21,0s2.14-1.07,4.81-3.2-1.07-3.74,6.94-3.74,13.34-.54,14.95-1.6,4.8-.54,5.34-3.74,3.73-2.14,1.06-5.87-1.06-4.81-3.73-5.34-2.14-4.81-7.48-7.48-3.74-2.67-7.47-4.8-2.67-2.67-5.88-5.34-18.68-13.88-26.69-21.36-11.74-9.6-17.08-15.48-6.41-1.07-9.08-10.67-3.2-9.08-8-18.16-9.07-8-9.61-13.34-2.67-6.41.54-5.34S344,129,345.62,130s2.67,4.27,4.8,4.27-1.07,4.27,6.41,6.94,3.2,3.74,5.87,7.47,8,6.94,10.15,9.08,11.21,7.47,12.81,8,13.35,8.54,18.15,12.81S418.76,187.7,423,189.3s11.74,5.34,20.82,8.54,0-1.6-5.87-4.8-2.14-4.81-6.94-5.88-17.09-9.07-20.29-12.28-5.87-7.47-10.14-11.21-3.74-3.2-6.41-8-3.74-8-.53-6.94,3.2,8,6.4,9.61,12.82,8.55,15.49,9.08,4.27,1.07,6.94,4.27,8,6.94,13.88,9.61,12.28,8.54,18.68,10.14,4.27,1.07,9.61,3.74,13.88,4.81,16.55,6.41,10.15,2.13,11.21,4.8,25.63,8.54,25.63,8.54l1.07,44.85s-20.29-31.5-27.23-32-8.54-2.14-17.62-4.81-16.55-6.4-19.75-7.47-8-.54-13.35-5.87-24-14.42-25.62-15.49,12.27,8,15.48,11.75,10.68,8,13.88,9.07,11.21,8,17.08,9.08,6.41,0,12.82,5.34,12.81,6.94,17.08,10.68,9.08,9.07,8,10.14-24-12.28-31.5-14.95-5.87-2.13-13.35-4.8-14.41-9.61-19.22-11.21,4.81,5.33,9.08,10.67,6.94,4.27,7.47,9.08-3.2,4.8-1.6,10.14,3.47,11.48-1.87,12.55-35-1.34-43-.8-20.29,3.73-25.63.53S379.79,250.69,379.79,250.69Z" style="fill:#86ac98"/><path d="M679.06,191.53s-97.7-28.29-215.69,35.24C454.54,231.53,387,277,362.47,285s-58.73,13.88-73.14,12.82-25.09-.54-43.24,5.33-80.62,23-123.86,33.1S35.21,349.56,19.72,356s-38.44,15.48-57.12,19.22-35.77-4.27-80.08,20.82-48,21.89-61.4,31.5-18.68,29.89-18.68,29.89l879.29.54Z" style="fill:#577977"/><path d="M92.49,235.31l-8.64,1.3L56.09,33.73a1.63,1.63,0,0,1,1.37-1.84h0a1.64,1.64,0,0,1,1.86,1.35Z" style="fill:#0b0915"/><polygon points="62.43 50.92 58.32 51.54 45.34 44.23 72.69 40.12 62.43 50.92" style="fill:#0b0915"/><path d="M104.53,219.9l-8.38,2.48L40.73,25.25a1.62,1.62,0,0,1,1.11-2h0a1.62,1.62,0,0,1,2,1.08Z" style="fill:#0b0915"/><polygon points="49.37 41.41 45.38 42.59 31.53 37.14 58.04 29.3 49.37 41.41" style="fill:#0b0915"/><path d="M163.64,141.72s4.57,67.46-.21,99.05c0,0-37.15,13-94,6-3-.5,4.48,18,4.48,18s-15.45,4.93-16.45,6.43-8-7.48-11-28.92S28.05,106.64,85.89,90.19c5-4,57.84,0,57.84,0s28.64,1,53,33c1.84,2.41,3.57,4.9,6,6.68l49.6-53.68,10,8c-.18.07-33.52,50.76-46.19,70.9a10.86,10.86,0,0,1-13.65,4.12Z" style="fill:#ef1e32"/><path d="M163.64,141.72s4.57,67.46-.21,99.05c0,0-37.15,13-94,6-3-.5,4.48,18,4.48,18s-15.45,4.93-16.45,6.43-8-7.48-11-28.92S28.05,106.64,85.89,90.19c5-4,57.84,0,57.84,0s28.64,1,53,33c1.84,2.41,3.57,4.9,6,6.68l49.6-53.68,10,8c-.18.07-33.52,50.76-46.19,70.9a10.86,10.86,0,0,1-13.65,4.12Z" style="opacity:0.5;fill:url(#e)"/><polygon points="141.1 64.85 139.51 93.88 134.33 103.85 98.18 106.34 83.75 97.8 82.94 83.9 81.17 55.33 121.91 50.42 141.1 64.85" style="fill:#fdccaa"/><path d="M90.34,63.8a2.73,2.73,0,0,1,1-.29c.4,0,.75,0,1.15,0a21.87,21.87,0,0,0,3-.08,6.14,6.14,0,0,1,1.11-.11,4.31,4.31,0,0,0,.87-.07c.69-.1,1.33.1,2,0,.42-.07.79,0,1.22,0s1,0,1.49-.09a2.79,2.79,0,0,1,1.89.59c.35.22.49.24.58.66,0,.27.08.54.12.81.07.44.14.88.22,1.32a4.38,4.38,0,0,1,.1.8,2,2,0,0,1-.54,1.15,4.62,4.62,0,0,1-3.83,1.56c-1.29,0-2.56,0-3.85-.06a7,7,0,0,1-1.3,0,8.43,8.43,0,0,0-1.55-.34c-.75,0-1.37-.29-2.11-.35s-1.35-.2-2-.3a5.53,5.53,0,0,1-2.06-.62,3.55,3.55,0,0,1-1.17-1.88,1.89,1.89,0,0,1,.61-2.22A3.28,3.28,0,0,1,90.07,64" style="fill:#0b0915"/><path d="M92.72,76.27c1.64-2.12,4.41-1.52,6.35-.18.28.2.56-.27.27-.47-2.12-1.47-5.21-2.05-7,.27-.21.27.17.65.39.38Z"/><path d="M96.07,73.4c.24.25-.27.56-.44.61-.35.08-.34-.44-.38-.69s-.09-.46.3-.52.58,0,.69.35a1.85,1.85,0,0,1,.1.44c0,.41-.2.3-.25.09s.42-.4.42-.06a.49.49,0,0,1-.81.32.55.55,0,0,1-.13-.18.75.75,0,0,1-.07-.12c0-.16-.09-.11-.18.13.48-.18.27-1-.21-.77-.64.24-.44.91-.12,1.34a1.3,1.3,0,0,0,1.86.23A1.22,1.22,0,0,0,97,72.83a1.16,1.16,0,0,0-1.69.34,1.14,1.14,0,0,0,.86,1.52c1,0,1-1.1.82-1.75A1.26,1.26,0,0,0,95.39,72c-.84.13-1,.65-.92,1.45a1.75,1.75,0,0,0,.46,1.19,1,1,0,0,0,1.19,0,1.5,1.5,0,0,0,.74-.73,1.08,1.08,0,0,0-.22-1.09c-.37-.37-.94.2-.57.56Z"/><path d="M133.78,63.8a2.78,2.78,0,0,0-1-.29c-.39,0-.75,0-1.15,0a21.91,21.91,0,0,1-3-.08,6,6,0,0,0-1.1-.11,4.41,4.41,0,0,1-.88-.07c-.68-.1-1.32.1-2,0-.42-.07-.79,0-1.22,0s-1,0-1.48-.09a2.82,2.82,0,0,0-1.9.59c-.34.22-.49.24-.57.66,0,.27-.08.54-.13.81l-.21,1.32a3.65,3.65,0,0,0-.1.8,1.89,1.89,0,0,0,.53,1.15,4.64,4.64,0,0,0,3.84,1.56c1.29,0,2.56,0,3.84-.06a7.15,7.15,0,0,0,1.31,0,8.43,8.43,0,0,1,1.55-.34c.74,0,1.36-.29,2.1-.35s1.36-.2,2-.3a5.58,5.58,0,0,0,2.07-.62,3.68,3.68,0,0,0,1.17-1.88,1.9,1.9,0,0,0-.61-2.22,3.29,3.29,0,0,0-2.76-.15" style="fill:#0b0915"/><path d="M128.78,75.89c-1.8-2.32-4.89-1.74-7-.27-.28.2,0,.67.28.47,1.94-1.34,4.7-1.94,6.35.18.21.27.59-.11.38-.38Z"/><path d="M124.48,72.84c-1.21,1.2,1.54,3,2.06,1.24.17-.6.37-1.61-.34-1.93a1.56,1.56,0,0,0-1.88.27,1.61,1.61,0,0,0,.06,2.07c.64.5,1.4-.13,1.47-.83a1,1,0,1,0-1.91.52,1.31,1.31,0,0,0,2.08.29c.4-.41.68-1.21,0-1.47-.48-.18-.69.59-.21.77-.09-.24-.14-.29-.17-.13l-.05.08a2.26,2.26,0,0,1-.13.2.49.49,0,0,1-.82-.23c-.07-.42.48-.32.41,0s-.23.37-.25-.09a1.38,1.38,0,0,1,.09-.44c.11-.36.34-.4.7-.35s.34.1.3.45,0,.77-.29.8-.76-.42-.53-.65-.21-.93-.57-.56Z"/><path d="M83.88,62.87s0,.16,0,.44c.19,5.22,1.49,27.31,5.27,31.15,2.84,2.88,6.44,3.45,10.32,3.09a198.58,198.58,0,0,1,21.67-1c2,0,4.09.1,6.13.2,3.44.17,7.39.26,9.72-2.29a9.72,9.72,0,0,0,2.07-5.38c.49-3.51.39-23.12-.27-26.6,1.23.76,2.55,1.61,3,3,.58,1.61-.08,19.57-.12,21.22a27.83,27.83,0,0,0,.74,6.75c1,4.41,2.67,8.62,4,12.94a68,68,0,0,1,2.73,15.82,19.31,19.31,0,0,1-.48,6.48c-.85,2.92-4.18,8.65-7.92,7.82a3.34,3.34,0,0,1-2.88-3.6s.9,7.38-3.78,8.1-4-4-5-4.32-1.8,5.76-5,7.56-5.75,1.07-6.11-2.88-.72-2.52-1.44-1.44,1.44,9.35-6.12,7.19c-4.68-1.44-4.68-7.19-4.68-7.19a14.9,14.9,0,0,1-1.08,4c-1.07,2.05-5.72,1.21-7.91-4-.6-1.41-1.8-4.32-1.8-4.32s-.72,5-1.8,5.4-5.76-4-6.12-4.68-2.13-5.34-2.16-5.4c.52,1.34-.18,4.52-1.87,4.46-2.32-.1-4-6-4.64-7.71a34.59,34.59,0,0,1-.69-20.75c1.11-3.93,2.93-7.65,3.89-11.63.69-2.88-.69-24.59-1.09-27.53C79.92,64.28,81.83,65.56,83.88,62.87Z" style="fill:#3a3f49"/><path d="M84.16,62.93s0,.16,0,.45c.19,5.26,1.5,27.54,5.31,31.4,2.87,2.91,6.49,3.49,10.41,3.12a201.89,201.89,0,0,1,21.85-1c2.06,0,4.12.1,6.18.21,3.48.17,7.46.25,9.81-2.31a9.87,9.87,0,0,0,2.09-5.43c.49-3.54.39-23.32-.28-26.83,1.24.77,2.57,1.63,3.06,3,.59,1.63-.08,19.74-.12,21.4a27.82,27.82,0,0,0,.74,6.81c1,4.45,2.7,8.69,4,13a69.14,69.14,0,0,1,2.76,16,19.94,19.94,0,0,1-.49,6.54c-.86,2.94-4.22,8.72-8,7.88a3.37,3.37,0,0,1-2.91-3.63s.91,7.44-3.81,8.17-4-4-5.08-4.36-1.81,5.81-5.08,7.63-5.8,1.08-6.17-2.91-.72-2.54-1.45-1.45,1.45,9.44-6.17,7.26c-4.71-1.45-4.71-7.26-4.71-7.26a15.28,15.28,0,0,1-1.09,4c-1.09,2.08-5.78,1.22-8-4-.6-1.42-1.81-4.35-1.81-4.35s-.73,5.08-1.82,5.44-5.8-4-6.17-4.72-2.15-5.38-2.17-5.44c.52,1.35-.18,4.56-1.89,4.49-2.34-.09-4.06-6-4.68-7.77a34.94,34.94,0,0,1-.7-20.93c1.13-4,3-7.71,3.92-11.72.7-2.91-.69-24.81-1.09-27.77C80.16,64.35,82.08,65.64,84.16,62.93Z" style="opacity:0.1;fill:url(#f)"/><path d="M112.13,94s8.07-10.56,21.11,3.73c3.11,1.24,5,5,8.07,3.72s1.87,7.46-17.38,7.46c-3.54.86-9.85-5.46-11.8-9.32-.63-1.24-9.94,15.53-28.57,7.45-2.48,0-3.72-4.34-3.72-4.34s5,.62,7.45-1.25S99.09,82.83,112.13,94Z" style="fill:#3a3f49"/><path d="M106.76,94.06a5.2,5.2,0,0,1-.75-3.74c.38-2.25,2.25-5.62,2.25-8.24s1.5-6.73,2.62-7.11,3.37,1.5,3.37,3.37a35.72,35.72,0,0,0,1.12,7.11c.38,1.13,1.87,7.49,1.13,8.61s-3.37,0-3.37,0-.75,1.87-1.5,1.87-2.25-1.49-2.25-1.49A2.3,2.3,0,0,1,106.76,94.06Z" style="fill:#b98f6e"/><path d="M69.28,248c-3.14-24.46-5.26-50-2.51-74.59.06-.6-.88-.59-1,0C63.08,198,65.19,223.55,68.34,248c.07.6,1,.61.94,0Z"/><path d="M161.65,248c3.14-24.46,5.25-50,2.51-74.59-.07-.59-1-.6-.94,0,2.74,24.57.63,50.13-2.52,74.59-.07.6.87.6,1,0Z"/><path d="M115.44,143.77c1.17,2.19,1.19,5.49,1.61,7.9.5,3,1.33,5.8,1.67,8.76.53,4.53,1.28,9,1.52,13.58.27,5.42-.75,10.47-1.6,15.78-1.45,9.13-.4,18.08-.18,27.27.25,10.86,1.94,21.64,2.16,32.48a.48.48,0,0,0,.95,0c-.45-21.66-4.84-43.16-1.15-64.73,1.48-8.68.64-17.6-.82-26.23-.48-2.85-1.38-5.65-1.88-8.52-.36-2.12-.43-4.84-1.46-6.77-.29-.53-1.11-.06-.82.48Z"/><path d="M137.81,69.43a26.85,26.85,0,0,0-13.88-2.52,12.7,12.7,0,0,0-7.22,2.1,6.26,6.26,0,0,0-2.4,4.23,4.58,4.58,0,0,0-6-.12s0,.37,0,.83c0-.37,0-.73-.1-1.08a6.28,6.28,0,0,0-2.4-4.23c-2-1.55-4.74-2-7.22-2.1a27,27,0,0,0-13.88,2.52c-1.83.87-1.88,2.71-1.51,4.57.22,1.09,2.52,2.3,2.52,2.3a15.62,15.62,0,0,1,.29,2.32,14.59,14.59,0,0,0,1.81,4.88c2.79,4.56,8.84,5.27,13.55,3.61a9.69,9.69,0,0,0,4.58-3.64,15.3,15.3,0,0,0,2.35-7.37s0,0,0-.15c2.51-2.77,5.33-.62,5.92-.1a15.55,15.55,0,0,0,2.38,8,9.69,9.69,0,0,0,4.58,3.64c4.71,1.65,10.76,1,13.55-3.61a14.76,14.76,0,0,0,1.81-4.88,15.62,15.62,0,0,1,.29-2.32s2.3-1.21,2.52-2.31C139.69,72.14,139.64,70.3,137.81,69.43ZM91.47,84.78a9.67,9.67,0,0,1-3.89-5.36c-.78-2.45-1.62-6.67.26-8.85,1.25-1.45,3.37-2,5.18-2.28a41.05,41.05,0,0,1,9.07,0c5,.28,4.93,5.81,5,7.34C107.7,83.62,98.05,88.89,91.47,84.78Zm43.4-5A9.62,9.62,0,0,1,131,85.15C124.4,89.26,114.75,84,115.32,76c.11-1.54,0-7.07,5-7.35a40.54,40.54,0,0,1,9.08,0c1.81.29,3.92.83,5.17,2.28C136.5,73.11,135.65,77.34,134.87,79.79Z" style="fill:#005d6d"/><path d="M79.42,58.4s0-27.09,25.83-27.09c6.93-1.26,35.91-1.89,35.91,22.68C140.53,59.66,79.42,58.4,79.42,58.4Z" style="fill:#3e292f"/><path d="M80.05,68.48s27.09-18.9,61.11,0c5,2.52.63-13.86,0-14.49S104.62,34.46,80.05,58.4C78.16,59.66,80.05,68.48,80.05,68.48Z" style="fill:#3e292f"/><path d="M79.8,68s27.09-18.91,61.12,0c5,2.52.63-13.87,0-14.5S104.37,34,79.8,58C77.91,59.21,79.8,68,79.8,68Z" style="fill:url(#g)"/><path d="M113.93,161.21c-1.21,1.2,1.54,3,2.06,1.24.17-.61.37-1.61-.34-1.93a1.56,1.56,0,0,0-1.88.27,1.63,1.63,0,0,0,0,2.07c.65.5,1.41-.13,1.48-.84a1,1,0,1,0-1.91.52,1.31,1.31,0,0,0,2.08.3c.4-.41.68-1.21,0-1.47-.48-.18-.69.59-.21.77-.09-.24-.15-.29-.17-.14l0,.09a2.43,2.43,0,0,1-.14.2.48.48,0,0,1-.81-.23c-.08-.43.48-.32.41,0s-.23.37-.25-.09a1.38,1.38,0,0,1,.09-.44c.11-.36.34-.4.7-.35s.34.1.3.45c0,.2,0,.76-.29.8s-.76-.42-.53-.65-.21-.93-.57-.56Z"/><path d="M114.52,178.24c-1.2,1.21,1.55,3,2.06,1.25.18-.61.38-1.61-.33-1.94a1.59,1.59,0,0,0-1.89.28,1.64,1.64,0,0,0,.06,2.07c.64.5,1.41-.13,1.48-.84a1.05,1.05,0,0,0-1.35-1,1,1,0,0,0-.57,1.54,1.31,1.31,0,0,0,2.08.3c.4-.42.68-1.21,0-1.47-.49-.18-.69.59-.21.77-.09-.24-.15-.29-.18-.14l0,.09c-.06.06-.08.14-.14.2a.49.49,0,0,1-.82-.23.22.22,0,1,1,.41,0c0,.19-.23.37-.25-.09a1.4,1.4,0,0,1,.1-.44c.1-.36.34-.4.69-.35s.35.1.31.45,0,.76-.3.8-.76-.42-.53-.65-.2-.93-.57-.57Z"/><path d="M113.48,191.36c-1.21,1.2,1.54,3,2.06,1.25.17-.61.37-1.61-.34-1.94a1.58,1.58,0,0,0-1.89.28,1.64,1.64,0,0,0,.06,2.07c.65.5,1.41-.13,1.48-.84a1,1,0,1,0-1.91.52,1.31,1.31,0,0,0,2.08.3c.4-.42.67-1.21,0-1.47-.48-.19-.69.59-.21.77-.09-.25-.15-.29-.18-.14l0,.08c0,.06-.08.15-.14.21a.48.48,0,0,1-.81-.23c-.08-.43.48-.33.4,0s-.22.37-.25-.08a1.57,1.57,0,0,1,.1-.44c.11-.36.34-.41.69-.35s.35.09.31.45c0,.2,0,.76-.3.79s-.76-.41-.53-.64a.4.4,0,0,0-.56-.57Z"/><path d="M112.88,150.43c-1.2,1.2,1.55,3,2.06,1.24.18-.61.37-1.61-.33-1.93a1.58,1.58,0,0,0-1.89.27,1.63,1.63,0,0,0,.06,2.07c.64.5,1.41-.13,1.48-.84a1.05,1.05,0,0,0-1.35-1,1,1,0,0,0-.57,1.54,1.31,1.31,0,0,0,2.08.3c.4-.41.68-1.21,0-1.47-.49-.18-.7.59-.22.77-.08-.24-.14-.29-.17-.14l0,.09a2.26,2.26,0,0,1-.13.2.49.49,0,0,1-.82-.23.22.22,0,1,1,.41,0c-.05.19-.23.37-.25-.09a1.72,1.72,0,0,1,.09-.44c.11-.36.35-.4.7-.35s.35.1.31.45c0,.2,0,.76-.3.8s-.76-.42-.53-.65a.4.4,0,0,0-.57-.56Z"/><path d="M61.92,105.52s4.36-8.11,11.23-10.61,3.12,79.26-7.49,104.23C61.92,206,61.92,105.52,61.92,105.52Z" style="fill:#004652"/><path d="M162.81,96.79A84.36,84.36,0,0,0,149,89.92c-6.86-2.49,4,80.51,14.63,105.47C167.38,202.26,162.81,96.79,162.81,96.79Z" style="fill:#004652"/><path d="M106.47,106.33s5.35,5.35,9.15,0C116.89,105.91,112.1,120.41,106.47,106.33Z" style="fill:#e3dad2"/></g><path d="M260.07,82s12.82-6.13,13.24-8.58-3.65-.41-3.65-.41,5.44-2,5.14-4.07-5.85.24-5.85.24,4.84-2.27,4.6-4.24-3.71.06-5.2.36,5-2.86,1.63-3.61-9,4.48-9,4.48,3.23-6.14-.06-4.49-8,14.73-8,14.73Z" style="fill:#fdccaa"/></svg>