<svg xmlns="http://www.w3.org/2000/svg" width="250" height="250" viewBox="0 0 250 250"><title>s3s4c20</title><rect x="-3512.66" width="4304.16" height="254" style="fill:#355151"/><circle cx="121.25" cy="120.36" r="75.25" style="fill:#abc4ab"/><rect x="66.89" y="142.09" width="115.06" height="35.55" style="fill:#355151"/><path d="M86.83,169.36A10.77,10.77,0,0,1,83.42,172a9.24,9.24,0,0,1-4,.87,7.9,7.9,0,0,1-6.28-2.67,7.31,7.31,0,0,1-1.88-4.87A6.78,6.78,0,0,1,72.81,161a12.88,12.88,0,0,1,4.6-3.38,15.35,15.35,0,0,1-2.32-3.25,5.7,5.7,0,0,1-.58-2.41,5.36,5.36,0,0,1,1.82-4,6.42,6.42,0,0,1,4.58-1.71,6,6,0,0,1,4.31,1.62,5.2,5.2,0,0,1,1.68,3.88q0,3.67-4.87,6.28l4.62,5.89a14.4,14.4,0,0,0,1.23-3.59l3.29.7a17.9,17.9,0,0,1-2.28,5.56,18.11,18.11,0,0,0,4,3.95L90.79,173A18.52,18.52,0,0,1,86.83,169.36Zm-2-2.5L79,159.67a11.18,11.18,0,0,0-3.46,2.84,4.56,4.56,0,0,0-.9,2.59,5.55,5.55,0,0,0,1.25,3.26A4.14,4.14,0,0,0,79.46,170a5.85,5.85,0,0,0,3-.88A7.25,7.25,0,0,0,84.84,166.86ZM80.4,155.93a8.37,8.37,0,0,0,2.66-2.13,3.61,3.61,0,0,0,.61-2,2.89,2.89,0,0,0-.84-2.15,2.82,2.82,0,0,0-2.08-.84,3,3,0,0,0-2.14.83,2.69,2.69,0,0,0-.85,2,2.92,2.92,0,0,0,.31,1.26,6.27,6.27,0,0,0,.92,1.39Z" style="fill:#abc4ab"/><path d="M102.7,176.11v-3.17a11.48,11.48,0,0,1-3.86-1.06,6.69,6.69,0,0,1-2.56-2.47A8.87,8.87,0,0,1,95,165.25l3.18-.6a8.07,8.07,0,0,0,1.3,3.74,4.6,4.6,0,0,0,3.2,1.88V160.2a13.37,13.37,0,0,1-4-1.51,5.89,5.89,0,0,1-2.33-2.34,7,7,0,0,1-.81-3.39A6.91,6.91,0,0,1,98,147.49a8.27,8.27,0,0,1,4.74-1.72v-1.51h1.87v1.51a7.67,7.67,0,0,1,4.37,1.62,7.13,7.13,0,0,1,2.5,4.72l-3.27.5a5.43,5.43,0,0,0-1.17-2.86,4.3,4.3,0,0,0-2.43-1.31v9.12a24,24,0,0,1,3.16.94,7.82,7.82,0,0,1,2.41,1.58,6.34,6.34,0,0,1,1.43,2.21,7.46,7.46,0,0,1,.5,2.78,7.6,7.6,0,0,1-7.5,7.84v3.2Zm0-27.7a4.64,4.64,0,0,0-2.91,1.47,4.39,4.39,0,0,0-.15,5.54,6.15,6.15,0,0,0,3.06,1.74Zm1.87,21.86a4.67,4.67,0,0,0,3.05-1.6,5,5,0,0,0,1.2-3.39,4.24,4.24,0,0,0-.85-2.77,7.33,7.33,0,0,0-3.4-1.87Z" style="fill:#abc4ab"/><path d="M117.82,166l-1-13.66v-5.71h3.92v5.71L119.86,166Zm-.83,6.4v-3.6h3.64v3.6Z" style="fill:#abc4ab"/><path d="M125.57,172.84l1.53-7.49h-3v-2.62h3.5l1.3-6.38h-4.8v-2.62h5.33l1.53-7.54h2.63l-1.53,7.54h5.54l1.53-7.54h2.65l-1.52,7.54h3v2.62h-3.57l-1.32,6.38h4.89v2.62h-5.42l-1.53,7.49h-2.63l1.51-7.49h-5.52l-1.53,7.49Zm4.7-10.11h5.52l1.31-6.38h-5.53Z" style="fill:#abc4ab"/><path d="M145.88,152.82a7.89,7.89,0,0,1,1.38-4.7,4.65,4.65,0,0,1,4-1.93,5.24,5.24,0,0,1,4,1.73,8.82,8.82,0,0,1,0,10.13,5.18,5.18,0,0,1-4,1.76,5,5,0,0,1-3.89-1.74A7.66,7.66,0,0,1,145.88,152.82Zm5.5-4.45a2.37,2.37,0,0,0-2,1,6.46,6.46,0,0,0-.79,3.74,5.76,5.76,0,0,0,.8,3.49,2.36,2.36,0,0,0,1.95,1,2.39,2.39,0,0,0,2-1,6.33,6.33,0,0,0,.79-3.72,5.89,5.89,0,0,0-.79-3.51A2.43,2.43,0,0,0,151.38,148.37Zm0,25,14.1-27.16h2.57L154,173.35Zm11.15-7a7.78,7.78,0,0,1,1.39-4.7,4.67,4.67,0,0,1,4-1.92,5.2,5.2,0,0,1,4,1.73,8.8,8.8,0,0,1,0,10.12,5.16,5.16,0,0,1-4,1.77,5,5,0,0,1-3.9-1.75A7.75,7.75,0,0,1,162.54,166.35Zm5.52-4.44a2.41,2.41,0,0,0-2,1,6.49,6.49,0,0,0-.78,3.75,5.79,5.79,0,0,0,.79,3.48,2.39,2.39,0,0,0,1.95,1,2.43,2.43,0,0,0,2-1,6.44,6.44,0,0,0,.78-3.73,5.87,5.87,0,0,0-.79-3.5A2.4,2.4,0,0,0,168.06,161.91Z" style="fill:#abc4ab"/><path d="M173.35,93.08a1.76,1.76,0,0,1,.39,1.21c-.17,4.92-1.76,6.08-6.91,5.36-6.48-.9-11.78,1.87-14.87,7.76-1.59,3-4.22,4.19-6.73,3s-3-4.13-1.51-7.25a24.31,24.31,0,0,1,8.63-9.72c4.72-2.34,9.61-3.74,15-3.06C169.67,90.66,171.8,91.27,173.35,93.08Z" style="fill:#355151"/><path d="M70.83,93.08a1.76,1.76,0,0,0-.39,1.21c.17,4.92,1.76,6.08,6.91,5.36,6.48-.9,11.78,1.87,14.87,7.76,1.59,3,4.22,4.19,6.72,3s3-4.13,1.52-7.25a24.39,24.39,0,0,0-8.63-9.72c-4.72-2.34-9.62-3.74-15-3.06C74.51,90.66,72.38,91.27,70.83,93.08Z" style="fill:#355151"/><path d="M96.87,120.58A12.37,12.37,0,0,1,84.48,133a12.51,12.51,0,1,1,.28-25A12.39,12.39,0,0,1,96.87,120.58Z" style="fill:#355151"/><path d="M171.86,120.33A12.39,12.39,0,0,1,159.72,133a12.51,12.51,0,1,1-.23-25A12.37,12.37,0,0,1,171.86,120.33Z" style="fill:#355151"/></svg>