<svg xmlns="http://www.w3.org/2000/svg" xmlns:xlink="http://www.w3.org/1999/xlink" width="250" height="250" viewBox="0 0 250 250"><defs><clipPath id="a"><rect x="-846.5" y="-660.5" width="504" height="498" style="fill:none"/></clipPath></defs><title>s3s2c10</title><g style="clip-path:url(#a)"><path d="M48.32-177.5s-285-2-353-4-123-6-147-2-145-2-179,2-12-5-115-5-178,6-215,4-100,8-131,8-157,2-186,2h-39l-14,375,1394-14Z" style="fill:#698b87"/></g><rect x="-1082.66" width="2148.16" height="254" style="fill:#355151"/><ellipse cx="98.45" cy="114.3" rx="55.95" ry="25.8" style="fill:#abc4ab"/><polygon points="93.47 127.66 51.2 163.09 66.12 135.74 93.47 127.66" style="fill:#abc4ab"/><ellipse cx="147.55" cy="136.68" rx="55.95" ry="25.8" style="fill:#abc4ab"/><polygon points="148.8 150.04 191.07 185.47 176.15 158.12 148.8 150.04" style="fill:#abc4ab"/></svg>