<svg xmlns="http://www.w3.org/2000/svg" width="250" height="250" viewBox="0 0 250 250"><title>s3s2c20</title><rect x="-1352.66" width="2148.16" height="254" style="fill:#355151"/><path d="M65.65,195.76,55.61,176l110.11-55.92,10,19.76Z" style="fill:#abc4ab"/><path d="M150.67,35.22c.06.62.12.94.12,1.27.06,5.48,2.6,9.62,7,12.73,3.88,2.78,7.82,5.48,11.69,8.28A39.92,39.92,0,0,1,185.25,82c1.95,8.88.31,17.33-4.14,25.23a8.92,8.92,0,0,1-1.76,2.16,1.14,1.14,0,0,1-2-.53,14.7,14.7,0,0,1-.61-3.42c-.22-3.83-.28-7.67-.55-11.49a50.45,50.45,0,0,0-4-17.26c-2.35-5.27-6.13-9.38-10.29-13.24a111.91,111.91,0,0,1-9.41-9.19c-4.43-5.2-5.34-11.2-2.67-17.61a7.61,7.61,0,0,1,.4-.81A5.63,5.63,0,0,1,150.67,35.22Z" style="fill:#abc4ab"/><path d="M184.74,135.3l-6,3-10-19.77,6-3Z" style="fill:#abc4ab"/><path d="M192.79,131.21l-5.94,3-10-19.76,5.95-3Z" style="fill:#abc4ab"/></svg>