<svg xmlns="http://www.w3.org/2000/svg" xmlns:xlink="http://www.w3.org/1999/xlink" width="250" height="250" viewBox="0 0 250 250"><defs><clipPath id="a"><rect x="-0.49" y="-2.5" width="253.13" height="250.59" style="fill:none"/></clipPath><clipPath id="b"><rect x="-271.35" y="0.62" width="253.4" height="247.77" style="fill:none"/></clipPath><clipPath id="c"><rect x="269.24" y="-1.38" width="251.15" height="251.15" style="fill:none"/></clipPath></defs><title>s6s3thumb0</title><g style="clip-path:url(#a)"><path d="M453,74.28S414.79,61,409.32,59.44s-10.15-4.68-15.61-7-3.91-4.69-9.37-9.37-10.93-5.47-14.83-8.59,1.56.78-16.4-8.59S318,11.82,311,1.67,283.63-18.63,277.39-28s-10.93-14.84-15.62-17.18-7-10.15-9.37-10.15-5.85-2.73-8.19-3.51a23,23,0,0,1-4.69-2.34s-13.27-7-14.83-10.15-3.12-7-5.47-10.15-11.71-8.59-16.39-14.83-5.46-3.91-8.59-8.59-4.68-3.9-10.93-11.71-9.37-11.71-10.93-10.93-4.68,4.68-7,4.68-1.56-4.68-3.91-3.9l-2.34.78-1.56.78s-3.12-2.34-4.68-2.34a14.51,14.51,0,0,1-5.47-1.56c-1.56-.78,0-2.34-3.9-1.56s-7.81,2.34-9.37,3.9l-1.56,1.56s-.78-1.56-4.69-1.56-4.68,0-6.24.78-.78.78-3.12,1.56,0,.78-3.13,1.56-5.46-.78-8.58-1.56-1.57-.78-4.69-.78H95.88c-1.56,0-3.13-.78-5.47-2.34A8.41,8.41,0,0,0,85-129.09c-1.56,0-5.47,2.34-6.25,3.9s-4.68,3.12-7,5.47A34.23,34.23,0,0,0,67.77-115S39.67-93.18,27.18-89.28c-1.49.47-5.47,1.56-8.59.78s-3.9,0-4.68,0H9.22s-5.46,8.59-14,13.27c-3.07,1.68-11.71,4.69-14.83,7s-3.13,7-7.81,9.37S-39.18-51-39.18-51-60.26-61.95-61.82-63.51s-2.34-1.57-5.47-3.13-.78-3.9-7-2.34S-82.9-65.08-86-64.3a21.06,21.06,0,0,0-6.25,3.13s-7.8,0-11.71,3.9c0,0-5.46-2.34-8.59,2.34a119.61,119.61,0,0,1-21.85,16.4c-3.93,2.3-10.15,5.46-14.06,11.71-1.75,2.81-30.44,30.44-63.23,49.18-1.36.77-2.34-2.34-5.47-.78s-5.46,3.12-11.71,2.34-.78-3.12-7.8-.78-7,4.68-13.28,7.81-6.24,3.9-11.71,5.46-6.24,0-10.14.78-3.13,3.91-6.25,5.47-14.83,1.56-20.3,6.24c-1.32,1.14-9.37,3.91-16.39,4.69s-5.47,6.24-10.93,5.46-7-2.34-10.15-.78-5.46,6.25-7.81,7a49.72,49.72,0,0,1-7,1.56c-3.91.78-5.47-.78-6.25.78s1.56,2.34-1.56,3.12-3.9.78-4.68,3.13,1.56,2.34-2.35,3.12-7,.78-10.93,1.56-13.27,3.12-17.95,3.12-4.69-1.56-8.59,0-14,3.12-14.83,3.91a45.51,45.51,0,0,1-4.69,3.12c-2.34,1.56-7.8,9.37-9.36,10.15s-10.15-1.56-13.28,0-24.2,7-24.2,7l-73.38,11.71-25,36.7L-183.61,159l637,7Z" style="fill:#abc4ab"/><path d="M-98.12,66.47a62.2,62.2,0,0,0,3.9,7.81c2.34,3.9,7.81,5.46,11.71,8.58s9.37,12.49,13.27,15.62,0,2.34-.78,6.24,0,3.12.78,4.69,14,14,17.18,15.61,1.56,1.56,11.71,7.81a32.36,32.36,0,0,1,13.27,15.61l54.26.39,89-7s5.47-2.34,6.25-4.68-3.12-7-3.12-7l3.9-12.49s-5.46-4.68-7.81-6.24.78-7.81.78-12.49-4.68-4.69-7.8-6.25-2.34-5.46.78-11.71,0-12.49,0-12.49-3.91,5.47-4.69,7-7,4.68-17.17,9.36-7,5.47-9.37,7,2.34,21.86-3.12,5.47S72.46,89.5,70.11,85.6s.78-3.91.78-9.37-1.56-12.49-3.12-15.62S70.11,52,70.89,49.68s2.35-13.27,5.47-17.95S85,20,90.41,18.46,93.53,13,95.1,9.09a64.73,64.73,0,0,1,7-11.71c.78-.78.78-7.81.78-10.93s4.69-10.15,7.81-14,.78-3.13,2.34-6.25,7.81-7.81,7.81-7.81,9.37,3.13,13.27,7.81,1.56,1.56,3.12,2.34.78,4.69,2.34,8.59a18.22,18.22,0,0,1,1.57,8.59V-1.84c0,3.9,1.56,10.15,1.56,12.49A68,68,0,0,0,145.84,27c2.34,7.81,3.9,7.81,3.9,10.93s4.69,7,5.47,17.18,5.46,14.05,5.46,14.05,2.35,5.47,3.91,5.47,5.46,5.46,6.24,8.58,3.12,4.69,7.81,11.71,0,0,2.34,3.13a35.42,35.42,0,0,1,4.69,7c3.12,5.47-1.57,5.47-1.57,5.47l8.59,19.51-1.56,12.49s7,1.57,10.15,0,4.68,0,4.68,0,4.69,1.57,7,1.57,3.12-.78,3.9-2.35,0-4.68.78-10.14a16.17,16.17,0,0,0-2.34-10.15,71.76,71.76,0,0,1,7,2.34c1.56.78,9.37,3.9,9.37,3.9s.78,10.15,0,15.62,5.46.78,6.24,0,3.12-.79,4.68-3.13,0-3.9,0-6.24,4.69-1.56,5.47-2.34a12.27,12.27,0,0,0,3.12-7.81c0-3.9,3.91-7.81,6.25-9.37s5.46-3.9,5.46-3.9l2.34-6.25a20.49,20.49,0,0,1,2.35-5.46c1.56-2.35,4.68-4.69,4.68-7.81a60.75,60.75,0,0,0-.78-7c0-.78-7-2.34-8.59-2.34s-5.46-.78-7-.78-5.47-.78-7-.78S237.18,84,237.18,84a85.71,85.71,0,0,0-6.25,8.59c-2.34,3.9-.78,5.47.79,11.71s-.79,4.69-3.91,7-7,.78-7,.78-10.93-3.12-12.5-5.47,0-10.15,0-12.49-11.71,1.56-11.71,1.56-3.12-7-2.34-10.93-2.34-7-3.12-9.36-7-5.47-8.59-10.15-7-3.91-8.59-8.59,2.35-7,3.91-9.37S181,38,181.75,33.29s4.69-9.37,5.47-14-1.56-11.71-3.13-16.4-6.24-7.8-6.24-5.46.78,2.34,1.56,7.81.78,4.68.78,9.36-3.9,10.15-3.12,15.62-10.15,16.39-10.15,16.39-6.25-.78-8.59-3.12,0-6.25-2.34-7.81-7-21.08-7.81-35.91S146.62-5,146.62-5s-3.12-14.84-3.9-24.2,0-6.25,2.34-16.4-.78-6.24-.78-10.15,1.56-10.15,1.56-14.05-4.68-6.25-10.15-3.9-10.93,3.9-12.49,3.9-3.9,3.9-3.9,7,5.46,7,1.56,10.14-9.37-.78-14,.79-3.13,7.8-3.91,12.49,0,3.12,0,7.8S99-22.14,99-22.14L95.1-19a5.8,5.8,0,0,1-2.35,2.35c-1.56.78-2.34,7.8-2.34,7.8S88.85,1.28,86.51,5.19s-3.9-.79-7,0-.78,2.34-4.68,7S69.33,20,67,22.36s-3.9,6.25-8.59,10.93-.78,2.34-1.56,9.37-1.56,3.12-4.68,10.93,0,0,0,7S49.82,77.79,49,81.69s0,2.34,2.34,5.47,2.34,9.36,2.34,9.36-1.56,3.13-7,7a9.48,9.48,0,0,0-3.85,4.78,9.27,9.27,0,0,0-.83-2.44,63.94,63.94,0,0,1-3.12-8.58s-.78-8.59,0-10.93-.78-2.35-2.35-5.47-.78-9.37-4.68-8.59,0,2.35-.78,5.47-.78,8.59-1.56,12.49,1.56,5.46,1.56,8.59,0,9.37-.78,13.27-11.71,15.61-11.71,15.61a32.8,32.8,0,0,1-1.56-3.9c-.78-2.34,0-4.69,0-7s-4.69-4.68-8.59-7-3.12-4.69-3.12-4.69a40,40,0,0,0-.78-7.8c-.78-3.13,3.12-9.37,3.9-10.93S4.54,82.47-.15,84-3.27,95-5.61,97.31s-7.81,3.9-7.81,3.9l-3.9-3.12a20.64,20.64,0,0,1,.78-5.47c.78-2.34-.78-3.9-1.56-3.9s-2.34-3.91-2.34-3.91l-3.91-4.68-8.59,7.81-10.93-.78-3.9-8.59L-54,72.32l10.14-13.27,9.37-8.59,2.35-3.9,7.8-3.9,4.69-2.34,10.93-5.47,7-3.12,3.12-3.12L3,23.92s3.9-3.12,5.46-4.68,5.47-1.56,5.47-1.56l7.8-7S31.08.5,35-.28s1.56,1.56,3.13,2.34,0,9.37,0,9.37l3.12-3.9c3.12-3.91,0-6.25,0-6.25S39.67-7.31,38.89-9.65s0-13.27,2.34-16.39,4.68-1.56,7-4.69,5.46-9.36,9.36-10.93,3.91-2.34,7,2.35,0,1.56-1.56,8.58-5.47,6.25-6.25,10.93,0,5.47-1.56,10.93S53.72,1.28,53.72,10.65,55.28,27,59.18,26.26s3.91-4.68,3.91-8.58,2.34-5.47,3.12-10.15S69.33-6.53,70.89-8.09s.79-7,1.57-9.36A160.09,160.09,0,0,1,78.7-32.29c2.34-4.68,4.69-2.34,7-3.9s.78-2.34.78-3.9,4.68-5.47,7-8.59,1.57-3.91,1.57-6.25,3.12-5.46,4.68-6.24,1.56-6.25,1.56-6.25,0-6.24,3.9-10.15,7-19.51,7-19.51.78-4.69,0-5.47,1.56-6.24,3.12-5.46.78,1.56,2.35,4.68,2.34,5.47.78,10.15,1.56,5.46,1.56,8.59,3.9,3.9,3.9,3.9l3.9,5.46s3.91-.78,3.91-3.9,3.12-10.93,3.12-15.61,1.56-2.34,2.34-4.69,1.56-3.9,1.56-7,0-1.56-1.56-3.91.78-5.46,0-7-2.34,0-4.68-1.56-3.12-2.35-4.69-2.35h-5.46c-.92,0-1.57-2.18-2-4a6.57,6.57,0,0,1-2,.85c-1.88.63-.76.75-1.84,1.18l.28,2.73h-7c-3.12,0-3.12,1.56-5.47,3.12s-2.34-.78,0-3.12a8.37,8.37,0,0,0,2-4c-2.61-.68-1.32-.68-4.31-.68H95.88a6.1,6.1,0,0,1-2.58-.65c-1.06,2.34-.55,4.36-.55,6.9,0,3.12-2.34,4.68-3.9,3.9s-.78-3.12-.78-5.46-1.56-3.91-1.56-4.69c0-.56-.82-2.36-1.27-3.9H85c-1.56,0-5.47,2.34-6.25,3.9s-4.68,3.12-7,5.47A34.23,34.23,0,0,0,67.77-115S39.67-93.18,27.18-89.28c-1.49.47-5.47,1.56-8.59.78s-3.9,0-4.68,0H9.22s-5.46,8.59-14,13.27c-3.07,1.68-11.71,4.69-14.83,7s-3.13,7-7.81,9.37a85.41,85.41,0,0,0-10.9,7.19,88.61,88.61,0,0,1,6.22,6.86c1.56,2.34,2.34,3.12,5.46,7s2.34,1.56,6.25,3.12,6.24.78,5.46,3.9-7.81,12.49-7.81,12.49,5.08-1.17,7.42,2.74,0,3.12,2.34,6.24-2.34,3.91-3.9,7.81-2.34,8.59-5.47,11.71-7,7-16.39,18-4.68.78-11.71,7-7.81,6.25-14,10.93S-98.12,66.47-98.12,66.47Z" style="fill:#86ac98"/><path d="M259,136.34a33.44,33.44,0,0,1,13.27-3.12c7,0,13.27,2.34,16.4,0s3.12-1.56,7-4.69-1.56-5.46,10.15-5.46,19.52-.78,21.86-2.34,7-.78,7.81-5.47,5.46-3.12,1.56-8.59-1.56-7-5.47-7.8-3.12-7-10.93-10.93-5.46-3.91-10.93-7-3.9-3.9-8.58-7.81-27.33-20.29-39-31.22-17.17-14.06-25-22.64-9.37-1.56-13.27-15.62S219.22-9.65,212.2-22.92s-13.27-11.71-14-19.52-3.91-9.36.78-7.8,7.8,8.58,10.15,10.15,3.9,6.24,7,6.24-1.56,6.25,9.37,10.15,4.68,5.46,8.59,10.93S245.77-2.62,248.89.5s16.39,10.93,18.74,11.71S287.14,24.7,294.17,31,316,44.22,322.27,46.56s17.18,7.81,30.45,12.49,0-2.34-8.59-7S341,45,334,43.44s-25-13.27-29.66-18-8.59-10.93-14.83-16.39S284,4.4,280.12-2.62s-5.47-11.71-.78-10.15S284-1.06,288.71,1.28s18.73,12.49,22.63,13.27,6.25,1.56,10.15,6.25S333.2,31,341.79,34.85s18,12.49,27.33,14.83,6.24,1.57,14.05,5.47,20.3,7,24.2,9.37,14.83,3.12,16.39,7S461.24,84,461.24,84l1.56,65.58S433.13,103.55,423,102.77s-12.49-3.12-25.76-7S373,86.38,368.33,84.81s-11.71-.78-19.51-8.58-35.13-21.08-37.48-22.64S329.3,65.3,334,70.76,349.6,82.47,354.28,84s16.4,11.71,25,13.28,9.37,0,18.74,7.8,18.74,10.15,25,15.62,13.27,13.27,11.71,14.83-35.13-18-46.06-21.86-8.59-3.12-19.51-7S348,92.62,341,90.28s7,7.81,13.27,15.61,10.15,6.25,10.93,13.27-4.68,7-2.34,14.84,5.07,16.78-2.73,18.34-51.14-2-62.85-1.17-29.66,5.47-37.47.78S259,136.34,259,136.34Z" style="fill:#86ac98"/><path d="M756.88,145.76S485.49,143.85,420.74,142s-117.13-5.71-140-1.91-138.08-1.9-170.45,1.91S98.88,137.19.8,137.19-168.7,142.9-203.93,141s-95.23,7.61-124.75,7.61-149.5,1.91-177.12,1.91h-37.13l-13.34,357.09L771.17,494.28Z" style="fill:#698b87"/><polygon points="22.18 173.09 -13.9 -41.45 -26.58 30.72 -17.8 23.89 -26.58 40.47 -52.91 175.04 22.18 173.09" style="fill:#355151"/><path d="M12.11,13.32s4.82,14,7.22,16.86S14,32.58,14,32.58s6.26,4.82,7.22,8.19-7.71.48-7.71.48S23.67,52.82,25.6,52.82s-3.37,3.37-5.78,3.37,7.7,9.15,9.63,10.59-3.37,1.93-8.19,1.45S29,79.79,32.34,80.75s-2.89,3.86-9.63,1.93,9.63,13.49,12,13-2.41,2.89-6.74,2.4,5.78,6.75,10.59,7.71-5.78,3.85-8.19,2.89,9.64,6.26,12.53,5.78-9.64,4.34-12.53,3.86,2.41,14.45,7.71,15.89-8.19,4.34-8.19,4.34S37.16,152,42.46,153s-4.82,5.78-8.67,4.81,12,13.49,19.26,13.49-10.11,7.71-18.3,7.23-10.6-1.45-10.6-1.45l-6.26-3.85S-3.3,179.5-12.46,179a164.82,164.82,0,0,0-16.86,0S.55,153,1,149.63s-14,5.79-20.23,3.86S-3.3,143.85-.9,134.7c0-2.89-5.29,2.89-12.52,1.45S1,122.66,1.51,118.33s-7.22,2.4-14.93,1c-1.44,1,5.3-6.75,6.26-8.19s-4.33-1-5.78-1S1,98.58,2,94.72s-5.78,1-10.11-.48S1,84.61,2.48,79.79-3.3,82.2-6.68,81.24,2,70.16,3.44,67.75s-2.89-.48-7.23-2.41S2,59.08,5.37,56.67,3,52.33,1,50.89,7.29,47,8.26,45.59s-4.34-1.93-5.78-1.93,3.85-4.33,3.85-4.33L2.48,36.92Z" style="fill:#283c3f"/><polygon points="195.54 173.09 231.62 -41.45 244.3 30.72 235.52 23.89 244.3 40.47 270.63 175.04 195.54 173.09" style="fill:#283c3f"/><path d="M129.6,251.19s-20.32-64.34-3.95-72.81,31.54-15.63,39.51-20c10.72-5.93,11.85-5.65,11.85-5.65l-6.21-7.33s-38.83,13.36-57,20.32c-36.12,13.82-30.48,65.75-27.09,83.24S129.6,251.19,129.6,251.19Z" style="fill:#fdccaa"/><path d="M232.18,142.74s-10.5-10.47-12.32-12.07-3.79-5.76-2.53-6.26,13.89,9.83,13.89,9.83l-3.71-18.18-9.15-9.28,7.41,2.11-.8-6S213.26,87,212.3,85.32s-.56-2.1-.56-2.1l9.49,8-4-16.88s-7-9.41-6.19-9.89,4.91,3.12,4.91,3.12l-5.07-24.37L204.21,13l-8.55,57.27s3.85-3.85,4.7-3.42-5.55,10.26-5.55,10.26l-3,17.09,9-8.54s.43.42-.43,2.13-11.54,18.38-11.54,18.38l-.43,6,7.27-2.56-8.55,9.83-2.56,18.38s12-11.11,13.25-10.69-.43,4.7-2.14,6.41-11.54,12.83-11.54,12.83l-2.56,31.19,53.42-1.7Z" style="fill:#355151"/><path d="M178.52,28.56s-4.82,14-7.23,16.85,5.3,2.41,5.3,2.41-6.26,4.82-7.23,8.19,7.71.48,7.71.48S167,68.05,165,68.05s3.37,3.38,5.78,3.38S163.1,80.58,161.18,82s3.37,1.93,8.18,1.45S161.66,95,158.29,96s2.89,3.86,9.63,1.93-9.63,13.49-12,13,2.41,2.89,6.74,2.41-5.78,6.75-10.6,7.71,5.78,3.85,8.19,2.89-9.63,6.26-12.52,5.78,9.63,4.34,12.52,3.85-2.41,14.45-7.7,15.9,8.18,4.33,8.18,4.33-7.22,13.49-12.52,14.46,4.82,5.78,8.67,4.81-12,13.49-19.27,13.49,10.12,7.71,18.31,7.22,10.59-1.44,10.59-1.44l6.27-3.85s21.19,6.26,30.34,5.78a161.4,161.4,0,0,1,16.86,0s-29.86-26-30.34-29.39,14,5.78,20.23,3.86-15.9-9.64-18.31-18.79c0-2.89,5.3,2.89,12.53,1.45s-14.45-13.49-14.94-17.83,7.23,2.41,14.94,1c1.44,1-5.3-6.75-6.27-8.19s4.34-1,5.78-1-14-11.56-14.93-15.41,5.78,1,10.12-.48S189.6,99.85,188.15,95s5.78,2.41,9.15,1.44S188.63,85.39,187.19,83s2.89-.49,7.22-2.41-5.78-6.26-9.15-8.67,2.41-4.34,4.34-5.78-6.27-3.86-7.23-5.3,4.34-1.93,5.78-1.93-3.85-4.33-3.85-4.33l3.85-2.41Z" style="fill:#283c3f"/><path d="M21.66,154.6S32.16,144.12,34,142.52s3.78-5.75,2.53-6.26-13.89,9.83-13.89,9.83l3.71-18.18,9.15-9.27-7.41,2.1.8-5.95s11.71-16,12.67-17.61.56-2.11.56-2.11l-9.5,8,4.06-16.88s7-9.4,6.19-9.88-4.91,3.11-4.91,3.11L43,55l6.62-30.13,8.55,57.27s-3.85-3.85-4.7-3.42S59,89,59,89l3,17.1-9-8.55s-.43.42.43,2.13S65,118.06,65,118.06l.42,6-7.26-2.57,8.55,9.83,2.56,18.38S57.32,138.58,56,139s.43,4.71,2.14,6.42,11.54,12.82,11.54,12.82l2.56,31.2-53.42-1.71Z" style="fill:#355151"/></g><rect x="47.45" y="161.17" width="114.37" height="41.59" rx="4.16" style="fill:#ff9b19"/><path d="M60.69,178.47h7v1.76H65.29v7.28H63.08v-7.28H60.69Z"/><path d="M72.49,178.47c2.21,0,3.32,1.27,3.32,2.85a2.63,2.63,0,0,1-2,2.61l2.09,3.58H73.4l-1.88-3.41H71v3.41h-2.2v-9Zm-.13,1.83H71v2.24h1.37c.82,0,1.21-.43,1.21-1.13S73.18,180.3,72.36,180.3Z"/><path d="M82.82,185.91H79.44l-.54,1.6H76.6l3.27-9h2.55l3.27,9H83.36Zm-1.69-5L80,184.21h2.23Z"/><path d="M86.68,178.47h2.21v9H86.68Z"/><path d="M92.69,178.47v7.34h2.88v1.7H90.48v-9Z"/><path d="M103.53,178.37a4.2,4.2,0,0,1,4.29,3.16H105.4a2,2,0,0,0-1.9-1.15,2.62,2.62,0,0,0,0,5.2,2,2,0,0,0,1.9-1.16h2.42a4.19,4.19,0,0,1-4.29,3.15,4.6,4.6,0,0,1,0-9.2Z"/><path d="M111.38,178.47v7.34h2.88v1.7h-5.09v-9Z"/><path d="M119.59,187.6a4.63,4.63,0,1,1,4.63-4.64A4.55,4.55,0,0,1,119.59,187.6Zm0-2a2.64,2.64,0,0,0,0-5.25,2.64,2.64,0,0,0,0,5.25Z"/><path d="M128.71,187.6c-1.94,0-3.46-1-3.53-2.79h2.35a1,1,0,0,0,1.12,1c.64,0,1.06-.33,1.06-.85,0-1.68-4.53-.78-4.5-4,0-1.72,1.4-2.67,3.3-2.67s3.29,1,3.38,2.7h-2.38a1,1,0,0,0-1-.94.81.81,0,0,0-.93.83c0,1.57,4.47.86,4.47,3.89C132,186.34,130.83,187.6,128.71,187.6Z"/><path d="M138.9,180.23h-3.33v1.83h3v1.7h-3v2h3.33v1.76h-5.54v-9h5.54Z"/><path d="M148.46,183a4.38,4.38,0,0,1-4.74,4.52h-3.39v-9h3.39C146.6,178.47,148.46,180.3,148.46,183Zm-4.88,2.61a2.63,2.63,0,1,0,0-5.25h-1.05v5.25Z"/><rect x="50.6" y="163.73" width="108.08" height="36.46" rx="3.79" style="fill:none;stroke:#000;stroke-miterlimit:10;stroke-width:0.7517518545492672px"/><rect x="133.79" y="202.79" width="2.45" height="19.47" style="fill:#1b2023"/><rect x="73.04" y="202.79" width="2.45" height="19.47" style="fill:#1b2023"/><rect x="177.69" y="140.15" width="4.02" height="85.66" rx="2.01" transform="translate(3.75 -3.61) rotate(1.16)" style="fill:#1b2023"/><path d="M219.14,106a4.61,4.61,0,0,1-1.67,3.57q-4.36,4-8.64,8-6.87,6.51-13.77,13-5.4,5.12-10.83,10.19a4.81,4.81,0,0,1-6.7.32,29.17,29.17,0,0,1-2.35-2.49l-29.4-31.31a4.77,4.77,0,0,1,.19-7.15q9.59-9,19.19-18c4.71-4.43,9.4-8.87,14.12-13.28a4.79,4.79,0,0,1,7.22.3l11.75,12.51,11.68,12.41,7.88,8.41A4.51,4.51,0,0,1,219.14,106Zm-2.43-.07a2.3,2.3,0,0,0-.65-1.7c-.45-.48-.88-1-1.33-1.45L184.79,70.92c-1.32-1.41-2.57-1.46-4-.14l-33,31c-1.48,1.4-1.51,2.6-.1,4.11,5.27,5.61,10.52,11.25,15.83,16.83,2.43,2.56,4.72,5.24,7.21,7.74,2.7,2.7,5.24,5.54,7.85,8.32,1.35,1.43,2.59,1.48,4,.13q4.25-4,8.47-8c4.55-4.29,9.08-8.6,13.64-12.88q5.43-5.11,10.9-10.17A2.61,2.61,0,0,0,216.71,105.93Z" style="fill:#ff9b19"/><path d="M216.71,105.93a2.61,2.61,0,0,1-1,1.93q-5.46,5.07-10.9,10.17c-4.56,4.28-9.09,8.59-13.64,12.88q-4.22,4-8.47,8c-1.45,1.35-2.69,1.3-4-.13-2.61-2.78-5.15-5.62-7.85-8.32-2.49-2.5-4.78-5.18-7.21-7.74-5.31-5.58-10.56-11.22-15.83-16.83-1.41-1.51-1.38-2.71.1-4.11l33-31c1.4-1.32,2.65-1.27,4,.14l29.94,31.86c.45.48.88,1,1.33,1.45A2.3,2.3,0,0,1,216.71,105.93Zm-36,32.43c.47,0,.76-.35,1.07-.65,4.29-4.08,8.53-8.21,12.89-12.22,1.62-1.5,3.28-3,4.89-4.5,3.69-3.5,7.49-6.89,11.08-10.51,1.24-1.25,2.65-2.35,3.94-3.58.91-.87.92-1.16.06-2.08L209.12,99c-4.67-5-9.32-10-14-14.91-1.8-1.9-3.64-3.78-5.42-5.7-2-2.14-4-4.27-6-6.44-.71-.79-1.13-.8-1.88-.09l-33,31c-.88.83-.89,1.14-.07,2q3.52,3.76,7.06,7.52l16.5,17.56,7.39,7.86A1.45,1.45,0,0,0,180.69,138.36Z" style="fill:#0f0802"/><path d="M180.69,138.36a1.45,1.45,0,0,1-.94-.61l-7.39-7.86-16.5-17.56q-3.54-3.75-7.06-7.52c-.82-.87-.81-1.18.07-2l33-31c.75-.71,1.17-.7,1.88.09,2,2.17,4,4.3,6,6.44,1.78,1.92,3.62,3.8,5.42,5.7,4.69,5,9.34,9.94,14,14.91l5.5,5.85c.86.92.85,1.21-.06,2.08-1.29,1.23-2.7,2.33-3.94,3.58-3.59,3.62-7.39,7-11.08,10.51-1.61,1.53-3.27,3-4.89,4.5-4.36,4-8.6,8.14-12.89,12.22C181.45,138,181.16,138.36,180.69,138.36Zm-5.82-33.74-5.33-.17-18.6-.57c-.29,0-.69-.2-.85.12s.22.55.42.77l5.56,6q6.6,7,13.18,14.11c.39.42.79.83,1.19,1.25-.14-1.52-.42-2.93-.69-4.35-.61-3.19-.84-6.29,1.9-8.77,1.14-1,.79-2.49.91-3.79a3.53,3.53,0,0,1,.72-2.06C173.84,106.4,174.28,105.57,174.87,104.62Zm15-5.66c-.72.16-1.36-.3-1.92-1-.45-.56-1-1-1.46-1.59-.8-.88-1.9-1.63-1.39-3.1A.45.45,0,0,0,185,93c-.14-.28-.32-.59-.65-.62s-.35.37-.49.6c-.29.48.09,1.05-.19,1.55a1.24,1.24,0,0,0,.17,1.47c1.15,1.56,2.28,3.13,3.41,4.71a.84.84,0,0,0,.6.41c1,.07,1.06.59.65,1.34-.06.11-.09.24-.14.35s-.08.72-.43.76-.55-.35-.76-.62c-.66-.83-1.34-1.65-2-2.49a1.29,1.29,0,0,0-1-.56c-2.09-.06-4.19-.24-6.28-.17-.85,0-1.29,0-1.47-.89a.72.72,0,0,0-.86-.56c-.43,0-.34.45-.43.73-.24.81.3,1.56.18,2.35-.1.63.11.88.8.91,2.15.09,4.31.26,6.46.4a3.77,3.77,0,0,1,.83.11c.47.15,1,1.07.71,1.35-.37.45-.67,0-1-.12-.69-.29-1.39-.74-2.2-.11-1,.83-2.18,1.56-3.26,2.35-.35.25-.65.78-1,.79s-.44-.66-.67-1-.38-.44-.69-.39-.36.36-.4.65a5.93,5.93,0,0,0,.48,2.68c.45,1.31.53,1.44,1.69.66,1.57-1,3.16-2,4.76-3,.36-.23.81-.49,1.21-.13,1.14,1,2.58,1.6,3.74,2.61.86.76,1.93.94,2.49.41s1.26-1.35,1.89-2c1-1.1,2.09-2.19,3.11-3.3.2-.22.43-.24.55-.09.52.65,1.19,1.24,1.14,2.17a20.89,20.89,0,0,0,.15,2.24c.06,1,.08,2,1.4,2.14.28,0,.32.37.51.52a1.27,1.27,0,0,0,1.17.4c.43-.12.18-.59.26-.9s-.32-.51-.63-.65a1.51,1.51,0,0,1-1-1.77c.13-1.2,0-2.42,0-3.64a.71.71,0,0,0-.24-.58c-1.17-1.14-1.94-2.6-3-3.81-.29-.31-.34-.51,0-.82a2.68,2.68,0,0,0,1-2,2,2,0,0,0-1.08-2.1,1.93,1.93,0,0,0-2.22.53,2.64,2.64,0,0,0-.93,2.44c.14.78-.18.86-.78.8C190.46,99,190.27,99,189.85,99ZM173.9,126.47a2.18,2.18,0,0,0,0,.73,9.07,9.07,0,0,0,1.83,2.22.66.66,0,0,0,.79,0c.59-.43,1.14-.87,1.11-1.72a2.39,2.39,0,0,0-1.31-2.23c-.52-.3-.82-.73-1.48-.44S173.81,125.71,173.9,126.47Zm5.78-4.12c-.18-.52-.18-1.19-.36-1.8a1,1,0,0,0-1.09-.73,3.5,3.5,0,0,1-1.29-.11c-.62-.16-.85.12-.83.73a3.16,3.16,0,0,0,3.1,2.69C179.62,123.06,179.68,122.79,179.68,122.35Zm-4.48-8.21c-.13.72.53.79.86,1.11a1.08,1.08,0,0,0,1.8-.18c.51-.67-.18-.8-.55-1.08-.12-.09-.27-.21-.3-.34-.17-.58-.48-.55-1-.38S175.15,113.57,175.2,114.14ZM173,100.42l.28-.1c-.33-1.24-.66-2.49-1-3.74-.08-.28-.21-.46-.52-.3s-.51.17-.36.53C172,98,172.51,99.22,173,100.42Zm-1.88,0,.29-.27c-.73-.88-1.47-1.75-2.19-2.64-.19-.23-.36-.22-.53,0s-.49.31-.17.6C169.42,98.91,170.29,99.68,171.16,100.45Zm.05,1.62c-1.09-.55-2.19-1.08-3.27-1.64-.33-.17-.52-.14-.65.2s-.22.44.11.53A13.41,13.41,0,0,0,171.21,102.07Z" style="fill:#ff9b19"/><path d="M174.87,104.62c-.59.95-1,1.78-1.59,2.51a3.53,3.53,0,0,0-.72,2.06c-.12,1.3.23,2.75-.91,3.79-2.74,2.48-2.51,5.58-1.9,8.77.27,1.42.55,2.83.69,4.35-.4-.42-.8-.83-1.19-1.25q-6.58-7-13.18-14.11l-5.56-6c-.2-.22-.57-.45-.42-.77s.56-.13.85-.12l18.6.57Z" style="fill:#0f0802"/><path d="M189.85,99c.42,0,.61,0,.8,0,.6.06.92,0,.78-.8a2.64,2.64,0,0,1,.93-2.44,1.93,1.93,0,0,1,2.22-.53,2,2,0,0,1,1.08,2.1,2.68,2.68,0,0,1-1,2c-.38.31-.33.51,0,.82,1.09,1.21,1.86,2.67,3,3.81a.71.71,0,0,1,.24.58c0,1.22.1,2.44,0,3.64a1.51,1.51,0,0,0,1,1.77c.31.14.73.24.63.65s.17.78-.26.9a1.27,1.27,0,0,1-1.17-.4c-.19-.15-.23-.49-.51-.52-1.32-.16-1.34-1.16-1.4-2.14a20.89,20.89,0,0,1-.15-2.24c.05-.93-.62-1.52-1.14-2.17-.12-.15-.35-.13-.55.09-1,1.11-2.07,2.2-3.11,3.3-.63.67-1.22,1.39-1.89,2s-1.63.35-2.49-.41c-1.16-1-2.6-1.58-3.74-2.61-.4-.36-.85-.1-1.21.13-1.6,1-3.19,2-4.76,3-1.16.78-1.24.65-1.69-.66a5.93,5.93,0,0,1-.48-2.68c0-.29.05-.59.4-.65s.51.13.69.39.21,1,.67,1,.64-.54,1-.79c1.08-.79,2.21-1.52,3.26-2.35.81-.63,1.51-.18,2.2.11.36.15.66.57,1,.12.25-.28-.24-1.2-.71-1.35a3.77,3.77,0,0,0-.83-.11c-2.15-.14-4.31-.31-6.46-.4-.69,0-.9-.28-.8-.91.12-.79-.42-1.54-.18-2.35.09-.28,0-.68.43-.73a.72.72,0,0,1,.86.56c.18.89.62.92,1.47.89,2.09-.07,4.19.11,6.28.17a1.29,1.29,0,0,1,1,.56c.65.84,1.33,1.66,2,2.49.21.27.41.65.76.62s.29-.5.43-.76.08-.24.14-.35c.41-.75.36-1.27-.65-1.34a.84.84,0,0,1-.6-.41c-1.13-1.58-2.26-3.15-3.41-4.71a1.24,1.24,0,0,1-.17-1.47c.28-.5-.1-1.07.19-1.55.14-.23.15-.62.49-.6s.51.34.65.62a.45.45,0,0,1,.05.27c-.51,1.47.59,2.22,1.39,3.1.48.54,1,1,1.46,1.59C188.49,98.66,189.13,99.12,189.85,99Z" style="fill:#0f0802"/><path d="M173.9,126.47c-.09-.76.32-1.13,1-1.41s1,.14,1.48.44a2.39,2.39,0,0,1,1.31,2.23c0,.85-.52,1.29-1.11,1.72a.66.66,0,0,1-.79,0,9.07,9.07,0,0,1-1.83-2.22A2.18,2.18,0,0,1,173.9,126.47Z" style="fill:#0f0802"/><path d="M179.68,122.35c0,.44-.06.71-.47.78a3.16,3.16,0,0,1-3.1-2.69c0-.61.21-.89.83-.73a3.5,3.5,0,0,0,1.29.11,1,1,0,0,1,1.09.73C179.5,121.16,179.5,121.83,179.68,122.35Z" style="fill:#0f0802"/><path d="M175.2,114.14c0-.57.35-.71.84-.87s.8-.2,1,.38c0,.13.18.25.3.34.37.28,1.06.41.55,1.08a1.08,1.08,0,0,1-1.8.18C175.73,114.93,175.07,114.86,175.2,114.14Z" style="fill:#0f0802"/><path d="M173,100.42c-.53-1.2-1-2.41-1.58-3.61-.15-.36.15-.42.36-.53s.44,0,.52.3c.32,1.25.65,2.5,1,3.74Z" style="fill:#0f0802"/><path d="M171.16,100.45c-.87-.77-1.74-1.54-2.6-2.32-.32-.29,0-.42.17-.6s.34-.22.53,0c.72.89,1.46,1.76,2.19,2.64Z" style="fill:#0f0802"/><path d="M171.21,102.07a13.41,13.41,0,0,1-3.81-.91c-.33-.09-.19-.33-.11-.53s.32-.37.65-.2C169,101,170.12,101.52,171.21,102.07Z" style="fill:#0f0802"/><g style="clip-path:url(#b)"><rect x="-419.53" y="-22.54" width="437.03" height="254.06" transform="translate(-0.6 -1.15) rotate(-0.33)" style="fill:#f9dcc9"/><polygon points="7.44 164.27 -24.3 -18.05 -34.73 43.4 -27.3 37.55 -34.68 51.7 -56.42 166.3 7.44 164.27" style="fill:#283c3f"/><path d="M-16.13,136.65s8.88-9,10.42-10.33,3.19-4.91,2.12-5.34-11.77,8.43-11.77,8.43l3.07-15.48L-4.55,106l-6.3,1.82.66-5.06S-.31,89.12.5,87.71,1,85.92,1,85.92l-8,6.82L-3.7,78.37s5.92-8,5.21-8.44S-2.65,72.6-2.65,72.6L1.54,51.85,7,26.18l7.55,48.68s-3.29-3.25-4-2.89,4.78,8.7,4.78,8.7L18,95.2,10.29,88s-.36.37.38,1.82,9.9,15.58,9.9,15.58l.39,5.08-6.19-2.14,7.32,8.32,2.27,15.62s-10.23-9.4-11.32-9,.39,4,1.85,5.45,9.88,10.85,9.88,10.85L27.1,166l-45.45-1.19Z" style="fill:#355151"/><path d="M17.57,121s-52.33-14.83-115.22,19.5c-4.71,2.57-40.66,27.06-53.77,31.42s-31.36,7.6-39.07,7.07-13.42-.21-23.1,3-43,12.52-66.13,18.08-46.48,7.4-54.74,10.87-20.51,8.4-30.49,10.45-19.13-2.17-42.75,11.38-25.62,11.85-32.73,17-9.9,16-9.9,16l470.14-2.4Z" style="fill:#577977"/><rect x="-189.86" y="52.39" width="197.96" height="197.96" transform="translate(-0.87 -0.52) rotate(-0.33)" style="fill:none"/></g><g style="clip-path:url(#c)"><rect x="217.44" y="-39.14" width="305.18" height="274.5" transform="translate(0.64 -2.39) rotate(0.37)" style="fill:#fff"/><path d="M516.24,164.86s-15.3-5.42-17.48-6.06-4.05-1.9-6.24-2.85-1.55-1.89-3.73-3.78-4.36-2.22-5.92-3.48.63.32-6.54-3.48-14-5.72-16.83-9.81-10.9-8.2-13.37-12-4.34-6-6.22-6.92-2.78-4.09-3.72-4.09-2.34-1.11-3.28-1.43A9.51,9.51,0,0,1,431,110s-5.3-2.85-5.91-4.11a26.5,26.5,0,0,0-2.17-4.08c-.93-1.26-4.67-3.47-6.53-6s-2.18-1.58-3.42-3.47-1.86-1.57-4.34-4.72-3.73-4.71-4.36-4.4-1.88,1.86-2.82,1.85-.62-1.88-1.56-1.57l-.94.31-.62.31a5.19,5.19,0,0,0-1.88-1,5.66,5.66,0,0,1-2.18-.64c-.62-.31,0-.93-1.56-.63A8.4,8.4,0,0,0,389,83.49l-.63.62s-.31-.63-1.88-.64-1.87,0-2.5.3a4.72,4.72,0,0,1-1.26.62c-.94.3,0,.31-1.25.61s-2.19-.32-3.44-.64-.62-.32-1.87-.33l-2.5,0a4.15,4.15,0,0,1-2.19-1,3.41,3.41,0,0,0-2.18-.64A4.35,4.35,0,0,0,366.77,84c-.31.62-1.88,1.24-2.83,2.17A13.66,13.66,0,0,0,362.37,88S351.05,96.69,346,98.22a7.07,7.07,0,0,1-3.45.3,3.31,3.31,0,0,0-1.87,0h-1.88a17.52,17.52,0,0,1-5.66,5.28c-1.24.66-4.71,1.85-6,2.78s-1.27,2.81-3.16,3.73a38.17,38.17,0,0,0-4.71,3.1s-8.42-4.43-9-5.06-.93-.64-2.18-1.27-.3-1.57-2.81-1-3.45,1.55-4.7,1.85a8.21,8.21,0,0,0-2.51,1.24s-3.13,0-4.7,1.53a2.86,2.86,0,0,0-3.45.91,48,48,0,0,1-8.8,6.52c-1.58.91-4.08,2.16-5.66,4.65-.71,1.12-12.28,12.12-25.46,19.54-.55.31-.94-.94-2.19-.32a6.65,6.65,0,0,1-4.7.9c-2.5-.32-.3-1.25-3.13-.33s-2.82,1.86-5.33,3.09-2.52,1.55-4.71,2.16-2.5,0-4.07.29-1.26,1.56-2.51,2.17-6,.59-8.15,2.45a19.6,19.6,0,0,1-6.58,1.84c-2.82.29-2.21,2.49-4.4,2.16s-2.81-1-4.06-.34-2.21,2.49-3.15,2.79a18.94,18.94,0,0,1-2.82.61c-1.56.3-2.18-.33-2.5.3s.62.94-.63,1.24-1.57.31-1.89,1.24.62.95-.95,1.25-2.81.29-4.38.6a49.59,49.59,0,0,1-7.2,1.2c-1.88,0-1.87-.64-3.44,0s-5.64,1.21-5.95,1.52a20,20,0,0,1-1.89,1.24c-.94.62-3.15,3.74-3.78,4s-4.06-.65-5.32,0-9.71,2.75-9.71,2.75l-29.43,4.5-10.11,14.64,153.88,2.87,255.22,4.47Z" style="fill:#abc4ab"/><path d="M286.49,175.49a6.7,6.7,0,0,0,0-2.5c-.3-.94-.93-1.26-.92-2.2s.63-.62,0-1.25-1.24-2.2-1.86-2.51-.93-1.89-1.56-1.89-1.55-.95-1.55-.95,0-1.88-1.24-1.88-2.5-.65-3.76.28-2.83,2.17-3.45,2.48,0,0-2.2.61-10,.57-11,.56-3.76.6-3.75,0a1.26,1.26,0,0,1,1.57-1.25c.94.32,3.44-.6,4.7-1.22s1.88-.61,2.2-1.23,0-1.25,0-1.57-.62-1.25-1.25-.63-1.89,1.86-2.51,1.86-1.26.62-1.88.3,0-1.56,0-1.56l1.26-1.25.94-1.24a14.4,14.4,0,0,0-3.44.91,10.17,10.17,0,0,1-3.76.61c-.31,0-2.18-1.58-2.8-1.9s-2.18-1.89-2.81-1.89-1.24-.95-1.24-.95l-.94-.63s.62,1.57-.63,1.56-1.25-.64-1.88-.64a2,2,0,0,0-1.25.3c-.63.31-.94.31-1.57.62s-.94.31-.94.62,0,1.25.3,1.57-1.56.3-1.56.3a8.05,8.05,0,0,0-2.2.61c-.31.31-.31.94-1.25.93s-3.45.29-3.45.29-.3-.63-1.56,0,.93,1.26,0,1.25a11.54,11.54,0,0,0-3.44.29c-.63.31-1.57.3-.94.62s1.87,0,1.56.64-.33,1.87-.64,1.87-.94,0-.32.31a1.25,1.25,0,0,1,.62,1.26c0,.31-.31.62-1.26.93a11.58,11.58,0,0,1-2.81.6c-.63,0-2.2.93-3.77,1.23s-1.56.61-2.82.61-.3-.94,0-.94a15.65,15.65,0,0,0,2.2-.93l1.57-.92,1.56-.62,1-1.56,1.56.33.63-.31-.3-1.57s.32-.94,0-.94a6.78,6.78,0,0,1-1.25-.32.3.3,0,0,0-.31-.31,24.78,24.78,0,0,0-2.83,1.23l-2.5,0a13.62,13.62,0,0,1-2.51.61c-.62,0-2.5.61-3.44.61l-2.5,0-1.26.62a1.5,1.5,0,0,1,0,1.25,3.67,3.67,0,0,1-.63.93l-.63.62h-1.25l-2.81-1.27-3.75.91-1,1.25a4.33,4.33,0,0,1-1.26.61,8.09,8.09,0,0,0-1.56.62H193c-.31,0-.94.62-.94.62a11.94,11.94,0,0,1,.3,1.57c0,.31-1.25,0-1.25,0s-2.19.92-2.82,1.23a18.61,18.61,0,0,0-.33,2.19c0,.62.31.94,0,1.25s-.32.94-.64,1.87.29,2.82.29,3.45.62.94,0,.93-3.44-.33-4.07.29-3.13.61-4.38.6-.95,1.87-.95,1.87l2.49,1.58,103.51,5.05a9.05,9.05,0,0,0,1-5,48.6,48.6,0,0,0-.91-5,11,11,0,0,1,.65-3.13A16.13,16.13,0,0,0,286.49,175.49Zm-38.55,11.64c-.32.62-3.13,0-3.44-.34a7.14,7.14,0,0,0-3.12-2.21c-1.87-.64-4.35-3.16-5.6-3.48a22.23,22.23,0,0,0-2.19-.64c-1.56-.32-3.75-.33-2.18-1,0,0,1.57-1.55,2.82-1.23a2.71,2.71,0,0,0,2.51-.92,4.11,4.11,0,0,1,1.26-.93c.62-.31,1.25-.93,1.88-.93s-.63.93-.95,1.56a5.43,5.43,0,0,1-1.89,1.86c-.63.31-.63.62-.63.94s.62,1.56,1.24,1.57,0-1.25,1.57-1.24a11.12,11.12,0,0,1,2.5.33c.32,0,.94,0,.94.63s.62.94,0,1.25a1.1,1.1,0,0,0-.63.93s.93.63,1.56.95.62.94,1.24,1.26.63,0,.94.32S248.25,186.5,247.94,187.13Zm5.94-.59c-.93-.32-.3-.63-1.55-.95s-.94-.63-2.19-1-.94,0-1.87-.64-2.17-3.14-2.79-3.15-.63-.63-.94-.63.61,2.82,1.54,3.14,3.12,2.52,3.74,3.15,1.24,1,.93,1.26-3.75-1.59-4.05-2.22a11,11,0,0,0-1.87-1.89c-.62-.63-.61-1.88-1.23-2.51a1.73,1.73,0,0,1-.62-1.56c0-.63,1-1.25,1.27-2.5s2.52-3.42,3.77-3.41a5.35,5.35,0,0,1-.64,2.49c-.63.94-.94.94-.95,1.87s-.32,1.88.3,2.51,1.56.95,2.18,1.58,1.55,1.57,2.18,1.57a3.16,3.16,0,0,1,2.49,1c.94.94,2.18,1.58,2.8,2.52S254.82,186.86,253.88,186.54Z" style="fill:#86ac98"/><path d="M636.08,188.9s-108.73-1.47-134.67-2.4-46.91-2.59-56.07-1.13-55.32-1.12-68.3.33-4.57-1.94-43.87-2.2-67.92,1.85-82,1-38.17,2.8-50,2.73-59.91.37-71,.3l-14.88-.1-6.27,143,531.88-1.9Z" style="fill:#355151"/></g></svg>