<svg xmlns="http://www.w3.org/2000/svg" xmlns:xlink="http://www.w3.org/1999/xlink" width="250" height="250" viewBox="0 0 250 250"><defs><clipPath id="a"><rect x="-540.49" y="-2.5" width="253.13" height="250.59" style="fill:none"/></clipPath><clipPath id="b"><rect x="-270.76" y="-1.38" width="251.15" height="251.15" style="fill:none"/></clipPath></defs><title>s10s1c10</title><g style="clip-path:url(#a)"><path d="M216.88,145.76S-54.51,143.85-119.26,142s-117.13-5.71-140-1.91-138.08-1.9-170.45,1.91-11.43-4.76-109.51-4.76S-708.7,142.9-743.93,141s-95.23,7.61-124.75,7.61-149.5,1.91-177.12,1.91h-37.13l-13.34,357.09L231.17,494.28Z" style="fill:#698b87"/></g><g style="clip-path:url(#b)"><path d="M96.08,188.9s-108.73-1.47-134.67-2.4-46.91-2.59-56.07-1.13-55.32-1.12-68.3.33-4.57-1.94-43.87-2.2-67.92,1.85-82,1-38.17,2.8-50,2.73-59.91.37-71,.3l-14.88-.1-6.27,143,531.88-1.9Z" style="fill:#355151"/></g><path d="M65.29,139.75c11.49,11.48,22.9,22.89,34.37,34.37l4.08-4.08L69.37,135.67Z" style="fill:#355151"/><path d="M75.23,129.82l34.37,34.37,4.1-4.1L79.33,125.72Z" style="fill:#355151"/><path d="M85.08,119.94l34.37,34.36c1.4-1.41,2.75-2.75,4.09-4.09L89.17,115.84Z" style="fill:#355151"/><path d="M-2.45,0V251.77H252.08V0ZM196.17,75.16c-7.76,7.6-15.39,15.32-23.06,23-.44.43-.87.87-1.44,1.44l2.17,2.17c2.91,3,2.92,6.46,0,9.38q-21.08,21.1-42.18,42.19-16.22,16.22-32.44,32.44c-3.41,3.41-6.66,3.43-10,.06L53.53,150.19c-3.31-3.32-3.32-6.6,0-9.92q37.36-37.38,74.74-74.74c2.91-2.9,6.44-2.88,9.38,0l25.7,25.69,1.23,1.23c.47-.46.86-.85,1.25-1.25,7.79-7.78,15.63-15.52,23.34-23.38,2.13-2.18,4.34-2.89,7.14-1.74l1.77,1.77C199.21,70.79,198.35,73,196.17,75.16Z" style="fill:#355151"/><path d="M146.69,92.71,131.3,77.33c-1.38-1.37-2.33-1.38-3.72,0q-9.14,9.12-18.26,18.26c-1.39,1.4-1.39,2.32,0,3.71Q124.64,114.65,140,130c1.54,1.54,2.43,1.54,3.95,0q9-9,18-18c1.52-1.52,1.52-2.43,0-4Z" style="fill:#355151"/></svg>