<svg xmlns="http://www.w3.org/2000/svg" xmlns:xlink="http://www.w3.org/1999/xlink" width="399.6" height="200" viewBox="0 0 399.6 200"><defs><clipPath id="a"><rect x="-158.57" y="417.87" width="412.44" height="392.73" rx="27.73" transform="translate(6.78 -0.49) rotate(0.63)" style="fill:none"/></clipPath><clipPath id="b"><rect x="-167.17" y="394.47" width="431.04" height="426.71" transform="translate(6.71 -0.5) rotate(0.63)" style="fill:none"/></clipPath><clipPath id="c"><rect x="-1215.94" y="405.05" width="412.44" height="392.73" rx="27.73" transform="translate(74.41 147.67) rotate(8.07)" style="fill:none"/></clipPath><clipPath id="d"><rect x="-1223.72" y="381.8" width="431.04" height="426.71" transform="translate(73.55 147.39) rotate(8.07)" style="fill:none"/></clipPath><clipPath id="e"><rect x="-688.68" y="404.22" width="412.44" height="392.73" rx="27.73" transform="translate(79.52 73.66) rotate(8.07)" style="fill:none"/></clipPath><clipPath id="f"><rect x="-696.45" y="380.97" width="431.04" height="426.71" transform="translate(78.65 73.38) rotate(8.07)" style="fill:none"/></clipPath><clipPath id="g"><rect x="0.98" y="-1.82" width="400" height="201" style="fill:none"/></clipPath><pattern id="h" width="72" height="72" patternTransform="translate(260.68 151.94) scale(0.31)" patternUnits="userSpaceOnUse" viewBox="0 0 72 72"><rect width="72" height="72" style="fill:none"/><line x1="54" y1="71.75" x2="54" y2="144.25" style="fill:none;stroke:#1d1d1b;stroke-width:6px"/><line x1="18" y1="71.75" x2="18" y2="144.25" style="fill:none;stroke:#1d1d1b;stroke-width:6px"/><line x1="62" y1="71.75" x2="62" y2="144.25" style="fill:none;stroke:#1d1d1b;stroke-width:2px"/><line x1="26" y1="71.75" x2="26" y2="144.25" style="fill:none;stroke:#1d1d1b;stroke-width:2px"/><line x1="71.75" y1="18" x2="144.25" y2="18" style="fill:none;stroke:#1d1d1b;stroke-width:6px"/><line x1="71.75" y1="54" x2="144.25" y2="54" style="fill:none;stroke:#1d1d1b;stroke-width:6px"/><line x1="-0.25" y1="18" x2="72.25" y2="18" style="fill:none;stroke:#1d1d1b;stroke-width:6px"/><line x1="54" y1="-0.25" x2="54" y2="72.25" style="fill:none;stroke:#1d1d1b;stroke-width:6px"/><line x1="-0.25" y1="54" x2="72.25" y2="54" style="fill:none;stroke:#1d1d1b;stroke-width:6px"/><line x1="18" y1="-0.25" x2="18" y2="72.25" style="fill:none;stroke:#1d1d1b;stroke-width:6px"/><line x1="62" y1="-0.25" x2="62" y2="72.25" style="fill:none;stroke:#1d1d1b;stroke-width:2px"/><line x1="26" y1="-0.25" x2="26" y2="72.25" style="fill:none;stroke:#1d1d1b;stroke-width:2px"/><line x1="73.25" y1="26" x2="0.75" y2="26" style="fill:none;stroke:#1d1d1b;stroke-width:2px"/><line x1="73.25" y1="62" x2="0.75" y2="62" style="fill:none;stroke:#1d1d1b;stroke-width:2px"/><line x1="-72.25" y1="18" x2="0.25" y2="18" style="fill:none;stroke:#1d1d1b;stroke-width:6px"/><line x1="-72.25" y1="54" x2="0.25" y2="54" style="fill:none;stroke:#1d1d1b;stroke-width:6px"/><line x1="1.25" y1="26" x2="-71.25" y2="26" style="fill:none;stroke:#1d1d1b;stroke-width:2px"/><line x1="1.25" y1="62" x2="-71.25" y2="62" style="fill:none;stroke:#1d1d1b;stroke-width:2px"/><line x1="54" y1="-72.25" x2="54" y2="0.25" style="fill:none;stroke:#1d1d1b;stroke-width:6px"/><line x1="18" y1="-72.25" x2="18" y2="0.25" style="fill:none;stroke:#1d1d1b;stroke-width:6px"/><line x1="62" y1="-72.25" x2="62" y2="0.25" style="fill:none;stroke:#1d1d1b;stroke-width:2px"/><line x1="26" y1="-72.25" x2="26" y2="0.25" style="fill:none;stroke:#1d1d1b;stroke-width:2px"/></pattern><pattern id="i" width="65.25" height="65.25" patternTransform="translate(473.24 102.22) scale(0.85)" patternUnits="userSpaceOnUse" viewBox="0 0 65.25 65.25"><rect width="65.25" height="65.25" style="fill:none"/><line x1="67.55" y1="61.59" x2="62.02" y2="65.89" style="fill:none;stroke:#fff;stroke-linecap:square"/><line x1="70" y1="64.75" x2="64.47" y2="69.05" style="fill:none;stroke:#fff;stroke-linecap:square"/><line x1="47.19" y1="62.53" x2="43.5" y2="68" style="fill:none;stroke:#fff;stroke-linecap:square"/><line x1="49.93" y1="65.44" x2="44.83" y2="70.23" style="fill:none;stroke:#fff;stroke-linecap:square"/><line x1="53.13" y1="64.47" x2="55.5" y2="70.25" style="fill:none;stroke:#fff;stroke-linecap:square"/><line x1="56.25" y1="63.25" x2="59" y2="70" style="fill:none;stroke:#fff;stroke-linecap:square"/><line x1="28" y1="63.75" x2="22.31" y2="68.13" style="fill:none;stroke:#fff;stroke-linecap:square"/><line x1="32" y1="64.75" x2="25.3" y2="70.79" style="fill:none;stroke:#fff;stroke-linecap:square"/><line x1="9.25" y1="64.5" x2="9" y2="66" style="fill:none;stroke:#fff;stroke-linecap:square"/><line x1="14.22" y1="62.67" x2="18.5" y2="68.5" style="fill:none;stroke:#fff;stroke-linecap:square"/><line x1="17.05" y1="59.84" x2="21.33" y2="65.67" style="fill:none;stroke:#fff;stroke-linecap:square"/><line x1="38.75" y1="62.75" x2="39.25" y2="69.25" style="fill:none;stroke:#fff;stroke-linecap:square"/><line x1="36" y1="62" x2="34.5" y2="68.75" style="fill:none;stroke:#fff;stroke-linecap:square"/><line x1="2.3" y1="61.59" x2="-3.23" y2="65.89" style="fill:none;stroke:#fff;stroke-linecap:square"/><line x1="4.75" y1="64.75" x2="-0.78" y2="69.05" style="fill:none;stroke:#fff;stroke-linecap:square"/><line x1="65.82" y1="6.97" x2="72" y2="10.25" style="fill:none;stroke:#fff;stroke-linecap:square"/><line x1="22.49" y1="23.04" x2="19.25" y2="29.25" style="fill:none;stroke:#fff;stroke-linecap:square"/><line x1="36.42" y1="43.45" x2="44" y2="45.5" style="fill:none;stroke:#fff;stroke-linecap:square"/><line x1="37.5" y1="40.5" x2="45.25" y2="41.75" style="fill:none;stroke:#fff;stroke-linecap:square"/><line x1="30" y1="60.75" x2="32.75" y2="55.5" style="fill:none;stroke:#fff;stroke-linecap:square"/><line x1="26.5" y1="60.25" x2="29.52" y2="54.46" style="fill:none;stroke:#fff;stroke-linecap:square"/><line x1="46" y1="55.5" x2="41.25" y2="59" style="fill:none;stroke:#fff;stroke-linecap:square"/><line x1="47.25" y1="58" x2="43.5" y2="62" style="fill:none;stroke:#fff;stroke-linecap:square"/><line x1="49.88" y1="46.3" x2="50.78" y2="53.25" style="fill:none;stroke:#fff;stroke-linecap:square"/><line x1="45.98" y1="47.21" x2="47.53" y2="53.75" style="fill:none;stroke:#fff;stroke-linecap:square"/><line x1="14.22" y1="62.67" x2="18.5" y2="68.5" style="fill:none;stroke:#fff;stroke-linecap:square"/><line x1="17.05" y1="59.84" x2="21.33" y2="65.67" style="fill:none;stroke:#fff;stroke-linecap:square"/><line x1="20.53" y1="48.64" x2="23.96" y2="54.74" style="fill:none;stroke:#fff;stroke-linecap:square"/><line x1="24.23" y1="47.13" x2="26.88" y2="53.61" style="fill:none;stroke:#fff;stroke-linecap:square"/><line x1="33" y1="44.5" x2="27.75" y2="47.5" style="fill:none;stroke:#fff;stroke-linecap:square"/><line x1="35.5" y1="47.75" x2="29.75" y2="49.75" style="fill:none;stroke:#fff;stroke-linecap:square"/><line x1="47.19" y1="62.53" x2="43.5" y2="68" style="fill:none;stroke:#fff;stroke-linecap:square"/><line x1="49.93" y1="65.44" x2="44.83" y2="70.23" style="fill:none;stroke:#fff;stroke-linecap:square"/><line x1="53.13" y1="64.47" x2="55.5" y2="70.25" style="fill:none;stroke:#fff;stroke-linecap:square"/><line x1="28" y1="63.75" x2="22.31" y2="68.13" style="fill:none;stroke:#fff;stroke-linecap:square"/><line x1="32" y1="64.75" x2="25.3" y2="70.79" style="fill:none;stroke:#fff;stroke-linecap:square"/><line x1="21.5" y1="58.25" x2="22" y2="59.5" style="fill:none;stroke:#fff;stroke-linecap:square"/><line x1="37.75" y1="60.25" x2="38.75" y2="61.25" style="fill:none;stroke:#fff;stroke-linecap:square"/><line x1="38.75" y1="62.75" x2="39.25" y2="69.25" style="fill:none;stroke:#fff;stroke-linecap:square"/><line x1="36" y1="62" x2="34.5" y2="68.75" style="fill:none;stroke:#fff;stroke-linecap:square"/><line x1="53.28" y1="50" x2="54.53" y2="49.5" style="fill:none;stroke:#fff;stroke-linecap:square"/><line x1="32.5" y1="50.5" x2="32.75" y2="52" style="fill:none;stroke:#fff;stroke-linecap:square"/><line x1="50.5" y1="62" x2="51.75" y2="62" style="fill:none;stroke:#fff;stroke-linecap:square"/><line x1="33.75" y1="60" x2="32.75" y2="61.75" style="fill:none;stroke:#fff;stroke-linecap:square"/><line x1="38" y1="47.25" x2="39.25" y2="46.75" style="fill:none;stroke:#fff;stroke-linecap:square"/><line x1="40.24" y1="55.47" x2="35.81" y2="52.75" style="fill:none;stroke:#fff;stroke-linecap:square"/><line x1="42.97" y1="53.07" x2="36.62" y2="50.14" style="fill:none;stroke:#fff;stroke-linecap:square"/><line x1="35.5" y1="55.75" x2="36.75" y2="56" style="fill:none;stroke:#fff;stroke-linecap:square"/><line x1="42.28" y1="49" x2="43.53" y2="49.25" style="fill:none;stroke:#fff;stroke-linecap:square"/><line x1="18.63" y1="54.25" x2="20.25" y2="53.75" style="fill:none;stroke:#fff;stroke-linecap:square"/><line x1="26.99" y1="8.45" x2="27.13" y2="15.45" style="fill:none;stroke:#fff;stroke-linecap:square"/><line x1="30.99" y1="8.38" x2="30.25" y2="15" style="fill:none;stroke:#fff;stroke-linecap:square"/><line x1="43.64" y1="27.73" x2="50.13" y2="30.38" style="fill:none;stroke:#fff;stroke-linecap:square"/><line x1="45.15" y1="24.03" x2="51.63" y2="26.67" style="fill:none;stroke:#fff;stroke-linecap:square"/><line x1="27.12" y1="23.58" x2="31.89" y2="19.94" style="fill:none;stroke:#fff;stroke-linecap:square"/><line x1="24.09" y1="21.57" x2="30" y2="17.82" style="fill:none;stroke:#fff;stroke-linecap:square"/><line x1="18.5" y1="41.38" x2="11.72" y2="43.13" style="fill:none;stroke:#fff;stroke-linecap:square"/><line x1="19.25" y1="45" x2="12.47" y2="46.76" style="fill:none;stroke:#fff;stroke-linecap:square"/><line x1="19.69" y1="21.19" x2="16.45" y2="27.4" style="fill:none;stroke:#fff;stroke-linecap:square"/><line x1="8.74" y1="9.89" x2="10.07" y2="16.76" style="fill:none;stroke:#fff;stroke-linecap:square"/><line x1="12.66" y1="9.13" x2="14" y2="16" style="fill:none;stroke:#fff;stroke-linecap:square"/><line x1="0.57" y1="6.97" x2="6.75" y2="10.25" style="fill:none;stroke:#fff;stroke-linecap:square"/><line x1="3.5" y1="16.5" x2="2.32" y2="22.49" style="fill:none;stroke:#fff;stroke-linecap:square"/><line x1="7.57" y1="16.38" x2="6.25" y2="23.25" style="fill:none;stroke:#fff;stroke-linecap:square"/><line x1="56.37" y1="44.2" x2="58.78" y2="51.75" style="fill:none;stroke:#fff;stroke-linecap:square"/><line x1="60.53" y1="44.25" x2="61.28" y2="50.75" style="fill:none;stroke:#fff;stroke-linecap:square"/><line x1="53.03" y1="36.46" x2="49.02" y2="42.2" style="fill:none;stroke:#fff;stroke-linecap:square"/><line x1="55.77" y1="37.79" x2="54.03" y2="43.25" style="fill:none;stroke:#fff;stroke-linecap:square"/><line x1="26.95" y1="27.8" x2="27.75" y2="34.75" style="fill:none;stroke:#fff;stroke-linecap:square"/><line x1="29.93" y1="26.99" x2="31.63" y2="33.78" style="fill:none;stroke:#fff;stroke-linecap:square"/><line x1="52.81" y1="4.88" x2="46.46" y2="7.84" style="fill:none;stroke:#fff;stroke-linecap:square"/><line x1="54.25" y1="7.75" x2="48.16" y2="11.46" style="fill:none;stroke:#fff;stroke-linecap:square"/><line x1="17.65" y1="12.48" x2="19.25" y2="19" style="fill:none;stroke:#fff;stroke-linecap:square"/><line x1="19.73" y1="10.2" x2="22.83" y2="16.48" style="fill:none;stroke:#fff;stroke-linecap:square"/><line x1="37.5" y1="14.25" x2="34" y2="20.5" style="fill:none;stroke:#fff;stroke-linecap:square"/><line x1="40.13" y1="15.42" x2="36.19" y2="21.2" style="fill:none;stroke:#fff;stroke-linecap:square"/><line x1="50" y1="15.75" x2="43.75" y2="18.25" style="fill:none;stroke:#fff;stroke-linecap:square"/><line x1="50.5" y1="20.25" x2="44.25" y2="20.5" style="fill:none;stroke:#fff;stroke-linecap:square"/><line x1="56.22" y1="17.42" x2="54.53" y2="23.75" style="fill:none;stroke:#fff;stroke-linecap:square"/><line x1="58.95" y1="19.91" x2="55.47" y2="25.98" style="fill:none;stroke:#fff;stroke-linecap:square"/><line x1="57.14" y1="53.16" x2="50.8" y2="56.13" style="fill:none;stroke:#fff;stroke-linecap:square"/><line x1="58.84" y1="56.78" x2="52.5" y2="59.75" style="fill:none;stroke:#fff;stroke-linecap:square"/><line x1="47.25" y1="37" x2="43" y2="32.25" style="fill:none;stroke:#fff;stroke-linecap:square"/><line x1="44.5" y1="37.75" x2="39.68" y2="33.34" style="fill:none;stroke:#fff;stroke-linecap:square"/><line x1="30.53" y1="39.25" x2="34.5" y2="34.25" style="fill:none;stroke:#fff;stroke-linecap:square"/><line x1="32.93" y1="42.45" x2="37.25" y2="36.5" style="fill:none;stroke:#fff;stroke-linecap:square"/><line x1="22.43" y1="31.52" x2="15.47" y2="30.78" style="fill:none;stroke:#fff;stroke-linecap:square"/><line x1="21.5" y1="34.75" x2="14.66" y2="33.28" style="fill:none;stroke:#fff;stroke-linecap:square"/><line x1="6.75" y1="36.75" x2="12.35" y2="40.95" style="fill:none;stroke:#fff;stroke-linecap:square"/><line x1="9.15" y1="33.55" x2="14.75" y2="37.75" style="fill:none;stroke:#fff;stroke-linecap:square"/><line x1="13.99" y1="49.49" x2="13.42" y2="56.47" style="fill:none;stroke:#fff;stroke-linecap:square"/><line x1="17.75" y1="50" x2="16.81" y2="57.42" style="fill:none;stroke:#fff;stroke-linecap:square"/><line x1="20.17" y1="40.33" x2="25.12" y2="45.28" style="fill:none;stroke:#fff;stroke-linecap:square"/><line x1="23" y1="37.5" x2="27.95" y2="42.45" style="fill:none;stroke:#fff;stroke-linecap:square"/><line x1="8.5" y1="46.25" x2="3.93" y2="50.46" style="fill:none;stroke:#fff;stroke-linecap:square"/><line x1="10.78" y1="48.7" x2="5.25" y2="53" style="fill:none;stroke:#fff;stroke-linecap:square"/><line x1="56.12" y1="14.59" x2="63.1" y2="13.99" style="fill:none;stroke:#fff;stroke-linecap:square"/><line x1="56.25" y1="11.25" x2="62.75" y2="10" style="fill:none;stroke:#fff;stroke-linecap:square"/><line x1="36.25" y1="23.25" x2="37" y2="30.25" style="fill:none;stroke:#fff;stroke-linecap:square"/><line x1="40.25" y1="23.25" x2="39.75" y2="28.75" style="fill:none;stroke:#fff;stroke-linecap:square"/><line x1="11.96" y1="1.11" x2="9.1" y2="6.08" style="fill:none;stroke:#fff;stroke-linecap:square"/><line x1="6.46" y1="32.23" x2="12.21" y2="28.24" style="fill:none;stroke:#fff;stroke-linecap:square"/><line x1="4.18" y1="28.94" x2="9.94" y2="24.95" style="fill:none;stroke:#fff;stroke-linecap:square"/><line x1="4.14" y1="58.23" x2="8.5" y2="62.5" style="fill:none;stroke:#fff;stroke-linecap:square"/><line x1="6.57" y1="56.56" x2="10.5" y2="60" style="fill:none;stroke:#fff;stroke-linecap:square"/><line x1="60.75" y1="22.25" x2="65.07" y2="27.76" style="fill:none;stroke:#fff;stroke-linecap:square"/><line x1="63.4" y1="20.03" x2="67.72" y2="25.54" style="fill:none;stroke:#fff;stroke-linecap:square"/><line x1="58.5" y1="28.63" x2="51.72" y2="30.38" style="fill:none;stroke:#fff;stroke-linecap:square"/><line x1="59.5" y1="32.5" x2="52.72" y2="34.26" style="fill:none;stroke:#fff;stroke-linecap:square"/><line x1="15.75" y1="19.5" x2="8.84" y2="19.07" style="fill:none;stroke:#fff;stroke-linecap:square"/><line x1="16.25" y1="22.25" x2="9.3" y2="23.04" style="fill:none;stroke:#fff;stroke-linecap:square"/><line x1="60.26" y1="55.7" x2="64.19" y2="61.5" style="fill:none;stroke:#fff;stroke-linecap:square"/><line x1="63.57" y1="53.46" x2="67.5" y2="59.25" style="fill:none;stroke:#fff;stroke-linecap:square"/><line x1="63.75" y1="30.75" x2="60.04" y2="35.09" style="fill:none;stroke:#fff;stroke-linecap:square"/><line x1="67.13" y1="31.26" x2="63.44" y2="37.2" style="fill:none;stroke:#fff;stroke-linecap:square"/><line x1="67.55" y1="61.59" x2="62.02" y2="65.89" style="fill:none;stroke:#fff;stroke-linecap:square"/><line x1="56.25" y1="63.25" x2="59" y2="70" style="fill:none;stroke:#fff;stroke-linecap:square"/><line x1="63.94" y1="10.5" x2="70.13" y2="13.78" style="fill:none;stroke:#fff;stroke-linecap:square"/><line x1="16.58" y1="9.47" x2="21" y2="6.75" style="fill:none;stroke:#fff;stroke-linecap:square"/><line x1="13.84" y1="7.07" x2="20.2" y2="4.14" style="fill:none;stroke:#fff;stroke-linecap:square"/><line x1="36.13" y1="8.13" x2="40.88" y2="12.88" style="fill:none;stroke:#fff;stroke-linecap:square"/><line x1="39.27" y1="5.66" x2="43.59" y2="11.17" style="fill:none;stroke:#fff;stroke-linecap:square"/><line x1="67.73" y1="39.48" x2="62.5" y2="42" style="fill:none;stroke:#fff;stroke-linecap:square"/><line x1="70.56" y1="42.08" x2="64.45" y2="45.49" style="fill:none;stroke:#fff;stroke-linecap:square"/><line x1="30" y1="3.75" x2="31.25" y2="4" style="fill:none;stroke:#fff;stroke-linecap:square"/><line x1="29.25" y1="6.75" x2="29" y2="6" style="fill:none;stroke:#fff;stroke-linecap:square"/><line x1="34" y1="12.25" x2="34.75" y2="11.75" style="fill:none;stroke:#fff;stroke-linecap:square"/><line x1="45" y1="10" x2="46.25" y2="10" style="fill:none;stroke:#fff;stroke-linecap:square"/><line x1="51.75" y1="14.5" x2="52.5" y2="15.25" style="fill:none;stroke:#fff;stroke-linecap:square"/><line x1="60.75" y1="18" x2="61.5" y2="17.25" style="fill:none;stroke:#fff;stroke-linecap:square"/><line x1="62.25" y1="5.75" x2="61.75" y2="6.75" style="fill:none;stroke:#fff;stroke-linecap:square"/><line x1="6" y1="13.5" x2="6.75" y2="14" style="fill:none;stroke:#fff;stroke-linecap:square"/><line x1="12.25" y1="30.75" x2="12.25" y2="31.5" style="fill:none;stroke:#fff;stroke-linecap:square"/><line x1="5.5" y1="34.75" x2="4" y2="34.75" style="fill:none;stroke:#fff;stroke-linecap:square"/><line x1="9.75" y1="54.5" x2="10.25" y2="53.25" style="fill:none;stroke:#fff;stroke-linecap:square"/><line x1="18.25" y1="37.75" x2="17.5" y2="36.75" style="fill:none;stroke:#fff;stroke-linecap:square"/><line x1="49.25" y1="34.25" x2="50" y2="33.5" style="fill:none;stroke:#fff;stroke-linecap:square"/><line x1="39.28" y1="37" x2="39.78" y2="38" style="fill:none;stroke:#fff;stroke-linecap:square"/><line x1="25.5" y1="18.75" x2="26.25" y2="18" style="fill:none;stroke:#fff;stroke-linecap:square"/><line x1="23.25" y1="27.75" x2="24.5" y2="28.5" style="fill:none;stroke:#fff;stroke-linecap:square"/><line x1="9.25" y1="64.5" x2="9" y2="66" style="fill:none;stroke:#fff;stroke-linecap:square"/><line x1="38.25" y1="33.75" x2="37.75" y2="32.5" style="fill:none;stroke:#fff;stroke-linecap:square"/><line x1="67.55" y1="-3.66" x2="62.02" y2="0.64" style="fill:none;stroke:#fff;stroke-linecap:square"/><line x1="70" y1="-0.5" x2="64.47" y2="3.8" style="fill:none;stroke:#fff;stroke-linecap:square"/><line x1="47.19" y1="-2.72" x2="43.5" y2="2.75" style="fill:none;stroke:#fff;stroke-linecap:square"/><line x1="49.93" y1="0.19" x2="44.83" y2="4.98" style="fill:none;stroke:#fff;stroke-linecap:square"/><line x1="53.13" y1="-0.78" x2="55.5" y2="5" style="fill:none;stroke:#fff;stroke-linecap:square"/><line x1="56.25" y1="-2" x2="59" y2="4.75" style="fill:none;stroke:#fff;stroke-linecap:square"/><line x1="28" y1="-1.5" x2="22.31" y2="2.88" style="fill:none;stroke:#fff;stroke-linecap:square"/><line x1="32" y1="-0.5" x2="25.3" y2="5.54" style="fill:none;stroke:#fff;stroke-linecap:square"/><line x1="9.25" y1="-0.75" x2="9" y2="0.75" style="fill:none;stroke:#fff;stroke-linecap:square"/><line x1="14.22" y1="-2.58" x2="18.5" y2="3.25" style="fill:none;stroke:#fff;stroke-linecap:square"/><line x1="17.05" y1="-5.41" x2="21.33" y2="0.42" style="fill:none;stroke:#fff;stroke-linecap:square"/><line x1="58.53" y1="59.5" x2="59.03" y2="60.75" style="fill:none;stroke:#fff;stroke-linecap:square"/><line x1="38.75" y1="-2.5" x2="39.25" y2="4" style="fill:none;stroke:#fff;stroke-linecap:square"/><line x1="36" y1="-3.25" x2="34.5" y2="3.5" style="fill:none;stroke:#fff;stroke-linecap:square"/><line x1="45.75" y1="13.75" x2="46.5" y2="14.5" style="fill:none;stroke:#fff;stroke-linecap:square"/><line x1="32.75" y1="25.5" x2="34" y2="25.75" style="fill:none;stroke:#fff;stroke-linecap:square"/><line x1="63.5" y1="51" x2="64.25" y2="50.25" style="fill:none;stroke:#fff;stroke-linecap:square"/><line x1="8.25" y1="1.75" x2="4.85" y2="6.08" style="fill:none;stroke:#fff;stroke-linecap:square"/><line x1="61.5" y1="38.25" x2="62.75" y2="38.5" style="fill:none;stroke:#fff;stroke-linecap:square"/><line x1="23.25" y1="10" x2="24.25" y2="10.75" style="fill:none;stroke:#fff;stroke-linecap:square"/><line x1="36.25" y1="4.5" x2="36.5" y2="5.75" style="fill:none;stroke:#fff;stroke-linecap:square"/><line x1="11" y1="8.5" x2="11.5" y2="7" style="fill:none;stroke:#fff;stroke-linecap:square"/><line x1="3.25" y1="3.75" x2="3.25" y2="3.75" style="fill:none;stroke:#fff;stroke-linecap:round"/><line x1="6.25" y1="7" x2="6.25" y2="7" style="fill:none;stroke:#fff;stroke-linecap:round"/><line x1="13" y1="1.5" x2="13" y2="1.5" style="fill:none;stroke:#fff;stroke-linecap:round"/><line x1="23.25" y1="8.5" x2="23.25" y2="8.5" style="fill:none;stroke:#fff;stroke-linecap:round"/><line x1="17" y1="15.25" x2="17" y2="15.25" style="fill:none;stroke:#fff;stroke-linecap:round"/><line x1="14.5" y1="25" x2="14.5" y2="25" style="fill:none;stroke:#fff;stroke-linecap:round"/><line x1="3.75" y1="24" x2="3.75" y2="24" style="fill:none;stroke:#fff;stroke-linecap:round"/><line x1="20.5" y1="36" x2="20.5" y2="36" style="fill:none;stroke:#fff;stroke-linecap:round"/><line x1="25.75" y1="31.75" x2="25.75" y2="31.75" style="fill:none;stroke:#fff;stroke-linecap:round"/><line x1="33.5" y1="23.25" x2="33.5" y2="23.25" style="fill:none;stroke:#fff;stroke-linecap:round"/><line x1="28" y1="40.25" x2="28" y2="40.25" style="fill:none;stroke:#fff;stroke-linecap:round"/><line x1="32.75" y1="43" x2="32.75" y2="43" style="fill:none;stroke:#fff;stroke-linecap:round"/><line x1="18.75" y1="47.25" x2="18.75" y2="47.25" style="fill:none;stroke:#fff;stroke-linecap:round"/><line x1="42" y1="24.75" x2="42" y2="24.75" style="fill:none;stroke:#fff;stroke-linecap:round"/><line x1="41.75" y1="16.25" x2="41.75" y2="16.25" style="fill:none;stroke:#fff;stroke-linecap:round"/><line x1="58.25" y1="7.5" x2="58.25" y2="7.5" style="fill:none;stroke:#fff;stroke-linecap:round"/><line x1="50.25" y1="4" x2="50.25" y2="4" style="fill:none;stroke:#fff;stroke-linecap:round"/><line x1="61" y1="27.25" x2="61" y2="27.25" style="fill:none;stroke:#fff;stroke-linecap:round"/><line x1="59.5" y1="38.25" x2="59.5" y2="38.25" style="fill:none;stroke:#fff;stroke-linecap:round"/><line x1="54" y1="45" x2="54" y2="45" style="fill:none;stroke:#fff;stroke-linecap:round"/><line x1="57.5" y1="55" x2="57.5" y2="55" style="fill:none;stroke:#fff;stroke-linecap:round"/><line x1="50" y1="59.75" x2="50" y2="59.75" style="fill:none;stroke:#fff;stroke-linecap:round"/><line x1="28.5" y1="61" x2="28.5" y2="61" style="fill:none;stroke:#fff;stroke-linecap:round"/><line x1="39.5" y1="63.5" x2="39.5" y2="63.5" style="fill:none;stroke:#fff;stroke-linecap:round"/><line x1="25.25" y1="15.75" x2="25.25" y2="15.75" style="fill:none;stroke:#fff;stroke-linecap:round"/><line x1="10.75" y1="62.75" x2="10.75" y2="62.75" style="fill:none;stroke:#fff;stroke-linecap:round"/><line x1="0.75" y1="51.5" x2="0.75" y2="51.5" style="fill:none;stroke:#fff;stroke-linecap:round"/><line x1="3.75" y1="44.25" x2="3.75" y2="44.25" style="fill:none;stroke:#fff;stroke-linecap:round"/><line x1="9" y1="40.5" x2="9" y2="40.5" style="fill:none;stroke:#fff;stroke-linecap:round"/><line x1="9.75" y1="44.25" x2="9.75" y2="44.25" style="fill:none;stroke:#fff;stroke-linecap:round"/><line x1="50.75" y1="22.5" x2="50.75" y2="22.5" style="fill:none;stroke:#fff;stroke-linecap:round"/><line x1="48" y1="32.25" x2="48" y2="32.25" style="fill:none;stroke:#fff;stroke-linecap:round"/><line x1="46.25" y1="40.5" x2="46.25" y2="40.5" style="fill:none;stroke:#fff;stroke-linecap:round"/><line x1="27.75" y1="24.75" x2="27.75" y2="24.75" style="fill:none;stroke:#fff;stroke-linecap:round"/><line x1="24.25" y1="55.5" x2="24.25" y2="55.5" style="fill:none;stroke:#fff;stroke-linecap:round"/><line x1="24.25" y1="63.5" x2="24.25" y2="63.5" style="fill:none;stroke:#fff;stroke-linecap:round"/><line x1="18.88" y1="59.5" x2="18.88" y2="59.5" style="fill:none;stroke:#fff;stroke-linecap:round"/><line x1="26.63" y1="37" x2="26.63" y2="37" style="fill:none;stroke:#fff;stroke-linecap:round"/><line x1="61" y1="62" x2="61" y2="62" style="fill:none;stroke:#fff;stroke-linecap:round"/><line x1="4.5" y1="56" x2="4.5" y2="56" style="fill:none;stroke:#fff;stroke-linecap:round"/><line x1="33.75" y1="29.75" x2="33.75" y2="29.75" style="fill:none;stroke:#fff;stroke-linecap:round"/><line x1="33.25" y1="14.75" x2="33.25" y2="14.75" style="fill:none;stroke:#fff;stroke-linecap:round"/><line x1="34.5" y1="8" x2="34.5" y2="8" style="fill:none;stroke:#fff;stroke-linecap:round"/><line x1="49.75" y1="55.75" x2="49.75" y2="55.75" style="fill:none;stroke:#fff;stroke-linecap:round"/><line x1="49" y1="44.75" x2="49" y2="44.75" style="fill:none;stroke:#fff;stroke-linecap:round"/><line x1="62.75" y1="47.25" x2="62.75" y2="47.25" style="fill:none;stroke:#fff;stroke-linecap:round"/><line x1="52.25" y1="17.5" x2="52.25" y2="17.5" style="fill:none;stroke:#fff;stroke-linecap:round"/><line x1="53" y1="19.25" x2="53" y2="19.25" style="fill:none;stroke:#fff;stroke-linecap:round"/><line x1="53.25" y1="10.5" x2="53.25" y2="10.5" style="fill:none;stroke:#fff;stroke-linecap:round"/><line x1="40" y1="19.75" x2="40" y2="19.75" style="fill:none;stroke:#fff;stroke-linecap:round"/><line x1="49" y1="27.25" x2="49" y2="27.25" style="fill:none;stroke:#fff;stroke-linecap:round"/><line x1="59.5" y1="24" x2="59.5" y2="24" style="fill:none;stroke:#fff;stroke-linecap:round"/><line x1="61" y1="31.25" x2="61" y2="31.25" style="fill:none;stroke:#fff;stroke-linecap:round"/><line x1="1" y1="16.25" x2="1" y2="16.25" style="fill:none;stroke:#fff;stroke-linecap:round"/><line x1="-4.5" y1="22.25" x2="-0.18" y2="27.76" style="fill:none;stroke:#fff;stroke-linecap:square"/><line x1="-1.85" y1="20.03" x2="2.47" y2="25.54" style="fill:none;stroke:#fff;stroke-linecap:square"/><line x1="-1.68" y1="53.46" x2="2.25" y2="59.25" style="fill:none;stroke:#fff;stroke-linecap:square"/><line x1="1.88" y1="31.26" x2="-1.81" y2="37.2" style="fill:none;stroke:#fff;stroke-linecap:square"/><line x1="2.3" y1="61.59" x2="-3.23" y2="65.89" style="fill:none;stroke:#fff;stroke-linecap:square"/><line x1="-1.31" y1="10.5" x2="4.88" y2="13.78" style="fill:none;stroke:#fff;stroke-linecap:square"/><line x1="2.48" y1="39.48" x2="-2.75" y2="42" style="fill:none;stroke:#fff;stroke-linecap:square"/><line x1="5.31" y1="42.08" x2="-0.8" y2="45.49" style="fill:none;stroke:#fff;stroke-linecap:square"/><line x1="2.3" y1="-3.66" x2="-3.23" y2="0.64" style="fill:none;stroke:#fff;stroke-linecap:square"/><line x1="4.75" y1="-0.5" x2="-0.78" y2="3.8" style="fill:none;stroke:#fff;stroke-linecap:square"/><line x1="14.22" y1="-2.58" x2="18.5" y2="3.25" style="fill:none;stroke:#fff;stroke-linecap:square"/><line x1="17.05" y1="-5.41" x2="21.33" y2="0.42" style="fill:none;stroke:#fff;stroke-linecap:square"/><line x1="47.19" y1="-2.72" x2="43.5" y2="2.75" style="fill:none;stroke:#fff;stroke-linecap:square"/><line x1="49.93" y1="0.19" x2="44.83" y2="4.98" style="fill:none;stroke:#fff;stroke-linecap:square"/><line x1="53.13" y1="-0.78" x2="55.5" y2="5" style="fill:none;stroke:#fff;stroke-linecap:square"/><line x1="28" y1="-1.5" x2="22.31" y2="2.88" style="fill:none;stroke:#fff;stroke-linecap:square"/><line x1="32" y1="-0.5" x2="25.3" y2="5.54" style="fill:none;stroke:#fff;stroke-linecap:square"/><line x1="38.75" y1="-2.5" x2="39.25" y2="4" style="fill:none;stroke:#fff;stroke-linecap:square"/><line x1="36" y1="-3.25" x2="34.5" y2="3.5" style="fill:none;stroke:#fff;stroke-linecap:square"/><line x1="67.55" y1="-3.66" x2="62.02" y2="0.64" style="fill:none;stroke:#fff;stroke-linecap:square"/><line x1="56.25" y1="-2" x2="59" y2="4.75" style="fill:none;stroke:#fff;stroke-linecap:square"/><line x1="9.25" y1="-0.75" x2="9" y2="0.75" style="fill:none;stroke:#fff;stroke-linecap:square"/><line x1="2.3" y1="-3.66" x2="-3.23" y2="0.64" style="fill:none;stroke:#fff;stroke-linecap:square"/></pattern><pattern id="j" width="74.06" height="72" patternTransform="translate(206.76 123.88) scale(0.25)" patternUnits="userSpaceOnUse" viewBox="0 0 74.06 72"><rect width="74.06" height="72" style="fill:none"/><line x1="24.98" y1="72" x2="24.98" style="fill:none;stroke:#1d1d1b;stroke-width:4px"/><line x1="6.49" y1="72" x2="6.49" style="fill:none;stroke:#1d1d1b;stroke-width:4px"/><line x1="43.47" y1="72" x2="43.47" style="fill:none;stroke:#1d1d1b;stroke-width:4px"/><line x1="61.96" y1="72" x2="61.96" style="fill:none;stroke:#1d1d1b;stroke-width:4px"/><line x1="12.09" y1="72" x2="12.09" style="fill:none;stroke:#1d1d1b"/><line x1="30.58" y1="72" x2="30.58" style="fill:none;stroke:#1d1d1b"/><line x1="49.07" y1="72" x2="49.07" style="fill:none;stroke:#1d1d1b"/><line x1="67.56" y1="72" x2="67.56" style="fill:none;stroke:#1d1d1b"/></pattern></defs><title>s11s10</title><g style="clip-path:url(#a)"><g style="clip-path:url(#b)"><path d="M606,531.36S541.12,508,531.84,505.28s-17.19-8.17-26.45-12.26-6.56-8-15.78-16.12S471.1,467.39,464.52,462s2.64,1.36-27.76-14.93-59.55-24.58-71.33-42-46.14-35.07-56.6-51.14-18.33-25.46-26.26-29.54S270.79,307,266.81,306.93s-9.92-4.77-13.9-6.14a39.05,39.05,0,0,1-7.93-4.08s-22.46-12.21-25.06-17.56-5.19-12-9.12-17.38S191,246.93,183.17,236.21s-9.24-6.75-14.47-14.79-7.9-6.73-18.39-20.14-15.73-20.12-18.4-18.82-8.07,7.89-12,7.85-2.57-8-6.58-6.72l-4,1.28-2.67,1.3s-5.28-4-7.93-4.07-6.64-1.41-9.28-2.76,0-4-6.62-2.74-13.33,3.84-16,6.47l-2.69,2.63S62.77,183,56.12,183s-8-.09-10.65,1.21-1.34,1.31-5.34,2.6,0,1.33-5.35,2.6-9.29-1.43-14.59-2.82-2.65-1.36-8-1.42L1.59,185c-2.66,0-5.3-1.38-9.26-4.09a14.35,14.35,0,0,0-9.27-2.76c-2.66,0-9.35,3.89-10.71,6.53s-8,5.23-12.07,9.17a59.05,59.05,0,0,0-6.73,7.91s-48.27,36.69-69.61,43.1c-2.55.77-9.33,2.56-14.64,1.17s-6.64-.07-8-.09l-8-.09s-9.47,14.52-24.18,22.34c-5.25,2.79-20,7.75-25.38,11.68s-5.45,11.91-13.47,15.81-20.09,13.07-20.09,13.07-35.69-19-38.31-21.69-4-2.71-9.25-5.42-1.26-6.66-11.92-4.12-14.7,6.48-20,7.75-10.69,5.2-10.69,5.2-13.29-.14-20,6.43c0,0-9.27-4.09-14.67,3.83a203.74,203.74,0,0,1-37.53,27.5c-6.72,3.86-17.38,9.12-24.15,19.68-3,4.75-52.41,51.27-108.59,82.56-2.33,1.29-4-4-9.29-1.44s-9.37,5.22-20,3.77-1.27-5.33-13.28-1.47-12,7.84-22.74,13-10.71,6.53-20,9.09-10.64-.12-17.3,1.13-5.39,6.59-10.74,9.19S-663.58,466.17-673,474c-2.28,1.91-16,6.48-28,7.67s-9.42,10.53-18.71,9.1-11.92-4.12-17.27-1.52-9.42,10.53-13.42,11.82-5.33,1.27-12,2.53-9.3-1.44-10.65,1.21,2.61,4-2.72,5.29-6.66,1.25-8,5.23,2.62,4-4,5.27-12,1.2-18.64,2.45-22.66,5.07-30.63,5-7.95-2.74-14.63-.16-24,5.05-25.33,6.37-4,2.61-8,5.23-13.47,15.8-16.14,17.1-17.26-2.85-22.6-.25-41.34,11.51-41.34,11.51l-125.18,18.56-43.22,62,653.93,15.19L605,687.56Z" style="fill:#abc4ab"/><path d="M-332.34,507.71a105.79,105.79,0,0,0,6.5,13.37c3.92,6.69,13.19,9.45,19.78,14.84s15.72,21.45,22.31,26.84-.05,4-1.45,10.62-.06,5.32,1.24,8,23.66,24.19,28.95,26.91,2.63,2.69,19.79,13.51a55.17,55.17,0,0,1,22.31,26.84l92.38,1.68L31.14,640s9.35-3.89,10.72-7.86-5.18-12-5.18-12l6.88-21.2s-9.22-8.08-13.18-10.78,1.48-13.28,1.57-21.25-7.89-8.07-13.18-10.79-3.88-9.34,1.55-19.92.24-21.27.24-21.27-6.75,9.23-8.11,11.88S.4,534.65-17,542.44-29,551.61-33.06,554.22s3.58,37.27-5.42,9.25-3.84-13.34-7.75-20,1.4-6.63,1.5-15.93-2.42-21.3-5-26.65,4.15-14.58,5.52-18.55,4.24-22.56,9.64-30.47,14.85-19.78,24.18-22.34,5.42-9.24,8.15-15.86S8.58,395.15,9.93,393.83s1.47-13.28,1.53-18.59S19.63,358,25,351.46s1.39-5.31,4.1-10.6,13.44-13.14,13.44-13.14S58.45,333.21,65,341.26s2.63,2.69,5.28,4.05,1.24,8,3.82,14.66,2.56,9.34,2.5,14.66l-.23,21.26c-.08,6.65,2.46,17.31,2.42,21.3s1.17,14.64,5,28,6.5,13.36,6.44,18.68,7.84,12,9,29.35,9,24,9,24,3.89,9.35,6.55,9.38,9.2,9.4,10.47,14.74,5.23,8,13.07,20.08,0,0,3.93,5.36,2.63,2.69,7.85,12.05-2.76,9.28-2.76,9.28l14.25,33.39-2.89,21.24s11.93,2.79,17.28.19,8,.09,8,.09,7.94,2.75,11.93,2.79,5.33-1.27,6.69-3.91.09-8,1.52-17.27-3.8-17.32-3.8-17.32,9.28,2.76,11.92,4.12,15.88,6.82,15.88,6.82,1.14,17.29-.29,26.59,9.29,1.43,10.63.11,5.33-1.27,8-5.23.07-6.64.11-10.63,8-2.57,9.35-3.89A20.77,20.77,0,0,0,261.45,612c.07-6.65,6.79-13.22,10.81-15.84s9.38-6.54,9.38-6.54l4.1-10.59a34.69,34.69,0,0,1,4.09-9.26c2.7-4,8.07-7.89,8.12-13.21s-1.21-10.64-1.19-12-11.92-4.12-14.58-4.15S272.89,539,270.23,539s-9.29-1.44-12-1.47-20,6.43-20,6.43a142,142,0,0,0-10.8,14.51c-4.06,6.6-1.43,9.29,1.11,20s-1.42,8-6.78,11.89-12,1.2-12,1.2-18.55-5.52-21.16-9.54.19-17.28.23-21.27-20,2.44-20,2.44-5.18-12-3.78-18.66-3.85-12-5.14-16S148.14,519,145.57,511s-11.89-6.78-14.46-14.78,4.12-11.92,6.82-15.88,5.49-15.89,6.91-23.85,8.15-15.87,9.57-23.83-2.44-20-5-28-10.49-13.41-10.53-9.43,1.28,4,2.51,13.33,1.24,8,1.15,16-6.83,17.21-5.61,26.53-17.59,27.72-17.59,27.72-10.62-1.44-14.56-5.47.12-10.64-3.84-13.34-11.57-36-12.62-61.3-2.57-8-2.57-8-5-25.32-6.19-41.28.12-10.64,4.29-27.87-1.21-10.65-1.14-17.3,2.85-17.25,2.93-23.9-7.86-10.72-17.21-6.83-18.68,6.44-21.34,6.41-6.72,6.57-6.78,11.89,9.17,12.06,2.47,17.31-15.94-1.51-23.94,1.06-5.47,13.24-6.89,21.2,0,5.32-.14,13.29S5,360.54,5,360.54l-6.7,5.24a9.94,9.94,0,0,1-4,4C-8.44,371-9.9,383-9.9,383s-2.85,17.25-6.91,23.85-6.63-1.4-12-.13-1.37,4-8.11,11.88-9.45,13.19-13.48,17.13-6.77,10.56-14.83,18.45-1.37,4-2.83,15.92-2.72,5.29-8.19,18.52,0,0-.13,12-4.31,29.2-5.71,35.83,0,4,3.88,9.35,3.82,16,3.82,16-2.72,5.29-12.1,11.84c-4.09,2.85-5.9,5.73-6.65,8.07a15.79,15.79,0,0,0-1.37-4.17c-2.6-5.35-5.15-14.68-5.15-14.68s-1.17-14.64.2-18.62-1.28-4-3.88-9.34-1.16-16-7.82-14.71,0,4-1.43,9.29-1.49,14.6-2.89,21.24,2.55,9.33,2.49,14.65-.17,16-1.58,22.58-20.23,26.37-20.23,26.37a55.9,55.9,0,0,1-2.58-6.68c-1.29-4,.08-8,.13-12s-7.89-8.07-14.49-12.13-5.23-8-5.23-8,.09-8-1.18-13.31,5.49-15.89,6.85-18.54-6.58-6.72-14.58-4.15-5.52,18.56-9.55,22.5-13.37,6.5-13.37,6.5l-6.59-5.39a35.17,35.17,0,0,1,1.43-9.29c1.38-4-1.25-6.66-2.58-6.68s-3.92-6.69-3.92-6.69l-6.56-8-14.76,13.13-18.6-1.53-6.49-14.7-10.51-10.75,17.53-22.4,16.11-14.45,4.06-6.6,13.37-6.5,8-3.9,18.71-9.1,12-5.19,5.38-5.26,2.75-7.94s6.7-5.25,9.39-7.88,9.33-2.55,9.33-2.55l13.43-11.82s16.14-17.11,22.8-18.36,2.63,2.69,5.27,4.05-.17,15.95-.17,15.95l5.39-6.59c5.39-6.59.12-10.64.12-10.64s-2.5-14.65-3.79-18.65.25-22.6,4.3-27.87,8-2.57,12-7.84,9.48-15.85,16.16-18.44,6.69-3.91,11.92,4.12,0,2.66-2.82,14.59-9.42,10.54-10.84,18.5-.1,9.3-2.87,18.58-2.84,17.25-3,33.2,2.35,28,9,26.69,6.74-7.9,6.81-14.55,4.09-9.26,5.51-17.22,5.58-23.87,8.27-26.5S-41.68,372-40.31,368A272.43,272.43,0,0,1-29.4,342.88c4.08-7.93,8-3.9,12-6.52s1.37-4,1.4-6.63,8.08-9.22,12.13-14.49,2.73-6.62,2.77-10.6,5.42-9.25,8.1-10.55,2.77-10.6,2.77-10.6.12-10.64,6.84-17.21S29,233.18,29,233.18s1.42-8,.1-9.31,2.78-10.6,5.42-9.24,1.3,2.67,3.9,8,3.89,9.35,1.14,17.3,2.56,9.33,2.5,14.65,6.57,6.72,6.57,6.72l6.55,9.38s6.66-1.26,6.72-6.57,5.52-18.55,5.61-26.53,2.7-4,4.07-7.93,2.73-6.62,2.79-11.94,0-2.66-2.58-6.67,1.43-9.29.13-12-4,0-8-2.74-5.27-4.05-7.93-4.08l-9.3-.1c-1.58,0-2.64-3.75-3.25-6.8a11.41,11.41,0,0,1-3.34,1.41c-3.21,1-1.3,1.26-3.15,2l.42,4.65-12-.14c-5.31-.05-5.34,2.6-9.36,5.22s-4-1.38.06-5.32a14.12,14.12,0,0,0,3.41-6.77c-4.42-1.21-2.23-1.19-7.31-1.25L1.59,185a10.17,10.17,0,0,1-4.37-1.16c-1.85,4-1,7.42-1.06,11.74-.06,5.32-4.08,7.93-6.72,6.57s-1.27-5.33-1.23-9.32-2.58-6.67-2.57-8c0-1-1.35-4-2.09-6.67h-.49c-2.66,0-9.35,3.89-10.71,6.53s-8,5.23-12.07,9.17a59.05,59.05,0,0,0-6.73,7.91s-48.27,36.69-69.61,43.1c-2.55.77-9.33,2.56-14.64,1.17s-6.64-.07-8-.09l-8-.09s-9.47,14.52-24.18,22.34c-5.25,2.79-20,7.75-25.38,11.68s-5.45,11.91-13.47,15.81c-6.39,3.1-15.31,9.53-18.7,12,4.71,5,9.29,10,10.46,11.81,2.61,4,3.93,5.36,9.17,12.06s4,2.71,10.58,5.44,10.62,1.45,9.23,6.75-13.53,21.12-13.53,21.12,8.66-1.9,12.58,4.79-.06,5.32,3.87,10.68-4.06,6.6-6.8,13.22-4.14,14.58-9.52,19.84-12.1,11.83-28.25,30.26-8,1.24-20.07,11.75-13.41,10.48-24.14,18.34S-332.34,507.71-332.34,507.71Z" style="fill:#86ac98"/><path d="M179.29,286c-2.57-8-2.6-5.35-2.55-9.34s2.73-6.61-2.56-9.33-2.63-2.69-7.92-5.41-1.28-4-5.29-2.71,1.28,5.33-4,3.94-5.3-1.39-5.28-2.72,1.34-1.31,1.38-5.3,2.68-1.3.08-6.64-2.62-4-3.9-8-6.53-10.71-7.76-20,2.69-2.63-1.21-10.65-2.54-10.66-3.86-12-4,2.62-3.94-4c.05-4.33-2.18-6.44-3.36-9.21-2.78,2.39-6.37,5.78-9.23,5.75-4-.05-2.57-8-6.58-6.72l-4,1.28-2.67,1.3s-5.28-4-7.93-4.07-6.64-1.41-9.28-2.76,0-4-6.62-2.74c-6.41,1.21-12.82,3.65-15.69,6.18,1.69,2.59,2.94,4.93,2.93,6.31,0,4,5.28,2.72,10.5,12.08,3.23,5.8,5.45,10.57,7.93,13.69-2.61-.57-4.9-.87-5.42-.36-1.34,1.31,1.26,6.66-.1,9.3s-1.42,8-1.48,13.28l-.09,8c-.06,5.32-4,3.95-.08,8s3.94,4,7.9,6.74-3.83-14.67-1.16-16,6.67-1.26,8,2.75,2.53,12,5.14,16,1.27,5.33,3.93,5.36,6.68-2.59,6.62,2.73S118.2,280,118.2,280a5.86,5.86,0,0,1-1.28-4c0-2.65,1.44-10.62-1.19-13.3s0-4-1.22-9.32-2.62-4-2.57-8c0-2.65-.18-6.75-.31-9.21,2.69,3.18,4.82,5.76,5.65,6.61,2.63,2.69,5.29,2.72,9.21,9.41s6.6,4.06,7.88,8.06-2.73,6.62,1.17,14.64,3.87,10.68,7.85,12.05,4,.05,5.28,2.72,10.52,10.75,10.52,10.75-3.93-5.36-3.88-9.35,2.68-2.63.07-6.64-6.57-6.72-6.54-9.38,1.37-4,2.73-6.62,2.7-4,4-1.29,1.27,5.34,6.54,9.38,7.94,4.08,9.22,8.08,3.9,8,7.84,12,7.91,6.74,9.22,8.08S181.86,294,179.29,286Z" style="fill:#86ac98"/></g></g><g style="clip-path:url(#e)"><g style="clip-path:url(#f)"><path d="M81.93,590.67S20.6,559.16,11.76,555.22s-16-10.33-24.64-15.58-5.46-8.83-13.56-18-17.12-11.83-22.95-18,2.44,1.69-25.59-18.39-55.87-32.09-65.29-50.88-41.22-40.75-49.51-58-14.88-27.62-22.22-32.69-9.42-18.79-13.37-19.35-9.22-6-13-7.88a39.59,39.59,0,0,1-7.34-5.07s-20.69-15-22.58-20.66-3.59-12.59-6.79-18.41-17.69-17.28-24.09-28.93-8.29-7.89-12.43-16.53-7-7.7-15.63-22.36-13-22-15.81-21-9,6.78-13,6.22-1.51-8.27-5.65-7.51l-4.13.75-2.82.95s-4.71-4.7-7.34-5.07-6.39-2.25-8.84-3.94.56-3.95-6.21-3.56-13.72,2.08-16.73,4.34l-3,2.26s-.94-2.82-7.53-3.75-7.89-1.12-10.71-.18-1.5,1.13-5.64,1.88-.19,1.32-5.64,1.89-9-2.62-14.1-4.68-2.45-1.69-7.71-2.44L-472.57,169c-2.64-.38-5.08-2.06-8.66-5.26a14.38,14.38,0,0,0-8.84-3.94c-2.63-.37-9.77,2.65-11.46,5.09s-8.64,4.15-13.15,7.54a59,59,0,0,0-7.7,7S-575,209.55-597,213.15c-2.63.42-9.59,1.32-14.67-.74s-6.58-.93-7.9-1.12l-7.89-1.12s-11.27,13.17-26.87,19c-5.57,2.08-20.86,5.1-26.69,8.3s-6.94,11.1-15.4,13.93S-718,261.78-718,261.78s-32.92-23.46-35.18-26.47-3.58-3.19-8.47-6.57-.38-6.77-11.29-5.63-15.41,4.53-20.86,5.1S-805.08,232-805.08,232s-13.17-1.86-20.68,3.79c0,0-8.65-5.26-15,1.89a203.86,203.86,0,0,1-40.77,22.42c-7.17,2.95-18.42,6.79-26.49,16.38-3.63,4.32-58.61,44.06-118.37,67.81-2.47,1-3.39-4.51-9-2.62s-10,4-20.3,1.15-.57-5.45-13-3.18-13,6.22-24.24,10-11.46,5.09-21,6.41-10.53-1.49-17.3-1.11-6.19,5.84-11.83,7.72-25.38-.91-35.72,5.68c-2.5,1.6-16.72,4.35-28.76,4s-10.7,9.23-19.73,6.6-11.29-5.62-16.92-3.74-10.71,9.23-14.84,10-5.46.57-12.22,1-9-2.63-10.72-.18,2.07,4.32-3.38,4.89-6.77.38-8.64,4.15,2.07,4.32-4.7,4.7-12-.36-18.8,0-23.12,2.1-31,1-7.52-3.76-14.48-2.06-24.43,1.91-25.94,3-4.32,2.07-8.64,4.14-15.4,13.93-18.22,14.88-16.74-5.06-22.38-3.17-42.48,6.06-42.48,6.06l-126.52,2.2-50.89,55.89,646.46,99.7L60.66,745.42Z" style="fill:#abc4ab"/></g></g><g style="clip-path:url(#g)"><path d="M331.74,43.35c-8.5-9.65-13-6.81-22.16,0s-13.69,9.62-22.15,0V18.79c8.46,9.62,13.08,6.79,22.15,0s13.66-9.65,22.16,0Z" style="fill:#ef1e32"/><rect x="284.76" y="17.72" width="2.67" height="58.73" rx="1.33" style="fill:#165488"/><path d="M513.59,208.25s-26.16-9.08-29.9-10.14-6.94-3.21-10.68-4.81-2.67-3.2-6.4-6.4-7.48-3.74-10.15-5.88,1.07.54-11.21-5.87-24-9.61-28.83-16.55-18.68-13.88-23-20.29-7.47-10.14-10.67-11.74-4.81-6.94-6.41-6.94-4-1.87-5.6-2.4a15.82,15.82,0,0,1-3.21-1.61s-9.07-4.8-10.14-6.94a44.92,44.92,0,0,0-3.74-6.94c-1.6-2.13-8-5.87-11.21-10.14s-3.74-2.67-5.87-5.87-3.21-2.67-7.48-8-6.4-8-7.47-7.48-3.2,3.21-4.81,3.21-1.06-3.21-2.67-2.67l-1.6.53-1.06.54s-2.14-1.61-3.21-1.61a10,10,0,0,1-3.74-1.06c-1.06-.54,0-1.61-2.66-1.07s-5.34,1.6-6.41,2.67l-1.07,1.07s-.53-1.07-3.2-1.07-3.21,0-4.27.53a7.64,7.64,0,0,1-2.14,1.07c-1.6.53,0,.53-2.13,1.07s-3.74-.54-5.88-1.07-1.06-.53-3.2-.53h-4.27c-1.07,0-2.14-.54-3.74-1.61a5.79,5.79,0,0,0-3.74-1.06,7.37,7.37,0,0,0-4.27,2.67c-.53,1.06-3.2,2.13-4.8,3.73a23.54,23.54,0,0,0-2.67,3.21S230.9,93.73,222.36,96.4a12.19,12.19,0,0,1-5.87.54,5.61,5.61,0,0,0-3.21,0h-3.2a30,30,0,0,1-9.61,9.07c-2.1,1.15-8,3.21-10.14,4.81s-2.14,4.8-5.34,6.41a63.92,63.92,0,0,0-8,5.33s-14.42-7.47-15.48-8.54-1.61-1.07-3.74-2.13-.53-2.67-4.81-1.61-5.87,2.67-8,3.21a14.09,14.09,0,0,0-4.27,2.13s-5.34,0-8,2.67c0,0-3.74-1.6-5.88,1.6a81.77,81.77,0,0,1-14.94,11.22c-2.69,1.57-6.94,3.73-9.61,8C101,141,81.42,159.94,59,172.75c-.92.53-1.6-1.6-3.73-.54s-3.74,2.14-8,1.61-.54-2.14-5.34-.54-4.81,3.21-9.08,5.34-4.27,2.67-8,3.74-4.27,0-6.94.53-2.13,2.67-4.27,3.74S3.47,187.7-.27,190.9c-.9.78-6.4,2.67-11.21,3.2s-3.74,4.27-7.47,3.74-4.81-1.6-6.94-.53-3.74,4.27-5.34,4.8A32.64,32.64,0,0,1-36,203.18c-2.67.53-3.73-.53-4.27.53s1.07,1.6-1.07,2.14-2.67.53-3.2,2.13,1.07,1.61-1.6,2.14-4.81.53-7.48,1.07-9.07,2.13-12.27,2.13-3.21-1.07-5.88,0-9.61,2.14-10.14,2.67a30.35,30.35,0,0,1-3.2,2.14c-1.61,1.07-5.34,6.4-6.41,6.94s-6.94-1.07-9.08,0-16.55,4.8-16.55,4.8l-50.18,8L-184.45,263l262.66,3.21L513.85,271Z" style="fill:#abc4ab"/><path d="M120.92,234.14c0-1.06.54-2.67,0-4.27s-1.6-2.13-1.6-3.73,1.07-1.07,0-2.14-2.14-3.74-3.2-4.27-1.6-3.2-2.67-3.2-2.67-1.61-2.67-1.61,0-3.2-2.14-3.2-4.27-1.07-6.4.53-4.81,3.74-5.88,4.28,0,0-3.73,1.06-17.09,1.07-18.69,1.07-6.41,1.07-6.41,0,1.07-2.67,2.67-2.13,5.88-1.07,8-2.14,3.21-1.07,3.74-2.14,0-2.13,0-2.66-1.07-2.14-2.14-1.07-3.2,3.2-4.27,3.2-2.13,1.07-3.2.53,0-2.66,0-2.66l2.13-2.14,1.61-2.14a24.43,24.43,0,0,0-5.88,1.61C68.07,208,64.33,208,63.8,208s-3.74-2.67-4.81-3.2-3.73-3.2-4.8-3.2-2.14-1.6-2.14-1.6l-1.6-1.07s1.07,2.67-1.07,2.67-2.13-1.07-3.2-1.07A3.24,3.24,0,0,0,44,201c-1.06.54-1.6.54-2.67,1.07s-1.6.54-1.6,1.07,0,2.13.54,2.67-2.67.53-2.67.53-3.21.54-3.74,1.07-.53,1.6-2.14,1.6-5.87.54-5.87.54-.53-1.07-2.67,0,1.6,2.13,0,2.13-4.8,0-5.87.53-2.67.54-1.6,1.07,3.2,0,2.67,1.07-.54,3.2-1.07,3.2-1.6,0-.53.54a2.13,2.13,0,0,1,1.06,2.13c0,.54-.53,1.07-2.13,1.6a19.54,19.54,0,0,1-4.81,1.07c-1.06,0-3.73,1.6-6.4,2.14s-2.67,1.07-4.81,1.07-.53-1.61,0-1.61a25.79,25.79,0,0,0,3.74-1.6l2.67-1.6,2.67-1.07,1.6-2.67,2.67.54,1.07-.54-.54-2.67s.54-1.6,0-1.6a12.19,12.19,0,0,1-2.13-.53.53.53,0,0,0-.54-.54,42.5,42.5,0,0,0-4.8,2.14H1.87a24.35,24.35,0,0,1-4.27,1.07c-1.07,0-4.27,1.07-5.88,1.07h-4.27l-2.13,1.06a2.61,2.61,0,0,1,0,2.14,6.69,6.69,0,0,1-1.07,1.6l-1.07,1.07h-2.13l-4.81-2.14-6.4,1.6L-31.77,224a7.83,7.83,0,0,1-2.13,1.07,13.53,13.53,0,0,0-2.67,1.07h-2.14c-.53,0-1.6,1.06-1.6,1.06a23.08,23.08,0,0,1,.54,2.67c0,.54-2.14,0-2.14,0s-3.74,1.6-4.8,2.14a29.78,29.78,0,0,0-.54,3.74c0,1.06.54,1.6,0,2.13s-.53,1.6-1.07,3.2.54,4.81.54,5.88,1.07,1.6,0,1.6-5.88-.54-6.94.53-5.34,1.07-7.48,1.07-1.6,3.2-1.6,3.2l4.27,2.67,176.71,7.48a15.4,15.4,0,0,0,1.61-8.55,84.11,84.11,0,0,0-1.61-8.54c0-.53.54-4.8,1.07-5.34A26.51,26.51,0,0,0,120.92,234.14ZM55.26,254.43c-.54,1.07-5.34,0-5.88-.53A12,12,0,0,0,44,250.16c-3.2-1.07-7.47-5.34-9.61-5.87a31.38,31.38,0,0,0-3.73-1.07c-2.67-.53-6.41-.53-3.74-1.6,0,0,2.67-2.67,4.8-2.14s3.74-1.07,4.28-1.6a7.25,7.25,0,0,1,2.13-1.6c1.07-.53,2.14-1.6,3.2-1.6s-1.06,1.6-1.6,2.67a9.16,9.16,0,0,1-3.2,3.2c-1.07.53-1.07,1.07-1.07,1.6s1.07,2.67,2.14,2.67,0-2.13,2.67-2.13a20.39,20.39,0,0,1,4.27.53c.53,0,1.6,0,1.6,1.07s1.07,1.6,0,2.13a1.9,1.9,0,0,0-1.07,1.6s1.6,1.07,2.67,1.61,1.07,1.6,2.14,2.13,1.06,0,1.6.54S55.79,253.36,55.26,254.43Zm10.14-1.07c-1.6-.53-.53-1.06-2.67-1.6s-1.6-1.07-3.74-1.6-1.6,0-3.2-1.07-3.74-5.34-4.81-5.34-1.06-1.06-1.6-1.06,1.07,4.8,2.67,5.33,5.34,4.28,6.41,5.34,2.13,1.6,1.6,2.14-6.41-2.67-6.94-3.74-2.14-2.13-3.2-3.2-1.07-3.2-2.14-4.27a2.94,2.94,0,0,1-1.07-2.67c0-1.07,1.61-2.14,2.14-4.27s4.27-5.88,6.41-5.88a9.2,9.2,0,0,1-1.07,4.28c-1.07,1.6-1.6,1.6-1.6,3.2s-.54,3.2.53,4.27,2.67,1.6,3.74,2.67,2.67,2.67,3.73,2.67a5.41,5.41,0,0,1,4.28,1.6c1.6,1.6,3.73,2.67,4.8,4.27S67,253.9,65.4,253.36Z" style="fill:#86ac98"/><path d="M-174.55,248.43l.77,7.6s63.53-3.2,71-2.13,8.54-2.14,8.54-2.14.53-3.74,1.6-4.27,1.07,0,2.14.53,0-1.06,1.07-.53,2.66-.53,2.13-1.6-2.13-1.07-2.13-2.67v-2.14s-1.61,2.14-1.61-.53,1.61-4.27,1.61-4.8,3.2-1.07,1.6-2.14-3.21-.53-3.74-1.07-.53.54-1.07-1.07-1.07-1.6-.53-2.67.53-3.2,1.6-2.13a15.43,15.43,0,0,1,2.14,3.2,23,23,0,0,0,3.73-3.73,5.59,5.59,0,0,1,4.81-2.67c2.13,0,1.6-.54,2.67,0s.53,2.13-.54,2.67-1.6.53-2.13,1.06a2.77,2.77,0,0,0-1.07,2.14c0,1.07,0,.53,1.07,1.07s1.07,1.06.53,1.6-2.13,0-2.13,1.07-.54,1.6.53,1.6.53.53,2.14-.54A13.42,13.42,0,0,1-76.08,232c1.6-.54,3.21-.54,3.74-1.6s0-1.07,1.07-2.67.53-1.6,3.2-3.21.53-2.13,2.14-4.27,1.06-2.67,2.67-3.2,2.66,1.6,4.27,0a6.39,6.39,0,0,1,4.27-2.14c1.06,0,2.67,0,3.2-.53s3.2-4.27,4.81-3.2a29.36,29.36,0,0,0,5.87,2.67c1.6.53,5.87.53,10.14-2.14s3.2-4.8,8.54-4.8,0,1.06,5.34.53,5.34-1.07,9.08-2.67S-4,202.65-.8,202.65.8,200,3.47,199.44s5.87,2.67,11.21,0,6.41-5.34,8-5.87S25.36,192,28,192.5s2.67,1.6,6.94,1.07-.54-.53,3.74-1.07,2.66,1.6,4.8-1.6,3.2-2.67,3.2-4.27-.53-.54-2.13-2.14-.54-1.6-1.6-3.2-2.14,1.07-1.61-1.6c.3-1.49,3.42-4,4.82-6.06-2.55-.64,0-1.79-4.28-.35-4.81,1.6-4.81,3.21-9.08,5.34s-4.27,2.67-8,3.74-4.27,0-6.94.53-2.13,2.67-4.27,3.74S3.47,187.7-.27,190.9c-.9.78-6.4,2.67-11.21,3.2s-3.74,4.27-7.47,3.74-4.81-1.6-6.94-.53-3.74,4.27-5.34,4.8A32.64,32.64,0,0,1-36,203.18c-2.67.53-3.73-.53-4.27.53s1.07,1.6-1.07,2.14-2.67.53-3.2,2.13,1.07,1.61-1.6,2.14-4.81.53-7.48,1.07-9.07,2.13-12.27,2.13-3.21-1.07-5.88,0-9.61,2.14-10.14,2.67a30.35,30.35,0,0,1-3.2,2.14c-1.61,1.07-5.34,6.4-6.41,6.94s-6.94-1.07-9.08,0-16.55,4.8-16.55,4.8l-50.18,8Z" style="fill:#86ac98"/><path d="M128.66,199.71s-1.6,1.6-1.06,3.2a4.39,4.39,0,0,1-.54,3.74c-.53,1.07-2.67,3.2-2.13,4.27s-2.14,2.14-1.61,3.2-5.33-2.13-7.47-2.67a17,17,0,0,1-3.2-1.06s1.06,1.6-1.07,1.6-1.6-1.6-3.74-2.14-4.27-1.6-5.34-1.07-.53,2.14-2.67,2.14-2.13,0-5.33-2.14-4.28-3.73-7-4.27-4.8-1.6-4.8-3.2-1.07,0,1.07-2.14,4.27,0,6.4-2.13-.53-3.74,2.67-4.27,8-.54,9.61,0,3.47,3.47,7.21,4.54,4.81,0,6.41.53,1.06,0,3.73,1.07a8.36,8.36,0,0,0,4.81.53C125.73,199.44,128.66,199.71,128.66,199.71Z" style="fill:#86ac98"/><path d="M61.93,193.3a24.25,24.25,0,0,0,2.67,3.21c1.6,1.6,1.6,1.6,2.13,3.2s1.07,3.2,2.67,3.2a7.67,7.67,0,0,0,3.74-1.07c1.07-.53.53-2.13,2.14-2.67s1.6-1.6,3.2-2.66,4.8-.54,2.13-1.61-5.33,0-5.87-1.6a5.82,5.82,0,0,0-2.13-2.67c-.54-.53-5.34,1.6-6.41,2.14S64.06,191.7,61.93,193.3Z" style="fill:#86ac98"/><path d="M136.67,202.91a42.57,42.57,0,0,0,2.67,5.34c1.6,2.67,5.34,3.74,8,5.87s6.41,8.55,9.07,10.68,0,1.6-.53,4.27,0,2.14.53,3.21,9.61,9.6,11.75,10.67,1.07,1.07,8,5.34A22.12,22.12,0,0,1,185.25,259l37.11.27,60.86-4.81s3.74-1.6,4.27-3.2-2.13-4.81-2.13-4.81l2.66-8.54s-3.73-3.2-5.33-4.27.53-5.34.53-8.54-3.2-3.21-5.34-4.27-1.6-3.74.53-8a10.29,10.29,0,0,0,0-8.54s-2.66,3.73-3.2,4.8-4.8,3.2-11.74,6.41-4.81,3.74-6.41,4.8,1.6,15-2.14,3.74-1.6-5.34-3.2-8,.54-2.67.54-6.4a29,29,0,0,0-2.14-10.68c-1.07-2.14,1.6-5.87,2.14-7.48s1.6-9.07,3.73-12.28,5.87-8,9.61-9.07,2.14-3.74,3.21-6.41a44.24,44.24,0,0,1,4.8-8c.53-.53.53-5.33.53-7.47s3.21-6.94,5.34-9.61.54-2.14,1.6-4.27,5.34-5.34,5.34-5.34,6.41,2.14,9.08,5.34,1.07,1.07,2.13,1.6.54,3.2,1.61,5.87a12.62,12.62,0,0,1,1.06,5.88v8.54c0,2.67,1.07,6.94,1.07,8.54A46.67,46.67,0,0,0,303.51,176c1.6,5.34,2.67,5.34,2.67,7.48s3.2,4.8,3.73,11.74,3.74,9.61,3.74,9.61,1.6,3.74,2.67,3.74,3.74,3.73,4.27,5.87,2.14,3.2,5.34,8,0,0,1.6,2.13a24,24,0,0,1,3.2,4.81c2.14,3.74-1.06,3.74-1.06,3.74l5.87,13.34L334.47,255s4.81,1.07,6.94,0,3.21,0,3.21,0a21.92,21.92,0,0,0,4.8,1.07,2.46,2.46,0,0,0,2.67-1.6c.53-1.07,0-3.2.53-6.94a11,11,0,0,0-1.6-6.94,50.3,50.3,0,0,1,4.81,1.6c1.06.54,6.4,2.67,6.4,2.67a65.67,65.67,0,0,1,0,10.68c-.53,3.74,3.74.53,4.27,0s2.14-.54,3.21-2.14,0-2.67,0-4.27,3.2-1.07,3.73-1.6a8.31,8.31,0,0,0,2.14-5.34c0-2.67,2.67-5.34,4.27-6.4s3.74-2.67,3.74-2.67l1.6-4.28a13.75,13.75,0,0,1,1.6-3.73c1.07-1.6,3.2-3.21,3.2-5.34a41.87,41.87,0,0,0-.53-4.81c0-.53-4.8-1.6-5.87-1.6s-3.74-.53-4.81-.53-3.73-.54-4.8-.54-8,2.67-8,2.67a57.68,57.68,0,0,0-4.27,5.88c-1.6,2.67-.53,3.73.53,8s-.53,3.21-2.67,4.81a5.33,5.33,0,0,1-4.8.53s-7.48-2.13-8.54-3.73,0-6.94,0-8.55-8,1.07-8,1.07-2.14-4.8-1.6-7.47-1.6-4.81-2.14-6.41-4.8-3.74-5.87-6.94-4.81-2.67-5.87-5.87,1.6-4.81,2.67-6.41,2.13-6.4,2.67-9.61,3.2-6.4,3.73-9.61-1.07-8-2.13-11.21-4.27-5.34-4.27-3.74.53,1.61,1.06,5.34a28,28,0,0,1,.54,6.41c0,3.2-2.67,6.94-2.14,10.68s-6.94,11.21-6.94,11.21-4.27-.54-5.87-2.14,0-4.27-1.6-5.34-4.81-14.41-5.34-24.55-1.07-3.21-1.07-3.21-2.13-10.14-2.67-16.55,0-4.27,1.6-11.21-.53-4.27-.53-6.94,1.07-6.94,1.07-9.61-3.21-4.27-6.94-2.67-7.48,2.67-8.55,2.67-2.66,2.67-2.66,4.81,3.73,4.8,1.06,6.94-6.4-.54-9.61.53-2.13,5.34-2.67,8.54,0,2.14,0,5.34-2.67,6.41-2.67,6.41l-2.66,2.13a4,4,0,0,1-1.61,1.6c-1.06.54-1.6,5.34-1.6,5.34s-1.07,6.94-2.67,9.61-2.67-.53-4.8,0-.54,1.6-3.21,4.81-3.73,5.34-5.33,6.94-2.67,4.27-5.88,7.47-.53,1.6-1.06,6.41-1.07,2.13-3.21,7.47,0,0,0,4.81-1.6,11.74-2.13,14.41,0,1.6,1.6,3.74,1.6,6.41,1.6,6.41-1.07,2.13-4.8,4.8a6.52,6.52,0,0,0-2.64,3.27,6,6,0,0,0-.57-1.67,42.84,42.84,0,0,1-2.13-5.87s-.54-5.87,0-7.47-.54-1.61-1.61-3.74-.53-6.41-3.2-5.87,0,1.6-.53,3.73-.54,5.88-1.07,8.55,1.07,3.73,1.07,5.87a54.26,54.26,0,0,1-.54,9.07c-.53,2.67-8,10.68-8,10.68a21.61,21.61,0,0,1-1.07-2.67c-.54-1.6,0-3.2,0-4.8s-3.21-3.21-5.87-4.81-2.14-3.2-2.14-3.2a27.62,27.62,0,0,0-.53-5.34c-.54-2.14,2.13-6.41,2.67-7.47s-2.67-2.67-5.88-1.61-2.13,7.48-3.73,9.08-5.34,2.67-5.34,2.67l-2.67-2.14a14.14,14.14,0,0,1,.53-3.73c.54-1.6-.53-2.67-1.07-2.67s-1.6-2.67-1.6-2.67l-2.67-3.21-5.87,5.34-7.47-.53-2.67-5.87-4.27-4.27,6.94-9.08,6.4-5.87,1.6-2.67,5.34-2.67,3.21-1.6,7.47-3.74,4.8-2.14,2.14-2.13,1.07-3.2s2.67-2.14,3.74-3.21,3.73-1.07,3.73-1.07l5.34-4.8s6.41-6.94,9.08-7.47,1.06,1.06,2.13,1.6,0,6.4,0,6.4L232,162.6c2.13-2.66,0-4.27,0-4.27s-1.07-5.87-1.6-7.47,0-9.08,1.6-11.21,3.2-1.07,4.8-3.21,3.74-6.4,6.41-7.47,2.67-1.6,4.8,1.6,0,1.07-1.06,5.87-3.74,4.28-4.27,7.48,0,3.74-1.07,7.47-1.07,6.94-1.07,13.35,1.07,11.21,3.74,10.68,2.67-3.21,2.67-5.88,1.6-3.73,2.13-6.94,2.14-9.61,3.21-10.67.53-4.81,1.06-6.41,2.67-6.94,4.27-10.14,3.21-1.6,4.81-2.67.53-1.6.53-2.67,3.21-3.74,4.81-5.87,1.07-2.67,1.07-4.28,2.13-3.73,3.2-4.27,1.07-4.27,1.07-4.27,0-4.27,2.67-6.94,4.8-13.34,4.8-13.34.53-3.21,0-3.74,1.07-4.27,2.14-3.74.53,1.07,1.6,3.2a7.65,7.65,0,0,1,.53,6.94c-1.07,3.21,1.07,3.74,1.07,5.88s2.67,2.67,2.67,2.67l2.67,3.73s2.67-.53,2.67-2.67S296,95.87,296,92.67s1.07-1.6,1.6-3.21a12.62,12.62,0,0,0,1.07-4.8c0-2.14,0-1.07-1.07-2.67s.54-3.74,0-4.81-1.6,0-3.2-1.06-2.13-1.6-3.2-1.6h-3.74c-.63,0-1.07-1.5-1.33-2.72a4.74,4.74,0,0,1-1.34.58c-1.28.43-.51.51-1.25.8l.18,1.87H279c-2.14,0-2.14,1.07-3.74,2.13s-1.6-.53,0-2.13a5.65,5.65,0,0,0,1.34-2.74,6,6,0,0,0-2.94-.46h-4.27a4.25,4.25,0,0,1-1.76-.45c-.73,1.6-.38,3-.38,4.72,0,2.13-1.6,3.2-2.67,2.67s-.53-2.14-.53-3.74-1.07-2.67-1.07-3.2a28,28,0,0,0-.87-2.67h-.2a7.37,7.37,0,0,0-4.27,2.67c-.53,1.06-3.2,2.13-4.8,3.73a23.54,23.54,0,0,0-2.67,3.21S230.9,93.73,222.36,96.4a12.19,12.19,0,0,1-5.87.54,5.61,5.61,0,0,0-3.21,0h-3.2a30,30,0,0,1-9.61,9.07c-2.1,1.15-8,3.21-10.14,4.81s-2.14,4.8-5.34,6.41a58.51,58.51,0,0,0-7.46,4.91,58.94,58.94,0,0,1,4.25,4.69c1.07,1.61,1.61,2.14,3.74,4.81s1.6,1.07,4.27,2.14,4.27.53,3.74,2.66-5.34,8.55-5.34,8.55,3.47-.8,5.07,1.87,0,2.13,1.6,4.27-1.6,2.67-2.67,5.33-1.6,5.88-3.73,8-4.81,4.81-11.21,12.28-3.21.54-8,4.81-5.34,4.27-9.61,7.47S136.67,202.91,136.67,202.91Z" style="fill:#86ac98"/><path d="M86.75,167.94c3.21,0,3.74-2.13,5.88-2.13s2.13,1.07,5.87,1.6,8.54-2.67,12.28-2.67,4.8,1.07,7.47.53,2.14-7.47,6.94-8.54,8-.53,9.61.54,3.74-1.07,4.81-3.21,1.07-18.15,2.67-21.35-.54-7.48,0-10.15-1.07-6.4,2.13-6.94,4.27,0,4.81,1.07l.53,1.07s1.6-2.67,2.14-3.74c.34-.68.25-2.45,1.25-3.78l-.19,0c-4.27,1.07-5.87,2.67-8,3.21a14.09,14.09,0,0,0-4.27,2.13s-5.34,0-8,2.67c0,0-3.74-1.6-5.88,1.6a81.77,81.77,0,0,1-14.94,11.22c-2.69,1.57-6.94,3.73-9.61,8C101,141,81.42,159.94,59,172.75c0,0,4.81,4.27,9.08,5.34s.53,2.13,5.87,1.6.53-3.2,3.74-6.41S83.55,167.94,86.75,167.94Z" style="fill:#91b19b"/><path d="M341.15,111.62c-1.07-3.2-1.07-2.14-1.07-3.74s1.07-2.67-1.07-3.73-1.07-1.07-3.2-2.14-.54-1.6-2.14-1.07.53,2.14-1.6,1.6-2.14-.53-2.14-1.06.54-.54.54-2.14,1.07-.53,0-2.67-1.07-1.6-1.6-3.2-2.67-4.27-3.21-8,1.07-1.07-.53-4.27-1.07-4.27-1.6-4.81-1.6,1.07-1.6-1.6c0-1.74-.91-2.57-1.39-3.68-1.11,1-2.54,2.35-3.69,2.35-1.6,0-1.06-3.21-2.67-2.67l-1.6.53-1.06.54s-2.14-1.61-3.21-1.61a10,10,0,0,1-3.74-1.06c-1.06-.54,0-1.61-2.66-1.07a15,15,0,0,0-6.28,2.55,6.08,6.08,0,0,1,1.2,2.52c0,1.6,2.14,1.07,4.27,4.81a49.61,49.61,0,0,0,3.25,5.46c-1.05-.22-2-.33-2.18-.13-.53.54.54,2.67,0,3.74s-.53,3.2-.53,5.34v3.2c0,2.14-1.6,1.6,0,3.21a14.25,14.25,0,0,0,3.2,2.67c1.6,1.06-1.6-5.88-.53-6.41s2.67-.53,3.2,1.07,1.07,4.8,2.14,6.4.53,2.14,1.6,2.14,2.67-1.07,2.67,1.07,2.67,3.73,2.67,3.73a2.31,2.31,0,0,1-.54-1.6c0-1.07.54-4.27-.53-5.34s0-1.6-.53-3.73-1.07-1.61-1.07-3.21c0-1.06-.1-2.71-.17-3.69,1.1,1.26,2,2.29,2.3,2.63,1.07,1.06,2.14,1.06,3.74,3.73s2.67,1.6,3.2,3.21-1.06,2.67.54,5.87,1.6,4.27,3.2,4.8,1.6,0,2.14,1.07,4.27,4.27,4.27,4.27-1.6-2.13-1.6-3.74,1.06-1.06,0-2.66-2.67-2.67-2.67-3.74.53-1.6,1.06-2.67,1.07-1.6,1.61-.53.53,2.13,2.66,3.73,3.21,1.6,3.74,3.21a12.59,12.59,0,0,0,3.21,4.8c1.6,1.6,3.2,2.67,3.73,3.2S342.21,114.82,341.15,111.62Z" style="fill:#86ac98"/><path d="M380.92,250.69a22.91,22.91,0,0,1,9.07-2.13c4.81,0,9.08,1.6,11.22,0s2.13-1.07,4.8-3.2-1.07-3.74,6.94-3.74,13.35-.54,14.95-1.6,4.8-.54,5.34-3.74,3.74-2.14,1.07-5.87-1.07-4.81-3.74-5.34-2.14-4.81-7.48-7.48-3.73-2.67-7.47-4.8-2.67-2.67-5.87-5.34-18.69-13.88-26.7-21.36-11.74-9.6-17.08-15.48-6.41-1.07-9.08-10.67-3.2-9.08-8-18.16-9.08-8-9.61-13.34-2.67-6.41.53-5.34,5.34,5.87,6.94,6.94,2.67,4.27,4.81,4.27-1.07,4.27,6.4,6.94,3.21,3.74,5.87,7.47,8,6.94,10.15,9.08,11.21,7.47,12.81,8,13.35,8.54,18.15,12.81,14.95,9.08,19.22,10.68,11.75,5.34,20.82,8.54,0-1.6-5.87-4.8-2.13-4.81-6.94-5.88-17.08-9.07-20.29-12.28-5.87-7.47-10.14-11.21-3.74-3.2-6.41-8-3.73-8-.53-6.94,3.2,8,6.41,9.61,12.81,8.55,15.48,9.08,4.27,1.07,6.94,4.27,8,6.94,13.88,9.61,12.28,8.54,18.69,10.14,4.27,1.07,9.6,3.74,13.89,4.81,16.56,6.41,10.14,2.13,11.21,4.8,25.62,8.54,25.62,8.54l1.07,44.85s-20.29-31.5-27.23-32-8.54-2.14-17.62-4.81-16.55-6.4-19.75-7.47-8-.54-13.35-5.87-24-14.42-25.62-15.49,12.28,8,15.48,11.75,10.68,8,13.88,9.07,11.21,8,17.09,9.08,6.4,0,12.81,5.34S488.76,236.28,493,240s9.08,9.07,8,10.14-24-12.28-31.5-14.95-5.87-2.13-13.34-4.8S441.78,220.8,437,219.2s4.8,5.33,9.07,10.67,6.94,4.27,7.48,9.08-3.21,4.8-1.61,10.14,3.47,11.48-1.86,12.55-35-1.34-43-.8-20.29,3.73-25.63.53S380.92,250.69,380.92,250.69Z" style="fill:#86ac98"/><path d="M680.19,191.53s-97.7-28.29-215.68,35.24C455.67,231.53,388.16,277,363.6,285s-58.72,13.88-73.14,12.82-25.09-.54-43.24,5.33-80.62,23-123.86,33.1-87,13.35-102.5,19.76-38.44,15.48-57.13,19.22S-72,370.92-116.35,396s-48.05,21.89-61.39,31.5-18.69,29.89-18.69,29.89l879.29.54Z" style="fill:#577977"/><path d="M93.63,235.31,85,236.61,57.22,33.73a1.64,1.64,0,0,1,1.38-1.84h0a1.63,1.63,0,0,1,1.85,1.35Z" style="fill:#0b0915"/><polygon points="63.56 50.92 59.45 51.54 46.47 44.23 73.82 40.12 63.56 50.92" style="fill:#0b0915"/><path d="M105.67,219.9l-8.38,2.48L41.86,25.25a1.62,1.62,0,0,1,1.11-2h0a1.62,1.62,0,0,1,2,1.08Z" style="fill:#0b0915"/><polygon points="50.51 41.41 46.52 42.59 32.66 37.14 59.18 29.3 50.51 41.41" style="fill:#0b0915"/><path d="M164.77,141.72s4.57,67.46-.21,99.05c0,0-37.15,13-94,6-3-.5,4.49,18,4.49,18s-15.46,4.93-16.46,6.43-8-7.48-11-28.92S29.18,106.64,87,90.19c5-4,57.84,0,57.84,0s28.65,1,53,33c1.83,2.41,3.56,4.9,6,6.68l49.61-53.68,10,8c-.19.07-33.53,50.76-46.19,70.9a10.87,10.87,0,0,1-13.66,4.12Z" style="fill:#ef1e32"/><path d="M164.77,141.72s4.57,67.46-.21,99.05c0,0-37.15,13-94,6-3-.5,4.49,18,4.49,18s-15.46,4.93-16.46,6.43-8-7.48-11-28.92S29.18,106.64,87,90.19c5-4,57.84,0,57.84,0s28.65,1,53,33c1.83,2.41,3.56,4.9,6,6.68l49.61-53.68,10,8c-.19.07-33.53,50.76-46.19,70.9a10.87,10.87,0,0,1-13.66,4.12Z" style="opacity:0.5;fill:url(#h)"/><polygon points="142.24 64.85 140.64 93.88 135.47 103.85 99.31 106.34 84.89 97.8 84.08 83.9 82.3 55.33 123.05 50.42 142.24 64.85" style="fill:#fdccaa"/><path d="M91.47,63.8a2.79,2.79,0,0,1,1-.29c.4,0,.76,0,1.16,0a21.91,21.91,0,0,0,3-.08,6,6,0,0,1,1.1-.11,4.41,4.41,0,0,0,.88-.07c.68-.1,1.32.1,2,0,.43-.07.8,0,1.23,0s1,0,1.48-.09a2.82,2.82,0,0,1,1.9.59c.34.22.49.24.57.66,0,.27.08.54.13.81l.21,1.32a3.65,3.65,0,0,1,.1.8,2,2,0,0,1-.53,1.15,4.64,4.64,0,0,1-3.84,1.56c-1.29,0-2.56,0-3.84-.06a7.13,7.13,0,0,1-1.31,0,8.43,8.43,0,0,0-1.55-.34c-.74,0-1.36-.29-2.11-.35s-1.35-.2-2-.3A5.58,5.58,0,0,1,89,68.24a3.68,3.68,0,0,1-1.17-1.88,1.9,1.9,0,0,1,.61-2.22A3.29,3.29,0,0,1,91.2,64" style="fill:#0b0915"/><path d="M93.85,76.27c1.65-2.12,4.41-1.52,6.35-.18.29.2.56-.27.27-.47-2.12-1.47-5.2-2.05-7,.27-.21.27.17.65.38.38Z"/><path d="M97.2,73.4c.25.25-.26.56-.44.61-.35.08-.34-.44-.37-.69s-.09-.46.29-.52.58,0,.7.35a1.81,1.81,0,0,1,.09.44c0,.41-.19.3-.25.09s.42-.4.42-.06a.49.49,0,0,1-.81.32,1.85,1.85,0,0,1-.2-.3c0-.16-.09-.11-.17.13.48-.18.27-1-.22-.77s-.44.91-.11,1.34a1.29,1.29,0,0,0,1.85.23,1.21,1.21,0,0,0,.18-1.74,1.16,1.16,0,0,0-1.69.34,1.14,1.14,0,0,0,.86,1.52c1,0,1-1.1.82-1.75A1.26,1.26,0,0,0,96.52,72c-.84.13-1,.65-.92,1.45a1.75,1.75,0,0,0,.46,1.19,1,1,0,0,0,1.19,0,1.46,1.46,0,0,0,.74-.73,1.06,1.06,0,0,0-.22-1.09.4.4,0,0,0-.57.56Z"/><path d="M134.91,63.8a2.73,2.73,0,0,0-1-.29c-.4,0-.76,0-1.15,0a21.87,21.87,0,0,1-3-.08,6.14,6.14,0,0,0-1.11-.11,4.31,4.31,0,0,1-.87-.07c-.69-.1-1.33.1-2,0-.43-.07-.79,0-1.23,0s-1,0-1.48-.09a2.83,2.83,0,0,0-1.9.59c-.34.22-.48.24-.57.66,0,.27-.08.54-.12.81-.08.44-.14.88-.22,1.32a4.38,4.38,0,0,0-.1.8,1.9,1.9,0,0,0,.54,1.15,4.62,4.62,0,0,0,3.83,1.56c1.29,0,2.56,0,3.85-.06a7,7,0,0,0,1.3,0,8.43,8.43,0,0,1,1.55-.34c.74,0,1.37-.29,2.11-.35s1.35-.2,2-.3a5.59,5.59,0,0,0,2.06-.62,3.62,3.62,0,0,0,1.17-1.88,1.89,1.89,0,0,0-.61-2.22,3.28,3.28,0,0,0-2.76-.15" style="fill:#0b0915"/><path d="M129.91,75.89c-1.79-2.32-4.88-1.74-7-.27-.29.2,0,.67.27.47,1.94-1.34,4.71-1.94,6.35.18.22.27.6-.11.38-.38Z"/><path d="M125.61,72.84c-1.2,1.2,1.55,3,2.06,1.24.18-.6.37-1.61-.33-1.93a1.58,1.58,0,0,0-1.89.27,1.64,1.64,0,0,0,.06,2.07c.64.5,1.41-.13,1.48-.83a1,1,0,1,0-1.92.52,1.31,1.31,0,0,0,2.08.29c.4-.41.68-1.21,0-1.47-.49-.18-.69.59-.22.77-.08-.24-.14-.29-.17-.13l0,.08c-.06.06-.08.14-.14.2a.49.49,0,0,1-.82-.23c-.07-.42.49-.32.41,0s-.23.37-.25-.09a1.72,1.72,0,0,1,.09-.44c.11-.36.35-.4.7-.35s.35.1.31.45,0,.77-.3.8-.76-.42-.53-.65a.4.4,0,0,0-.57-.56Z"/><path d="M85,62.87s0,.16,0,.44c.18,5.22,1.49,27.31,5.26,31.15,2.84,2.88,6.44,3.45,10.32,3.09a198.58,198.58,0,0,1,21.67-1q3.07,0,6.13.2c3.44.17,7.4.26,9.72-2.29a9.81,9.81,0,0,0,2.08-5.38c.48-3.51.39-23.12-.28-26.6,1.23.76,2.55,1.61,3,3,.57,1.61-.08,19.57-.13,21.22a28.33,28.33,0,0,0,.74,6.75c1,4.41,2.67,8.62,4,12.94a68.56,68.56,0,0,1,2.74,15.82,19.58,19.58,0,0,1-.49,6.48c-.84,2.92-4.17,8.65-7.92,7.82a3.34,3.34,0,0,1-2.88-3.6s.9,7.38-3.78,8.1-4-4-5-4.32-1.8,5.76-5,7.56-5.76,1.07-6.12-2.88-.72-2.52-1.44-1.44,1.44,9.35-6.12,7.19c-4.67-1.44-4.67-7.19-4.67-7.19a15.33,15.33,0,0,1-1.08,4c-1.08,2.05-5.73,1.21-7.92-4L96,135.57s-.72,5-1.8,5.4-5.75-4-6.11-4.68-2.14-5.34-2.16-5.4c.51,1.34-.18,4.52-1.88,4.46-2.31-.1-4-6-4.64-7.71a34.74,34.74,0,0,1-.69-20.75c1.12-3.93,2.94-7.65,3.89-11.63.69-2.88-.69-24.59-1.08-27.53C81.05,64.28,83,65.56,85,62.87Z" style="fill:#3a3f49"/><path d="M85.29,62.93s0,.16,0,.45c.19,5.26,1.51,27.54,5.32,31.4,2.86,2.91,6.49,3.49,10.4,3.12a202,202,0,0,1,21.86-1c2.06,0,4.12.1,6.18.21,3.47.17,7.45.25,9.8-2.31A9.8,9.8,0,0,0,141,89.35c.49-3.54.4-23.32-.27-26.83a6.64,6.64,0,0,1,3.06,3c.58,1.63-.08,19.74-.13,21.4a28.33,28.33,0,0,0,.75,6.81c1,4.45,2.69,8.69,4,13a69.14,69.14,0,0,1,2.76,16,19.67,19.67,0,0,1-.49,6.54c-.85,2.94-4.21,8.72-8,7.88a3.35,3.35,0,0,1-2.9-3.63s.9,7.44-3.81,8.17-4-4-5.08-4.36-1.82,5.81-5.08,7.63-5.81,1.08-6.17-2.91-.73-2.54-1.45-1.45,1.45,9.44-6.17,7.26c-4.72-1.45-4.72-7.26-4.72-7.26a15.28,15.28,0,0,1-1.09,4c-1.09,2.08-5.78,1.22-8-4-.6-1.42-1.82-4.35-1.82-4.35s-.72,5.08-1.81,5.44-5.81-4-6.17-4.72-2.15-5.38-2.18-5.44c.52,1.35-.18,4.56-1.89,4.49-2.33-.09-4.06-6-4.68-7.77a34.94,34.94,0,0,1-.7-20.93c1.13-4,3-7.71,3.92-11.72.7-2.91-.69-24.81-1.09-27.77C81.3,64.35,83.22,65.64,85.29,62.93Z" style="opacity:0.1;fill:url(#i)"/><path d="M113.26,94s8.07-10.56,21.11,3.73c3.11,1.24,5,5,8.08,3.72s1.86,7.46-17.39,7.46c-3.54.86-9.85-5.46-11.8-9.32-.63-1.24-9.94,15.53-28.57,7.45-2.48,0-3.72-4.34-3.72-4.34s5,.62,7.45-1.25S100.22,82.83,113.26,94Z" style="fill:#3a3f49"/><path d="M107.9,94.06a5.14,5.14,0,0,1-.75-3.74c.37-2.25,2.24-5.62,2.24-8.24s1.5-6.73,2.62-7.11,3.37,1.5,3.37,3.37a35,35,0,0,0,1.13,7.11c.37,1.13,1.87,7.49,1.12,8.61s-3.37,0-3.37,0-.75,1.87-1.5,1.87-2.24-1.49-2.24-1.49A2.3,2.3,0,0,1,107.9,94.06Z" style="fill:#b98f6e"/><path d="M70.41,248c-3.14-24.46-5.25-50-2.51-74.59.07-.6-.88-.59-.94,0C64.21,198,66.33,223.55,69.47,248c.08.6,1,.61.94,0Z"/><path d="M162.78,248c3.14-24.46,5.25-50,2.51-74.59-.06-.59-1-.6-.94,0,2.74,24.57.63,50.13-2.51,74.59-.08.6.86.6.94,0Z"/><path d="M116.57,143.77c1.17,2.19,1.19,5.49,1.61,7.9.51,3,1.33,5.8,1.68,8.76.52,4.53,1.28,9,1.51,13.58.28,5.42-.75,10.47-1.59,15.78-1.46,9.13-.4,18.08-.19,27.27.26,10.86,1.94,21.64,2.17,32.48a.47.47,0,0,0,.94,0c-.45-21.66-4.84-43.16-1.15-64.73,1.48-8.68.64-17.6-.82-26.23-.48-2.85-1.38-5.65-1.87-8.52-.37-2.12-.44-4.84-1.47-6.77-.29-.53-1.1-.06-.82.48Z"/><path d="M139,69.43a26.85,26.85,0,0,0-13.88-2.52c-2.49.1-5.2.55-7.23,2.1a6.26,6.26,0,0,0-2.4,4.23,4.58,4.58,0,0,0-6-.12s0,.37,0,.83c0-.37-.06-.73-.11-1.08a6.21,6.21,0,0,0-2.4-4.23c-2-1.55-4.73-2-7.22-2.1a27,27,0,0,0-13.88,2.52c-1.82.87-1.88,2.71-1.51,4.57.22,1.09,2.52,2.3,2.52,2.3a14.4,14.4,0,0,1,.29,2.32,14.59,14.59,0,0,0,1.81,4.88c2.8,4.56,8.85,5.27,13.55,3.61A9.64,9.64,0,0,0,107,83.1a15.19,15.19,0,0,0,2.35-7.37s0,0,0-.15c2.52-2.77,5.33-.62,5.93-.1a15.37,15.37,0,0,0,2.38,8,9.59,9.59,0,0,0,4.58,3.64c4.7,1.65,10.75,1,13.55-3.61a15,15,0,0,0,1.81-4.88,14.4,14.4,0,0,1,.29-2.32s2.3-1.21,2.52-2.31C140.83,72.14,140.77,70.3,139,69.43ZM92.6,84.78a9.67,9.67,0,0,1-3.89-5.36c-.77-2.45-1.62-6.67.26-8.85,1.25-1.45,3.37-2,5.18-2.28a41.05,41.05,0,0,1,9.07,0c5,.28,4.94,5.81,5,7.34C108.84,83.62,99.18,88.89,92.6,84.78Zm43.41-5a9.64,9.64,0,0,1-3.9,5.36C125.53,89.26,115.88,84,116.45,76c.11-1.54,0-7.07,5-7.35a40.54,40.54,0,0,1,9.08,0c1.81.29,3.92.83,5.18,2.28C137.63,73.11,136.78,77.34,136,79.79Z" style="fill:#005d6d"/><path d="M80.55,58.4s0-27.09,25.83-27.09c6.93-1.26,35.92-1.89,35.92,22.68C141.67,59.66,80.55,58.4,80.55,58.4Z" style="fill:#3e292f"/><path d="M81.18,68.48s27.09-18.9,61.12,0c5,2.52.63-13.86,0-14.49S105.75,34.46,81.18,58.4C79.29,59.66,81.18,68.48,81.18,68.48Z" style="fill:#3e292f"/><path d="M80.94,68S108,49.13,142.05,68c5,2.52.63-13.87,0-14.5S105.51,34,80.94,58C79.05,59.21,80.94,68,80.94,68Z" style="fill:url(#j)"/><path d="M115.06,161.21c-1.2,1.2,1.55,3,2.06,1.24.18-.61.37-1.61-.33-1.93a1.58,1.58,0,0,0-1.89.27,1.63,1.63,0,0,0,.06,2.07c.64.5,1.41-.13,1.48-.84a1.05,1.05,0,0,0-1.35-1,1,1,0,0,0-.57,1.54,1.31,1.31,0,0,0,2.08.3c.4-.41.68-1.21,0-1.47-.49-.18-.7.59-.22.77-.08-.24-.14-.29-.17-.14l0,.09c-.06.06-.08.14-.14.2a.49.49,0,0,1-.82-.23c-.07-.43.49-.32.41,0s-.23.37-.25-.09a1.72,1.72,0,0,1,.09-.44c.11-.36.35-.4.7-.35s.35.1.31.45c0,.2,0,.76-.3.8s-.76-.42-.53-.65a.4.4,0,0,0-.57-.56Z"/><path d="M115.66,178.24c-1.21,1.21,1.54,3,2.06,1.25.17-.61.37-1.61-.34-1.94a1.6,1.6,0,0,0-1.89.28,1.64,1.64,0,0,0,.06,2.07c.65.5,1.41-.13,1.48-.84a1,1,0,0,0-1.34-1,1,1,0,0,0-.57,1.54,1.31,1.31,0,0,0,2.08.3c.4-.42.67-1.21,0-1.47-.48-.18-.69.59-.21.77-.09-.24-.15-.29-.18-.14l0,.09a2.43,2.43,0,0,1-.14.2.48.48,0,0,1-.81-.23c-.08-.43.48-.33.4,0s-.22.37-.25-.09a1.75,1.75,0,0,1,.1-.44c.11-.36.34-.4.69-.35s.35.1.31.45,0,.76-.3.8-.76-.42-.53-.65-.2-.93-.56-.57Z"/><path d="M114.61,191.36c-1.21,1.2,1.54,3,2.06,1.25.17-.61.37-1.61-.34-1.94a1.56,1.56,0,0,0-1.88.28,1.61,1.61,0,0,0,.06,2.07c.64.5,1.4-.13,1.48-.84a1,1,0,0,0-1.35-1,1,1,0,0,0-.57,1.54,1.31,1.31,0,0,0,2.08.3c.4-.42.68-1.21,0-1.47-.48-.19-.69.59-.21.77-.09-.25-.14-.29-.17-.14l0,.08c0,.06-.07.15-.13.21a.49.49,0,0,1-.82-.23.21.21,0,1,1,.41,0c0,.19-.23.37-.25-.08a1.28,1.28,0,0,1,.09-.44c.11-.36.34-.41.7-.35s.34.09.3.45c0,.2,0,.76-.29.79s-.76-.41-.53-.64a.4.4,0,0,0-.57-.57Z"/><path d="M114,150.43c-1.2,1.2,1.55,3,2.06,1.24.18-.61.38-1.61-.33-1.93a1.58,1.58,0,0,0-1.89.27,1.64,1.64,0,0,0,.06,2.07c.65.5,1.41-.13,1.48-.84a1,1,0,0,0-1.34-1,1,1,0,0,0-.57,1.54,1.3,1.3,0,0,0,2.07.3c.4-.41.68-1.21,0-1.47-.48-.18-.69.59-.21.77-.09-.24-.15-.29-.18-.14l0,.09a2.43,2.43,0,0,1-.14.2.48.48,0,0,1-.81-.23c-.08-.43.48-.33.4,0s-.22.37-.25-.09a1.75,1.75,0,0,1,.1-.44c.11-.36.34-.4.69-.35s.35.1.31.45c0,.2,0,.76-.3.8s-.76-.42-.53-.65-.2-.93-.57-.56Z"/><ellipse cx="112.56" cy="107.29" rx="0.94" ry="1.77" style="fill:#e3dad2"/><path d="M63.05,105.52s4.37-8.11,11.23-10.61,3.12,79.26-7.49,104.23C63.05,206,63.05,105.52,63.05,105.52Z" style="fill:#004652"/><path d="M163.94,96.79a84.52,84.52,0,0,0-13.79-6.87c-6.87-2.49,4,80.51,14.62,105.47C168.52,202.26,163.94,96.79,163.94,96.79Z" style="fill:#004652"/></g><path d="M253.51,76.18S261.38,58.65,265,56.59s2.25,4.31,1.12,6.38a22,22,0,0,0-1.69,4.13s3,3,3.95,5.25-4.82,11.83-4.82,11.83Z" style="fill:#fdccaa"/></svg>