<svg xmlns="http://www.w3.org/2000/svg" xmlns:xlink="http://www.w3.org/1999/xlink" width="250" height="250" viewBox="0 0 250 250"><defs><clipPath id="a"><rect x="-36.5" y="-660.5" width="504" height="498" style="fill:none"/></clipPath></defs><title>s3s1c20</title><g style="clip-path:url(#a)"><path d="M858.32-177.5s-285-2-353-4-123-6-147-2-145-2-179,2-12-5-115-5-178,6-215,4-100,8-131,8-157,2-186,2h-39l-14,375,1394-14Z" style="fill:#698b87"/></g><rect x="-272.66" width="1061.16" height="254" style="fill:#355151"/><path d="M126,126.24H118L70.85,71.44a1.41,1.41,0,0,1,1.07-2.34H172.08a1.41,1.41,0,0,1,1.07,2.34Z" style="fill:#abc4ab"/><rect x="118.83" y="124.65" width="6.35" height="62.7" style="fill:#abc4ab"/><path d="M120.38,186.33h3.24l17.4,4.49a.37.37,0,0,1-.09.72H103.07a.37.37,0,0,1-.09-.72Z" style="fill:#abc4ab"/></svg>