<svg xmlns="http://www.w3.org/2000/svg" xmlns:xlink="http://www.w3.org/1999/xlink" width="500" height="500" viewBox="0 0 500 500"><defs><clipPath id="a"><rect x="-2.5" width="504" height="498" style="fill:none"/></clipPath></defs><title>s2s20</title><circle cx="398.24" cy="99.96" r="62.26" style="fill:#f7956f"/><g style="clip-path:url(#a)"><rect x="224.5" y="116" width="5" height="86" rx="2.21" style="fill:#165488"/><path d="M297.32,154.26c-13.05-14.82-20-10.46-34,0s-21,14.77-34,0V116.55c13,14.77,20.09,10.42,34,0s21-14.82,34,0Z" style="fill:#ef1e32"/><path d="M574.57,407.49s-40.17-13.94-45.91-15.58S518,387,512.26,384.53s-4.1-4.92-9.83-9.84-11.48-5.73-15.58-9,1.64.82-17.22-9-36.89-14.76-44.27-25.42-28.69-21.31-35.25-31.15-11.48-15.58-16.4-18-7.38-10.65-9.84-10.65-6.14-2.87-8.6-3.69a24.22,24.22,0,0,1-4.92-2.46s-13.94-7.38-15.58-10.66-3.28-7.38-5.74-10.66-12.3-9-17.22-15.57-5.73-4.1-9-9-4.92-4.1-11.48-12.3-9.84-12.3-11.48-11.48-4.92,4.92-7.38,4.92-1.64-4.92-4.1-4.1l-2.46.82-1.64.82s-3.27-2.46-4.91-2.46a15.2,15.2,0,0,1-5.74-1.64c-1.64-.82,0-2.46-4.1-1.64s-8.2,2.46-9.84,4.1L238,198s-.82-1.64-4.92-1.64-4.92,0-6.56.82-.82.82-3.28,1.64,0,.82-3.28,1.64-5.74-.82-9-1.64-1.64-.82-4.92-.82H199.5c-1.64,0-3.28-.82-5.74-2.46a8.84,8.84,0,0,0-5.74-1.64c-1.64,0-5.74,2.46-6.56,4.1s-4.92,3.28-7.38,5.74a36.34,36.34,0,0,0-4.1,4.92s-29.51,22.95-42.63,27c-1.56.49-5.74,1.64-9,.82s-4.09,0-4.91,0H108.5s-5.74,9-14.76,13.94c-3.22,1.76-12.3,4.92-15.58,7.38s-3.28,7.38-8.2,9.84-12.29,8.2-12.29,8.2-22.14-11.48-23.78-13.12-2.46-1.64-5.74-3.28-.82-4.1-7.38-2.46-9,4.1-12.29,4.92a21.84,21.84,0,0,0-6.56,3.28s-8.2,0-12.3,4.1c0,0-5.74-2.46-9,2.46a126.2,126.2,0,0,1-23,17.21c-4.12,2.43-10.66,5.74-14.76,12.3-1.84,2.95-32,32-66.41,51.65-1.42.81-2.46-2.46-5.73-.82s-5.74,3.28-12.3,2.46-.82-3.28-8.2-.82-7.38,4.92-13.94,8.2-6.56,4.1-12.29,5.74-6.56,0-10.66.82-3.28,4.1-6.56,5.73-15.58,1.64-21.32,6.56c-1.39,1.2-9.83,4.1-17.21,4.92s-5.74,6.56-11.48,5.74-7.38-2.46-10.66-.82-5.74,6.56-8.2,7.38-3.28.82-7.38,1.64-5.73-.82-6.55.82,1.64,2.46-1.64,3.28-4.1.82-4.92,3.28,1.64,2.46-2.46,3.28-7.38.82-11.48,1.64-13.94,3.28-18.86,3.28-4.91-1.64-9,0-14.76,3.28-15.58,4.1-2.46,1.64-4.92,3.27-8.2,9.84-9.84,10.66-10.66-1.64-13.93,0-25.42,7.38-25.42,7.38L-471.12,453l-26.24,38.53L-94,496.44l669,7.38Z" style="fill:#abc4ab"/><path d="M-4.23,399.29a64.87,64.87,0,0,0,4.1,8.2c2.46,4.1,8.2,5.74,12.3,9S22,429.62,26.1,432.9s0,2.46-.82,6.56,0,3.28.82,4.92,14.76,14.76,18,16.4,1.64,1.64,12.3,8.2a33.93,33.93,0,0,1,13.93,16.39l57,.41,93.46-7.38s5.74-2.46,6.56-4.92-3.28-7.37-3.28-7.37l4.1-13.12s-5.74-4.92-8.2-6.56.82-8.2.82-13.12-4.92-4.92-8.19-6.56-2.46-5.73.81-12.29,0-13.12,0-13.12-4.09,5.74-4.91,7.38-7.38,4.92-18,9.84-7.38,5.73-9.84,7.37,2.46,23-3.28,5.74-2.46-8.2-4.92-12.29.82-4.1.82-9.84-1.64-13.12-3.28-16.4,2.46-9,3.28-11.48,2.46-13.93,5.74-18.85,9-12.3,14.76-13.94,3.28-5.74,4.92-9.84a67.87,67.87,0,0,1,7.38-12.3c.82-.82.82-8.19.82-11.47s4.92-10.66,8.19-14.76.82-3.28,2.46-6.56,8.2-8.2,8.2-8.2,9.84,3.28,13.94,8.2,1.64,1.64,3.28,2.46.82,4.92,2.46,9a19.22,19.22,0,0,1,1.64,9v13.11c0,4.1,1.64,10.66,1.64,13.12s.82,9,3.28,17.22,4.1,8.2,4.1,11.48,4.92,7.37,5.73,18,5.74,14.76,5.74,14.76,2.46,5.74,4.1,5.74,5.74,5.74,6.56,9,3.28,4.92,8.2,12.29,0,0,2.46,3.28,1.64,1.64,4.92,7.38-1.64,5.74-1.64,5.74l9,20.5-1.64,13.11s7.38,1.64,10.65,0,4.92,0,4.92,0,4.92,1.64,7.38,1.64,3.28-.82,4.1-2.46,0-4.92.82-10.65a17,17,0,0,0-2.46-10.66,75.46,75.46,0,0,1,7.38,2.46c1.64.82,9.84,4.1,9.84,4.1s.82,10.65,0,16.39,5.74.82,6.56,0,3.28-.82,4.92-3.28,0-4.1,0-6.55,4.91-1.64,5.73-2.46a12.84,12.84,0,0,0,3.28-8.2c0-4.1,4.1-8.2,6.56-9.84s5.74-4.1,5.74-4.1l2.46-6.56a21.33,21.33,0,0,1,2.46-5.74c1.64-2.46,4.92-4.92,4.92-8.2a63.61,63.61,0,0,0-.82-7.37c0-.82-7.38-2.46-9-2.46s-5.74-.82-7.38-.82-5.74-.82-7.38-.82-12.29,4.1-12.29,4.1a87.61,87.61,0,0,0-6.56,9c-2.46,4.1-.82,5.74.82,12.3s-.82,4.92-4.1,7.38-7.38.82-7.38.82-11.48-3.28-13.12-5.74,0-10.66,0-13.12S305.26,430,305.26,430s-3.28-7.38-2.46-11.47-2.46-7.38-3.28-9.84-7.38-5.74-9-10.66-7.38-4.1-9-9,2.46-7.38,4.1-9.84,3.28-9.83,4.1-14.75,4.92-9.84,5.74-14.76-1.64-12.3-3.28-17.22-6.56-8.19-6.56-5.74.82,2.46,1.64,8.2.82,4.92.82,9.84-4.1,10.66-3.28,16.4-10.66,17.21-10.66,17.21-6.56-.82-9-3.28,0-6.55-2.46-8.19-7.37-22.14-8.19-37.72-1.64-4.91-1.64-4.91-3.28-15.58-4.1-25.42,0-6.56,2.46-17.22-.82-6.55-.82-10.65S252,260.33,252,256.23s-4.92-6.56-10.66-4.1-11.48,4.1-13.12,4.1-4.1,4.1-4.1,7.38,5.74,7.38,1.64,10.66-9.84-.82-14.75.82-3.28,8.19-4.1,13.11,0,3.28,0,8.2-4.1,9.84-4.1,9.84l-4.1,3.28a6.12,6.12,0,0,1-2.46,2.46c-1.64.82-2.46,8.2-2.46,8.2s-1.64,10.65-4.1,14.75-4.1-.82-7.38,0-.82,2.46-4.92,7.38-5.74,8.2-8.2,10.66-4.1,6.56-9,11.48-.82,2.46-1.64,9.83-1.64,3.28-4.92,11.48,0,0,0,7.38-2.46,18-3.28,22.14,0,2.46,2.46,5.74,2.46,9.83,2.46,9.83-1.64,3.28-7.38,7.38a10,10,0,0,0-4,5,9.57,9.57,0,0,0-.87-2.56,67.22,67.22,0,0,1-3.28-9s-.82-9,0-11.47-.82-2.46-2.46-5.74-.82-9.84-4.92-9,0,2.46-.82,5.74-.82,9-1.64,13.11,1.64,5.74,1.64,9,0,9.84-.82,13.94-12.3,16.4-12.3,16.4a34.48,34.48,0,0,1-1.64-4.1c-.81-2.46,0-4.92,0-7.38s-4.91-4.92-9-7.38-3.28-4.92-3.28-4.92a42.06,42.06,0,0,0-.82-8.2c-.82-3.28,3.28-9.83,4.1-11.47s-4.1-4.1-9-2.46-3.28,11.47-5.74,13.93-8.2,4.1-8.2,4.1l-4.1-3.28a21.64,21.64,0,0,1,.82-5.74c.82-2.46-.82-4.1-1.64-4.1s-2.46-4.09-2.46-4.09l-4.1-4.92-9,8.2L52.75,421l-4.1-9-6.56-6.56L52.75,391.5l9.84-9,2.46-4.1,8.19-4.1,4.92-2.45,11.48-5.74L97,362.81l3.28-3.28,1.64-4.92s4.1-3.28,5.74-4.92,5.74-1.64,5.74-1.64l8.19-7.38s9.84-10.66,13.94-11.48,1.64,1.64,3.28,2.46,0,9.84,0,9.84l3.28-4.1c3.28-4.1,0-6.56,0-6.56s-1.64-9-2.46-11.47,0-13.94,2.46-17.22,4.92-1.64,7.38-4.92,5.74-9.84,9.84-11.48,4.1-2.46,7.37,2.46,0,1.64-1.64,9-5.73,6.56-6.55,11.48,0,5.74-1.64,11.48-1.64,10.65-1.64,20.49,1.64,17.22,5.74,16.4,4.09-4.92,4.09-9,2.46-5.74,3.28-10.66,3.28-14.75,4.92-16.39.82-7.38,1.64-9.84a168.33,168.33,0,0,1,6.56-15.58c2.46-4.92,4.92-2.46,7.38-4.1s.82-2.46.82-4.1,4.92-5.74,7.38-9,1.64-4.09,1.64-6.55,3.28-5.74,4.92-6.56,1.64-6.56,1.64-6.56,0-6.56,4.1-10.66,7.37-20.49,7.37-20.49.82-4.92,0-5.74,1.64-6.56,3.28-5.74.82,1.64,2.46,4.92,2.46,5.74.82,10.65,1.64,5.74,1.64,9,4.1,4.1,4.1,4.1l4.1,5.74s4.1-.82,4.1-4.1,3.28-11.48,3.28-16.4,1.64-2.45,2.46-4.91,1.64-4.1,1.64-7.38,0-1.64-1.64-4.1.82-5.74,0-7.38-2.46,0-4.92-1.64-3.28-2.46-4.92-2.46h-5.74c-1,0-1.65-2.29-2.05-4.17a6.93,6.93,0,0,1-2,.89c-2,.66-.79.79-1.92,1.24l.28,2.86h-7.38c-3.27,0-3.27,1.64-5.73,3.28s-2.46-.82,0-3.28a8.74,8.74,0,0,0,2.06-4.2c-2.74-.72-1.39-.72-4.52-.72H199.5a6.44,6.44,0,0,1-2.71-.68c-1.11,2.46-.57,4.58-.57,7.24,0,3.28-2.46,4.92-4.1,4.1s-.82-3.28-.82-5.74-1.64-4.1-1.64-4.92c0-.59-.86-2.48-1.33-4.1H188c-1.64,0-5.74,2.46-6.56,4.1s-4.92,3.28-7.38,5.74a36.34,36.34,0,0,0-4.1,4.92s-29.51,22.95-42.63,27c-1.56.49-5.74,1.64-9,.82s-4.09,0-4.91,0H108.5s-5.74,9-14.76,13.94c-3.22,1.76-12.3,4.92-15.58,7.38s-3.28,7.38-8.2,9.84a89.25,89.25,0,0,0-11.44,7.55,95.58,95.58,0,0,1,6.53,7.2c1.64,2.46,2.46,3.28,5.73,7.38s2.46,1.64,6.56,3.28,6.56.82,5.74,4.1-8.2,13.12-8.2,13.12,5.33-1.23,7.79,2.87,0,3.28,2.46,6.56-2.46,4.1-4.1,8.19-2.46,9-5.74,12.3-7.38,7.38-17.21,18.86-4.92.82-12.3,7.38S37.58,373.06,31,378-4.23,399.29-4.23,399.29Z" style="fill:#86ac98"/><path d="M-80.88,345.59c4.91,0,5.73-3.28,9-3.28s3.28,1.64,9,2.46,13.12-4.1,18.86-4.1,7.38,1.64,11.48.82,3.27-11.48,10.65-13.12,12.3-.82,14.76.82,5.74-1.64,7.38-4.91,1.64-27.88,4.1-32.8-.82-11.48,0-15.57-1.64-9.84,3.28-10.66,6.56,0,7.38,1.64l.82,1.64s2.46-4.1,3.28-5.74c.52-1.05.38-3.77,1.92-5.81l-.29.07c-6.55,1.64-9,4.1-12.29,4.92a21.84,21.84,0,0,0-6.56,3.28s-8.2,0-12.3,4.1c0,0-5.74-2.46-9,2.46a126.2,126.2,0,0,1-23,17.21c-4.12,2.43-10.66,5.74-14.76,12.3-1.84,2.95-32,32-66.41,51.65,0,0,7.38,6.56,13.94,8.2s.82,3.28,9,2.46.82-4.92,5.74-9.84S-85.8,345.59-80.88,345.59Z" style="fill:#91b19b"/><path d="M309.77,259.1c-1.64-4.92-1.64-3.28-1.64-5.74s1.64-4.1-1.64-5.74-1.64-1.64-4.92-3.28-.82-2.46-3.28-1.64.82,3.28-2.46,2.46-3.28-.82-3.28-1.64.82-.82.82-3.28,1.64-.82,0-4.1-1.64-2.46-2.46-4.92-4.1-6.55-4.92-12.29,1.64-1.64-.82-6.56-1.64-6.56-2.46-7.38-2.46,1.64-2.46-2.46c0-2.67-1.39-3.95-2.13-5.66-1.7,1.5-3.89,3.61-5.66,3.61-2.46,0-1.64-4.92-4.1-4.1l-2.46.82-1.64.82s-3.27-2.46-4.91-2.46a15.2,15.2,0,0,1-5.74-1.64c-1.64-.82,0-2.46-4.1-1.64-3.95.79-7.89,2.34-9.64,3.92,1.06,1.58,1.85,3,1.85,3.87,0,2.46,3.28,1.64,6.56,7.38,2,3.55,3.43,6.48,5,8.38-1.61-.33-3-.5-3.34-.18-.82.82.82,4.1,0,5.74s-.82,4.92-.82,8.19v4.92c0,3.28-2.46,2.46,0,4.92a21.74,21.74,0,0,0,4.92,4.1c2.46,1.64-2.46-9-.82-9.84s4.1-.82,4.92,1.64,1.64,7.38,3.27,9.84.82,3.28,2.46,3.28,4.1-1.64,4.1,1.64,4.1,5.74,4.1,5.74a3.59,3.59,0,0,1-.82-2.46c0-1.64.82-6.56-.82-8.2s0-2.46-.82-5.74S268,237,268,234.5c0-1.63-.15-4.16-.25-5.67,1.68,1.94,3,3.52,3.53,4,1.64,1.64,3.28,1.64,5.74,5.74s4.1,2.46,4.92,4.92-1.64,4.1.82,9,2.46,6.56,4.92,7.38,2.46,0,3.28,1.64,6.56,6.56,6.56,6.56-2.46-3.28-2.46-5.74,1.64-1.64,0-4.1-4.1-4.1-4.1-5.74.82-2.46,1.64-4.1,1.64-2.46,2.46-.82.82,3.28,4.1,5.74,4.92,2.46,5.74,4.92a19.36,19.36,0,0,0,4.92,7.38c2.45,2.46,4.91,4.1,5.73,4.92S311.4,264,309.77,259.1Z" style="fill:#86ac98"/><path d="M370.84,472.66a35.22,35.22,0,0,1,13.94-3.27c7.38,0,13.94,2.45,17.22,0s3.28-1.64,7.37-4.92-1.64-5.74,10.66-5.74,20.5-.82,23-2.46,7.38-.82,8.2-5.74,5.73-3.28,1.64-9-1.64-7.38-5.74-8.2-3.28-7.38-11.48-11.47-5.74-4.1-11.48-7.38-4.1-4.1-9-8.2-28.69-21.32-41-32.79-18-14.76-26.23-23.78-9.84-1.64-13.94-16.4-4.92-13.93-12.3-27.87-13.93-12.3-14.75-20.5-4.1-9.83.82-8.19,8.19,9,10.65,10.65,4.1,6.56,7.38,6.56-1.64,6.56,9.84,10.66,4.92,5.74,9,11.48,12.3,10.65,15.57,13.93,17.22,11.48,19.68,12.3,20.5,13.12,27.87,19.68,23,13.93,29.52,16.39,18,8.2,32,13.12,0-2.46-9-7.38-3.28-7.38-10.65-9-26.24-13.93-31.16-18.85-9-11.48-15.57-17.22-5.74-4.92-9.84-12.3-5.74-12.29-.82-10.65,4.92,12.29,9.84,14.75,19.67,13.12,23.77,13.94,6.56,1.64,10.66,6.56,12.3,10.66,21.31,14.76,18.86,13.11,28.7,15.57,6.56,1.64,14.76,5.74,21.31,7.38,25.41,9.84,15.58,3.28,17.22,7.38,39.35,13.12,39.35,13.12l1.64,68.86S553.66,438.23,543,437.41,529.89,434.13,516,430s-25.41-9.83-30.33-11.47-12.3-.82-20.5-9-36.89-22.14-39.35-23.78,18.86,12.3,23.78,18,16.39,12.3,21.31,13.94S488.08,430,497.1,431.67s9.83,0,19.67,8.2,19.68,10.66,26.24,16.4,13.93,13.94,12.29,15.57S518.41,453,506.93,448.89s-9-3.28-20.49-7.38-22.14-14.76-29.52-17.22,7.38,8.2,13.94,16.4,10.66,6.56,11.48,13.94-4.92,7.38-2.46,15.58,5.33,17.62-2.87,19.26-53.7-2.05-66-1.23-31.15,5.74-39.35.82S370.84,472.66,370.84,472.66Z" style="fill:#86ac98"/><path d="M892.32,483s-285-2-353-4-123-6-147-2-145-2-179,2-12-5-115-5-178,6-215,4-100,8-131,8-157,2-186,2h-39l-14,375,1394-14Z" style="fill:#698b87"/><polygon points="50.22 504.65 24.78 353.41 15.84 404.28 22.03 399.47 15.84 411.16 -2.72 506.03 50.22 504.65" style="fill:#283c3f"/><polygon points="108.22 504.65 82.78 353.41 73.84 404.28 80.03 399.47 73.84 411.16 55.28 506.03 108.22 504.65" style="fill:#283c3f"/><path d="M30.81,481.65s7.41-7.38,8.69-8.51,2.67-4.06,1.78-4.42-9.79,6.94-9.79,6.94l2.61-12.82,6.45-6.54-5.22,1.48.56-4.19s8.26-11.25,8.94-12.42.39-1.48.39-1.48l-6.69,5.61,2.86-11.89s4.94-6.64,4.36-7-3.46,2.19-3.46,2.19l3.57-17.18,4.67-21.24,6,40.38s-2.71-2.72-3.32-2.41,3.92,7.23,3.92,7.23l2.11,12-6.33-6s-.3.3.3,1.51,8.14,13,8.14,13l.3,4.21-5.12-1.8,6,6.93,1.81,12.95s-8.44-7.83-9.34-7.53.3,3.31,1.51,4.52,8.13,9,8.13,9l1.81,22L28.84,505Z" style="fill:#355151"/><polygon points="158.22 504.65 132.78 353.41 123.84 404.28 130.03 399.47 123.84 411.16 105.28 506.03 158.22 504.65" style="fill:#283c3f"/><path d="M88.81,481.65s7.41-7.38,8.69-8.51,2.67-4.06,1.78-4.42-9.79,6.94-9.79,6.94l2.61-12.82,6.45-6.54-5.22,1.48.56-4.19s8.26-11.25,8.94-12.42.39-1.48.39-1.48l-6.69,5.61,2.86-11.89s4.94-6.64,4.36-7-3.46,2.19-3.46,2.19l3.57-17.18,4.67-21.24,6,40.38s-2.71-2.72-3.32-2.41,3.92,7.23,3.92,7.23l2.11,12-6.33-6s-.3.3.3,1.51,8.14,13,8.14,13l.3,4.21-5.12-1.8,6,6.93,1.81,12.95s-8.44-7.83-9.34-7.53.3,3.31,1.51,4.52,8.13,9,8.13,9l1.81,22L86.84,505Z" style="fill:#355151"/><path d="M138.81,481.65s7.41-7.38,8.69-8.51,2.67-4.06,1.78-4.42-9.79,6.94-9.79,6.94l2.61-12.82,6.45-6.54-5.22,1.48.56-4.19s8.26-11.25,8.94-12.42.39-1.48.39-1.48l-6.69,5.61,2.86-11.89s4.94-6.64,4.36-7-3.46,2.19-3.46,2.19l3.57-17.18,4.67-21.24,6,40.38s-2.71-2.72-3.32-2.41,3.92,7.23,3.92,7.23l2.11,12-6.33-6s-.3.3.3,1.51,8.14,13,8.14,13l.3,4.21-5.12-1.8,6,6.93,1.81,12.95s-8.44-7.83-9.34-7.53.3,3.31,1.51,4.52,8.13,9,8.13,9l1.81,22L136.84,505Z" style="fill:#355151"/><polygon points="451.56 504.65 477 353.41 485.94 404.28 479.75 399.47 485.94 411.16 504.5 506.03 451.56 504.65" style="fill:#283c3f"/><polygon points="393.56 504.65 419 353.41 427.94 404.28 421.75 399.47 427.94 411.16 446.5 506.03 393.56 504.65" style="fill:#283c3f"/><path d="M471,481.65s-7.41-7.38-8.69-8.51-2.67-4.06-1.78-4.42,9.79,6.94,9.79,6.94l-2.62-12.82-6.44-6.54,5.22,1.48-.56-4.19s-8.26-11.25-8.94-12.42-.39-1.48-.39-1.48l6.69,5.61-2.86-11.89s-4.94-6.64-4.36-7,3.46,2.19,3.46,2.19l-3.57-17.18-4.67-21.24-6,40.38s2.71-2.72,3.32-2.41-3.92,7.23-3.92,7.23l-2.11,12,6.33-6s.3.3-.3,1.51-8.14,13-8.14,13l-.3,4.21,5.12-1.8-6,6.93-1.81,12.95s8.44-7.83,9.34-7.53-.3,3.31-1.51,4.52-8.13,9-8.13,9l-1.81,22,37.66-1.2Z" style="fill:#355151"/><polygon points="343.56 504.65 369 353.41 377.94 404.28 371.75 399.47 377.94 411.16 396.5 506.03 343.56 504.65" style="fill:#283c3f"/><path d="M413,481.65s-7.41-7.38-8.69-8.51-2.67-4.06-1.78-4.42,9.79,6.94,9.79,6.94l-2.62-12.82-6.44-6.54,5.22,1.48-.56-4.19s-8.26-11.25-8.94-12.42-.39-1.48-.39-1.48l6.69,5.61-2.86-11.89s-4.94-6.64-4.36-7,3.46,2.19,3.46,2.19l-3.57-17.18-4.67-21.24-6,40.38s2.71-2.72,3.32-2.41-3.92,7.23-3.92,7.23l-2.11,12,6.33-6s.3.3-.3,1.51-8.14,13-8.14,13l-.3,4.21,5.12-1.8-6,6.93-1.81,12.95s8.44-7.83,9.34-7.53-.3,3.31-1.51,4.52-8.13,9-8.13,9l-1.81,22,37.66-1.2Z" style="fill:#355151"/><path d="M363,481.65s-7.41-7.38-8.69-8.51-2.67-4.06-1.78-4.42,9.79,6.94,9.79,6.94l-2.62-12.82-6.44-6.54,5.22,1.48-.56-4.19s-8.26-11.25-8.94-12.42-.39-1.48-.39-1.48l6.69,5.61-2.86-11.89s-4.94-6.64-4.36-7,3.46,2.19,3.46,2.19l-3.57-17.18-4.67-21.24-6,40.38s2.71-2.72,3.32-2.41-3.92,7.23-3.92,7.23l-2.11,12,6.33-6s.3.3-.3,1.51-8.14,13-8.14,13l-.3,4.21,5.12-1.8-6,6.93-1.81,12.95s8.44-7.83,9.34-7.53-.3,3.31-1.51,4.52-8.13,9-8.13,9l-1.81,22,37.66-1.2Z" style="fill:#355151"/></g></svg>