<svg xmlns="http://www.w3.org/2000/svg" xmlns:xlink="http://www.w3.org/1999/xlink" width="250" height="250" viewBox="0 0 250 250"><defs><clipPath id="a"><rect x="331.3" y="37.05" width="129.8" height="139.89" style="fill:none"/></clipPath></defs><title>s10s1c20</title><path d="M53.54,63.84C58.42,74.78,70,91.56,97.39,109.39A224.58,224.58,0,0,0,126,125.11q1.45-.06,2.88,0a223.42,223.42,0,0,0,28.58-15.69c15.13-9.84,35-25.73,43.85-45.55a106.7,106.7,0,0,0,9.45-48.7A86.54,86.54,0,0,0,208.64-.38H46.26C44,9.38,40.37,34.29,53.54,63.84Z" style="fill:#ef1e32"/><path d="M114.38,130.6a36.57,36.57,0,0,0-12.76,7.75c-8.73,8.18-12.94,18.28-12.42,30.24a36.62,36.62,0,0,0,9.52,23.3,37.41,37.41,0,0,0,24.84,12.78,19,19,0,0,0,16.84-6.19,17.06,17.06,0,0,0,4.16-16.38,18.85,18.85,0,0,0-17.34-14,31.39,31.39,0,0,1-5.49-.61A20.15,20.15,0,0,1,106,150.77a19.61,19.61,0,0,1,4.33-16.1C111.56,133.22,113,132,114.38,130.6Zm13.07,51.26a5.22,5.22,0,1,1-5.22,5.23A5.24,5.24,0,0,1,127.45,181.86Z" style="fill:#ef1e32"/><path d="M127.54,142.1a5.23,5.23,0,1,0,5.11,5.33A5.2,5.2,0,0,0,127.54,142.1Z" style="fill:#ef1e32"/><path d="M213.45-.38c2.51,11,5.54,36.07-7.86,66.12C192,96.28,155,117.53,137.43,126.22a40,40,0,0,1,12,5.21,40.91,40.91,0,0,1,19.12,29.49c.15,1,.28,1.93.41,2.89v5.54c-.06.31-.13.62-.18.93-.29,1.84-.48,3.71-.89,5.53a41.47,41.47,0,0,1-35,31.9l-2.72.39h-5.54c-.25,0-.49-.13-.75-.16a40.68,40.68,0,0,1-25.22-11.47,41.54,41.54,0,0,1,18.85-70.21C100,117.6,62.92,96.33,49.29,65.74,35.9,35.69,38.93,10.66,41.43-.38H-.16v250h250V-.38Z" style="fill:#ef1e32"/><g style="clip-path:url(#a)"><path d="M497.56,160.07s-12.86-4.55-14.7-5.09a46.07,46.07,0,0,1-5.24-2.4c-1.84-.8-1.31-1.59-3.14-3.18s-3.67-1.87-5-2.93.53.27-5.5-2.92-11.81-4.82-14.15-8.25-9.16-6.9-11.24-10.07-3.65-5-5.23-5.82S431,116,430.25,116s-2-.93-2.75-1.2a7.94,7.94,0,0,1-1.58-.8s-4.45-2.39-5-3.45a22.37,22.37,0,0,0-1.82-3.43c-.78-1.06-3.93-2.92-5.49-5s-1.83-1.33-2.88-2.91-1.57-1.33-3.65-4-3.13-4-3.66-3.71S401.86,93,401.07,93s-.51-1.58-1.3-1.32L399,92l-.53.26a4.24,4.24,0,0,0-1.58-.8,4.73,4.73,0,0,1-1.83-.54c-.53-.27,0-.79-1.31-.53a7.1,7.1,0,0,0-3.17,1.29l-.53.52s-.26-.52-1.57-.53-1.58,0-2.11.25a3.9,3.9,0,0,1-1.05.52c-.79.25,0,.26-1.06.52s-1.84-.28-2.89-.55-.52-.27-1.58-.27l-2.1,0a3.49,3.49,0,0,1-1.84-.8,2.79,2.79,0,0,0-1.83-.53,3.57,3.57,0,0,0-2.12,1.3c-.26.52-1.58,1-2.37,1.82a11.81,11.81,0,0,0-1.33,1.57s-9.52,7.3-13.73,8.59a5.93,5.93,0,0,1-2.9.25,2.72,2.72,0,0,0-1.57,0H348.4a14.77,14.77,0,0,1-4.77,4.44c-1,.55-3.95,1.55-5,2.33s-1.07,2.36-2.65,3.14a32.15,32.15,0,0,0-4,2.6s-7.08-3.72-7.6-4.25-.79-.53-1.83-1.07-.26-1.31-2.37-.8-2.9,1.29-3.95,1.55a7.13,7.13,0,0,0-2.11,1s-2.63,0-4,1.29a2.38,2.38,0,0,0-2.89.77,40.8,40.8,0,0,1-7.4,5.47,12.41,12.41,0,0,0-4.76,3.92c-.6.94-10.33,10.19-21.41,16.43-.46.26-.79-.79-1.84-.28a5.59,5.59,0,0,1-3.95.77c-2.1-.28-.26-1.06-2.63-.28s-2.38,1.56-4.49,2.6-2.11,1.3-4,1.81-2.1,0-3.42.25-1.06,1.3-2.11,1.82-5,.5-6.85,2.06a16.17,16.17,0,0,1-5.54,1.54c-2.37.25-1.85,2.1-3.69,1.82s-2.36-.8-3.42-.28-1.85,2.09-2.64,2.35a19.19,19.19,0,0,1-2.37.51c-1.32.25-1.84-.28-2.11.25s.52.79-.53,1.05-1.32.25-1.59,1,.52.79-.79,1-2.37.25-3.69.51a42.17,42.17,0,0,1-6.05,1c-1.58,0-1.58-.54-2.9,0s-4.74,1-5,1.28a17,17,0,0,1-1.59,1c-.79.53-2.65,3.14-3.18,3.4s-3.41-.55-4.47,0-8.17,2.32-8.17,2.32L162,172.49l-8.5,12.31,129.39,2.42L497.49,191Z" style="fill:#fff"/><path d="M304.38,169a5.68,5.68,0,0,0,0-2.11c-.26-.79-.78-1.05-.78-1.84s.53-.52,0-1.05-1-1.85-1.56-2.12-.78-1.58-1.31-1.59-1.31-.79-1.31-.79,0-1.58-1-1.59-2.1-.54-3.16.25-2.38,1.82-2.91,2.08,0,0-1.84.51-8.42.48-9.21.47-3.16.51-3.15,0a1.05,1.05,0,0,1,1.32-1c.78.27,2.89-.51,3.95-1s1.58-.52,1.85-1,0-1,0-1.31-.52-1.06-1.05-.54-1.59,1.57-2.12,1.57-1,.52-1.58.25,0-1.32,0-1.32l1.06-1,.8-1.05a11.86,11.86,0,0,0-2.9.77,8.56,8.56,0,0,1-3.16.51c-.26,0-1.83-1.33-2.36-1.59s-1.83-1.59-2.35-1.6-1.05-.79-1.05-.79l-.79-.54s.52,1.32-.53,1.32-1.05-.54-1.58-.54a1.6,1.6,0,0,0-1.05.26c-.53.26-.79.25-1.32.51s-.79.26-.79.52,0,1.06.25,1.32-1.31.26-1.31.26a6.78,6.78,0,0,0-1.85.51c-.26.26-.27.79-1,.78s-2.9.25-2.9.25-.26-.53-1.31,0,.78,1.06,0,1.05a9.73,9.73,0,0,0-2.9.24c-.52.26-1.31.26-.79.53s1.58,0,1.31.53-.27,1.58-.53,1.57-.79,0-.27.27a1,1,0,0,1,.52,1.05c0,.26-.26.53-1.06.78a9.31,9.31,0,0,1-2.37.51c-.52,0-1.84.78-3.16,1s-1.32.51-2.37.51-.26-.79,0-.79a13,13,0,0,0,1.84-.78l1.32-.78,1.32-.52.8-1.31,1.31.27.53-.26-.26-1.31s.27-.79,0-.79a5.88,5.88,0,0,1-1.05-.27.27.27,0,0,0-.26-.27,21.52,21.52,0,0,0-2.38,1h-2.1a12.24,12.24,0,0,1-2.11.51c-.52,0-2.1.51-2.89.51l-2.11,0-1.05.52a1.26,1.26,0,0,1,0,1.05,3.35,3.35,0,0,1-.53.79l-.53.52h-1.05l-2.36-1.07-3.16.77-.8,1a3.9,3.9,0,0,1-1.05.52,6.68,6.68,0,0,0-1.32.52h-1c-.27,0-.8.52-.8.52a11.77,11.77,0,0,1,.26,1.32c0,.26-1,0-1,0s-1.85.78-2.38,1a14.33,14.33,0,0,0-.27,1.84c0,.53.25.79,0,1.05s-.27.79-.54,1.58.25,2.37.25,2.89.52.79,0,.79-2.89-.28-3.42.24-2.63.51-3.68.5-.8,1.58-.8,1.58l2.09,1.32,87,4.25a7.52,7.52,0,0,0,.82-4.2c-.25-2.37-.77-3.95-.76-4.22a9.07,9.07,0,0,1,.54-2.62A13.7,13.7,0,0,0,304.38,169ZM272,178.79c-.26.53-2.63,0-2.89-.28a6,6,0,0,0-2.62-1.86c-1.57-.53-3.66-2.65-4.71-2.92a16.6,16.6,0,0,0-1.84-.54c-1.31-.27-3.15-.28-1.84-.8,0,0,1.33-1.31,2.38-1a2.28,2.28,0,0,0,2.11-.77,3.66,3.66,0,0,1,1.05-.78c.53-.26,1.06-.79,1.59-.78s-.53.78-.8,1.31a4.57,4.57,0,0,1-1.59,1.56c-.53.26-.53.53-.53.79s.52,1.32,1,1.32,0-1.05,1.33-1a9.35,9.35,0,0,1,2.1.28c.26,0,.79,0,.78.53s.52.79,0,1a.92.92,0,0,0-.53.78s.78.53,1.31.8.52.79,1,1.06.53,0,.79.27S272.23,178.27,272,178.79Zm5-.49c-.78-.27-.26-.53-1.31-.8s-.78-.53-1.83-.8-.79,0-1.58-.54-1.82-2.64-2.35-2.64-.52-.53-.78-.53.51,2.37,1.3,2.64a15.06,15.06,0,0,1,3.13,2.65c.53.53,1,.79.79,1.05s-3.15-1.33-3.41-1.86-1.05-1.06-1.57-1.59-.51-1.58-1-2.11a1.43,1.43,0,0,1-.51-1.32c0-.52.79-1,1.06-2.09s2.12-2.88,3.18-2.88a4.52,4.52,0,0,1-.54,2.1c-.53.79-.8.79-.8,1.58s-.28,1.57.25,2.1,1.31.8,1.83,1.33,1.31,1.32,1.83,1.33a2.61,2.61,0,0,1,2.1.8,19.16,19.16,0,0,1,2.35,2.12C279.58,179.63,277.75,178.57,277,178.3Z" style="fill:#fff"/></g></svg>