<svg xmlns="http://www.w3.org/2000/svg" xmlns:xlink="http://www.w3.org/1999/xlink" width="250" height="250" viewBox="0 0 250 250"><defs><clipPath id="a"><rect x="233.5" y="-660.5" width="504" height="498" style="fill:none"/></clipPath></defs><title>s3s1c10</title><g style="clip-path:url(#a)"><path d="M1128.32-177.5s-285-2-353-4-123-6-147-2-145-2-179,2-12-5-115-5-178,6-215,4-100,8-131,8-157,2-186,2h-39l-14,375,1394-14Z" style="fill:#698b87"/></g><rect x="-2.66" width="1061.16" height="254" style="fill:#355151"/><path d="M130.19,56.82c3.79.85,7.62,1.53,11.36,2.57,27.13,7.52,44.9,30,46.78,58.37,1,15.52-2,30.42-5.47,45.35-1.94,8.33-3.58,16.73-5.3,25.12-.49,2.37-1.09,4.32-4.24,3.57-2.94-.7-2.64-2.5-2.14-4.78,1.76-8,3.46-16,4.95-24.06.27-1.44-.61-3.08-.84-4.64s-.73-3.34-.38-4.85c2.89-12.46,4.82-24.94,3.17-37.81-3.45-26.89-22.81-45.15-50-46.1A79.07,79.07,0,0,0,105.6,72c-21.14,5.54-32.87,21.38-36.39,43.69-1.94,12.31-.25,24.4,2.7,36.37.61,2.47,1.45,4.88-.83,7.2-.66.67-.38,2.55-.14,3.79,1.63,8.15,3.29,16.3,5.1,24.41.52,2.34.23,3.79-2.33,4.36s-3.57-.62-4-2.94q-5.46-28.8-11-57.58c-.16-.82-.37-1.63-.55-2.44V121.5c.22-1.42.55-2.84.65-4.27,1.95-28.8,21.63-52.12,49.6-58.74,2.59-.61,5.21-1.11,7.81-1.67Z" style="fill:#abc4ab"/><path d="M144.89,203.82c-6.36-3.5-6.72-4.28-5.26-11.33l8.94-43c1.05-5.07,4.85-7.29,10.52-6.16,5.91,1.18,8.21,4.26,7.18,9.59-.32,1.66-.61,3.32-1,5.32l9.07,1.92c-2.44,11.73-4.87,23.35-7.33,35.16l-8-1.17c-2.26,3.61-4.16,6.66-6.07,9.7Z" style="fill:#abc4ab"/><path d="M94.17,203.82,88,194.11l-8,1.18L72.71,160.1l9.08-1.82c-.42-2.22-1.25-4.36-1.09-6.43s.7-4.75,2.11-6.07c6-5.63,14.3-2.84,16,5.1q4.58,21.68,9.12,43.36c1,4.86.12,6.36-5.65,9.58Z" style="fill:#abc4ab"/></svg>