<svg xmlns="http://www.w3.org/2000/svg" xmlns:xlink="http://www.w3.org/1999/xlink" width="250" height="250" viewBox="0 0 250 250"><defs><clipPath id="a"><rect x="-306.5" y="-660.5" width="504" height="498" style="fill:none"/></clipPath></defs><title>s3s1c30</title><g style="clip-path:url(#a)"><path d="M588.32-177.5s-285-2-353-4-123-6-147-2-145-2-179,2-12-5-115-5-178,6-215,4-100,8-131,8-157,2-186,2h-39l-14,375,1394-14Z" style="fill:#698b87"/></g><rect x="-542.66" width="1061.16" height="254" style="fill:#355151"/><circle cx="124.5" cy="129.5" r="64" style="fill:#abc4ab"/><path d="M104.59,176.85a.91.91,0,0,1-1.19-1.22c2.1-4.45,8.1-14.27,20.64-15.69,1.76-.25,11.62,0,19.83,16.14a.92.92,0,0,1-1.22,1.24C137.09,174.59,122.55,169.1,104.59,176.85Z" style="fill:#355151"/><ellipse cx="144.54" cy="140.88" rx="9.2" ry="12.22" style="fill:#355151"/><ellipse cx="104.07" cy="140.88" rx="9.2" ry="12.22" style="fill:#355151"/><path d="M132.42,132.85c3.45-6.71,11.69-16.33,30.46-16a1.66,1.66,0,0,1,.61,3.18c-7.77,3.28-20.73,9.17-28.64,14.94A1.65,1.65,0,0,1,132.42,132.85Z" style="fill:#355151"/><path d="M114.63,132.85c-3.46-6.71-11.69-16.33-30.46-16a1.65,1.65,0,0,0-.61,3.18c7.77,3.28,20.73,9.17,28.63,14.94A1.66,1.66,0,0,0,114.63,132.85Z" style="fill:#355151"/></svg>