<svg xmlns="http://www.w3.org/2000/svg" xmlns:xlink="http://www.w3.org/1999/xlink" width="400" height="200" viewBox="0 0 400 200"><defs><clipPath id="a"><path d="M262.4,19.67h0a73.91,73.91,0,0,1,73.91,73.91V225.77a0,0,0,0,1,0,0H188.49a0,0,0,0,1,0,0V93.58A73.91,73.91,0,0,1,262.4,19.67Z" style="fill:none"/></clipPath><clipPath id="b"><rect x="-12.3" y="-2.46" width="487.54" height="244.99" style="fill:none"/></clipPath><clipPath id="c"><rect x="65.65" y="1.94" width="197" height="200" style="fill:none"/></clipPath><pattern id="d" width="72" height="72" patternTransform="translate(-31.78 20) scale(0.32)" patternUnits="userSpaceOnUse" viewBox="0 0 72 72"><rect width="72" height="72" style="fill:none"/><line x1="54" y1="71.75" x2="54" y2="144.25" style="fill:none;stroke:#1d1d1b;stroke-width:6px"/><line x1="18" y1="71.75" x2="18" y2="144.25" style="fill:none;stroke:#1d1d1b;stroke-width:6px"/><line x1="62" y1="71.75" x2="62" y2="144.25" style="fill:none;stroke:#1d1d1b;stroke-width:2px"/><line x1="26" y1="71.75" x2="26" y2="144.25" style="fill:none;stroke:#1d1d1b;stroke-width:2px"/><line x1="71.75" y1="18" x2="144.25" y2="18" style="fill:none;stroke:#1d1d1b;stroke-width:6px"/><line x1="71.75" y1="54" x2="144.25" y2="54" style="fill:none;stroke:#1d1d1b;stroke-width:6px"/><line x1="-0.25" y1="18" x2="72.25" y2="18" style="fill:none;stroke:#1d1d1b;stroke-width:6px"/><line x1="54" y1="-0.25" x2="54" y2="72.25" style="fill:none;stroke:#1d1d1b;stroke-width:6px"/><line x1="-0.25" y1="54" x2="72.25" y2="54" style="fill:none;stroke:#1d1d1b;stroke-width:6px"/><line x1="18" y1="-0.25" x2="18" y2="72.25" style="fill:none;stroke:#1d1d1b;stroke-width:6px"/><line x1="62" y1="-0.25" x2="62" y2="72.25" style="fill:none;stroke:#1d1d1b;stroke-width:2px"/><line x1="26" y1="-0.25" x2="26" y2="72.25" style="fill:none;stroke:#1d1d1b;stroke-width:2px"/><line x1="73.25" y1="26" x2="0.75" y2="26" style="fill:none;stroke:#1d1d1b;stroke-width:2px"/><line x1="73.25" y1="62" x2="0.75" y2="62" style="fill:none;stroke:#1d1d1b;stroke-width:2px"/><line x1="-72.25" y1="18" x2="0.25" y2="18" style="fill:none;stroke:#1d1d1b;stroke-width:6px"/><line x1="-72.25" y1="54" x2="0.25" y2="54" style="fill:none;stroke:#1d1d1b;stroke-width:6px"/><line x1="1.25" y1="26" x2="-71.25" y2="26" style="fill:none;stroke:#1d1d1b;stroke-width:2px"/><line x1="1.25" y1="62" x2="-71.25" y2="62" style="fill:none;stroke:#1d1d1b;stroke-width:2px"/><line x1="54" y1="-72.25" x2="54" y2="0.25" style="fill:none;stroke:#1d1d1b;stroke-width:6px"/><line x1="18" y1="-72.25" x2="18" y2="0.25" style="fill:none;stroke:#1d1d1b;stroke-width:6px"/><line x1="62" y1="-72.25" x2="62" y2="0.25" style="fill:none;stroke:#1d1d1b;stroke-width:2px"/><line x1="26" y1="-72.25" x2="26" y2="0.25" style="fill:none;stroke:#1d1d1b;stroke-width:2px"/></pattern><pattern id="e" width="74.06" height="72" patternTransform="translate(32.06 89.54) scale(0.25)" patternUnits="userSpaceOnUse" viewBox="0 0 74.06 72"><rect width="74.06" height="72" style="fill:none"/><line x1="24.98" y1="72" x2="24.98" style="fill:none;stroke:#1d1d1b;stroke-width:4px"/><line x1="6.49" y1="72" x2="6.49" style="fill:none;stroke:#1d1d1b;stroke-width:4px"/><line x1="43.47" y1="72" x2="43.47" style="fill:none;stroke:#1d1d1b;stroke-width:4px"/><line x1="61.96" y1="72" x2="61.96" style="fill:none;stroke:#1d1d1b;stroke-width:4px"/><line x1="12.09" y1="72" x2="12.09" style="fill:none;stroke:#1d1d1b"/><line x1="30.58" y1="72" x2="30.58" style="fill:none;stroke:#1d1d1b"/><line x1="49.07" y1="72" x2="49.07" style="fill:none;stroke:#1d1d1b"/><line x1="67.56" y1="72" x2="67.56" style="fill:none;stroke:#1d1d1b"/></pattern></defs><title>s2s10</title><rect x="-14" y="-11.52" width="417.4" height="212.62" style="fill:#b97053"/><g style="clip-path:url(#a)"><g style="clip-path:url(#b)"><rect x="172.72" y="7" width="175.69" height="226.37" style="fill:#f9dcc9"/><circle cx="63.12" cy="71.29" r="55.99" style="fill:#f7956f"/><path d="M161.47,38.71c-4.82-5.48-7.4-3.87-12.58,0s-7.77,5.46-12.58,0V24.77c4.81,5.46,7.43,3.85,12.58,0s7.76-5.48,12.58,0Z" style="fill:#ef1e32"/><rect x="134.8" y="24.16" width="1.52" height="33.34" rx="0.76" style="fill:#165488"/><path d="M264.73,132.34s-14.86-5.15-17-5.76-3.94-1.82-6.06-2.73-1.52-1.81-3.64-3.63-4.24-2.13-5.76-3.34.61.31-6.36-3.33-13.65-5.46-16.37-9.4-10.61-7.88-13-11.52-4.24-5.76-6.06-6.67S187.73,82,186.82,82s-2.27-1.06-3.18-1.36a9.36,9.36,0,0,1-1.82-.91s-5.15-2.73-5.76-3.94a24.85,24.85,0,0,0-2.12-3.94c-.91-1.22-4.55-3.34-6.37-5.76s-2.12-1.52-3.33-3.34-1.82-1.51-4.25-4.54-3.63-4.55-4.24-4.25S153.93,55.8,153,55.8s-.6-1.82-1.51-1.51l-.91.3-.61.3a4.91,4.91,0,0,0-1.82-.91,5.71,5.71,0,0,1-2.12-.6c-.61-.31,0-.91-1.52-.61a8.07,8.07,0,0,0-3.63,1.52l-.61.6s-.3-.6-1.82-.6-1.82,0-2.42.3a4.58,4.58,0,0,1-1.22.6c-.91.31,0,.31-1.21.61s-2.12-.3-3.33-.61-.61-.3-1.82-.3H126a4,4,0,0,1-2.12-.91,3.28,3.28,0,0,0-2.12-.6,4.21,4.21,0,0,0-2.43,1.51c-.3.61-1.81,1.21-2.72,2.12a13.63,13.63,0,0,0-1.52,1.82s-10.91,8.49-15.76,10a7,7,0,0,1-3.34.3,3.25,3.25,0,0,0-1.82,0H92.4a17.15,17.15,0,0,1-5.46,5.15c-1.19.65-4.55,1.82-5.76,2.73s-1.21,2.73-3,3.64a36.64,36.64,0,0,0-4.55,3s-8.18-4.24-8.79-4.85-.91-.61-2.12-1.21-.3-1.52-2.73-.91-3.33,1.51-4.55,1.82A8,8,0,0,0,53,79.75s-3,0-4.55,1.51a2.75,2.75,0,0,0-3.33.91,46.56,46.56,0,0,1-8.49,6.37c-1.52.9-3.94,2.12-5.46,4.55-.68,1.09-11.82,11.82-24.55,19.09-.53.3-.91-.91-2.12-.3a6.41,6.41,0,0,1-4.55.91c-2.43-.3-.3-1.21-3-.3s-2.73,1.82-5.15,3-2.43,1.51-4.55,2.12-2.43,0-3.94.3-1.21,1.52-2.43,2.12-5.76.61-7.88,2.43a18.7,18.7,0,0,1-6.36,1.82c-2.73.3-2.13,2.42-4.25,2.12s-2.73-.91-3.94-.3-2.12,2.42-3,2.73a19.41,19.41,0,0,1-2.73.6c-1.51.31-2.12-.3-2.42.31s.6.9-.61,1.21-1.52.3-1.82,1.21.61.91-.91,1.21-2.73.31-4.24.61a48.36,48.36,0,0,1-7,1.21c-1.82,0-1.82-.6-3.34,0s-5.46,1.21-5.76,1.52A18.94,18.94,0,0,1-75.24,138c-.91.61-3,3.64-3.63,3.94s-3.95-.61-5.16,0-9.4,2.73-9.4,2.73l-28.49,4.55-9.7,14.24,149.14,1.82L264.88,168Z" style="fill:#abc4ab"/><path d="M41.77,147a6.3,6.3,0,0,0,0-2.42c-.3-.91-.91-1.21-.91-2.12s.61-.61,0-1.22-1.21-2.12-1.82-2.42S38.13,137,37.53,137s-1.52-.91-1.52-.91,0-1.82-1.21-1.82-2.42-.6-3.64.31-2.73,2.12-3.33,2.42,0,0-2.12.61-9.7.6-10.61.6-3.64.61-3.64,0,.61-1.51,1.51-1.21,3.34-.61,4.55-1.21,1.82-.61,2.12-1.21,0-1.22,0-1.52-.6-1.21-1.21-.61-1.82,1.82-2.42,1.82-1.22.61-1.82.31,0-1.52,0-1.52l1.21-1.21.91-1.22a14.23,14.23,0,0,0-3.34.91,9.7,9.7,0,0,1-3.63.61c-.31,0-2.12-1.52-2.73-1.82s-2.12-1.82-2.73-1.82-1.21-.91-1.21-.91l-.91-.6s.61,1.51-.61,1.51S-.06,128-.67,128a1.84,1.84,0,0,0-1.21.3c-.61.3-.91.3-1.51.61s-.91.3-.91.6,0,1.21.3,1.52-1.52.3-1.52.3a7.47,7.47,0,0,0-2.12.61c-.3.3-.3.91-1.21.91s-3.34.3-3.34.3-.3-.61-1.51,0,.91,1.21,0,1.21a11.17,11.17,0,0,0-3.34.31c-.6.3-1.51.3-.9.6s1.81,0,1.51.61-.3,1.82-.61,1.82-.9,0-.3.3a1.2,1.2,0,0,1,.61,1.21c0,.31-.31.61-1.21.91a11.51,11.51,0,0,1-2.73.61c-.61,0-2.13.91-3.64,1.21s-1.52.61-2.73.61-.3-.91,0-.91a14.9,14.9,0,0,0,2.12-.91l1.52-.91,1.51-.61.91-1.51,1.52.3.61-.3-.31-1.52s.31-.91,0-.91a7,7,0,0,1-1.21-.3.29.29,0,0,0-.3-.3,23.57,23.57,0,0,0-2.73,1.21h-2.43a13.94,13.94,0,0,1-2.42.6c-.61,0-2.43.61-3.34.61H-34l-1.21.61a1.47,1.47,0,0,1,0,1.21,3.84,3.84,0,0,1-.61.91l-.61.6h-1.21l-2.73-1.21-3.63.91-.91,1.21a4.4,4.4,0,0,1-1.22.61,7.76,7.76,0,0,0-1.51.61h-1.21c-.31,0-.91.6-.91.6a13.51,13.51,0,0,1,.3,1.52c0,.3-1.21,0-1.21,0s-2.13.91-2.73,1.21a17.41,17.41,0,0,0-.3,2.12c0,.61.3.91,0,1.22s-.31.91-.61,1.81.3,2.73.3,3.34.61.91,0,.91-3.33-.3-3.94.3-3,.61-4.24.61-.91,1.82-.91,1.82l2.42,1.51,100.34,4.25a8.78,8.78,0,0,0,.91-4.85,45.69,45.69,0,0,0-.91-4.85,10.6,10.6,0,0,1,.61-3A15.23,15.23,0,0,0,41.77,147ZM4.49,158.56c-.31.61-3,0-3.34-.3a6.82,6.82,0,0,0-3-2.12c-1.82-.61-4.24-3-5.46-3.34a19,19,0,0,0-2.12-.6c-1.51-.31-3.63-.31-2.12-.91,0,0,1.52-1.52,2.73-1.21a2.62,2.62,0,0,0,2.42-.91,4.1,4.1,0,0,1,1.22-.91c.6-.31,1.21-.91,1.82-.91s-.61.91-.91,1.51a5.28,5.28,0,0,1-1.82,1.82c-.61.3-.61.61-.61.91s.61,1.52,1.21,1.52,0-1.22,1.52-1.22a11.19,11.19,0,0,1,2.42.31c.31,0,.91,0,.91.6s.61.91,0,1.22a1.08,1.08,0,0,0-.6.91s.91.6,1.51.9.61.91,1.22,1.22.6,0,.91.3S4.79,158,4.49,158.56Zm5.76-.6c-.91-.31-.31-.61-1.52-.91s-.91-.61-2.12-.91-.91,0-1.82-.61-2.12-3-2.73-3-.6-.61-.91-.61.61,2.73,1.52,3,3,2.42,3.64,3,1.21.91.91,1.21-3.64-1.52-3.95-2.12-1.21-1.22-1.81-1.82S.85,153.41.24,152.8a1.67,1.67,0,0,1-.6-1.51c0-.61.91-1.21,1.21-2.43s2.42-3.33,3.64-3.33A5.17,5.17,0,0,1,3.88,148c-.61.91-.91.91-.91,1.82s-.3,1.82.3,2.43,1.52.91,2.13,1.51,1.51,1.52,2.12,1.52a3.05,3.05,0,0,1,2.42.91c.91.91,2.13,1.51,2.73,2.42S11.16,158.26,10.25,158Z" style="fill:#86ac98"/><path d="M46.17,127.49s-.91.91-.61,1.82a2.5,2.5,0,0,1-.3,2.12c-.3.61-1.52,1.82-1.21,2.43s-1.22,1.21-.91,1.82-3-1.22-4.25-1.52a9.41,9.41,0,0,1-1.82-.61s.61.91-.6.91-.91-.91-2.12-1.21-2.43-.91-3-.61-.3,1.22-1.51,1.22-1.21,0-3-1.22-2.43-2.12-3.94-2.42-2.73-.91-2.73-1.82-.61,0,.6-1.21,2.43,0,3.64-1.21-.3-2.13,1.52-2.43a16.36,16.36,0,0,1,5.45,0c.91.3,2,2,4.1,2.58s2.72,0,3.63.3a12,12,0,0,1,2.13.61,4.78,4.78,0,0,0,2.72.3C44.5,127.34,46.17,127.49,46.17,127.49Z" style="fill:#86ac98"/><path d="M8.28,123.85a13.08,13.08,0,0,0,1.51,1.82A3.19,3.19,0,0,1,11,127.49c.31.91.61,1.82,1.52,1.82a4.28,4.28,0,0,0,2.12-.61c.61-.3.31-1.21,1.21-1.51s.91-.91,1.82-1.52,2.73-.3,1.22-.91-3,0-3.34-.91a3.24,3.24,0,0,0-1.21-1.51c-.3-.3-3,.91-3.64,1.21S9.49,122.94,8.28,123.85Z" style="fill:#86ac98"/><path d="M50.71,129.31a23.88,23.88,0,0,0,1.52,3c.91,1.52,3,2.12,4.55,3.34s3.64,4.85,5.15,6.06,0,.91-.3,2.42,0,1.22.3,1.82a44.24,44.24,0,0,0,6.67,6.07c1.21.6.61.6,4.55,3a12.54,12.54,0,0,1,5.15,6.06l21.07.15,34.55-2.73s2.13-.91,2.43-1.82-1.21-2.72-1.21-2.72l1.51-4.85s-2.12-1.82-3-2.43.3-3,.3-4.85-1.81-1.82-3-2.42-.91-2.13.31-4.55a5.86,5.86,0,0,0,0-4.85s-1.52,2.12-1.82,2.73-2.73,1.82-6.67,3.63-2.73,2.13-3.64,2.73.91,8.49-1.21,2.12-.91-3-1.82-4.54.3-1.52.3-3.64a16.4,16.4,0,0,0-1.21-6.06c-.61-1.22.91-3.34,1.21-4.25s.91-5.15,2.13-7,3.33-4.55,5.45-5.15,1.21-2.12,1.82-3.64a25.63,25.63,0,0,1,2.73-4.55c.3-.3.3-3,.3-4.24s1.82-3.94,3-5.46.31-1.21.91-2.42a13.78,13.78,0,0,1,3-3s3.64,1.21,5.16,3,.6.6,1.21.91.3,1.82.91,3.33a7.08,7.08,0,0,1,.61,3.34v4.85c0,1.51.6,3.94.6,4.85a26.26,26.26,0,0,0,1.21,6.36c.91,3,1.52,3,1.52,4.25s1.82,2.72,2.12,6.67,2.12,5.45,2.12,5.45.91,2.12,1.52,2.12,2.12,2.13,2.42,3.34,1.22,1.82,3,4.54,0,0,.9,1.22a13.19,13.19,0,0,1,1.82,2.73c1.22,2.12-.6,2.12-.6,2.12l3.33,7.58-.6,4.85s2.72.6,3.94,0,1.82,0,1.82,0a12.48,12.48,0,0,0,2.72.6,1.4,1.4,0,0,0,1.52-.91c.3-.6,0-1.82.3-3.94a6.23,6.23,0,0,0-.91-3.94s2.12.61,2.73.91,3.64,1.52,3.64,1.52a38.06,38.06,0,0,1,0,6.06c-.3,2.12,2.12.3,2.42,0s1.22-.3,1.82-1.21,0-1.52,0-2.43,1.82-.6,2.12-.91a4.68,4.68,0,0,0,1.22-3c0-1.51,1.51-3,2.42-3.64s2.12-1.51,2.12-1.51l.91-2.43a8.15,8.15,0,0,1,.91-2.12c.61-.91,1.82-1.82,1.82-3a23.77,23.77,0,0,0-.3-2.73c0-.3-2.73-.91-3.34-.91s-2.12-.3-2.72-.3-2.13-.3-2.73-.3a39.58,39.58,0,0,0-4.55,1.51,31.26,31.26,0,0,0-2.42,3.34c-.91,1.51-.31,2.12.3,4.54s-.3,1.82-1.52,2.73a3,3,0,0,1-2.73.3s-4.24-1.21-4.85-2.12,0-3.94,0-4.85-4.54.61-4.54.61-1.21-2.73-.91-4.25-.91-2.72-1.21-3.63-2.73-2.13-3.34-3.94-2.73-1.52-3.33-3.34.91-2.73,1.51-3.64,1.21-3.63,1.52-5.45,1.82-3.64,2.12-5.46-.61-4.55-1.21-6.36-2.43-3-2.43-2.13.31.91.61,3a16.23,16.23,0,0,1,.3,3.64c0,1.82-1.51,3.94-1.21,6.06s-3.94,6.37-3.94,6.37-2.43-.3-3.34-1.21,0-2.43-.91-3-2.72-8.19-3-14-.6-1.82-.6-1.82-1.22-5.76-1.52-9.39,0-2.43.91-6.37-.3-2.42-.3-3.94.6-3.94.6-5.46S143.63,74,141.5,74.9a19.26,19.26,0,0,1-4.85,1.51c-.6,0-1.51,1.52-1.51,2.73s2.12,2.73.6,3.94-3.63-.3-5.45.31-1.22,3-1.52,4.85,0,1.21,0,3a6.77,6.77,0,0,1-1.51,3.63l-1.52,1.22a2.28,2.28,0,0,1-.91.91c-.61.3-.91,3-.91,3s-.6,3.94-1.51,5.45-1.52-.3-2.73,0-.31.91-1.82,2.73-2.12,3-3,3.94-1.52,2.43-3.34,4.25-.3.91-.6,3.63-.61,1.22-1.82,4.25,0,0,0,2.73a47.51,47.51,0,0,1-1.21,8.18c-.31,1.52,0,.91.9,2.12a7.49,7.49,0,0,1,.91,3.64,8.78,8.78,0,0,1-2.72,2.73,3.62,3.62,0,0,0-1.5,1.86,3.43,3.43,0,0,0-.32-.95,24.59,24.59,0,0,1-1.22-3.34,19.52,19.52,0,0,1,0-4.24c.31-.91-.3-.91-.9-2.12s-.31-3.64-1.82-3.34,0,.91-.31,2.13-.3,3.33-.6,4.85.6,2.12.6,3.33a31.44,31.44,0,0,1-.3,5.15c-.3,1.52-4.55,6.07-4.55,6.07a13.06,13.06,0,0,1-.6-1.52,8.07,8.07,0,0,1,0-2.73c0-.91-1.82-1.82-3.34-2.73s-1.21-1.81-1.21-1.81a15.82,15.82,0,0,0-.3-3c-.31-1.21,1.21-3.63,1.51-4.24s-1.51-1.52-3.33-.91-1.21,4.24-2.12,5.15a8.86,8.86,0,0,1-3,1.52l-1.51-1.21a8,8,0,0,1,.3-2.12,1.1,1.1,0,0,0-.6-1.52c-.31,0-.91-1.52-.91-1.52l-1.52-1.81-3.33,3-4.25-.31L70.27,134l-2.43-2.43,3.94-5.15,3.64-3.33.91-1.52,3-1.52,1.82-.9L85.42,117l2.73-1.21,1.21-1.21.61-1.82s1.52-1.21,2.12-1.82a3.72,3.72,0,0,1,2.12-.61l3-2.72s3.63-3.94,5.15-4.25.61.61,1.21.91,0,3.64,0,3.64l1.21-1.52c1.22-1.51,0-2.42,0-2.42s-.6-3.34-.91-4.24,0-5.16.91-6.37,1.82-.61,2.73-1.82,2.12-3.64,3.64-4.24,1.52-.91,2.73.91,0,.6-.61,3.33-2.12,2.43-2.42,4.24,0,2.13-.61,4.25-.61,3.94-.61,7.58.61,6.36,2.13,6.06,1.51-1.82,1.51-3.34.91-2.12,1.21-3.94,1.22-5.45,1.82-6.06.31-2.73.61-3.64,1.52-3.94,2.42-5.76,1.82-.91,2.73-1.51.31-.91.31-1.52,1.81-2.12,2.72-3.33a2.68,2.68,0,0,0,.61-2.43,3.74,3.74,0,0,1,1.82-2.42c.61-.3.61-2.43.61-2.43a6.23,6.23,0,0,1,1.51-3.94c1.52-1.51,2.73-7.58,2.73-7.58s.3-1.81,0-2.12.61-2.42,1.21-2.12.3.61.91,1.82a4.32,4.32,0,0,1,.3,3.94c-.6,1.82.61,2.12.61,3.33S137,72.17,137,72.17l1.51,2.12S140,74,140,72.78s1.21-4.25,1.21-6.07.61-.91.91-1.82a7.22,7.22,0,0,0,.61-2.72c0-1.22,0-.61-.61-1.52s.3-2.12,0-2.73-.91,0-1.82-.6-1.21-.91-1.82-.91h-2.12c-.36,0-.61-.85-.76-1.55a2.23,2.23,0,0,1-.76.33c-.72.25-.29.3-.71.46l.11,1.06H131.5c-1.21,0-1.21.61-2.12,1.21s-.91-.3,0-1.21a3.27,3.27,0,0,0,.76-1.55,3.33,3.33,0,0,0-1.67-.27H126a2.34,2.34,0,0,1-1-.25,5.88,5.88,0,0,0-.21,2.68c0,1.21-.91,1.82-1.51,1.51s-.31-1.21-.31-2.12-.6-1.52-.6-1.82a14.89,14.89,0,0,0-.5-1.51h-.11a4.21,4.21,0,0,0-2.43,1.51c-.3.61-1.81,1.21-2.72,2.12a13.63,13.63,0,0,0-1.52,1.82s-10.91,8.49-15.76,10a7,7,0,0,1-3.34.3,3.25,3.25,0,0,0-1.82,0H92.4a17.15,17.15,0,0,1-5.46,5.15c-1.19.65-4.55,1.82-5.76,2.73s-1.21,2.73-3,3.64a32.28,32.28,0,0,0-4.23,2.79c1.08,1.13,2.14,2.26,2.41,2.66.61.91.91,1.22,2.12,2.73s.91.61,2.43,1.21,2.42.31,2.12,1.52-3,4.85-3,4.85a2.78,2.78,0,0,1,2.88,1.06c.91,1.52,0,1.21.91,2.43s-.91,1.51-1.52,3-.91,3.33-2.12,4.54-2.73,2.73-6.37,7-1.82.3-4.54,2.73a55.94,55.94,0,0,1-5.46,4.24C61.32,123.25,50.71,129.31,50.71,129.31Z" style="fill:#86ac98"/><path d="M22.37,109.46c1.82,0,2.12-1.22,3.34-1.22s1.21.61,3.33.91,4.85-1.51,7-1.51,2.73.6,4.25.3,1.21-4.24,3.94-4.85,4.54-.3,5.45.3,2.13-.6,2.73-1.82S53,91.27,53.9,89.45s-.31-4.25,0-5.76-.61-3.64,1.21-3.94,2.43,0,2.73.6l.3.61s.91-1.51,1.21-2.12c.2-.39.15-1.39.72-2.15l-.11,0c-2.42.6-3.33,1.51-4.55,1.82A8,8,0,0,0,53,79.75s-3,0-4.55,1.51a2.75,2.75,0,0,0-3.33.91,46.56,46.56,0,0,1-8.49,6.37c-1.52.9-3.94,2.12-5.46,4.55-.68,1.09-11.82,11.82-24.55,19.09a15.41,15.41,0,0,0,5.15,3c2.43.61.31,1.22,3.34.91s.3-1.81,2.12-3.63S20.55,109.46,22.37,109.46Z" style="fill:#91b19b"/><path d="M166.81,77.47c-.6-1.81-.6-1.21-.6-2.12s.6-1.51-.61-2.12-.6-.61-1.82-1.21-.3-.91-1.21-.61.3,1.21-.91.91-1.21-.3-1.21-.6.3-.31.3-1.22.61-.3,0-1.51a11.2,11.2,0,0,1-.91-1.82c-.3-.91-1.51-2.43-1.82-4.55s.61-.61-.3-2.42-.61-2.43-.91-2.73-.91.6-.91-.91a4.32,4.32,0,0,0-.79-2.09c-.63.55-1.43,1.33-2.09,1.33-.91,0-.6-1.82-1.51-1.51l-.91.3-.61.3a4.91,4.91,0,0,0-1.82-.91,5.71,5.71,0,0,1-2.12-.6c-.61-.31,0-.91-1.52-.61A8.48,8.48,0,0,0,141,54.22a3.45,3.45,0,0,1,.68,1.43c0,.91,1.22.61,2.43,2.73a28.17,28.17,0,0,0,1.84,3.1c-.59-.12-1.12-.19-1.23-.07-.31.3.3,1.51,0,2.12a8.28,8.28,0,0,0-.31,3v1.82c0,1.21-.91.91,0,1.82a8.15,8.15,0,0,0,1.82,1.52c.91.6-.91-3.34-.3-3.64a1.21,1.21,0,0,1,1.82.6,16.72,16.72,0,0,0,1.21,3.64c.61.91.3,1.21.91,1.21s1.52-.6,1.52.61,1.51,2.12,1.51,2.12a1.33,1.33,0,0,1-.3-.91c0-.6.3-2.42-.31-3s0-.91-.3-2.12-.6-.91-.6-1.82c0-.6-.06-1.54-.1-2.1.62.72,1.12,1.3,1.31,1.49.6.61,1.21.61,2.12,2.13s1.52.91,1.82,1.82-.61,1.51.3,3.33.91,2.42,1.82,2.73.91,0,1.21.6a18.22,18.22,0,0,0,2.43,2.43,4.66,4.66,0,0,1-.91-2.12c0-.91.6-.61,0-1.52s-1.52-1.51-1.52-2.12.31-.91.61-1.52.61-.91.91-.3a3.9,3.9,0,0,0,1.51,2.12c1.22.91,1.82.91,2.13,1.82a7.21,7.21,0,0,0,1.81,2.73c.91.91,1.82,1.52,2.13,1.82S167.42,79.29,166.81,77.47Z" style="fill:#86ac98"/><path d="M189.4,156.44a13,13,0,0,1,5.15-1.21c2.73,0,5.15.91,6.37,0s1.21-.61,2.73-1.82-.61-2.12,3.94-2.12,7.57-.31,8.48-.91,2.73-.3,3-2.12,2.12-1.22.6-3.34-.6-2.73-2.12-3-1.21-2.73-4.24-4.24-2.13-1.52-4.25-2.73-1.51-1.52-3.33-3-10.61-7.88-15.16-12.13-6.67-5.45-9.7-8.79-3.64-.61-5.15-6.06-1.82-5.15-4.55-10.31-5.15-4.55-5.46-7.58-1.51-3.63.31-3,3,3.34,3.94,3.94,1.51,2.43,2.73,2.43-.61,2.42,3.63,3.94,1.82,2.12,3.34,4.24,4.55,3.94,5.76,5.16a39.9,39.9,0,0,0,7.27,4.54A76,76,0,0,1,203,115.52c2.73,2.42,8.49,5.15,10.91,6.06s6.67,3,11.82,4.85,0-.91-3.33-2.73-1.21-2.73-3.94-3.33-9.7-5.16-11.52-7-3.33-4.25-5.76-6.37-2.12-1.82-3.64-4.55-2.12-4.54-.3-3.94,1.82,4.55,3.64,5.46,7.27,4.85,8.79,5.15a5.73,5.73,0,0,1,3.94,2.43,23.71,23.71,0,0,0,7.88,5.45c3.33,1.52,7,4.85,10.61,5.76s2.43.61,5.46,2.13,7.88,2.72,9.39,3.63,5.76,1.22,6.37,2.73,14.55,4.85,14.55,4.85l.61,25.46S257,143.71,253.06,143.41s-4.85-1.22-10-2.73-9.39-3.64-11.21-4.25-4.55-.3-7.58-3.33-13.64-8.18-14.55-8.79,7,4.55,8.79,6.67a23.51,23.51,0,0,0,7.88,5.15c1.82.61,6.37,4.55,9.7,5.15s3.64,0,7.28,3,7.27,3.94,9.7,6.06,5.15,5.15,4.54,5.76-13.64-7-17.88-8.49-3.34-1.21-7.58-2.73-8.18-5.45-10.91-6.36,2.73,3,5.15,6.06,3.94,2.42,4.24,5.15-1.81,2.73-.9,5.76,2,6.52-1.07,7.13-19.85-.76-24.4-.46-11.52,2.12-14.55.3S189.4,156.44,189.4,156.44Z" style="fill:#86ac98"/><path d="M293.9,160.23S203,159.62,181.36,159s-39.21-1.82-46.87-.61-46.22-.6-57.06.61-3.83-1.52-36.66-1.52-56.75,1.82-68.55,1.21-31.88,2.43-41.76,2.43-50,.61-59.3.61h-12.43l-4.46,113.67,444.41-4.24Z" style="fill:#698b87"/><polygon points="336.12 177.32 303.53 -16.48 292.07 48.71 300 42.54 292.07 57.52 268.29 179.08 336.12 177.32" style="fill:#283c3f"/><path d="M311.25,147.85s9.5-9.46,11.13-10.91,3.43-5.2,2.29-5.66-12.55,8.89-12.55,8.89l3.36-16.43,8.26-8.38-6.7,1.9.73-5.37S328.35,97.47,329.21,96s.51-1.9.51-1.9l-8.58,7.19L324.81,86s6.34-8.5,5.59-8.93S326,79.91,326,79.91l4.57-22,6-27.22,7.73,51.73s-3.48-3.47-4.25-3.08,5,9.26,5,9.26l2.7,15.45-8.11-7.73s-.38.39.39,1.93,10.42,16.61,10.42,16.61l.39,5.4-6.56-2.32,7.72,8.88,2.31,16.61s-10.81-10-12-9.66.38,4.25,1.93,5.79,10.42,11.59,10.42,11.59L357,179.32l-48.26-1.54Z" style="fill:#355151"/><path d="M359.33,122.85s-55.48-16.07-122.47,20c-5,2.7-43.35,28.49-57.29,33s-33.35,7.88-41.53,7.27-14.25-.3-24.56,3-45.77,13-70.32,18.79S-6.25,212.58-15,216.22-36.87,225-47.48,227.13-67.79,224.7-92.95,239s-27.28,12.43-34.86,17.89-10.61,17-10.61,17l499.26.3Z" style="fill:#577977"/></g></g><g style="clip-path:url(#c)"><path d="M145.5,234.28l-8.76,1.32L108.58,29.83A1.66,1.66,0,0,1,110,28h0a1.66,1.66,0,0,1,1.88,1.37Z" style="fill:#0b0915"/><polygon points="115.01 47.27 110.84 47.9 97.68 40.49 125.41 36.32 115.01 47.27" style="fill:#0b0915"/><path d="M157.71,218.66l-8.5,2.51L93,21.24a1.65,1.65,0,0,1,1.12-2h0a1.67,1.67,0,0,1,2,1.1Z" style="fill:#0b0915"/><polygon points="101.77 37.63 97.72 38.82 83.66 33.3 110.56 25.35 101.77 37.63" style="fill:#0b0915"/><path d="M196.84,85.83s32.37,0,39.95,89.52c0,7.08-4,73.83-5.56,81.92s-14.41,5.06-14.41,5.06V238.56s-37.68,13.15-95.33,6.07c-3-.51,4.55,18.26,4.55,18.26s-15.68,5-16.69,6.52-8.09-7.59-11.12-29.33-18.72-137.56,40-154.25C143.23,81.79,196.84,85.83,196.84,85.83Z" style="fill:#ef1e32"/><path d="M197.16,86.07s32.36,0,40,89.51c0,7.08-4.05,73.83-5.56,81.92s-14.42,5.06-14.42,5.06V238.79s-37.67,13.15-95.32,6.07c-3-.5,4.55,18.26,4.55,18.26s-15.68,5-16.69,6.52-8.09-7.58-11.13-29.33-18.71-137.55,40-154.24C143.55,82,197.16,86.07,197.16,86.07Z" style="opacity:0.5;fill:url(#d)"/><polygon points="194.17 60.13 192.56 89.58 187.31 99.69 150.64 102.22 136.01 93.55 135.19 79.46 133.38 50.48 174.71 45.5 194.17 60.13" style="fill:#fdccaa"/><path d="M142.69,59.07a2.65,2.65,0,0,1,1-.29c.4,0,.76,0,1.16,0a24.37,24.37,0,0,0,3.08-.07,6.18,6.18,0,0,1,1.12-.12,3.91,3.91,0,0,0,.89-.07c.69-.1,1.34.1,2,0,.43-.07.8,0,1.24-.05s1,0,1.51-.09a2.89,2.89,0,0,1,1.92.59c.35.23.5.25.58.68.05.27.08.55.13.82.07.44.14.89.22,1.34a4.38,4.38,0,0,1,.1.81,1.94,1.94,0,0,1-.55,1.16,4.67,4.67,0,0,1-3.88,1.59c-1.31,0-2.6,0-3.9-.06a8.42,8.42,0,0,1-1.33,0,8.48,8.48,0,0,0-1.57-.35c-.75,0-1.38-.29-2.14-.35s-1.37-.21-2.05-.31a5.74,5.74,0,0,1-2.1-.63,3.7,3.7,0,0,1-1.19-1.9,2,2,0,0,1,.62-2.26,3.38,3.38,0,0,1,2.8-.15" style="fill:#0b0915"/><path d="M145.1,71.72c1.67-2.16,4.48-1.55,6.44-.19.29.2.57-.27.28-.47-2.15-1.49-5.28-2.08-7.11.27-.21.27.17.67.39.39Z"/><path d="M148.5,68.81c.24.22-.2.51-.36.57-.42.16-.41-.27-.45-.58s-.16-.52.23-.59.64,0,.76.35a1.72,1.72,0,0,1,.09.44c0,.47-.2.28-.25.09s.51-.42.42,0a.5.5,0,0,1-.82.26.71.71,0,0,1-.1-.14,1,1,0,0,1-.1-.17q0-.23-.18.15c.49-.19.28-1-.21-.79-.65.25-.45.92-.12,1.36a1.31,1.31,0,0,0,1.92.2,1.23,1.23,0,0,0,.14-1.73,1.16,1.16,0,0,0-1.73.39c-.25.61.3,1.58,1,1.48.91-.12.9-1.15.69-1.83-.26-.84-.93-1-1.74-.84s-.91.86-.79,1.65a1.36,1.36,0,0,0,.57,1.1,1.11,1.11,0,0,0,1.12-.13,1.37,1.37,0,0,0,.73-.8,1.06,1.06,0,0,0-.25-1c-.39-.36-1,.21-.58.57Z"/><path d="M186.75,59.07a2.65,2.65,0,0,0-1-.29c-.4,0-.77,0-1.17,0a24.17,24.17,0,0,1-3.07-.07,6.29,6.29,0,0,0-1.13-.12,3.78,3.78,0,0,1-.88-.07c-.69-.1-1.35.1-2,0-.43-.07-.8,0-1.24-.05s-1,0-1.5-.09a2.9,2.9,0,0,0-1.93.59c-.35.23-.49.25-.58.68-.05.27-.08.55-.12.82-.08.44-.15.89-.22,1.34a3.67,3.67,0,0,0-.11.81,2,2,0,0,0,.55,1.16,4.69,4.69,0,0,0,3.89,1.59c1.3,0,2.59,0,3.9-.06a8.32,8.32,0,0,0,1.32,0,8.85,8.85,0,0,1,1.57-.35c.76,0,1.39-.29,2.14-.35s1.37-.21,2.06-.31a5.69,5.69,0,0,0,2.09-.63,3.7,3.7,0,0,0,1.19-1.9,2,2,0,0,0-.62-2.26,3.38,3.38,0,0,0-2.8-.15" style="fill:#0b0915"/><path d="M181.68,71.33c-1.83-2.35-5-1.76-7.11-.27-.29.2,0,.67.28.47,2-1.36,4.77-2,6.44.19.22.28.6-.12.39-.39Z"/><path d="M177.31,68.24c-1.18,1.11,1.34,3,2,1.46.25-.57.47-1.74-.17-2.12a1.52,1.52,0,0,0-1.95,2.33c.64.5,1.38-.1,1.49-.79A1.05,1.05,0,0,0,177.34,68a1,1,0,0,0-.58,1.53,1.32,1.32,0,0,0,2.1.35c.41-.42.71-1.24,0-1.51-.49-.18-.7.6-.22.79-.08-.25-.14-.3-.17-.15s-.05.09-.07.13a1.18,1.18,0,0,1-.13.18.5.5,0,0,1-.82-.26c-.08-.4.42-.33.44-.07s-.25.55-.27,0a1.33,1.33,0,0,1,.09-.44c.11-.37.34-.42.71-.36s.35.17.28.6,0,.74-.45.58c-.17-.07-.59-.35-.36-.57.38-.36-.2-.93-.58-.57Z"/><path d="M136.14,58.12s0,.16,0,.46c.19,5.29,1.51,27.7,5.34,31.58,2.88,2.92,6.53,3.51,10.47,3.14a201.64,201.64,0,0,1,22-1c2.07,0,4.14.1,6.21.21,3.49.17,7.5.26,9.87-2.32a10,10,0,0,0,2.1-5.46c.49-3.56.39-23.45-.28-27,1.25.77,2.58,1.64,3.08,3,.58,1.63-.09,19.84-.13,21.52a28.13,28.13,0,0,0,.75,6.84c1,4.48,2.71,8.75,4,13.13a68.78,68.78,0,0,1,2.78,16,19.59,19.59,0,0,1-.49,6.57c-.86,3-4.24,8.78-8,7.93a3.39,3.39,0,0,1-2.92-3.65s.92,7.48-3.83,8.21-4-4-5.11-4.38-1.82,5.84-5.11,7.67-5.84,1.09-6.2-2.92-.73-2.56-1.46-1.46,1.46,9.49-6.2,7.3c-4.75-1.46-4.75-7.3-4.75-7.3a15.35,15.35,0,0,1-1.09,4c-1.09,2.09-5.81,1.23-8-4-.61-1.43-1.83-4.38-1.83-4.38s-.73,5.11-1.82,5.47-5.84-4-6.21-4.74-2.16-5.41-2.19-5.47c.53,1.35-.18,4.58-1.9,4.51-2.35-.09-4.08-6-4.7-7.81a35.25,35.25,0,0,1-.71-21c1.14-4,3-7.76,3.95-11.79.7-2.93-.7-25-1.1-27.93C132.12,59.55,134.05,60.85,136.14,58.12Z" style="fill:#3a3f49"/><path d="M164.79,89.71S173,79,186.2,93.49c3.15,1.26,5,5,8.19,3.78s1.89,7.56-17.64,7.56c-3.58.88-10-5.54-12-9.45-.64-1.26-10.08,15.74-29,7.56-2.52,0-3.77-4.41-3.77-4.41s5,.63,7.55-1.26S151.56,78.37,164.79,89.71Z" style="fill:#3a3f49"/><path d="M159.35,89.76a5.24,5.24,0,0,1-.76-3.79c.38-2.28,2.27-5.7,2.27-8.36s1.52-6.83,2.66-7.21,3.42,1.52,3.42,3.42A36,36,0,0,0,168.08,81c.38,1.14,1.9,7.59,1.14,8.73s-3.42,0-3.42,0-.76,1.9-1.52,1.9S162,90.14,162,90.14A2.31,2.31,0,0,1,159.35,89.76Z" style="fill:#b98f6e"/><path d="M121.33,245.9c-3.19-24.8-5.33-50.73-2.55-75.65.07-.61-.89-.6-1,0-2.78,24.92-.64,50.85,2.55,75.65.08.61,1,.61,1,0Z"/><path d="M215,245.9c3.19-24.8,5.33-50.73,2.55-75.65-.07-.6-1-.61-1,0,2.79,24.92.64,50.85-2.55,75.65-.07.61.88.61,1,0Z"/><path d="M168.15,140.18c1.18,2.21,1.2,5.57,1.62,8,.55,3.19,1.25,6.29,1.7,9.47.67,4.64,1.3,9.17,1.6,13.87.32,5-.71,9.85-1.53,14.74-1.54,9.2-.5,18-.35,27.32.19,11.33,2,22.56,2.21,33.86a.48.48,0,0,0,1,0c-.24-11.62-2-23.13-2.23-34.78-.08-5.37-.75-10.67-.66-16a99.14,99.14,0,0,1,1.85-15.53c1.46-8.41.58-17.48-.95-25.84-.5-2.76-1.35-5.45-1.83-8.23-.39-2.29-.45-5.25-1.57-7.34-.29-.54-1.11-.06-.82.49Z"/><path d="M190.84,64.78a27.24,27.24,0,0,0-14.08-2.56c-2.52.11-5.27.56-7.32,2.13A6.32,6.32,0,0,0,167,68.64a4.66,4.66,0,0,0-6.13-.12s0,.38,0,.85c0-.38-.06-.75-.11-1.1A6.35,6.35,0,0,0,158.31,64c-2.06-1.57-4.81-2-7.33-2.13A27.33,27.33,0,0,0,136.9,64.4c-1.85.89-1.9,2.75-1.53,4.64.23,1.11,2.56,2.33,2.56,2.33a14.8,14.8,0,0,1,.29,2.35,15.07,15.07,0,0,0,1.84,5c2.83,4.62,9,5.34,13.74,3.65a9.73,9.73,0,0,0,4.65-3.68,15.49,15.49,0,0,0,2.38-7.48s0,0,0-.15c2.55-2.81,5.41-.63,6-.11A15.67,15.67,0,0,0,169.3,79a9.74,9.74,0,0,0,4.64,3.69c4.77,1.68,10.91,1,13.74-3.66a14.88,14.88,0,0,0,1.84-5,14.93,14.93,0,0,1,.29-2.36s2.34-1.22,2.56-2.33C192.75,67.53,192.69,65.66,190.84,64.78Zm-47,15.57a9.8,9.8,0,0,1-4-5.43c-.79-2.49-1.65-6.78.26-9,1.27-1.47,3.42-2,5.25-2.31a41.71,41.71,0,0,1,9.21,0c5.11.28,5,5.89,5.11,7.45C160.3,79.17,150.51,84.52,143.84,80.35Zm44-5.06a9.8,9.8,0,0,1-4,5.43c-6.68,4.17-16.47-1.18-15.89-9.31.12-1.56,0-7.16,5.12-7.45a42.24,42.24,0,0,1,9.2,0c1.84.31,4,.85,5.25,2.32C189.5,68.52,188.64,72.8,187.86,75.29Z" style="fill:#005d6d"/><path d="M131.61,53.59s0-27.47,26.2-27.47c7-1.28,36.43-1.92,36.43,23C193.6,54.87,131.61,53.59,131.61,53.59Z" style="fill:#3e292f"/><path d="M132.25,63.82s27.48-19.17,62,0c5.11,2.55.64-14.06,0-14.7s-37.07-19.81-62,4.47C130.34,54.87,132.25,63.82,132.25,63.82Z" style="fill:#3e292f"/><path d="M132,63.36s27.48-19.17,62,0c5.11,2.56.63-14,0-14.69s-37.07-19.81-62,4.47C130.09,54.42,132,63.36,132,63.36Z" style="fill:url(#e)"/><path d="M157.89,103A10.07,10.07,0,0,0,170,103c1.25-.92,0-3-1.23-2.1a7.84,7.84,0,0,1-9.69,0c-1.24-1-2.46,1.16-1.23,2.1Z" style="fill:#e3dad2"/><path d="M166.61,157.86c-1.18,1.12,1.33,3,2,1.46.25-.56.47-1.74-.17-2.11a1.52,1.52,0,0,0-2,2.33c.64.5,1.38-.1,1.49-.79s-.66-1.23-1.36-1.09a1,1,0,0,0-.58,1.53,1.32,1.32,0,0,0,2.1.35c.41-.42.71-1.24,0-1.51-.49-.19-.7.6-.22.78-.08-.25-.14-.29-.17-.14s-.05.09-.07.13a1.18,1.18,0,0,1-.13.18.5.5,0,0,1-.82-.26c-.08-.4.42-.33.44-.07s-.25.55-.27,0a1.39,1.39,0,0,1,.09-.45c.11-.36.34-.41.71-.35s.35.16.28.6,0,.74-.45.58c-.17-.07-.59-.36-.36-.57.38-.36-.2-.94-.58-.58Z"/><path d="M167.22,175.14c-1.19,1.12,1.33,3,2,1.46.25-.56.47-1.74-.17-2.11a1.52,1.52,0,0,0-1.95,2.33c.64.5,1.38-.1,1.49-.79a1,1,0,0,0-1.35-1.09,1,1,0,0,0-.59,1.53,1.32,1.32,0,0,0,2.1.35c.41-.42.72-1.24,0-1.51-.49-.19-.7.6-.21.78-.09-.25-.15-.29-.18-.14a.54.54,0,0,1-.07.13.75.75,0,0,1-.13.18.5.5,0,0,1-.82-.26c-.08-.4.43-.33.44-.07s-.24.55-.27,0a1.71,1.71,0,0,1,.09-.45c.12-.36.34-.41.71-.35s.35.16.29.6-.05.74-.46.58c-.17-.07-.59-.36-.36-.57.38-.36-.19-.94-.57-.58Z"/><path d="M166.15,188.45c-1.18,1.11,1.34,3,2,1.46.25-.56.47-1.74-.17-2.12a1.52,1.52,0,0,0-1.95,2.33c.64.5,1.38-.1,1.49-.79a1,1,0,0,0-1.35-1.09,1,1,0,0,0-.59,1.53,1.32,1.32,0,0,0,2.1.35c.41-.42.72-1.24,0-1.51-.49-.18-.7.6-.21.79-.09-.25-.15-.3-.18-.14l-.07.12a.83.83,0,0,1-.13.18.5.5,0,0,1-.82-.26c-.08-.4.43-.33.44-.07s-.24.55-.27,0a1.33,1.33,0,0,1,.09-.44c.11-.37.34-.42.71-.36s.35.17.28.6,0,.74-.45.58c-.17-.07-.59-.35-.36-.57.38-.36-.19-.93-.58-.57Z"/><path d="M165.55,146.93c-1.18,1.11,1.33,3,2,1.46.25-.56.47-1.74-.17-2.12a1.69,1.69,0,0,0-2,.18,1.68,1.68,0,0,0,0,2.16c.64.5,1.38-.1,1.49-.8s-.66-1.22-1.36-1.09a1,1,0,0,0-.59,1.53,1.32,1.32,0,0,0,2.11.35c.41-.42.71-1.24,0-1.51-.49-.18-.7.6-.22.79-.09-.25-.15-.3-.17-.14l-.07.12a.83.83,0,0,1-.13.18.5.5,0,0,1-.82-.25c-.09-.41.42-.34.44-.08s-.25.56-.28,0a1.73,1.73,0,0,1,.1-.45c.11-.37.34-.42.7-.36s.35.17.29.6,0,.74-.46.58c-.16-.06-.58-.35-.35-.57.38-.36-.2-.93-.58-.57Z"/><path d="M216.18,96.82S209.8,90,202.84,87.45,206.27,171.5,217,196.82C220.82,203.79,216.18,96.82,216.18,96.82Z" style="fill:#004652"/><path d="M114.49,102.65s4.43-8.22,11.39-10.76,3.16,80.39-7.6,105.71C114.49,204.56,114.49,102.65,114.49,102.65Z" style="fill:#004652"/></g><path d="M41.52,10.78s-4.64-7.42.21-9.38A43.87,43.87,0,0,1,47,1.4c1,0,4.22,2.27.31,9.28" style="fill:#3a3f49"/><path d="M54.72,15.21s-20.21.42-21,.31-1.39-.93.1-3c0,0,.36-1.85,10.41-1.8.78-.11,7.27-.41,10.78,1.8C55.39,13.05,56.58,15.26,54.72,15.21Z" style="fill:#3a3f49"/><rect x="36.11" y="15.3" width="16.5" height="7.11" style="fill:#3a3f49"/><rect x="45.6" y="14.13" width="5.77" height="5.77" rx="0.77" style="fill:#3a3f49"/><rect x="37.6" y="14.13" width="5.77" height="5.77" rx="0.77" style="fill:#3a3f49"/><path d="M34.1,33.87S33,21.6,37,21.86c.41-.05,15-.15,15-.15s4.12.1,2.47,12.22Z" style="fill:#3a3f49"/><path d="M36,34.52v5.65A1.85,1.85,0,0,0,37.83,42H50.76a1.85,1.85,0,0,0,1.85-1.85V34.52Zm2.1,5.41c-.52,0-.94-1-.94-2.24s.42-2.24.94-2.24.94,1,.94,2.24S38.6,39.93,38.08,39.93Zm3.09,0c-.52,0-.94-1-.94-2.24s.42-2.24.94-2.24.94,1,.94,2.24S41.69,39.93,41.17,39.93Zm3.13,0c-.51,0-.93-1-.93-2.24s.42-2.24.93-2.24.94,1,.94,2.24S44.82,39.93,44.3,39.93Zm3.1,0c-.52,0-.94-1-.94-2.24s.42-2.24.94-2.24.94,1,.94,2.24S47.92,39.93,47.4,39.93Zm3.28,0c-.51,0-.94-1-.94-2.24s.43-2.24.94-2.24.94,1,.94,2.24S51.2,39.93,50.68,39.93Z" style="fill:#3a3f49"/><path d="M38.07,41.32H50.75a3.4,3.4,0,0,1,3.4,3.4v0a0,0,0,0,1,0,0H34.67a0,0,0,0,1,0,0v0A3.4,3.4,0,0,1,38.07,41.32Z" style="fill:#3a3f49"/><path d="M72.19,92.91,65.62,30.6A8.49,8.49,0,0,0,57.17,23H52.92l-21.25.37a8.48,8.48,0,0,0-8.28,7.43L15.61,92.74A8.5,8.5,0,0,0,24,102.3h39.7A8.51,8.51,0,0,0,72.19,92.91ZM61,99.7h-34c-4.37,0-7.76-4.1-7.22-8.75l6.67-56.71a7.46,7.46,0,0,1,7.09-6.81l18.2-.34h3.65a7.47,7.47,0,0,1,7.23,7l5.62,57.06C68.64,95.7,65.27,99.7,61,99.7Z" style="fill:#3a3f49"/><path d="M19.36,113.93s.15,6.49,24.89,5.41c1.24.16,24.9,0,24.59-5.57.62-.92-4.64-17.16-10.05-17.32-1.54-.15-30-.15-30-.15S23.22,96.92,19.36,113.93Z" style="fill:#3a3f49"/><path d="M33.79,94.29H54.51a1.86,1.86,0,0,1,1.86,1.86v0a0,0,0,0,1,0,0H31.93a0,0,0,0,1,0,0v0A1.86,1.86,0,0,1,33.79,94.29Z" style="fill:#3a3f49"/><path d="M37.71,92H50.9a2,2,0,0,1,2,2v0a0,0,0,0,1,0,0H35.75a0,0,0,0,1,0,0v0A2,2,0,0,1,37.71,92Z" style="fill:#3a3f49"/><path d="M36.69,44.8s-9.07,10.83-9,30.62c0,1,.41,10.21,3.2,13.51H57.81C60.6,85.63,61,76.45,61,75.42c.1-19.79-9-30.62-9-30.62Z" style="fill:#ff9b19"/><path d="M49.87,88.69a6.4,6.4,0,0,0,.07-.88,5.62,5.62,0,1,0-11.24,0,5.14,5.14,0,0,0,.08.88Z" style="fill:#ffc375"/><rect x="29.25" y="88.82" width="30.31" height="2.37" rx="1.19" style="fill:#3a3f49"/></svg>