<svg xmlns="http://www.w3.org/2000/svg" xmlns:xlink="http://www.w3.org/1999/xlink" width="250" height="250" viewBox="0 0 250 250"><defs><clipPath id="a"><rect x="-270.49" y="-2.5" width="253.13" height="250.59" style="fill:none"/></clipPath><clipPath id="b"><rect x="-0.76" y="-1.38" width="251.15" height="251.15" style="fill:none"/></clipPath></defs><title>s6s4thumb0</title><g style="clip-path:url(#a)"><path d="M183,74.28S144.79,61,139.32,59.44s-10.15-4.68-15.61-7-3.91-4.69-9.37-9.37-10.93-5.47-14.83-8.59,1.56.78-16.4-8.59S48,11.82,41,1.67,13.63-18.63,7.39-28-3.54-42.83-8.23-45.17s-7-10.15-9.37-10.15-5.85-2.73-8.19-3.51a23,23,0,0,1-4.69-2.34s-13.27-7-14.83-10.15-3.12-7-5.47-10.15S-62.49-90.06-67.17-96.3s-5.46-3.91-8.59-8.59-4.68-3.9-10.93-11.71-9.37-11.71-10.93-10.93-4.68,4.68-7,4.68-1.56-4.68-3.91-3.9l-2.34.78-1.56.78s-3.12-2.34-4.68-2.34a14.51,14.51,0,0,1-5.47-1.56c-1.56-.78,0-2.34-3.9-1.56s-7.81,2.34-9.37,3.9l-1.56,1.56s-.78-1.56-4.69-1.56-4.68,0-6.24.78-.78.78-3.12,1.56,0,.78-3.13,1.56-5.46-.78-8.58-1.56-1.57-.78-4.69-.78h-6.24c-1.56,0-3.13-.78-5.47-2.34a8.41,8.41,0,0,0-5.46-1.56c-1.56,0-5.47,2.34-6.25,3.9s-4.68,3.12-7,5.47a34.23,34.23,0,0,0-3.91,4.68s-28.1,21.86-40.59,25.76c-1.49.47-5.47,1.56-8.59.78s-3.9,0-4.68,0h-4.69s-5.46,8.59-14.05,13.27c-3.07,1.68-11.71,4.69-14.83,7s-3.13,7-7.81,9.37S-309.18-51-309.18-51s-21.08-10.93-22.64-12.49-2.34-1.57-5.47-3.13-.78-3.9-7-2.34-8.59,3.9-11.71,4.68a21.06,21.06,0,0,0-6.25,3.13s-7.8,0-11.71,3.9c0,0-5.46-2.34-8.59,2.34a119.61,119.61,0,0,1-21.85,16.4c-3.93,2.3-10.15,5.46-14.06,11.71-1.75,2.81-30.44,30.44-63.23,49.18-1.36.77-2.34-2.34-5.47-.78s-5.46,3.12-11.71,2.34-.78-3.12-7.8-.78-7,4.68-13.28,7.81-6.24,3.9-11.71,5.46-6.24,0-10.14.78-3.13,3.91-6.25,5.47-14.83,1.56-20.3,6.24c-1.32,1.14-9.37,3.91-16.39,4.69s-5.47,6.24-10.93,5.46-7-2.34-10.15-.78-5.46,6.25-7.81,7a49.72,49.72,0,0,1-7,1.56c-3.91.78-5.47-.78-6.25.78s1.56,2.34-1.56,3.12-3.9.78-4.68,3.13,1.56,2.34-2.35,3.12-7,.78-10.93,1.56-13.27,3.12-17.95,3.12-4.69-1.56-8.59,0-14,3.12-14.83,3.91a45.51,45.51,0,0,1-4.69,3.12c-2.34,1.56-7.8,9.37-9.36,10.15s-10.15-1.56-13.28,0-24.2,7-24.2,7l-73.38,11.71-25,36.7L-453.61,159l637,7Z" style="fill:#abc4ab"/><path d="M-368.12,66.47a62.2,62.2,0,0,0,3.9,7.81c2.34,3.9,7.81,5.46,11.71,8.58s9.37,12.49,13.27,15.62,0,2.34-.78,6.24,0,3.12.78,4.69,14.05,14,17.18,15.61,1.56,1.56,11.71,7.81a32.36,32.36,0,0,1,13.27,15.61l54.26.39,89-7s5.47-2.34,6.25-4.68-3.12-7-3.12-7l3.9-12.49s-5.46-4.68-7.81-6.24.78-7.81.78-12.49-4.68-4.69-7.8-6.25-2.34-5.46.78-11.71,0-12.49,0-12.49-3.91,5.47-4.69,7-7,4.68-17.17,9.36-7,5.47-9.37,7,2.34,21.86-3.12,5.47-2.34-7.81-4.69-11.71.78-3.91.78-9.37-1.56-12.49-3.12-15.62,2.34-8.58,3.12-10.93,2.35-13.27,5.47-17.95,8.59-11.71,14-13.27,3.12-5.47,4.69-9.37a64.73,64.73,0,0,1,7-11.71c.78-.78.78-7.81.78-10.93s4.69-10.15,7.81-14,.78-3.13,2.34-6.25,7.81-7.81,7.81-7.81,9.37,3.13,13.27,7.81,1.56,1.56,3.12,2.34.78,4.69,2.34,8.59a18.22,18.22,0,0,1,1.57,8.59V-1.84c0,3.9,1.56,10.15,1.56,12.49A68,68,0,0,0-124.16,27c2.34,7.81,3.9,7.81,3.9,10.93s4.69,7,5.47,17.18,5.46,14.05,5.46,14.05,2.35,5.47,3.91,5.47,5.46,5.46,6.24,8.58,3.12,4.69,7.81,11.71,0,0,2.34,3.13a35.42,35.42,0,0,1,4.69,7c3.12,5.47-1.57,5.47-1.57,5.47l8.59,19.51-1.56,12.49s7,1.57,10.15,0,4.68,0,4.68,0,4.69,1.57,7,1.57,3.12-.78,3.9-2.35,0-4.68.78-10.14a16.17,16.17,0,0,0-2.34-10.15,71.76,71.76,0,0,1,7,2.34c1.56.78,9.37,3.9,9.37,3.9s.78,10.15,0,15.62,5.46.78,6.24,0,3.12-.79,4.68-3.13,0-3.9,0-6.24,4.69-1.56,5.47-2.34a12.27,12.27,0,0,0,3.12-7.81c0-3.9,3.91-7.81,6.25-9.37s5.46-3.9,5.46-3.9l2.34-6.25a20.49,20.49,0,0,1,2.35-5.46c1.56-2.35,4.68-4.69,4.68-7.81a60.75,60.75,0,0,0-.78-7c0-.78-7-2.34-8.59-2.34s-5.46-.78-7-.78-5.47-.78-7-.78S-32.82,84-32.82,84a85.71,85.71,0,0,0-6.25,8.59c-2.34,3.9-.78,5.47.79,11.71s-.79,4.69-3.91,7-7,.78-7,.78-10.93-3.12-12.5-5.47,0-10.15,0-12.49-11.71,1.56-11.71,1.56-3.12-7-2.34-10.93-2.34-7-3.12-9.36-7-5.47-8.59-10.15-7-3.91-8.59-8.59,2.35-7,3.91-9.37S-89,38-88.25,33.29s4.69-9.37,5.47-14-1.56-11.71-3.13-16.4S-92.15-5-92.15-2.62s.78,2.34,1.56,7.81.78,4.68.78,9.36-3.9,10.15-3.12,15.62-10.15,16.39-10.15,16.39-6.25-.78-8.59-3.12,0-6.25-2.34-7.81-7-21.08-7.81-35.91S-123.38-5-123.38-5s-3.12-14.84-3.9-24.2,0-6.25,2.34-16.4-.78-6.24-.78-10.15,1.56-10.15,1.56-14.05-4.68-6.25-10.15-3.9-10.93,3.9-12.49,3.9-3.9,3.9-3.9,7,5.46,7,1.56,10.14-9.37-.78-14.05.79-3.13,7.8-3.91,12.49,0,3.12,0,7.8-3.9,9.37-3.9,9.37L-174.9-19a5.8,5.8,0,0,1-2.35,2.35c-1.56.78-2.34,7.8-2.34,7.8s-1.56,10.15-3.9,14.06-3.9-.79-7,0-.78,2.34-4.68,7S-200.67,20-203,22.36s-3.9,6.25-8.59,10.93-.78,2.34-1.56,9.37-1.56,3.12-4.68,10.93,0,0,0,7-2.34,17.18-3.12,21.08,0,2.34,2.34,5.47,2.34,9.36,2.34,9.36-1.56,3.13-7,7a9.48,9.48,0,0,0-3.85,4.78,9.27,9.27,0,0,0-.83-2.44,63.94,63.94,0,0,1-3.12-8.58s-.78-8.59,0-10.93-.78-2.35-2.35-5.47-.78-9.37-4.68-8.59,0,2.35-.78,5.47-.78,8.59-1.56,12.49,1.56,5.46,1.56,8.59,0,9.37-.78,13.27-11.71,15.61-11.71,15.61a32.8,32.8,0,0,1-1.56-3.9c-.78-2.34,0-4.69,0-7s-4.69-4.68-8.59-7-3.12-4.69-3.12-4.69a40,40,0,0,0-.78-7.8c-.78-3.13,3.12-9.37,3.9-10.93s-3.9-3.91-8.59-2.35-3.12,10.93-5.46,13.28-7.81,3.9-7.81,3.9l-3.9-3.12a20.64,20.64,0,0,1,.78-5.47c.78-2.34-.78-3.9-1.56-3.9s-2.34-3.91-2.34-3.91l-3.91-4.68-8.59,7.81-10.93-.78-3.9-8.59L-324,72.32l10.14-13.27,9.37-8.59,2.35-3.9,7.8-3.9,4.69-2.34,10.93-5.47,7-3.12,3.12-3.12,1.57-4.69s3.9-3.12,5.46-4.68,5.47-1.56,5.47-1.56l7.8-7S-238.92.5-235-.28s1.56,1.56,3.13,2.34,0,9.37,0,9.37l3.12-3.9c3.12-3.91,0-6.25,0-6.25s-1.56-8.59-2.34-10.93,0-13.27,2.34-16.39,4.68-1.56,7-4.69,5.46-9.36,9.36-10.93,3.91-2.34,7,2.35,0,1.56-1.56,8.58-5.47,6.25-6.25,10.93,0,5.47-1.56,10.93-1.56,10.15-1.56,19.52,1.56,16.39,5.46,15.61,3.91-4.68,3.91-8.58,2.34-5.47,3.12-10.15,3.12-14.06,4.68-15.62.79-7,1.57-9.36a160.09,160.09,0,0,1,6.24-14.84c2.34-4.68,4.69-2.34,7-3.9s.78-2.34.78-3.9,4.68-5.47,7-8.59,1.57-3.91,1.57-6.25,3.12-5.46,4.68-6.24,1.56-6.25,1.56-6.25,0-6.24,3.9-10.15,7-19.51,7-19.51.78-4.69,0-5.47,1.56-6.24,3.12-5.46.78,1.56,2.35,4.68,2.34,5.47.78,10.15,1.56,5.46,1.56,8.59,3.9,3.9,3.9,3.9l3.9,5.46s3.91-.78,3.91-3.9,3.12-10.93,3.12-15.61,1.56-2.34,2.34-4.69,1.56-3.9,1.56-7,0-1.56-1.56-3.91.78-5.46,0-7-2.34,0-4.68-1.56-3.12-2.35-4.69-2.35h-5.46c-.92,0-1.57-2.18-1.95-4a6.57,6.57,0,0,1-1.95.85c-1.88.63-.76.75-1.84,1.18l.28,2.73h-7c-3.12,0-3.12,1.56-5.47,3.12s-2.34-.78,0-3.12a8.37,8.37,0,0,0,2-4c-2.61-.68-1.32-.68-4.31-.68h-6.24a6.1,6.1,0,0,1-2.58-.65c-1.06,2.34-.55,4.36-.55,6.9,0,3.12-2.34,4.68-3.9,3.9s-.78-3.12-.78-5.46-1.56-3.91-1.56-4.69c0-.56-.82-2.36-1.27-3.9H-185c-1.56,0-5.47,2.34-6.25,3.9s-4.68,3.12-7,5.47a34.23,34.23,0,0,0-3.91,4.68s-28.1,21.86-40.59,25.76c-1.49.47-5.47,1.56-8.59.78s-3.9,0-4.68,0h-4.69s-5.46,8.59-14.05,13.27c-3.07,1.68-11.71,4.69-14.83,7s-3.13,7-7.81,9.37a85.41,85.41,0,0,0-10.9,7.19,88.61,88.61,0,0,1,6.22,6.86c1.56,2.34,2.34,3.12,5.46,7s2.34,1.56,6.25,3.12,6.24.78,5.46,3.9-7.81,12.49-7.81,12.49,5.08-1.17,7.42,2.74,0,3.12,2.34,6.24-2.34,3.91-3.9,7.81-2.34,8.59-5.47,11.71-7,7-16.39,18-4.68.78-11.71,7-7.81,6.25-14.05,10.93S-368.12,66.47-368.12,66.47Z" style="fill:#86ac98"/><path d="M-11,136.34a33.44,33.44,0,0,1,13.27-3.12c7,0,13.27,2.34,16.4,0s3.12-1.56,7-4.69-1.56-5.46,10.15-5.46,19.52-.78,21.86-2.34,7-.78,7.81-5.47,5.46-3.12,1.56-8.59-1.56-7-5.47-7.8-3.12-7-10.93-10.93-5.46-3.91-10.93-7S35.88,77,31.2,73.1,3.87,52.81-7.84,41.88-25,27.82-32.82,19.24s-9.37-1.56-13.27-15.62S-50.78-9.65-57.8-22.92s-13.27-11.71-14-19.52-3.91-9.36.78-7.8,7.8,8.58,10.15,10.15,3.9,6.24,7,6.24-1.56,6.25,9.37,10.15,4.68,5.46,8.59,10.93S-24.23-2.62-21.11.5-4.72,11.43-2.37,12.21,17.14,24.7,24.17,31,46,44.22,52.27,46.56s17.18,7.81,30.45,12.49,0-2.34-8.59-7S71,45,64,43.44s-25-13.27-29.66-18S25.73,14.55,19.49,9.09,14,4.4,10.12-2.62,4.65-14.33,9.34-12.77,14-1.06,18.71,1.28,37.44,13.77,41.34,14.55s6.25,1.56,10.15,6.25S63.2,31,71.79,34.85s18,12.49,27.33,14.83,6.24,1.57,14,5.47,20.3,7,24.2,9.37,14.83,3.12,16.39,7S191.24,84,191.24,84l1.56,65.58S163.13,103.55,153,102.77s-12.49-3.12-25.76-7S103,86.38,98.33,84.81,86.62,84,78.82,76.23,43.69,55.15,41.34,53.59,59.3,65.3,64,70.76,79.6,82.47,84.28,84s16.4,11.71,25,13.28,9.37,0,18.74,7.8,18.74,10.15,25,15.62,13.27,13.27,11.71,14.83-35.13-18-46.06-21.86-8.59-3.12-19.51-7S78,92.62,71,90.28s7,7.81,13.27,15.61,10.15,6.25,10.93,13.27-4.68,7-2.34,14.84,5.07,16.78-2.73,18.34-51.14-2-62.85-1.17-29.66,5.47-37.47.78S-11,136.34-11,136.34Z" style="fill:#86ac98"/><path d="M486.88,145.76S215.49,143.85,150.74,142s-117.13-5.71-140-1.91-138.08-1.9-170.45,1.91-11.43-4.76-109.51-4.76S-438.7,142.9-473.93,141s-95.23,7.61-124.75,7.61-149.5,1.91-177.12,1.91h-37.13l-13.34,357.09L501.17,494.28Z" style="fill:#698b87"/><polygon points="-74.46 173.09 -38.38 -41.45 -25.7 30.72 -34.48 23.89 -25.7 40.47 0.63 175.04 -74.46 173.09" style="fill:#283c3f"/></g><g style="clip-path:url(#b)"><path d="M246.24,164.86s-15.3-5.42-17.48-6.06-4-1.9-6.24-2.85-1.55-1.89-3.73-3.78-4.36-2.22-5.92-3.48.63.32-6.54-3.48-14-5.72-16.83-9.81-10.9-8.2-13.37-12-4.34-6-6.22-6.92-2.78-4.09-3.72-4.09-2.34-1.11-3.28-1.43A9.51,9.51,0,0,1,161,110s-5.3-2.85-5.91-4.11a26.5,26.5,0,0,0-2.17-4.08c-.93-1.26-4.67-3.47-6.53-6s-2.18-1.58-3.42-3.47-1.86-1.57-4.34-4.72-3.73-4.71-4.36-4.4-1.88,1.86-2.82,1.85-.62-1.88-1.56-1.57l-.94.31-.62.31a5.19,5.19,0,0,0-1.88-1,5.66,5.66,0,0,1-2.18-.64c-.62-.31,0-.93-1.56-.63A8.4,8.4,0,0,0,119,83.49l-.63.62s-.31-.63-1.88-.64-1.87,0-2.5.3a4.72,4.72,0,0,1-1.26.62c-.94.3,0,.31-1.25.61s-2.19-.32-3.44-.64-.62-.32-1.87-.33l-2.5,0a4.15,4.15,0,0,1-2.19-1,3.41,3.41,0,0,0-2.18-.64A4.35,4.35,0,0,0,96.77,84c-.31.62-1.88,1.24-2.83,2.17A13.66,13.66,0,0,0,92.37,88S81.05,96.69,76,98.22a7.07,7.07,0,0,1-3.45.3,3.31,3.31,0,0,0-1.87,0H68.84a17.52,17.52,0,0,1-5.66,5.28c-1.24.66-4.71,1.85-6,2.78s-1.27,2.81-3.16,3.73a38.17,38.17,0,0,0-4.71,3.1s-8.42-4.43-9-5.06-.93-.64-2.18-1.27-.3-1.57-2.81-1-3.45,1.55-4.7,1.85a8.21,8.21,0,0,0-2.51,1.24s-3.13,0-4.7,1.53a2.86,2.86,0,0,0-3.45.91,48,48,0,0,1-8.8,6.52c-1.58.91-4.08,2.16-5.66,4.65C4.79,123.91-6.78,134.91-20,142.33c-.55.31-.94-.94-2.19-.32a6.65,6.65,0,0,1-4.7.9c-2.5-.32-.3-1.25-3.13-.33s-2.82,1.86-5.33,3.09-2.52,1.55-4.71,2.16-2.5,0-4.07.29-1.26,1.56-2.51,2.17-5.95.59-8.15,2.45a19.6,19.6,0,0,1-6.58,1.84c-2.82.29-2.21,2.49-4.4,2.16s-2.81-1-4.06-.34-2.21,2.49-3.15,2.79a18.94,18.94,0,0,1-2.82.61c-1.56.3-2.18-.33-2.5.3s.62.94-.63,1.24-1.57.31-1.89,1.24.62.95-1,1.25-2.81.29-4.38.6a49.59,49.59,0,0,1-7.2,1.2c-1.88,0-1.87-.64-3.44,0s-5.64,1.21-6,1.52a20,20,0,0,1-1.89,1.24c-.94.62-3.15,3.74-3.78,4s-4.06-.65-5.32,0-9.71,2.75-9.71,2.75l-29.43,4.5-10.11,14.64,153.88,2.87,255.22,4.47Z" style="fill:#abc4ab"/><path d="M16.49,175.49a6.7,6.7,0,0,0,0-2.5c-.3-.94-.93-1.26-.92-2.2s.63-.62,0-1.25-1.24-2.2-1.86-2.51-.93-1.89-1.56-1.89-1.55-.95-1.55-.95,0-1.88-1.24-1.88-2.5-.65-3.76.28-2.83,2.17-3.45,2.48,0,0-2.2.61-10,.57-11,.56-3.76.6-3.75,0A1.26,1.26,0,0,1-13.16,165c.94.32,3.44-.6,4.7-1.22s1.88-.61,2.2-1.23,0-1.25,0-1.57-.62-1.25-1.25-.63-1.89,1.86-2.51,1.86-1.26.62-1.88.3,0-1.56,0-1.56l1.26-1.25.94-1.24a14.4,14.4,0,0,0-3.44.91,10.17,10.17,0,0,1-3.76.61c-.31,0-2.18-1.58-2.8-1.9s-2.18-1.89-2.81-1.89-1.24-.95-1.24-.95l-.94-.63s.62,1.57-.63,1.56-1.25-.64-1.88-.64a2,2,0,0,0-1.25.3c-.63.31-.94.31-1.57.62s-.94.31-.94.62,0,1.25.3,1.57-1.56.3-1.56.3a8.05,8.05,0,0,0-2.2.61c-.31.31-.31.94-1.25.93s-3.45.29-3.45.29-.3-.63-1.56,0,.93,1.26,0,1.25a11.54,11.54,0,0,0-3.44.29c-.63.31-1.57.3-.94.62s1.87,0,1.56.64-.33,1.87-.64,1.87-.94,0-.32.31a1.25,1.25,0,0,1,.62,1.26c0,.31-.31.62-1.26.93a11.58,11.58,0,0,1-2.81.6c-.63,0-2.2.93-3.77,1.23s-1.56.61-2.82.61-.3-.94,0-.94a15.65,15.65,0,0,0,2.2-.93l1.57-.92,1.56-.62.95-1.56,1.56.33.63-.31-.3-1.57s.32-.94,0-.94a6.78,6.78,0,0,1-1.25-.32.3.3,0,0,0-.31-.31,24.78,24.78,0,0,0-2.83,1.23l-2.5,0a13.62,13.62,0,0,1-2.51.61c-.62,0-2.5.61-3.44.61l-2.5,0-1.26.62a1.5,1.5,0,0,1,0,1.25,3.67,3.67,0,0,1-.63.93l-.63.62h-1.25l-2.81-1.27-3.75.91-1,1.25a4.33,4.33,0,0,1-1.26.61,8.09,8.09,0,0,0-1.56.62H-77c-.31,0-.94.62-.94.62a11.94,11.94,0,0,1,.3,1.57c0,.31-1.25,0-1.25,0s-2.19.92-2.82,1.23a18.61,18.61,0,0,0-.33,2.19c0,.62.31.94,0,1.25s-.32.94-.64,1.87.29,2.82.29,3.45.62.94,0,.93-3.44-.33-4.07.29-3.13.61-4.38.6-1,1.87-1,1.87l2.49,1.58,103.51,5.05a9.05,9.05,0,0,0,1-5,48.6,48.6,0,0,0-.91-5,11,11,0,0,1,.65-3.13A16.13,16.13,0,0,0,16.49,175.49Zm-38.55,11.64c-.32.62-3.13,0-3.44-.34a7.14,7.14,0,0,0-3.12-2.21c-1.87-.64-4.35-3.16-5.6-3.48a22.23,22.23,0,0,0-2.19-.64c-1.56-.32-3.75-.33-2.18-1,0,0,1.57-1.55,2.82-1.23a2.71,2.71,0,0,0,2.51-.92,4.11,4.11,0,0,1,1.26-.93c.62-.31,1.25-.93,1.88-.93s-.63.93-.95,1.56A5.43,5.43,0,0,1-33,178.92c-.63.31-.63.62-.63.94s.62,1.56,1.24,1.57,0-1.25,1.57-1.24a11.12,11.12,0,0,1,2.5.33c.32,0,.94,0,.94.63s.62.94,0,1.25a1.1,1.1,0,0,0-.63.93s.93.63,1.56.95.62.94,1.24,1.26.63,0,.94.32S-21.75,186.5-22.06,187.13Zm5.94-.59c-.93-.32-.3-.63-1.55-.95s-.94-.63-2.19-1-.94,0-1.87-.64-2.17-3.14-2.79-3.15-.63-.63-.94-.63.61,2.82,1.54,3.14,3.12,2.52,3.74,3.15,1.24,1,.93,1.26-3.75-1.59-4.05-2.22a11,11,0,0,0-1.87-1.89c-.62-.63-.61-1.88-1.23-2.51a1.73,1.73,0,0,1-.62-1.56c0-.63.95-1.25,1.27-2.5s2.52-3.42,3.77-3.41a5.35,5.35,0,0,1-.64,2.49c-.63.94-.94.94-.95,1.87s-.32,1.88.3,2.51,1.56.95,2.18,1.58,1.55,1.57,2.18,1.57a3.16,3.16,0,0,1,2.49,1c.94.94,2.18,1.58,2.8,2.52S-15.18,186.86-16.12,186.54Z" style="fill:#86ac98"/><path d="M21.15,155.34s-.94.94-.64,1.88a2.56,2.56,0,0,1-.32,2.18c-.32.63-1.58,1.87-1.27,2.5s-1.26,1.24-1,1.87-3.12-1.27-4.37-1.59a9.76,9.76,0,0,1-1.87-.64s.62.94-.63.93-.94-.94-2.18-1.26-2.5-1-3.13-.65-.32,1.25-1.57,1.24-1.25,0-3.12-1.27-2.49-2.2-4.05-2.53-2.81-.95-2.8-1.89-.63,0,.63-1.25,2.5,0,3.76-1.23-.3-2.19,1.58-2.49a16.71,16.71,0,0,1,5.63,0c.94.32,2,2,4.21,2.68s2.81,0,3.75.34a13.33,13.33,0,0,1,2.18.64,4.85,4.85,0,0,0,2.82.33C19.43,155.18,21.15,155.34,21.15,155.34Z" style="fill:#86ac98"/><path d="M25.43,160.3A25.72,25.72,0,0,0,27,163.44c.93,1.57,3.12,2.21,4.67,3.47s3.73,5,5.28,6.29,0,.94-.33,2.5,0,1.25.3,1.88a46.26,46.26,0,0,0,6.84,6.3c1.25.63.62.63,4.67,3.16a13,13,0,0,1,5.28,6.29l21.74.29L111.09,191s2.2-.92,2.52-1.86-1.23-2.82-1.23-2.82l1.59-5s-2.17-1.89-3.11-2.52.33-3.13.35-5-1.87-1.89-3.12-2.53-.92-2.19.35-4.69a6,6,0,0,0,0-5s-1.58,2.18-1.89,2.8-2.83,1.86-6.91,3.71-2.83,2.17-3.77,2.79.88,8.77-1.27,2.18-.92-3.13-1.84-4.7.32-1.56.33-3.75a16.9,16.9,0,0,0-1.21-6.27c-.61-1.25,1-3.43,1.28-4.37s1-5.31,2.24-7.18,3.47-4.67,5.66-5.28,1.27-2.18,1.9-3.74a25.71,25.71,0,0,1,2.85-4.67c.31-.31.33-3.13.34-4.38s1.9-4,3.17-5.61.32-1.25,1-2.49,3.15-3.11,3.15-3.11,3.74,1.27,5.29,3.16.63.63,1.25,1,.3,1.88.92,3.44a7.4,7.4,0,0,1,.6,3.45l0,5c0,1.57.6,4.07.59,5a27,27,0,0,0,1.21,6.58c.92,3.13,1.54,3.14,1.53,4.39s1.86,2.82,2.15,6.89,2.15,5.65,2.15,5.65.93,2.19,1.55,2.2,2.18,2.2,2.48,3.45,1.24,1.89,3.1,4.72,0,0,.93,1.25a14.25,14.25,0,0,1,1.86,2.83c1.23,2.2-.64,2.18-.64,2.18l3.39,7.85-.66,5s2.81.64,4.07,0,1.87,0,1.87,0a13.32,13.32,0,0,0,2.81.64,1.44,1.44,0,0,0,1.57-.93c.32-.62,0-1.88.34-4.06a6.49,6.49,0,0,0-.91-4.08,27.86,27.86,0,0,1,2.81,1c.62.32,3.74,1.59,3.74,1.59a38.56,38.56,0,0,1,0,6.26c-.32,2.18,2.19.32,2.51,0s1.25-.3,1.88-1.24,0-1.56,0-2.5,1.88-.61,2.19-.92a4.88,4.88,0,0,0,1.27-3.12c0-1.57,1.59-3.12,2.53-3.74s2.2-1.55,2.2-1.55l1-2.5a7.92,7.92,0,0,1,1-2.18c.63-.93,1.89-1.86,1.89-3.12a23.48,23.48,0,0,0-.29-2.81c0-.32-2.81-1-3.44-1s-2.18-.33-2.81-.33-2.19-.33-2.81-.34a41.26,41.26,0,0,0-4.7,1.54,33,33,0,0,0-2.53,3.42c-.95,1.56-.33,2.19.28,4.7s-.32,1.87-1.58,2.8a3.12,3.12,0,0,1-2.81.3s-4.38-1.28-5-2.23,0-4.06,0-5-4.7.59-4.7.59-1.23-2.82-.91-4.38-.92-2.82-1.23-3.76-2.8-2.21-3.41-4.09-2.8-1.58-3.42-3.46,1-2.81,1.59-3.75,1.28-3.74,1.6-5.62,1.9-3.74,2.23-5.61-.6-4.7-1.21-6.58-2.48-3.14-2.49-2.21.31.95.61,3.14a16.5,16.5,0,0,1,.28,3.75c0,1.88-1.59,4.06-1.29,6.25s-4.11,6.54-4.11,6.54-2.5-.33-3.43-1.27,0-2.5-.92-3.14-2.76-8.46-3-14.4-.62-1.88-.62-1.88-1.21-6-1.5-9.71,0-2.5,1-6.56-.29-2.51-.28-4.07.65-4.06.66-5.63-1.86-2.51-4.06-1.59a19.52,19.52,0,0,1-5,1.53c-.63,0-1.58,1.56-1.58,2.81s2.17,2.83.6,4.07-3.76-.34-5.64.28-1.27,3.11-1.59,5,0,1.25,0,3.13a7,7,0,0,1-1.59,3.74l-1.57,1.24a2.3,2.3,0,0,1-.95.93c-.62.31-1,3.13-1,3.13s-.65,4.06-1.6,5.62-1.56-.33-2.81,0-.32.93-1.9,2.8-2.21,3.11-3.15,4.05-1.58,2.49-3.47,4.35-.32.94-.65,3.75-.63,1.25-1.9,4.37,0,0,0,2.81a49.2,49.2,0,0,1-1.31,8.44c-.32,1.56,0,.94.93,2.2a7.68,7.68,0,0,1,.91,3.76,9.08,9.08,0,0,1-2.83,2.79,3.81,3.81,0,0,0-1.56,1.91,3.53,3.53,0,0,0-.33-1A27.16,27.16,0,0,1,80.24,173a19.93,19.93,0,0,1,0-4.38c.32-.93-.3-.94-.92-2.19s-.29-3.76-1.86-3.46,0,.94-.32,2.19-.34,3.44-.66,5,.61,2.19.6,3.45a32.58,32.58,0,0,1-.34,5.31c-.33,1.56-4.74,6.23-4.74,6.23a12.58,12.58,0,0,1-.61-1.57,8.34,8.34,0,0,1,0-2.82c0-.93-1.87-1.89-3.43-2.83s-1.24-1.89-1.24-1.89a15.51,15.51,0,0,0-.29-3.13c-.3-1.25,1.28-3.74,1.59-4.37s-1.55-1.57-3.43-1-1.28,4.37-2.22,5.31a9.16,9.16,0,0,1-3.14,1.54l-1.56-1.26a8.3,8.3,0,0,1,.33-2.19c.32-.94-.3-1.57-.62-1.57s-.92-1.57-.92-1.57L55,166l-3.46,3.1-4.37-.34-1.55-3.45-2.48-2.52,4.1-5.29L51,154.05l.95-1.55L55.05,151l1.88-.92,4.4-2.17,2.82-1.23,1.26-1.24.64-1.87s1.57-1.25,2.2-1.87a3.85,3.85,0,0,1,2.19-.61l3.15-2.79s3.78-4,5.34-4.35.63.63,1.25.95,0,3.75,0,3.75l1.27-1.55c1.26-1.56,0-2.51,0-2.51s-.6-3.44-.91-4.38,0-5.32,1-6.56,1.88-.62,2.83-1.86,2.21-3.74,3.78-4.36,1.57-.92,2.81,1,0,.63-.65,3.44-2.2,2.48-2.53,4.36,0,2.19-.65,4.37-.65,4.07-.68,7.82.59,6.57,2.15,6.27,1.58-1.87,1.59-3.43.95-2.18,1.28-4.06,1.28-5.62,1.91-6.24.33-2.82.65-3.75a64.12,64.12,0,0,1,2.54-5.93c1-1.87,1.89-.92,2.83-1.54s.32-.94.32-1.57,1.89-2.17,2.84-3.42.63-1.56.64-2.5a3.94,3.94,0,0,1,1.89-2.49c.63-.31.64-2.49.64-2.49a6.4,6.4,0,0,1,1.6-4.06c1.57-1.55,2.86-7.8,2.86-7.8s.33-1.88,0-2.19.64-2.5,1.26-2.18.31.62.93,1.88a4.51,4.51,0,0,1,.28,4.07c-.63,1.87.61,2.19.61,3.44s1.55,1.58,1.55,1.58l1.55,2.2s1.57-.31,1.57-1.56,1.28-4.37,1.3-6.25.63-.93,1-1.87a7.46,7.46,0,0,0,.64-2.81c0-1.25,0-.62-.62-1.56s.33-2.19,0-2.82-.94,0-1.87-.64-1.24-.94-1.87-1h-2.19c-.37,0-.62-.88-.77-1.6a2.58,2.58,0,0,1-.79.34c-.75.24-.3.3-.73.46l.1,1.1-2.82,0c-1.25,0-1.25.62-2.19,1.24s-.94-.32,0-1.26a3.21,3.21,0,0,0,.8-1.59,3.53,3.53,0,0,0-1.72-.29l-2.5,0a2.53,2.53,0,0,1-1-.26,5.94,5.94,0,0,0-.23,2.76c0,1.25-1,1.87-1.58,1.55s-.3-1.25-.29-2.19S99.9,84.3,99.9,84a16.39,16.39,0,0,0-.5-1.57h-.11A4.35,4.35,0,0,0,96.77,84c-.31.62-1.88,1.24-2.83,2.17A13.66,13.66,0,0,0,92.37,88S81.05,96.69,76,98.22a7.07,7.07,0,0,1-3.45.3,3.31,3.31,0,0,0-1.87,0H68.84a17.52,17.52,0,0,1-5.66,5.28c-1.24.66-4.71,1.85-6,2.78s-1.27,2.81-3.16,3.73a34.53,34.53,0,0,0-4.38,2.85,36.25,36.25,0,0,1,2.47,2.77c.62.94.93,1.26,2.17,2.83s.94.63,2.5,1.27,2.5.33,2.17,1.57-3.16,5-3.16,5a2.86,2.86,0,0,1,3,1.11c.93,1.57,0,1.25.92,2.51s-.95,1.56-1.58,3.12-1,3.43-2.22,4.68-2.84,2.79-6.62,7.15-1.88.3-4.71,2.78a54.29,54.29,0,0,1-5.66,4.34C36.42,154.12,25.43,160.3,25.43,160.3Z" style="fill:#86ac98"/><path d="M-3.68,139.62c1.88,0,2.2-1.23,3.45-1.23s1.24.64,3.43,1,5-1.54,7.21-1.52,2.81.64,4.37.34,1.28-4.37,4.1-5,4.7-.28,5.63.35,2.19-.61,2.83-1.86S28,121.06,29,119.19s-.28-4.38,0-5.94-.6-3.76,1.28-4.06,2.5,0,2.81.64l.31.63s.95-1.56,1.26-2.18c.21-.4.16-1.44.75-2.21l-.11,0c-2.5.61-3.45,1.55-4.7,1.85a8.21,8.21,0,0,0-2.51,1.24s-3.13,0-4.7,1.53a2.86,2.86,0,0,0-3.45.91,48,48,0,0,1-8.8,6.52c-1.58.91-4.08,2.16-5.66,4.65C4.79,123.91-6.78,134.91-20,142.33a16,16,0,0,0,5.29,3.17c2.5.64.31,1.25,3.44,1s.32-1.88,2.21-3.74S-5.56,139.61-3.68,139.62Z" style="fill:#91b19b"/><path d="M145.57,107.59c-.61-1.88-.61-1.26-.61-2.19s.64-1.56-.61-2.2-.62-.63-1.87-1.26-.3-.94-1.24-.63.3,1.25-1,.93-1.25-.32-1.25-.64.32-.31.32-1.24.63-.31,0-1.57a10.24,10.24,0,0,1-.93-1.88c-.31-.94-1.55-2.51-1.85-4.71s.63-.62-.29-2.5-.61-2.51-.92-2.82-.95.62-.94-.95a4.5,4.5,0,0,0-.8-2.16c-.65.57-1.49,1.37-2.16,1.36-.94,0-.62-1.88-1.56-1.57l-.94.31-.62.31a5.19,5.19,0,0,0-1.88-1,5.66,5.66,0,0,1-2.18-.64c-.62-.31,0-.93-1.56-.63a8.82,8.82,0,0,0-3.69,1.47,3.66,3.66,0,0,1,.7,1.48c0,.94,1.25.63,2.48,2.83a29.4,29.4,0,0,0,1.88,3.21c-.61-.13-1.15-.2-1.27-.08-.32.32.3,1.57,0,2.19a9,9,0,0,0-.33,3.13v1.88c0,1.25-.95.93,0,1.87a8.15,8.15,0,0,0,1.86,1.58c.94.63-.91-3.45-.29-3.76a1.27,1.27,0,0,1,1.88.64,17.16,17.16,0,0,0,1.22,3.76c.62.95.31,1.26.93,1.26s1.57-.62,1.56.64,1.55,2.2,1.55,2.2a1.37,1.37,0,0,1-.3-.94c0-.63.33-2.51-.3-3.13s0-.94-.29-2.2-.62-.94-.62-1.88c0-.62-.05-1.59-.08-2.16.64.74,1.14,1.35,1.34,1.55.62.63,1.25.63,2.17,2.2s1.56,1,1.87,1.89-.64,1.56.29,3.44.92,2.51,1.86,2.83.94,0,1.24.63a18.49,18.49,0,0,0,2.49,2.52,4.8,4.8,0,0,1-.92-2.2c0-.93.63-.62,0-1.56s-1.56-1.57-1.55-2.2.32-.94.63-1.56.63-.93.94-.31a4.07,4.07,0,0,0,1.55,2.2c1.25.95,1.87.95,2.18,1.9a7.41,7.41,0,0,0,1.86,2.82c.93,1,1.86,1.58,2.18,1.89S146.19,109.47,145.57,107.59Z" style="fill:#86ac98"/><path d="M168.35,189.22a13.53,13.53,0,0,1,5.32-1.22c2.82,0,5.32,1,6.57.05s1.26-.62,2.83-1.86-.61-2.19,4.08-2.16,7.82-.27,8.76-.89,2.82-.29,3.15-2.17,2.19-1.23.64-3.43-.6-2.82-2.17-3.14-1.23-2.83-4.35-4.41-2.18-1.58-4.36-2.84-1.55-1.58-3.42-3.15-10.89-8.21-15.56-12.62-6.84-5.67-10-9.13-3.74-.65-5.27-6.29-1.84-5.33-4.63-10.67-5.28-4.72-5.57-7.85-1.54-3.77.33-3.13,3.1,3.46,4,4.09,1.55,2.51,2.8,2.52-.64,2.5,3.72,4.09,1.87,2.2,3.42,4.4,4.66,4.1,5.91,5.36a41.51,41.51,0,0,0,7.47,4.74,78.1,78.1,0,0,1,10.59,7.58c2.8,2.52,8.72,5.37,11.22,6.33s6.86,3.17,12.16,5.08,0-.94-3.42-2.84-1.23-2.82-4-3.47-10-5.38-11.84-7.27-3.41-4.4-5.9-6.6-2.18-1.89-3.73-4.72-2.15-4.71-.28-4.07,1.84,4.71,3.72,5.66,7.47,5.05,9,5.37a5.88,5.88,0,0,1,4,2.53,24.47,24.47,0,0,0,8.1,5.68c3.43,1.59,7.16,5.06,10.91,6s2.49.64,5.61,2.22,8.12,2.87,9.67,3.82,5.94,1.29,6.55,2.86,15,5.1,15,5.1l.45,26.28s-11.77-18.53-15.83-18.87-5-1.29-10.3-2.88-9.68-3.82-11.55-4.46-4.69-.34-7.8-3.49-14-8.54-14.95-9.17,7.16,4.74,9,6.94a24.22,24.22,0,0,0,8.09,5.37c1.88.64,6.54,4.74,10,5.38s3.75,0,7.49,3.18,7.48,4.12,10,6.32,5.29,5.35,4.66,6-14-7.28-18.4-8.87-3.43-1.28-7.8-2.87-8.41-5.68-11.22-6.64,2.8,3.15,5.28,6.29,4,2.53,4.34,5.35-1.89,2.8-1,5.93,2,6.74-1.15,7.35-20.48-.92-25.17-.64-11.9,2.12-15,.22S168.35,189.22,168.35,189.22Z" style="fill:#86ac98"/><rect x="112.64" y="56.65" width="1.69" height="29.11" rx="0.75" transform="translate(0.46 -0.73) rotate(0.37)" style="fill:#165488"/><path d="M137.3,69.75c-4.39-5-6.75-3.58-11.52-.07s-7.14,4.95-11.51-.08l.08-12.76c4.37,5,6.78,3.57,11.52.07s7.13-5,11.51.08Z" style="fill:#ef1e32"/><path d="M366.08,188.9s-108.73-1.47-134.67-2.4-46.91-2.59-56.07-1.13-55.32-1.12-68.3.33-4.57-1.94-43.87-2.2-67.92,1.85-82,1-38.17,2.8-50,2.73-59.91.37-71,.3l-14.88-.1-6.27,143,531.88-1.9Z" style="fill:#355151"/><rect x="161.6" y="153.88" width="11.09" height="11.09" rx="1.7" transform="translate(1.04 -1.08) rotate(0.37)" style="fill:#283c3f"/><path d="M164.77,159.05c.08-.12.16-.24.23-.36a3.38,3.38,0,0,1,.93-1.06,1.85,1.85,0,0,1,1.63-.37.55.55,0,0,1,.26.14,2.9,2.9,0,0,1,.34.36,3.87,3.87,0,0,0,1.14,1.07.51.51,0,0,1,.22.34.37.37,0,0,1-.17.33.49.49,0,0,1-.41,0c-.39-.26-.76-.55-1.14-.84-.07.27-.11.59-.21.89a.67.67,0,0,0,.26.87,2.21,2.21,0,0,1,.81,1.41c.06.38.17.74.25,1.12a.46.46,0,0,1-.33.59.47.47,0,0,1-.58-.38c-.09-.39-.19-.77-.27-1.16a1.51,1.51,0,0,0-.5-.88,2.6,2.6,0,0,1-.33-.4l-.07.05a.94.94,0,0,1,0,.16,7.32,7.32,0,0,1-.29.94c-.19.45-.41.88-.62,1.31s-.4.43-.66.31-.34-.4-.18-.72.27-.61.43-.9a4,4,0,0,0,.45-1.39c.08-.67.19-1.34.29-2l-.06,0c-.13.17-.27.33-.39.5a2.23,2.23,0,0,0-.2.33c-.23.41-.53.42-.79,0Z" style="fill:#fff"/><path d="M167.48,155.3a.88.88,0,0,1,.69.86.84.84,0,0,1-.74.85.86.86,0,0,1-.48-1.62l.19-.09Z" style="fill:#fff"/><path d="M150.34,133.37c10.34,4,22.91,11.65,27.21,19.81s3.33,14.58,11.14,19.82a30.48,30.48,0,0,1,10.74,12.58" style="fill:none;stroke:#165488;stroke-miterlimit:10;stroke-width:2.0021048472903002px"/><path d="M148.29,132.78l-1.41-.29" style="fill:none;stroke:#283c3f;stroke-miterlimit:10;stroke-width:2.002033821526041px"/><path d="M143.92,131.92c-7.1-1.37-20.63-3.84-23.24-3.37-2.37.44-7.62-1.14-10.87-2.25" style="fill:none;stroke:#283c3f;stroke-miterlimit:10;stroke-width:2.002033821526041px;stroke-dasharray:3.015625,3.015625"/><path d="M108.39,125.8l-1.35-.49" style="fill:none;stroke:#283c3f;stroke-miterlimit:10;stroke-width:2.002033821526041px"/><path d="M112.76,85s-2.68,9.42-4.63,12.34-5.85,16.57-5.85,19.17,3.25,6.49,3.25,6.49" style="fill:none;stroke:#165488;stroke-miterlimit:10;stroke-width:2.0021048472903002px"/></g><circle cx="52.16" cy="42.92" r="29.33" style="fill:#f7956f"/></svg>