<svg xmlns="http://www.w3.org/2000/svg" xmlns:xlink="http://www.w3.org/1999/xlink" width="400.72" height="200" viewBox="0 0 400.72 200"><defs><clipPath id="a"><rect x="525.61" y="64.65" width="107.17" height="102.05" rx="7.2" transform="translate(641.16 -471.7) rotate(84.73)" style="fill:none"/></clipPath><clipPath id="b"><rect x="524.87" y="60.24" width="112" height="110.88" transform="translate(642.69 -473.36) rotate(84.73)" style="fill:none"/></clipPath><clipPath id="c"><rect x="0.58" y="-2.23" width="400" height="201" style="fill:none"/></clipPath><pattern id="d" width="72" height="72" patternTransform="translate(302.03 221.73) scale(0.31)" patternUnits="userSpaceOnUse" viewBox="0 0 72 72"><rect width="72" height="72" style="fill:none"/><line x1="54" y1="71.75" x2="54" y2="144.25" style="fill:none;stroke:#1d1d1b;stroke-width:6px"/><line x1="18" y1="71.75" x2="18" y2="144.25" style="fill:none;stroke:#1d1d1b;stroke-width:6px"/><line x1="62" y1="71.75" x2="62" y2="144.25" style="fill:none;stroke:#1d1d1b;stroke-width:2px"/><line x1="26" y1="71.75" x2="26" y2="144.25" style="fill:none;stroke:#1d1d1b;stroke-width:2px"/><line x1="71.75" y1="18" x2="144.25" y2="18" style="fill:none;stroke:#1d1d1b;stroke-width:6px"/><line x1="71.75" y1="54" x2="144.25" y2="54" style="fill:none;stroke:#1d1d1b;stroke-width:6px"/><line x1="-0.25" y1="18" x2="72.25" y2="18" style="fill:none;stroke:#1d1d1b;stroke-width:6px"/><line x1="54" y1="-0.25" x2="54" y2="72.25" style="fill:none;stroke:#1d1d1b;stroke-width:6px"/><line x1="-0.25" y1="54" x2="72.25" y2="54" style="fill:none;stroke:#1d1d1b;stroke-width:6px"/><line x1="18" y1="-0.25" x2="18" y2="72.25" style="fill:none;stroke:#1d1d1b;stroke-width:6px"/><line x1="62" y1="-0.25" x2="62" y2="72.25" style="fill:none;stroke:#1d1d1b;stroke-width:2px"/><line x1="26" y1="-0.25" x2="26" y2="72.25" style="fill:none;stroke:#1d1d1b;stroke-width:2px"/><line x1="73.25" y1="26" x2="0.75" y2="26" style="fill:none;stroke:#1d1d1b;stroke-width:2px"/><line x1="73.25" y1="62" x2="0.75" y2="62" style="fill:none;stroke:#1d1d1b;stroke-width:2px"/><line x1="-72.25" y1="18" x2="0.25" y2="18" style="fill:none;stroke:#1d1d1b;stroke-width:6px"/><line x1="-72.25" y1="54" x2="0.25" y2="54" style="fill:none;stroke:#1d1d1b;stroke-width:6px"/><line x1="1.25" y1="26" x2="-71.25" y2="26" style="fill:none;stroke:#1d1d1b;stroke-width:2px"/><line x1="1.25" y1="62" x2="-71.25" y2="62" style="fill:none;stroke:#1d1d1b;stroke-width:2px"/><line x1="54" y1="-72.25" x2="54" y2="0.25" style="fill:none;stroke:#1d1d1b;stroke-width:6px"/><line x1="18" y1="-72.25" x2="18" y2="0.25" style="fill:none;stroke:#1d1d1b;stroke-width:6px"/><line x1="62" y1="-72.25" x2="62" y2="0.25" style="fill:none;stroke:#1d1d1b;stroke-width:2px"/><line x1="26" y1="-72.25" x2="26" y2="0.25" style="fill:none;stroke:#1d1d1b;stroke-width:2px"/></pattern><pattern id="e" width="65.25" height="65.25" patternTransform="translate(501.59 214.93) scale(0.85)" patternUnits="userSpaceOnUse" viewBox="0 0 65.25 65.25"><rect width="65.25" height="65.25" style="fill:none"/><line x1="67.55" y1="61.59" x2="62.02" y2="65.89" style="fill:none;stroke:#fff;stroke-linecap:square"/><line x1="70" y1="64.75" x2="64.47" y2="69.05" style="fill:none;stroke:#fff;stroke-linecap:square"/><line x1="47.19" y1="62.53" x2="43.5" y2="68" style="fill:none;stroke:#fff;stroke-linecap:square"/><line x1="49.93" y1="65.44" x2="44.83" y2="70.23" style="fill:none;stroke:#fff;stroke-linecap:square"/><line x1="53.13" y1="64.47" x2="55.5" y2="70.25" style="fill:none;stroke:#fff;stroke-linecap:square"/><line x1="56.25" y1="63.25" x2="59" y2="70" style="fill:none;stroke:#fff;stroke-linecap:square"/><line x1="28" y1="63.75" x2="22.31" y2="68.13" style="fill:none;stroke:#fff;stroke-linecap:square"/><line x1="32" y1="64.75" x2="25.3" y2="70.79" style="fill:none;stroke:#fff;stroke-linecap:square"/><line x1="9.25" y1="64.5" x2="9" y2="66" style="fill:none;stroke:#fff;stroke-linecap:square"/><line x1="14.22" y1="62.67" x2="18.5" y2="68.5" style="fill:none;stroke:#fff;stroke-linecap:square"/><line x1="17.05" y1="59.84" x2="21.33" y2="65.67" style="fill:none;stroke:#fff;stroke-linecap:square"/><line x1="38.75" y1="62.75" x2="39.25" y2="69.25" style="fill:none;stroke:#fff;stroke-linecap:square"/><line x1="36" y1="62" x2="34.5" y2="68.75" style="fill:none;stroke:#fff;stroke-linecap:square"/><line x1="2.3" y1="61.59" x2="-3.23" y2="65.89" style="fill:none;stroke:#fff;stroke-linecap:square"/><line x1="4.75" y1="64.75" x2="-0.78" y2="69.05" style="fill:none;stroke:#fff;stroke-linecap:square"/><line x1="65.82" y1="6.97" x2="72" y2="10.25" style="fill:none;stroke:#fff;stroke-linecap:square"/><line x1="22.49" y1="23.04" x2="19.25" y2="29.25" style="fill:none;stroke:#fff;stroke-linecap:square"/><line x1="36.42" y1="43.45" x2="44" y2="45.5" style="fill:none;stroke:#fff;stroke-linecap:square"/><line x1="37.5" y1="40.5" x2="45.25" y2="41.75" style="fill:none;stroke:#fff;stroke-linecap:square"/><line x1="30" y1="60.75" x2="32.75" y2="55.5" style="fill:none;stroke:#fff;stroke-linecap:square"/><line x1="26.5" y1="60.25" x2="29.52" y2="54.46" style="fill:none;stroke:#fff;stroke-linecap:square"/><line x1="46" y1="55.5" x2="41.25" y2="59" style="fill:none;stroke:#fff;stroke-linecap:square"/><line x1="47.25" y1="58" x2="43.5" y2="62" style="fill:none;stroke:#fff;stroke-linecap:square"/><line x1="49.88" y1="46.3" x2="50.78" y2="53.25" style="fill:none;stroke:#fff;stroke-linecap:square"/><line x1="45.98" y1="47.21" x2="47.53" y2="53.75" style="fill:none;stroke:#fff;stroke-linecap:square"/><line x1="14.22" y1="62.67" x2="18.5" y2="68.5" style="fill:none;stroke:#fff;stroke-linecap:square"/><line x1="17.05" y1="59.84" x2="21.33" y2="65.67" style="fill:none;stroke:#fff;stroke-linecap:square"/><line x1="20.53" y1="48.64" x2="23.96" y2="54.74" style="fill:none;stroke:#fff;stroke-linecap:square"/><line x1="24.23" y1="47.13" x2="26.88" y2="53.61" style="fill:none;stroke:#fff;stroke-linecap:square"/><line x1="33" y1="44.5" x2="27.75" y2="47.5" style="fill:none;stroke:#fff;stroke-linecap:square"/><line x1="35.5" y1="47.75" x2="29.75" y2="49.75" style="fill:none;stroke:#fff;stroke-linecap:square"/><line x1="47.19" y1="62.53" x2="43.5" y2="68" style="fill:none;stroke:#fff;stroke-linecap:square"/><line x1="49.93" y1="65.44" x2="44.83" y2="70.23" style="fill:none;stroke:#fff;stroke-linecap:square"/><line x1="53.13" y1="64.47" x2="55.5" y2="70.25" style="fill:none;stroke:#fff;stroke-linecap:square"/><line x1="28" y1="63.75" x2="22.31" y2="68.13" style="fill:none;stroke:#fff;stroke-linecap:square"/><line x1="32" y1="64.75" x2="25.3" y2="70.79" style="fill:none;stroke:#fff;stroke-linecap:square"/><line x1="21.5" y1="58.25" x2="22" y2="59.5" style="fill:none;stroke:#fff;stroke-linecap:square"/><line x1="37.75" y1="60.25" x2="38.75" y2="61.25" style="fill:none;stroke:#fff;stroke-linecap:square"/><line x1="38.75" y1="62.75" x2="39.25" y2="69.25" style="fill:none;stroke:#fff;stroke-linecap:square"/><line x1="36" y1="62" x2="34.5" y2="68.75" style="fill:none;stroke:#fff;stroke-linecap:square"/><line x1="53.28" y1="50" x2="54.53" y2="49.5" style="fill:none;stroke:#fff;stroke-linecap:square"/><line x1="32.5" y1="50.5" x2="32.75" y2="52" style="fill:none;stroke:#fff;stroke-linecap:square"/><line x1="50.5" y1="62" x2="51.75" y2="62" style="fill:none;stroke:#fff;stroke-linecap:square"/><line x1="33.75" y1="60" x2="32.75" y2="61.75" style="fill:none;stroke:#fff;stroke-linecap:square"/><line x1="38" y1="47.25" x2="39.25" y2="46.75" style="fill:none;stroke:#fff;stroke-linecap:square"/><line x1="40.24" y1="55.47" x2="35.81" y2="52.75" style="fill:none;stroke:#fff;stroke-linecap:square"/><line x1="42.97" y1="53.07" x2="36.62" y2="50.14" style="fill:none;stroke:#fff;stroke-linecap:square"/><line x1="35.5" y1="55.75" x2="36.75" y2="56" style="fill:none;stroke:#fff;stroke-linecap:square"/><line x1="42.28" y1="49" x2="43.53" y2="49.25" style="fill:none;stroke:#fff;stroke-linecap:square"/><line x1="18.63" y1="54.25" x2="20.25" y2="53.75" style="fill:none;stroke:#fff;stroke-linecap:square"/><line x1="26.99" y1="8.45" x2="27.13" y2="15.45" style="fill:none;stroke:#fff;stroke-linecap:square"/><line x1="30.99" y1="8.38" x2="30.25" y2="15" style="fill:none;stroke:#fff;stroke-linecap:square"/><line x1="43.64" y1="27.73" x2="50.13" y2="30.38" style="fill:none;stroke:#fff;stroke-linecap:square"/><line x1="45.15" y1="24.03" x2="51.63" y2="26.67" style="fill:none;stroke:#fff;stroke-linecap:square"/><line x1="27.12" y1="23.58" x2="31.89" y2="19.94" style="fill:none;stroke:#fff;stroke-linecap:square"/><line x1="24.09" y1="21.57" x2="30" y2="17.82" style="fill:none;stroke:#fff;stroke-linecap:square"/><line x1="18.5" y1="41.38" x2="11.72" y2="43.13" style="fill:none;stroke:#fff;stroke-linecap:square"/><line x1="19.25" y1="45" x2="12.47" y2="46.76" style="fill:none;stroke:#fff;stroke-linecap:square"/><line x1="19.69" y1="21.19" x2="16.45" y2="27.4" style="fill:none;stroke:#fff;stroke-linecap:square"/><line x1="8.74" y1="9.89" x2="10.07" y2="16.76" style="fill:none;stroke:#fff;stroke-linecap:square"/><line x1="12.66" y1="9.13" x2="14" y2="16" style="fill:none;stroke:#fff;stroke-linecap:square"/><line x1="0.57" y1="6.97" x2="6.75" y2="10.25" style="fill:none;stroke:#fff;stroke-linecap:square"/><line x1="3.5" y1="16.5" x2="2.32" y2="22.49" style="fill:none;stroke:#fff;stroke-linecap:square"/><line x1="7.57" y1="16.38" x2="6.25" y2="23.25" style="fill:none;stroke:#fff;stroke-linecap:square"/><line x1="56.37" y1="44.2" x2="58.78" y2="51.75" style="fill:none;stroke:#fff;stroke-linecap:square"/><line x1="60.53" y1="44.25" x2="61.28" y2="50.75" style="fill:none;stroke:#fff;stroke-linecap:square"/><line x1="53.03" y1="36.46" x2="49.02" y2="42.2" style="fill:none;stroke:#fff;stroke-linecap:square"/><line x1="55.77" y1="37.79" x2="54.03" y2="43.25" style="fill:none;stroke:#fff;stroke-linecap:square"/><line x1="26.95" y1="27.8" x2="27.75" y2="34.75" style="fill:none;stroke:#fff;stroke-linecap:square"/><line x1="29.93" y1="26.99" x2="31.63" y2="33.78" style="fill:none;stroke:#fff;stroke-linecap:square"/><line x1="52.81" y1="4.88" x2="46.46" y2="7.84" style="fill:none;stroke:#fff;stroke-linecap:square"/><line x1="54.25" y1="7.75" x2="48.16" y2="11.46" style="fill:none;stroke:#fff;stroke-linecap:square"/><line x1="17.65" y1="12.48" x2="19.25" y2="19" style="fill:none;stroke:#fff;stroke-linecap:square"/><line x1="19.73" y1="10.2" x2="22.83" y2="16.48" style="fill:none;stroke:#fff;stroke-linecap:square"/><line x1="37.5" y1="14.25" x2="34" y2="20.5" style="fill:none;stroke:#fff;stroke-linecap:square"/><line x1="40.13" y1="15.42" x2="36.19" y2="21.2" style="fill:none;stroke:#fff;stroke-linecap:square"/><line x1="50" y1="15.75" x2="43.75" y2="18.25" style="fill:none;stroke:#fff;stroke-linecap:square"/><line x1="50.5" y1="20.25" x2="44.25" y2="20.5" style="fill:none;stroke:#fff;stroke-linecap:square"/><line x1="56.22" y1="17.42" x2="54.53" y2="23.75" style="fill:none;stroke:#fff;stroke-linecap:square"/><line x1="58.95" y1="19.91" x2="55.47" y2="25.98" style="fill:none;stroke:#fff;stroke-linecap:square"/><line x1="57.14" y1="53.16" x2="50.8" y2="56.13" style="fill:none;stroke:#fff;stroke-linecap:square"/><line x1="58.84" y1="56.78" x2="52.5" y2="59.75" style="fill:none;stroke:#fff;stroke-linecap:square"/><line x1="47.25" y1="37" x2="43" y2="32.25" style="fill:none;stroke:#fff;stroke-linecap:square"/><line x1="44.5" y1="37.75" x2="39.68" y2="33.34" style="fill:none;stroke:#fff;stroke-linecap:square"/><line x1="30.53" y1="39.25" x2="34.5" y2="34.25" style="fill:none;stroke:#fff;stroke-linecap:square"/><line x1="32.93" y1="42.45" x2="37.25" y2="36.5" style="fill:none;stroke:#fff;stroke-linecap:square"/><line x1="22.43" y1="31.52" x2="15.47" y2="30.78" style="fill:none;stroke:#fff;stroke-linecap:square"/><line x1="21.5" y1="34.75" x2="14.66" y2="33.28" style="fill:none;stroke:#fff;stroke-linecap:square"/><line x1="6.75" y1="36.75" x2="12.35" y2="40.95" style="fill:none;stroke:#fff;stroke-linecap:square"/><line x1="9.15" y1="33.55" x2="14.75" y2="37.75" style="fill:none;stroke:#fff;stroke-linecap:square"/><line x1="13.99" y1="49.49" x2="13.42" y2="56.47" style="fill:none;stroke:#fff;stroke-linecap:square"/><line x1="17.75" y1="50" x2="16.81" y2="57.42" style="fill:none;stroke:#fff;stroke-linecap:square"/><line x1="20.17" y1="40.33" x2="25.12" y2="45.28" style="fill:none;stroke:#fff;stroke-linecap:square"/><line x1="23" y1="37.5" x2="27.95" y2="42.45" style="fill:none;stroke:#fff;stroke-linecap:square"/><line x1="8.5" y1="46.25" x2="3.93" y2="50.46" style="fill:none;stroke:#fff;stroke-linecap:square"/><line x1="10.78" y1="48.7" x2="5.25" y2="53" style="fill:none;stroke:#fff;stroke-linecap:square"/><line x1="56.12" y1="14.59" x2="63.1" y2="13.99" style="fill:none;stroke:#fff;stroke-linecap:square"/><line x1="56.25" y1="11.25" x2="62.75" y2="10" style="fill:none;stroke:#fff;stroke-linecap:square"/><line x1="36.25" y1="23.25" x2="37" y2="30.25" style="fill:none;stroke:#fff;stroke-linecap:square"/><line x1="40.25" y1="23.25" x2="39.75" y2="28.75" style="fill:none;stroke:#fff;stroke-linecap:square"/><line x1="11.96" y1="1.11" x2="9.1" y2="6.08" style="fill:none;stroke:#fff;stroke-linecap:square"/><line x1="6.46" y1="32.23" x2="12.21" y2="28.24" style="fill:none;stroke:#fff;stroke-linecap:square"/><line x1="4.18" y1="28.94" x2="9.94" y2="24.95" style="fill:none;stroke:#fff;stroke-linecap:square"/><line x1="4.14" y1="58.23" x2="8.5" y2="62.5" style="fill:none;stroke:#fff;stroke-linecap:square"/><line x1="6.57" y1="56.56" x2="10.5" y2="60" style="fill:none;stroke:#fff;stroke-linecap:square"/><line x1="60.75" y1="22.25" x2="65.07" y2="27.76" style="fill:none;stroke:#fff;stroke-linecap:square"/><line x1="63.4" y1="20.03" x2="67.72" y2="25.54" style="fill:none;stroke:#fff;stroke-linecap:square"/><line x1="58.5" y1="28.63" x2="51.72" y2="30.38" style="fill:none;stroke:#fff;stroke-linecap:square"/><line x1="59.5" y1="32.5" x2="52.72" y2="34.26" style="fill:none;stroke:#fff;stroke-linecap:square"/><line x1="15.75" y1="19.5" x2="8.84" y2="19.07" style="fill:none;stroke:#fff;stroke-linecap:square"/><line x1="16.25" y1="22.25" x2="9.3" y2="23.04" style="fill:none;stroke:#fff;stroke-linecap:square"/><line x1="60.26" y1="55.7" x2="64.19" y2="61.5" style="fill:none;stroke:#fff;stroke-linecap:square"/><line x1="63.57" y1="53.46" x2="67.5" y2="59.25" style="fill:none;stroke:#fff;stroke-linecap:square"/><line x1="63.75" y1="30.75" x2="60.04" y2="35.09" style="fill:none;stroke:#fff;stroke-linecap:square"/><line x1="67.13" y1="31.26" x2="63.44" y2="37.2" style="fill:none;stroke:#fff;stroke-linecap:square"/><line x1="67.55" y1="61.59" x2="62.02" y2="65.89" style="fill:none;stroke:#fff;stroke-linecap:square"/><line x1="56.25" y1="63.25" x2="59" y2="70" style="fill:none;stroke:#fff;stroke-linecap:square"/><line x1="63.94" y1="10.5" x2="70.13" y2="13.78" style="fill:none;stroke:#fff;stroke-linecap:square"/><line x1="16.58" y1="9.47" x2="21" y2="6.75" style="fill:none;stroke:#fff;stroke-linecap:square"/><line x1="13.84" y1="7.07" x2="20.2" y2="4.14" style="fill:none;stroke:#fff;stroke-linecap:square"/><line x1="36.13" y1="8.13" x2="40.88" y2="12.88" style="fill:none;stroke:#fff;stroke-linecap:square"/><line x1="39.27" y1="5.66" x2="43.59" y2="11.17" style="fill:none;stroke:#fff;stroke-linecap:square"/><line x1="67.73" y1="39.48" x2="62.5" y2="42" style="fill:none;stroke:#fff;stroke-linecap:square"/><line x1="70.56" y1="42.08" x2="64.45" y2="45.49" style="fill:none;stroke:#fff;stroke-linecap:square"/><line x1="30" y1="3.75" x2="31.25" y2="4" style="fill:none;stroke:#fff;stroke-linecap:square"/><line x1="29.25" y1="6.75" x2="29" y2="6" style="fill:none;stroke:#fff;stroke-linecap:square"/><line x1="34" y1="12.25" x2="34.75" y2="11.75" style="fill:none;stroke:#fff;stroke-linecap:square"/><line x1="45" y1="10" x2="46.25" y2="10" style="fill:none;stroke:#fff;stroke-linecap:square"/><line x1="51.75" y1="14.5" x2="52.5" y2="15.25" style="fill:none;stroke:#fff;stroke-linecap:square"/><line x1="60.75" y1="18" x2="61.5" y2="17.25" style="fill:none;stroke:#fff;stroke-linecap:square"/><line x1="62.25" y1="5.75" x2="61.75" y2="6.75" style="fill:none;stroke:#fff;stroke-linecap:square"/><line x1="6" y1="13.5" x2="6.75" y2="14" style="fill:none;stroke:#fff;stroke-linecap:square"/><line x1="12.25" y1="30.75" x2="12.25" y2="31.5" style="fill:none;stroke:#fff;stroke-linecap:square"/><line x1="5.5" y1="34.75" x2="4" y2="34.75" style="fill:none;stroke:#fff;stroke-linecap:square"/><line x1="9.75" y1="54.5" x2="10.25" y2="53.25" style="fill:none;stroke:#fff;stroke-linecap:square"/><line x1="18.25" y1="37.75" x2="17.5" y2="36.75" style="fill:none;stroke:#fff;stroke-linecap:square"/><line x1="49.25" y1="34.25" x2="50" y2="33.5" style="fill:none;stroke:#fff;stroke-linecap:square"/><line x1="39.28" y1="37" x2="39.78" y2="38" style="fill:none;stroke:#fff;stroke-linecap:square"/><line x1="25.5" y1="18.75" x2="26.25" y2="18" style="fill:none;stroke:#fff;stroke-linecap:square"/><line x1="23.25" y1="27.75" x2="24.5" y2="28.5" style="fill:none;stroke:#fff;stroke-linecap:square"/><line x1="9.25" y1="64.5" x2="9" y2="66" style="fill:none;stroke:#fff;stroke-linecap:square"/><line x1="38.25" y1="33.75" x2="37.75" y2="32.5" style="fill:none;stroke:#fff;stroke-linecap:square"/><line x1="67.55" y1="-3.66" x2="62.02" y2="0.64" style="fill:none;stroke:#fff;stroke-linecap:square"/><line x1="70" y1="-0.5" x2="64.47" y2="3.8" style="fill:none;stroke:#fff;stroke-linecap:square"/><line x1="47.19" y1="-2.72" x2="43.5" y2="2.75" style="fill:none;stroke:#fff;stroke-linecap:square"/><line x1="49.93" y1="0.19" x2="44.83" y2="4.98" style="fill:none;stroke:#fff;stroke-linecap:square"/><line x1="53.13" y1="-0.78" x2="55.5" y2="5" style="fill:none;stroke:#fff;stroke-linecap:square"/><line x1="56.25" y1="-2" x2="59" y2="4.75" style="fill:none;stroke:#fff;stroke-linecap:square"/><line x1="28" y1="-1.5" x2="22.31" y2="2.88" style="fill:none;stroke:#fff;stroke-linecap:square"/><line x1="32" y1="-0.5" x2="25.3" y2="5.54" style="fill:none;stroke:#fff;stroke-linecap:square"/><line x1="9.25" y1="-0.75" x2="9" y2="0.75" style="fill:none;stroke:#fff;stroke-linecap:square"/><line x1="14.22" y1="-2.58" x2="18.5" y2="3.25" style="fill:none;stroke:#fff;stroke-linecap:square"/><line x1="17.05" y1="-5.41" x2="21.33" y2="0.42" style="fill:none;stroke:#fff;stroke-linecap:square"/><line x1="58.53" y1="59.5" x2="59.03" y2="60.75" style="fill:none;stroke:#fff;stroke-linecap:square"/><line x1="38.75" y1="-2.5" x2="39.25" y2="4" style="fill:none;stroke:#fff;stroke-linecap:square"/><line x1="36" y1="-3.25" x2="34.5" y2="3.5" style="fill:none;stroke:#fff;stroke-linecap:square"/><line x1="45.75" y1="13.75" x2="46.5" y2="14.5" style="fill:none;stroke:#fff;stroke-linecap:square"/><line x1="32.75" y1="25.5" x2="34" y2="25.75" style="fill:none;stroke:#fff;stroke-linecap:square"/><line x1="63.5" y1="51" x2="64.25" y2="50.25" style="fill:none;stroke:#fff;stroke-linecap:square"/><line x1="8.25" y1="1.75" x2="4.85" y2="6.08" style="fill:none;stroke:#fff;stroke-linecap:square"/><line x1="61.5" y1="38.25" x2="62.75" y2="38.5" style="fill:none;stroke:#fff;stroke-linecap:square"/><line x1="23.25" y1="10" x2="24.25" y2="10.75" style="fill:none;stroke:#fff;stroke-linecap:square"/><line x1="36.25" y1="4.5" x2="36.5" y2="5.75" style="fill:none;stroke:#fff;stroke-linecap:square"/><line x1="11" y1="8.5" x2="11.5" y2="7" style="fill:none;stroke:#fff;stroke-linecap:square"/><line x1="3.25" y1="3.75" x2="3.25" y2="3.75" style="fill:none;stroke:#fff;stroke-linecap:round"/><line x1="6.25" y1="7" x2="6.25" y2="7" style="fill:none;stroke:#fff;stroke-linecap:round"/><line x1="13" y1="1.5" x2="13" y2="1.5" style="fill:none;stroke:#fff;stroke-linecap:round"/><line x1="23.25" y1="8.5" x2="23.25" y2="8.5" style="fill:none;stroke:#fff;stroke-linecap:round"/><line x1="17" y1="15.25" x2="17" y2="15.25" style="fill:none;stroke:#fff;stroke-linecap:round"/><line x1="14.5" y1="25" x2="14.5" y2="25" style="fill:none;stroke:#fff;stroke-linecap:round"/><line x1="3.75" y1="24" x2="3.75" y2="24" style="fill:none;stroke:#fff;stroke-linecap:round"/><line x1="20.5" y1="36" x2="20.5" y2="36" style="fill:none;stroke:#fff;stroke-linecap:round"/><line x1="25.75" y1="31.75" x2="25.75" y2="31.75" style="fill:none;stroke:#fff;stroke-linecap:round"/><line x1="33.5" y1="23.25" x2="33.5" y2="23.25" style="fill:none;stroke:#fff;stroke-linecap:round"/><line x1="28" y1="40.25" x2="28" y2="40.25" style="fill:none;stroke:#fff;stroke-linecap:round"/><line x1="32.75" y1="43" x2="32.75" y2="43" style="fill:none;stroke:#fff;stroke-linecap:round"/><line x1="18.75" y1="47.25" x2="18.75" y2="47.25" style="fill:none;stroke:#fff;stroke-linecap:round"/><line x1="42" y1="24.75" x2="42" y2="24.75" style="fill:none;stroke:#fff;stroke-linecap:round"/><line x1="41.75" y1="16.25" x2="41.75" y2="16.25" style="fill:none;stroke:#fff;stroke-linecap:round"/><line x1="58.25" y1="7.5" x2="58.25" y2="7.5" style="fill:none;stroke:#fff;stroke-linecap:round"/><line x1="50.25" y1="4" x2="50.25" y2="4" style="fill:none;stroke:#fff;stroke-linecap:round"/><line x1="61" y1="27.25" x2="61" y2="27.25" style="fill:none;stroke:#fff;stroke-linecap:round"/><line x1="59.5" y1="38.25" x2="59.5" y2="38.25" style="fill:none;stroke:#fff;stroke-linecap:round"/><line x1="54" y1="45" x2="54" y2="45" style="fill:none;stroke:#fff;stroke-linecap:round"/><line x1="57.5" y1="55" x2="57.5" y2="55" style="fill:none;stroke:#fff;stroke-linecap:round"/><line x1="50" y1="59.75" x2="50" y2="59.75" style="fill:none;stroke:#fff;stroke-linecap:round"/><line x1="28.5" y1="61" x2="28.5" y2="61" style="fill:none;stroke:#fff;stroke-linecap:round"/><line x1="39.5" y1="63.5" x2="39.5" y2="63.5" style="fill:none;stroke:#fff;stroke-linecap:round"/><line x1="25.25" y1="15.75" x2="25.25" y2="15.75" style="fill:none;stroke:#fff;stroke-linecap:round"/><line x1="10.75" y1="62.75" x2="10.75" y2="62.75" style="fill:none;stroke:#fff;stroke-linecap:round"/><line x1="0.75" y1="51.5" x2="0.75" y2="51.5" style="fill:none;stroke:#fff;stroke-linecap:round"/><line x1="3.75" y1="44.25" x2="3.75" y2="44.25" style="fill:none;stroke:#fff;stroke-linecap:round"/><line x1="9" y1="40.5" x2="9" y2="40.5" style="fill:none;stroke:#fff;stroke-linecap:round"/><line x1="9.75" y1="44.25" x2="9.75" y2="44.25" style="fill:none;stroke:#fff;stroke-linecap:round"/><line x1="50.75" y1="22.5" x2="50.75" y2="22.5" style="fill:none;stroke:#fff;stroke-linecap:round"/><line x1="48" y1="32.25" x2="48" y2="32.25" style="fill:none;stroke:#fff;stroke-linecap:round"/><line x1="46.25" y1="40.5" x2="46.25" y2="40.5" style="fill:none;stroke:#fff;stroke-linecap:round"/><line x1="27.75" y1="24.75" x2="27.75" y2="24.75" style="fill:none;stroke:#fff;stroke-linecap:round"/><line x1="24.25" y1="55.5" x2="24.25" y2="55.5" style="fill:none;stroke:#fff;stroke-linecap:round"/><line x1="24.25" y1="63.5" x2="24.25" y2="63.5" style="fill:none;stroke:#fff;stroke-linecap:round"/><line x1="18.88" y1="59.5" x2="18.88" y2="59.5" style="fill:none;stroke:#fff;stroke-linecap:round"/><line x1="26.63" y1="37" x2="26.63" y2="37" style="fill:none;stroke:#fff;stroke-linecap:round"/><line x1="61" y1="62" x2="61" y2="62" style="fill:none;stroke:#fff;stroke-linecap:round"/><line x1="4.5" y1="56" x2="4.5" y2="56" style="fill:none;stroke:#fff;stroke-linecap:round"/><line x1="33.75" y1="29.75" x2="33.75" y2="29.75" style="fill:none;stroke:#fff;stroke-linecap:round"/><line x1="33.25" y1="14.75" x2="33.25" y2="14.75" style="fill:none;stroke:#fff;stroke-linecap:round"/><line x1="34.5" y1="8" x2="34.5" y2="8" style="fill:none;stroke:#fff;stroke-linecap:round"/><line x1="49.75" y1="55.75" x2="49.75" y2="55.75" style="fill:none;stroke:#fff;stroke-linecap:round"/><line x1="49" y1="44.75" x2="49" y2="44.75" style="fill:none;stroke:#fff;stroke-linecap:round"/><line x1="62.75" y1="47.25" x2="62.75" y2="47.25" style="fill:none;stroke:#fff;stroke-linecap:round"/><line x1="52.25" y1="17.5" x2="52.25" y2="17.5" style="fill:none;stroke:#fff;stroke-linecap:round"/><line x1="53" y1="19.25" x2="53" y2="19.25" style="fill:none;stroke:#fff;stroke-linecap:round"/><line x1="53.25" y1="10.5" x2="53.25" y2="10.5" style="fill:none;stroke:#fff;stroke-linecap:round"/><line x1="40" y1="19.75" x2="40" y2="19.75" style="fill:none;stroke:#fff;stroke-linecap:round"/><line x1="49" y1="27.25" x2="49" y2="27.25" style="fill:none;stroke:#fff;stroke-linecap:round"/><line x1="59.5" y1="24" x2="59.5" y2="24" style="fill:none;stroke:#fff;stroke-linecap:round"/><line x1="61" y1="31.25" x2="61" y2="31.25" style="fill:none;stroke:#fff;stroke-linecap:round"/><line x1="1" y1="16.25" x2="1" y2="16.25" style="fill:none;stroke:#fff;stroke-linecap:round"/><line x1="-4.5" y1="22.25" x2="-0.18" y2="27.76" style="fill:none;stroke:#fff;stroke-linecap:square"/><line x1="-1.85" y1="20.03" x2="2.47" y2="25.54" style="fill:none;stroke:#fff;stroke-linecap:square"/><line x1="-1.68" y1="53.46" x2="2.25" y2="59.25" style="fill:none;stroke:#fff;stroke-linecap:square"/><line x1="1.88" y1="31.26" x2="-1.81" y2="37.2" style="fill:none;stroke:#fff;stroke-linecap:square"/><line x1="2.3" y1="61.59" x2="-3.23" y2="65.89" style="fill:none;stroke:#fff;stroke-linecap:square"/><line x1="-1.31" y1="10.5" x2="4.88" y2="13.78" style="fill:none;stroke:#fff;stroke-linecap:square"/><line x1="2.48" y1="39.48" x2="-2.75" y2="42" style="fill:none;stroke:#fff;stroke-linecap:square"/><line x1="5.31" y1="42.08" x2="-0.8" y2="45.49" style="fill:none;stroke:#fff;stroke-linecap:square"/><line x1="2.3" y1="-3.66" x2="-3.23" y2="0.64" style="fill:none;stroke:#fff;stroke-linecap:square"/><line x1="4.75" y1="-0.5" x2="-0.78" y2="3.8" style="fill:none;stroke:#fff;stroke-linecap:square"/><line x1="14.22" y1="-2.58" x2="18.5" y2="3.25" style="fill:none;stroke:#fff;stroke-linecap:square"/><line x1="17.05" y1="-5.41" x2="21.33" y2="0.42" style="fill:none;stroke:#fff;stroke-linecap:square"/><line x1="47.19" y1="-2.72" x2="43.5" y2="2.75" style="fill:none;stroke:#fff;stroke-linecap:square"/><line x1="49.93" y1="0.19" x2="44.83" y2="4.98" style="fill:none;stroke:#fff;stroke-linecap:square"/><line x1="53.13" y1="-0.78" x2="55.5" y2="5" style="fill:none;stroke:#fff;stroke-linecap:square"/><line x1="28" y1="-1.5" x2="22.31" y2="2.88" style="fill:none;stroke:#fff;stroke-linecap:square"/><line x1="32" y1="-0.5" x2="25.3" y2="5.54" style="fill:none;stroke:#fff;stroke-linecap:square"/><line x1="38.75" y1="-2.5" x2="39.25" y2="4" style="fill:none;stroke:#fff;stroke-linecap:square"/><line x1="36" y1="-3.25" x2="34.5" y2="3.5" style="fill:none;stroke:#fff;stroke-linecap:square"/><line x1="67.55" y1="-3.66" x2="62.02" y2="0.64" style="fill:none;stroke:#fff;stroke-linecap:square"/><line x1="56.25" y1="-2" x2="59" y2="4.75" style="fill:none;stroke:#fff;stroke-linecap:square"/><line x1="9.25" y1="-0.75" x2="9" y2="0.75" style="fill:none;stroke:#fff;stroke-linecap:square"/><line x1="2.3" y1="-3.66" x2="-3.23" y2="0.64" style="fill:none;stroke:#fff;stroke-linecap:square"/></pattern><pattern id="f" width="74.06" height="72" patternTransform="translate(281.83 196.45) scale(0.25)" patternUnits="userSpaceOnUse" viewBox="0 0 74.06 72"><rect width="74.06" height="72" style="fill:none"/><line x1="24.98" y1="72" x2="24.98" style="fill:none;stroke:#1d1d1b;stroke-width:4px"/><line x1="6.49" y1="72" x2="6.49" style="fill:none;stroke:#1d1d1b;stroke-width:4px"/><line x1="43.47" y1="72" x2="43.47" style="fill:none;stroke:#1d1d1b;stroke-width:4px"/><line x1="61.96" y1="72" x2="61.96" style="fill:none;stroke:#1d1d1b;stroke-width:4px"/><line x1="12.09" y1="72" x2="12.09" style="fill:none;stroke:#1d1d1b"/><line x1="30.58" y1="72" x2="30.58" style="fill:none;stroke:#1d1d1b"/><line x1="49.07" y1="72" x2="49.07" style="fill:none;stroke:#1d1d1b"/><line x1="67.56" y1="72" x2="67.56" style="fill:none;stroke:#1d1d1b"/></pattern><clipPath id="g"><rect x="420.21" y="405.05" width="412.44" height="392.73" rx="27.73" transform="translate(90.61 -81.97) rotate(8.07)" style="fill:none"/></clipPath><clipPath id="h"><rect x="412.43" y="381.8" width="431.04" height="426.71" transform="translate(89.75 -82.24) rotate(8.07)" style="fill:none"/></clipPath><clipPath id="i"><rect x="947.48" y="404.22" width="412.44" height="392.73" rx="27.73" transform="translate(95.71 -155.98) rotate(8.07)" style="fill:none"/></clipPath><clipPath id="j"><rect x="939.7" y="380.97" width="431.04" height="426.71" transform="translate(94.85 -156.25) rotate(8.07)" style="fill:none"/></clipPath></defs><title>s5s20</title><g style="clip-path:url(#a)"><g style="clip-path:url(#b)"><path d="M596.39,394.56s-10.19-119.66-12-148.27-2.25-51.84-4.86-61.75-4.77-60.92-7.76-75,1.63-5.22-2.36-48.44-9.41-74.45-10-90S552.2-70.63,551-83.64s-6.92-65.79-8-78L541.45-178l-157.88,8.64L443.41,415Z" style="fill:#698b87"/></g></g><g style="clip-path:url(#c)"><circle cx="158.93" cy="55.32" r="45.94" style="fill:#f7956f"/><path d="M239.63,28.59c-4-4.49-6.08-3.17-10.32,0s-6.38,4.48-10.33,0V17.15c4,4.48,6.1,3.16,10.33,0s6.36-4.49,10.32,0Z" style="fill:#ef1e32"/><rect x="217.74" y="16.66" width="1.24" height="27.36" rx="0.62" style="fill:#165488"/><path d="M324.34,105.41s-12.19-4.23-13.93-4.72a45.31,45.31,0,0,1-5-2.24c-1.74-.75-1.24-1.49-3-3s-3.48-1.74-4.72-2.73.5.25-5.22-2.74-11.2-4.47-13.43-7.71-8.71-6.46-10.7-9.45-3.48-4.72-5-5.47-2.24-3.23-3-3.23-1.86-.87-2.61-1.12a7.48,7.48,0,0,1-1.49-.75S252.09,60,251.59,59a19.24,19.24,0,0,0-1.74-3.23c-.74-1-3.73-2.74-5.22-4.73s-1.74-1.24-2.73-2.74-1.5-1.24-3.49-3.73-3-3.73-3.48-3.48-1.49,1.49-2.24,1.49-.49-1.49-1.24-1.24l-.75.25-.49.25a4.07,4.07,0,0,0-1.5-.75,4.64,4.64,0,0,1-1.74-.5c-.49-.24,0-.74-1.24-.49a6.66,6.66,0,0,0-3,1.24l-.5.5s-.25-.5-1.49-.5-1.5,0-2,.25a3.66,3.66,0,0,1-1,.5c-.75.25,0,.25-1,.49s-1.74-.24-2.74-.49-.5-.25-1.49-.25h-2a3.27,3.27,0,0,1-1.74-.75,2.68,2.68,0,0,0-1.74-.5,3.41,3.41,0,0,0-2,1.25c-.25.5-1.5,1-2.24,1.74a10.81,10.81,0,0,0-1.24,1.49s-9,7-12.94,8.21a5.61,5.61,0,0,1-2.73.25,2.64,2.64,0,0,0-1.5,0H183a14.07,14.07,0,0,1-4.47,4.23A50.27,50.27,0,0,0,173.75,60c-1,.75-1,2.24-2.49,3a29.29,29.29,0,0,0-3.73,2.49s-6.71-3.49-7.21-4-.75-.5-1.74-1-.25-1.24-2.24-.75-2.73,1.25-3.73,1.5a6.78,6.78,0,0,0-2,1s-2.49,0-3.73,1.25a2.27,2.27,0,0,0-2.74.74,37.66,37.66,0,0,1-7,5.22,12,12,0,0,0-4.48,3.73c-.55.9-9.69,9.7-20.14,15.67-.43.25-.75-.74-1.74-.25a5.23,5.23,0,0,1-3.73.75c-2-.25-.25-1-2.49-.25s-2.24,1.49-4.23,2.49-2,1.24-3.73,1.74-2,0-3.23.25-1,1.24-2,1.74-4.73.5-6.47,2a15.44,15.44,0,0,1-5.22,1.49c-2.24.25-1.74,2-3.48,1.74S74,99.82,73,100.31s-1.75,2-2.49,2.24a16.07,16.07,0,0,1-2.24.5c-1.24.25-1.74-.25-2,.25s.5.74-.5,1-1.24.25-1.49,1,.5.74-.74,1-2.24.25-3.49.5a38.67,38.67,0,0,1-5.72,1c-1.49,0-1.49-.49-2.73,0s-4.48,1-4.73,1.25a13.17,13.17,0,0,1-1.49,1c-.75.5-2.49,3-3,3.24s-3.24-.5-4.23,0-7.71,2.23-7.71,2.23L7.12,119.22l-8,11.68,122.36,1.5,202.94,2.23Z" style="fill:#abc4ab"/><path d="M141.42,117.47a5.28,5.28,0,0,0,0-2c-.25-.74-.75-1-.75-1.74s.5-.49,0-1-1-1.74-1.49-2-.75-1.49-1.24-1.49-1.25-.75-1.25-.75,0-1.49-1-1.49-2-.5-3,.25-2.23,1.74-2.73,2,0,0-1.74.49-8,.5-8.71.5-3,.5-3,0a1,1,0,0,1,1.24-1c.75.25,2.74-.5,3.73-1s1.5-.5,1.74-1,0-1,0-1.25-.49-1-1-.49-1.49,1.49-2,1.49-1,.5-1.49.25,0-1.25,0-1.25l1-1,.75-1a11.34,11.34,0,0,0-2.74.75,8,8,0,0,1-3,.5c-.25,0-1.74-1.25-2.24-1.49s-1.74-1.5-2.24-1.5-1-.74-1-.74l-.75-.5s.5,1.24-.5,1.24-1-.49-1.49-.49a1.51,1.51,0,0,0-1,.24c-.5.25-.75.25-1.25.5s-.74.25-.74.5,0,1,.24,1.24-1.24.25-1.24.25a6.31,6.31,0,0,0-1.74.5c-.25.25-.25.75-1,.75s-2.74.24-2.74.24-.25-.49-1.24,0,.74,1,0,1a9.3,9.3,0,0,0-2.74.25c-.5.25-1.24.25-.75.49s1.5,0,1.25.5-.25,1.49-.5,1.49-.75,0-.25.25a1,1,0,0,1,.5,1c0,.25-.25.5-1,.74a9.15,9.15,0,0,1-2.23.5c-.5,0-1.74.75-3,1s-1.24.49-2.24.49-.25-.74,0-.74a12,12,0,0,0,1.74-.75l1.25-.74,1.24-.5.75-1.25,1.24.25.5-.25-.25-1.24s.25-.75,0-.75a5.86,5.86,0,0,1-1-.24.24.24,0,0,0-.24-.25,19.7,19.7,0,0,0-2.24,1H86a11.18,11.18,0,0,1-2,.5c-.5,0-2,.5-2.74.5h-2l-1,.49a1.21,1.21,0,0,1,0,1,3.09,3.09,0,0,1-.5.75l-.5.49h-1L74,111l-3,.74-.75,1a3.73,3.73,0,0,1-1,.5,6.49,6.49,0,0,0-1.25.49h-1c-.25,0-.75.5-.75.5a11,11,0,0,1,.25,1.24c0,.25-1,0-1,0s-1.74.75-2.23,1a13.85,13.85,0,0,0-.25,1.74c0,.5.25.75,0,1s-.25.74-.5,1.49.25,2.24.25,2.73.5.75,0,.75-2.74-.25-3.23.25-2.49.5-3.49.5-.74,1.49-.74,1.49l2,1.24,82.32,3.48a7.17,7.17,0,0,0,.74-4,37.49,37.49,0,0,0-.74-4,8.82,8.82,0,0,1,.5-2.48A12.84,12.84,0,0,0,141.42,117.47Zm-30.59,9.45c-.25.5-2.49,0-2.74-.24a5.56,5.56,0,0,0-2.48-1.74c-1.5-.5-3.49-2.49-4.48-2.74a16.34,16.34,0,0,0-1.74-.5c-1.25-.25-3-.25-1.74-.74,0,0,1.24-1.25,2.24-1a2.17,2.17,0,0,0,2-.74,3.25,3.25,0,0,1,1-.75c.5-.25,1-.75,1.49-.75s-.5.75-.74,1.25a4.37,4.37,0,0,1-1.5,1.49c-.49.25-.49.5-.49.74s.49,1.25,1,1.25,0-1,1.24-1a9.19,9.19,0,0,1,2,.25c.25,0,.75,0,.75.5s.5.75,0,1a.89.89,0,0,0-.5.75s.75.5,1.25.75.49.74,1,1,.5,0,.75.25S111.08,126.43,110.83,126.92Zm4.72-.49c-.74-.25-.24-.5-1.24-.75s-.75-.5-1.74-.74-.75,0-1.49-.5-1.74-2.49-2.24-2.49-.5-.5-.75-.5.5,2.24,1.25,2.49a14.6,14.6,0,0,1,3,2.49c.5.49,1,.74.75,1s-3-1.24-3.24-1.74-1-1-1.49-1.49-.5-1.49-1-2a1.37,1.37,0,0,1-.5-1.24c0-.5.75-1,1-2s2-2.74,3-2.74a4.27,4.27,0,0,1-.5,2c-.5.75-.74.75-.74,1.49s-.25,1.49.24,2,1.25.75,1.74,1.25,1.25,1.24,1.75,1.24a2.51,2.51,0,0,1,2,.75,17.85,17.85,0,0,1,2.23,2C118,127.67,116.3,126.68,115.55,126.43Z" style="fill:#86ac98"/><path d="M3.77,124.13l.36,3.54s29.6-1.49,33.08-1,4-1,4-1,.25-1.74.75-2,.5,0,1,.25,0-.5.5-.25,1.24-.25,1-.74-1-.5-1-1.25v-1s-.75,1-.75-.25a5.46,5.46,0,0,1,.75-2.24c0-.25,1.49-.5.75-1s-1.5-.25-1.74-.5-.25.25-.5-.5-.5-.75-.25-1.24.25-1.5.75-1a7.47,7.47,0,0,1,1,1.49,10.63,10.63,0,0,0,1.74-1.74,2.62,2.62,0,0,1,2.24-1.24c1,0,.75-.25,1.24,0s.25,1-.25,1.24-.74.25-1,.5a1.3,1.3,0,0,0-.5,1c0,.49,0,.24.5.49s.5.5.25.75-1,0-1,.5-.25.74.25.74.25.25,1-.25a6.29,6.29,0,0,1,1.74-1c.74-.25,1.49-.25,1.74-.75s0-.49.5-1.24.24-.75,1.49-1.49.25-1,1-2,.5-1.25,1.25-1.49,1.24.74,2,0a3,3,0,0,1,2-1c.49,0,1.24,0,1.49-.25s1.49-2,2.24-1.49A13.2,13.2,0,0,0,66.06,108a6.36,6.36,0,0,0,4.73-1c2-1.24,1.49-2.24,4-2.24s0,.5,2.48.25a9.55,9.55,0,0,0,4.23-1.24c1.74-.75,1.74-1,3.23-1s.75-1.24,2-1.49,2.74,1.24,5.23,0,3-2.49,3.73-2.74a3.69,3.69,0,0,1,2.48-.49c1.25.24,1.25.74,3.24.49s-.25-.25,1.74-.49,1.24.74,2.24-.75,1.49-1.24,1.49-2-.25-.25-1-1-.24-.74-.74-1.49-1,.5-.75-.74c.14-.7,1.59-1.85,2.25-2.83-1.19-.29,0-.83-2-.16-2.24.75-2.24,1.49-4.23,2.49s-2,1.24-3.73,1.74-2,0-3.23.25-1,1.24-2,1.74-4.73.5-6.47,2a15.44,15.44,0,0,1-5.22,1.49c-2.24.25-1.74,2-3.48,1.74S74,99.82,73,100.31s-1.75,2-2.49,2.24a16.07,16.07,0,0,1-2.24.5c-1.24.25-1.74-.25-2,.25s.5.74-.5,1-1.24.25-1.49,1,.5.74-.74,1-2.24.25-3.49.5a38.67,38.67,0,0,1-5.72,1c-1.49,0-1.49-.49-2.73,0s-4.48,1-4.73,1.25a13.17,13.17,0,0,1-1.49,1c-.75.5-2.49,3-3,3.24s-3.24-.5-4.23,0-7.71,2.23-7.71,2.23L7.12,119.22Z" style="fill:#86ac98"/><path d="M145,101.43s-.75.75-.5,1.49a2.05,2.05,0,0,1-.25,1.75c-.25.49-1.24,1.49-1,2s-1,1-.74,1.49-2.49-1-3.48-1.25a7.71,7.71,0,0,1-1.5-.49s.5.74-.49.74-.75-.74-1.74-1-2-.75-2.49-.5-.25,1-1.24,1-1,0-2.49-1-2-1.74-3.23-2-2.24-.75-2.24-1.49-.5,0,.49-1,2,0,3-1-.25-1.74,1.24-2a13.27,13.27,0,0,1,4.48,0c.74.25,1.62,1.62,3.36,2.11s2.23,0,3,.25a9.91,9.91,0,0,1,1.74.5,3.89,3.89,0,0,0,2.24.25C143.66,101.31,145,101.43,145,101.43Z" style="fill:#86ac98"/><path d="M113.94,98.45a10.81,10.81,0,0,0,1.24,1.49,2.66,2.66,0,0,1,1,1.49c.24.75.49,1.49,1.24,1.49a3.57,3.57,0,0,0,1.74-.49c.5-.25.25-1,1-1.25s.75-.74,1.5-1.24,2.24-.25,1-.75-2.49,0-2.73-.74a2.71,2.71,0,0,0-1-1.25c-.25-.24-2.49.75-3,1S114.93,97.7,113.94,98.45Z" style="fill:#86ac98"/><path d="M148.76,102.92a18.48,18.48,0,0,0,1.24,2.49c.75,1.25,2.49,1.74,3.73,2.74s3,4,4.23,5,0,.75-.25,2,0,1,.25,1.49a36.11,36.11,0,0,0,5.47,5c1,.5.5.5,3.73,2.48a10.36,10.36,0,0,1,4.23,5l17.28.12L217,126.92s1.75-.74,2-1.49-1-2.24-1-2.24l1.24-4s-1.74-1.5-2.48-2,.24-2.49.24-4-1.49-1.5-2.48-2-.75-1.74.25-3.73a4.83,4.83,0,0,0,0-4s-1.25,1.74-1.5,2.24-2.23,1.49-5.47,3-2.24,1.74-3,2.24.74,7-1,1.74-.74-2.49-1.49-3.73.25-1.25.25-3a13.65,13.65,0,0,0-1-5c-.5-1,.74-2.74,1-3.48s.75-4.23,1.74-5.72,2.74-3.73,4.48-4.23,1-1.74,1.49-3a20.61,20.61,0,0,1,2.24-3.74c.25-.24.25-2.48.25-3.48s1.49-3.23,2.48-4.47.25-1,.75-2a11.17,11.17,0,0,1,2.49-2.49s3,1,4.23,2.49.49.49,1,.74.25,1.49.75,2.74a5.89,5.89,0,0,1,.49,2.73v4c0,1.25.5,3.24.5,4a21.58,21.58,0,0,0,1,5.23c.74,2.48,1.24,2.48,1.24,3.48s1.49,2.24,1.74,5.47,1.74,4.48,1.74,4.48.75,1.74,1.24,1.74,1.75,1.74,2,2.73,1,1.49,2.49,3.73,0,0,.75,1a11.29,11.29,0,0,1,1.49,2.24c1,1.74-.5,1.74-.5,1.74l2.74,6.21-.5,4s2.24.5,3.23,0,1.5,0,1.5,0a10.18,10.18,0,0,0,2.23.5,1.15,1.15,0,0,0,1.25-.75c.25-.49,0-1.49.25-3.23a5.19,5.19,0,0,0-.75-3.23s1.74.5,2.24.74,3,1.25,3,1.25a30.72,30.72,0,0,1,0,5c-.25,1.74,1.74.25,2,0s1-.25,1.49-1,0-1.25,0-2,1.5-.5,1.75-.75a3.94,3.94,0,0,0,1-2.49c0-1.24,1.24-2.48,2-3s1.74-1.24,1.74-1.24l.75-2a6.54,6.54,0,0,1,.74-1.74c.5-.75,1.5-1.5,1.5-2.49a19.12,19.12,0,0,0-.25-2.24c0-.25-2.24-.75-2.74-.75s-1.74-.24-2.24-.24-1.74-.25-2.24-.25a33.08,33.08,0,0,0-3.73,1.24,26.86,26.86,0,0,0-2,2.74c-.74,1.24-.24,1.74.25,3.73s-.25,1.49-1.24,2.24a2.5,2.5,0,0,1-2.24.24s-3.48-1-4-1.74,0-3.23,0-4-3.73.5-3.73.5-1-2.24-.74-3.48-.75-2.24-1-3-2.24-1.75-2.74-3.24-2.23-1.24-2.73-2.73.74-2.24,1.24-3a16.12,16.12,0,0,0,1.25-4.47c.24-1.5,1.49-3,1.74-4.48s-.5-3.73-1-5.22-2-2.49-2-1.75.25.75.5,2.49a13.08,13.08,0,0,1,.25,3c0,1.49-1.25,3.23-1,5s-3.23,5.22-3.23,5.22a6.12,6.12,0,0,1-2.74-1c-.74-.75,0-2-.74-2.49s-2.24-6.71-2.49-11.44-.5-1.49-.5-1.49-1-4.73-1.24-7.71,0-2,.75-5.22-.25-2-.25-3.24.5-3.23.5-4.47-1.5-2-3.24-1.25a15.86,15.86,0,0,1-4,1.25c-.49,0-1.24,1.24-1.24,2.23s1.74,2.24.5,3.24-3-.25-4.48.25-1,2.48-1.24,4,0,1,0,2.48a5.61,5.61,0,0,1-1.25,3l-1.24,1a1.87,1.87,0,0,1-.75.75c-.49.25-.74,2.49-.74,2.49a17.63,17.63,0,0,1-1.25,4.47c-.74,1.25-1.24-.25-2.23,0s-.25.75-1.5,2.24-1.74,2.49-2.48,3.23-1.25,2-2.74,3.49-.25.74-.5,3-.49,1-1.49,3.48,0,0,0,2.24a38.63,38.63,0,0,1-1,6.71c-.25,1.25,0,.75.74,1.75a6.08,6.08,0,0,1,.75,3,7.34,7.34,0,0,1-2.24,2.24,3,3,0,0,0-1.23,1.52,3,3,0,0,0-.26-.78,20.11,20.11,0,0,1-1-2.73,15.79,15.79,0,0,1,0-3.48c.25-.75-.25-.75-.74-1.74s-.25-3-1.5-2.74,0,.75-.24,1.74-.25,2.74-.5,4,.5,1.74.5,2.74a25.36,25.36,0,0,1-.25,4.22c-.25,1.25-3.73,5-3.73,5a10.51,10.51,0,0,1-.5-1.25,6.68,6.68,0,0,1,0-2.23c0-.75-1.49-1.5-2.74-2.24s-1-1.49-1-1.49a12.69,12.69,0,0,0-.25-2.49c-.25-1,1-3,1.24-3.48s-1.24-1.25-2.73-.75-1,3.48-1.74,4.23a7.36,7.36,0,0,1-2.49,1.24l-1.24-1a6.5,6.5,0,0,1,.25-1.74c.24-.75-.25-1.25-.5-1.25s-.75-1.24-.75-1.24l-1.24-1.49-2.74,2.48-3.48-.24-1.24-2.74-2-2,3.23-4.23,3-2.73.74-1.25,2.49-1.24,1.49-.75,3.48-1.74,2.24-1,1-1,.49-1.49s1.25-1,1.74-1.49a3.05,3.05,0,0,1,1.74-.5l2.49-2.24s3-3.23,4.23-3.48.5.5,1,.75,0,3,0,3l1-1.24c1-1.25,0-2,0-2s-.5-2.74-.75-3.48,0-4.23.75-5.23,1.49-.49,2.24-1.49,1.74-3,3-3.48,1.25-.75,2.24.75,0,.49-.5,2.73-1.74,2-2,3.48a20.37,20.37,0,0,1-.49,3.49,21.31,21.31,0,0,0-.5,6.21c0,3,.5,5.23,1.74,5s1.24-1.5,1.24-2.74.75-1.74,1-3.23,1-4.48,1.49-5,.25-2.23.5-3a50.79,50.79,0,0,1,2-4.73c.74-1.49,1.49-.74,2.24-1.24s.24-.75.24-1.24,1.5-1.74,2.24-2.74.5-1.24.5-2a3.1,3.1,0,0,1,1.49-2c.5-.25.5-2,.5-2A5.09,5.09,0,0,1,213.54,57c1.25-1.24,2.24-6.22,2.24-6.22s.25-1.49,0-1.74.5-2,1-1.74.24.5.74,1.49a3.56,3.56,0,0,1,.25,3.24c-.5,1.49.5,1.74.5,2.73S219.51,56,219.51,56l1.25,1.75s1.24-.25,1.24-1.25,1-3.48,1-5,.5-.75.75-1.49a6,6,0,0,0,.5-2.24c0-1,0-.5-.5-1.25s.25-1.74,0-2.23-.75,0-1.49-.5-1-.75-1.49-.75H219c-.29,0-.5-.69-.62-1.26a2.11,2.11,0,0,1-.62.27c-.6.2-.24.24-.58.37l.08.87H215c-1,0-1,.5-1.75,1s-.74-.25,0-1a2.67,2.67,0,0,0,.63-1.27,2.76,2.76,0,0,0-1.37-.22h-2a1.88,1.88,0,0,1-.82-.21,4.79,4.79,0,0,0-.18,2.2c0,1-.74,1.49-1.24,1.24s-.25-1-.25-1.74-.5-1.24-.5-1.49-.26-.75-.4-1.24h-.09a3.41,3.41,0,0,0-2,1.25c-.25.5-1.5,1-2.24,1.74a10.81,10.81,0,0,0-1.24,1.49s-9,7-12.94,8.21a5.61,5.61,0,0,1-2.73.25,2.64,2.64,0,0,0-1.5,0H183a14.07,14.07,0,0,1-4.47,4.23A50.27,50.27,0,0,0,173.75,60c-1,.75-1,2.24-2.49,3a27.09,27.09,0,0,0-3.47,2.29,27.65,27.65,0,0,1,2,2.18c.5.75.75,1,1.74,2.24s.75.5,2,1,2,.25,1.74,1.24a22.64,22.64,0,0,1-2.48,4,2.28,2.28,0,0,1,2.36.87c.74,1.24,0,1,.74,2s-.74,1.24-1.24,2.49S173.87,84,172.88,85s-2.24,2.24-5.22,5.72-1.49.25-3.73,2.24a44.27,44.27,0,0,1-4.48,3.48C157.46,98,148.76,102.92,148.76,102.92Z" style="fill:#86ac98"/><path d="M125.5,86.63c1.49,0,1.74-1,2.74-1s1,.5,2.73.75,4-1.25,5.72-1.25,2.24.5,3.49.25,1-3.48,3.23-4,3.73-.25,4.48.25,1.74-.5,2.23-1.49.5-8.46,1.25-10-.25-3.48,0-4.72-.5-3,1-3.24,2,0,2.24.5l.25.5s.75-1.25,1-1.74c.16-.32.12-1.15.59-1.77l-.09,0c-2,.5-2.73,1.25-3.73,1.5a6.78,6.78,0,0,0-2,1s-2.49,0-3.73,1.25a2.27,2.27,0,0,0-2.74.74,37.66,37.66,0,0,1-7,5.22,12,12,0,0,0-4.48,3.73c-.55.9-9.69,9.7-20.14,15.67a12.75,12.75,0,0,0,4.23,2.49c2,.5.25,1,2.73.75s.25-1.5,1.74-3S124,86.63,125.5,86.63Z" style="fill:#91b19b"/><path d="M244,60.4c-.5-1.5-.5-1-.5-1.74s.5-1.25-.5-1.75-.49-.49-1.49-1-.25-.75-1-.5.25,1-.75.75-1-.25-1-.5.25-.25.25-1,.49-.25,0-1.25a7.89,7.89,0,0,1-.75-1.49,14.28,14.28,0,0,1-1.49-3.73c-.25-1.74.49-.5-.25-2s-.5-2-.75-2.24-.74.5-.74-.74a3.69,3.69,0,0,0-.65-1.72c-.52.45-1.18,1.09-1.72,1.09-.74,0-.49-1.49-1.24-1.24l-.75.25-.49.25a4.07,4.07,0,0,0-1.5-.75,4.64,4.64,0,0,1-1.74-.5c-.49-.24,0-.74-1.24-.49a7.1,7.1,0,0,0-2.92,1.18,2.91,2.91,0,0,1,.56,1.18c0,.75,1,.5,2,2.24a21.21,21.21,0,0,0,1.51,2.54c-.49-.1-.92-.15-1-.05s.25,1.24,0,1.74a7.12,7.12,0,0,0-.24,2.48v1.5c0,1-.75.74,0,1.49a6.58,6.58,0,0,0,1.49,1.24c.74.5-.75-2.73-.25-3a1,1,0,0,1,1.49.49,14,14,0,0,0,1,3c.49.74.24,1,.74,1s1.25-.49,1.25.5,1.24,1.74,1.24,1.74a1.08,1.08,0,0,1-.25-.74c0-.5.25-2-.25-2.49s0-.75-.25-1.74-.49-.75-.49-1.49c0-.5-.05-1.27-.08-1.73.51.59.91,1.07,1.07,1.23.5.5,1,.5,1.74,1.74s1.24.75,1.49,1.49-.49,1.24.25,2.74.75,2,1.49,2.24.75,0,1,.49a14.67,14.67,0,0,0,2,2,3.8,3.8,0,0,1-.75-1.74c0-.74.5-.5,0-1.24s-1.24-1.25-1.24-1.74.25-.75.5-1.25.49-.74.74-.25a3.25,3.25,0,0,0,1.25,1.75c1,.74,1.49.74,1.74,1.49A5.91,5.91,0,0,0,244,62.39c.75.74,1.49,1.24,1.74,1.49S244.51,61.89,244,60.4Z" style="fill:#86ac98"/><path d="M262.54,125.18a10.7,10.7,0,0,1,4.23-1c2.23,0,4.22.75,5.22,0s1-.5,2.24-1.49-.5-1.74,3.23-1.74,6.22-.25,7-.75,2.24-.25,2.49-1.74,1.74-1,.5-2.74-.5-2.24-1.74-2.48-1-2.24-3.48-3.49-1.75-1.24-3.49-2.23-1.24-1.25-2.73-2.49-8.71-6.47-12.44-10-5.47-4.48-8-7.21-3-.5-4.22-5-1.5-4.22-3.73-8.45-4.23-3.73-4.48-6.22-1.24-3,.25-2.49,2.48,2.74,3.23,3.24,1.24,2,2.24,2-.5,2,3,3.23,1.5,1.74,2.74,3.48,3.73,3.23,4.72,4.23a33.67,33.67,0,0,0,6,3.73,62,62,0,0,1,8.46,6c2.24,2,7,4.23,8.95,5s5.47,2.49,9.7,4,0-.74-2.73-2.24-1-2.23-3.24-2.73-8-4.23-9.45-5.72-2.73-3.48-4.72-5.22a8.81,8.81,0,0,1-3-3.74c-1.24-2.23-1.74-3.73-.25-3.23s1.5,3.73,3,4.48,6,4,7.21,4.23a4.6,4.6,0,0,1,3.23,2,19.58,19.58,0,0,0,6.47,4.47c2.74,1.25,5.72,4,8.7,4.73s2,.5,4.48,1.74,6.47,2.24,7.71,3,4.73,1,5.22,2.24,11.94,4,11.94,4l.5,20.89s-9.45-14.67-12.68-14.92-4-1-8.21-2.24-7.71-3-9.2-3.48-3.73-.25-6.22-2.74S280,99.32,279.2,98.82s5.72,3.73,7.21,5.47a19.4,19.4,0,0,0,6.47,4.23c1.49.5,5.22,3.73,8,4.23s3,0,6,2.49,6,3.23,8,5,4.22,4.23,3.73,4.73-11.2-5.72-14.68-7-2.73-1-6.22-2.24-6.71-4.47-9-5.22,2.24,2.49,4.23,5,3.23,2,3.48,4.23-1.49,2.24-.74,4.73,1.61,5.34-.88,5.84-16.29-.62-20-.37-9.45,1.74-11.93.25S262.54,125.18,262.54,125.18Z" style="fill:#86ac98"/><path d="M406.16,128.29s-86.51-.49-107.15-1-37.34-1.49-44.62-.5-44-.5-54.33.5-3.65-1.25-34.91-1.25-54,1.5-65.26,1-30.35,2-39.76,2-47.66.5-56.46.5H-8.17l-4.25,93.26,423.13-3.48Z" style="fill:#698b87"/><polygon points="365.18 172.72 338.43 13.72 329.04 67.2 335.54 62.15 329.04 74.43 309.52 174.17 365.18 172.72" style="fill:#283c3f"/><polygon points="82.42 227.33 55.68 68.33 46.29 121.81 52.79 116.75 46.29 129.03 26.77 228.77 82.42 227.33" style="fill:#283c3f"/><path d="M62,203.15s7.79-7.77,9.13-9S74,189.93,73,189.56s-10.29,7.28-10.29,7.28l2.75-13.47,6.78-6.88-5.5,1.56.6-4.4s8.68-11.83,9.39-13.06.41-1.56.41-1.56l-7,5.91,3-12.51s5.2-7,4.59-7.33-3.64,2.31-3.64,2.31l3.76-18.06L82.76,107l6.33,42.44s-2.85-2.85-3.48-2.53,4.11,7.6,4.11,7.6l2.22,12.67-6.65-6.33s-.32.31.32,1.58,8.55,13.62,8.55,13.62l.32,4.43-5.39-1.9,6.34,7.29,1.9,13.62s-8.87-8.24-9.82-7.92.31,3.49,1.58,4.75,8.55,9.51,8.55,9.51L99.54,229,60,227.7Z" style="fill:#355151"/><path d="M338,150.23s7.78-7.76,9.13-8.95S350,137,349,136.64s-10.3,7.29-10.3,7.29l2.75-13.48,6.78-6.87-5.49,1.56.59-4.41s8.68-11.83,9.39-13,.42-1.57.42-1.57l-7,5.91,3-12.51s5.2-7,4.59-7.33-3.64,2.32-3.64,2.32l3.75-18.07,4.91-22.33,6.34,42.45S362.23,93.7,361.6,94s4.12,7.61,4.12,7.61l2.22,12.67L361.28,108s-.31.32.32,1.58,8.55,13.63,8.55,13.63l.32,4.43-5.38-1.9,6.33,7.28,1.9,13.63s-8.87-8.24-9.82-7.92.32,3.48,1.59,4.75,8.55,9.5,8.55,9.5l1.9,23.12-39.6-1.26Z" style="fill:#355151"/><path d="M244.13,127.17s2.53,86.71,73.48,90.09c12.39.57-46-9.57-46-9.57s-67,6.19-85,.56,6.1-79.13,13.47-80.95S244.13,127.17,244.13,127.17Z" style="fill:#3a3f49"/><path d="M219.58,151l-9,.56c.73-10,1.49-15.08,1.93-25.21l9,.39C221.1,136.5,220.34,141.37,219.58,151Z" style="fill:#fff"/><path d="M221.42,184.21l-8.82,1.87c-2.53-9.78-2.74-14.73-2.51-24.71l9-.93C218.78,170,219,174.8,221.42,184.21Z" style="fill:#fff"/><path d="M234.67,216.28l-8.44,3.13c-4.56-9.37-7.07-14.14-10.62-23.82l8.73-2.23C227.8,202.67,230.25,207.27,234.67,216.28Z" style="fill:#fff"/><path d="M95.36,237.16l-8.64,1.3L59,35.58a1.64,1.64,0,0,1,1.37-1.84h0a1.63,1.63,0,0,1,1.85,1.35Z" style="fill:#0b0915"/><polygon points="65.3 52.77 61.18 53.39 48.21 46.09 75.55 41.97 65.3 52.77" style="fill:#0b0915"/><path d="M107.4,221.76,99,224.23,43.59,27.1a1.63,1.63,0,0,1,1.11-2h0a1.63,1.63,0,0,1,2,1.08Z" style="fill:#0b0915"/><polygon points="52.24 43.26 48.25 44.44 34.39 38.99 60.91 31.15 52.24 43.26" style="fill:#0b0915"/><path d="M166.51,143.57s4.56,67.47-.22,99.06c0,0-37.15,13-94,6-3-.5,4.49,18,4.49,18S61.33,271.55,60.34,273s-8-7.48-11-28.92S30.92,108.5,88.76,92c5-4,57.84,0,57.84,0s28.64,1,53,33c1.84,2.41,3.56,4.9,6,6.69L255.24,78l10,8c-.19.08-33.52,50.76-46.19,70.9a10.86,10.86,0,0,1-13.66,4.12Z" style="fill:#ef1e32"/><path d="M166.51,143.57s4.56,67.47-.22,99.06c0,0-37.15,13-94,6-3-.5,4.49,18,4.49,18S61.33,271.55,60.34,273s-8-7.48-11-28.92S30.92,108.5,88.76,92c5-4,57.84,0,57.84,0s28.64,1,53,33c1.84,2.41,3.56,4.9,6,6.69L255.24,78l10,8c-.19.08-33.52,50.76-46.19,70.9a10.86,10.86,0,0,1-13.66,4.12Z" style="opacity:0.5;fill:url(#d)"/><polygon points="143.97 66.7 142.37 95.73 137.2 105.7 101.05 108.2 86.62 99.65 85.81 85.76 84.03 57.18 124.78 52.27 143.97 66.7" style="fill:#fdccaa"/><path d="M93.2,65.65a2.78,2.78,0,0,1,1-.29c.39,0,.75,0,1.15,0a23.54,23.54,0,0,0,3-.07,6,6,0,0,1,1.1-.12,3.74,3.74,0,0,0,.88-.07c.68-.1,1.33.1,2,0,.42-.08.79,0,1.22,0s1,0,1.48-.1a2.82,2.82,0,0,1,1.9.59c.34.23.49.25.57.67,0,.26.08.54.13.8l.21,1.32a3.66,3.66,0,0,1,.1.81,1.89,1.89,0,0,1-.53,1.14,4.61,4.61,0,0,1-3.84,1.56c-1.29,0-2.56,0-3.84-.05a9.52,9.52,0,0,1-1.31,0,9.37,9.37,0,0,0-1.55-.35c-.74,0-1.36-.28-2.1-.34s-1.36-.21-2-.31a5.3,5.3,0,0,1-2.06-.62,3.63,3.63,0,0,1-1.18-1.88A1.91,1.91,0,0,1,90.17,66a3.29,3.29,0,0,1,2.76-.14" style="fill:#0b0915"/><path d="M95.58,78.12c1.65-2.12,4.42-1.52,6.35-.18.29.2.56-.27.28-.47-2.12-1.46-5.21-2-7,.27-.21.27.17.66.38.38Z"/><path d="M98.93,75.26c.25.24-.26.56-.44.6-.35.09-.33-.44-.37-.68-.06-.4-.09-.46.29-.52s.59,0,.7.35a1.64,1.64,0,0,1,.09.44c0,.4-.19.29-.25.08a.21.21,0,1,1,.42,0,.49.49,0,0,1-.81.31.83.83,0,0,1-.13-.18l-.07-.12c0-.15-.08-.11-.17.14.48-.18.27-1-.21-.78-.65.25-.45.91-.12,1.34a1.29,1.29,0,0,0,1.85.23,1.21,1.21,0,0,0,.18-1.74A1.17,1.17,0,0,0,98.2,75a1.14,1.14,0,0,0,.86,1.52c1,0,1-1.1.82-1.75a1.26,1.26,0,0,0-1.63-.91c-.83.13-1,.64-.92,1.44a1.76,1.76,0,0,0,.47,1.2,1,1,0,0,0,1.19,0,1.54,1.54,0,0,0,.74-.73,1.09,1.09,0,0,0-.23-1.09.4.4,0,0,0-.57.57Z"/><path d="M136.64,65.65a2.73,2.73,0,0,0-1-.29c-.4,0-.75,0-1.15,0a23.54,23.54,0,0,1-3-.07,6.17,6.17,0,0,0-1.11-.12,3.69,3.69,0,0,1-.87-.07c-.69-.1-1.33.1-2,0-.42-.08-.79,0-1.22,0s-1,0-1.49-.1a2.81,2.81,0,0,0-1.89.59c-.35.23-.49.25-.58.67,0,.26-.08.54-.12.8-.07.44-.14.88-.22,1.32a4.38,4.38,0,0,0-.1.81,2,2,0,0,0,.54,1.14,4.59,4.59,0,0,0,3.83,1.56c1.29,0,2.56,0,3.85-.05a9.55,9.55,0,0,0,1.31,0,9.26,9.26,0,0,1,1.54-.35c.75,0,1.37-.28,2.11-.34s1.35-.21,2-.31a5.35,5.35,0,0,0,2.06-.62,3.63,3.63,0,0,0,1.18-1.88,1.9,1.9,0,0,0-.62-2.22,3.28,3.28,0,0,0-2.76-.14" style="fill:#0b0915"/><path d="M131.65,77.74c-1.8-2.32-4.89-1.73-7-.27-.28.2,0,.67.27.47,1.94-1.34,4.71-1.94,6.35.18.22.28.6-.11.39-.38Z"/><path d="M127.34,74.69c-1.2,1.2,1.55,3,2.06,1.25.18-.61.38-1.62-.33-1.94a1.59,1.59,0,0,0-1.89.27c-.38.57-.54,1.61.06,2.08s1.41-.13,1.48-.84a1,1,0,0,0-1.35-1,1,1,0,0,0-.56,1.54,1.29,1.29,0,0,0,2.07.29c.4-.41.68-1.21,0-1.47-.48-.18-.69.6-.21.78-.09-.25-.15-.29-.18-.14l0,.08c-.06.06-.08.15-.14.2a.48.48,0,0,1-.81-.23c-.08-.42.48-.32.4,0s-.23.37-.25-.08a1.29,1.29,0,0,1,.1-.44c.11-.37.34-.41.69-.35s.35.09.31.45c0,.2,0,.76-.3.79s-.76-.41-.53-.64-.2-.93-.57-.57Z"/><path d="M86.75,64.72s0,.16,0,.45C87,70.38,88.25,92.48,92,96.31c2.84,2.88,6.43,3.46,10.31,3.09a198.65,198.65,0,0,1,21.68-1q3.06,0,6.12.2c3.45.18,7.4.26,9.73-2.28a9.83,9.83,0,0,0,2.07-5.39c.48-3.51.39-23.12-.28-26.6a6.51,6.51,0,0,1,3,3c.58,1.61-.08,19.56-.13,21.22a28,28,0,0,0,.75,6.75c1,4.41,2.67,8.62,4,12.94A68.48,68.48,0,0,1,152,124a19.56,19.56,0,0,1-.48,6.48c-.85,2.92-4.18,8.65-7.93,7.82a3.34,3.34,0,0,1-2.88-3.6s.9,7.38-3.77,8.1-4-4-5-4.32-1.8,5.76-5,7.56-5.76,1.08-6.12-2.88-.72-2.52-1.44-1.44,1.44,9.36-6.11,7.2c-4.68-1.44-4.68-7.2-4.68-7.2a15.33,15.33,0,0,1-1.08,4c-1.08,2.06-5.73,1.21-7.92-4l-1.8-4.32s-.72,5-1.79,5.4-5.76-4-6.12-4.68-2.14-5.33-2.16-5.39c.51,1.33-.18,4.52-1.88,4.45-2.31-.09-4-5.95-4.64-7.71a34.71,34.71,0,0,1-.69-20.74c1.12-3.94,2.94-7.66,3.89-11.63.69-2.89-.69-24.6-1.08-27.54C82.78,66.13,84.69,67.41,86.75,64.72Z" style="fill:#3a3f49"/><path d="M87,64.78s0,.16,0,.45c.18,5.26,1.5,27.54,5.31,31.41,2.86,2.9,6.49,3.48,10.4,3.11a199.44,199.44,0,0,1,21.86-1q3.09,0,6.18.2c3.47.17,7.46.26,9.81-2.31a9.87,9.87,0,0,0,2.09-5.43c.48-3.53.39-23.32-.28-26.82,1.24.76,2.57,1.62,3.06,3,.58,1.62-.08,19.73-.13,21.4a28.3,28.3,0,0,0,.75,6.8c1,4.45,2.69,8.7,4,13.06a69.05,69.05,0,0,1,2.76,16,19.35,19.35,0,0,1-.49,6.53c-.85,2.94-4.21,8.73-8,7.89a3.37,3.37,0,0,1-2.9-3.63s.91,7.44-3.81,8.16-4-4-5.08-4.35-1.82,5.8-5.08,7.62-5.81,1.09-6.17-2.9-.73-2.54-1.45-1.46,1.45,9.44-6.17,7.26c-4.72-1.45-4.72-7.26-4.72-7.26a15.31,15.31,0,0,1-1.09,4c-1.08,2.07-5.77,1.22-8-4-.6-1.41-1.82-4.35-1.82-4.35s-.72,5.08-1.81,5.44-5.81-4-6.17-4.72-2.15-5.37-2.18-5.44c.52,1.35-.18,4.56-1.89,4.49-2.33-.09-4.06-6-4.68-7.77a35.07,35.07,0,0,1-.7-20.92c1.13-4,3-7.72,3.93-11.73.69-2.91-.7-24.81-1.1-27.77C83,66.2,85,67.49,87,64.78Z" style="opacity:0.1;fill:url(#e)"/><path d="M115,95.86s8.08-10.55,21.12,3.73c3.1,1.24,5,5,8.07,3.73s1.86,7.45-17.39,7.45c-3.53.87-9.84-5.46-11.8-9.32-.62-1.24-9.93,15.53-28.56,7.46-2.49,0-3.73-4.35-3.73-4.35s5,.62,7.45-1.24S102,84.69,115,95.86Z" style="fill:#3a3f49"/><path d="M109.63,95.91a5.18,5.18,0,0,1-.75-3.74c.37-2.24,2.25-5.61,2.25-8.23s1.49-6.74,2.62-7.12,3.36,1.5,3.36,3.37a35.07,35.07,0,0,0,1.13,7.12c.37,1.12,1.87,7.48,1.12,8.6s-3.37,0-3.37,0-.75,1.88-1.5,1.88-2.24-1.5-2.24-1.5A2.28,2.28,0,0,1,109.63,95.91Z" style="fill:#b98f6e"/><path d="M72.14,249.87c-3.14-24.46-5.25-50-2.51-74.59.07-.61-.87-.6-.94,0-2.74,24.56-.63,50.13,2.51,74.59.08.59,1,.6.94,0Z"/><path d="M164.51,249.87c3.14-24.46,5.26-50,2.51-74.59-.06-.6-1-.61-.94,0,2.74,24.56.63,50.13-2.51,74.59-.08.6.87.59.94,0Z"/><path d="M118.31,145.62c1.16,2.19,1.18,5.49,1.6,7.9.51,2.95,1.33,5.8,1.68,8.77.52,4.53,1.28,9,1.51,13.57.28,5.42-.74,10.47-1.59,15.78-1.46,9.14-.4,18.08-.19,27.27.26,10.87,1.94,21.64,2.17,32.48a.47.47,0,0,0,.94,0c-.45-21.66-4.84-43.16-1.15-64.73,1.48-8.67.64-17.6-.82-26.23-.48-2.85-1.37-5.65-1.87-8.52-.37-2.11-.44-4.84-1.47-6.76-.29-.54-1.1-.06-.81.47Z"/><path d="M140.68,71.28a27,27,0,0,0-13.88-2.52c-2.49.11-5.19.55-7.22,2.1a6.21,6.21,0,0,0-2.4,4.23,4.59,4.59,0,0,0-6.05-.12s0,.37,0,.83a9.23,9.23,0,0,0-.11-1.07,6.23,6.23,0,0,0-2.4-4.24c-2-1.55-4.73-2-7.22-2.09A26.83,26.83,0,0,0,87.5,70.91c-1.82.88-1.88,2.71-1.51,4.57.22,1.1,2.52,2.3,2.52,2.3a14.4,14.4,0,0,1,.29,2.32A14.73,14.73,0,0,0,90.61,85c2.8,4.55,8.85,5.26,13.55,3.6A9.62,9.62,0,0,0,108.74,85a15.19,15.19,0,0,0,2.35-7.38s0,0,0-.14c2.52-2.78,5.33-.62,5.93-.11a15.43,15.43,0,0,0,2.38,8A9.64,9.64,0,0,0,124,89c4.7,1.66,10.75,1,13.55-3.61a14.59,14.59,0,0,0,1.81-4.88,14.4,14.4,0,0,1,.29-2.32s2.3-1.21,2.52-2.3C142.56,74,142.5,72.15,140.68,71.28ZM94.34,86.63a9.61,9.61,0,0,1-3.9-5.35c-.77-2.46-1.62-6.68.26-8.86,1.26-1.45,3.37-2,5.18-2.28a41.06,41.06,0,0,1,9.07,0c5,.28,4.94,5.81,5,7.34C110.57,85.47,100.92,90.74,94.34,86.63Zm43.4-5A9.65,9.65,0,0,1,133.85,87c-6.59,4.11-16.24-1.16-15.67-9.18.11-1.53,0-7.06,5-7.34a41.05,41.05,0,0,1,9.07,0c1.81.3,3.93.83,5.18,2.28C139.36,75,138.51,79.19,137.74,81.65Z" style="fill:#005d6d"/><path d="M82.28,60.25s0-27.09,25.84-27.09C115.05,31.9,144,31.27,144,55.84,143.4,61.51,82.28,60.25,82.28,60.25Z" style="fill:#3e292f"/><path d="M82.91,70.33s27.1-18.9,61.12,0c5,2.52.63-13.86,0-14.49s-36.54-19.53-61.12,4.41C81,61.51,82.91,70.33,82.91,70.33Z" style="fill:#3e292f"/><path d="M82.67,69.89s27.09-18.9,61.11,0c5,2.52.63-13.86,0-14.49s-36.54-19.53-61.11,4.41C80.78,61.07,82.67,69.89,82.67,69.89Z" style="fill:url(#f)"/><path d="M116.79,163.06c-1.2,1.2,1.55,3,2.06,1.25.18-.61.38-1.62-.33-1.94a1.59,1.59,0,0,0-1.89.27c-.38.57-.54,1.61.06,2.07s1.41-.13,1.48-.83a1,1,0,1,0-1.92.52,1.31,1.31,0,0,0,2.08.29c.4-.41.68-1.21,0-1.47-.48-.18-.69.6-.21.78-.09-.25-.15-.3-.18-.14l0,.08c-.06.06-.08.15-.14.2a.49.49,0,0,1-.82-.23c-.07-.42.49-.32.41,0s-.23.37-.25-.08a1.29,1.29,0,0,1,.1-.44c.11-.37.34-.41.69-.36s.35.1.31.45,0,.77-.3.8-.76-.42-.53-.64a.4.4,0,0,0-.57-.57Z"/><path d="M117.39,180.1c-1.21,1.2,1.54,3,2.06,1.24.17-.6.37-1.61-.34-1.93a1.56,1.56,0,0,0-1.88.27,1.63,1.63,0,0,0,0,2.07c.65.5,1.41-.13,1.48-.83a1,1,0,1,0-1.91.52,1.31,1.31,0,0,0,2.08.29c.4-.41.68-1.21,0-1.47-.48-.18-.69.59-.21.77-.09-.24-.15-.29-.17-.13l0,.08a2.43,2.43,0,0,1-.14.2.48.48,0,0,1-.81-.23c-.08-.42.48-.32.41,0s-.23.37-.25-.08a1.39,1.39,0,0,1,.09-.45c.11-.36.34-.4.7-.35s.34.1.3.45,0,.77-.29.8-.76-.42-.54-.65a.4.4,0,0,0-.56-.56Z"/><path d="M116.34,193.21c-1.2,1.21,1.55,3,2.06,1.25.17-.61.37-1.61-.33-1.94a1.59,1.59,0,0,0-1.89.28,1.63,1.63,0,0,0,.06,2.07c.64.5,1.41-.13,1.48-.84a1.05,1.05,0,0,0-1.35-1,1,1,0,0,0-.57,1.54,1.31,1.31,0,0,0,2.08.3c.4-.42.68-1.21,0-1.47-.49-.18-.7.59-.22.77-.08-.24-.14-.29-.17-.14l0,.09a2.26,2.26,0,0,1-.13.2.49.49,0,0,1-.82-.23.22.22,0,1,1,.41,0c0,.19-.23.37-.25-.09a1.72,1.72,0,0,1,.09-.44c.11-.36.34-.41.7-.35s.35.1.31.45,0,.76-.3.8-.76-.42-.53-.65a.4.4,0,0,0-.57-.57Z"/><path d="M115.75,152.28c-1.21,1.2,1.54,3,2.06,1.24.17-.6.37-1.61-.34-1.93a1.58,1.58,0,0,0-1.88.27c-.39.57-.55,1.61,0,2.07s1.41-.13,1.48-.83a1,1,0,1,0-1.91.52,1.3,1.3,0,0,0,2.08.29c.4-.41.67-1.21,0-1.47-.48-.18-.69.6-.21.78-.09-.25-.15-.3-.18-.14l0,.08a1.43,1.43,0,0,1-.14.2.48.48,0,0,1-.81-.23c-.08-.42.48-.32.4,0s-.22.37-.25-.08a1.73,1.73,0,0,1,.1-.45c.11-.36.34-.4.69-.35s.35.1.31.45,0,.77-.3.8-.76-.42-.53-.64c.37-.37-.2-.94-.56-.57Z"/><ellipse cx="114.29" cy="109.14" rx="0.94" ry="1.77" style="fill:#e3dad2"/><path d="M64.78,107.38S69.15,99.26,76,96.77,79.13,176,68.52,201C64.78,207.85,64.78,107.38,64.78,107.38Z" style="fill:#004652"/><path d="M165.67,98.64a84.52,84.52,0,0,0-13.79-6.87c-6.87-2.49,4,80.51,14.63,105.47C170.25,204.11,165.67,98.64,165.67,98.64Z" style="fill:#004652"/><rect x="257.54" y="48.89" width="45.61" height="45.61" rx="3.74" style="fill:#f7956f"/><circle cx="261.41" cy="53.04" r="1.55" style="fill:#00353e"/><path d="M257.82,45.93a4.93,4.93,0,1,0,4.93,4.93A4.93,4.93,0,0,0,257.82,45.93Zm0,8.68a3.75,3.75,0,1,1,3.75-3.75A3.74,3.74,0,0,1,257.82,54.61Z" style="fill:gray"/><path d="M264.79,59.88l.08,2.07h-.15a6.45,6.45,0,0,0-.64-1.49.93.93,0,0,0-.81-.4h-.1v5.41h.7v.17h-3v-.17h.7V60.06h-.11a.91.91,0,0,0-.81.41A5.87,5.87,0,0,0,260,62h-.16l.09-2.07Z" style="fill:#283c3f"/><path d="M267.87,65.49l-.6-1.78h-1.63L265,65.49h.62v.15h-1.26v-.15h.39l2.1-5.66h.67l2.08,5.66H270v.15h-2.69v-.15Zm-1.38-4.12-.78,2.16h1.49Z" style="fill:#283c3f"/><path d="M272.9,60c-.85,0-1.27.82-1.27,2.46v.65A4.16,4.16,0,0,0,272,64.9a1.08,1.08,0,0,0,1,.66c.6,0,1.16-.59,1.66-1.76h.15l-.06,1.83h-.09a.31.31,0,0,0-.09-.12.16.16,0,0,0-.12,0,4.4,4.4,0,0,0-.6.13,4.57,4.57,0,0,1-1.05.12,2.83,2.83,0,0,1-2.07-.72,2.89,2.89,0,0,1-.74-2.18,3.11,3.11,0,0,1,.77-2.24,2.77,2.77,0,0,1,2.07-.79,4.06,4.06,0,0,1,1,.13,3.58,3.58,0,0,0,.56.13.17.17,0,0,0,.13,0l.09-.13h.09l.06,1.79h-.14a4.91,4.91,0,0,0-.77-1.27A1.13,1.13,0,0,0,272.9,60Z" style="fill:#283c3f"/><path d="M275.49,59.88H278V60h-.45v2.6l.07,0L279.94,60h-.65v-.16h1.43V60h-.49l-1.41,1.58,2,3.87h.44v.15h-2.64v-.15H279l-1.36-2.63-.07,0v2.61H278v.15h-2.51v-.15H276V60h-.46Z" style="fill:#283c3f"/><path d="M281.5,59.88h3v.18h-.87v5.4h.29A1.48,1.48,0,0,0,285,65a5,5,0,0,0,.84-1.31H286l-.15,1.92H281.5v-.18H282v-5.4h-.48Z" style="fill:#283c3f"/><path d="M286.43,59.88h2.51V60h-.45v5.45h.45v.15h-2.51v-.15h.46V60h-.46Z" style="fill:#283c3f"/><path d="M294,60v5.6h-1.15L290,60.32v5.17h.45v.15h-1.13v-.15h.46V60h-.46v-.16h2.27L293.78,64V60h-.45v-.16h1.12V60Z" style="fill:#283c3f"/><path d="M297.79,65.56c.26,0,.44,0,.51-.15a.88.88,0,0,0,.11-.5v-1.6h-.53v-.18h2.37v.18h-.32v2.32h-.12a.5.5,0,0,0-.42-.2,4.35,4.35,0,0,0-.69.15,4.34,4.34,0,0,1-1,.14,2.84,2.84,0,0,1-2.08-.72,2.93,2.93,0,0,1-.74-2.18,3.11,3.11,0,0,1,.77-2.24,2.8,2.8,0,0,1,2.07-.79,4.37,4.37,0,0,1,1,.13,3.83,3.83,0,0,0,.59.13.16.16,0,0,0,.12,0,.36.36,0,0,0,.09-.13h.09l.07,1.79h-.15a6.26,6.26,0,0,0-.81-1.26,1.2,1.2,0,0,0-.91-.45q-1.26,0-1.26,2.46v.65a4.46,4.46,0,0,0,.31,1.86A1,1,0,0,0,297.79,65.56Z" style="fill:#283c3f"/><path d="M262,72a.83.83,0,0,0,.76.33,1.05,1.05,0,0,0,.84-.34,1.53,1.53,0,0,0,.29-1v-3h-.43V67.8h1v.13h-.36v3a1.81,1.81,0,0,1-.37,1.23,1.68,1.68,0,0,1-1.3.41,2.23,2.23,0,0,1-1.42-.39,1.57,1.57,0,0,1-.49-1.32v-2.9h-.37V67.8h2.1v.13h-.43v3.12A1.72,1.72,0,0,0,262,72Z" style="fill:#283c3f"/><path d="M268.51,67.93v4.54h-.93l-2.29-4.32v4.2h.36v.12h-.91v-.12h.36V67.93h-.36V67.8h1.84l1.75,3.35V67.93H268V67.8h.92v.13Z" style="fill:#283c3f"/><path d="M269.19,67.8h2.08v.13h-.39V70h1.33V67.93h-.39V67.8h2.09v.13h-.4v4.42h.4v.12h-2.09v-.12h.39V70.17h-1.33v2.18h.39v.12h-2.08v-.12h.39V67.93h-.39Z" style="fill:#283c3f"/><path d="M274.19,67.8h3.47l.07,1.32h-.12a2.38,2.38,0,0,0-.59-.92,1.4,1.4,0,0,0-.9-.25h-.24V70h.23a.68.68,0,0,0,.53-.24,1.37,1.37,0,0,0,.3-.63h.1v2h-.11a1.52,1.52,0,0,0-.33-.71.7.7,0,0,0-.56-.22h-.16v2.15h.26a1.51,1.51,0,0,0,1-.37,1.79,1.79,0,0,0,.59-.94h.14l-.06,1.45h-3.66v-.14h.39V68h-.39Z" style="fill:#283c3f"/><path d="M281,72.35l-.48-1.44h-1.33l-.51,1.44h.5v.12h-1v-.12h.31l1.71-4.59h.54l1.69,4.59h.3v.12h-2.18v-.12ZM279.91,69l-.63,1.75h1.21Z" style="fill:#283c3f"/><path d="M282.92,67.8h2.41V68h-.71v4.38h.24a1.23,1.23,0,0,0,.91-.35,4.22,4.22,0,0,0,.68-1.07h.14l-.13,1.56h-3.54v-.14h.4V68h-.4Z" style="fill:#283c3f"/><path d="M290.48,67.8l.06,1.68h-.12a5.46,5.46,0,0,0-.52-1.22.78.78,0,0,0-.66-.32h-.08v4.39h.57v.14h-2.44v-.14h.57V67.94h-.09a.76.76,0,0,0-.66.34,4.83,4.83,0,0,0-.51,1.2h-.13l.07-1.68Z" style="fill:#283c3f"/><path d="M290.93,67.8H293v.13h-.38V70H294V67.93h-.4V67.8h2.09v.13h-.39v4.42h.39v.12h-2.09v-.12h.4V70.17h-1.33v2.18H293v.12h-2.08v-.12h.4V67.93h-.4Z" style="fill:#283c3f"/><path d="M298.45,70l.94-2.09h-.67V67.8H300v.11h-.45l-1,2.23v2.21h.4v.12h-2.11v-.12h.4V70.26l-1.13-2.35h-.32V67.8H298v.11h-.43Z" style="fill:#283c3f"/><path d="M260.85,75h3.26v.2h-.61v3.24h2.09V75.23H265V75h3.28v.2h-.62v6.93h.62v.19H265v-.19h.62V78.74H263.5v3.42h.61v.19h-3.26v-.19h.61V75.23h-.61Z" style="fill:#283c3f"/><path d="M273,82.16l-.77-2.27h-2.07l-.8,2.27h.78v.19h-1.6v-.19H269l2.67-7.2h.86l2.64,7.2h.48v.19h-3.43v-.19Zm-1.76-5.24-1,2.74h1.89Z" style="fill:#283c3f"/><path d="M276,75h3.13a4.74,4.74,0,0,1,2.18.39,1.37,1.37,0,0,1,.73,1.32c0,1-.58,1.53-1.73,1.72v0c1.4.18,2.09.78,2.09,1.82a1.65,1.65,0,0,1-.85,1.6,5.47,5.47,0,0,1-2.47.45H276v-.19h.68V75.23H276Zm2.72.2v3.22h.27a.83.83,0,0,0,.76-.33,1.92,1.92,0,0,0,.22-1v-.49a2.25,2.25,0,0,0-.19-1.08.78.78,0,0,0-.72-.31Zm0,3.42v3.51h.49a.87.87,0,0,0,.81-.4,2.45,2.45,0,0,0,.23-1.17V80a1.7,1.7,0,0,0-.28-1,1.26,1.26,0,0,0-1-.34Z" style="fill:#283c3f"/><path d="M282.89,75h3.19v.2h-.57v6.93h.57v.19h-3.19v-.19h.57V75.23h-.57Z" style="fill:#283c3f"/><path d="M293,75l.1,2.62h-.19a8.3,8.3,0,0,0-.82-1.9,1.2,1.2,0,0,0-1-.5h-.12v6.88h.89v.22H288v-.22h.89V75.25h-.14a1.18,1.18,0,0,0-1,.53,7.83,7.83,0,0,0-.8,1.87h-.2l.1-2.62Z" style="fill:#283c3f"/><path d="M296.58,82.24a1.57,1.57,0,0,0,.93-.28,1.11,1.11,0,0,0,0-1.73,4.29,4.29,0,0,0-1.24-.53,8.89,8.89,0,0,1-1.16-.39,3.21,3.21,0,0,1-.69-.44,2.09,2.09,0,0,1-.65-1.69,2.22,2.22,0,0,1,.67-1.6,2.46,2.46,0,0,1,1.81-.67,4.83,4.83,0,0,1,1.16.16,4.36,4.36,0,0,0,.75.17c.1,0,.18-.07.26-.21h.12l.07,2.11h-.17a6.25,6.25,0,0,0-1.05-1.46,1.69,1.69,0,0,0-1.19-.55,1.49,1.49,0,0,0-1,.3,1,1,0,0,0-.36.8.85.85,0,0,0,.42.76,3.77,3.77,0,0,0,1,.43l.81.23.48.18a2.29,2.29,0,0,1,.47.23,4.12,4.12,0,0,1,.39.3,1.71,1.71,0,0,1,.32.4,2.68,2.68,0,0,1-.43,3,2.54,2.54,0,0,1-1.85.69,6.56,6.56,0,0,1-1.37-.16l-.85-.15c-.1,0-.2.1-.29.31h-.14L293.71,80h.18a5.68,5.68,0,0,0,1.18,1.59A2.19,2.19,0,0,0,296.58,82.24Z" style="fill:#283c3f"/><path d="M259.87,53a1.62,1.62,0,0,0,2.18,1.43c.33,0-.94,2.82-.94,2.82L257.5,58l.09-4.56Z" style="fill:#f7956f"/><path d="M255.24,78s-.94-1.13-1.36-5.07-1-7.18.85-9.15,2.81-2.53,3.8-2.11-.85,4.93-1,5.77-.14,4.09-.14,4.09v8.16Z" style="fill:#fdccaa"/></g><g style="clip-path:url(#g)"><g style="clip-path:url(#h)"><path d="M1190.81,591.5s-61.32-31.52-70.16-35.45-16-10.33-24.65-15.58-5.46-8.83-13.55-18-17.12-11.82-23-18,2.45,1.69-25.59-18.4S978,453.93,968.61,435.14s-41.22-40.76-49.51-58-14.88-27.62-22.22-32.69-9.42-18.79-13.37-19.35-9.21-6-13-7.88a39.33,39.33,0,0,1-7.33-5.07s-20.7-15-22.59-20.66S837,278.86,833.83,273s-17.7-17.27-24.1-28.92-8.28-7.89-12.43-16.53-7-7.7-15.62-22.36-13-22-15.82-21-9,6.78-13,6.22-1.51-8.27-5.64-7.51l-4.14.75-2.82,1s-4.7-4.7-7.34-5.07-6.39-2.25-8.84-3.94.56-4-6.2-3.57-13.73,2.09-16.73,4.35l-3,2.26s-.94-2.82-7.52-3.76-7.9-1.12-10.72-.17-1.5,1.13-5.64,1.88-.18,1.32-5.63,1.89-9-2.62-14.11-4.69-2.44-1.68-7.71-2.43l-10.53-1.49c-2.63-.38-5.08-2.07-8.65-5.26a14.4,14.4,0,0,0-8.84-3.94c-2.64-.37-9.78,2.65-11.47,5.09s-8.64,4.15-13.15,7.54a58.2,58.2,0,0,0-7.7,7S533.89,210.38,511.9,214c-2.62.43-9.59,1.33-14.66-.73s-6.59-.94-7.9-1.12l-7.9-1.12s-11.27,13.17-26.86,19c-5.57,2.08-20.87,5.09-26.69,8.3s-6.95,11.1-15.4,13.93-21.61,10.36-21.61,10.36S358,239.14,355.69,236.14s-3.57-3.19-8.46-6.57-.39-6.77-11.29-5.63-15.41,4.53-20.86,5.1-11.28,3.77-11.28,3.77-13.16-1.86-20.68,3.78c0,0-8.65-5.25-15,1.9a203.78,203.78,0,0,1-40.78,22.42c-7.16,2.95-18.41,6.78-26.49,16.38-3.63,4.32-58.61,44.06-118.37,67.81-2.47,1-3.38-4.51-9-2.62s-10,4-20.31,1.15-.57-5.45-13-3.18-13,6.21-24.24,10-11.47,5.09-21,6.41-10.53-1.49-17.3-1.11-6.2,5.84-11.84,7.72-25.38-.91-35.71,5.68c-2.51,1.6-16.73,4.34-28.76,4s-10.71,9.22-19.73,6.6-11.29-5.63-16.93-3.74-10.7,9.22-14.84,10-5.45.57-12.22,1-9-2.62-10.72-.17,2.08,4.32-3.37,4.89-6.77.38-8.65,4.15,2.07,4.32-4.69,4.7-12-.36-18.8,0-23.13,2.09-31,1-7.53-3.75-14.48-2.05-24.44,1.91-25.94,3-4.32,2.07-8.65,4.14-15.4,13.93-18.22,14.88-16.73-5.06-22.37-3.18-42.48,6.07-42.48,6.07l-126.53,2.2-50.89,55.89,646.47,99.7L1169.55,746.25Z" style="fill:#abc4ab"/><path d="M263.42,446.61a104.78,104.78,0,0,0,4.72,14.1c3,7.14,11.85,11.08,17.69,17.28s12.81,23.3,18.64,29.49-.56,3.95-2.8,10.35-.75,5.26.19,8.08S322.2,553,327.09,556.34s2.26,3,17.87,16a55.21,55.21,0,0,1,18.65,29.5L455,615.42l151.73,9.43s9.78-2.65,11.65-6.41-3.58-12.59-3.58-12.59l9.56-20.13s-8.09-9.2-11.67-12.39,3.18-13,4.3-20.88-6.77-9-11.67-12.39-2.64-9.77,4.12-19.56,3-21.06,3-21.06-7.88,8.28-9.57,10.73-13,6.22-31.2,11.69-13.15,7.53-17.47,9.61-1.28,37.41-6.57,8.46-2.09-13.72-5.1-20.86,2.25-6.39,3.55-15.61.36-21.43-1.53-27.07,6-13.92,7.88-17.68,7.12-21.82,13.5-29,17.28-17.69,26.87-19,6.57-8.47,10.13-14.68S616,379.12,617.55,378s3.18-13,3.93-18.24,10.32-16,16.52-21.83,2.06-5.08,5.44-10,15-11.3,15-11.3,15,7.51,20.51,16.34,2.26,3,4.7,4.69.2,8.09,1.9,15,1.32,9.59.58,14.85l-3,21.06c-.93,6.58.21,17.49-.35,21.43s-.74,14.67,1.35,28.39,4.71,14.1,4,19.36,6.21,13,5.1,30.26,5.86,25,5.86,25,2.64,9.78,5.27,10.15,7.91,10.52,8.48,16,4.15,8.64,10.37,21.61,0,0,3.2,5.82,2.26,3,6.22,13-3.94,8.84-3.94,8.84l9.81,35-5.62,20.68s11.48,4.32,17.11,2.43,7.9,1.12,7.9,1.12,7.53,3.75,11.47,4.31,5.46-.57,7.15-3,1.11-7.9,3.74-16.93-1.53-17.67-1.53-17.67,8.84,3.94,11.29,5.63,14.86,8.82,14.86,8.82-1.11,17.3-3.73,26.32,9,2.63,10.53,1.5,5.45-.57,8.64-4.15.94-6.58,1.5-10.53,8.27-1.51,9.77-2.64a20.83,20.83,0,0,0,7.13-12.42c.93-6.58,8.45-12.23,12.77-14.3s10.15-5.28,10.15-5.28l5.44-10a34.66,34.66,0,0,1,5.25-8.65c3.19-3.58,9-6.78,9.77-12s.17-10.72.36-12-11.29-5.63-13.92-6-9-2.62-11.66-3-9-2.62-11.66-3-20.68,3.79-20.68,3.79a142.76,142.76,0,0,0-12.58,13c-4.88,6-2.62,9-1.48,19.93S808,597,802.22,600.19s-12-.36-12-.36-17.68-7.88-19.76-12.2,2.43-17.11,3-21.06-20.12-.16-20.12-.16-3.58-12.6-1.33-19-2.27-12.41-3-16.54S738.4,520,736.89,511.72s-10.92-8.26-12.43-16.54,5.63-11.28,8.82-14.86,7.5-15.05,9.94-22.76,10.14-14.67,12.57-22.38.17-20.12-1.34-28.39-8.67-14.65-9.23-10.71.76,4.14.77,13.54.19,8.08-.92,16-9,16.18-9,25.58-21,25.21-21,25.21-10.34-2.8-13.73-7.31,1.49-10.53-2.09-13.72-6.8-37.22-4.58-62.42-1.51-8.27-1.51-8.27-1.72-25.75-.8-41.73,1.5-10.53,7.87-27.08.18-10.72,1.11-17.3,5.06-16.74,6-23.32-6.4-11.65-16.18-9-19.36,4-22,3.6-7.51,5.65-8.26,10.91,7.54,13.15.21,17.49-15.61-3.56-23.88-2.05-7.13,12.42-9.57,20.13-.74,5.27-1.86,13.16S617,344.33,617,344.33l-7.33,4.34a10,10,0,0,1-4.51,3.39c-2.82.94-5.81,12.6-5.81,12.6s-5.06,16.74-9.94,22.76-6.4-2.25-11.85-1.68-1.87,3.76-9.58,10.72-11.07,11.86-15.58,15.25-8.08,9.6-17.09,16.37-1.88,3.77-4.88,15.43-3.37,4.89-10.5,17.3,0,0-1.68,11.85-8.06,28.4-10.31,34.79-.56,3.95,2.65,9.77,1.71,16.36,1.71,16.36-3.38,4.89-13.53,10.17c-4.42,2.3-6.59,4.91-7.64,7.14a15.35,15.35,0,0,0-.82-4.31c-1.88-5.64-3.21-15.23-3.21-15.23s.74-14.66,2.61-18.43-.75-4.13-2.64-9.77.92-16-5.84-15.6-.56,3.95-2.63,9-3.37,14.29-5.61,20.69,1.32,9.58.58,14.85-2.24,15.79-4.49,22.19-23.48,23.52-23.48,23.52a56.72,56.72,0,0,1-1.7-7c-.75-4.14,1.12-7.9,1.68-11.85s-6.78-9-12.8-13.9-4.14-8.64-4.14-8.64,1.12-7.9.55-13.35,7.5-15.05,9.19-17.49-5.65-7.52-13.92-6-7.88,17.68-12.38,21.07-14.1,4.71-14.1,4.71l-5.83-6.2a34.81,34.81,0,0,1,2.62-9c1.87-3.77-.38-6.77-1.7-7s-3-7.14-3-7.14l-5.46-8.83L368.2,498.39,350,494.46l-4.53-15.41-9-12,20.28-19.95,17.85-12.24,4.88-6,14.1-4.72,8.45-2.83,19.74-6.6,12.59-3.58,6-4.52L444,399s7.33-4.33,10.34-6.59,9.58-1.33,9.58-1.33l14.84-10s18.22-14.87,25-15.25,2.26,3,4.71,4.69-2.24,15.8-2.24,15.8l6.2-5.84C518.65,374.71,514,370,514,370s-.58-14.85-1.34-19,3.17-22.38,7.87-27.08,8.27-1.52,13-6.22,11.46-14.49,18.41-16.19,7.14-3,11.29,5.63-.38,2.63-4.69,14.1-10.7,9.23-13.14,16.94-1.3,9.21-5.24,18.05S535,373,532.77,388.79s-1.29,28,5.48,27.63,7.7-7,8.64-13.54,5.25-8.65,7.69-16.37,8.62-22.94,11.62-25.2,3-11.66,4.88-15.42a271.26,271.26,0,0,1,14.07-23.52c5.07-7.34,8.46-2.83,12.78-4.9s1.88-3.76,2.25-6.39,9.2-8.1,13.9-12.8,3.56-6.21,4.12-10.16,6.57-8.47,9.39-9.41,4.13-10.16,4.13-10.16,1.49-10.53,9-16.17,16.51-31.23,16.51-31.23,2.44-7.71,1.31-9.21,4.13-10.16,6.57-8.47.94,2.82,2.83,8.45,2.64,9.78-1.11,17.3,1.33,9.59.58,14.85,5.65,7.52,5.65,7.52l5.27,10.14s6.77-.38,7.52-5.64,7.88-17.68,9-25.58,3.19-3.58,5.06-7.34,3.57-6.21,4.32-11.47.37-2.63-1.7-7,2.62-9,1.67-11.84-3.94-.56-7.52-3.75-4.7-4.7-7.34-5.07l-9.21-1.31c-1.56-.22-2.13-4.06-2.34-7.16a11.34,11.34,0,0,1-3.5,1c-3.31.61-1.44,1.09-3.37,1.55l-.19,4.66-11.85-1.68c-5.26-.74-5.63,1.89-10,4s-3.76-1.88.75-5.26a14.21,14.21,0,0,0,4.27-6.28c-4.23-1.77-2.07-1.47-7.1-2.18l-10.53-1.49a10.45,10.45,0,0,1-4.19-1.72c-2.35,3.7-2,7.23-2.57,11.5-.74,5.26-5.07,7.34-7.51,5.65s-.57-5.45,0-9.4-1.7-7-1.51-8.27c.13-1-.82-4.18-1.21-6.88l-.49-.08c-2.64-.37-9.78,2.65-11.47,5.09s-8.64,4.15-13.15,7.54a58.2,58.2,0,0,0-7.7,7S533.89,210.38,511.9,214c-2.62.43-9.59,1.33-14.66-.73s-6.59-.94-7.9-1.12l-7.9-1.12s-11.27,13.17-26.86,19c-5.57,2.08-20.87,5.09-26.69,8.3s-6.95,11.1-15.4,13.93c-6.73,2.25-16.42,7.47-20.1,9.51,4,5.57,7.92,11.13,8.84,13.06,2.07,4.32,3.2,5.82,7.54,13.15s3.57,3.19,9.78,6.76,10.34,2.81,8.28,7.89-16.15,19.19-16.15,19.19,8.84-.76,11.85,6.38-.74,5.26,2.46,11.09-4.88,6-8.45,12.23-6,13.92-12,18.43S391,380.11,372.6,396.3s-8.09.2-21.42,9.05-14.66,8.66-26.31,15.07S263.42,446.61,263.42,446.61Z" style="fill:#86ac98"/></g></g><g style="clip-path:url(#i)"><g style="clip-path:url(#j)"><path d="M1718.08,590.67s-61.32-31.51-70.16-35.45-16-10.33-24.65-15.58-5.46-8.83-13.55-18-17.12-11.83-23-18,2.45,1.69-25.59-18.39-55.87-32.09-65.29-50.88-41.22-40.75-49.51-58-14.88-27.62-22.22-32.69-9.42-18.79-13.37-19.35-9.22-6-13-7.88a39.59,39.59,0,0,1-7.34-5.07s-20.69-15-22.58-20.66-3.58-12.59-6.79-18.41-17.69-17.28-24.09-28.93-8.28-7.89-12.43-16.53-7-7.7-15.63-22.36-13-22-15.81-21-9,6.78-13,6.22-1.51-8.27-5.65-7.51l-4.13.75-2.82.95s-4.7-4.7-7.34-5.07-6.39-2.25-8.84-3.94.56-3.95-6.21-3.56-13.72,2.08-16.72,4.34l-3,2.26s-.94-2.82-7.52-3.75-7.9-1.12-10.72-.18-1.5,1.13-5.64,1.88-.18,1.32-5.64,1.89-9-2.62-14.1-4.68-2.45-1.69-7.71-2.44L1163.58,169c-2.63-.38-5.08-2.06-8.66-5.26a14.36,14.36,0,0,0-8.84-3.94c-2.63-.37-9.77,2.65-11.46,5.09s-8.64,4.15-13.15,7.54a59,59,0,0,0-7.7,7s-52.61,30.14-74.6,33.74c-2.63.42-9.59,1.32-14.67-.74s-6.58-.93-7.89-1.12l-7.9-1.12s-11.27,13.17-26.87,19c-5.56,2.08-20.86,5.1-26.68,8.3s-6.95,11.1-15.4,13.93-21.61,10.36-21.61,10.36S885.22,238.32,883,235.31s-3.57-3.19-8.47-6.57-.38-6.77-11.28-5.63-15.41,4.53-20.86,5.1S831.07,232,831.07,232s-13.16-1.86-20.68,3.79c0,0-8.65-5.26-15,1.89a203.86,203.86,0,0,1-40.77,22.42c-7.16,2.95-18.42,6.79-26.49,16.38-3.63,4.32-58.61,44.06-118.37,67.81-2.47,1-3.39-4.51-9-2.62s-10,4-20.31,1.15-.57-5.45-13-3.18-13,6.22-24.25,10-11.46,5.09-21,6.41-10.53-1.49-17.3-1.11-6.2,5.84-11.84,7.72-25.38-.91-35.71,5.68c-2.51,1.6-16.73,4.35-28.76,4s-10.71,9.23-19.74,6.6-11.28-5.62-16.92-3.74-10.71,9.23-14.84,10-5.45.57-12.22,1-9-2.63-10.72-.18,2.08,4.32-3.38,4.89-6.76.38-8.64,4.15,2.07,4.32-4.69,4.7-12-.36-18.8,0-23.13,2.1-31,1-7.53-3.76-14.48-2.06-24.44,1.91-25.94,3-4.33,2.07-8.65,4.14-15.4,13.93-18.22,14.88-16.74-5.06-22.37-3.17-42.49,6.06-42.49,6.06l-126.52,2.2L-22,481.63l646.47,99.7L1696.82,745.42Z" style="fill:#abc4ab"/></g></g></svg>