<svg xmlns="http://www.w3.org/2000/svg" width="250" height="250" viewBox="0 0 250 250"><title>s10s1c40</title><path d="M.67-2V249.12H251.82V-2Zm186,122.71c7.43,7.51,7.54,18.29.07,25.83q-20.87,21-41.87,41.9-7.43,7.44-14.86,14.87c-8.62,8.57-18.8,8.63-27.4.17-.52-.51-1-1-1.84-1.84-1.58,1.59-3.08,3.11-4.61,4.61-5.14,5-10.43,5.06-15.44,0L43,168.62c-4.07-4.08-4.46-9.35-.59-13.63,3.71-4.1,7.79-7.87,12-12.06L56.54,145l52.11,52.12c5.28,5.28,9.77,5.29,15,.05,18.59-18.6,37.06-37.32,55.86-55.71,5.12-5,6-11.7-1.73-16.87l-67.6,67.61L57.62,139.67l2-2Q98.26,99,136.87,60.43c4.77-4.78,9.45-4.78,14.22,0L189.5,98.82c4.6,4.61,4.58,9.4,0,14l-5.33,5.34C185,119.06,185.83,119.86,186.63,120.67Zm22.09-39.44c-5,5-10,10-15.23,15.25l-40-40a16.63,16.63,0,0,1,1.14-1.43c4.62-4.64,9.21-9.3,13.88-13.89,5.56-5.47,13.44-5.45,19,.06q10.65,10.56,21.2,21.22A13,13,0,0,1,208.72,81.23Z" style="fill:#f7956f"/><path d="M149.6,100.05a31.47,31.47,0,1,0,0,44.51A31.48,31.48,0,0,0,149.6,100.05Zm-33.69,25.34,8.69,8.7S114.17,136.87,115.91,125.39Zm8-7.44c-2.34,2.35-5.68,2.82-7.45,1s-1.29-5.1,1.06-7.45,5.68-2.82,7.44-1S126.23,115.6,123.88,118ZM138,132c-2.35,2.34-5.68,2.81-7.45,1.05s-1.3-5.1,1.05-7.45,5.68-2.82,7.45-1S140.31,129.68,138,132Z" style="fill:#f7956f"/></svg>