<svg version="1.1" id="el_PrKsi24zQ" xmlns="http://www.w3.org/2000/svg" xmlns:xlink="http://www.w3.org/1999/xlink" x="0px" y="0px" width="186" height="186" viewBox="0 0 186 186" style="enable-background:new 0 0 186.1 186.1;" xml:space="preserve"><style>@-webkit-keyframes kf_el_Udt4wFQPSa2_an_9ANxBgTh5{0%{-webkit-transform: translate(92.3499984741211px, 92.85000228881836px) rotate(0deg) translate(-92.3499984741211px, -92.85000228881836px);transform: translate(92.3499984741211px, 92.85000228881836px) rotate(0deg) translate(-92.3499984741211px, -92.85000228881836px);}100%{-webkit-transform: translate(92.3499984741211px, 92.85000228881836px) rotate(360deg) translate(-92.3499984741211px, -92.85000228881836px);transform: translate(92.3499984741211px, 92.85000228881836px) rotate(360deg) translate(-92.3499984741211px, -92.85000228881836px);}}@keyframes kf_el_Udt4wFQPSa2_an_9ANxBgTh5{0%{-webkit-transform: translate(92.3499984741211px, 92.85000228881836px) rotate(0deg) translate(-92.3499984741211px, -92.85000228881836px);transform: translate(92.3499984741211px, 92.85000228881836px) rotate(0deg) translate(-92.3499984741211px, -92.85000228881836px);}100%{-webkit-transform: translate(92.3499984741211px, 92.85000228881836px) rotate(360deg) translate(-92.3499984741211px, -92.85000228881836px);transform: translate(92.3499984741211px, 92.85000228881836px) rotate(360deg) translate(-92.3499984741211px, -92.85000228881836px);}}#el_PrKsi24zQ *{-webkit-animation-duration: 5s;animation-duration: 5s;-webkit-animation-iteration-count: infinite;animation-iteration-count: infinite;-webkit-animation-timing-function: cubic-bezier(0, 0, 1, 1);animation-timing-function: cubic-bezier(0, 0, 1, 1);}#el_6hdYEsbWUT{fill: #355151;}#el_nIF7OOrbB1{fill: #86AC98;}#el_25tad69F1D{fill: #FFFFFF;}#el_Hbw1JtyOv_{fill: #FDCCAA;}#el_WxhSFHIChz{fill: #F7956F;}#el_GOEwYbRGSP{fill: #FDCCAA;}#el_UJ-fHF7eIh{fill: #F7956F;}#el_pggvqr9mxc{fill: #FDCCAA;}#el_ord6MJYtEZ{fill: #F7956F;}#el_JyMgTG0IIf{fill: #FDCCAA;}#el_qO7V3ipTxJl{fill: #F7956F;}#el_OCuIstQVOx8{fill: #FDCCAA;}#el_BauJmw3bq7c{fill: #F7956F;}#el_A35i_R1Q8ZV{fill: #FDCCAA;}#el_wGW43YWLg2r{fill: #F7956F;}#el_Kf0F_FgjFeW{fill: #FDCCAA;}#el_MeRuT2sPxLy{fill: #F7956F;}#el_XmGiWJj3_8q{fill: #FDCCAA;}#el_91C2qvRO9_i{fill: #F7956F;}#el_rmDOjYPa6XM{-webkit-transform: matrix(1, 0, 0, 1, 88.2128, 40.791);transform: matrix(1, 0, 0, 1, 88.2128, 40.791);}#el_zwT9bkfe5dM{-webkit-transform: matrix(-1, 0, 0, -1, 98.4394, 147.1885);transform: matrix(-1, 0, 0, -1, 98.4394, 147.1885);}#el_v55Y0py4IgM{-webkit-transform: matrix(6.123235e-17, 1, -1, 6.123235e-17, 148.1557, 89.0952);transform: matrix(6.123235e-17, 1, -1, 6.123235e-17, 148.1557, 89.0952);}#el_mukYj7c_aXm{-webkit-transform: matrix(6.123234e-17, -1, 1, 6.123234e-17, 41.2216, 100.8042);transform: matrix(6.123234e-17, -1, 1, 6.123234e-17, 41.2216, 100.8042);}#el_S3dH-SKypVC{fill: #EF1E32;}#el_vCXQRbuDm4b{fill: #283C3F;}#el_00XokX9erTK{fill: #EF1E32;}#el_sxgIdproWZR{fill: #283C3F;}#el_Udt4wFQPSa2_an_9ANxBgTh5{-webkit-animation-fill-mode: backwards;animation-fill-mode: backwards;-webkit-transform: translate(92.3499984741211px, 92.85000228881836px) rotate(0deg) translate(-92.3499984741211px, -92.85000228881836px);transform: translate(92.3499984741211px, 92.85000228881836px) rotate(0deg) translate(-92.3499984741211px, -92.85000228881836px);-webkit-animation-name: kf_el_Udt4wFQPSa2_an_9ANxBgTh5;animation-name: kf_el_Udt4wFQPSa2_an_9ANxBgTh5;-webkit-animation-timing-function: cubic-bezier(0, 0, 1, 1);animation-timing-function: cubic-bezier(0, 0, 1, 1);}</style>

<g id="el_ISUJxJF07m">
	<circle cx="92.9" cy="92.9" r="91.9" id="el_6hdYEsbWUT"/>
	<circle cx="92.9" cy="92.9" r="79.1" id="el_nIF7OOrbB1"/>
	<circle cx="92.9" cy="92.9" r="66.8" id="el_25tad69F1D"/>
	<g id="el_JdrJ6sGvGg">
		<polygon points="87.8,82.5 93.4,40.6 93.7,94 &#9;&#9;" id="el_Hbw1JtyOv_"/>
		<polygon points="93.4,40.6 99.3,82.5 93.7,94 &#9;&#9;" id="el_WxhSFHIChz"/>
	</g>
	<g id="el_tEJWLbtu44">
		<polygon points="99.3,105 93.7,146.9 93.4,93.5 &#9;&#9;" id="el_GOEwYbRGSP"/>
		<polygon points="93.7,146.9 87.8,105 93.4,93.5 &#9;&#9;" id="el_UJ-fHF7eIh"/>
	</g>
	<g id="el_c4oBRFyiTt">
		<polygon points="104.8,88 146.7,93.6 93.4,93.9 &#9;&#9;" id="el_pggvqr9mxc"/>
		<polygon points="146.7,93.6 104.8,99.5 93.4,93.9 &#9;&#9;" id="el_ord6MJYtEZ"/>
	</g>
	<g id="el_aKccy_W1nE">
		<polygon points="82.3,99.5 40.4,93.9 93.8,93.6 &#9;&#9;" id="el_JyMgTG0IIf"/>
		<polygon points="40.4,93.9 82.3,88 93.8,93.6 &#9;&#9;" id="el_qO7V3ipTxJl"/>
	</g>
	<g id="el_dCdJKOS1RXK">
		<polygon points="102,96.5 119.8,119.9 93.4,93.7 &#9;&#9;" id="el_OCuIstQVOx8"/>
		<polygon points="119.8,119.9 96.3,102.1 93.4,93.7 &#9;&#9;" id="el_BauJmw3bq7c"/>
	</g>
	<g id="el_V8qz0twdDmV">
		<polygon points="85.2,91 67.3,67.6 93.7,93.8 &#9;&#9;" id="el_A35i_R1Q8ZV"/>
		<polygon points="67.3,67.6 90.8,85.3 93.7,93.8 &#9;&#9;" id="el_wGW43YWLg2r"/>
	</g>
	<g id="el_nXaBHgaluNE">
		<polygon points="90.8,102.1 67.4,120 93.6,93.6 &#9;&#9;" id="el_Kf0F_FgjFeW"/>
		<polygon points="67.4,120 85.2,96.5 93.6,93.6 &#9;&#9;" id="el_MeRuT2sPxLy"/>
	</g>
	<g id="el_CEvL7JqkO1d">
		<polygon points="96.3,85.3 119.7,67.5 93.5,93.9 &#9;&#9;" id="el_XmGiWJj3_8q"/>
		<polygon points="119.7,67.5 102,91 93.5,93.9 &#9;&#9;" id="el_91C2qvRO9_i"/>
	</g>
	<text id="el_rmDOjYPa6XM">N</text>
	<text id="el_zwT9bkfe5dM">S</text>
	<text id="el_v55Y0py4IgM">E</text>
	<text id="el_mukYj7c_aXm">W</text>
</g>
<g id="el_Udt4wFQPSa2_an_9ANxBgTh5" data-animator-group="true" data-animator-type="1"><g id="el_Udt4wFQPSa2">
	<polygon points="98.2,95 98.2,95 113.7,34.4 88.3,91 88.3,91.1 &#9;" id="el_S3dH-SKypVC"/>
	<polygon points="98.2,94.9 98.2,95 71,151.3 88.3,91.1 88.3,91.1 &#9;" id="el_vCXQRbuDm4b"/>
	<circle cx="93.3" cy="93.4" r="8.3" id="el_00XokX9erTK"/>
	<circle cx="93.3" cy="93.4" r="5.2" id="el_sxgIdproWZR"/>
</g></g>
</svg>