<svg xmlns="http://www.w3.org/2000/svg" xmlns:xlink="http://www.w3.org/1999/xlink" width="399.6" height="200" viewBox="0 0 399.6 200"><defs><clipPath id="a"><rect x="682.31" y="419.56" width="412.44" height="392.73" rx="27.73" transform="translate(6.85 -9.76) rotate(0.63)" style="fill:none"/></clipPath><clipPath id="b"><rect x="673.71" y="396.16" width="431.04" height="426.71" transform="translate(6.78 -9.77) rotate(0.63)" style="fill:none"/></clipPath><clipPath id="c"><rect x="-376.75" y="405.05" width="412.44" height="392.73" rx="27.73" transform="translate(82.72 29.89) rotate(8.07)" style="fill:none"/></clipPath><clipPath id="d"><rect x="-384.53" y="381.8" width="431.04" height="426.71" transform="translate(81.86 29.61) rotate(8.07)" style="fill:none"/></clipPath><clipPath id="e"><rect x="150.52" y="404.22" width="412.44" height="392.73" rx="27.73" transform="translate(87.82 -44.12) rotate(8.07)" style="fill:none"/></clipPath><clipPath id="f"><rect x="142.74" y="380.97" width="431.04" height="426.71" transform="translate(86.96 -44.4) rotate(8.07)" style="fill:none"/></clipPath><clipPath id="g"><rect x="-0.13" y="-1" width="400" height="201" style="fill:none"/></clipPath><pattern id="h" width="72" height="72" patternTransform="translate(258.25 130.12) scale(0.31)" patternUnits="userSpaceOnUse" viewBox="0 0 72 72"><rect width="72" height="72" style="fill:none"/><line x1="54" y1="71.75" x2="54" y2="144.25" style="fill:none;stroke:#1d1d1b;stroke-width:6px"/><line x1="18" y1="71.75" x2="18" y2="144.25" style="fill:none;stroke:#1d1d1b;stroke-width:6px"/><line x1="62" y1="71.75" x2="62" y2="144.25" style="fill:none;stroke:#1d1d1b;stroke-width:2px"/><line x1="26" y1="71.75" x2="26" y2="144.25" style="fill:none;stroke:#1d1d1b;stroke-width:2px"/><line x1="71.75" y1="18" x2="144.25" y2="18" style="fill:none;stroke:#1d1d1b;stroke-width:6px"/><line x1="71.75" y1="54" x2="144.25" y2="54" style="fill:none;stroke:#1d1d1b;stroke-width:6px"/><line x1="-0.25" y1="18" x2="72.25" y2="18" style="fill:none;stroke:#1d1d1b;stroke-width:6px"/><line x1="54" y1="-0.25" x2="54" y2="72.25" style="fill:none;stroke:#1d1d1b;stroke-width:6px"/><line x1="-0.25" y1="54" x2="72.25" y2="54" style="fill:none;stroke:#1d1d1b;stroke-width:6px"/><line x1="18" y1="-0.25" x2="18" y2="72.25" style="fill:none;stroke:#1d1d1b;stroke-width:6px"/><line x1="62" y1="-0.25" x2="62" y2="72.25" style="fill:none;stroke:#1d1d1b;stroke-width:2px"/><line x1="26" y1="-0.25" x2="26" y2="72.25" style="fill:none;stroke:#1d1d1b;stroke-width:2px"/><line x1="73.25" y1="26" x2="0.75" y2="26" style="fill:none;stroke:#1d1d1b;stroke-width:2px"/><line x1="73.25" y1="62" x2="0.75" y2="62" style="fill:none;stroke:#1d1d1b;stroke-width:2px"/><line x1="-72.25" y1="18" x2="0.25" y2="18" style="fill:none;stroke:#1d1d1b;stroke-width:6px"/><line x1="-72.25" y1="54" x2="0.25" y2="54" style="fill:none;stroke:#1d1d1b;stroke-width:6px"/><line x1="1.25" y1="26" x2="-71.25" y2="26" style="fill:none;stroke:#1d1d1b;stroke-width:2px"/><line x1="1.25" y1="62" x2="-71.25" y2="62" style="fill:none;stroke:#1d1d1b;stroke-width:2px"/><line x1="54" y1="-72.25" x2="54" y2="0.25" style="fill:none;stroke:#1d1d1b;stroke-width:6px"/><line x1="18" y1="-72.25" x2="18" y2="0.25" style="fill:none;stroke:#1d1d1b;stroke-width:6px"/><line x1="62" y1="-72.25" x2="62" y2="0.25" style="fill:none;stroke:#1d1d1b;stroke-width:2px"/><line x1="26" y1="-72.25" x2="26" y2="0.25" style="fill:none;stroke:#1d1d1b;stroke-width:2px"/></pattern><pattern id="i" width="65.25" height="65.25" patternTransform="translate(464.32 103.04) scale(0.85)" patternUnits="userSpaceOnUse" viewBox="0 0 65.25 65.25"><rect width="65.25" height="65.25" style="fill:none"/><line x1="67.55" y1="61.59" x2="62.02" y2="65.89" style="fill:none;stroke:#fff;stroke-linecap:square"/><line x1="70" y1="64.75" x2="64.47" y2="69.05" style="fill:none;stroke:#fff;stroke-linecap:square"/><line x1="47.19" y1="62.53" x2="43.5" y2="68" style="fill:none;stroke:#fff;stroke-linecap:square"/><line x1="49.93" y1="65.44" x2="44.83" y2="70.23" style="fill:none;stroke:#fff;stroke-linecap:square"/><line x1="53.13" y1="64.47" x2="55.5" y2="70.25" style="fill:none;stroke:#fff;stroke-linecap:square"/><line x1="56.25" y1="63.25" x2="59" y2="70" style="fill:none;stroke:#fff;stroke-linecap:square"/><line x1="28" y1="63.75" x2="22.31" y2="68.13" style="fill:none;stroke:#fff;stroke-linecap:square"/><line x1="32" y1="64.75" x2="25.3" y2="70.79" style="fill:none;stroke:#fff;stroke-linecap:square"/><line x1="9.25" y1="64.5" x2="9" y2="66" style="fill:none;stroke:#fff;stroke-linecap:square"/><line x1="14.22" y1="62.67" x2="18.5" y2="68.5" style="fill:none;stroke:#fff;stroke-linecap:square"/><line x1="17.05" y1="59.84" x2="21.33" y2="65.67" style="fill:none;stroke:#fff;stroke-linecap:square"/><line x1="38.75" y1="62.75" x2="39.25" y2="69.25" style="fill:none;stroke:#fff;stroke-linecap:square"/><line x1="36" y1="62" x2="34.5" y2="68.75" style="fill:none;stroke:#fff;stroke-linecap:square"/><line x1="2.3" y1="61.59" x2="-3.23" y2="65.89" style="fill:none;stroke:#fff;stroke-linecap:square"/><line x1="4.75" y1="64.75" x2="-0.78" y2="69.05" style="fill:none;stroke:#fff;stroke-linecap:square"/><line x1="65.82" y1="6.97" x2="72" y2="10.25" style="fill:none;stroke:#fff;stroke-linecap:square"/><line x1="22.49" y1="23.04" x2="19.25" y2="29.25" style="fill:none;stroke:#fff;stroke-linecap:square"/><line x1="36.42" y1="43.45" x2="44" y2="45.5" style="fill:none;stroke:#fff;stroke-linecap:square"/><line x1="37.5" y1="40.5" x2="45.25" y2="41.75" style="fill:none;stroke:#fff;stroke-linecap:square"/><line x1="30" y1="60.75" x2="32.75" y2="55.5" style="fill:none;stroke:#fff;stroke-linecap:square"/><line x1="26.5" y1="60.25" x2="29.52" y2="54.46" style="fill:none;stroke:#fff;stroke-linecap:square"/><line x1="46" y1="55.5" x2="41.25" y2="59" style="fill:none;stroke:#fff;stroke-linecap:square"/><line x1="47.25" y1="58" x2="43.5" y2="62" style="fill:none;stroke:#fff;stroke-linecap:square"/><line x1="49.88" y1="46.3" x2="50.78" y2="53.25" style="fill:none;stroke:#fff;stroke-linecap:square"/><line x1="45.98" y1="47.21" x2="47.53" y2="53.75" style="fill:none;stroke:#fff;stroke-linecap:square"/><line x1="14.22" y1="62.67" x2="18.5" y2="68.5" style="fill:none;stroke:#fff;stroke-linecap:square"/><line x1="17.05" y1="59.84" x2="21.33" y2="65.67" style="fill:none;stroke:#fff;stroke-linecap:square"/><line x1="20.53" y1="48.64" x2="23.96" y2="54.74" style="fill:none;stroke:#fff;stroke-linecap:square"/><line x1="24.23" y1="47.13" x2="26.88" y2="53.61" style="fill:none;stroke:#fff;stroke-linecap:square"/><line x1="33" y1="44.5" x2="27.75" y2="47.5" style="fill:none;stroke:#fff;stroke-linecap:square"/><line x1="35.5" y1="47.75" x2="29.75" y2="49.75" style="fill:none;stroke:#fff;stroke-linecap:square"/><line x1="47.19" y1="62.53" x2="43.5" y2="68" style="fill:none;stroke:#fff;stroke-linecap:square"/><line x1="49.93" y1="65.44" x2="44.83" y2="70.23" style="fill:none;stroke:#fff;stroke-linecap:square"/><line x1="53.13" y1="64.47" x2="55.5" y2="70.25" style="fill:none;stroke:#fff;stroke-linecap:square"/><line x1="28" y1="63.75" x2="22.31" y2="68.13" style="fill:none;stroke:#fff;stroke-linecap:square"/><line x1="32" y1="64.75" x2="25.3" y2="70.79" style="fill:none;stroke:#fff;stroke-linecap:square"/><line x1="21.5" y1="58.25" x2="22" y2="59.5" style="fill:none;stroke:#fff;stroke-linecap:square"/><line x1="37.75" y1="60.25" x2="38.75" y2="61.25" style="fill:none;stroke:#fff;stroke-linecap:square"/><line x1="38.75" y1="62.75" x2="39.25" y2="69.25" style="fill:none;stroke:#fff;stroke-linecap:square"/><line x1="36" y1="62" x2="34.5" y2="68.75" style="fill:none;stroke:#fff;stroke-linecap:square"/><line x1="53.28" y1="50" x2="54.53" y2="49.5" style="fill:none;stroke:#fff;stroke-linecap:square"/><line x1="32.5" y1="50.5" x2="32.75" y2="52" style="fill:none;stroke:#fff;stroke-linecap:square"/><line x1="50.5" y1="62" x2="51.75" y2="62" style="fill:none;stroke:#fff;stroke-linecap:square"/><line x1="33.75" y1="60" x2="32.75" y2="61.75" style="fill:none;stroke:#fff;stroke-linecap:square"/><line x1="38" y1="47.25" x2="39.25" y2="46.75" style="fill:none;stroke:#fff;stroke-linecap:square"/><line x1="40.24" y1="55.47" x2="35.81" y2="52.75" style="fill:none;stroke:#fff;stroke-linecap:square"/><line x1="42.97" y1="53.07" x2="36.62" y2="50.14" style="fill:none;stroke:#fff;stroke-linecap:square"/><line x1="35.5" y1="55.75" x2="36.75" y2="56" style="fill:none;stroke:#fff;stroke-linecap:square"/><line x1="42.28" y1="49" x2="43.53" y2="49.25" style="fill:none;stroke:#fff;stroke-linecap:square"/><line x1="18.63" y1="54.25" x2="20.25" y2="53.75" style="fill:none;stroke:#fff;stroke-linecap:square"/><line x1="26.99" y1="8.45" x2="27.13" y2="15.45" style="fill:none;stroke:#fff;stroke-linecap:square"/><line x1="30.99" y1="8.38" x2="30.25" y2="15" style="fill:none;stroke:#fff;stroke-linecap:square"/><line x1="43.64" y1="27.73" x2="50.13" y2="30.38" style="fill:none;stroke:#fff;stroke-linecap:square"/><line x1="45.15" y1="24.03" x2="51.63" y2="26.67" style="fill:none;stroke:#fff;stroke-linecap:square"/><line x1="27.12" y1="23.58" x2="31.89" y2="19.94" style="fill:none;stroke:#fff;stroke-linecap:square"/><line x1="24.09" y1="21.57" x2="30" y2="17.82" style="fill:none;stroke:#fff;stroke-linecap:square"/><line x1="18.5" y1="41.38" x2="11.72" y2="43.13" style="fill:none;stroke:#fff;stroke-linecap:square"/><line x1="19.25" y1="45" x2="12.47" y2="46.76" style="fill:none;stroke:#fff;stroke-linecap:square"/><line x1="19.69" y1="21.19" x2="16.45" y2="27.4" style="fill:none;stroke:#fff;stroke-linecap:square"/><line x1="8.74" y1="9.89" x2="10.07" y2="16.76" style="fill:none;stroke:#fff;stroke-linecap:square"/><line x1="12.66" y1="9.13" x2="14" y2="16" style="fill:none;stroke:#fff;stroke-linecap:square"/><line x1="0.57" y1="6.97" x2="6.75" y2="10.25" style="fill:none;stroke:#fff;stroke-linecap:square"/><line x1="3.5" y1="16.5" x2="2.32" y2="22.49" style="fill:none;stroke:#fff;stroke-linecap:square"/><line x1="7.57" y1="16.38" x2="6.25" y2="23.25" style="fill:none;stroke:#fff;stroke-linecap:square"/><line x1="56.37" y1="44.2" x2="58.78" y2="51.75" style="fill:none;stroke:#fff;stroke-linecap:square"/><line x1="60.53" y1="44.25" x2="61.28" y2="50.75" style="fill:none;stroke:#fff;stroke-linecap:square"/><line x1="53.03" y1="36.46" x2="49.02" y2="42.2" style="fill:none;stroke:#fff;stroke-linecap:square"/><line x1="55.77" y1="37.79" x2="54.03" y2="43.25" style="fill:none;stroke:#fff;stroke-linecap:square"/><line x1="26.95" y1="27.8" x2="27.75" y2="34.75" style="fill:none;stroke:#fff;stroke-linecap:square"/><line x1="29.93" y1="26.99" x2="31.63" y2="33.78" style="fill:none;stroke:#fff;stroke-linecap:square"/><line x1="52.81" y1="4.88" x2="46.46" y2="7.84" style="fill:none;stroke:#fff;stroke-linecap:square"/><line x1="54.25" y1="7.75" x2="48.16" y2="11.46" style="fill:none;stroke:#fff;stroke-linecap:square"/><line x1="17.65" y1="12.48" x2="19.25" y2="19" style="fill:none;stroke:#fff;stroke-linecap:square"/><line x1="19.73" y1="10.2" x2="22.83" y2="16.48" style="fill:none;stroke:#fff;stroke-linecap:square"/><line x1="37.5" y1="14.25" x2="34" y2="20.5" style="fill:none;stroke:#fff;stroke-linecap:square"/><line x1="40.13" y1="15.42" x2="36.19" y2="21.2" style="fill:none;stroke:#fff;stroke-linecap:square"/><line x1="50" y1="15.75" x2="43.75" y2="18.25" style="fill:none;stroke:#fff;stroke-linecap:square"/><line x1="50.5" y1="20.25" x2="44.25" y2="20.5" style="fill:none;stroke:#fff;stroke-linecap:square"/><line x1="56.22" y1="17.42" x2="54.53" y2="23.75" style="fill:none;stroke:#fff;stroke-linecap:square"/><line x1="58.95" y1="19.91" x2="55.47" y2="25.98" style="fill:none;stroke:#fff;stroke-linecap:square"/><line x1="57.14" y1="53.16" x2="50.8" y2="56.13" style="fill:none;stroke:#fff;stroke-linecap:square"/><line x1="58.84" y1="56.78" x2="52.5" y2="59.75" style="fill:none;stroke:#fff;stroke-linecap:square"/><line x1="47.25" y1="37" x2="43" y2="32.25" style="fill:none;stroke:#fff;stroke-linecap:square"/><line x1="44.5" y1="37.75" x2="39.68" y2="33.34" style="fill:none;stroke:#fff;stroke-linecap:square"/><line x1="30.53" y1="39.25" x2="34.5" y2="34.25" style="fill:none;stroke:#fff;stroke-linecap:square"/><line x1="32.93" y1="42.45" x2="37.25" y2="36.5" style="fill:none;stroke:#fff;stroke-linecap:square"/><line x1="22.43" y1="31.52" x2="15.47" y2="30.78" style="fill:none;stroke:#fff;stroke-linecap:square"/><line x1="21.5" y1="34.75" x2="14.66" y2="33.28" style="fill:none;stroke:#fff;stroke-linecap:square"/><line x1="6.75" y1="36.75" x2="12.35" y2="40.95" style="fill:none;stroke:#fff;stroke-linecap:square"/><line x1="9.15" y1="33.55" x2="14.75" y2="37.75" style="fill:none;stroke:#fff;stroke-linecap:square"/><line x1="13.99" y1="49.49" x2="13.42" y2="56.47" style="fill:none;stroke:#fff;stroke-linecap:square"/><line x1="17.75" y1="50" x2="16.81" y2="57.42" style="fill:none;stroke:#fff;stroke-linecap:square"/><line x1="20.17" y1="40.33" x2="25.12" y2="45.28" style="fill:none;stroke:#fff;stroke-linecap:square"/><line x1="23" y1="37.5" x2="27.95" y2="42.45" style="fill:none;stroke:#fff;stroke-linecap:square"/><line x1="8.5" y1="46.25" x2="3.93" y2="50.46" style="fill:none;stroke:#fff;stroke-linecap:square"/><line x1="10.78" y1="48.7" x2="5.25" y2="53" style="fill:none;stroke:#fff;stroke-linecap:square"/><line x1="56.12" y1="14.59" x2="63.1" y2="13.99" style="fill:none;stroke:#fff;stroke-linecap:square"/><line x1="56.25" y1="11.25" x2="62.75" y2="10" style="fill:none;stroke:#fff;stroke-linecap:square"/><line x1="36.25" y1="23.25" x2="37" y2="30.25" style="fill:none;stroke:#fff;stroke-linecap:square"/><line x1="40.25" y1="23.25" x2="39.75" y2="28.75" style="fill:none;stroke:#fff;stroke-linecap:square"/><line x1="11.96" y1="1.11" x2="9.1" y2="6.08" style="fill:none;stroke:#fff;stroke-linecap:square"/><line x1="6.46" y1="32.23" x2="12.21" y2="28.24" style="fill:none;stroke:#fff;stroke-linecap:square"/><line x1="4.18" y1="28.94" x2="9.94" y2="24.95" style="fill:none;stroke:#fff;stroke-linecap:square"/><line x1="4.14" y1="58.23" x2="8.5" y2="62.5" style="fill:none;stroke:#fff;stroke-linecap:square"/><line x1="6.57" y1="56.56" x2="10.5" y2="60" style="fill:none;stroke:#fff;stroke-linecap:square"/><line x1="60.75" y1="22.25" x2="65.07" y2="27.76" style="fill:none;stroke:#fff;stroke-linecap:square"/><line x1="63.4" y1="20.03" x2="67.72" y2="25.54" style="fill:none;stroke:#fff;stroke-linecap:square"/><line x1="58.5" y1="28.63" x2="51.72" y2="30.38" style="fill:none;stroke:#fff;stroke-linecap:square"/><line x1="59.5" y1="32.5" x2="52.72" y2="34.26" style="fill:none;stroke:#fff;stroke-linecap:square"/><line x1="15.75" y1="19.5" x2="8.84" y2="19.07" style="fill:none;stroke:#fff;stroke-linecap:square"/><line x1="16.25" y1="22.25" x2="9.3" y2="23.04" style="fill:none;stroke:#fff;stroke-linecap:square"/><line x1="60.26" y1="55.7" x2="64.19" y2="61.5" style="fill:none;stroke:#fff;stroke-linecap:square"/><line x1="63.57" y1="53.46" x2="67.5" y2="59.25" style="fill:none;stroke:#fff;stroke-linecap:square"/><line x1="63.75" y1="30.75" x2="60.04" y2="35.09" style="fill:none;stroke:#fff;stroke-linecap:square"/><line x1="67.13" y1="31.26" x2="63.44" y2="37.2" style="fill:none;stroke:#fff;stroke-linecap:square"/><line x1="67.55" y1="61.59" x2="62.02" y2="65.89" style="fill:none;stroke:#fff;stroke-linecap:square"/><line x1="56.25" y1="63.25" x2="59" y2="70" style="fill:none;stroke:#fff;stroke-linecap:square"/><line x1="63.94" y1="10.5" x2="70.13" y2="13.78" style="fill:none;stroke:#fff;stroke-linecap:square"/><line x1="16.58" y1="9.47" x2="21" y2="6.75" style="fill:none;stroke:#fff;stroke-linecap:square"/><line x1="13.84" y1="7.07" x2="20.2" y2="4.14" style="fill:none;stroke:#fff;stroke-linecap:square"/><line x1="36.13" y1="8.13" x2="40.88" y2="12.88" style="fill:none;stroke:#fff;stroke-linecap:square"/><line x1="39.27" y1="5.66" x2="43.59" y2="11.17" style="fill:none;stroke:#fff;stroke-linecap:square"/><line x1="67.73" y1="39.48" x2="62.5" y2="42" style="fill:none;stroke:#fff;stroke-linecap:square"/><line x1="70.56" y1="42.08" x2="64.45" y2="45.49" style="fill:none;stroke:#fff;stroke-linecap:square"/><line x1="30" y1="3.75" x2="31.25" y2="4" style="fill:none;stroke:#fff;stroke-linecap:square"/><line x1="29.25" y1="6.75" x2="29" y2="6" style="fill:none;stroke:#fff;stroke-linecap:square"/><line x1="34" y1="12.25" x2="34.75" y2="11.75" style="fill:none;stroke:#fff;stroke-linecap:square"/><line x1="45" y1="10" x2="46.25" y2="10" style="fill:none;stroke:#fff;stroke-linecap:square"/><line x1="51.75" y1="14.5" x2="52.5" y2="15.25" style="fill:none;stroke:#fff;stroke-linecap:square"/><line x1="60.75" y1="18" x2="61.5" y2="17.25" style="fill:none;stroke:#fff;stroke-linecap:square"/><line x1="62.25" y1="5.75" x2="61.75" y2="6.75" style="fill:none;stroke:#fff;stroke-linecap:square"/><line x1="6" y1="13.5" x2="6.75" y2="14" style="fill:none;stroke:#fff;stroke-linecap:square"/><line x1="12.25" y1="30.75" x2="12.25" y2="31.5" style="fill:none;stroke:#fff;stroke-linecap:square"/><line x1="5.5" y1="34.75" x2="4" y2="34.75" style="fill:none;stroke:#fff;stroke-linecap:square"/><line x1="9.75" y1="54.5" x2="10.25" y2="53.25" style="fill:none;stroke:#fff;stroke-linecap:square"/><line x1="18.25" y1="37.75" x2="17.5" y2="36.75" style="fill:none;stroke:#fff;stroke-linecap:square"/><line x1="49.25" y1="34.25" x2="50" y2="33.5" style="fill:none;stroke:#fff;stroke-linecap:square"/><line x1="39.28" y1="37" x2="39.78" y2="38" style="fill:none;stroke:#fff;stroke-linecap:square"/><line x1="25.5" y1="18.75" x2="26.25" y2="18" style="fill:none;stroke:#fff;stroke-linecap:square"/><line x1="23.25" y1="27.75" x2="24.5" y2="28.5" style="fill:none;stroke:#fff;stroke-linecap:square"/><line x1="9.25" y1="64.5" x2="9" y2="66" style="fill:none;stroke:#fff;stroke-linecap:square"/><line x1="38.25" y1="33.75" x2="37.75" y2="32.5" style="fill:none;stroke:#fff;stroke-linecap:square"/><line x1="67.55" y1="-3.66" x2="62.02" y2="0.64" style="fill:none;stroke:#fff;stroke-linecap:square"/><line x1="70" y1="-0.5" x2="64.47" y2="3.8" style="fill:none;stroke:#fff;stroke-linecap:square"/><line x1="47.19" y1="-2.72" x2="43.5" y2="2.75" style="fill:none;stroke:#fff;stroke-linecap:square"/><line x1="49.93" y1="0.19" x2="44.83" y2="4.98" style="fill:none;stroke:#fff;stroke-linecap:square"/><line x1="53.13" y1="-0.78" x2="55.5" y2="5" style="fill:none;stroke:#fff;stroke-linecap:square"/><line x1="56.25" y1="-2" x2="59" y2="4.75" style="fill:none;stroke:#fff;stroke-linecap:square"/><line x1="28" y1="-1.5" x2="22.31" y2="2.88" style="fill:none;stroke:#fff;stroke-linecap:square"/><line x1="32" y1="-0.5" x2="25.3" y2="5.54" style="fill:none;stroke:#fff;stroke-linecap:square"/><line x1="9.25" y1="-0.75" x2="9" y2="0.75" style="fill:none;stroke:#fff;stroke-linecap:square"/><line x1="14.22" y1="-2.58" x2="18.5" y2="3.25" style="fill:none;stroke:#fff;stroke-linecap:square"/><line x1="17.05" y1="-5.41" x2="21.33" y2="0.42" style="fill:none;stroke:#fff;stroke-linecap:square"/><line x1="58.53" y1="59.5" x2="59.03" y2="60.75" style="fill:none;stroke:#fff;stroke-linecap:square"/><line x1="38.75" y1="-2.5" x2="39.25" y2="4" style="fill:none;stroke:#fff;stroke-linecap:square"/><line x1="36" y1="-3.25" x2="34.5" y2="3.5" style="fill:none;stroke:#fff;stroke-linecap:square"/><line x1="45.75" y1="13.75" x2="46.5" y2="14.5" style="fill:none;stroke:#fff;stroke-linecap:square"/><line x1="32.75" y1="25.5" x2="34" y2="25.75" style="fill:none;stroke:#fff;stroke-linecap:square"/><line x1="63.5" y1="51" x2="64.25" y2="50.25" style="fill:none;stroke:#fff;stroke-linecap:square"/><line x1="8.25" y1="1.75" x2="4.85" y2="6.08" style="fill:none;stroke:#fff;stroke-linecap:square"/><line x1="61.5" y1="38.25" x2="62.75" y2="38.5" style="fill:none;stroke:#fff;stroke-linecap:square"/><line x1="23.25" y1="10" x2="24.25" y2="10.75" style="fill:none;stroke:#fff;stroke-linecap:square"/><line x1="36.25" y1="4.5" x2="36.5" y2="5.75" style="fill:none;stroke:#fff;stroke-linecap:square"/><line x1="11" y1="8.5" x2="11.5" y2="7" style="fill:none;stroke:#fff;stroke-linecap:square"/><line x1="3.25" y1="3.75" x2="3.25" y2="3.75" style="fill:none;stroke:#fff;stroke-linecap:round"/><line x1="6.25" y1="7" x2="6.25" y2="7" style="fill:none;stroke:#fff;stroke-linecap:round"/><line x1="13" y1="1.5" x2="13" y2="1.5" style="fill:none;stroke:#fff;stroke-linecap:round"/><line x1="23.25" y1="8.5" x2="23.25" y2="8.5" style="fill:none;stroke:#fff;stroke-linecap:round"/><line x1="17" y1="15.25" x2="17" y2="15.25" style="fill:none;stroke:#fff;stroke-linecap:round"/><line x1="14.5" y1="25" x2="14.5" y2="25" style="fill:none;stroke:#fff;stroke-linecap:round"/><line x1="3.75" y1="24" x2="3.75" y2="24" style="fill:none;stroke:#fff;stroke-linecap:round"/><line x1="20.5" y1="36" x2="20.5" y2="36" style="fill:none;stroke:#fff;stroke-linecap:round"/><line x1="25.75" y1="31.75" x2="25.75" y2="31.75" style="fill:none;stroke:#fff;stroke-linecap:round"/><line x1="33.5" y1="23.25" x2="33.5" y2="23.25" style="fill:none;stroke:#fff;stroke-linecap:round"/><line x1="28" y1="40.25" x2="28" y2="40.25" style="fill:none;stroke:#fff;stroke-linecap:round"/><line x1="32.75" y1="43" x2="32.75" y2="43" style="fill:none;stroke:#fff;stroke-linecap:round"/><line x1="18.75" y1="47.25" x2="18.75" y2="47.25" style="fill:none;stroke:#fff;stroke-linecap:round"/><line x1="42" y1="24.75" x2="42" y2="24.75" style="fill:none;stroke:#fff;stroke-linecap:round"/><line x1="41.75" y1="16.25" x2="41.75" y2="16.25" style="fill:none;stroke:#fff;stroke-linecap:round"/><line x1="58.25" y1="7.5" x2="58.25" y2="7.5" style="fill:none;stroke:#fff;stroke-linecap:round"/><line x1="50.25" y1="4" x2="50.25" y2="4" style="fill:none;stroke:#fff;stroke-linecap:round"/><line x1="61" y1="27.25" x2="61" y2="27.25" style="fill:none;stroke:#fff;stroke-linecap:round"/><line x1="59.5" y1="38.25" x2="59.5" y2="38.25" style="fill:none;stroke:#fff;stroke-linecap:round"/><line x1="54" y1="45" x2="54" y2="45" style="fill:none;stroke:#fff;stroke-linecap:round"/><line x1="57.5" y1="55" x2="57.5" y2="55" style="fill:none;stroke:#fff;stroke-linecap:round"/><line x1="50" y1="59.75" x2="50" y2="59.75" style="fill:none;stroke:#fff;stroke-linecap:round"/><line x1="28.5" y1="61" x2="28.5" y2="61" style="fill:none;stroke:#fff;stroke-linecap:round"/><line x1="39.5" y1="63.5" x2="39.5" y2="63.5" style="fill:none;stroke:#fff;stroke-linecap:round"/><line x1="25.25" y1="15.75" x2="25.25" y2="15.75" style="fill:none;stroke:#fff;stroke-linecap:round"/><line x1="10.75" y1="62.75" x2="10.75" y2="62.75" style="fill:none;stroke:#fff;stroke-linecap:round"/><line x1="0.75" y1="51.5" x2="0.75" y2="51.5" style="fill:none;stroke:#fff;stroke-linecap:round"/><line x1="3.75" y1="44.25" x2="3.75" y2="44.25" style="fill:none;stroke:#fff;stroke-linecap:round"/><line x1="9" y1="40.5" x2="9" y2="40.5" style="fill:none;stroke:#fff;stroke-linecap:round"/><line x1="9.75" y1="44.25" x2="9.75" y2="44.25" style="fill:none;stroke:#fff;stroke-linecap:round"/><line x1="50.75" y1="22.5" x2="50.75" y2="22.5" style="fill:none;stroke:#fff;stroke-linecap:round"/><line x1="48" y1="32.25" x2="48" y2="32.25" style="fill:none;stroke:#fff;stroke-linecap:round"/><line x1="46.25" y1="40.5" x2="46.25" y2="40.5" style="fill:none;stroke:#fff;stroke-linecap:round"/><line x1="27.75" y1="24.75" x2="27.75" y2="24.75" style="fill:none;stroke:#fff;stroke-linecap:round"/><line x1="24.25" y1="55.5" x2="24.25" y2="55.5" style="fill:none;stroke:#fff;stroke-linecap:round"/><line x1="24.25" y1="63.5" x2="24.25" y2="63.5" style="fill:none;stroke:#fff;stroke-linecap:round"/><line x1="18.88" y1="59.5" x2="18.88" y2="59.5" style="fill:none;stroke:#fff;stroke-linecap:round"/><line x1="26.63" y1="37" x2="26.63" y2="37" style="fill:none;stroke:#fff;stroke-linecap:round"/><line x1="61" y1="62" x2="61" y2="62" style="fill:none;stroke:#fff;stroke-linecap:round"/><line x1="4.5" y1="56" x2="4.5" y2="56" style="fill:none;stroke:#fff;stroke-linecap:round"/><line x1="33.75" y1="29.75" x2="33.75" y2="29.75" style="fill:none;stroke:#fff;stroke-linecap:round"/><line x1="33.25" y1="14.75" x2="33.25" y2="14.75" style="fill:none;stroke:#fff;stroke-linecap:round"/><line x1="34.5" y1="8" x2="34.5" y2="8" style="fill:none;stroke:#fff;stroke-linecap:round"/><line x1="49.75" y1="55.75" x2="49.75" y2="55.75" style="fill:none;stroke:#fff;stroke-linecap:round"/><line x1="49" y1="44.75" x2="49" y2="44.75" style="fill:none;stroke:#fff;stroke-linecap:round"/><line x1="62.75" y1="47.25" x2="62.75" y2="47.25" style="fill:none;stroke:#fff;stroke-linecap:round"/><line x1="52.25" y1="17.5" x2="52.25" y2="17.5" style="fill:none;stroke:#fff;stroke-linecap:round"/><line x1="53" y1="19.25" x2="53" y2="19.25" style="fill:none;stroke:#fff;stroke-linecap:round"/><line x1="53.25" y1="10.5" x2="53.25" y2="10.5" style="fill:none;stroke:#fff;stroke-linecap:round"/><line x1="40" y1="19.75" x2="40" y2="19.75" style="fill:none;stroke:#fff;stroke-linecap:round"/><line x1="49" y1="27.25" x2="49" y2="27.25" style="fill:none;stroke:#fff;stroke-linecap:round"/><line x1="59.5" y1="24" x2="59.5" y2="24" style="fill:none;stroke:#fff;stroke-linecap:round"/><line x1="61" y1="31.25" x2="61" y2="31.25" style="fill:none;stroke:#fff;stroke-linecap:round"/><line x1="1" y1="16.25" x2="1" y2="16.25" style="fill:none;stroke:#fff;stroke-linecap:round"/><line x1="-4.5" y1="22.25" x2="-0.18" y2="27.76" style="fill:none;stroke:#fff;stroke-linecap:square"/><line x1="-1.85" y1="20.03" x2="2.47" y2="25.54" style="fill:none;stroke:#fff;stroke-linecap:square"/><line x1="-1.68" y1="53.46" x2="2.25" y2="59.25" style="fill:none;stroke:#fff;stroke-linecap:square"/><line x1="1.88" y1="31.26" x2="-1.81" y2="37.2" style="fill:none;stroke:#fff;stroke-linecap:square"/><line x1="2.3" y1="61.59" x2="-3.23" y2="65.89" style="fill:none;stroke:#fff;stroke-linecap:square"/><line x1="-1.31" y1="10.5" x2="4.88" y2="13.78" style="fill:none;stroke:#fff;stroke-linecap:square"/><line x1="2.48" y1="39.48" x2="-2.75" y2="42" style="fill:none;stroke:#fff;stroke-linecap:square"/><line x1="5.31" y1="42.08" x2="-0.8" y2="45.49" style="fill:none;stroke:#fff;stroke-linecap:square"/><line x1="2.3" y1="-3.66" x2="-3.23" y2="0.64" style="fill:none;stroke:#fff;stroke-linecap:square"/><line x1="4.75" y1="-0.5" x2="-0.78" y2="3.8" style="fill:none;stroke:#fff;stroke-linecap:square"/><line x1="14.22" y1="-2.58" x2="18.5" y2="3.25" style="fill:none;stroke:#fff;stroke-linecap:square"/><line x1="17.05" y1="-5.41" x2="21.33" y2="0.42" style="fill:none;stroke:#fff;stroke-linecap:square"/><line x1="47.19" y1="-2.72" x2="43.5" y2="2.75" style="fill:none;stroke:#fff;stroke-linecap:square"/><line x1="49.93" y1="0.19" x2="44.83" y2="4.98" style="fill:none;stroke:#fff;stroke-linecap:square"/><line x1="53.13" y1="-0.78" x2="55.5" y2="5" style="fill:none;stroke:#fff;stroke-linecap:square"/><line x1="28" y1="-1.5" x2="22.31" y2="2.88" style="fill:none;stroke:#fff;stroke-linecap:square"/><line x1="32" y1="-0.5" x2="25.3" y2="5.54" style="fill:none;stroke:#fff;stroke-linecap:square"/><line x1="38.75" y1="-2.5" x2="39.25" y2="4" style="fill:none;stroke:#fff;stroke-linecap:square"/><line x1="36" y1="-3.25" x2="34.5" y2="3.5" style="fill:none;stroke:#fff;stroke-linecap:square"/><line x1="67.55" y1="-3.66" x2="62.02" y2="0.64" style="fill:none;stroke:#fff;stroke-linecap:square"/><line x1="56.25" y1="-2" x2="59" y2="4.75" style="fill:none;stroke:#fff;stroke-linecap:square"/><line x1="9.25" y1="-0.75" x2="9" y2="0.75" style="fill:none;stroke:#fff;stroke-linecap:square"/><line x1="2.3" y1="-3.66" x2="-3.23" y2="0.64" style="fill:none;stroke:#fff;stroke-linecap:square"/></pattern><pattern id="j" width="74.06" height="72" patternTransform="translate(203.01 124.7) scale(0.25)" patternUnits="userSpaceOnUse" viewBox="0 0 74.06 72"><rect width="74.06" height="72" style="fill:none"/><line x1="24.98" y1="72" x2="24.98" style="fill:none;stroke:#1d1d1b;stroke-width:4px"/><line x1="6.49" y1="72" x2="6.49" style="fill:none;stroke:#1d1d1b;stroke-width:4px"/><line x1="43.47" y1="72" x2="43.47" style="fill:none;stroke:#1d1d1b;stroke-width:4px"/><line x1="61.96" y1="72" x2="61.96" style="fill:none;stroke:#1d1d1b;stroke-width:4px"/><line x1="12.09" y1="72" x2="12.09" style="fill:none;stroke:#1d1d1b"/><line x1="30.58" y1="72" x2="30.58" style="fill:none;stroke:#1d1d1b"/><line x1="49.07" y1="72" x2="49.07" style="fill:none;stroke:#1d1d1b"/><line x1="67.56" y1="72" x2="67.56" style="fill:none;stroke:#1d1d1b"/></pattern></defs><title>s7s10</title><g style="clip-path:url(#a)"><g style="clip-path:url(#b)"><path d="M1446.89,533.05S1382,509.73,1372.72,507s-17.19-8.17-26.45-12.26-6.56-8-15.78-16.12-18.5-9.52-25.09-14.91,2.64,1.36-27.76-14.93-59.55-24.58-71.32-42-46.15-35.07-56.61-51.14-18.33-25.46-26.26-29.54-11.77-17.41-15.76-17.45-9.92-4.77-13.89-6.14a38.74,38.74,0,0,1-7.93-4.08s-22.47-12.21-25.07-17.56-5.19-12-9.12-17.38-19.77-14.84-27.63-25.56-9.23-6.75-14.46-14.79-7.91-6.73-18.39-20.14-15.74-20.12-18.41-18.82-8.06,7.89-12,7.85-2.57-8-6.57-6.72l-4,1.28-2.67,1.3s-5.27-4.05-7.93-4.07-6.63-1.41-9.28-2.77.05-4-6.61-2.73-13.34,3.84-16,6.47L905,187.39s-1.3-2.67-7.94-2.74-8-.09-10.65,1.21-1.35,1.31-5.35,2.6,0,1.33-5.35,2.6-9.29-1.43-14.59-2.82-2.64-1.36-8-1.42l-10.63-.12c-2.66,0-5.31-1.38-9.27-4.09a14.32,14.32,0,0,0-9.27-2.76c-2.66,0-9.35,3.89-10.71,6.53s-8,5.23-12.07,9.17a59.05,59.05,0,0,0-6.73,7.91s-48.27,36.69-69.61,43.1c-2.54.77-9.33,2.56-14.63,1.17s-6.65-.07-8-.09l-8-.09s-9.46,14.52-24.17,22.34c-5.25,2.79-20,7.75-25.39,11.68s-5.45,11.91-13.47,15.81-20.09,13.07-20.09,13.07-35.68-19-38.31-21.69-4-2.71-9.25-5.42-1.25-6.66-11.92-4.12-14.69,6.48-20,7.75-10.69,5.2-10.69,5.2-13.29-.14-20,6.43c0,0-9.26-4.09-14.67,3.83a203.74,203.74,0,0,1-37.53,27.5c-6.72,3.86-17.38,9.12-24.14,19.68-3.05,4.75-52.42,51.27-108.6,82.56-2.32,1.29-3.94-4-9.29-1.44s-9.36,5.22-20,3.77-1.28-5.33-13.28-1.47-12.05,7.84-22.75,13-10.71,6.53-20,9.08-10.63-.11-17.3,1.14-5.39,6.59-10.73,9.19-25.29,2.38-34.68,10.25c-2.28,1.91-16,6.47-28,7.67s-9.43,10.53-18.72,9.1-11.92-4.12-17.26-1.52S94.5,501.51,90.5,502.8s-5.33,1.27-12,2.53-9.29-1.44-10.65,1.21,2.61,4-2.72,5.29-6.66,1.25-8,5.23,2.61,4-4,5.27-12,1.2-18.64,2.45-22.66,5.07-30.63,5-7.95-2.74-14.62-.16-24,5-25.33,6.37-4,2.61-8,5.23S-57.67,557-60.34,558.3s-17.25-2.85-22.6-.25-41.34,11.51-41.34,11.51l-125.17,18.56-43.23,62,653.93,15.19,1084.58,23.93Z" style="fill:#abc4ab"/></g></g><g style="clip-path:url(#c)"><g style="clip-path:url(#d)"><path d="M393.85,591.5S332.53,560,323.69,556.05s-16-10.33-24.65-15.58-5.46-8.83-13.55-18-17.12-11.82-23-18S265,506.1,236.94,486s-55.87-32.08-65.29-50.87-41.21-40.76-49.51-58-14.88-27.62-22.22-32.69-9.42-18.79-13.36-19.35-9.22-6-13-7.88a39.33,39.33,0,0,1-7.33-5.07s-20.7-15-22.59-20.66S40.07,278.86,36.87,273s-17.69-17.27-24.1-28.92S4.49,236.22.34,227.58s-7-7.7-15.62-22.36-13-22-15.82-21-9,6.78-13,6.22-1.52-8.27-5.65-7.51l-4.14.75-2.82,1s-4.7-4.7-7.33-5.07-6.4-2.25-8.85-3.94.56-4-6.2-3.57-13.73,2.09-16.73,4.35l-3,2.26s-.94-2.82-7.52-3.76-7.9-1.12-10.72-.17-1.5,1.13-5.63,1.88-.19,1.32-5.64,1.89-9-2.62-14.11-4.69-2.44-1.68-7.71-2.43l-10.53-1.49c-2.63-.38-5.08-2.07-8.65-5.26a14.4,14.4,0,0,0-8.84-3.94c-2.64-.37-9.78,2.65-11.47,5.09s-8.64,4.15-13.15,7.54a58.2,58.2,0,0,0-7.7,7s-52.61,30.14-74.6,33.73c-2.62.43-9.59,1.33-14.66-.73s-6.59-.94-7.9-1.12l-7.9-1.12s-11.27,13.17-26.86,19c-5.57,2.08-20.87,5.09-26.69,8.3s-6.94,11.1-15.4,13.93-21.61,10.36-21.61,10.36-32.93-23.47-35.19-26.47-3.57-3.19-8.46-6.57-.39-6.77-11.29-5.63-15.41,4.53-20.86,5.1-11.28,3.77-11.28,3.77-13.16-1.86-20.68,3.78c0,0-8.65-5.25-15,1.9a203.78,203.78,0,0,1-40.78,22.42c-7.16,2.95-18.41,6.78-26.49,16.38-3.63,4.32-58.61,44.06-118.37,67.81-2.47,1-3.38-4.51-9-2.62s-10,4-20.31,1.15-.57-5.45-13-3.18-13,6.21-24.24,10-11.47,5.09-21.05,6.41-10.53-1.49-17.3-1.11-6.2,5.84-11.84,7.72-25.38-.91-35.71,5.68c-2.51,1.6-16.73,4.34-28.76,4s-10.71,9.22-19.73,6.6-11.29-5.63-16.93-3.74-10.7,9.22-14.84,10-5.45.57-12.22,1-9-2.62-10.71-.17,2.07,4.32-3.38,4.89-6.77.38-8.65,4.15,2.08,4.32-4.69,4.7-12-.36-18.8,0-23.12,2.09-31,1-7.53-3.75-14.48-2.05-24.44,1.91-25.94,3-4.32,2.07-8.65,4.14-15.4,13.93-18.22,14.88-16.73-5.06-22.37-3.18-42.48,6.07-42.48,6.07l-126.53,2.2-50.89,55.89,646.47,99.7L372.59,746.25Z" style="fill:#abc4ab"/><path d="M-533.54,446.61a104.78,104.78,0,0,0,4.72,14.1c3,7.14,11.86,11.08,17.69,17.28s12.81,23.3,18.64,29.49-.56,3.95-2.8,10.35-.75,5.26.19,8.08,20.34,27.05,25.23,30.43,2.26,3,17.88,16a55.23,55.23,0,0,1,18.64,29.5L-342,615.42l151.73,9.43s9.78-2.65,11.65-6.41-3.58-12.59-3.58-12.59l9.56-20.13s-8.09-9.2-11.67-12.39,3.19-13,4.3-20.88-6.77-9-11.66-12.39-2.65-9.77,4.11-19.56,3-21.06,3-21.06-7.89,8.28-9.58,10.73-13,6.22-31.2,11.69-13.15,7.53-17.47,9.61-1.28,37.41-6.57,8.46-2.09-13.72-5.1-20.86,2.25-6.39,3.55-15.61.36-21.43-1.53-27.07,6-13.92,7.88-17.68,7.12-21.82,13.5-29,17.28-17.69,26.87-19,6.57-8.47,10.13-14.68,13.15-16.93,14.65-18.06,3.18-13,3.93-18.24,10.32-16,16.52-21.83,2.06-5.08,5.44-10,15-11.3,15-11.3,15,7.51,20.51,16.34,2.26,3,4.7,4.69.2,8.09,1.9,15,1.32,9.59.58,14.85l-3,21.06c-.93,6.58.21,17.49-.35,21.43s-.74,14.67,1.35,28.39,4.71,14.1,4,19.36,6.21,13,5.1,30.26,5.86,25,5.86,25,2.64,9.78,5.27,10.15,7.91,10.52,8.48,16,4.15,8.64,10.37,21.61,0,0,3.2,5.82,2.26,3,6.22,13-3.94,8.84-3.94,8.84l9.81,35-5.62,20.68s11.48,4.32,17.11,2.43,7.9,1.12,7.9,1.12,7.53,3.75,11.48,4.31,5.45-.57,7.14-3S-19.32,641-16.7,632s-1.53-17.67-1.53-17.67,8.84,3.94,11.29,5.63,14.86,8.82,14.86,8.82-1.11,17.3-3.73,26.32,9,2.63,10.53,1.5,5.45-.57,8.64-4.15.94-6.58,1.5-10.53,8.27-1.51,9.77-2.64a20.83,20.83,0,0,0,7.13-12.42c.93-6.58,8.45-12.23,12.77-14.3s10.15-5.28,10.15-5.28l5.44-10a34.66,34.66,0,0,1,5.25-8.65c3.19-3.58,9-6.78,9.77-12s.17-10.72.36-12-11.29-5.63-13.92-6-9-2.62-11.66-3-9-2.62-11.66-3-20.68,3.79-20.68,3.79a142.76,142.76,0,0,0-12.58,13c-4.88,6-2.62,9-1.48,19.93S11.08,597,5.26,600.19s-12-.36-12-.36-17.68-7.88-19.76-12.2,2.43-17.11,3-21.06-20.12-.16-20.12-.16-3.58-12.6-1.33-19-2.27-12.41-3-16.54-10.54-10.89-12-19.16S-71,503.46-72.5,495.18s5.63-11.28,8.82-14.86,7.5-15.05,9.94-22.76,10.14-14.67,12.57-22.38.17-20.12-1.34-28.39-8.67-14.65-9.23-10.71.76,4.14.77,13.54.2,8.08-.92,16-9,16.18-9,25.58-21,25.21-21,25.21-10.34-2.8-13.73-7.31,1.49-10.53-2.08-13.72-6.81-37.22-4.58-62.42-1.52-8.27-1.52-8.27-1.72-25.75-.79-41.73,1.49-10.53,7.86-27.08.18-10.72,1.11-17.3,5.06-16.74,6-23.32-6.4-11.65-16.18-9-19.36,4-22,3.6-7.51,5.65-8.26,10.91,7.54,13.15.21,17.49-15.61-3.56-23.88-2.05-7.13,12.42-9.57,20.13-.74,5.27-1.86,13.16S-180,344.33-180,344.33l-7.33,4.34a10,10,0,0,1-4.51,3.39c-2.82.94-5.81,12.6-5.81,12.6s-5.06,16.74-9.94,22.76-6.4-2.25-11.85-1.68-1.87,3.76-9.58,10.72-11.07,11.86-15.58,15.25-8.08,9.6-17.09,16.37-1.88,3.77-4.87,15.43-3.38,4.89-10.51,17.3,0,0-1.68,11.85-8.06,28.4-10.31,34.79-.56,3.95,2.65,9.77,1.71,16.36,1.71,16.36-3.38,4.89-13.53,10.17c-4.42,2.3-6.59,4.91-7.64,7.14a15.35,15.35,0,0,0-.82-4.31c-1.88-5.64-3.21-15.23-3.21-15.23s.74-14.66,2.61-18.43-.75-4.13-2.64-9.77.92-16-5.84-15.6-.56,3.95-2.63,9-3.36,14.29-5.61,20.69,1.32,9.58.58,14.85-2.24,15.79-4.49,22.19-23.48,23.52-23.48,23.52a56.72,56.72,0,0,1-1.7-7c-.75-4.14,1.12-7.9,1.68-11.85s-6.78-9-12.8-13.9-4.14-8.64-4.14-8.64,1.12-7.9.55-13.35,7.5-15.05,9.19-17.49-5.65-7.52-13.92-6-7.87,17.68-12.38,21.07-14.1,4.71-14.1,4.71l-5.83-6.2a34.81,34.81,0,0,1,2.62-9c1.87-3.77-.38-6.77-1.7-7s-3-7.14-3-7.14l-5.46-8.83-16.34,11.11L-447,494.46l-4.53-15.41-9-12,20.28-19.95,17.85-12.24,4.88-6,14.1-4.72,8.45-2.83,19.74-6.6,12.59-3.58,6-4.52,3.75-7.53s7.33-4.33,10.34-6.59,9.58-1.33,9.58-1.33l14.84-10s18.23-14.87,25-15.25,2.26,3,4.71,4.69-2.24,15.8-2.24,15.8l6.2-5.84C-278.31,374.71-283,370-283,370s-.58-14.85-1.34-19,3.17-22.38,7.87-27.08,8.27-1.52,13-6.22,11.45-14.49,18.4-16.19,7.14-3,11.29,5.63-.37,2.63-4.69,14.1-10.7,9.23-13.14,16.94-1.3,9.21-5.24,18.05-5.06,16.74-7.3,32.53-1.29,28,5.48,27.63,7.7-7,8.64-13.54,5.25-8.65,7.69-16.37,8.62-22.94,11.62-25.2,3-11.66,4.88-15.42a271.26,271.26,0,0,1,14.07-23.52c5.07-7.34,8.46-2.83,12.78-4.9s1.88-3.76,2.25-6.39,9.2-8.1,13.9-12.8,3.56-6.21,4.12-10.16,6.57-8.47,9.39-9.41,4.13-10.16,4.13-10.16,1.49-10.53,9-16.17,16.51-31.23,16.51-31.23,2.44-7.71,1.31-9.21,4.13-10.16,6.57-8.47.95,2.82,2.83,8.45,2.64,9.78-1.11,17.3,1.33,9.59.58,14.85,5.65,7.52,5.65,7.52l5.28,10.14s6.76-.38,7.51-5.64,7.88-17.68,9-25.58,3.19-3.58,5.06-7.34,3.57-6.21,4.32-11.47.37-2.63-1.7-7,2.62-9,1.68-11.84-4-.56-7.53-3.75-4.7-4.7-7.34-5.07l-9.21-1.31c-1.56-.22-2.13-4.06-2.34-7.16a11.34,11.34,0,0,1-3.49,1c-3.32.61-1.45,1.09-3.38,1.55l-.19,4.66-11.85-1.68c-5.26-.74-5.63,1.89-10,4s-3.76-1.88.75-5.26a14.21,14.21,0,0,0,4.27-6.28c-4.23-1.77-2.07-1.47-7.1-2.18l-10.53-1.49a10.45,10.45,0,0,1-4.19-1.72c-2.34,3.7-2,7.23-2.57,11.5-.74,5.26-5.06,7.34-7.51,5.65s-.57-5.45,0-9.4-1.7-7-1.51-8.27c.13-1-.82-4.18-1.21-6.88l-.49-.08c-2.64-.37-9.78,2.65-11.47,5.09s-8.64,4.15-13.15,7.54a58.2,58.2,0,0,0-7.7,7s-52.61,30.14-74.6,33.73c-2.62.43-9.59,1.33-14.66-.73s-6.59-.94-7.9-1.12l-7.9-1.12s-11.27,13.17-26.86,19c-5.57,2.08-20.87,5.09-26.69,8.3s-6.94,11.1-15.4,13.93c-6.73,2.25-16.42,7.47-20.1,9.51,4,5.57,7.92,11.13,8.84,13.06,2.08,4.32,3.2,5.82,7.54,13.15s3.57,3.19,9.78,6.76,10.34,2.81,8.28,7.89-16.15,19.19-16.15,19.19,8.84-.76,11.85,6.38-.74,5.26,2.46,11.09-4.88,6-8.45,12.23-6,13.92-12,18.43-13.52,10.17-31.93,26.36-8.08.2-21.42,9.05-14.66,8.66-26.31,15.07S-533.54,446.61-533.54,446.61Z" style="fill:#86ac98"/><path d="M2.48,293C1,284.73.6,287.36,1.16,283.41s3.56-6.2-1.33-9.58-2.26-3-7.15-6.39-.76-4.13-4.89-3.38.57,5.45-4.51,3.39-5.08-2.06-4.89-3.38,1.5-1.13,2.06-5.07,2.82-.95.93-6.59-2.07-4.32-2.83-8.45-5.08-11.47-5.09-20.87,3-2.26.17-10.71-1.14-10.91-2.27-12.41S-33,202-32,195.46c.61-4.29-1.33-6.66-2.13-9.56-3.08,2-7.07,4.9-9.9,4.5-3.95-.56-1.52-8.27-5.65-7.51l-4.14.75-2.82,1s-4.7-4.7-7.33-5.07-6.4-2.25-8.85-3.94.56-4-6.2-3.57c-6.52.37-13.19,2-16.36,4.1,1.33,2.78,2.27,5.27,2.08,6.64-.56,3.94,4.89,3.37,8.85,13.33,2.45,6.17,4,11.18,6.1,14.6-2.52-.9-4.75-1.5-5.33-1.06-1.51,1.13.38,6.77-1.31,9.21s-2.43,7.71-3.18,13l-1.12,7.9c-.75,5.26-4.51,3.39-1.12,7.89s3.39,4.51,7,7.7-1.89-15,.93-16,6.77-.38,7.52,3.75,1,12.22,3,16.55.57,5.45,3.2,5.82,6.95-1.7,6.21,3.57,5.27,10.14,5.27,10.14a5.79,5.79,0,0,1-.75-4.13c.37-2.64,2.81-10.35.55-13.35s.56-3.95,0-9.4S-59.61,248-59,244c.38-2.63.71-6.72.89-9.17,2.26,3.5,4,6.33,4.75,7.28,2.26,3,4.89,3.38,7.91,10.52s6,4.88,6.78,9-3.57,6.21-.74,14.66,2.46,11.09,6.22,13,4,.56,4.89,3.38,9,12,9,12-3.2-5.82-2.65-9.77,3-2.26.94-6.58-5.65-7.52-5.28-10.15,1.88-3.76,3.57-6.21,3.19-3.57,4.13-.76.57,5.46,5.28,10.15,7.34,5.07,8.09,9.2S-2.4,299,1,303.53s7,7.7,8.09,9.2S4,301.27,2.48,293Z" style="fill:#86ac98"/></g></g><g style="clip-path:url(#e)"><g style="clip-path:url(#f)"><path d="M921.12,590.67S859.8,559.16,851,555.22s-16-10.33-24.65-15.58-5.46-8.83-13.55-18-17.12-11.83-23-18,2.45,1.69-25.59-18.39-55.87-32.09-65.29-50.88-41.22-40.75-49.51-58-14.88-27.62-22.22-32.69-9.42-18.79-13.37-19.35-9.22-6-13-7.88a39.33,39.33,0,0,1-7.33-5.07s-20.7-15-22.59-20.66-3.58-12.59-6.79-18.41S546.44,254.93,540,243.28s-8.28-7.89-12.43-16.53-7-7.7-15.63-22.36-13-22-15.81-21-9,6.78-13,6.22-1.51-8.27-5.64-7.51l-4.14.75-2.82.95s-4.7-4.7-7.34-5.07-6.39-2.25-8.84-3.94.56-3.95-6.2-3.56-13.73,2.08-16.73,4.34l-3,2.26S427.54,175,421,174s-7.9-1.12-10.72-.18-1.5,1.13-5.64,1.88-.18,1.32-5.63,1.89-9-2.62-14.11-4.68-2.45-1.69-7.71-2.44L366.62,169c-2.63-.38-5.08-2.06-8.65-5.26a14.4,14.4,0,0,0-8.85-3.94c-2.63-.37-9.77,2.65-11.46,5.09s-8.64,4.15-13.15,7.54a59,59,0,0,0-7.7,7s-52.61,30.14-74.6,33.74c-2.63.42-9.59,1.32-14.67-.74s-6.58-.93-7.89-1.12l-7.9-1.12s-11.27,13.17-26.86,19c-5.57,2.08-20.87,5.1-26.69,8.3s-6.95,11.1-15.4,13.93-21.61,10.36-21.61,10.36S88.26,238.32,86,235.31s-3.57-3.19-8.47-6.57-.38-6.77-11.28-5.63-15.41,4.53-20.86,5.1S34.11,232,34.11,232,21,230.12,13.43,235.77c0,0-8.65-5.26-15,1.89a203.86,203.86,0,0,1-40.77,22.42c-7.16,2.95-18.41,6.79-26.49,16.38-3.63,4.32-58.61,44.06-118.37,67.81-2.47,1-3.39-4.51-9-2.62s-10,4-20.31,1.15-.57-5.45-13-3.18-13,6.22-24.24,10-11.47,5.09-21,6.41-10.53-1.49-17.3-1.11-6.2,5.84-11.84,7.72-25.38-.91-35.71,5.68c-2.51,1.6-16.73,4.35-28.76,4s-10.71,9.23-19.74,6.6-11.28-5.62-16.92-3.74-10.71,9.23-14.84,10-5.45.57-12.22,1-9-2.63-10.72-.18,2.08,4.32-3.38,4.89-6.76.38-8.64,4.15,2.07,4.32-4.69,4.7-12-.36-18.8,0-23.13,2.1-31,1-7.53-3.76-14.48-2.06-24.44,1.91-25.94,3-4.33,2.07-8.65,4.14-15.4,13.93-18.22,14.88-16.74-5.06-22.37-3.17-42.49,6.06-42.49,6.06l-126.52,2.2L-819,481.63l646.47,99.7L899.86,745.42Z" style="fill:#abc4ab"/><path d="M-6.27,445.79a104.91,104.91,0,0,0,4.72,14.09C1.46,467,10.3,471,16.14,477.16S29,500.46,34.78,506.65s-.56,4-2.81,10.35-.74,5.26.2,8.08,20.33,27,25.23,30.43,2.26,3,17.87,16A55.21,55.21,0,0,1,93.92,601l91.38,13.62L337,624s9.77-2.64,11.65-6.41S345.09,605,345.09,605l9.57-20.13s-8.09-9.2-11.67-12.39,3.18-13,4.3-20.87-6.78-9-11.67-12.4-2.64-9.77,4.12-19.56,3-21.06,3-21.06-7.88,8.28-9.57,10.73-13,6.22-31.2,11.69-13.15,7.53-17.47,9.61-1.28,37.41-6.57,8.46-2.09-13.72-5.1-20.86,2.25-6.39,3.55-15.61.36-21.43-1.53-27.07,6-13.92,7.88-17.68,7.12-21.81,13.5-29,17.28-17.69,26.87-19,6.57-8.47,10.13-14.68,13.14-16.93,14.65-18.06,3.18-13,3.92-18.24,10.33-16,16.53-21.83,2.06-5.08,5.44-10,15-11.3,15-11.3,15.05,7.51,20.51,16.34,2.26,3,4.71,4.69.2,8.09,1.9,15,1.32,9.59.58,14.85l-3,21.06c-.93,6.58.21,17.49-.35,21.44s-.74,14.66,1.34,28.38,4.72,14.1,4,19.36,6.22,13,5.11,30.27,5.86,25,5.86,25,2.64,9.78,5.27,10.15,7.91,10.52,8.48,16S447.31,547,453.52,560s0,0,3.21,5.83,2.26,3,6.21,13S459,587.6,459,587.6l9.81,35-5.62,20.69s11.47,4.31,17.11,2.42,7.9,1.12,7.9,1.12,7.52,3.75,11.47,4.31,5.45-.57,7.14-3,1.12-7.9,3.75-16.93S509,613.49,509,613.49s8.84,3.94,11.29,5.63,14.86,8.82,14.86,8.82-1.11,17.3-3.73,26.32,9,2.63,10.53,1.5,5.45-.57,8.64-4.15.94-6.58,1.5-10.53,8.27-1.51,9.77-2.64A20.83,20.83,0,0,0,569,626c.93-6.58,8.45-12.23,12.77-14.3s10.14-5.27,10.14-5.27l5.45-10a34.63,34.63,0,0,1,5.25-8.66c3.19-3.57,9-6.78,9.76-12s.18-10.72.37-12-11.29-5.63-13.92-6-9-2.63-11.66-3-9-2.62-11.66-3-20.68,3.79-20.68,3.79a142.76,142.76,0,0,0-12.58,13c-4.88,6-2.62,9-1.48,19.93s-2.44,7.71-8.26,10.92-12-.37-12-.37-17.69-7.87-19.76-12.2,2.43-17.11,3-21.06-20.12-.16-20.12-.16-3.59-12.59-1.34-19-2.27-12.4-3-16.54-10.54-10.89-12.06-19.16-10.91-8.26-12.42-16.53,5.63-11.29,8.82-14.87,7.5-15,9.94-22.75,10.13-14.68,12.57-22.39.17-20.12-1.35-28.39-8.66-14.65-9.22-10.7.76,4.13.77,13.53.19,8.09-.93,16-9,16.18-9,25.58-21,25.22-21,25.22-10.34-2.81-13.73-7.32,1.49-10.53-2.09-13.72-6.81-37.22-4.58-62.42-1.51-8.27-1.51-8.27-1.72-25.75-.8-41.73,1.5-10.53,7.87-27.08.18-10.72,1.11-17.3,5.06-16.74,6-23.32-6.4-11.65-16.18-9-19.36,4-22,3.6-7.51,5.65-8.26,10.91,7.53,13.16.21,17.49-15.61-3.56-23.88-2-7.13,12.41-9.57,20.12-.74,5.27-1.86,13.16-8.82,14.87-8.82,14.87l-7.33,4.33a10,10,0,0,1-4.51,3.39c-2.82.94-5.81,12.6-5.81,12.6s-5.06,16.74-9.94,22.76-6.4-2.25-11.85-1.68-1.88,3.76-9.58,10.73-11.08,11.85-15.58,15.24-8.08,9.6-17.1,16.38-1.87,3.76-4.87,15.42-3.38,4.89-10.51,17.31,0,0-1.68,11.84-8.05,28.4-10.3,34.79-.56,3.95,2.64,9.78,1.71,16.35,1.71,16.35-3.37,4.89-13.52,10.17c-4.42,2.3-6.59,4.92-7.64,7.14a15.35,15.35,0,0,0-.82-4.31c-1.88-5.64-3.21-15.23-3.21-15.23s.74-14.66,2.61-18.43-.75-4.13-2.64-9.77.92-16-5.85-15.6-.56,3.95-2.62,9-3.37,14.29-5.62,20.69,1.33,9.58.58,14.85-2.23,15.79-4.48,22.19S175.86,577,175.86,577a56.72,56.72,0,0,1-1.7-7c-.75-4.14,1.12-7.9,1.68-11.85s-6.78-9-12.8-13.9-4.14-8.64-4.14-8.64,1.12-7.9.55-13.35,7.5-15,9.19-17.49-5.65-7.52-13.92-6-7.88,17.68-12.39,21.07-14.09,4.71-14.09,4.71l-5.84-6.2a35,35,0,0,1,2.63-9c1.87-3.76-.39-6.77-1.7-7s-3-7.14-3-7.14l-5.46-8.83L98.51,497.56l-18.24-3.93-4.53-15.41-9-12L87,446.25,104.83,434l4.88-6,14.1-4.72,8.45-2.83,19.74-6.6,12.59-3.58,6-4.52,3.75-7.53s7.33-4.33,10.33-6.59,9.59-1.32,9.59-1.32l14.84-10s18.22-14.88,25-15.26,2.26,3,4.71,4.7-2.24,15.79-2.24,15.79l6.19-5.83c6.2-5.84,1.5-10.53,1.5-10.53s-.58-14.86-1.34-19,3.17-22.38,7.87-27.08,8.27-1.52,13-6.22,11.46-14.49,18.41-16.19,7.14-3,11.29,5.63-.38,2.63-4.69,14.1-10.7,9.23-13.14,16.94-1.31,9.21-5.24,18.05-5.06,16.74-7.3,32.54-1.29,28,5.48,27.63,7.7-7,8.63-13.55,5.26-8.65,7.69-16.36,8.63-22.95,11.63-25.21,3-11.66,4.87-15.42,9-16.18,14.08-23.52,8.46-2.83,12.78-4.9,1.87-3.76,2.25-6.39,9.2-8.1,13.9-12.8,3.56-6.21,4.12-10.16,6.57-8.47,9.39-9.41S362,267.72,362,267.72s1.49-10.53,9-16.17,16.51-31.23,16.51-31.23,2.44-7.71,1.31-9.21,4.12-10.16,6.57-8.47.94,2.82,2.83,8.46,2.64,9.77-1.11,17.29,1.33,9.59.58,14.86,5.65,7.51,5.65,7.51l5.27,10.15s6.77-.39,7.52-5.65,7.87-17.68,9-25.58,3.2-3.58,5.07-7.34,3.57-6.21,4.31-11.47.38-2.63-1.7-7,2.63-9,1.68-11.84-3.95-.56-7.52-3.75-4.71-4.7-7.34-5.07l-9.21-1.31c-1.56-.22-2.13-4.06-2.34-7.16a11.34,11.34,0,0,1-3.5,1c-3.31.61-1.44,1.09-3.37,1.55L401,182l-11.85-1.68c-5.26-.74-5.64,1.89-10,4s-3.76-1.87.75-5.26a14.11,14.11,0,0,0,4.26-6.28c-4.22-1.77-2.06-1.47-7.09-2.18L366.62,169a10.45,10.45,0,0,1-4.19-1.72c-2.35,3.7-2,7.23-2.57,11.5-.74,5.27-5.07,7.34-7.51,5.65s-.57-5.45,0-9.4-1.7-7-1.52-8.27c.14-1-.81-4.18-1.2-6.88l-.5-.08c-2.63-.37-9.77,2.65-11.46,5.09s-8.64,4.15-13.15,7.54a59,59,0,0,0-7.7,7s-52.61,30.14-74.6,33.74c-2.63.42-9.59,1.32-14.67-.74s-6.58-.93-7.89-1.12l-7.9-1.12s-11.27,13.17-26.86,19c-5.57,2.08-20.87,5.1-26.69,8.3s-6.95,11.1-15.4,13.93c-6.73,2.25-16.42,7.47-20.1,9.51,4,5.57,7.91,11.13,8.84,13.06,2.07,4.32,3.2,5.82,7.53,13.15s3.58,3.19,9.79,6.76,10.34,2.81,8.28,7.89S141,321,141,321s8.84-.76,11.85,6.38-.74,5.26,2.46,11.09-4.88,6-8.45,12.23-6,13.92-12,18.44-13.53,10.16-31.93,26.35-8.09.2-21.43,9-14.65,8.66-26.3,15.07S-6.27,445.79-6.27,445.79Z" style="fill:#86ac98"/></g></g><g style="clip-path:url(#g)"><circle cx="158.22" cy="78.51" r="45.94" style="fill:#f7956f"/><path d="M238.91,51.79c-4-4.5-6.07-3.18-10.32,0s-6.37,4.48-10.32,0V40.35c3.95,4.48,6.09,3.16,10.32,0s6.36-4.5,10.32,0Z" style="fill:#ef1e32"/><rect x="217.03" y="39.85" width="1.24" height="27.36" rx="0.62" style="fill:#165488"/><path d="M323.63,128.61s-12.19-4.23-13.93-4.73a43.5,43.5,0,0,1-5-2.24c-1.75-.74-1.25-1.49-3-3s-3.48-1.74-4.72-2.74.49.25-5.23-2.73-11.19-4.48-13.43-7.71S269.66,99,267.67,96s-3.48-4.73-5-5.47-2.23-3.24-3-3.24-1.87-.87-2.61-1.12a7.39,7.39,0,0,1-1.49-.74s-4.23-2.24-4.73-3.24A20.86,20.86,0,0,0,249.14,79c-.75-1-3.73-2.74-5.22-4.72s-1.74-1.25-2.74-2.74-1.49-1.24-3.48-3.73-3-3.73-3.48-3.48-1.49,1.49-2.24,1.49-.5-1.49-1.24-1.24l-.75.24-.5.25a4,4,0,0,0-1.49-.74,4.59,4.59,0,0,1-1.74-.5c-.5-.25,0-.75-1.24-.5a6.71,6.71,0,0,0-3,1.25l-.5.49s-.24-.49-1.49-.49a3.88,3.88,0,0,0-2,.24,3.73,3.73,0,0,1-1,.5c-.75.25,0,.25-1,.5s-1.74-.25-2.73-.5-.5-.25-1.5-.25h-2a3.38,3.38,0,0,1-1.75-.74,2.66,2.66,0,0,0-1.74-.5,3.48,3.48,0,0,0-2,1.24c-.24.5-1.49,1-2.23,1.74a11.08,11.08,0,0,0-1.25,1.5s-8.95,7-12.93,8.2a5.65,5.65,0,0,1-2.74.25,2.61,2.61,0,0,0-1.49,0h-1.49A13.92,13.92,0,0,1,177.76,81c-1,.53-3.73,1.49-4.72,2.24s-1,2.24-2.49,3a30.47,30.47,0,0,0-3.73,2.49s-6.72-3.48-7.21-4-.75-.5-1.74-1-.25-1.25-2.24-.75-2.74,1.24-3.73,1.49a6.54,6.54,0,0,0-2,1s-2.49,0-3.73,1.24a2.26,2.26,0,0,0-2.74.75,38.18,38.18,0,0,1-7,5.22A11.69,11.69,0,0,0,132,96.4c-.56.89-9.7,9.7-20.14,15.67-.44.24-.75-.75-1.74-.25a5.31,5.31,0,0,1-3.74.75c-2-.25-.24-1-2.48-.25s-2.24,1.49-4.23,2.48-2,1.25-3.73,1.74-2,0-3.23.25-1,1.25-2,1.74-4.73.5-6.47,2A15.15,15.15,0,0,1,79,122c-2.24.24-1.74,2-3.48,1.74s-2.24-.75-3.24-.25-1.74,2-2.48,2.24a15,15,0,0,1-2.24.49c-1.25.25-1.74-.24-2,.25s.49.75-.5,1-1.24.25-1.49,1,.5.75-.75,1-2.24.25-3.48.49a38.88,38.88,0,0,1-5.72,1c-1.49,0-1.49-.5-2.74,0s-4.47,1-4.72,1.24a15.55,15.55,0,0,1-1.49,1c-.75.5-2.49,3-3,3.23s-3.23-.5-4.23,0-7.71,2.24-7.71,2.24L6.41,142.41l-8,11.69,122.36,1.49,202.94,2.24Z" style="fill:#abc4ab"/><path d="M140.71,140.67a5.5,5.5,0,0,0,0-2c-.25-.75-.75-1-.75-1.74s.5-.5,0-1-1-1.74-1.49-2-.75-1.49-1.25-1.49-1.24-.74-1.24-.74,0-1.5-1-1.5-2-.49-3,.25-2.24,1.74-2.73,2,0,0-1.75.5-8,.5-8.7.5-3,.49-3,0,.49-1.25,1.24-1,2.73-.5,3.73-1,1.49-.5,1.74-1,0-1,0-1.24-.5-1-1-.5-1.5,1.49-2,1.49-1,.5-1.5.25,0-1.24,0-1.24l1-1,.74-1a11.48,11.48,0,0,0-2.73.74,8,8,0,0,1-3,.5c-.24,0-1.74-1.24-2.23-1.49s-1.74-1.49-2.24-1.49-1-.75-1-.75l-.74-.5s.49,1.25-.5,1.25-1-.5-1.49-.5a1.5,1.5,0,0,0-1,.25c-.49.25-.74.25-1.24.5s-.75.25-.75.49,0,1,.25,1.25-1.24.25-1.24.25a6.23,6.23,0,0,0-1.74.49c-.25.25-.25.75-1,.75s-2.73.25-2.73.25-.25-.5-1.25,0,.75,1,0,1a9.23,9.23,0,0,0-2.73.25c-.5.25-1.25.25-.75.5s1.49,0,1.24.5-.24,1.49-.49,1.49-.75,0-.25.25a1,1,0,0,1,.5,1c0,.25-.25.5-1,.75a9.11,9.11,0,0,1-2.24.5c-.49,0-1.74.74-3,1s-1.25.5-2.24.5-.25-.75,0-.75a12.1,12.1,0,0,0,1.74-.74l1.24-.75,1.25-.5.74-1.24,1.25.25L91,133l-.25-1.24s.25-.75,0-.75a5.67,5.67,0,0,1-1-.25.24.24,0,0,0-.25-.25,19.61,19.61,0,0,0-2.24,1h-2a11.44,11.44,0,0,1-2,.49c-.5,0-2,.5-2.74.5h-2l-1,.5a1.23,1.23,0,0,1,0,1,3.09,3.09,0,0,1-.5.75l-.5.5h-1l-2.24-1-3,.75-.74,1a3.66,3.66,0,0,1-1,.5,6.28,6.28,0,0,0-1.24.5h-1c-.25,0-.74.5-.74.5a10.58,10.58,0,0,1,.25,1.24c0,.25-1,0-1,0s-1.74.75-2.24,1a14.16,14.16,0,0,0-.25,1.74c0,.5.25.75,0,1s-.24.75-.49,1.49.25,2.24.25,2.74.49.74,0,.74-2.74-.24-3.24.25-2.48.5-3.48.5-.75,1.49-.75,1.49l2,1.25L139,154.35a7.13,7.13,0,0,0,.75-4,38.42,38.42,0,0,0-.75-4,8.82,8.82,0,0,1,.5-2.49A12.41,12.41,0,0,0,140.71,140.67Zm-30.59,9.45c-.25.5-2.49,0-2.74-.25a5.7,5.7,0,0,0-2.49-1.74c-1.49-.5-3.48-2.49-4.47-2.74s-.5-.24-1.75-.49-3-.25-1.74-.75c0,0,1.25-1.24,2.24-1a2.16,2.16,0,0,0,2-.75,3.45,3.45,0,0,1,1-.75c.49-.25,1-.74,1.49-.74s-.5.74-.75,1.24a4.25,4.25,0,0,1-1.49,1.49c-.5.25-.5.5-.5.75s.5,1.24,1,1.24,0-1,1.24-1a9.31,9.31,0,0,1,2,.25c.25,0,.75,0,.75.49s.49.75,0,1a.89.89,0,0,0-.5.75s.75.49,1.24.74.5.75,1,1,.5,0,.74.24S110.36,149.62,110.12,150.12Zm4.72-.5c-.75-.25-.25-.5-1.24-.74s-.75-.5-1.74-.75-.75,0-1.5-.5-1.74-2.48-2.23-2.48-.5-.5-.75-.5.5,2.24,1.24,2.49a14.05,14.05,0,0,1,3,2.48c.49.5,1,.75.74,1s-3-1.25-3.23-1.74a8.4,8.4,0,0,0-1.49-1.5c-.5-.49-.5-1.49-1-2a1.37,1.37,0,0,1-.49-1.24c0-.5.74-1,1-2s2-2.73,3-2.73a4.21,4.21,0,0,1-.5,2c-.5.75-.75.75-.75,1.5s-.25,1.49.25,2,1.24.74,1.74,1.24,1.24,1.24,1.74,1.24a2.49,2.49,0,0,1,2,.75,18,18,0,0,1,2.24,2C117.33,150.87,115.59,149.87,114.84,149.62Z" style="fill:#86ac98"/><path d="M3.06,147.32l.36,3.55s29.6-1.5,33.08-1,4-1,4-1,.25-1.74.74-2,.5,0,1,.25,0-.5.5-.25,1.24-.25,1-.75-1-.5-1-1.24v-1s-.75,1-.75-.25a5.46,5.46,0,0,1,.75-2.24c0-.24,1.49-.49.74-1s-1.49-.25-1.74-.5-.25.25-.5-.49-.49-.75-.24-1.25.24-1.49.74-1a7,7,0,0,1,1,1.49,11.08,11.08,0,0,0,1.74-1.74,2.61,2.61,0,0,1,2.24-1.25c1,0,.74-.24,1.24,0s.25,1-.25,1.25-.75.25-1,.5a1.26,1.26,0,0,0-.5,1c0,.5,0,.25.5.5s.49.5.24.74-1,0-1,.5-.25.75.25.75.25.25,1-.25a6.36,6.36,0,0,1,1.74-1c.75-.24,1.5-.24,1.75-.74s0-.5.49-1.25.25-.74,1.49-1.49.25-1,1-2,.5-1.24,1.24-1.49,1.25.75,2,0a3,3,0,0,1,2-1c.5,0,1.25,0,1.49-.25s1.5-2,2.24-1.5a13.33,13.33,0,0,0,2.74,1.25,6.31,6.31,0,0,0,4.72-1c2-1.24,1.5-2.24,4-2.24s0,.5,2.49.25A9.42,9.42,0,0,0,80.77,127c1.74-.75,1.74-1,3.23-1s.75-1.25,2-1.5,2.74,1.25,5.22,0,3-2.48,3.73-2.73a3.73,3.73,0,0,1,2.49-.5c1.24.25,1.24.75,3.23.5s-.24-.25,1.75-.5,1.24.75,2.23-.75,1.5-1.24,1.5-2-.25-.24-1-1-.25-.75-.74-1.49-1,.49-.75-.75c.14-.69,1.59-1.85,2.24-2.82-1.19-.3,0-.83-2-.16-2.24.74-2.24,1.49-4.23,2.48s-2,1.25-3.73,1.74-2,0-3.23.25-1,1.25-2,1.74-4.73.5-6.47,2A15.15,15.15,0,0,1,79,122c-2.24.24-1.74,2-3.48,1.74s-2.24-.75-3.24-.25-1.74,2-2.48,2.24a15,15,0,0,1-2.24.49c-1.25.25-1.74-.24-2,.25s.49.75-.5,1-1.24.25-1.49,1,.5.75-.75,1-2.24.25-3.48.49a38.88,38.88,0,0,1-5.72,1c-1.49,0-1.49-.5-2.74,0s-4.47,1-4.72,1.24a15.55,15.55,0,0,1-1.49,1c-.75.5-2.49,3-3,3.23s-3.23-.5-4.23,0-7.71,2.24-7.71,2.24L6.41,142.41Z" style="fill:#86ac98"/><path d="M144.31,124.63a1.71,1.71,0,0,0-.5,1.49,2.07,2.07,0,0,1-.24,1.74c-.25.5-1.25,1.49-1,2s-1,1-.75,1.49-2.48-1-3.48-1.24a8.09,8.09,0,0,1-1.49-.5s.5.75-.5.75-.74-.75-1.74-1-2-.74-2.48-.49-.25,1-1.25,1-1,0-2.49-1-2-1.75-3.23-2-2.24-.75-2.24-1.5-.49,0,.5-1,2,0,3-1-.25-1.74,1.24-2a13.82,13.82,0,0,1,4.48,0c.74.25,1.61,1.62,3.35,2.12s2.24,0,3,.25a11.14,11.14,0,0,1,1.74.49,3.89,3.89,0,0,0,2.24.25C142.94,124.5,144.31,124.63,144.31,124.63Z" style="fill:#86ac98"/><path d="M113.22,121.64a11.08,11.08,0,0,0,1.25,1.5,2.63,2.63,0,0,1,1,1.49c.25.74.5,1.49,1.25,1.49a3.61,3.61,0,0,0,1.74-.5c.49-.25.25-1,1-1.24s.75-.75,1.49-1.24,2.24-.25,1-.75-2.49,0-2.74-.75a2.72,2.72,0,0,0-1-1.24c-.25-.25-2.49.75-3,1S114.22,120.9,113.22,121.64Z" style="fill:#86ac98"/><path d="M148,126.12a20,20,0,0,0,1.25,2.49c.74,1.24,2.48,1.74,3.73,2.73s3,4,4.22,5,0,.74-.24,2,0,1,.24,1.49a35.67,35.67,0,0,0,5.48,5c1,.5.49.5,3.73,2.49a10.3,10.3,0,0,1,4.22,5l17.29.13,28.35-2.24s1.74-.75,2-1.49-1-2.24-1-2.24l1.24-4s-1.74-1.49-2.49-2,.25-2.49.25-4-1.49-1.49-2.49-2-.74-1.74.25-3.73a4.78,4.78,0,0,0,0-4s-1.24,1.74-1.49,2.24-2.24,1.49-5.47,3-2.24,1.75-3,2.24.74,7-1,1.74-.75-2.48-1.49-3.73.25-1.24.25-3a13.53,13.53,0,0,0-1-5c-.5-1,.75-2.73,1-3.48s.74-4.23,1.74-5.72,2.73-3.73,4.47-4.23,1-1.74,1.5-3a20.9,20.9,0,0,1,2.23-3.73c.25-.25.25-2.49.25-3.48s1.5-3.24,2.49-4.48.25-1,.75-2a11.2,11.2,0,0,1,2.48-2.49s3,1,4.23,2.49.5.5,1,.75.25,1.49.74,2.73a5.82,5.82,0,0,1,.5,2.74v4c0,1.24.5,3.23.5,4a21.94,21.94,0,0,0,1,5.22c.75,2.49,1.25,2.49,1.25,3.48s1.49,2.24,1.74,5.47,1.74,4.48,1.74,4.48.74,1.74,1.24,1.74,1.74,1.74,2,2.74,1,1.49,2.49,3.73,0,0,.74,1a11.39,11.39,0,0,1,1.5,2.24c1,1.74-.5,1.74-.5,1.74l2.73,6.22-.49,4s2.24.5,3.23,0,1.49,0,1.49,0a10.17,10.17,0,0,0,2.24.5,1.14,1.14,0,0,0,1.24-.75c.25-.5,0-1.49.25-3.23a5.19,5.19,0,0,0-.74-3.24,23,23,0,0,1,2.24.75c.49.25,3,1.24,3,1.24a30.85,30.85,0,0,1,0,5c-.25,1.74,1.74.25,2,0s1-.25,1.49-1,0-1.24,0-2,1.49-.49,1.74-.74a3.91,3.91,0,0,0,1-2.49c0-1.24,1.24-2.49,2-3s1.74-1.24,1.74-1.24l.74-2a6.5,6.5,0,0,1,.75-1.74c.5-.75,1.49-1.49,1.49-2.49a18.86,18.86,0,0,0-.25-2.23c0-.25-2.23-.75-2.73-.75s-1.74-.25-2.24-.25-1.74-.25-2.24-.25a32.23,32.23,0,0,0-3.73,1.25,27.48,27.48,0,0,0-2,2.73c-.75,1.24-.25,1.74.25,3.73s-.25,1.49-1.24,2.24a2.48,2.48,0,0,1-2.24.25s-3.48-1-4-1.74,0-3.24,0-4-3.73.5-3.73.5-1-2.24-.75-3.49-.74-2.23-1-3-2.24-1.74-2.74-3.23-2.24-1.25-2.73-2.74.74-2.24,1.24-3a16.34,16.34,0,0,0,1.24-4.48c.25-1.49,1.49-3,1.74-4.48s-.49-3.73-1-5.22-2-2.49-2-1.74.25.75.5,2.49a13,13,0,0,1,.25,3c0,1.49-1.25,3.23-1,5s-3.23,5.22-3.23,5.22a6,6,0,0,1-2.74-1c-.74-.74,0-2-.74-2.48s-2.24-6.72-2.49-11.44-.5-1.5-.5-1.5-1-4.72-1.24-7.71,0-2,.74-5.22-.25-2-.25-3.23.5-3.24.5-4.48-1.49-2-3.23-1.24a16.13,16.13,0,0,1-4,1.24c-.5,0-1.24,1.24-1.24,2.24s1.74,2.24.49,3.23-3-.25-4.47.25-1,2.49-1.25,4,0,1,0,2.49a5.58,5.58,0,0,1-1.24,3l-1.24,1a1.87,1.87,0,0,1-.75.74c-.5.25-.75,2.49-.75,2.49a17.63,17.63,0,0,1-1.24,4.48c-.75,1.24-1.24-.25-2.24,0s-.25.74-1.49,2.23-1.74,2.49-2.49,3.24-1.24,2-2.73,3.48-.25.75-.5,3-.5,1-1.49,3.49,0,0,0,2.23a38.65,38.65,0,0,1-1,6.72c-.25,1.24,0,.75.75,1.74a6.1,6.1,0,0,1,.75,3,7.22,7.22,0,0,1-2.24,2.24,3,3,0,0,0-1.23,1.53,2.51,2.51,0,0,0-.27-.78,21.5,21.5,0,0,1-1-2.74,15.77,15.77,0,0,1,0-3.48c.25-.74-.25-.74-.75-1.74s-.24-3-1.49-2.74,0,.75-.25,1.75-.25,2.73-.49,4,.49,1.74.49,2.73a25.42,25.42,0,0,1-.25,4.23c-.24,1.24-3.73,5-3.73,5a9.11,9.11,0,0,1-.49-1.24,6.74,6.74,0,0,1,0-2.24c0-.75-1.5-1.49-2.74-2.24s-1-1.49-1-1.49a12.75,12.75,0,0,0-.25-2.49c-.25-1,1-3,1.24-3.48s-1.24-1.24-2.74-.74-1,3.48-1.74,4.22a7.15,7.15,0,0,1-2.48,1.25l-1.25-1a6.54,6.54,0,0,1,.25-1.74.9.9,0,0,0-.5-1.24c-.24,0-.74-1.25-.74-1.25l-1.25-1.49L168.81,133l-3.48-.25L164.08,130l-2-2,3.24-4.22,3-2.74.75-1.24,2.48-1.25,1.5-.74,3.48-1.74,2.24-1,1-1,.5-1.49s1.24-1,1.74-1.5a3.1,3.1,0,0,1,1.74-.49l2.49-2.24s3-3.24,4.23-3.48.49.49,1,.74,0,3,0,3l1-1.25c1-1.24,0-2,0-2s-.5-2.73-.75-3.48,0-4.23.75-5.22,1.49-.5,2.23-1.49,1.75-3,3-3.49,1.24-.74,2.24.75,0,.5-.5,2.74-1.74,2-2,3.48a19.41,19.41,0,0,1-.5,3.48,21.77,21.77,0,0,0-.49,6.22c0,3,.49,5.22,1.74,5s1.24-1.49,1.24-2.73.75-1.75,1-3.24,1-4.47,1.5-5,.25-2.24.49-3,1.25-3.23,2-4.72,1.5-.75,2.24-1.24.25-.75.25-1.25,1.49-1.74,2.24-2.73a2.19,2.19,0,0,0,.5-2,3.07,3.07,0,0,1,1.49-2c.5-.25.5-2,.5-2a5.13,5.13,0,0,1,1.24-3.24C214.07,79,215.07,74,215.07,74s.25-1.5,0-1.74.5-2,1-1.75.25.5.75,1.5a3.57,3.57,0,0,1,.25,3.23c-.5,1.49.49,1.74.49,2.74s1.25,1.24,1.25,1.24L220,81s1.25-.25,1.25-1.24,1-3.49,1-5,.5-.74.75-1.49a5.92,5.92,0,0,0,.49-2.24c0-1,0-.5-.49-1.24s.25-1.74,0-2.24-.75,0-1.5-.5-1-.74-1.49-.74H218.3c-.29,0-.5-.7-.62-1.27a2.27,2.27,0,0,1-.62.27c-.6.2-.24.24-.59.38l.09.87h-2.24c-1,0-1,.49-1.74,1s-.75-.25,0-1a2.71,2.71,0,0,0,.63-1.28,2.78,2.78,0,0,0-1.38-.22h-2a2.05,2.05,0,0,1-.83-.2,4.88,4.88,0,0,0-.17,2.19c0,1-.75,1.49-1.24,1.25s-.25-1-.25-1.74-.5-1.25-.5-1.5-.26-.75-.4-1.24h-.1a3.48,3.48,0,0,0-2,1.24c-.24.5-1.49,1-2.23,1.74a11.08,11.08,0,0,0-1.25,1.5s-8.95,7-12.93,8.2a5.65,5.65,0,0,1-2.74.25,2.61,2.61,0,0,0-1.49,0h-1.49A13.92,13.92,0,0,1,177.76,81c-1,.53-3.73,1.49-4.72,2.24s-1,2.24-2.49,3a28.58,28.58,0,0,0-3.47,2.29,29.15,29.15,0,0,1,2,2.19c.5.75.74,1,1.74,2.24s.74.5,2,1,2,.25,1.74,1.25a23,23,0,0,1-2.49,4,2.25,2.25,0,0,1,2.36.87c.75,1.24,0,1,.75,2s-.75,1.24-1.24,2.48-.75,2.74-1.74,3.73-2.24,2.24-5.23,5.72-1.49.25-3.73,2.24a43.15,43.15,0,0,1-4.47,3.48C156.75,121.15,148,126.12,148,126.12Z" style="fill:#86ac98"/><path d="M124.79,109.83c1.49,0,1.74-1,2.73-1s1,.5,2.74.75,4-1.24,5.72-1.24,2.24.49,3.48.25,1-3.49,3.24-4,3.73-.25,4.47.25,1.74-.5,2.24-1.5.5-8.45,1.24-9.94-.24-3.49,0-4.73-.49-3,1-3.23,2,0,2.24.49l.25.5s.74-1.24,1-1.74a5.89,5.89,0,0,1,.58-1.76l-.08,0c-2,.5-2.74,1.24-3.73,1.49a6.54,6.54,0,0,0-2,1s-2.49,0-3.73,1.24a2.26,2.26,0,0,0-2.74.75,38.18,38.18,0,0,1-7,5.22A11.69,11.69,0,0,0,132,96.4c-.56.89-9.7,9.7-20.14,15.67a12.66,12.66,0,0,0,4.22,2.49c2,.49.25,1,2.74.74s.25-1.49,1.74-3S123.3,109.83,124.79,109.83Z" style="fill:#91b19b"/><path d="M243.3,83.59c-.5-1.49-.5-1-.5-1.74s.5-1.24-.5-1.74-.5-.5-1.49-1-.25-.74-1-.49.25,1-.74.74-1-.25-1-.49.25-.25.25-1,.5-.25,0-1.24a7.7,7.7,0,0,1-.74-1.49,14.23,14.23,0,0,1-1.5-3.73c-.25-1.75.5-.5-.25-2s-.49-2-.74-2.24-.75.49-.75-.75a3.69,3.69,0,0,0-.64-1.72c-.52.46-1.18,1.1-1.72,1.1-.75,0-.5-1.49-1.24-1.24l-.75.24-.5.25a4,4,0,0,0-1.49-.74,4.59,4.59,0,0,1-1.74-.5c-.5-.25,0-.75-1.24-.5a7,7,0,0,0-2.93,1.19,2.88,2.88,0,0,1,.56,1.17c0,.75,1,.5,2,2.24a21.32,21.32,0,0,0,1.52,2.55c-.49-.1-.92-.16-1-.06-.25.25.25,1.24,0,1.74a6.91,6.91,0,0,0-.25,2.49v1.49c0,1-.74.75,0,1.49a6.82,6.82,0,0,0,1.49,1.25c.75.49-.74-2.74-.24-3a1,1,0,0,1,1.49.5,13.71,13.71,0,0,0,1,3c.5.75.25,1,.75,1s1.24-.5,1.24.5,1.25,1.74,1.25,1.74a1.09,1.09,0,0,1-.25-.75c0-.5.25-2-.25-2.49s0-.74-.25-1.74-.5-.74-.5-1.49c0-.5,0-1.26-.08-1.72.52.59.92,1.07,1.08,1.22.49.5,1,.5,1.74,1.74s1.24.75,1.49,1.5-.5,1.24.25,2.73.74,2,1.49,2.24.75,0,1,.5a14.12,14.12,0,0,0,2,2,3.85,3.85,0,0,1-.75-1.74c0-.75.5-.5,0-1.25s-1.24-1.24-1.24-1.74.24-.74.49-1.24.5-.75.75-.25a3.26,3.26,0,0,0,1.24,1.74c1,.75,1.49.75,1.74,1.49a5.8,5.8,0,0,0,1.5,2.24c.74.75,1.49,1.24,1.74,1.49A37.68,37.68,0,0,1,243.3,83.59Z" style="fill:#86ac98"/><path d="M261.82,148.38a10.62,10.62,0,0,1,4.23-1c2.24,0,4.23.75,5.22,0s1-.49,2.24-1.49-.49-1.74,3.24-1.74,6.21-.25,7-.75,2.24-.24,2.49-1.74,1.74-1,.49-2.73-.49-2.24-1.74-2.49-1-2.24-3.48-3.48-1.74-1.24-3.48-2.24-1.24-1.24-2.74-2.49-8.7-6.46-12.43-9.94-5.47-4.48-8-7.22-3-.49-4.23-5-1.49-4.23-3.73-8.46-4.23-3.73-4.47-6.21-1.25-3,.24-2.49,2.49,2.73,3.24,3.23,1.24,2,2.24,2-.5,2,3,3.23,1.49,1.75,2.74,3.49,3.73,3.23,4.72,4.22a32.22,32.22,0,0,0,6,3.73,62,62,0,0,1,8.46,6c2.23,2,7,4.23,9,5s5.47,2.48,9.7,4,0-.75-2.74-2.24-1-2.24-3.23-2.74-8-4.22-9.45-5.72-2.74-3.48-4.73-5.22a8.63,8.63,0,0,1-3-3.73c-1.24-2.24-1.74-3.73-.25-3.23s1.49,3.73,3,4.47,6,4,7.22,4.23a4.67,4.67,0,0,1,3.23,2,19.62,19.62,0,0,0,6.47,4.48c2.73,1.24,5.72,4,8.7,4.72s2,.5,4.48,1.74,6.46,2.24,7.71,3,4.72,1,5.22,2.24,11.94,4,11.94,4l.5,20.89s-9.46-14.68-12.69-14.93-4-1-8.21-2.23-7.71-3-9.2-3.49-3.73-.24-6.21-2.73-11.2-6.72-11.94-7.21,5.72,3.73,7.21,5.47a19.21,19.21,0,0,0,6.47,4.23c1.49.49,5.22,3.73,7.95,4.22s3,0,6,2.49,6,3.23,8,5,4.23,4.23,3.73,4.73-11.19-5.72-14.67-7-2.74-1-6.22-2.24-6.71-4.48-8.95-5.22,2.24,2.48,4.23,5,3.23,2,3.48,4.23-1.49,2.24-.75,4.72,1.62,5.35-.87,5.85-16.29-.62-20-.38-9.45,1.74-11.94.25S261.82,148.38,261.82,148.38Z" style="fill:#86ac98"/><path d="M347.56,151.49s-74.55-.5-92.33-1S223.06,149,216.78,150s-37.93-.5-46.82.49-3.14-1.24-30.08-1.24-46.56,1.49-56.23,1-26.16,2-34.27,2-41.06.5-48.65.5H-9.47L-13.13,246l364.61-3.48Z" style="fill:#698b87"/><polygon points="382.2 165.51 355.46 6.51 346.06 59.99 352.57 54.93 346.06 67.22 326.55 166.95 382.2 165.51" style="fill:#283c3f"/><polygon points="81.71 250.52 54.97 91.52 45.57 145 52.08 139.94 45.57 152.23 26.06 251.97 81.71 250.52" style="fill:#283c3f"/><path d="M61.31,226.34s7.79-7.76,9.13-9,2.81-4.26,1.88-4.64S62,220,62,220l2.75-13.48,6.78-6.87-5.49,1.56.59-4.41S75.33,185,76,183.79s.42-1.57.42-1.57l-7,5.91,3-12.51s5.2-7,4.59-7.33-3.64,2.32-3.64,2.32l3.75-18.07L82,130.21l6.34,42.45s-2.85-2.85-3.49-2.54,4.12,7.6,4.12,7.6l2.22,12.68-6.65-6.34s-.32.32.31,1.58,8.56,13.62,8.56,13.62l.31,4.44-5.38-1.9,6.33,7.28,1.9,13.62s-8.87-8.23-9.82-7.91.32,3.48,1.59,4.75,8.55,9.5,8.55,9.5l1.9,23.12L59.24,250.9Z" style="fill:#355151"/><path d="M361.8,141.33s7.79-7.76,9.13-9,2.81-4.27,1.88-4.64-10.3,7.29-10.3,7.29l2.75-13.48,6.78-6.87-5.49,1.56.59-4.41s8.68-11.83,9.39-13.06.42-1.56.42-1.56l-7,5.91,3-12.51s5.2-7,4.59-7.33-3.64,2.31-3.64,2.31l3.75-18.06,4.91-22.33,6.34,42.44s-2.85-2.85-3.49-2.53,4.12,7.6,4.12,7.6l2.22,12.67-6.65-6.33s-.32.31.31,1.58,8.56,13.62,8.56,13.62l.31,4.44-5.38-1.9,6.33,7.28,1.9,13.62s-8.87-8.23-9.82-7.92.32,3.49,1.59,4.75,8.55,9.51,8.55,9.51l1.9,23.12-39.59-1.27Z" style="fill:#355151"/><path d="M401.24,120.82s-45.51-13.18-100.48,16.41c-4.11,2.22-35.56,23.38-47,27.11s-27.36,6.47-34.07,6-11.69-.25-20.15,2.49-37.55,10.69-57.7,15.42-40.54,6.22-47.75,9.2-17.91,7.21-26.61,9-16.66-2-37.31,9.7-22.38,10.2-28.6,14.68-8.7,13.92-8.7,13.92l409.61.25Z" style="fill:#577977"/><path d="M92.51,236.13l-8.64,1.3L56.11,34.55a1.64,1.64,0,0,1,1.37-1.84h0a1.63,1.63,0,0,1,1.85,1.35Z" style="fill:#0b0915"/><polygon points="62.45 51.74 58.34 52.36 45.36 45.06 72.7 40.94 62.45 51.74" style="fill:#0b0915"/><path d="M104.55,220.72l-8.38,2.48L40.74,26.07a1.63,1.63,0,0,1,1.11-2h0a1.62,1.62,0,0,1,2,1.08Z" style="fill:#0b0915"/><polygon points="49.39 42.23 45.4 43.41 31.54 37.96 58.06 30.12 49.39 42.23" style="fill:#0b0915"/><path d="M163.66,142.54s4.56,67.46-.22,99.05c0,0-37.14,13-94,6-3-.5,4.49,18,4.49,18S58.48,270.51,57.49,272s-8-7.48-11-28.92S28.07,107.47,85.91,91c5-4,57.84,0,57.84,0s28.64,1,53,33c1.84,2.41,3.56,4.9,6,6.68L252.39,77l10,8c-.19.07-33.52,50.76-46.19,70.9A10.85,10.85,0,0,1,202.55,160Z" style="fill:#ef1e32"/><path d="M163.66,142.54s4.56,67.46-.22,99.05c0,0-37.14,13-94,6-3-.5,4.49,18,4.49,18S58.48,270.51,57.49,272s-8-7.48-11-28.92S28.07,107.47,85.91,91c5-4,57.84,0,57.84,0s28.64,1,53,33c1.84,2.41,3.56,4.9,6,6.68L252.39,77l10,8c-.19.07-33.52,50.76-46.19,70.9A10.85,10.85,0,0,1,202.55,160Z" style="opacity:0.5;fill:url(#h)"/><polygon points="141.12 65.67 139.52 94.7 134.35 104.67 98.2 107.17 83.77 98.62 82.96 84.73 81.18 56.15 121.93 51.24 141.12 65.67" style="fill:#fdccaa"/><path d="M90.36,64.62a2.73,2.73,0,0,1,1-.29c.39,0,.75,0,1.15,0a21.87,21.87,0,0,0,3-.08,7,7,0,0,1,1.11-.11,3.69,3.69,0,0,0,.87-.07c.68-.1,1.33.1,2,0,.42-.08.79,0,1.22,0s1-.06,1.48-.1a2.82,2.82,0,0,1,1.9.59c.35.22.49.25.57.66s.09.54.13.81c.07.44.14.88.22,1.32a4.38,4.38,0,0,1,.1.81,2,2,0,0,1-.54,1.14,4.62,4.62,0,0,1-3.83,1.56c-1.29,0-2.56,0-3.85-.06a8.19,8.19,0,0,1-1.31,0,9.26,9.26,0,0,0-1.54-.35c-.75,0-1.37-.29-2.11-.35s-1.36-.2-2-.3a5.35,5.35,0,0,1-2.06-.62,3.63,3.63,0,0,1-1.18-1.88A1.91,1.91,0,0,1,87.32,65a3.35,3.35,0,0,1,2.77-.15" style="fill:#0b0915"/><path d="M92.73,77.09c1.65-2.12,4.42-1.52,6.35-.18.29.2.56-.27.28-.47-2.12-1.46-5.21-2-7,.27-.21.27.17.66.38.38Z"/><path d="M96.09,74.23c.24.24-.27.55-.45.6-.34.09-.33-.44-.37-.68-.06-.41-.09-.47.3-.53s.58,0,.69.36a1.65,1.65,0,0,1,.1.44c0,.4-.2.29-.25.08a.21.21,0,1,1,.42,0,.5.5,0,0,1-.82.31,1.18,1.18,0,0,1-.13-.18l-.06-.12c0-.16-.09-.11-.18.14.48-.18.27-1-.21-.78-.64.24-.44.91-.12,1.34a1.29,1.29,0,0,0,1.85.23,1.22,1.22,0,0,0,.19-1.74,1.17,1.17,0,0,0-1.7.34,1.15,1.15,0,0,0,.86,1.52c1,0,1-1.1.82-1.75-.23-.82-.82-1-1.63-.92s-1,.65-.91,1.45a1.75,1.75,0,0,0,.46,1.2,1.06,1.06,0,0,0,1.19,0,1.5,1.5,0,0,0,.74-.73,1.09,1.09,0,0,0-.23-1.09c-.36-.37-.93.2-.56.57Z"/><path d="M133.8,64.62a2.78,2.78,0,0,0-1-.29c-.39,0-.75,0-1.15,0a21.87,21.87,0,0,1-3-.08,7,7,0,0,0-1.11-.11,3.69,3.69,0,0,1-.87-.07c-.68-.1-1.33.1-2,0-.42-.08-.79,0-1.22,0s-1-.06-1.48-.1a2.82,2.82,0,0,0-1.9.59c-.35.22-.49.25-.57.66s-.09.54-.13.81c-.07.44-.14.88-.22,1.32a5.43,5.43,0,0,0-.1.81,2,2,0,0,0,.54,1.14,4.63,4.63,0,0,0,3.83,1.56c1.29,0,2.56,0,3.85-.06a8.19,8.19,0,0,0,1.31,0,9.26,9.26,0,0,1,1.54-.35c.75,0,1.37-.29,2.11-.35s1.36-.2,2-.3a5.35,5.35,0,0,0,2.06-.62,3.63,3.63,0,0,0,1.18-1.88,1.91,1.91,0,0,0-.61-2.22,3.35,3.35,0,0,0-2.77-.15" style="fill:#0b0915"/><path d="M128.8,76.71c-1.8-2.32-4.89-1.73-7-.27-.28.2,0,.67.28.47,1.93-1.34,4.7-1.94,6.35.18.21.28.59-.11.38-.38Z"/><path d="M124.5,73.66c-1.21,1.2,1.54,3,2.06,1.24.17-.6.37-1.61-.34-1.93a1.59,1.59,0,0,0-1.89.27c-.38.57-.54,1.61.06,2.07s1.41-.13,1.48-.83A1,1,0,1,0,124,75a1.3,1.3,0,0,0,2.08.29c.4-.41.67-1.21,0-1.47-.48-.18-.69.6-.21.78-.09-.25-.15-.3-.18-.14l0,.08a1.43,1.43,0,0,1-.14.2.48.48,0,0,1-.81-.23c-.08-.42.48-.32.4,0s-.22.37-.25-.08a1.57,1.57,0,0,1,.1-.44c.11-.37.34-.41.69-.36s.35.1.31.45,0,.77-.3.8-.76-.42-.53-.64c.37-.37-.2-.94-.56-.57Z"/><path d="M83.9,63.69s0,.16,0,.45c.19,5.21,1.49,27.31,5.27,31.14,2.84,2.88,6.43,3.45,10.31,3.09a198.65,198.65,0,0,1,21.68-1q3.06,0,6.12.2c3.45.18,7.4.26,9.73-2.29a9.69,9.69,0,0,0,2.07-5.38c.48-3.51.39-23.12-.27-26.6a6.49,6.49,0,0,1,3,3c.58,1.61-.08,19.56-.12,21.22a27.32,27.32,0,0,0,.74,6.74c1,4.42,2.67,8.62,3.95,13A67.43,67.43,0,0,1,149.16,123a19.56,19.56,0,0,1-.48,6.48c-.85,2.92-4.18,8.65-7.93,7.82a3.34,3.34,0,0,1-2.87-3.6s.89,7.38-3.78,8.1-4-4-5-4.32-1.8,5.76-5,7.56-5.76,1.08-6.11-2.88-.72-2.52-1.44-1.44,1.44,9.35-6.12,7.2c-4.68-1.44-4.68-7.2-4.68-7.2a14.9,14.9,0,0,1-1.08,4c-1.07,2.06-5.73,1.21-7.91-4-.6-1.41-1.8-4.32-1.8-4.32s-.72,5-1.8,5.4-5.76-4-6.12-4.68-2.13-5.33-2.16-5.4c.52,1.34-.18,4.53-1.87,4.46-2.32-.09-4-5.95-4.64-7.71a34.66,34.66,0,0,1-.7-20.75c1.12-3.93,2.94-7.65,3.89-11.62.69-2.89-.68-24.6-1.08-27.54C79.94,65.1,81.84,66.38,83.9,63.69Z" style="fill:#3a3f49"/><path d="M84.18,63.75s0,.16,0,.45c.19,5.26,1.5,27.54,5.31,31.4,2.86,2.91,6.49,3.49,10.4,3.12a199.44,199.44,0,0,1,21.86-1c2.06,0,4.12.09,6.18.2,3.47.17,7.46.26,9.81-2.31a9.87,9.87,0,0,0,2.09-5.43c.48-3.54.39-23.32-.28-26.83,1.24.77,2.57,1.63,3.06,3,.58,1.63-.08,19.74-.13,21.41a28.3,28.3,0,0,0,.75,6.8c1,4.45,2.69,8.7,4,13a68.09,68.09,0,0,1,2.76,16,19.61,19.61,0,0,1-.48,6.53c-.86,2.94-4.22,8.72-8,7.89a3.37,3.37,0,0,1-2.9-3.63s.91,7.44-3.81,8.16-4-4-5.08-4.35-1.81,5.8-5.08,7.62-5.81,1.09-6.17-2.91-.73-2.54-1.45-1.45,1.45,9.44-6.17,7.26c-4.72-1.45-4.72-7.26-4.72-7.26a14.77,14.77,0,0,1-1.09,4c-1.08,2.08-5.77,1.23-8-4-.6-1.42-1.81-4.35-1.81-4.35s-.73,5.08-1.82,5.44-5.8-4-6.17-4.72-2.15-5.38-2.17-5.44c.51,1.35-.19,4.56-1.9,4.49-2.33-.09-4.06-6-4.68-7.77a35,35,0,0,1-.69-20.92c1.12-4,3-7.72,3.92-11.73.7-2.91-.7-24.81-1.09-27.77C80.18,65.17,82.1,66.46,84.18,63.75Z" style="opacity:0.1;fill:url(#i)"/><path d="M112.14,94.83s8.08-10.55,21.12,3.73c3.1,1.24,5,5,8.07,3.72s1.86,7.46-17.39,7.46c-3.53.87-9.84-5.46-11.8-9.32-.62-1.24-9.93,15.53-28.56,7.45-2.49,0-3.73-4.34-3.73-4.34s5,.62,7.45-1.25S99.1,83.65,112.14,94.83Z" style="fill:#3a3f49"/><path d="M106.78,94.88a5.18,5.18,0,0,1-.75-3.74c.38-2.25,2.25-5.61,2.25-8.23s1.49-6.74,2.62-7.12,3.37,1.5,3.37,3.37a35.72,35.72,0,0,0,1.12,7.11c.37,1.13,1.87,7.49,1.12,8.61s-3.37,0-3.37,0-.75,1.88-1.49,1.88-2.25-1.5-2.25-1.5A2.28,2.28,0,0,1,106.78,94.88Z" style="fill:#b98f6e"/><path d="M69.3,248.84c-3.15-24.46-5.26-50-2.52-74.59.07-.61-.87-.6-.94,0-2.74,24.56-.63,50.13,2.51,74.59.08.59,1,.6,1,0Z"/><path d="M161.66,248.84c3.15-24.46,5.26-50,2.52-74.59-.07-.6-1-.61-1,0,2.75,24.56.63,50.13-2.51,74.59-.08.6.87.59.94,0Z"/><path d="M115.46,144.59c1.17,2.19,1.19,5.49,1.6,7.9.51,2.95,1.33,5.8,1.68,8.77.53,4.53,1.28,9,1.51,13.57.28,5.42-.74,10.47-1.59,15.78-1.45,9.14-.4,18.08-.18,27.27.25,10.86,1.93,21.64,2.16,32.48a.47.47,0,0,0,.94,0c-.45-21.66-4.84-43.16-1.15-64.73,1.49-8.67.65-17.6-.81-26.23-.49-2.85-1.38-5.65-1.88-8.52-.36-2.12-.44-4.84-1.47-6.76-.28-.54-1.1-.06-.81.47Z"/><path d="M137.83,70.25A27,27,0,0,0,124,67.73c-2.48.11-5.19.55-7.22,2.1a6.28,6.28,0,0,0-2.4,4.23,4.6,4.6,0,0,0-6-.12s0,.37,0,.83c0-.37-.05-.73-.1-1.08a6.28,6.28,0,0,0-2.4-4.23c-2-1.55-4.74-2-7.23-2.1a27,27,0,0,0-13.88,2.52c-1.82.87-1.88,2.71-1.51,4.57.22,1.09,2.52,2.3,2.53,2.3A14.45,14.45,0,0,1,86,79.07,14.75,14.75,0,0,0,87.77,84c2.79,4.55,8.84,5.26,13.55,3.6a9.62,9.62,0,0,0,4.57-3.64,15.27,15.27,0,0,0,2.36-7.37s0,0,0-.14c2.52-2.78,5.33-.63,5.93-.11a15.43,15.43,0,0,0,2.38,8,9.64,9.64,0,0,0,4.58,3.64c4.71,1.66,10.76.95,13.55-3.61a14.59,14.59,0,0,0,1.81-4.88,14.4,14.4,0,0,1,.29-2.32s2.3-1.21,2.52-2.3C139.71,73,139.66,71.12,137.83,70.25ZM91.49,85.6a9.66,9.66,0,0,1-3.9-5.35c-.77-2.46-1.62-6.68.26-8.86,1.26-1.45,3.37-2,5.18-2.28a41.14,41.14,0,0,1,9.08,0c5,.28,4.93,5.81,5,7.34C107.72,84.44,98.07,89.71,91.49,85.6Zm43.4-5A9.67,9.67,0,0,1,131,86c-6.58,4.11-16.24-1.17-15.66-9.18.11-1.53,0-7.06,5-7.34a41.05,41.05,0,0,1,9.07,0c1.81.3,3.93.83,5.18,2.28C136.51,73.94,135.67,78.16,134.89,80.61Z" style="fill:#005d6d"/><path d="M79.44,59.22s0-27.09,25.83-27.09c6.93-1.26,35.91-1.89,35.91,22.68C140.55,60.48,79.44,59.22,79.44,59.22Z" style="fill:#3e292f"/><path d="M80.07,69.3s27.09-18.9,61.11,0c5,2.52.63-13.86,0-14.49s-36.54-19.53-61.11,4.41C78.18,60.48,80.07,69.3,80.07,69.3Z" style="fill:#3e292f"/><path d="M79.82,68.86s27.09-18.9,61.11,0c5,2.52.63-13.86,0-14.49s-36.54-19.54-61.11,4.41C77.93,60,79.82,68.86,79.82,68.86Z" style="fill:url(#j)"/><path d="M114,162c-1.21,1.2,1.54,3,2,1.24.18-.6.38-1.61-.33-1.93a1.59,1.59,0,0,0-1.89.27c-.38.57-.54,1.61.06,2.07s1.41-.13,1.48-.83a1,1,0,1,0-1.91.52,1.29,1.29,0,0,0,2.07.29c.41-.41.68-1.21,0-1.47-.48-.18-.69.6-.21.78-.09-.25-.15-.3-.18-.14l0,.08a1.43,1.43,0,0,1-.14.2.48.48,0,0,1-.81-.23c-.08-.42.48-.32.4,0s-.22.37-.25-.08a1.73,1.73,0,0,1,.1-.45c.11-.36.34-.4.69-.35s.35.1.31.45,0,.77-.3.8-.76-.42-.53-.64c.37-.37-.2-.94-.56-.57Z"/><path d="M114.54,179.07c-1.21,1.2,1.54,3,2.06,1.24.17-.61.37-1.61-.33-1.93a1.58,1.58,0,0,0-1.89.27,1.63,1.63,0,0,0,.06,2.07c.64.5,1.4-.13,1.48-.84a1.05,1.05,0,0,0-1.35-1,1,1,0,0,0-.57,1.54,1.31,1.31,0,0,0,2.08.3c.4-.41.68-1.21,0-1.47-.49-.18-.7.59-.22.77-.09-.24-.14-.29-.17-.14l-.05.09a2.26,2.26,0,0,1-.13.2.49.49,0,0,1-.82-.23c-.07-.43.49-.32.41,0s-.23.37-.25-.09a1.38,1.38,0,0,1,.09-.44c.11-.36.34-.4.7-.35s.34.1.3.45,0,.76-.29.8-.76-.42-.53-.65a.4.4,0,0,0-.57-.56Z"/><path d="M113.49,192.18c-1.2,1.2,1.55,3,2.06,1.25.18-.61.38-1.61-.33-1.94a1.58,1.58,0,0,0-1.89.28,1.64,1.64,0,0,0,.06,2.07c.64.5,1.41-.13,1.48-.84a1,1,0,1,0-1.92.52,1.31,1.31,0,0,0,2.08.3c.4-.42.68-1.21,0-1.47-.48-.18-.69.59-.21.77-.09-.25-.15-.29-.18-.14l0,.09c-.06.06-.08.14-.14.2a.49.49,0,0,1-.82-.23.22.22,0,1,1,.41,0c-.05.19-.23.36-.25-.09a1.4,1.4,0,0,1,.1-.44c.11-.36.34-.41.69-.35s.35.1.31.45,0,.76-.3.79-.76-.41-.53-.64-.2-.93-.57-.57Z"/><path d="M112.9,151.25c-1.21,1.2,1.54,3,2.06,1.24.17-.61.37-1.61-.34-1.93a1.56,1.56,0,0,0-1.88.27,1.61,1.61,0,0,0,.06,2.07c.64.5,1.4-.13,1.47-.83a1,1,0,1,0-1.91.52,1.31,1.31,0,0,0,2.08.29c.4-.41.68-1.21,0-1.47-.48-.18-.69.59-.21.77-.09-.24-.15-.29-.17-.13l-.05.08c0,.06-.08.14-.13.2a.49.49,0,0,1-.82-.23c-.07-.42.48-.32.41,0s-.23.37-.25-.09a1.38,1.38,0,0,1,.09-.44c.11-.36.34-.4.7-.35s.34.1.3.45,0,.76-.29.8-.76-.42-.53-.65-.21-.93-.57-.56Z"/><ellipse cx="111.44" cy="108.11" rx="0.94" ry="1.77" style="fill:#e3dad2"/><path d="M61.93,106.35s4.37-8.12,11.24-10.61S76.29,175,65.68,200C61.93,206.82,61.93,106.35,61.93,106.35Z" style="fill:#004652"/><path d="M162.83,97.61A84.84,84.84,0,0,0,149,90.74c-6.86-2.49,4,80.51,14.63,105.47C167.4,203.08,162.83,97.61,162.83,97.61Z" style="fill:#004652"/></g><path d="M258.63,44.57h59.74a0,0,0,0,1,0,0v89.12a0,0,0,0,1,0,0H258.63a6.12,6.12,0,0,1-6.12-6.12V50.69a6.12,6.12,0,0,1,6.12-6.12Z" transform="translate(28.51 -63.87) rotate(13.43)" style="fill:#3e292f"/><path d="M266.76,72.6l-.29-3.18-2.7-.64L262,71.47l1,.24L263,72l-2.08-.5.07-.26.63.16,5.7-8.52,1.12.27,1.19,10.16.63.15-.06.26-4.45-1.06.06-.26Zm-.66-7.35L264,68.51l2.46.59Z" style="fill:#fff"/><path d="M278,75.42a1.1,1.1,0,0,0,.91,0,1.41,1.41,0,0,0,.38-.79L280,72l-.87-.21.07-.3,3.92.94-.07.29-.53-.12-.92,3.83-.2,0a.84.84,0,0,0-.62-.5,7.74,7.74,0,0,0-1.19,0,6.26,6.26,0,0,1-1.67-.14,4.81,4.81,0,0,1-3.15-2,5,5,0,0,1-.35-3.89,5.22,5.22,0,0,1,2.15-3.4,4.68,4.68,0,0,1,3.73-.49,6.64,6.64,0,0,1,1.62.61,7.52,7.52,0,0,0,.92.44.32.32,0,0,0,.22,0,1,1,0,0,0,.2-.18l.15,0-.6,3-.24,0a10.15,10.15,0,0,0-.85-2.4,2,2,0,0,0-1.32-1.11c-1.39-.33-2.4.86-3.05,3.57l-.26,1.07a7.41,7.41,0,0,0-.22,3.2A1.62,1.62,0,0,0,278,75.42Z" style="fill:#fff"/><path d="M286.61,76.58a1.73,1.73,0,0,0,1.39,1,2.16,2.16,0,0,0,1.87-.28,3.28,3.28,0,0,0,1.11-2l1.46-6.14-.88-.21.06-.26,2,.47-.06.26-.75-.18-1.45,6A3.71,3.71,0,0,1,290,77.69a3.56,3.56,0,0,1-2.84.2,4.76,4.76,0,0,1-2.71-1.48,3.38,3.38,0,0,1-.35-3l1.41-5.9-.75-.18.06-.26,4.29,1-.06.26-.89-.21-1.52,6.36A3.65,3.65,0,0,0,286.61,76.58Z" style="fill:#fff"/><path d="M294.17,69.36l4.14,1-.06.26-.75-.18-2.15,9,.75.18-.06.26-4.15-1,.06-.25.75.17,2.15-9-.75-.18Z" style="fill:#fff"/><path d="M307.26,77.34q-.66,2.8-2.51,3.53a7,7,0,0,1-4.24.06L296.67,80l.06-.25.89.21,2.15-9-.89-.22.06-.25,4.2,1a6.28,6.28,0,0,1,3.66,2A4.44,4.44,0,0,1,307.26,77.34Zm-7,3.26.52.13a2.17,2.17,0,0,0,2.2-.51,6.81,6.81,0,0,0,1.37-3.11l.19-.79c.48-2,.39-3.36-.29-4a3.49,3.49,0,0,0-1.51-.68l-.32-.08Z" style="fill:#fff"/><path d="M309.2,73l7.07,1.69-.5,2.72-.25-.06a5.07,5.07,0,0,0-.74-2.17,2.93,2.93,0,0,0-1.72-.94l-.47-.12-1,4.2.47.11a1.38,1.38,0,0,0,1.18-.22,2.88,2.88,0,0,0,.93-1.15l.2,0-1,4-.23-.06a3.37,3.37,0,0,0-.31-1.61,1.54,1.54,0,0,0-1-.7l-.32-.08-1,4.36.51.13a3.25,3.25,0,0,0,2.31-.24,4,4,0,0,0,1.66-1.63l.27.06-.81,2.94-7.47-1.78.07-.3.8.19,2.14-8.92-.81-.19Z" style="fill:#fff"/><path d="M268.51,75.72,267.86,79l-.24,0a10.79,10.79,0,0,0-.45-2.6,1.49,1.49,0,0,0-1.12-.93l-.16,0-2,8.53,1.1.26-.07.27-4.72-1.13.06-.27,1.1.27,2-8.53-.17,0a1.51,1.51,0,0,0-1.44.35,9.82,9.82,0,0,0-1.55,2.09l-.25-.06.91-3.22Z" style="fill:#fff"/><path d="M271.37,86.13a4.31,4.31,0,0,1-3-1.95,5,5,0,0,1-.25-3.65,5.16,5.16,0,0,1,2-3.22,4.22,4.22,0,0,1,3.55-.5,4.1,4.1,0,0,1,2.88,2,6.25,6.25,0,0,1-1.67,6.89A4.19,4.19,0,0,1,271.37,86.13ZM274,82.39l.23-1a11.31,11.31,0,0,0,.48-3.05,1.32,1.32,0,0,0-.53-1,1.84,1.84,0,0,0-.63-.27,1.87,1.87,0,0,0-.69,0,1,1,0,0,0-.55.25,2.73,2.73,0,0,0-.42.48,3.58,3.58,0,0,0-.37.76c-.17.49-.37,1.22-.61,2.19l-.22.94a14,14,0,0,0-.41,2.27,3,3,0,0,0,.07,1,1.41,1.41,0,0,0,1.1.93,1.3,1.3,0,0,0,1.53-.54A10.45,10.45,0,0,0,274,82.39Z" style="fill:#fff"/><path d="M281,78.71l3.88.93a5.88,5.88,0,0,1,2.58,1.13,1.72,1.72,0,0,1,.51,1.85c-.28,1.18-1.16,1.72-2.64,1.61v0c1.68.63,2.36,1.59,2.05,2.87a2.09,2.09,0,0,1-1.53,1.73,6.9,6.9,0,0,1-3.19-.17l-3.81-.91.06-.25.84.2,2.05-8.57L281,79Zm2.3,5.29-1,4.34.6.14a1.08,1.08,0,0,0,1.12-.25,3,3,0,0,0,.63-1.38l.17-.69a2.06,2.06,0,0,0-.05-1.37,1.55,1.55,0,0,0-1.14-.72Zm1-4.24-1,4,.34.08a1,1,0,0,0,1-.18,2.32,2.32,0,0,0,.57-1.19l.14-.61a2.67,2.67,0,0,0,.09-1.39,1,1,0,0,0-.8-.6Z" style="fill:#fff"/><path d="M291.93,91a4.31,4.31,0,0,1-3-2,5,5,0,0,1-.25-3.65,5.16,5.16,0,0,1,2-3.22,4.22,4.22,0,0,1,3.55-.5,4.1,4.1,0,0,1,2.88,2,5.13,5.13,0,0,1,.24,3.69,5.21,5.21,0,0,1-1.9,3.2A4.22,4.22,0,0,1,291.93,91Zm2.64-3.74.23-1a11.26,11.26,0,0,0,.48-3,1.32,1.32,0,0,0-.53-1.05,1.84,1.84,0,0,0-.63-.27,1.87,1.87,0,0,0-.69,0,1,1,0,0,0-.55.25,2.73,2.73,0,0,0-.42.48,3.58,3.58,0,0,0-.37.76c-.17.49-.37,1.22-.61,2.19l-.22.94a14,14,0,0,0-.41,2.27,2.7,2.7,0,0,0,.08,1,1.38,1.38,0,0,0,1.09.93,1.3,1.3,0,0,0,1.53-.54A10.45,10.45,0,0,0,294.57,87.3Z" style="fill:#fff"/><path d="M307.19,89.59q-.65,2.67-2.4,3.36a6.82,6.82,0,0,1-4,.06l-3.66-.88.06-.24.85.2,2.05-8.58-.86-.2.06-.25,4,1a5.91,5.91,0,0,1,3.48,1.91A4.22,4.22,0,0,1,307.19,89.59Zm-6.66,3.1.49.12a2.06,2.06,0,0,0,2.09-.48,6.4,6.4,0,0,0,1.31-3l.18-.75c.46-1.94.37-3.2-.28-3.77a3.29,3.29,0,0,0-1.43-.65l-.31-.07Z" style="fill:#fff"/><path d="M312.05,90.62l2.8-3.61-1.3-.31.05-.21,2.55.61,0,.21-.86-.21-3,3.86-1,4.29.79.19-.06.24-4.11-1,.06-.24.79.19,1-4.05-1.11-5.1-.61-.14.05-.21,4.14,1-.05.21-.84-.2Z" style="fill:#fff"/><path d="M260.34,95l-.24-2.66-2.26-.54-1.46,2.25.85.21-.05.21-1.74-.41.05-.22L256,94l4.77-7.13.93.22,1,8.51.52.13-.05.21-3.73-.89,0-.21Zm-.55-6.15L258,91.61l2.06.49Z" style="fill:#fff"/><path d="M271.85,89.81,270,97.56l-1.6-.38-2.14-8.3L264.55,96l.62.15-.05.22L263.56,96l.05-.22.63.15,1.8-7.54-.62-.15.05-.22,3.14.75,1.62,6.44,1.31-5.51-.62-.15.05-.21,1.56.37,0,.22Z" style="fill:#fff"/><path d="M280,95.6a3.81,3.81,0,0,1-2.1,3,6,6,0,0,1-3.55,0l-3.23-.77.05-.22.75.18,1.81-7.54-.76-.18.06-.22,3.52.85a5.18,5.18,0,0,1,3.06,1.67A3.7,3.7,0,0,1,280,95.6Zm-5.85,2.73.43.11a1.84,1.84,0,0,0,1.84-.42,5.8,5.8,0,0,0,1.15-2.61l.16-.66c.4-1.71.32-2.82-.25-3.33a2.85,2.85,0,0,0-1.26-.56l-.27-.07Z" style="fill:#fff"/><path d="M289.71,93.84l3,.73-.05.22-.62-.15-1.81,7.54.63.15,0,.21-3.48-.83.06-.21.62.15,1.7-7.12h0l-3.46,6.93-1.43-.34-.24-7.86h-.05l-1.71,7.16.63.15-.05.21-1.55-.37,0-.21.63.15,1.8-7.54-.63-.15.05-.22,3.08.73.11,6.23Z" style="fill:#fff"/><path d="M293.32,94.71l3.48.83-.05.21-.63-.15-1.8,7.54.63.15-.06.22-3.47-.83.05-.22.63.15,1.8-7.54-.63-.15Z" style="fill:#fff"/><path d="M303.76,97.43l-1.86,7.75-1.59-.38-2.15-8.3-1.71,7.15.63.15L297,104l-1.56-.37.06-.22.62.15,1.8-7.54-.62-.15.05-.22,3.15.75,1.61,6.43,1.32-5.5-.63-.15.05-.21,1.56.37-.05.22Z" style="fill:#fff"/><path d="M311.93,103.22a3.78,3.78,0,0,1-2.1,3,5.86,5.86,0,0,1-3.55.06l-3.23-.77.05-.22.76.18,1.8-7.54-.75-.18,0-.22,3.52.85a5.21,5.21,0,0,1,3.07,1.67A3.74,3.74,0,0,1,311.93,103.22ZM306.08,106l.43.11a1.84,1.84,0,0,0,1.84-.42A5.8,5.8,0,0,0,309.5,103l.16-.66c.4-1.71.32-2.81-.25-3.32a2.85,2.85,0,0,0-1.26-.56l-.27-.07Z" style="fill:#fff"/><path d="M252.35,77.84s-.62-1.33,0-5.25.88-7.19,3.16-8.63,3.36-1.73,4.21-1.07-2.08,4.55-2.43,5.33-1.18,3.91-1.18,3.91L254,80Z" style="fill:#fdccaa"/><path d="M307.35,139.14l1-4-59.45-14.78a2.46,2.46,0,0,0-3,2h0a2.45,2.45,0,0,0,1.89,2.76Z" style="fill:#fff"/></svg>