<svg xmlns="http://www.w3.org/2000/svg" xmlns:xlink="http://www.w3.org/1999/xlink" width="250" height="250" viewBox="0 0 250 250"><defs><clipPath id="a"><rect x="269.51" y="-2.5" width="253.13" height="250.59" style="fill:none"/></clipPath><clipPath id="b"><rect x="-1.35" y="0.62" width="253.4" height="247.77" style="fill:none"/></clipPath><pattern id="c" width="72" height="72" patternTransform="translate(34.94 13.11) rotate(-0.33) scale(0.11)" patternUnits="userSpaceOnUse" viewBox="0 0 72 72"><rect width="72" height="72" style="fill:none"/><line x1="54" y1="71.75" x2="54" y2="144.25" style="fill:none;stroke:#1d1d1b;stroke-width:6px"/><line x1="18" y1="71.75" x2="18" y2="144.25" style="fill:none;stroke:#1d1d1b;stroke-width:6px"/><line x1="62" y1="71.75" x2="62" y2="144.25" style="fill:none;stroke:#1d1d1b;stroke-width:2px"/><line x1="26" y1="71.75" x2="26" y2="144.25" style="fill:none;stroke:#1d1d1b;stroke-width:2px"/><line x1="71.75" y1="18" x2="144.25" y2="18" style="fill:none;stroke:#1d1d1b;stroke-width:6px"/><line x1="71.75" y1="54" x2="144.25" y2="54" style="fill:none;stroke:#1d1d1b;stroke-width:6px"/><line x1="-0.25" y1="18" x2="72.25" y2="18" style="fill:none;stroke:#1d1d1b;stroke-width:6px"/><line x1="54" y1="-0.25" x2="54" y2="72.25" style="fill:none;stroke:#1d1d1b;stroke-width:6px"/><line x1="-0.25" y1="54" x2="72.25" y2="54" style="fill:none;stroke:#1d1d1b;stroke-width:6px"/><line x1="18" y1="-0.25" x2="18" y2="72.25" style="fill:none;stroke:#1d1d1b;stroke-width:6px"/><line x1="62" y1="-0.25" x2="62" y2="72.25" style="fill:none;stroke:#1d1d1b;stroke-width:2px"/><line x1="26" y1="-0.25" x2="26" y2="72.25" style="fill:none;stroke:#1d1d1b;stroke-width:2px"/><line x1="73.25" y1="26" x2="0.75" y2="26" style="fill:none;stroke:#1d1d1b;stroke-width:2px"/><line x1="73.25" y1="62" x2="0.75" y2="62" style="fill:none;stroke:#1d1d1b;stroke-width:2px"/><line x1="-72.25" y1="18" x2="0.25" y2="18" style="fill:none;stroke:#1d1d1b;stroke-width:6px"/><line x1="-72.25" y1="54" x2="0.25" y2="54" style="fill:none;stroke:#1d1d1b;stroke-width:6px"/><line x1="1.25" y1="26" x2="-71.25" y2="26" style="fill:none;stroke:#1d1d1b;stroke-width:2px"/><line x1="1.25" y1="62" x2="-71.25" y2="62" style="fill:none;stroke:#1d1d1b;stroke-width:2px"/><line x1="54" y1="-72.25" x2="54" y2="0.25" style="fill:none;stroke:#1d1d1b;stroke-width:6px"/><line x1="18" y1="-72.25" x2="18" y2="0.25" style="fill:none;stroke:#1d1d1b;stroke-width:6px"/><line x1="62" y1="-72.25" x2="62" y2="0.25" style="fill:none;stroke:#1d1d1b;stroke-width:2px"/><line x1="26" y1="-72.25" x2="26" y2="0.25" style="fill:none;stroke:#1d1d1b;stroke-width:2px"/></pattern><pattern id="d" width="65.25" height="65.25" patternTransform="matrix(0.31, 0, 0, 0.31, 122.4, 38.29)" patternUnits="userSpaceOnUse" viewBox="0 0 65.25 65.25"><rect width="65.25" height="65.25" style="fill:none"/><line x1="67.55" y1="61.59" x2="62.02" y2="65.89" style="fill:none;stroke:#fff;stroke-linecap:square"/><line x1="70" y1="64.75" x2="64.47" y2="69.05" style="fill:none;stroke:#fff;stroke-linecap:square"/><line x1="47.19" y1="62.53" x2="43.5" y2="68" style="fill:none;stroke:#fff;stroke-linecap:square"/><line x1="49.93" y1="65.44" x2="44.83" y2="70.23" style="fill:none;stroke:#fff;stroke-linecap:square"/><line x1="53.13" y1="64.47" x2="55.5" y2="70.25" style="fill:none;stroke:#fff;stroke-linecap:square"/><line x1="56.25" y1="63.25" x2="59" y2="70" style="fill:none;stroke:#fff;stroke-linecap:square"/><line x1="28" y1="63.75" x2="22.31" y2="68.13" style="fill:none;stroke:#fff;stroke-linecap:square"/><line x1="32" y1="64.75" x2="25.3" y2="70.79" style="fill:none;stroke:#fff;stroke-linecap:square"/><line x1="9.25" y1="64.5" x2="9" y2="66" style="fill:none;stroke:#fff;stroke-linecap:square"/><line x1="14.22" y1="62.67" x2="18.5" y2="68.5" style="fill:none;stroke:#fff;stroke-linecap:square"/><line x1="17.05" y1="59.84" x2="21.33" y2="65.67" style="fill:none;stroke:#fff;stroke-linecap:square"/><line x1="38.75" y1="62.75" x2="39.25" y2="69.25" style="fill:none;stroke:#fff;stroke-linecap:square"/><line x1="36" y1="62" x2="34.5" y2="68.75" style="fill:none;stroke:#fff;stroke-linecap:square"/><line x1="2.3" y1="61.59" x2="-3.23" y2="65.89" style="fill:none;stroke:#fff;stroke-linecap:square"/><line x1="4.75" y1="64.75" x2="-0.78" y2="69.05" style="fill:none;stroke:#fff;stroke-linecap:square"/><line x1="65.82" y1="6.97" x2="72" y2="10.25" style="fill:none;stroke:#fff;stroke-linecap:square"/><line x1="22.49" y1="23.04" x2="19.25" y2="29.25" style="fill:none;stroke:#fff;stroke-linecap:square"/><line x1="36.42" y1="43.45" x2="44" y2="45.5" style="fill:none;stroke:#fff;stroke-linecap:square"/><line x1="37.5" y1="40.5" x2="45.25" y2="41.75" style="fill:none;stroke:#fff;stroke-linecap:square"/><line x1="30" y1="60.75" x2="32.75" y2="55.5" style="fill:none;stroke:#fff;stroke-linecap:square"/><line x1="26.5" y1="60.25" x2="29.52" y2="54.46" style="fill:none;stroke:#fff;stroke-linecap:square"/><line x1="46" y1="55.5" x2="41.25" y2="59" style="fill:none;stroke:#fff;stroke-linecap:square"/><line x1="47.25" y1="58" x2="43.5" y2="62" style="fill:none;stroke:#fff;stroke-linecap:square"/><line x1="49.88" y1="46.3" x2="50.78" y2="53.25" style="fill:none;stroke:#fff;stroke-linecap:square"/><line x1="45.98" y1="47.21" x2="47.53" y2="53.75" style="fill:none;stroke:#fff;stroke-linecap:square"/><line x1="14.22" y1="62.67" x2="18.5" y2="68.5" style="fill:none;stroke:#fff;stroke-linecap:square"/><line x1="17.05" y1="59.84" x2="21.33" y2="65.67" style="fill:none;stroke:#fff;stroke-linecap:square"/><line x1="20.53" y1="48.64" x2="23.96" y2="54.74" style="fill:none;stroke:#fff;stroke-linecap:square"/><line x1="24.23" y1="47.13" x2="26.88" y2="53.61" style="fill:none;stroke:#fff;stroke-linecap:square"/><line x1="33" y1="44.5" x2="27.75" y2="47.5" style="fill:none;stroke:#fff;stroke-linecap:square"/><line x1="35.5" y1="47.75" x2="29.75" y2="49.75" style="fill:none;stroke:#fff;stroke-linecap:square"/><line x1="47.19" y1="62.53" x2="43.5" y2="68" style="fill:none;stroke:#fff;stroke-linecap:square"/><line x1="49.93" y1="65.44" x2="44.83" y2="70.23" style="fill:none;stroke:#fff;stroke-linecap:square"/><line x1="53.13" y1="64.47" x2="55.5" y2="70.25" style="fill:none;stroke:#fff;stroke-linecap:square"/><line x1="28" y1="63.75" x2="22.31" y2="68.13" style="fill:none;stroke:#fff;stroke-linecap:square"/><line x1="32" y1="64.75" x2="25.3" y2="70.79" style="fill:none;stroke:#fff;stroke-linecap:square"/><line x1="21.5" y1="58.25" x2="22" y2="59.5" style="fill:none;stroke:#fff;stroke-linecap:square"/><line x1="37.75" y1="60.25" x2="38.75" y2="61.25" style="fill:none;stroke:#fff;stroke-linecap:square"/><line x1="38.75" y1="62.75" x2="39.25" y2="69.25" style="fill:none;stroke:#fff;stroke-linecap:square"/><line x1="36" y1="62" x2="34.5" y2="68.75" style="fill:none;stroke:#fff;stroke-linecap:square"/><line x1="53.28" y1="50" x2="54.53" y2="49.5" style="fill:none;stroke:#fff;stroke-linecap:square"/><line x1="32.5" y1="50.5" x2="32.75" y2="52" style="fill:none;stroke:#fff;stroke-linecap:square"/><line x1="50.5" y1="62" x2="51.75" y2="62" style="fill:none;stroke:#fff;stroke-linecap:square"/><line x1="33.75" y1="60" x2="32.75" y2="61.75" style="fill:none;stroke:#fff;stroke-linecap:square"/><line x1="38" y1="47.25" x2="39.25" y2="46.75" style="fill:none;stroke:#fff;stroke-linecap:square"/><line x1="40.24" y1="55.47" x2="35.81" y2="52.75" style="fill:none;stroke:#fff;stroke-linecap:square"/><line x1="42.97" y1="53.07" x2="36.62" y2="50.14" style="fill:none;stroke:#fff;stroke-linecap:square"/><line x1="35.5" y1="55.75" x2="36.75" y2="56" style="fill:none;stroke:#fff;stroke-linecap:square"/><line x1="42.28" y1="49" x2="43.53" y2="49.25" style="fill:none;stroke:#fff;stroke-linecap:square"/><line x1="18.63" y1="54.25" x2="20.25" y2="53.75" style="fill:none;stroke:#fff;stroke-linecap:square"/><line x1="26.99" y1="8.45" x2="27.13" y2="15.45" style="fill:none;stroke:#fff;stroke-linecap:square"/><line x1="30.99" y1="8.38" x2="30.25" y2="15" style="fill:none;stroke:#fff;stroke-linecap:square"/><line x1="43.64" y1="27.73" x2="50.13" y2="30.38" style="fill:none;stroke:#fff;stroke-linecap:square"/><line x1="45.15" y1="24.03" x2="51.63" y2="26.67" style="fill:none;stroke:#fff;stroke-linecap:square"/><line x1="27.12" y1="23.58" x2="31.89" y2="19.94" style="fill:none;stroke:#fff;stroke-linecap:square"/><line x1="24.09" y1="21.57" x2="30" y2="17.82" style="fill:none;stroke:#fff;stroke-linecap:square"/><line x1="18.5" y1="41.38" x2="11.72" y2="43.13" style="fill:none;stroke:#fff;stroke-linecap:square"/><line x1="19.25" y1="45" x2="12.47" y2="46.76" style="fill:none;stroke:#fff;stroke-linecap:square"/><line x1="19.69" y1="21.19" x2="16.45" y2="27.4" style="fill:none;stroke:#fff;stroke-linecap:square"/><line x1="8.74" y1="9.89" x2="10.07" y2="16.76" style="fill:none;stroke:#fff;stroke-linecap:square"/><line x1="12.66" y1="9.13" x2="14" y2="16" style="fill:none;stroke:#fff;stroke-linecap:square"/><line x1="0.57" y1="6.97" x2="6.75" y2="10.25" style="fill:none;stroke:#fff;stroke-linecap:square"/><line x1="3.5" y1="16.5" x2="2.32" y2="22.49" style="fill:none;stroke:#fff;stroke-linecap:square"/><line x1="7.57" y1="16.38" x2="6.25" y2="23.25" style="fill:none;stroke:#fff;stroke-linecap:square"/><line x1="56.37" y1="44.2" x2="58.78" y2="51.75" style="fill:none;stroke:#fff;stroke-linecap:square"/><line x1="60.53" y1="44.25" x2="61.28" y2="50.75" style="fill:none;stroke:#fff;stroke-linecap:square"/><line x1="53.03" y1="36.46" x2="49.02" y2="42.2" style="fill:none;stroke:#fff;stroke-linecap:square"/><line x1="55.77" y1="37.79" x2="54.03" y2="43.25" style="fill:none;stroke:#fff;stroke-linecap:square"/><line x1="26.95" y1="27.8" x2="27.75" y2="34.75" style="fill:none;stroke:#fff;stroke-linecap:square"/><line x1="29.93" y1="26.99" x2="31.63" y2="33.78" style="fill:none;stroke:#fff;stroke-linecap:square"/><line x1="52.81" y1="4.88" x2="46.46" y2="7.84" style="fill:none;stroke:#fff;stroke-linecap:square"/><line x1="54.25" y1="7.75" x2="48.16" y2="11.46" style="fill:none;stroke:#fff;stroke-linecap:square"/><line x1="17.65" y1="12.48" x2="19.25" y2="19" style="fill:none;stroke:#fff;stroke-linecap:square"/><line x1="19.73" y1="10.2" x2="22.83" y2="16.48" style="fill:none;stroke:#fff;stroke-linecap:square"/><line x1="37.5" y1="14.25" x2="34" y2="20.5" style="fill:none;stroke:#fff;stroke-linecap:square"/><line x1="40.13" y1="15.42" x2="36.19" y2="21.2" style="fill:none;stroke:#fff;stroke-linecap:square"/><line x1="50" y1="15.75" x2="43.75" y2="18.25" style="fill:none;stroke:#fff;stroke-linecap:square"/><line x1="50.5" y1="20.25" x2="44.25" y2="20.5" style="fill:none;stroke:#fff;stroke-linecap:square"/><line x1="56.22" y1="17.42" x2="54.53" y2="23.75" style="fill:none;stroke:#fff;stroke-linecap:square"/><line x1="58.95" y1="19.91" x2="55.47" y2="25.98" style="fill:none;stroke:#fff;stroke-linecap:square"/><line x1="57.14" y1="53.16" x2="50.8" y2="56.13" style="fill:none;stroke:#fff;stroke-linecap:square"/><line x1="58.84" y1="56.78" x2="52.5" y2="59.75" style="fill:none;stroke:#fff;stroke-linecap:square"/><line x1="47.25" y1="37" x2="43" y2="32.25" style="fill:none;stroke:#fff;stroke-linecap:square"/><line x1="44.5" y1="37.75" x2="39.68" y2="33.34" style="fill:none;stroke:#fff;stroke-linecap:square"/><line x1="30.53" y1="39.25" x2="34.5" y2="34.25" style="fill:none;stroke:#fff;stroke-linecap:square"/><line x1="32.93" y1="42.45" x2="37.25" y2="36.5" style="fill:none;stroke:#fff;stroke-linecap:square"/><line x1="22.43" y1="31.52" x2="15.47" y2="30.78" style="fill:none;stroke:#fff;stroke-linecap:square"/><line x1="21.5" y1="34.75" x2="14.66" y2="33.28" style="fill:none;stroke:#fff;stroke-linecap:square"/><line x1="6.75" y1="36.75" x2="12.35" y2="40.95" style="fill:none;stroke:#fff;stroke-linecap:square"/><line x1="9.15" y1="33.55" x2="14.75" y2="37.75" style="fill:none;stroke:#fff;stroke-linecap:square"/><line x1="13.99" y1="49.49" x2="13.42" y2="56.47" style="fill:none;stroke:#fff;stroke-linecap:square"/><line x1="17.75" y1="50" x2="16.81" y2="57.42" style="fill:none;stroke:#fff;stroke-linecap:square"/><line x1="20.17" y1="40.33" x2="25.12" y2="45.28" style="fill:none;stroke:#fff;stroke-linecap:square"/><line x1="23" y1="37.5" x2="27.95" y2="42.45" style="fill:none;stroke:#fff;stroke-linecap:square"/><line x1="8.5" y1="46.25" x2="3.93" y2="50.46" style="fill:none;stroke:#fff;stroke-linecap:square"/><line x1="10.78" y1="48.7" x2="5.25" y2="53" style="fill:none;stroke:#fff;stroke-linecap:square"/><line x1="56.12" y1="14.59" x2="63.1" y2="13.99" style="fill:none;stroke:#fff;stroke-linecap:square"/><line x1="56.25" y1="11.25" x2="62.75" y2="10" style="fill:none;stroke:#fff;stroke-linecap:square"/><line x1="36.25" y1="23.25" x2="37" y2="30.25" style="fill:none;stroke:#fff;stroke-linecap:square"/><line x1="40.25" y1="23.25" x2="39.75" y2="28.75" style="fill:none;stroke:#fff;stroke-linecap:square"/><line x1="11.96" y1="1.11" x2="9.1" y2="6.08" style="fill:none;stroke:#fff;stroke-linecap:square"/><line x1="6.46" y1="32.23" x2="12.21" y2="28.24" style="fill:none;stroke:#fff;stroke-linecap:square"/><line x1="4.18" y1="28.94" x2="9.94" y2="24.95" style="fill:none;stroke:#fff;stroke-linecap:square"/><line x1="4.14" y1="58.23" x2="8.5" y2="62.5" style="fill:none;stroke:#fff;stroke-linecap:square"/><line x1="6.57" y1="56.56" x2="10.5" y2="60" style="fill:none;stroke:#fff;stroke-linecap:square"/><line x1="60.75" y1="22.25" x2="65.07" y2="27.76" style="fill:none;stroke:#fff;stroke-linecap:square"/><line x1="63.4" y1="20.03" x2="67.72" y2="25.54" style="fill:none;stroke:#fff;stroke-linecap:square"/><line x1="58.5" y1="28.63" x2="51.72" y2="30.38" style="fill:none;stroke:#fff;stroke-linecap:square"/><line x1="59.5" y1="32.5" x2="52.72" y2="34.26" style="fill:none;stroke:#fff;stroke-linecap:square"/><line x1="15.75" y1="19.5" x2="8.84" y2="19.07" style="fill:none;stroke:#fff;stroke-linecap:square"/><line x1="16.25" y1="22.25" x2="9.3" y2="23.04" style="fill:none;stroke:#fff;stroke-linecap:square"/><line x1="60.26" y1="55.7" x2="64.19" y2="61.5" style="fill:none;stroke:#fff;stroke-linecap:square"/><line x1="63.57" y1="53.46" x2="67.5" y2="59.25" style="fill:none;stroke:#fff;stroke-linecap:square"/><line x1="63.75" y1="30.75" x2="60.04" y2="35.09" style="fill:none;stroke:#fff;stroke-linecap:square"/><line x1="67.13" y1="31.26" x2="63.44" y2="37.2" style="fill:none;stroke:#fff;stroke-linecap:square"/><line x1="67.55" y1="61.59" x2="62.02" y2="65.89" style="fill:none;stroke:#fff;stroke-linecap:square"/><line x1="56.25" y1="63.25" x2="59" y2="70" style="fill:none;stroke:#fff;stroke-linecap:square"/><line x1="63.94" y1="10.5" x2="70.13" y2="13.78" style="fill:none;stroke:#fff;stroke-linecap:square"/><line x1="16.58" y1="9.47" x2="21" y2="6.75" style="fill:none;stroke:#fff;stroke-linecap:square"/><line x1="13.84" y1="7.07" x2="20.2" y2="4.14" style="fill:none;stroke:#fff;stroke-linecap:square"/><line x1="36.13" y1="8.13" x2="40.88" y2="12.88" style="fill:none;stroke:#fff;stroke-linecap:square"/><line x1="39.27" y1="5.66" x2="43.59" y2="11.17" style="fill:none;stroke:#fff;stroke-linecap:square"/><line x1="67.73" y1="39.48" x2="62.5" y2="42" style="fill:none;stroke:#fff;stroke-linecap:square"/><line x1="70.56" y1="42.08" x2="64.45" y2="45.49" style="fill:none;stroke:#fff;stroke-linecap:square"/><line x1="30" y1="3.75" x2="31.25" y2="4" style="fill:none;stroke:#fff;stroke-linecap:square"/><line x1="29.25" y1="6.75" x2="29" y2="6" style="fill:none;stroke:#fff;stroke-linecap:square"/><line x1="34" y1="12.25" x2="34.75" y2="11.75" style="fill:none;stroke:#fff;stroke-linecap:square"/><line x1="45" y1="10" x2="46.25" y2="10" style="fill:none;stroke:#fff;stroke-linecap:square"/><line x1="51.75" y1="14.5" x2="52.5" y2="15.25" style="fill:none;stroke:#fff;stroke-linecap:square"/><line x1="60.75" y1="18" x2="61.5" y2="17.25" style="fill:none;stroke:#fff;stroke-linecap:square"/><line x1="62.25" y1="5.75" x2="61.75" y2="6.75" style="fill:none;stroke:#fff;stroke-linecap:square"/><line x1="6" y1="13.5" x2="6.75" y2="14" style="fill:none;stroke:#fff;stroke-linecap:square"/><line x1="12.25" y1="30.75" x2="12.25" y2="31.5" style="fill:none;stroke:#fff;stroke-linecap:square"/><line x1="5.5" y1="34.75" x2="4" y2="34.75" style="fill:none;stroke:#fff;stroke-linecap:square"/><line x1="9.75" y1="54.5" x2="10.25" y2="53.25" style="fill:none;stroke:#fff;stroke-linecap:square"/><line x1="18.25" y1="37.75" x2="17.5" y2="36.75" style="fill:none;stroke:#fff;stroke-linecap:square"/><line x1="49.25" y1="34.25" x2="50" y2="33.5" style="fill:none;stroke:#fff;stroke-linecap:square"/><line x1="39.28" y1="37" x2="39.78" y2="38" style="fill:none;stroke:#fff;stroke-linecap:square"/><line x1="25.5" y1="18.75" x2="26.25" y2="18" style="fill:none;stroke:#fff;stroke-linecap:square"/><line x1="23.25" y1="27.75" x2="24.5" y2="28.5" style="fill:none;stroke:#fff;stroke-linecap:square"/><line x1="9.25" y1="64.5" x2="9" y2="66" style="fill:none;stroke:#fff;stroke-linecap:square"/><line x1="38.25" y1="33.75" x2="37.75" y2="32.5" style="fill:none;stroke:#fff;stroke-linecap:square"/><line x1="67.55" y1="-3.66" x2="62.02" y2="0.64" style="fill:none;stroke:#fff;stroke-linecap:square"/><line x1="70" y1="-0.5" x2="64.47" y2="3.8" style="fill:none;stroke:#fff;stroke-linecap:square"/><line x1="47.19" y1="-2.72" x2="43.5" y2="2.75" style="fill:none;stroke:#fff;stroke-linecap:square"/><line x1="49.93" y1="0.19" x2="44.83" y2="4.98" style="fill:none;stroke:#fff;stroke-linecap:square"/><line x1="53.13" y1="-0.78" x2="55.5" y2="5" style="fill:none;stroke:#fff;stroke-linecap:square"/><line x1="56.25" y1="-2" x2="59" y2="4.75" style="fill:none;stroke:#fff;stroke-linecap:square"/><line x1="28" y1="-1.5" x2="22.31" y2="2.88" style="fill:none;stroke:#fff;stroke-linecap:square"/><line x1="32" y1="-0.5" x2="25.3" y2="5.54" style="fill:none;stroke:#fff;stroke-linecap:square"/><line x1="9.25" y1="-0.75" x2="9" y2="0.75" style="fill:none;stroke:#fff;stroke-linecap:square"/><line x1="14.22" y1="-2.58" x2="18.5" y2="3.25" style="fill:none;stroke:#fff;stroke-linecap:square"/><line x1="17.05" y1="-5.41" x2="21.33" y2="0.42" style="fill:none;stroke:#fff;stroke-linecap:square"/><line x1="58.53" y1="59.5" x2="59.03" y2="60.75" style="fill:none;stroke:#fff;stroke-linecap:square"/><line x1="38.75" y1="-2.5" x2="39.25" y2="4" style="fill:none;stroke:#fff;stroke-linecap:square"/><line x1="36" y1="-3.25" x2="34.5" y2="3.5" style="fill:none;stroke:#fff;stroke-linecap:square"/><line x1="45.75" y1="13.75" x2="46.5" y2="14.5" style="fill:none;stroke:#fff;stroke-linecap:square"/><line x1="32.75" y1="25.5" x2="34" y2="25.75" style="fill:none;stroke:#fff;stroke-linecap:square"/><line x1="63.5" y1="51" x2="64.25" y2="50.25" style="fill:none;stroke:#fff;stroke-linecap:square"/><line x1="8.25" y1="1.75" x2="4.85" y2="6.08" style="fill:none;stroke:#fff;stroke-linecap:square"/><line x1="61.5" y1="38.25" x2="62.75" y2="38.5" style="fill:none;stroke:#fff;stroke-linecap:square"/><line x1="23.25" y1="10" x2="24.25" y2="10.75" style="fill:none;stroke:#fff;stroke-linecap:square"/><line x1="36.25" y1="4.5" x2="36.5" y2="5.75" style="fill:none;stroke:#fff;stroke-linecap:square"/><line x1="11" y1="8.5" x2="11.5" y2="7" style="fill:none;stroke:#fff;stroke-linecap:square"/><line x1="3.25" y1="3.75" x2="3.25" y2="3.75" style="fill:none;stroke:#fff;stroke-linecap:round"/><line x1="6.25" y1="7" x2="6.25" y2="7" style="fill:none;stroke:#fff;stroke-linecap:round"/><line x1="13" y1="1.5" x2="13" y2="1.5" style="fill:none;stroke:#fff;stroke-linecap:round"/><line x1="23.25" y1="8.5" x2="23.25" y2="8.5" style="fill:none;stroke:#fff;stroke-linecap:round"/><line x1="17" y1="15.25" x2="17" y2="15.25" style="fill:none;stroke:#fff;stroke-linecap:round"/><line x1="14.5" y1="25" x2="14.5" y2="25" style="fill:none;stroke:#fff;stroke-linecap:round"/><line x1="3.75" y1="24" x2="3.75" y2="24" style="fill:none;stroke:#fff;stroke-linecap:round"/><line x1="20.5" y1="36" x2="20.5" y2="36" style="fill:none;stroke:#fff;stroke-linecap:round"/><line x1="25.75" y1="31.75" x2="25.75" y2="31.75" style="fill:none;stroke:#fff;stroke-linecap:round"/><line x1="33.5" y1="23.25" x2="33.5" y2="23.25" style="fill:none;stroke:#fff;stroke-linecap:round"/><line x1="28" y1="40.25" x2="28" y2="40.25" style="fill:none;stroke:#fff;stroke-linecap:round"/><line x1="32.75" y1="43" x2="32.75" y2="43" style="fill:none;stroke:#fff;stroke-linecap:round"/><line x1="18.75" y1="47.25" x2="18.75" y2="47.25" style="fill:none;stroke:#fff;stroke-linecap:round"/><line x1="42" y1="24.75" x2="42" y2="24.75" style="fill:none;stroke:#fff;stroke-linecap:round"/><line x1="41.75" y1="16.25" x2="41.75" y2="16.25" style="fill:none;stroke:#fff;stroke-linecap:round"/><line x1="58.25" y1="7.5" x2="58.25" y2="7.5" style="fill:none;stroke:#fff;stroke-linecap:round"/><line x1="50.25" y1="4" x2="50.25" y2="4" style="fill:none;stroke:#fff;stroke-linecap:round"/><line x1="61" y1="27.25" x2="61" y2="27.25" style="fill:none;stroke:#fff;stroke-linecap:round"/><line x1="59.5" y1="38.25" x2="59.5" y2="38.25" style="fill:none;stroke:#fff;stroke-linecap:round"/><line x1="54" y1="45" x2="54" y2="45" style="fill:none;stroke:#fff;stroke-linecap:round"/><line x1="57.5" y1="55" x2="57.5" y2="55" style="fill:none;stroke:#fff;stroke-linecap:round"/><line x1="50" y1="59.75" x2="50" y2="59.75" style="fill:none;stroke:#fff;stroke-linecap:round"/><line x1="28.5" y1="61" x2="28.5" y2="61" style="fill:none;stroke:#fff;stroke-linecap:round"/><line x1="39.5" y1="63.5" x2="39.5" y2="63.5" style="fill:none;stroke:#fff;stroke-linecap:round"/><line x1="25.25" y1="15.75" x2="25.25" y2="15.75" style="fill:none;stroke:#fff;stroke-linecap:round"/><line x1="10.75" y1="62.75" x2="10.75" y2="62.75" style="fill:none;stroke:#fff;stroke-linecap:round"/><line x1="0.75" y1="51.5" x2="0.75" y2="51.5" style="fill:none;stroke:#fff;stroke-linecap:round"/><line x1="3.75" y1="44.25" x2="3.75" y2="44.25" style="fill:none;stroke:#fff;stroke-linecap:round"/><line x1="9" y1="40.5" x2="9" y2="40.5" style="fill:none;stroke:#fff;stroke-linecap:round"/><line x1="9.75" y1="44.25" x2="9.75" y2="44.25" style="fill:none;stroke:#fff;stroke-linecap:round"/><line x1="50.75" y1="22.5" x2="50.75" y2="22.5" style="fill:none;stroke:#fff;stroke-linecap:round"/><line x1="48" y1="32.25" x2="48" y2="32.25" style="fill:none;stroke:#fff;stroke-linecap:round"/><line x1="46.25" y1="40.5" x2="46.25" y2="40.5" style="fill:none;stroke:#fff;stroke-linecap:round"/><line x1="27.75" y1="24.75" x2="27.75" y2="24.75" style="fill:none;stroke:#fff;stroke-linecap:round"/><line x1="24.25" y1="55.5" x2="24.25" y2="55.5" style="fill:none;stroke:#fff;stroke-linecap:round"/><line x1="24.25" y1="63.5" x2="24.25" y2="63.5" style="fill:none;stroke:#fff;stroke-linecap:round"/><line x1="18.88" y1="59.5" x2="18.88" y2="59.5" style="fill:none;stroke:#fff;stroke-linecap:round"/><line x1="26.63" y1="37" x2="26.63" y2="37" style="fill:none;stroke:#fff;stroke-linecap:round"/><line x1="61" y1="62" x2="61" y2="62" style="fill:none;stroke:#fff;stroke-linecap:round"/><line x1="4.5" y1="56" x2="4.5" y2="56" style="fill:none;stroke:#fff;stroke-linecap:round"/><line x1="33.75" y1="29.75" x2="33.75" y2="29.75" style="fill:none;stroke:#fff;stroke-linecap:round"/><line x1="33.25" y1="14.75" x2="33.25" y2="14.75" style="fill:none;stroke:#fff;stroke-linecap:round"/><line x1="34.5" y1="8" x2="34.5" y2="8" style="fill:none;stroke:#fff;stroke-linecap:round"/><line x1="49.75" y1="55.75" x2="49.75" y2="55.75" style="fill:none;stroke:#fff;stroke-linecap:round"/><line x1="49" y1="44.75" x2="49" y2="44.75" style="fill:none;stroke:#fff;stroke-linecap:round"/><line x1="62.75" y1="47.25" x2="62.75" y2="47.25" style="fill:none;stroke:#fff;stroke-linecap:round"/><line x1="52.25" y1="17.5" x2="52.25" y2="17.5" style="fill:none;stroke:#fff;stroke-linecap:round"/><line x1="53" y1="19.25" x2="53" y2="19.25" style="fill:none;stroke:#fff;stroke-linecap:round"/><line x1="53.25" y1="10.5" x2="53.25" y2="10.5" style="fill:none;stroke:#fff;stroke-linecap:round"/><line x1="40" y1="19.75" x2="40" y2="19.75" style="fill:none;stroke:#fff;stroke-linecap:round"/><line x1="49" y1="27.25" x2="49" y2="27.25" style="fill:none;stroke:#fff;stroke-linecap:round"/><line x1="59.5" y1="24" x2="59.5" y2="24" style="fill:none;stroke:#fff;stroke-linecap:round"/><line x1="61" y1="31.25" x2="61" y2="31.25" style="fill:none;stroke:#fff;stroke-linecap:round"/><line x1="1" y1="16.25" x2="1" y2="16.25" style="fill:none;stroke:#fff;stroke-linecap:round"/><line x1="-4.5" y1="22.25" x2="-0.18" y2="27.76" style="fill:none;stroke:#fff;stroke-linecap:square"/><line x1="-1.85" y1="20.03" x2="2.47" y2="25.54" style="fill:none;stroke:#fff;stroke-linecap:square"/><line x1="-1.68" y1="53.46" x2="2.25" y2="59.25" style="fill:none;stroke:#fff;stroke-linecap:square"/><line x1="1.88" y1="31.26" x2="-1.81" y2="37.2" style="fill:none;stroke:#fff;stroke-linecap:square"/><line x1="2.3" y1="61.59" x2="-3.23" y2="65.89" style="fill:none;stroke:#fff;stroke-linecap:square"/><line x1="-1.31" y1="10.5" x2="4.88" y2="13.78" style="fill:none;stroke:#fff;stroke-linecap:square"/><line x1="2.48" y1="39.48" x2="-2.75" y2="42" style="fill:none;stroke:#fff;stroke-linecap:square"/><line x1="5.31" y1="42.08" x2="-0.8" y2="45.49" style="fill:none;stroke:#fff;stroke-linecap:square"/><line x1="2.3" y1="-3.66" x2="-3.23" y2="0.64" style="fill:none;stroke:#fff;stroke-linecap:square"/><line x1="4.75" y1="-0.5" x2="-0.78" y2="3.8" style="fill:none;stroke:#fff;stroke-linecap:square"/><line x1="14.22" y1="-2.58" x2="18.5" y2="3.25" style="fill:none;stroke:#fff;stroke-linecap:square"/><line x1="17.05" y1="-5.41" x2="21.33" y2="0.42" style="fill:none;stroke:#fff;stroke-linecap:square"/><line x1="47.19" y1="-2.72" x2="43.5" y2="2.75" style="fill:none;stroke:#fff;stroke-linecap:square"/><line x1="49.93" y1="0.19" x2="44.83" y2="4.98" style="fill:none;stroke:#fff;stroke-linecap:square"/><line x1="53.13" y1="-0.78" x2="55.5" y2="5" style="fill:none;stroke:#fff;stroke-linecap:square"/><line x1="28" y1="-1.5" x2="22.31" y2="2.88" style="fill:none;stroke:#fff;stroke-linecap:square"/><line x1="32" y1="-0.5" x2="25.3" y2="5.54" style="fill:none;stroke:#fff;stroke-linecap:square"/><line x1="38.75" y1="-2.5" x2="39.25" y2="4" style="fill:none;stroke:#fff;stroke-linecap:square"/><line x1="36" y1="-3.25" x2="34.5" y2="3.5" style="fill:none;stroke:#fff;stroke-linecap:square"/><line x1="67.55" y1="-3.66" x2="62.02" y2="0.64" style="fill:none;stroke:#fff;stroke-linecap:square"/><line x1="56.25" y1="-2" x2="59" y2="4.75" style="fill:none;stroke:#fff;stroke-linecap:square"/><line x1="9.25" y1="-0.75" x2="9" y2="0.75" style="fill:none;stroke:#fff;stroke-linecap:square"/><line x1="2.3" y1="-3.66" x2="-3.23" y2="0.64" style="fill:none;stroke:#fff;stroke-linecap:square"/></pattern><pattern id="e" width="74.06" height="72" patternTransform="translate(28.13 37.42) rotate(-0.33) scale(0.09)" patternUnits="userSpaceOnUse" viewBox="0 0 74.06 72"><rect width="74.06" height="72" style="fill:none"/><line x1="24.98" y1="72" x2="24.98" style="fill:none;stroke:#1d1d1b;stroke-width:4px"/><line x1="6.49" y1="72" x2="6.49" style="fill:none;stroke:#1d1d1b;stroke-width:4px"/><line x1="43.47" y1="72" x2="43.47" style="fill:none;stroke:#1d1d1b;stroke-width:4px"/><line x1="61.96" y1="72" x2="61.96" style="fill:none;stroke:#1d1d1b;stroke-width:4px"/><line x1="12.09" y1="72" x2="12.09" style="fill:none;stroke:#1d1d1b"/><line x1="30.58" y1="72" x2="30.58" style="fill:none;stroke:#1d1d1b"/><line x1="49.07" y1="72" x2="49.07" style="fill:none;stroke:#1d1d1b"/><line x1="67.56" y1="72" x2="67.56" style="fill:none;stroke:#1d1d1b"/></pattern></defs><title>s6s2thumb0</title><g style="clip-path:url(#a)"><path d="M723,74.28S684.79,61,679.32,59.44s-10.15-4.68-15.61-7-3.91-4.69-9.37-9.37-10.93-5.47-14.83-8.59,1.56.78-16.4-8.59S588,11.82,581,1.67,553.63-18.63,547.39-28s-10.93-14.84-15.62-17.18-7-10.15-9.37-10.15-5.85-2.73-8.19-3.51a23,23,0,0,1-4.69-2.34s-13.27-7-14.83-10.15-3.12-7-5.47-10.15-11.71-8.59-16.39-14.83-5.46-3.91-8.59-8.59-4.68-3.9-10.93-11.71-9.37-11.71-10.93-10.93-4.68,4.68-7,4.68-1.56-4.68-3.91-3.9l-2.34.78-1.56.78s-3.12-2.34-4.68-2.34a14.51,14.51,0,0,1-5.47-1.56c-1.56-.78,0-2.34-3.9-1.56s-7.81,2.34-9.37,3.9l-1.56,1.56s-.78-1.56-4.69-1.56-4.68,0-6.24.78-.78.78-3.12,1.56,0,.78-3.13,1.56-5.46-.78-8.58-1.56-1.57-.78-4.69-.78h-6.24c-1.56,0-3.13-.78-5.47-2.34a8.41,8.41,0,0,0-5.46-1.56c-1.56,0-5.47,2.34-6.25,3.9s-4.68,3.12-7,5.47a34.23,34.23,0,0,0-3.91,4.68s-28.1,21.86-40.59,25.76c-1.49.47-5.47,1.56-8.59.78s-3.9,0-4.68,0h-4.69s-5.46,8.59-14.05,13.27c-3.07,1.68-11.71,4.69-14.83,7s-3.13,7-7.81,9.37S230.82-51,230.82-51s-21.08-10.93-22.64-12.49-2.34-1.57-5.47-3.13-.78-3.9-7-2.34S187.1-65.08,184-64.3a21.06,21.06,0,0,0-6.25,3.13s-7.8,0-11.71,3.9c0,0-5.46-2.34-8.59,2.34a119.61,119.61,0,0,1-21.85,16.4c-3.93,2.3-10.15,5.46-14.06,11.71C119.77-24,91.08,3.62,58.29,22.36c-1.36.77-2.34-2.34-5.47-.78s-5.46,3.12-11.71,2.34-.78-3.12-7.8-.78S26.28,27.82,20,31s-6.24,3.9-11.71,5.46-6.24,0-10.14.78-3.13,3.91-6.25,5.47-14.83,1.56-20.3,6.24c-1.32,1.14-9.37,3.91-16.39,4.69s-5.47,6.24-10.93,5.46-7-2.34-10.15-.78-5.46,6.25-7.81,7a49.72,49.72,0,0,1-7,1.56c-3.91.78-5.47-.78-6.25.78s1.56,2.34-1.56,3.12-3.9.78-4.68,3.13,1.56,2.34-2.35,3.12-7,.78-10.93,1.56-13.27,3.12-18,3.12-4.69-1.56-8.59,0S-147,84.81-147.81,85.6a45.51,45.51,0,0,1-4.69,3.12c-2.34,1.56-7.8,9.37-9.36,10.15s-10.15-1.56-13.28,0-24.2,7-24.2,7l-73.38,11.71-25,36.7L86.39,159l637,7Z" style="fill:#abc4ab"/><path d="M149.8,104.52c0-1.56.78-3.9,0-6.24s-2.34-3.13-2.34-5.47,1.56-1.56,0-3.12-3.13-5.47-4.69-6.25-2.34-4.68-3.9-4.68-3.9-2.34-3.9-2.34,0-4.69-3.13-4.69-6.24-1.56-9.36.78-7,5.47-8.59,6.25,0,0-5.47,1.56-25,1.56-27.32,1.56-9.37,1.56-9.37,0,1.56-3.9,3.9-3.12,8.59-1.56,11.72-3.12,4.68-1.57,5.46-3.13,0-3.12,0-3.9-1.56-3.12-3.12-1.56S85,71.73,83.44,71.73s-3.12,1.56-4.68.78,0-3.9,0-3.9l3.12-3.12,2.34-3.13s-5.46.78-8.59,2.35-8.58,1.56-9.36,1.56-5.47-3.91-7-4.69-5.46-4.68-7-4.68-3.12-2.34-3.12-2.34L46.75,53s1.56,3.9-1.56,3.9-3.12-1.56-4.69-1.56a4.69,4.69,0,0,0-3.12.78c-1.56.78-2.34.78-3.9,1.56s-2.34.78-2.34,1.56,0,3.12.78,3.9-3.91.79-3.91.79-4.68.78-5.46,1.56-.78,2.34-3.12,2.34-8.59.78-8.59.78-.78-1.56-3.91,0,2.35,3.12,0,3.12-7,0-8.58.78-3.91.78-2.34,1.56,4.68,0,3.9,1.57-.78,4.68-1.56,4.68-2.34,0-.78.78A3.11,3.11,0,0,1-.87,84.22c0,.78-.78,1.56-3.12,2.34a28.72,28.72,0,0,1-7,1.57c-1.56,0-5.47,2.34-9.37,3.12s-3.9,1.56-7,1.56-.79-2.34,0-2.34,5.46-2.34,5.46-2.34l3.9-2.35,3.91-1.56,2.34-3.9,3.9.78,1.56-.78-.78-3.9s.78-2.35,0-2.35a17.69,17.69,0,0,1-3.12-.78.76.76,0,0,0-.78-.78c-.78,0-7,3.13-7,3.13h-6.24S-29,77.2-30.54,77.2s-6.24,1.56-8.59,1.56h-6.24l-3.12,1.56a3.77,3.77,0,0,1,0,3.12A9.65,9.65,0,0,1-50,85.78l-1.57,1.57h-3.12l-7-3.13-9.37,2.34-2.35,3.13s-2.34,1.56-3.12,1.56a20,20,0,0,0-3.9,1.56h-3.12c-.78,0-2.35,1.56-2.35,1.56a33.59,33.59,0,0,1,.78,3.91c0,.78-3.12,0-3.12,0s-5.46,2.34-7,3.12a44,44,0,0,0-.78,5.46c0,1.56.78,2.34,0,3.13s-.79,2.34-1.57,4.68.78,7,.78,8.59,1.57,2.34,0,2.34-8.58-.78-10.14.78-7.81,1.56-10.93,1.56-2.35,4.68-2.35,4.68l6.25,3.91,258.4,10.93A22.46,22.46,0,0,0,146.68,135c-.78-7-2.35-11.71-2.35-12.49s.79-7,1.57-7.81S149.8,106.08,149.8,104.52Zm-96,29.67c-.78,1.56-7.81,0-8.59-.78a17.61,17.61,0,0,0-7.81-5.47c-4.68-1.56-10.93-7.81-14.05-8.59s-1.56-.78-5.47-1.56S8.5,117,12.4,115.45c0,0,3.9-3.9,7-3.12s5.46-1.56,6.24-2.34a10.6,10.6,0,0,1,3.12-2.35c1.57-.78,3.13-2.34,4.69-2.34s-1.56,2.34-2.34,3.9a13.42,13.42,0,0,1-4.69,4.69c-1.56.78-1.56,1.56-1.56,2.34s1.56,3.9,3.12,3.9S28,117,31.92,117a29.51,29.51,0,0,1,6.24.78c.78,0,2.34,0,2.34,1.56s1.57,2.35,0,3.13a2.77,2.77,0,0,0-1.56,2.34s2.34,1.56,3.91,2.34,1.56,2.34,3.12,3.12,1.56,0,2.34.78S54.56,132.62,53.78,134.19Zm14.83-1.57c-2.34-.78-.78-1.56-3.9-2.34s-2.35-1.56-5.47-2.34-2.34,0-4.68-1.56-5.47-7.81-7-7.81S46,117,45.19,117s1.56,7,3.9,7.81,7.81,6.24,9.37,7.8,3.12,2.35,2.34,3.13-9.37-3.91-10.15-5.47-3.12-3.12-4.68-4.68-1.56-4.69-3.12-6.25a4.28,4.28,0,0,1-1.57-3.9c0-1.56,2.35-3.12,3.13-6.25s6.24-8.58,9.37-8.58c0,0,0,3.9-1.57,6.24s-2.34,2.34-2.34,4.69-.78,4.68.78,6.24,3.91,2.34,5.47,3.91,3.9,3.9,5.46,3.9a7.89,7.89,0,0,1,6.25,2.34c2.34,2.34,5.46,3.9,7,6.25S71,133.41,68.61,132.62Z" style="fill:#86ac98"/><path d="M161.12,54.17s-2.34,2.34-1.56,4.68,0,3.9-.78,5.47-3.91,4.68-3.13,6.24-3.12,3.12-2.34,4.68-7.8-3.12-10.93-3.9a25.15,25.15,0,0,1-4.68-1.56s1.56,2.34-1.56,2.34-2.34-2.34-5.47-3.12-6.24-2.34-7.8-1.56-.78,3.12-3.91,3.12-3.12,0-7.8-3.12S104.91,62,101,61.19s-7-2.34-7-4.68-1.56,0,1.56-3.12,6.25,0,9.37-3.13-.78-5.46,3.9-6.24,11.71-.78,14.06,0,5.07,5.07,10.54,6.63,7,0,9.36.78,1.56,0,5.47,1.57,5.46.78,7,.78S161.12,54.17,161.12,54.17Z" style="fill:#86ac98"/><path d="M171.88,66.47a62.2,62.2,0,0,0,3.9,7.81c2.34,3.9,7.81,5.46,11.71,8.58s9.37,12.49,13.27,15.62,0,2.34-.78,6.24,0,3.12.78,4.69,14.05,14,17.18,15.61,1.56,1.56,11.71,7.81a32.36,32.36,0,0,1,13.27,15.61l54.26.39,89-7s5.47-2.34,6.25-4.68-3.12-7-3.12-7l3.9-12.49s-5.46-4.68-7.81-6.24.78-7.81.78-12.49-4.68-4.69-7.8-6.25-2.34-5.46.78-11.71,0-12.49,0-12.49-3.91,5.47-4.69,7-7,4.68-17.17,9.36-7,5.47-9.37,7,2.34,21.86-3.12,5.47-2.34-7.81-4.69-11.71.78-3.91.78-9.37-1.56-12.49-3.12-15.62,2.34-8.58,3.12-10.93,2.35-13.27,5.47-17.95S355,20,360.41,18.46s3.12-5.47,4.69-9.37a64.73,64.73,0,0,1,7-11.71c.78-.78.78-7.81.78-10.93s4.69-10.15,7.81-14,.78-3.13,2.34-6.25,7.81-7.81,7.81-7.81,9.37,3.13,13.27,7.81,1.56,1.56,3.12,2.34.78,4.69,2.34,8.59a18.22,18.22,0,0,1,1.57,8.59V-1.84c0,3.9,1.56,10.15,1.56,12.49A68,68,0,0,0,415.84,27c2.34,7.81,3.9,7.81,3.9,10.93s4.69,7,5.47,17.18,5.46,14.05,5.46,14.05,2.35,5.47,3.91,5.47,5.46,5.46,6.24,8.58,3.12,4.69,7.81,11.71,0,0,2.34,3.13a35.42,35.42,0,0,1,4.69,7c3.12,5.47-1.57,5.47-1.57,5.47l8.59,19.51-1.56,12.49s7,1.57,10.15,0,4.68,0,4.68,0,4.69,1.57,7,1.57,3.12-.78,3.9-2.35,0-4.68.78-10.14a16.17,16.17,0,0,0-2.34-10.15,71.76,71.76,0,0,1,7,2.34c1.56.78,9.37,3.9,9.37,3.9s.78,10.15,0,15.62,5.46.78,6.24,0,3.12-.79,4.68-3.13,0-3.9,0-6.24,4.69-1.56,5.47-2.34a12.27,12.27,0,0,0,3.12-7.81c0-3.9,3.91-7.81,6.25-9.37s5.46-3.9,5.46-3.9l2.34-6.25a20.49,20.49,0,0,1,2.35-5.46c1.56-2.35,4.68-4.69,4.68-7.81a60.75,60.75,0,0,0-.78-7c0-.78-7-2.34-8.59-2.34s-5.46-.78-7-.78-5.47-.78-7-.78S507.18,84,507.18,84a85.71,85.71,0,0,0-6.25,8.59c-2.34,3.9-.78,5.47.79,11.71s-.79,4.69-3.91,7-7,.78-7,.78-10.93-3.12-12.5-5.47,0-10.15,0-12.49-11.71,1.56-11.71,1.56-3.12-7-2.34-10.93-2.34-7-3.12-9.36-7-5.47-8.59-10.15-7-3.91-8.59-8.59,2.35-7,3.91-9.37S451,38,451.75,33.29s4.69-9.37,5.47-14-1.56-11.71-3.13-16.4-6.24-7.8-6.24-5.46.78,2.34,1.56,7.81.78,4.68.78,9.36-3.9,10.15-3.12,15.62-10.15,16.39-10.15,16.39-6.25-.78-8.59-3.12,0-6.25-2.34-7.81-7-21.08-7.81-35.91S416.62-5,416.62-5s-3.12-14.84-3.9-24.2,0-6.25,2.34-16.4-.78-6.24-.78-10.15,1.56-10.15,1.56-14.05-4.68-6.25-10.15-3.9-10.93,3.9-12.49,3.9-3.9,3.9-3.9,7,5.46,7,1.56,10.14-9.37-.78-14.05.79-3.13,7.8-3.91,12.49,0,3.12,0,7.8-3.9,9.37-3.9,9.37L365.1-19a5.8,5.8,0,0,1-2.35,2.35c-1.56.78-2.34,7.8-2.34,7.8s-1.56,10.15-3.9,14.06-3.9-.79-7,0-.78,2.34-4.68,7S339.33,20,337,22.36s-3.9,6.25-8.59,10.93-.78,2.34-1.56,9.37-1.56,3.12-4.68,10.93,0,0,0,7S319.82,77.79,319,81.69s0,2.34,2.34,5.47,2.34,9.36,2.34,9.36-1.56,3.13-7,7a9.48,9.48,0,0,0-3.85,4.78,9.27,9.27,0,0,0-.83-2.44,63.94,63.94,0,0,1-3.12-8.58s-.78-8.59,0-10.93-.78-2.35-2.35-5.47-.78-9.37-4.68-8.59,0,2.35-.78,5.47-.78,8.59-1.56,12.49,1.56,5.46,1.56,8.59,0,9.37-.78,13.27-11.71,15.61-11.71,15.61a32.8,32.8,0,0,1-1.56-3.9c-.78-2.34,0-4.69,0-7s-4.69-4.68-8.59-7-3.12-4.69-3.12-4.69a40,40,0,0,0-.78-7.8c-.78-3.13,3.12-9.37,3.9-10.93s-3.9-3.91-8.59-2.35S266.73,95,264.39,97.31s-7.81,3.9-7.81,3.9l-3.9-3.12a20.64,20.64,0,0,1,.78-5.47c.78-2.34-.78-3.9-1.56-3.9s-2.34-3.91-2.34-3.91l-3.91-4.68-8.59,7.81-10.93-.78-3.9-8.59L216,72.32l10.14-13.27,9.37-8.59,2.35-3.9,7.8-3.9,4.69-2.34,10.93-5.47,7-3.12,3.12-3.12L273,23.92s3.9-3.12,5.46-4.68,5.47-1.56,5.47-1.56l7.8-7S301.08.5,305-.28s1.56,1.56,3.13,2.34,0,9.37,0,9.37l3.12-3.9c3.12-3.91,0-6.25,0-6.25s-1.56-8.59-2.34-10.93,0-13.27,2.34-16.39,4.68-1.56,7-4.69,5.46-9.36,9.36-10.93,3.91-2.34,7,2.35,0,1.56-1.56,8.58-5.47,6.25-6.25,10.93,0,5.47-1.56,10.93-1.56,10.15-1.56,19.52,1.56,16.39,5.46,15.61,3.91-4.68,3.91-8.58,2.34-5.47,3.12-10.15,3.12-14.06,4.68-15.62.79-7,1.57-9.36a160.09,160.09,0,0,1,6.24-14.84c2.34-4.68,4.69-2.34,7-3.9s.78-2.34.78-3.9,4.68-5.47,7-8.59,1.57-3.91,1.57-6.25,3.12-5.46,4.68-6.24,1.56-6.25,1.56-6.25,0-6.24,3.9-10.15,7-19.51,7-19.51.78-4.69,0-5.47,1.56-6.24,3.12-5.46.78,1.56,2.35,4.68,2.34,5.47.78,10.15,1.56,5.46,1.56,8.59,3.9,3.9,3.9,3.9l3.9,5.46s3.91-.78,3.91-3.9,3.12-10.93,3.12-15.61,1.56-2.34,2.34-4.69,1.56-3.9,1.56-7,0-1.56-1.56-3.91.78-5.46,0-7-2.34,0-4.68-1.56-3.12-2.35-4.69-2.35h-5.46c-.92,0-1.57-2.18-1.95-4a6.57,6.57,0,0,1-2,.85c-1.88.63-.76.75-1.84,1.18l.28,2.73h-7c-3.12,0-3.12,1.56-5.47,3.12s-2.34-.78,0-3.12a8.37,8.37,0,0,0,2-4c-2.61-.68-1.32-.68-4.31-.68h-6.24a6.1,6.1,0,0,1-2.58-.65c-1.06,2.34-.55,4.36-.55,6.9,0,3.12-2.34,4.68-3.9,3.9s-.78-3.12-.78-5.46-1.56-3.91-1.56-4.69c0-.56-.82-2.36-1.27-3.9H355c-1.56,0-5.47,2.34-6.25,3.9s-4.68,3.12-7,5.47a34.23,34.23,0,0,0-3.91,4.68s-28.1,21.86-40.59,25.76c-1.49.47-5.47,1.56-8.59.78s-3.9,0-4.68,0h-4.69s-5.46,8.59-14.05,13.27c-3.07,1.68-11.71,4.69-14.83,7s-3.13,7-7.81,9.37a85.41,85.41,0,0,0-10.9,7.19,88.61,88.61,0,0,1,6.22,6.86c1.56,2.34,2.34,3.12,5.46,7s2.34,1.56,6.25,3.12,6.24.78,5.46,3.9-7.81,12.49-7.81,12.49,5.08-1.17,7.42,2.74,0,3.12,2.34,6.24-2.34,3.91-3.9,7.81-2.34,8.59-5.47,11.71-7,7-16.39,18-4.68.78-11.71,7-7.81,6.25-14.05,10.93S171.88,66.47,171.88,66.47Z" style="fill:#86ac98"/><path d="M98.88,15.33c4.69,0,5.47-3.12,8.59-3.12s3.12,1.56,8.59,2.34,12.49-3.9,17.95-3.9,7,1.56,10.93.78S148.07.5,155.09-1.06s11.71-.78,14.06.78,5.46-1.56,7-4.68,1.56-26.55,3.9-31.23-.78-10.93,0-14.83-1.56-9.37,3.13-10.15,6.24,0,7,1.56L191-58s2.35-3.9,3.13-5.46c.5-1,.37-3.59,1.83-5.53l-.27.06c-6.25,1.56-8.59,3.9-11.71,4.68a21.06,21.06,0,0,0-6.25,3.13s-7.8,0-11.71,3.9c0,0-5.46-2.34-8.59,2.34a119.61,119.61,0,0,1-21.85,16.4c-3.93,2.31-10.15,5.46-14.06,11.71C119.77-24,91.08,3.62,58.29,22.36c0,0,7,6.25,13.27,7.81s.78,3.12,8.59,2.34.78-4.69,5.46-9.37S94.2,15.33,98.88,15.33Z" style="fill:#91b19b"/><path d="M1026.88,145.76S755.49,143.85,690.74,142s-117.13-5.71-140-1.91-138.08-1.9-170.45,1.91-11.43-4.76-109.51-4.76S101.3,142.9,66.07,141s-95.23,7.61-124.75,7.61-149.5,1.91-177.12,1.91h-37.13l-13.34,357.09,1327.44-13.33Z" style="fill:#698b87"/><polygon points="292.18 173.09 256.1 -41.45 243.42 30.72 252.2 23.89 243.42 40.47 217.09 175.04 292.18 173.09" style="fill:#355151"/><path d="M282.11,13.32s4.82,14,7.22,16.86-5.29,2.4-5.29,2.4,6.26,4.82,7.22,8.19-7.71.48-7.71.48,10.12,11.57,12.05,11.57-3.37,3.37-5.78,3.37,7.7,9.15,9.63,10.59-3.37,1.93-8.19,1.45S299,79.79,302.34,80.75s-2.89,3.86-9.63,1.93,9.63,13.49,12,13-2.41,2.89-6.74,2.4,5.78,6.75,10.59,7.71-5.78,3.85-8.19,2.89,9.64,6.26,12.53,5.78-9.64,4.34-12.53,3.86,2.41,14.45,7.71,15.89-8.19,4.34-8.19,4.34S307.16,152,312.46,153s-4.82,5.78-8.67,4.81,12,13.49,19.26,13.49-10.11,7.71-18.3,7.23-10.6-1.45-10.6-1.45l-6.26-3.85S266.7,179.5,257.54,179a164.82,164.82,0,0,0-16.86,0s29.87-26,30.35-29.39-14,5.79-20.23,3.86,15.9-9.64,18.3-18.79c0-2.89-5.29,2.89-12.52,1.45s14.45-13.49,14.93-17.82-7.22,2.4-14.93,1c-1.44,1,5.3-6.75,6.26-8.19s-4.33-1-5.78-1S271,98.58,272,94.72s-5.78,1-10.11-.48,9.15-9.63,10.6-14.45-5.78,2.41-9.16,1.45S272,70.16,273.44,67.75s-2.89-.48-7.23-2.41,5.78-6.26,9.16-8.67S273,52.33,271,50.89s6.26-3.85,7.23-5.3-4.34-1.93-5.78-1.93,3.85-4.33,3.85-4.33l-3.85-2.41Z" style="fill:#283c3f"/></g><g style="clip-path:url(#b)"><rect x="-149.53" y="-22.54" width="437.03" height="254.06" transform="translate(-0.6 0.4) rotate(-0.33)" style="fill:#f9dcc9"/><path d="M100.8,42.79c-4.57-5.13-7-3.6-11.84.07s-7.29,5.18-11.85.07L77,29.8c4.56,5.11,7,3.58,11.85-.07s7.27-5.2,11.85-.07Z" style="fill:#ef1e32"/><rect x="75.69" y="29.23" width="1.43" height="31.4" rx="0.71" transform="translate(-0.26 0.44) rotate(-0.33)" style="fill:#165488"/><path d="M198.54,130.4s-14-4.77-16-5.33a49.3,49.3,0,0,1-5.72-2.54c-2-.84-1.44-1.7-3.45-3.4s-4-2-5.44-3.11.57.28-6-3.11-12.88-5.06-15.47-8.76-10-7.36-12.33-10.77-4-5.4-5.75-6.25-2.59-3.7-3.45-3.69-2.14-1-3-1.27a8.31,8.31,0,0,1-1.72-.85s-4.86-2.54-5.44-3.68a24,24,0,0,0-2-3.69c-.86-1.14-4.3-3.12-6-5.39s-2-1.42-3.15-3.13-1.73-1.41-4-4.25-3.45-4.27-4-4-1.71,1.72-2.56,1.73-.58-1.71-1.44-1.42l-.85.29-.57.29a4.72,4.72,0,0,0-1.72-.85,5,5,0,0,1-2-.56c-.58-.28,0-.85-1.43-.56a7.61,7.61,0,0,0-3.42,1.45l-.57.57s-.29-.57-1.71-.56-1.72,0-2.29.3-.28.29-1.13.58,0,.28-1.14.57-2-.27-3.15-.55-.57-.28-1.71-.27H67.53a3.8,3.8,0,0,1-2-.85,3.13,3.13,0,0,0-2-.56,4,4,0,0,0-2.27,1.44c-.29.58-1.71,1.16-2.56,2A12.87,12.87,0,0,0,57.27,62S47,70,42.48,71.49a6.4,6.4,0,0,1-3.14.31,2.92,2.92,0,0,0-1.71,0H35.92a16,16,0,0,1-5.11,4.88c-1.12.62-4.27,1.74-5.41,2.6s-1.13,2.57-2.84,3.44a35.23,35.23,0,0,0-4.26,2.88s-7.73-4-8.31-4.52S9.13,80.53,8,80s-.29-1.43-2.57-.84-3.14,1.44-4.28,1.73A7.68,7.68,0,0,0-1.13,82S-4,82-5.41,83.47a2.59,2.59,0,0,0-3.13.88,44.11,44.11,0,0,1-8,6c-1.43.85-3.7,2-5.11,4.31-.64,1-11.07,11.19-23,18.11-.5.29-.86-.85-2-.27a6,6,0,0,1-4.28.88c-2.28-.27-.29-1.14-2.86-.27s-2.55,1.73-4.83,2.88-2.28,1.44-4.27,2-2.29,0-3.71.3-1.14,1.44-2.27,2-5.42.61-7.41,2.33a17.62,17.62,0,0,1-6,1.75c-2.56.3-2,2.29-4,2s-2.58-.84-3.71-.27-2,2.3-2.84,2.59a18,18,0,0,1-2.57.58c-1.43.3-2-.27-2.28.3s.57.86-.57,1.15-1.42.29-1.7,1.15.57.85-.85,1.15-2.57.3-4,.59a45.19,45.19,0,0,1-6.55,1.18c-1.72,0-1.72-.56-3.14,0s-5.14,1.17-5.42,1.46a17.9,17.9,0,0,1-1.71,1.15c-.85.57-2.83,3.44-3.4,3.73s-3.71-.55-4.85,0-8.84,2.61-8.84,2.61l-26.8,4.44-9.06,13.47,140.45.91,232.94,1.23Z" style="fill:#abc4ab"/><path d="M-3,128.7a22,22,0,0,0,1.45,2.85c.86,1.42,2.86,2,4.3,3.11s3.45,4.55,4.88,5.69,0,.85-.27,2.28,0,1.14.29,1.71A41.29,41.29,0,0,0,14,150c1.14.57.57.57,4.29,2.83a11.86,11.86,0,0,1,4.89,5.69l19.84,0,32.53-2.76s2-.87,2.27-1.73-1.16-2.56-1.16-2.56l1.4-4.57s-2-1.7-2.86-2.27.27-2.86.26-4.57-1.73-1.7-2.87-2.27-.87-2,.26-4.28a5.51,5.51,0,0,0,0-4.57s-1.41,2-1.69,2.58-2.56,1.73-6.26,3.46-2.56,2-3.42,2.59.91,8-1.13,2-.87-2.85-1.73-4.28.27-1.42.26-3.42a15.49,15.49,0,0,0-1.17-5.71c-.58-1.13.84-3.14,1.12-4s.83-4.86,2-6.58,3.11-4.29,5.11-4.88,1.13-2,1.69-3.43a23.25,23.25,0,0,1,2.55-4.3c.28-.29.27-2.86.26-4S72,95.3,73.15,93.87s.28-1.14.85-2.29a12.87,12.87,0,0,1,2.84-2.87s3.43,1.12,4.86,2.83.58.56,1.15.85.3,1.71.88,3.13a6.71,6.71,0,0,1,.58,3.14l0,4.56c0,1.43.59,3.71.6,4.57a24.6,24.6,0,0,0,1.17,6c.88,2.85,1.45,2.84,1.45,4s1.73,2.56,2,6.27,2,5.13,2,5.13.86,2,1.43,2,2,2,2.31,3.13,1.15,1.7,2.87,4.26,0,0,.87,1.14a13,13,0,0,1,1.72,2.56c1.16,2-.55,2-.55,2l3.18,7.12-.55,4.57s2.57.55,3.71,0,1.71,0,1.71,0a11.61,11.61,0,0,0,2.58.55,1.31,1.31,0,0,0,1.42-.86c.28-.57,0-1.71.26-3.71a5.9,5.9,0,0,0-.87-3.71,26.55,26.55,0,0,1,2.57.84c.57.28,3.43,1.41,3.43,1.41a35.69,35.69,0,0,1,0,5.71c-.28,2,2,.27,2.28,0s1.14-.3,1.71-1.16,0-1.42,0-2.28,1.71-.58,2-.87a4.45,4.45,0,0,0,1.12-2.86c0-1.43,1.41-2.86,2.27-3.44s2-1.44,2-1.44l.84-2.28a7.56,7.56,0,0,1,.84-2c.57-.86,1.71-1.72,1.7-2.86a23.69,23.69,0,0,0-.3-2.57c0-.28-2.57-.84-3.14-.84s-2-.27-2.58-.27-2-.27-2.57-.27a36.72,36.72,0,0,0-4.27,1.45,30.25,30.25,0,0,0-2.27,3.16c-.84,1.43-.27,2,.31,4.28s-.27,1.71-1.41,2.57a2.84,2.84,0,0,1-2.57.3s-4-1.12-4.57-2,0-3.71,0-4.57-4.28.6-4.28.6-1.16-2.56-.88-4-.87-2.57-1.16-3.42-2.58-2-3.16-3.69-2.58-1.42-3.16-3.13.84-2.57,1.41-3.43a18.69,18.69,0,0,0,1.4-5.14c.27-1.72,1.69-3.44,2-5.15s-.6-4.28-1.18-6-2.3-2.84-2.3-2,.3.86.59,2.85a15,15,0,0,1,.31,3.43c0,1.71-1.41,3.72-1.11,5.71s-3.68,6-3.68,6-2.28-.27-3.15-1.13,0-2.28-.87-2.84-2.61-7.7-2.93-13.12-.58-1.71-.58-1.71-1.17-5.42-1.48-8.84,0-2.28.83-6-.3-2.28-.31-3.71.55-3.71.54-5.14S84.18,76.11,82.19,77a18.61,18.61,0,0,1-4.56,1.46c-.57,0-1.42,1.43-1.41,2.58s2,2.55.59,3.7-3.42-.26-5.13.32-1.13,2.86-1.41,4.57,0,1.14,0,2.86a6.4,6.4,0,0,1-1.41,3.43L67.46,97a2.13,2.13,0,0,1-.85.86c-.57.29-.84,2.86-.84,2.86s-.55,3.72-1.4,5.15-1.43-.28-2.57,0-.28.86-1.69,2.58-2,2.87-2.84,3.73-1.41,2.29-3.11,4-.28.86-.56,3.43-.56,1.15-1.69,4,0,0,0,2.57a44.71,44.71,0,0,1-1.1,7.71c-.28,1.43,0,.86.87,2a7.1,7.1,0,0,1,.88,3.42A8.36,8.36,0,0,1,50,142a3.46,3.46,0,0,0-1.4,1.75,3.27,3.27,0,0,0-.31-.89,24.13,24.13,0,0,1-1.16-3.13,18.33,18.33,0,0,1,0-4c.28-.85-.29-.85-.87-2s-.3-3.42-1.73-3.13,0,.86-.27,2-.27,3.14-.55,4.57.59,2,.59,3.14a28.68,28.68,0,0,1-.26,4.85c-.27,1.43-4.24,5.74-4.24,5.74a11.76,11.76,0,0,1-.58-1.43,7.91,7.91,0,0,1,0-2.57c0-.85-1.72-1.7-3.15-2.55s-1.15-1.7-1.15-1.7a14.31,14.31,0,0,0-.31-2.86c-.29-1.14,1.13-3.43,1.41-4s-1.44-1.42-3.15-.84-1.12,4-2,4.86A8.17,8.17,0,0,1,28,141.23l-1.44-1.14a7.7,7.7,0,0,1,.28-2,1,1,0,0,0-.58-1.42c-.29,0-.87-1.42-.87-1.42L24,133.54l-3.13,2.88-4-.27L15.43,133l-2.3-2.27,3.69-4.87,3.4-3.16.85-1.43,2.85-1.45,1.71-.86,4-2,2.56-1.15,1.14-1.15.56-1.72s1.42-1.15,2-1.72a3.53,3.53,0,0,1,2-.58L40.69,108s3.41-3.73,4.83-4,.58.57,1.15.85,0,3.42,0,3.42l1.13-1.43c1.14-1.43,0-2.28,0-2.28s-.59-3.14-.88-4,0-4.85.82-6,1.71-.58,2.56-1.72,2-3.44,3.4-4,1.43-.86,2.58.84,0,.57-.56,3.15-2,2.29-2.26,4,0,2-.54,4-.55,3.71-.53,7.13.6,6,2,5.7,1.41-1.72,1.41-3.15.84-2,1.12-3.71,1.11-5.15,1.68-5.72.27-2.57.55-3.43a57.4,57.4,0,0,1,2.25-5.44c.85-1.71,1.71-.86,2.56-1.44s.28-.86.28-1.43,1.7-2,2.55-3.15.56-1.43.56-2.29,1.13-2,1.7-2.29.55-2.29.55-2.29a5.86,5.86,0,0,1,1.41-3.72c1.42-1.43,2.53-7.15,2.53-7.15s.27-1.71,0-2,.56-2.28,1.13-2,.29.57.86,1.71a4.07,4.07,0,0,1,.31,3.7c-.56,1.72.58,2,.59,3.14s1.44,1.42,1.44,1.42l1.43,2s1.43-.29,1.42-1.44,1.12-4,1.11-5.71.57-.86.85-1.72A6.77,6.77,0,0,0,83.26,65c0-1.14,0-.57-.57-1.42s.27-2,0-2.57-.86,0-1.71-.56-1.15-.85-1.72-.85h-2c-.34,0-.58-.8-.72-1.45a2.9,2.9,0,0,1-.71.32c-.69.23-.28.27-.67.43l.1,1H72.67c-1.14,0-1.13.58-2,1.15s-.86-.28,0-1.14a3.06,3.06,0,0,0,.7-1.46,3.07,3.07,0,0,0-1.57-.24H67.53a2.35,2.35,0,0,1-1-.23,5.46,5.46,0,0,0-.18,2.52c0,1.14-.85,1.72-1.42,1.43s-.29-1.14-.3-2-.58-1.43-.58-1.71a14.8,14.8,0,0,0-.47-1.43h-.11a4,4,0,0,0-2.27,1.44c-.29.58-1.71,1.16-2.56,2A12.87,12.87,0,0,0,57.27,62S47,70,42.48,71.49a6.4,6.4,0,0,1-3.14.31,2.92,2.92,0,0,0-1.71,0H35.92a16,16,0,0,1-5.11,4.88c-1.12.62-4.27,1.74-5.41,2.6s-1.13,2.57-2.84,3.44a31.55,31.55,0,0,0-4,2.65,33.54,33.54,0,0,1,2.29,2.5c.58.85.86,1.13,2,2.56s.86.56,2.29,1.12,2.29.28,2,1.42-2.83,4.58-2.83,4.58a2.61,2.61,0,0,1,2.72,1c.86,1.42,0,1.14.87,2.28s-.85,1.43-1.41,2.86-.84,3.14-2,4.29-2.55,2.59-5.95,6.6-1.71.3-4.27,2.59a51.34,51.34,0,0,1-5.12,4C7,122.94-3,128.7-3,128.7Z" style="fill:#86ac98"/><path d="M-29.8,110.16c1.71,0,2-1.15,3.13-1.16s1.14.56,3.14.84,4.56-1.46,6.56-1.47,2.57.56,4,.26,1.12-4,3.68-4.58,4.28-.31,5.14.25,2-.58,2.56-1.73.52-9.7,1.36-11.42-.3-4,0-5.42S-.85,82.3.86,82s2.29,0,2.58.55l.29.57s.84-1.43,1.13-2a6.57,6.57,0,0,1,.65-2l-.09,0c-2.29.58-3.14,1.44-4.28,1.73A7.68,7.68,0,0,0-1.13,82S-4,82-5.41,83.47a2.59,2.59,0,0,0-3.13.88,44.11,44.11,0,0,1-8,6c-1.43.85-3.7,2-5.11,4.31-.64,1-11.07,11.19-23,18.11a14.58,14.58,0,0,0,4.87,2.83c2.28.56.29,1.14,3.14.84s.28-1.72,2-3.44S-31.52,110.17-29.8,110.16Z" style="fill:#91b19b"/><path d="M106,79.26c-.58-1.7-.58-1.13-.58-2s.56-1.43-.58-2-.58-.56-1.72-1.13-.29-.85-1.15-.56.29,1.14-.85.86-1.14-.28-1.14-.56.28-.29.27-1.15.57-.29,0-1.43a9.13,9.13,0,0,1-.87-1.7c-.29-.86-1.44-2.28-1.74-4.28s.57-.57-.3-2.28-.58-2.28-.87-2.56-.85.57-.86-.85a4.11,4.11,0,0,0-.75-2c-.59.53-1.35,1.27-2,1.27-.86,0-.58-1.71-1.44-1.42l-.85.29-.57.29a4.72,4.72,0,0,0-1.72-.85,5,5,0,0,1-2-.56c-.58-.28,0-.85-1.43-.56a8,8,0,0,0-3.35,1.38,3.25,3.25,0,0,1,.65,1.35c0,.85,1.15.56,2.3,2.55a24.7,24.7,0,0,0,1.75,2.91c-.56-.11-1-.17-1.16,0-.29.28.29,1.42,0,2a8,8,0,0,0-.27,2.86v1.71c0,1.14-.85.86,0,1.71A7.18,7.18,0,0,0,86.6,74c.86.57-.88-3.13-.31-3.42a1.14,1.14,0,0,1,1.72.56,16.44,16.44,0,0,0,1.16,3.42c.58.85.29,1.14.86,1.14s1.43-.58,1.43.56,1.44,2,1.44,2a1.32,1.32,0,0,1-.29-.86c0-.57.28-2.28-.3-2.85s0-.86-.3-2-.57-.85-.58-1.71c0-.56-.06-1.44-.1-2,.59.67,1.06,1.22,1.24,1.4.58.56,1.15.56,2,2S96,73,96.3,73.9s-.56,1.43.31,3.13.87,2.28,1.73,2.56.85,0,1.14.57a16.93,16.93,0,0,0,2.3,2.27,4.36,4.36,0,0,1-.87-2c0-.86.57-.58,0-1.43s-1.43-1.42-1.44-2,.28-.86.57-1.43.56-.86.85-.29a3.7,3.7,0,0,0,1.44,2c1.15.85,1.72.84,2,1.7a6.75,6.75,0,0,0,1.72,2.56c.87.85,1.72,1.42,2,1.7S106.62,81,106,79.26Z" style="fill:#86ac98"/><path d="M127.73,153.5a12.36,12.36,0,0,1,4.85-1.17c2.57,0,4.86.83,6,0s1.14-.58,2.56-1.73-.58-2,3.7-2,7.14-.32,8-.9,2.57-.3,2.84-2,2-1.16.56-3.15-.59-2.56-2-2.84-1.16-2.56-4-4-2-1.42-4-2.55-1.43-1.42-3.16-2.84-10-7.36-14.33-11.33-6.31-5.11-9.19-8.23-3.42-.55-4.88-5.68-1.74-4.84-4.34-9.68-4.88-4.26-5.18-7.11-1.44-3.42.27-2.85,2.87,3.12,3.73,3.69,1.44,2.27,2.59,2.26-.56,2.29,3.44,3.7,1.73,2,3.17,4,4.3,3.69,5.45,4.83a38,38,0,0,0,6.87,4.24,70.64,70.64,0,0,1,9.75,6.79c2.58,2.27,8,4.81,10.31,5.65s6.29,2.82,11.15,4.51,0-.86-3.15-2.55-1.16-2.57-3.73-3.12-9.16-4.8-10.88-6.51-3.17-4-5.46-6-2-1.7-3.45-4.26-2-4.27-.31-3.71,1.74,4.27,3.46,5.12,6.87,4.53,8.3,4.8a5.37,5.37,0,0,1,3.73,2.27,22.42,22.42,0,0,0,7.45,5.09c3.15,1.41,6.59,4.53,10,5.37s2.29.56,5.15,2,7.44,2.52,8.87,3.37,5.43,1.11,6,2.54S201.55,134,201.55,134l.71,24s-10.94-16.78-14.65-17-4.58-1.12-9.44-2.52-8.87-3.37-10.58-3.94-4.29-.26-7.16-3.09-12.89-7.64-13.75-8.2,6.59,4.24,8.32,6.23a22,22,0,0,0,7.45,4.81c1.71.56,6,4.25,9.16,4.8s3.43,0,6.87,2.81,6.87,3.68,9.16,5.66,4.88,4.83,4.32,5.4-12.89-6.49-16.89-7.9l-7.15-2.52c-4-1.41-7.74-5.1-10.31-5.94s2.58,2.84,4.88,5.68,3.73,2.26,4,4.83-1.7,2.58-.83,5.43,1.89,6.13-1,6.71-18.7-.6-23-.29-10.84,2.06-13.7.36S127.73,153.5,127.73,153.5Z" style="fill:#86ac98"/><path d="M226.38,156.51s-81.36-.11-100.77-.57-35.12-1.51-42-.33-41.39-.33-51.09.86-3.43-1.4-32.84-1.24-50.8,2-61.36,1.5-28.53,2.45-37.38,2.5-44.82.82-53.09.87l-11.14.06-3.38,107.07L231.26,261Z" style="fill:#698b87"/><polygon points="277.44 164.27 245.7 -18.05 235.27 43.4 242.7 37.55 235.32 51.7 213.58 166.3 277.44 164.27" style="fill:#283c3f"/><path d="M287.57,121s-52.33-14.83-115.22,19.5c-4.71,2.57-40.66,27.06-53.77,31.42s-31.36,7.6-39.07,7.07-13.42-.21-23.1,3S13.37,194.46-9.72,200s-46.48,7.4-54.74,10.87-20.51,8.4-30.49,10.45-19.13-2.17-42.75,11.38-25.62,11.85-32.73,17-9.9,16-9.9,16l470.14-2.4Z" style="fill:#577977"/><rect x="168.34" y="148.39" width="4.16" height="88.59" rx="2.08" transform="translate(-1.1 0.98) rotate(-0.33)" style="fill:#1b2023"/><path d="M209.12,112a4.74,4.74,0,0,1-1.63,3.73q-4.4,4.23-8.71,8.55-6.93,6.92-13.88,13.8Q179.46,143.57,174,149a5,5,0,0,1-6.92.5,32.64,32.64,0,0,1-2.49-2.5q-15.62-15.79-31.24-31.58a4.94,4.94,0,0,1,0-7.4q9.66-9.6,19.36-19.18,7.11-7.06,14.24-14.11c2.28-2.25,5.2-2.17,7.47.12q6.24,6.31,12.49,12.61L199.28,100q4.2,4.23,8.37,8.47A4.6,4.6,0,0,1,209.12,112Zm-2.5,0a2.45,2.45,0,0,0-.72-1.74c-.48-.48-1-1-1.42-1.46L172.67,76.7c-1.4-1.42-2.7-1.44-4.11,0l-33.24,32.89c-1.5,1.49-1.5,2.73,0,4.25,5.61,5.67,11.19,11.35,16.82,17,2.58,2.58,5,5.29,7.67,7.8,2.86,2.72,5.57,5.59,8.34,8.4,1.43,1.44,2.72,1.46,4.18,0q4.28-4.22,8.54-8.46,6.88-6.84,13.75-13.68c3.65-3.62,7.33-7.21,11-10.81A2.72,2.72,0,0,0,206.62,112Z" style="fill:#ff9b19"/><path d="M206.62,112a2.72,2.72,0,0,1-1,2c-3.67,3.6-7.35,7.19-11,10.81q-6.88,6.83-13.75,13.68-4.26,4.25-8.54,8.46c-1.46,1.44-2.75,1.42-4.18,0-2.77-2.81-5.48-5.68-8.34-8.4-2.64-2.51-5.09-5.22-7.67-7.8-5.63-5.63-11.21-11.31-16.82-17-1.5-1.52-1.5-2.76,0-4.25l33.24-32.89c1.41-1.4,2.71-1.38,4.11,0l31.81,32.13c.47.48.94,1,1.42,1.46A2.45,2.45,0,0,1,206.62,112Zm-36.37,34.5c.48,0,.77-.38,1.09-.7,4.32-4.34,8.59-8.72,13-13,1.64-1.6,3.32-3.16,4.94-4.78,3.72-3.73,7.55-7.33,11.17-11.17,1.25-1.33,2.68-2.5,4-3.81.92-.93.92-1.22,0-2.15l-5.84-5.9c-5-5-9.91-10.05-14.89-15-1.91-1.92-3.86-3.81-5.75-5.74-2.12-2.17-4.27-4.31-6.36-6.51-.76-.79-1.19-.79-2,0l-33.23,32.9c-.89.88-.89,1.21,0,2.08l7.5,7.59L161.41,138l7.85,7.93A1.53,1.53,0,0,0,170.25,146.53Z" style="fill:#0f0802"/><path d="M170.25,146.53a1.53,1.53,0,0,1-1-.6L161.41,138l-17.54-17.71-7.5-7.59c-.86-.87-.86-1.2,0-2.08l33.23-32.9c.76-.76,1.19-.76,2,0,2.09,2.2,4.24,4.34,6.36,6.51,1.89,1.93,3.84,3.82,5.75,5.74,5,5,9.93,10,14.89,15l5.84,5.9c.91.93.91,1.22,0,2.15-1.29,1.31-2.72,2.48-4,3.81-3.62,3.84-7.45,7.44-11.17,11.17-1.62,1.62-3.3,3.18-4.94,4.78-4.4,4.26-8.67,8.64-13,13C171,146.15,170.73,146.52,170.25,146.53Zm-6.93-34.73-5.51,0-19.25-.09c-.3,0-.72-.19-.87.15s.23.56.45.78l5.91,6,14,14.24,1.26,1.26a43.9,43.9,0,0,0-.83-4.48c-.72-3.28-1-6.48,1.72-9.12,1.15-1.1.76-2.6.84-3.94a3.77,3.77,0,0,1,.69-2.15C162.31,113.67,162.73,112.8,163.32,111.8Zm15.34-6.25a2.1,2.1,0,0,1-2-1c-.48-.57-1-1.07-1.55-1.61-.85-.89-2-1.63-1.52-3.16a.48.48,0,0,0-.06-.28c-.15-.29-.35-.61-.68-.63s-.36.39-.5.63c-.29.51.13,1.09-.15,1.61a1.29,1.29,0,0,0,.21,1.52q1.85,2.37,3.66,4.77a.82.82,0,0,0,.62.41c1.05,0,1.11.58.72,1.37-.06.12-.09.25-.15.36-.13.28-.06.76-.42.8s-.57-.35-.8-.62c-.7-.84-1.42-1.67-2.12-2.52a1.36,1.36,0,0,0-1.08-.55c-2.17,0-4.34-.14-6.5,0-.88,0-1.34,0-1.54-.88a.76.76,0,0,0-.91-.56c-.44.07-.34.47-.42.77-.23.84.35,1.6.24,2.42-.08.66.15.91.86.92,2.23,0,4.46.15,6.69.24a3.49,3.49,0,0,1,.86.09c.49.15,1,1.08.77,1.38-.38.47-.69,0-1.07-.1-.72-.28-1.46-.73-2.27-.05-1.07.88-2.21,1.67-3.31,2.51-.36.27-.66.82-1,.84s-.47-.67-.72-1a.68.68,0,0,0-.71-.38c-.37.06-.37.38-.4.68a6.07,6.07,0,0,0,.56,2.76c.51,1.33.59,1.47,1.77.64,1.59-1.12,3.21-2.21,4.83-3.28.37-.24.83-.53,1.25-.17,1.21,1,2.72,1.59,3.94,2.6.91.76,2,.92,2.59.36s1.27-1.43,1.9-2.14c1-1.17,2.1-2.32,3.12-3.5.2-.23.44-.26.57-.1.55.66,1.26,1.25,1.24,2.21a19.83,19.83,0,0,0,.21,2.31c.09,1,.14,2,1.51,2.18.29,0,.34.37.53.52a1.35,1.35,0,0,0,1.23.38c.44-.13.16-.62.24-.93s-.35-.53-.67-.66a1.57,1.57,0,0,1-1-1.8c.1-1.25,0-2.51-.06-3.77a.74.74,0,0,0-.27-.59c-1.24-1.15-2.07-2.64-3.24-3.86-.3-.31-.36-.52,0-.84a2.74,2.74,0,0,0,1-2.13,2,2,0,0,0-1.16-2.14,2,2,0,0,0-2.29.6,2.73,2.73,0,0,0-.89,2.55c.16.8-.17.89-.79.84Zm-15.75,28.87a1.86,1.86,0,0,0,.05.75,9.48,9.48,0,0,0,1.94,2.25.69.69,0,0,0,.83,0,2.08,2.08,0,0,0,1.1-1.8,2.48,2.48,0,0,0-1.42-2.27c-.54-.29-.86-.73-1.54-.42S162.8,133.64,162.91,134.42Zm5.86-4.42c-.2-.53-.22-1.23-.42-1.85a1.06,1.06,0,0,0-1.15-.72,3.79,3.79,0,0,1-1.34-.08c-.64-.15-.87.14-.83.78a3.26,3.26,0,0,0,3.27,2.69C168.73,130.74,168.79,130.46,168.77,130Zm-4.85-8.36c-.11.74.56.8.91,1.12a1.13,1.13,0,0,0,1.87-.23c.5-.71-.22-.83-.6-1.1-.13-.1-.29-.21-.33-.35-.18-.59-.51-.55-1-.37S163.85,121,163.92,121.64Zm-2.61-14.13.29-.11c-.37-1.28-.74-2.56-1.12-3.84-.08-.29-.22-.47-.54-.29s-.52.18-.35.55Zm-1.93.09.28-.29c-.78-.89-1.56-1.78-2.33-2.68-.2-.23-.38-.22-.55,0s-.49.34-.16.62C157.53,106.05,158.46,106.82,159.38,107.6Zm.09,1.66c-1.15-.53-2.29-1.05-3.43-1.61-.34-.16-.54-.12-.66.23s-.22.47.12.55A14.06,14.06,0,0,0,159.47,109.26Z" style="fill:#ff9b19"/><path d="M163.32,111.8c-.59,1-1,1.87-1.58,2.64a3.77,3.77,0,0,0-.69,2.15c-.08,1.34.31,2.84-.84,3.94-2.76,2.64-2.44,5.84-1.72,9.12a43.9,43.9,0,0,1,.83,4.48l-1.26-1.26-14-14.24-5.91-6c-.22-.22-.6-.45-.45-.78s.57-.15.87-.15l19.25.09Z" style="fill:#0f0802"/><path d="M178.66,105.55h.82c.62,0,1,0,.79-.84a2.73,2.73,0,0,1,.89-2.55,2,2,0,0,1,2.29-.6,2,2,0,0,1,1.16,2.14,2.74,2.74,0,0,1-1,2.13c-.38.32-.32.53,0,.84,1.17,1.22,2,2.71,3.24,3.86a.74.74,0,0,1,.27.59c0,1.26.16,2.52.06,3.77a1.57,1.57,0,0,0,1,1.8c.32.13.77.23.67.66s.2.8-.24.93a1.35,1.35,0,0,1-1.23-.38c-.19-.15-.24-.5-.53-.52-1.37-.13-1.42-1.16-1.51-2.18a19.83,19.83,0,0,1-.21-2.31c0-1-.69-1.55-1.24-2.21-.13-.16-.37-.13-.57.1-1,1.18-2.08,2.33-3.12,3.5-.63.71-1.22,1.47-1.9,2.14s-1.68.4-2.59-.36c-1.22-1-2.73-1.56-3.94-2.6-.42-.36-.88-.07-1.25.17-1.62,1.07-3.24,2.16-4.83,3.28-1.18.83-1.26.69-1.77-.64a6.07,6.07,0,0,1-.56-2.76c0-.3,0-.62.4-.68a.68.68,0,0,1,.71.38c.25.35.25,1.05.72,1s.65-.57,1-.84c1.1-.84,2.24-1.63,3.31-2.51.81-.68,1.55-.23,2.27.05.38.15.69.57,1.07.1.25-.3-.28-1.23-.77-1.38a3.49,3.49,0,0,0-.86-.09c-2.23-.09-4.46-.2-6.69-.24-.71,0-.94-.26-.86-.92.11-.82-.47-1.58-.24-2.42.08-.3,0-.7.42-.77a.76.76,0,0,1,.91.56c.2.91.66.93,1.54.88,2.16-.14,4.33,0,6.5,0a1.36,1.36,0,0,1,1.08.55c.7.85,1.42,1.68,2.12,2.52.23.27.44.66.8.62s.29-.52.42-.8c.06-.11.09-.24.15-.36.39-.79.33-1.33-.72-1.37a.82.82,0,0,1-.62-.41q-1.81-2.4-3.66-4.77a1.29,1.29,0,0,1-.21-1.52c.28-.52-.14-1.1.15-1.61.14-.24.14-.64.5-.63s.53.34.68.63a.48.48,0,0,1,.06.28c-.49,1.53.67,2.27,1.52,3.16.51.54,1.07,1,1.55,1.61A2.1,2.1,0,0,0,178.66,105.55Z" style="fill:#0f0802"/><path d="M162.91,134.42c-.11-.78.3-1.18,1-1.49s1,.13,1.54.42a2.48,2.48,0,0,1,1.42,2.27,2.08,2.08,0,0,1-1.1,1.8.69.69,0,0,1-.83,0,9.48,9.48,0,0,1-1.94-2.25A1.86,1.86,0,0,1,162.91,134.42Z" style="fill:#0f0802"/><path d="M168.77,130c0,.46,0,.74-.47.82a3.26,3.26,0,0,1-3.27-2.69c0-.64.19-.93.83-.78a3.79,3.79,0,0,0,1.34.08,1.06,1.06,0,0,1,1.15.72C168.55,128.77,168.57,129.47,168.77,130Z" style="fill:#0f0802"/><path d="M163.92,121.64c-.07-.6.34-.75.84-.93s.83-.22,1,.37c0,.14.2.25.33.35.38.27,1.1.39.6,1.1a1.13,1.13,0,0,1-1.87.23C164.48,122.44,163.81,122.38,163.92,121.64Z" style="fill:#0f0802"/><path d="M161.31,107.51l-1.72-3.69c-.17-.37.14-.44.35-.55s.46,0,.54.29c.38,1.28.75,2.56,1.12,3.84Z" style="fill:#0f0802"/><path d="M159.38,107.6c-.92-.78-1.85-1.55-2.76-2.34-.33-.28,0-.44.16-.62s.35-.24.55,0c.77.9,1.55,1.79,2.33,2.68Z" style="fill:#0f0802"/><path d="M159.47,109.26a14.06,14.06,0,0,1-4-.83c-.34-.08-.2-.34-.12-.55s.32-.39.66-.23C157.18,108.21,158.32,108.73,159.47,109.26Z" style="fill:#0f0802"/><path d="M101.51,167l-3.12.49L87.93,94.2a.6.6,0,0,1,.49-.67h0a.6.6,0,0,1,.68.49Z" style="fill:#0b0915"/><polygon points="90.26 100.4 88.77 100.63 84.07 98.02 93.94 96.48 90.26 100.4" style="fill:#0b0915"/><path d="M105.83,161.4l-3,.91L82.36,91.17a.59.59,0,0,1,.4-.73h0a.59.59,0,0,1,.73.39Z" style="fill:#0b0915"/><polygon points="85.52 96.99 84.08 97.42 79.06 95.48 88.63 92.59 85.52 96.99" style="fill:#0b0915"/><path d="M126.81,167.19l-1,56.13-4.37,0s1.21-38.4-.24-41.41-10.44-10.11-22.89-.93c-1.69,1.92,4.48,42.44,4.48,42.44l-4.11,0s-3.52-23.16-4.62-30.36-1.85-27-1.85-27S122.35,165.73,126.81,167.19Z" style="fill:#0b0915"/><path d="M89.11,177.34s-.06,5.14.67,5.67.72-1.12.72-1.12-.23,2.08.49,2.32.86-1.94.86-1.94,0,1.93.64,2.17.57-1.21.71-1.74.13,2.07.91,1.1,0-3.62,0-3.62,1.48,2,1.47.7-3.51-4.94-3.51-4.94Z" style="fill:#fdccaa;stroke:#000;stroke-miterlimit:10;stroke-width:0.37990185664260734px"/><path d="M161.55,154.87s4.39,2.67,5.21,2.31-.59-1.18-.59-1.18,1.67,1.25,2.25.75-1.23-1.72-1.23-1.72,1.64,1,2.19.55-.75-1.11-1.14-1.5,1.86.94,1.42-.22-3.13-1.83-3.13-1.83,2.5-.23,1.35-.91-6,.5-6,.5Z" style="fill:#fdccaa;stroke:#000;stroke-miterlimit:10;stroke-width:0.37990185664260734px"/><path d="M127.16,168.82s-13.4,4.77-34,2.36c-1.09-.17,1.66,6.5,1.66,6.5s-5.58,1.82-5.94,2.36-2.9-2.69-4-10.43-7-49,13.92-55.06c1.8-1.45,20.91-.12,20.91-.12s6.17-3.38,19.28,19a7.86,7.86,0,0,0,2.18,2.41l21.29,15.28-1.32,4.52L136.89,142.4a3.91,3.91,0,0,1-.87-.64L127,133S128.82,157.39,127.16,168.82Z" style="fill:#ef1e32"/><path d="M127.16,168.82s-13.4,4.77-34,2.36c-1.09-.17,1.66,6.5,1.66,6.5s-5.58,1.82-5.94,2.36-2.9-2.69-4-10.43-7-49,13.92-55.06c1.8-1.45,20.91-.12,20.91-.12s6.17-3.38,19.28,19a7.86,7.86,0,0,0,2.18,2.41l21.29,15.28-1.32,4.52L136.89,142.4a3.91,3.91,0,0,1-.87-.64L127,133S128.82,157.39,127.16,168.82Z" style="opacity:0.5;fill:url(#c)"/><polygon points="118.73 105.27 118.21 115.77 116.36 119.39 103.3 120.36 98.06 117.3 97.74 112.28 97.04 101.95 111.76 100.1 118.73 105.27" style="fill:#fdccaa"/><path d="M100.37,105a1.21,1.21,0,0,1,.37-.11c.14,0,.27,0,.42,0a7.94,7.94,0,0,0,1.09,0,2.73,2.73,0,0,1,.4,0,1.77,1.77,0,0,0,.32,0c.24,0,.48,0,.72,0s.29,0,.44,0,.36,0,.54,0a1.07,1.07,0,0,1,.69.21c.12.08.17.09.21.24s0,.2,0,.29.06.32.08.48a1.45,1.45,0,0,1,0,.29.65.65,0,0,1-.19.41,1.68,1.68,0,0,1-1.38.58c-.47,0-.93,0-1.39,0a2.57,2.57,0,0,1-.48,0,3.5,3.5,0,0,0-.56-.13c-.27,0-.49-.1-.76-.11s-.49-.08-.73-.11a2,2,0,0,1-.75-.22,1.33,1.33,0,0,1-.43-.68.68.68,0,0,1,.22-.8,1.2,1.2,0,0,1,1-.06" style="fill:#0b0915"/><path d="M101.27,109.48a1.66,1.66,0,0,1,2.28-.06c.11.07.21-.1.1-.17a1.82,1.82,0,0,0-2.54.13c-.08.1.09.2.16.1Z"/><path d="M102.44,108.43c-.16.23-.24.27-.25.13a.43.43,0,0,1,.06-.31l.27.1c-.09.23-.17.29-.26.21.15-.12-.06-.32-.21-.21s0,.55.26.62a.48.48,0,0,0,.59-.58.39.39,0,0,0-.7,0c-.12.26.15.63.44.52s.25-.69,0-.87a.51.51,0,0,0-.79.24c-.05.29.08.76.46.71a.47.47,0,0,0,.36-.7c-.1-.15-.36,0-.25.15Z"/><path d="M116.08,104.91a1,1,0,0,0-.37-.1c-.14,0-.27,0-.42,0a9.91,9.91,0,0,1-1.09,0,1.81,1.81,0,0,0-.4,0l-.32,0c-.25,0-.48,0-.72,0s-.29,0-.45,0-.35,0-.53,0a1.07,1.07,0,0,0-.69.22c-.12.08-.17.09-.2.24s0,.2,0,.29,0,.32-.07.48a1.45,1.45,0,0,0,0,.29.72.72,0,0,0,.2.41,1.65,1.65,0,0,0,1.39.56c.47,0,.92,0,1.39,0a3.65,3.65,0,0,0,.47,0,3.5,3.5,0,0,1,.56-.13c.27,0,.49-.11.76-.13s.49-.08.73-.11a2,2,0,0,0,.75-.23,1.35,1.35,0,0,0,.42-.68.69.69,0,0,0-.23-.8,1.17,1.17,0,0,0-1,0" style="fill:#0b0915"/><path d="M114.3,109.29a1.83,1.83,0,0,0-2.54-.08c-.1.07,0,.24.1.17a1.63,1.63,0,0,1,2.3.05c.08.1.21,0,.14-.14Z"/><path d="M112.71,108.22a.47.47,0,0,0,.37.7c.38,0,.5-.43.45-.72s-.54-.43-.79-.23-.29.74,0,.87.56-.27.44-.53a.39.39,0,0,0-.7,0,.47.47,0,0,0,.59.57c.22-.07.49-.44.25-.62s-.35.09-.2.2c0,.06-.09,0-.14-.09-.21-.11-.16-.18.14-.21l.07.25c0,.19-.08.16-.26-.07.11-.15-.14-.3-.25-.15Z"/><path d="M98,104.68v.16c.08,1.88.6,9.87,2,11.24a4.33,4.33,0,0,0,3.74,1.1,73.2,73.2,0,0,1,7.83-.41c.74,0,1.48,0,2.21.06,1.25.06,2.68.08,3.52-.85a3.53,3.53,0,0,0,.73-2,73.35,73.35,0,0,0-.15-9.61,2.33,2.33,0,0,1,1.1,1.07c.21.58,0,7.07,0,7.67a10,10,0,0,0,.28,2.44c.36,1.59,1,3.11,1.46,4.67a24.53,24.53,0,0,1,1,5.71,6.82,6.82,0,0,1-.16,2.34c-.3,1.06-1.49,3.14-2.85,2.84a1.19,1.19,0,0,1-1-1.29s.34,2.66-1.35,2.93-1.44-1.42-1.83-1.55-.64,2.09-1.81,2.75-2.08.4-2.22-1-.26-.91-.52-.52.54,3.38-2.2,2.62c-1.69-.52-1.7-2.6-1.7-2.6a5.74,5.74,0,0,1-.38,1.44c-.39.74-2.07.45-2.87-1.42l-.66-1.56s-.25,1.83-.64,2-2.09-1.42-2.22-1.68-.79-1.92-.8-2c.19.49,0,1.64-.66,1.62-.84,0-1.47-2.14-1.7-2.78a12.55,12.55,0,0,1-.29-7.5c.4-1.42,1-2.77,1.38-4.21.25-1-.3-8.89-.45-10C96.61,105.19,97.3,105.65,98,104.68Z" style="fill:#3a3f49"/><path d="M98.14,104.7v.16c.08,1.9.6,10,2,11.34a4.36,4.36,0,0,0,3.77,1.11,71.83,71.83,0,0,1,7.9-.42L114,117c1.25.06,2.7.08,3.54-.85a3.53,3.53,0,0,0,.74-2,74.57,74.57,0,0,0-.15-9.69,2.36,2.36,0,0,1,1.11,1.07c.21.59,0,7.14,0,7.74a10.2,10.2,0,0,0,.28,2.46c.37,1.61,1,3.14,1.47,4.71a24.53,24.53,0,0,1,1,5.76,6.92,6.92,0,0,1-.16,2.36c-.3,1.07-1.5,3.17-2.87,2.87A1.22,1.22,0,0,1,118,130.1s.35,2.69-1.36,3-1.45-1.43-1.84-1.56-.65,2.1-1.82,2.77-2.1.4-2.24-1-.27-.92-.53-.52.55,3.41-2.21,2.63c-1.71-.51-1.72-2.61-1.72-2.61a5.62,5.62,0,0,1-.39,1.45c-.39.75-2.08.45-2.89-1.43l-.67-1.57s-.25,1.84-.64,2-2.11-1.43-2.24-1.69-.79-1.94-.8-2c.19.49-.06,1.65-.68,1.63-.84,0-1.48-2.16-1.7-2.8a12.59,12.59,0,0,1-.3-7.56c.4-1.44,1.06-2.8,1.39-4.25.25-1.05-.3-9-.45-10C96.7,105.22,97.39,105.68,98.14,104.7Z" style="opacity:0.1;fill:url(#d)"/><path d="M108.31,115.88s2.9-3.84,7.64,1.3c1.13.44,1.81,1.78,2.93,1.33s.69,2.69-6.27,2.73c-1.28.32-3.57-1.95-4.29-3.34-.22-.45-3.56,5.63-10.31,2.75-.89,0-1.35-1.56-1.35-1.56a4.57,4.57,0,0,0,2.69-.47C100.24,117.94,103.58,111.86,108.31,115.88Z" style="fill:#3a3f49"/><path d="M106.37,115.91a1.86,1.86,0,0,1-.27-1.36,18.53,18.53,0,0,0,.79-3c0-.95.53-2.44.93-2.57s1.22.53,1.23,1.21a12.53,12.53,0,0,0,.42,2.57c.14.4.69,2.7.42,3.11s-1.22,0-1.22,0-.26.68-.53.68-.82-.53-.82-.53A.83.83,0,0,1,106.37,115.91Z" style="fill:#b98f6e"/><path d="M93.14,171.64c-1.18-8.87-1.92-18-1.06-27,0-.22-.32-.22-.34,0-.86,8.92-.12,18.09,1.06,27,0,.21.37.21.34,0Z"/><path d="M126.53,171.45c1.08-8.89,1.72-18.06.76-27,0-.22-.37-.22-.34,0,1,8.91.32,18.08-.76,27,0,.21.32.21.34,0Z"/><path d="M109.6,133.82c1.85,5.13,1.91,11.17,1.31,16.45-.82,7.27.5,14.54.8,21.81,0,.22.35.22.34,0-.18-4.36-.65-8.69-.87-13.05s.37-8,.61-12.24a35.67,35.67,0,0,0-1.87-13.07c-.07-.2-.4-.11-.32.1Z"/><path d="M117.55,106.94a9.71,9.71,0,0,0-5-.89,4.63,4.63,0,0,0-2.61.78,2.24,2.24,0,0,0-.86,1.53,1.66,1.66,0,0,0-2.19,0v.3c0-.13,0-.26,0-.39a2.23,2.23,0,0,0-.88-1.52,4.64,4.64,0,0,0-2.61-.75,9.87,9.87,0,0,0-5,.94c-.65.32-.67,1-.53,1.66.08.39.91.82.91.82a4.27,4.27,0,0,1,.11.84,5.22,5.22,0,0,0,.67,1.76c1,1.65,3.21,1.89,4.9,1.28A3.51,3.51,0,0,0,106,112a5.57,5.57,0,0,0,.84-2.68s0,0,0,0a1.47,1.47,0,0,1,2.14,0,5.62,5.62,0,0,0,.88,2.89,3.48,3.48,0,0,0,1.66,1.3c1.71.59,3.89.32,4.89-1.33a5.32,5.32,0,0,0,.65-1.77,4.3,4.3,0,0,1,.1-.84s.83-.44.9-.84C118.23,107.91,118.21,107.25,117.55,106.94Zm-16.72,5.64a3.46,3.46,0,0,1-1.42-1.93c-.29-.88-.6-2.41.07-3.2a3.09,3.09,0,0,1,1.87-.83,14.39,14.39,0,0,1,3.28,0c1.82.09,1.8,2.09,1.84,2.64A3.77,3.77,0,0,1,100.83,112.58Zm15.68-1.89a3.46,3.46,0,0,1-1.4,1.94,3.77,3.77,0,0,1-5.68-3.28c0-.56,0-2.56,1.81-2.67a15,15,0,0,1,3.28,0,3.13,3.13,0,0,1,1.87.82C117.08,108.27,116.78,109.8,116.51,110.69Z" style="fill:#005d6d"/><path d="M96.42,103.07s-.06-9.79,9.28-9.85c2.5-.47,13-.75,13,8.13C118.51,103.4,96.42,103.07,96.42,103.07Z" style="fill:#3e292f"/><path d="M96.66,106.71s9.76-6.89,22.1-.12c1.82.9.2-5,0-5.24s-13.25-7-22.09,1.72C96,103.53,96.66,106.71,96.66,106.71Z" style="fill:#3e292f"/><path d="M96.57,106.55s9.76-6.89,22.1-.12c1.82.9.2-5,0-5.24s-13.25-7-22.09,1.72C95.87,103.37,96.57,106.55,96.57,106.55Z" style="fill:url(#e)"/><path d="M103.05,223.19a14.66,14.66,0,0,0,0,3.58c.29.72,2.47,6.71,2,7.29s-11.16.06-11.16.06-1,.72,0-1.43,4.42-3.74,4.55-5.46.12-4,.12-4Z" style="fill:#014d46"/><path d="M98.63,228.06h2.18c.18,0,.18-.3,0-.29H98.63a.15.15,0,0,0,0,.29Z"/><path d="M98.25,229l2.17,0a.15.15,0,0,0,0-.29l-2.17,0a.15.15,0,0,0,0,.29Z"/><path d="M97.68,230h2.17a.15.15,0,0,0,0-.29H97.68c-.19,0-.19.3,0,.29Z"/><path d="M121.58,223.09a14.76,14.76,0,0,1,0,3.58c-.29.71-2.4,6.74-2,7.31s11.17-.07,11.17-.07,1,.71,0-1.43-4.46-3.69-4.61-5.41-.17-4-.17-4Z" style="fill:#014d46"/><path d="M126,227.61h-2.17a.15.15,0,0,0,0,.29H126a.15.15,0,0,0,0-.29Z"/><path d="M126.43,228.57l-2.17,0a.15.15,0,0,0,0,.29l2.17,0a.15.15,0,0,0,0-.29Z"/><path d="M127,229.54h-2.17a.15.15,0,0,0,0,.29H127a.15.15,0,0,0,0-.29Z"/><path d="M109.08,140.19a.46.46,0,0,0,.37.69c.38.05.5-.42.45-.71a.51.51,0,0,0-.79-.23c-.22.18-.29.74,0,.86s.56-.26.44-.52a.4.4,0,0,0-.7,0,.47.47,0,0,0,.59.57c.21-.07.49-.43.25-.61s-.35.09-.21.2c0,0-.08,0-.13-.09-.21-.11-.17-.19.14-.22l.07.26c0,.18-.08.16-.26-.07.11-.16-.14-.3-.25-.15Z"/><path d="M109.33,146.35a.46.46,0,0,0,.37.69c.38.05.5-.42.45-.71a.51.51,0,0,0-.79-.24c-.22.19-.29.75,0,.87s.56-.26.44-.52a.39.39,0,0,0-.7,0,.47.47,0,0,0,.59.57c.21-.07.49-.43.25-.62s-.35.1-.21.21c0,0-.08,0-.13-.09-.21-.12-.17-.19.14-.22l.07.26c0,.18-.08.16-.26-.07.11-.16-.14-.3-.25-.15Z"/><path d="M109,151.09a.47.47,0,0,0,.37.7c.38,0,.5-.43.45-.72a.51.51,0,0,0-.79-.23c-.23.18-.29.74,0,.87s.56-.27.43-.53a.39.39,0,0,0-.7,0,.48.48,0,0,0,.6.57c.21-.07.48-.44.25-.62s-.35.09-.21.2c0,.06-.08,0-.13-.09-.22-.11-.17-.18.14-.22l.07.26c0,.18-.08.16-.26-.07.11-.15-.14-.3-.25-.15Z"/><path d="M108.8,157.5a.46.46,0,0,0,.37.69c.38.05.5-.42.45-.71s-.55-.44-.79-.24-.29.75,0,.87.56-.26.44-.52a.39.39,0,0,0-.7,0,.47.47,0,0,0,.59.57c.22-.07.49-.43.25-.61s-.35.09-.2.2c0,0-.09,0-.14-.09-.21-.12-.17-.19.14-.22l.07.26c0,.18-.08.16-.26-.07.11-.16-.14-.3-.25-.15Z"/><path d="M109.44,164.93a.47.47,0,0,0,.37.7c.37,0,.5-.43.45-.72a.51.51,0,0,0-.79-.23c-.23.18-.29.74,0,.87s.56-.27.43-.53a.4.4,0,0,0-.7,0,.48.48,0,0,0,.6.58c.21-.07.48-.44.25-.62s-.36.09-.21.2c0,.05-.09,0-.14-.09-.21-.11-.16-.19.15-.22l.07.26c0,.18-.09.16-.26-.07.1-.15-.15-.3-.25-.15Z"/><path d="M108.68,136.3a.46.46,0,0,0,.37.69c.38,0,.5-.42.45-.72a.51.51,0,0,0-.79-.23c-.23.19-.29.75,0,.87s.56-.27.43-.52a.38.38,0,0,0-.69,0,.47.47,0,0,0,.59.57c.21-.07.48-.43.25-.62s-.35.09-.21.21c0,.05-.08,0-.13-.1-.21-.11-.17-.18.14-.21l.07.25c0,.19-.08.16-.26-.07.11-.15-.14-.3-.25-.14Z"/><ellipse cx="108.09" cy="120.68" rx="0.34" ry="0.64" transform="translate(-0.69 0.62) rotate(-0.33)" style="fill:#e3dad2"/><path d="M90.19,120.14s1.56-2.94,4-3.86,1.3,28.65-2.49,37.69C90.39,156.46,90.19,120.14,90.19,120.14Z" style="fill:#004652"/><path d="M126.64,116.77a30.57,30.57,0,0,0-5-2.45c-2.49-.89,1.62,29.1,5.5,38.1C128.51,154.89,126.64,116.77,126.64,116.77Z" style="fill:#004652"/><rect x="80.14" y="52.39" width="197.96" height="197.96" transform="translate(-0.86 1.03) rotate(-0.33)" style="fill:none"/></g></svg>